<svg width="32" height="32" viewBox="0 0 32 32" fill="none" xmlns="http://www.w3.org/2000/svg">
<path d="M19.1346 19.1347V8.94727H7.37985V19.1347H19.1346ZM19.1346 19.1347L24.6201 19.1346V15.2164L22.2692 12.8654H19.1346L19.1346 19.1347ZM12.8655 21.0937C12.8655 22.1757 11.9884 23.0528 10.9064 23.0528C9.82439 23.0528 8.94726 22.1757 8.94726 21.0937C8.94726 20.0117 9.82439 19.1346 10.9064 19.1346C11.9884 19.1346 12.8655 20.0117 12.8655 21.0937ZM23.0528 21.0937C23.0528 22.1757 22.1757 23.0528 21.0937 23.0528C20.0117 23.0528 19.1346 22.1757 19.1346 21.0937C19.1346 20.0117 20.0117 19.1346 21.0937 19.1346C22.1757 19.1346 23.0528 20.0117 23.0528 21.0937Z" stroke="white" stroke-linecap="round" stroke-linejoin="round"/>
</svg>
