<svg width="32" height="32" viewBox="0 0 32 32" fill="none" xmlns="http://www.w3.org/2000/svg">
<path d="M9.8368 9.08172V8.46298H9.14903V9.08172H9.8368ZM22.8456 9.08172V8.46151H22.1475V9.08172H22.8456ZM9.84414 22.9065H9.14805V23.5248H9.84414V22.9065Z" fill="white"/>
<path d="M14.2752 25.9993C14.2718 25.0486 14.2683 24.098 14.2649 23.1479C14.2644 22.953 14.2649 22.7582 14.2649 22.5369H15.6747C15.6747 22.0504 15.6777 21.5902 15.6698 21.1301C15.6693 21.088 15.6106 21.0327 15.566 21.0067C14.3335 20.292 13.1004 19.5788 11.8634 18.8715C11.8115 18.8416 11.7131 18.8465 11.6583 18.8759C11.3494 19.0428 11.0493 19.2264 10.7414 19.3953C10.666 19.4369 10.572 19.4623 10.4859 19.4643C10.1545 19.4721 9.82309 19.4672 9.46428 19.4672V20.9H6V17.4534H9.45057V18.8166C9.90239 18.7667 10.3532 18.9385 10.7634 18.6453C10.9372 18.521 11.1389 18.4363 11.3156 18.3149C11.3768 18.2728 11.4355 18.1759 11.436 18.1034C11.4429 16.6966 11.4434 15.2897 11.4355 13.8833C11.4355 13.8075 11.3646 13.714 11.2999 13.6611C11.2006 13.5798 11.066 13.5412 10.9676 13.4584C10.5216 13.085 9.99736 13.1696 9.45889 13.1789V14.5349H6.00538V11.0848H9.454V12.5191C9.79617 12.5191 10.1197 12.5117 10.4423 12.523C10.5534 12.5269 10.6734 12.5568 10.7713 12.6087C11.064 12.7643 11.3489 12.9347 11.6343 13.1045C11.719 13.155 11.7836 13.1696 11.88 13.1133C13.1004 12.4035 14.3242 11.7001 15.5455 10.9918C15.5964 10.9624 15.6674 10.9056 15.6684 10.8606C15.6777 10.4005 15.6737 9.93984 15.6737 9.45914H14.2791V6.00073H17.7121V9.45473H16.314C16.314 9.82333 16.3356 10.1743 16.3077 10.5219C16.2837 10.82 16.3855 10.9781 16.6513 11.1259C17.7997 11.7647 18.9329 12.4305 20.0681 13.0923C20.1841 13.1598 20.2781 13.1731 20.3819 13.0889C20.3868 13.085 20.3926 13.082 20.398 13.0781C20.9938 12.6375 21.6482 12.4075 22.3991 12.5186C22.4354 12.524 22.4736 12.5132 22.5298 12.5083V11.0691H25.9995V14.5476H22.5245V13.1892C21.9512 13.1388 21.4094 13.1212 20.9473 13.5035C20.8782 13.5608 20.795 13.6058 20.7118 13.6405C20.5777 13.6973 20.5439 13.7903 20.5449 13.9313C20.5503 15.1492 20.5762 16.3686 20.5341 17.585C20.517 18.0853 20.6663 18.3482 21.1063 18.5978C21.5782 18.8651 22.0374 18.7912 22.5377 18.8113V17.4396H26V20.9181H22.5235V19.4677C22.1715 19.4677 21.8465 19.4736 21.5215 19.4643C21.4231 19.4613 21.3159 19.4329 21.2292 19.386C20.9262 19.2215 20.633 19.0399 20.33 18.8759C20.2756 18.8465 20.1768 18.8421 20.1249 18.872C18.8884 19.5788 17.6553 20.2915 16.4232 21.0062C16.3786 21.0322 16.3209 21.0875 16.3204 21.1301C16.313 21.5902 16.316 22.0504 16.316 22.5301H17.7248C17.7248 22.7425 17.7253 22.9354 17.7248 23.1288C17.7214 24.0858 17.7179 25.0423 17.7145 25.9993H14.2752ZM19.9036 14.1198C19.8454 14.1482 19.816 14.1604 19.7891 14.1761C18.673 14.8198 17.5589 15.4664 16.4398 16.1052C16.3258 16.1703 16.314 16.2496 16.314 16.3598C16.316 17.6105 16.3155 18.8612 16.3155 20.1119C16.3155 20.1677 16.3204 20.2235 16.3243 20.3067C16.4065 20.2632 16.4687 20.2328 16.5284 20.1985C17.481 19.6493 18.4199 19.0741 19.3916 18.5611C19.7993 18.3457 19.931 18.1034 19.9159 17.6477C19.8772 16.4831 19.9036 15.3161 19.9036 14.1198ZM15.6674 20.3018C15.6713 20.2426 15.6757 20.2059 15.6757 20.1692C15.6757 18.8871 15.6737 17.6056 15.6796 16.3236C15.6801 16.1914 15.6126 16.1444 15.5181 16.0901C14.4309 15.4645 13.3446 14.8359 12.2584 14.2094C12.21 14.1815 12.1586 14.1589 12.0969 14.1281C12.092 14.1702 12.0871 14.1947 12.0871 14.2191C12.0871 15.5208 12.0895 16.8219 12.0832 18.1235C12.0827 18.2522 12.1537 18.2894 12.2383 18.3384C13.3197 18.962 14.4 19.5862 15.4814 20.2093C15.5352 20.2401 15.5925 20.2646 15.6674 20.3018ZM12.4307 13.55C12.4645 13.5745 12.489 13.5955 12.5164 13.6112C13.6374 14.2593 14.7593 14.9054 15.8779 15.5575C15.9841 15.6196 16.0551 15.5868 16.1432 15.5354C17.2358 14.903 18.3293 14.2725 19.4224 13.6415C19.467 13.6161 19.5086 13.5857 19.56 13.5524C19.5257 13.5275 19.5012 13.5064 19.4738 13.4908C18.3528 12.8426 17.2323 12.1935 16.1074 11.5528C16.0467 11.518 15.9298 11.5259 15.8661 11.5621C14.7584 12.1935 13.6545 12.8324 12.5502 13.4702C12.5115 13.4927 12.4753 13.5196 12.4307 13.55ZM14.9204 6.64591V8.79046H17.0718V6.64591H14.9204ZM14.9165 23.189V25.3409H17.0703V23.189H14.9165ZM8.79414 13.8853V11.7417H6.65056V13.8853H8.79414ZM25.3465 11.7403H23.1931V13.8799H25.3465V11.7403ZM8.79511 20.2519V18.1088H6.64958V20.2519H8.79511ZM25.3416 20.2524V18.1083H23.1946V20.2524H25.3416Z" fill="white"/>
<path d="M9.8368 9.08172H9.14903V8.46298H9.8368V9.08172Z" fill="white"/>
<path d="M22.8456 9.08172H22.1475V8.46151H22.8456V9.08172Z" fill="white"/>
<path d="M9.84414 22.9065V23.5248H9.14805V22.9065H9.84414Z" fill="white"/>
<path d="M22.8446 23.5272H22.1519V22.9046H22.8446V23.5272Z" fill="white"/>
</svg>
