<svg width="32" height="32" viewBox="0 0 32 32" fill="none" xmlns="http://www.w3.org/2000/svg">
<path d="M17.7352 11.8974C17.5906 12.0449 17.5096 12.2432 17.5096 12.4498C17.5096 12.6563 17.5906 12.8547 17.7352 13.0022L18.9978 14.2648C19.1453 14.4094 19.3437 14.4904 19.5502 14.4904C19.7568 14.4904 19.9551 14.4094 20.1026 14.2648L23.0777 11.2897C23.4745 12.1666 23.5947 13.1436 23.4221 14.0905C23.2496 15.0374 22.7926 15.9093 22.112 16.5898C21.4314 17.2704 20.5596 17.7274 19.6127 17.9C18.6658 18.0725 17.6888 17.9523 16.8119 17.5555L11.3589 23.0085C11.045 23.3225 10.6192 23.4988 10.1752 23.4988C9.73124 23.4988 9.30544 23.3225 8.9915 23.0085C8.67756 22.6946 8.50119 22.2688 8.50119 21.8248C8.50119 21.3808 8.67756 20.955 8.9915 20.6411L14.4445 15.1881C14.0477 14.3112 13.9275 13.3342 14.1001 12.3873C14.2726 11.4404 14.7296 10.5686 15.4102 9.888C16.0908 9.20742 16.9626 8.75041 17.9095 8.57788C18.8564 8.40535 19.8334 8.5255 20.7103 8.92231L17.7352 11.8974Z" stroke="white" stroke-linecap="round" stroke-linejoin="round"/>
</svg>
