<svg width="32" height="32" viewBox="0 0 32 32" fill="none" xmlns="http://www.w3.org/2000/svg">
<path d="M17.3362 9.5C17.7942 9.5 18.0924 9.88273 17.9877 10.3405C17.6223 11.9421 17.2557 13.5436 16.8899 15.1451C16.3744 17.4033 15.8588 19.662 15.3441 21.9206C15.2507 22.3309 14.9099 22.5663 14.5224 22.4835C14.1382 22.4019 13.9243 22.0464 14.0185 21.6332C14.5983 19.0865 15.1793 16.5401 15.7608 13.9937C16.059 12.686 16.3589 11.3783 16.6567 10.0706C16.7397 9.70577 16.9825 9.5 17.3362 9.5Z" fill="white"/>
<path d="M9.60178 15.993C9.66059 16.053 9.7048 16.1001 9.7511 16.1452C10.8635 17.228 11.9768 18.31 13.0884 19.3937C13.4129 19.7099 13.415 20.0995 13.0992 20.3726C12.8502 20.5881 12.5078 20.5946 12.2504 20.3885C12.2271 20.3698 12.2049 20.3491 12.1837 20.3284C10.8606 19.041 9.53754 17.7532 8.21364 16.4666C8.07349 16.3298 7.99716 16.174 8.00008 15.9771C8.003 15.7693 8.11437 15.6245 8.25619 15.4869C9.00907 14.7567 9.76028 14.0245 10.5123 13.2928C11.0708 12.7493 11.6285 12.2055 12.1883 11.6628C12.3743 11.4826 12.5941 11.4047 12.8527 11.4867C13.1113 11.5687 13.2715 11.7452 13.3224 12.0038C13.3687 12.2396 13.2673 12.4291 13.0988 12.5927C12.411 13.2607 11.724 13.9304 11.0366 14.5988C10.564 15.0583 10.0906 15.5177 9.60178 15.993Z" fill="white"/>
<path d="M22.4024 16.0047C22.3407 15.9422 22.2965 15.8952 22.2497 15.8501C21.1327 14.7632 20.0145 13.6775 18.8995 12.5886C18.4995 12.1978 18.653 11.6068 19.1865 11.4749C19.4338 11.414 19.6403 11.496 19.8155 11.6657C20.1984 12.037 20.5809 12.4092 20.9634 12.781C21.8873 13.6796 22.8099 14.5794 23.7351 15.4767C23.8861 15.6232 24.0033 15.7775 23.9999 15.9995C23.997 16.1902 23.9182 16.3396 23.783 16.4699C23.4639 16.7779 23.1469 17.0884 22.8291 17.3977C21.828 18.3717 20.827 19.3454 19.8255 20.3195C19.6412 20.4988 19.4263 20.5881 19.1648 20.5126C18.9037 20.4372 18.7402 20.2651 18.6814 20.0078C18.6263 19.7651 18.7281 19.571 18.9016 19.4022C19.7529 18.5751 20.603 17.7467 21.4543 16.9196C21.7638 16.6188 22.075 16.3205 22.4024 16.0047Z" fill="white"/>
</svg>
