<svg width="32" height="32" viewBox="0 0 32 32" fill="none" xmlns="http://www.w3.org/2000/svg">
<path fill-rule="evenodd" clip-rule="evenodd" d="M16.0066 8.1333C11.5792 8.1333 8 11.7389 8 16.1994C8 19.765 10.2933 22.7831 13.4747 23.8514C13.8725 23.9317 14.0182 23.6778 14.0182 23.4643C14.0182 23.2773 14.005 22.6363 14.005 21.9685C11.7778 22.4493 11.314 21.0069 11.314 21.0069C10.9561 20.0721 10.4257 19.8318 10.4257 19.8318C9.69674 19.3377 10.4788 19.3377 10.4788 19.3377C11.2874 19.3911 11.7118 20.1657 11.7118 20.1657C12.4275 21.3942 13.5807 21.0471 14.0447 20.8334C14.1109 20.3125 14.3232 19.952 14.5485 19.7517C12.7721 19.5647 10.9031 18.8703 10.9031 15.772C10.9031 14.8906 11.2211 14.1695 11.7249 13.6087C11.6454 13.4084 11.3669 12.5803 11.8045 11.4719C11.8045 11.4719 12.4806 11.2582 14.0049 12.2998C14.6575 12.1233 15.3305 12.0335 16.0066 12.0327C16.6827 12.0327 17.3718 12.1263 18.0082 12.2998C19.5327 11.2582 20.2087 11.4719 20.2087 11.4719C20.6463 12.5803 20.3677 13.4084 20.2882 13.6087C20.8053 14.1695 21.1101 14.8906 21.1101 15.772C21.1101 18.8703 19.2411 19.5513 17.4515 19.7517C17.7432 20.0054 17.9949 20.4861 17.9949 21.2473C17.9949 22.329 17.9818 23.1971 17.9818 23.4641C17.9818 23.6778 18.1277 23.9317 18.5253 23.8515C21.7067 22.783 24 19.765 24 16.1994C24.0131 11.7389 20.4208 8.1333 16.0066 8.1333Z" fill="white"/>
</svg>
