<svg width="32" height="32" viewBox="0 0 32 32" fill="none" xmlns="http://www.w3.org/2000/svg">
<path d="M16.0097 7.9906C16.0036 7.9906 15.9982 7.9906 15.9928 7.9906C14.4754 7.9906 13.0475 8.58194 11.9717 9.65711C10.8917 10.7359 10.2968 12.1693 10.2968 13.695C10.2968 15.1012 10.815 16.4512 11.7567 17.4938C12.3408 18.1413 12.6621 19.0032 12.6621 19.9219C12.6621 20.657 13.1061 21.2889 13.7385 21.5691V22.0523C13.7385 23.1311 14.6162 24.0094 15.695 24.0094H16.3062C17.385 24.0094 18.2627 23.1311 18.2627 22.0523V21.5691C18.8951 21.2889 19.3391 20.657 19.3391 19.9219C19.3391 19.0032 19.6604 18.1419 20.2445 17.4938C21.1862 16.4506 21.7044 15.1012 21.7044 13.695C21.7044 12.1699 21.1095 10.7365 20.0295 9.65711C18.9525 8.58255 17.5246 7.9906 16.0097 7.9906ZM16.3056 22.9215H15.6944C15.2154 22.9215 14.8258 22.5313 14.8258 22.0523V21.725H17.1748V22.0523C17.1742 22.5313 16.7846 22.9215 16.3056 22.9215ZM19.4369 16.7659C18.6716 17.6127 18.2506 18.7338 18.2506 19.9219C18.2506 20.3164 17.9299 20.6377 17.5348 20.6377H14.464C14.0695 20.6377 13.7482 20.317 13.7482 19.9219C13.7482 18.7338 13.3272 17.6134 12.5619 16.7659C11.8014 15.9227 11.3828 14.8324 11.3828 13.695C11.3828 12.4604 11.8642 11.3001 12.7383 10.4266C13.6093 9.55745 14.7642 9.07906 15.9934 9.07906C15.9994 9.07966 16.0036 9.07966 16.0066 9.07906C17.2334 9.07906 18.3883 9.55745 19.2599 10.4266C20.134 11.3001 20.6154 12.4604 20.6154 13.695C20.6166 14.8318 20.1974 15.9221 19.4369 16.7659Z" fill="white"/>
<path d="M15.1048 10.2164C13.9366 10.5166 12.975 11.4148 12.5933 12.5619C12.4991 12.847 12.6531 13.1544 12.9376 13.2499C12.995 13.2686 13.0523 13.2776 13.1091 13.2776C13.3368 13.2776 13.5495 13.1333 13.625 12.9056C13.8901 12.1058 14.5612 11.4795 15.3742 11.2705C15.6648 11.1956 15.8399 10.8996 15.7656 10.6085C15.6913 10.3173 15.3954 10.1464 15.1048 10.2164Z" fill="white"/>
<path d="M8.82537 10.0352C8.57711 9.8649 8.23886 9.92953 8.06973 10.1772C7.9006 10.4248 7.96403 10.7631 8.21168 10.9328L9.02711 11.4903C9.12074 11.5544 9.22765 11.5852 9.33336 11.5852C9.50671 11.5852 9.67705 11.5018 9.78275 11.3478C9.95188 11.1001 9.88846 10.7619 9.64081 10.5921L8.82537 10.0352Z" fill="white"/>
<path d="M9.06275 13.8007C9.06275 13.5005 8.81933 13.2571 8.51913 13.2571H7.54362C7.24342 13.2571 7 13.5005 7 13.8007C7 14.1009 7.24342 14.3444 7.54362 14.3444H8.51852C8.81872 14.345 9.06275 14.1009 9.06275 13.8007Z" fill="white"/>
<path d="M9.02711 16.1117L8.21168 16.6687C7.96403 16.8378 7.9 17.1766 8.06973 17.4243C8.17483 17.5783 8.34577 17.6617 8.51913 17.6617C8.62483 17.6617 8.73175 17.6309 8.82537 17.5668L9.64081 17.0099C9.88846 16.8408 9.95248 16.5019 9.78275 16.2543C9.61302 16.0066 9.27477 15.9408 9.02711 16.1117Z" fill="white"/>
<path d="M22.6666 11.5852C22.7723 11.5852 22.8793 11.5544 22.9729 11.4903L23.7883 10.9328C24.036 10.7631 24.1 10.4248 23.9303 10.1772C23.7605 9.92953 23.4223 9.86429 23.1746 10.0352L22.3592 10.5927C22.1115 10.7625 22.0475 11.1007 22.2172 11.3484C22.323 11.5024 22.4933 11.5852 22.6666 11.5852Z" fill="white"/>
<path d="M24.4564 13.2571H23.4815C23.1813 13.2571 22.9379 13.5005 22.9379 13.8007C22.9379 14.1009 23.1813 14.3444 23.4815 14.3444H24.4564C24.7566 14.3444 25 14.1009 25 13.8007C25 13.5005 24.7566 13.2571 24.4564 13.2571Z" fill="white"/>
<path d="M22.9729 16.1117C22.7252 15.9414 22.3858 16.006 22.2172 16.2537C22.0481 16.5013 22.1115 16.8402 22.3592 17.0093L23.1746 17.5662C23.2683 17.6303 23.3752 17.6611 23.4809 17.6611C23.6542 17.6611 23.8252 17.5777 23.9303 17.4237C24.0994 17.176 24.036 16.8372 23.7883 16.6681L22.9729 16.1117Z" fill="white"/>
</svg>
