<svg width="32" height="32" viewBox="0 0 32 32" fill="none" xmlns="http://www.w3.org/2000/svg">
<path d="M16 25.0145C15.7516 25.0145 15.5197 24.9482 15.3043 24.8323L13.1014 23.5238C12.7702 23.3416 12.9358 23.2753 13.0352 23.2422C13.4824 23.0931 13.5652 23.06 14.029 22.795C14.0787 22.7619 14.1449 22.7784 14.1946 22.8116L15.8841 23.8219C15.9503 23.855 16.0331 23.855 16.0828 23.8219L22.6915 19.9958C22.7578 19.9627 22.7909 19.8964 22.7909 19.8136V12.178C22.7909 12.0952 22.7578 12.029 22.6915 11.9958L16.0828 8.1863C16.0166 8.15318 15.9337 8.15318 15.8841 8.1863L9.27536 11.9958C9.20911 12.029 9.17598 12.1118 9.17598 12.178V19.8136C9.17598 19.8799 9.20911 19.9627 9.27536 19.9958L11.0807 21.0393C12.058 21.5362 12.6708 20.9565 12.6708 20.3768V12.8405C12.6708 12.7412 12.7536 12.6418 12.8696 12.6418H13.7143C13.8137 12.6418 13.913 12.7246 13.913 12.8405V20.3768C13.913 21.6853 13.2008 22.4472 11.9586 22.4472C11.5776 22.4472 11.2795 22.4472 10.4348 22.0331L8.69565 21.0393C8.26501 20.7909 8 20.3271 8 19.8302V12.1946C8 11.6977 8.26501 11.2339 8.69565 10.9855L15.3043 7.15939C15.7184 6.9275 16.2816 6.9275 16.6957 7.15939L23.3043 10.9855C23.735 11.2339 24 11.6977 24 12.1946V19.8302C24 20.3271 23.735 20.7909 23.3043 21.0393L16.6957 24.8654C16.4803 24.9648 16.2319 25.0145 16 25.0145ZM18.0373 19.7639C15.1387 19.7639 14.5424 18.4389 14.5424 17.3126C14.5424 17.2132 14.6253 17.1138 14.7412 17.1138H15.6025C15.7019 17.1138 15.7847 17.1801 15.7847 17.2795C15.9172 18.1573 16.2981 18.588 18.0538 18.588C19.4451 18.588 20.0414 18.2733 20.0414 17.5279C20.0414 17.0973 19.8758 16.7826 17.706 16.5673C15.9006 16.3851 14.7743 15.9875 14.7743 14.5466C14.7743 13.2049 15.9006 12.4099 17.7888 12.4099C19.9089 12.4099 20.9524 13.1387 21.0849 14.7287C21.0849 14.7784 21.0683 14.8281 21.0352 14.8778C21.0021 14.9109 20.9524 14.9441 20.9027 14.9441H20.0414C19.9586 14.9441 19.8758 14.8778 19.8592 14.795C19.6605 13.884 19.147 13.5859 17.7888 13.5859C16.265 13.5859 16.0828 14.1159 16.0828 14.5134C16.0828 14.9938 16.2981 15.1428 18.352 15.4078C20.3892 15.6728 21.3499 16.0538 21.3499 17.4782C21.3333 18.9358 20.1408 19.7639 18.0373 19.7639Z" fill="white"/>
</svg>
