<svg width="32" height="32" viewBox="0 0 32 32" fill="none" xmlns="http://www.w3.org/2000/svg">
<path d="M20.4647 18.0741C20.2343 18.0741 20.0476 18.2609 20.0476 18.4912V21.9232C20.0476 22.1535 20.2343 22.3402 20.4647 22.3402H24.5829C24.8133 22.3402 25 22.1535 25 21.9232V18.4912C25 18.2609 24.8133 18.0741 24.5829 18.0741H22.9408V15.7375C22.9408 15.5072 22.754 15.3205 22.5237 15.3205H16.4171V13.9257H18.3014C18.5317 13.9257 18.7184 13.739 18.7184 13.5086V10.0769C18.7184 9.84653 18.5317 9.65979 18.3014 9.65979H13.6986C13.4683 9.65979 13.2816 9.84653 13.2816 10.0769V13.5086C13.2816 13.739 13.4683 13.9257 13.6986 13.9257H15.5829V15.3205H9.47609C9.24577 15.3205 9.05903 15.5072 9.05903 15.7375V18.0741H7.41706C7.18674 18.0741 7 18.2609 7 18.4912V21.9232C7 22.1535 7.18674 22.3402 7.41706 22.3402H11.5353C11.7657 22.3402 11.9524 22.1535 11.9524 21.9232V18.4912C11.9524 18.2609 11.7657 18.0741 11.5353 18.0741H9.89315V16.1546H15.5829V18.0741H13.941C13.7106 18.0741 13.5239 18.2609 13.5239 18.4912V21.9232C13.5239 22.1535 13.7106 22.3402 13.941 22.3402H18.059C18.2894 22.3402 18.4761 22.1535 18.4761 21.9232V18.4912C18.4761 18.2609 18.2894 18.0741 18.059 18.0741H16.4171V16.1546H22.1066V18.0741H20.4647ZM14.1157 10.4939H17.8843V13.0916H14.1157V10.4939ZM11.1183 21.5061H7.83412V18.9082H11.1183V21.5061ZM17.642 21.5061H14.358V18.9082H17.642V21.5061ZM24.1659 21.5061H20.8817V18.9082H24.1659V21.5061Z" fill="white"/>
</svg>
