<svg width="32" height="32" viewBox="0 0 32 32" fill="none" xmlns="http://www.w3.org/2000/svg">
<path d="M13.5084 14.1417C12.4675 14.1417 11.6207 15.0747 11.6207 16.2214C11.6207 17.3681 12.4675 18.3011 13.5084 18.3011C14.5493 18.3011 15.3962 17.3681 15.3962 16.2214C15.3962 15.0747 14.5493 14.1417 13.5084 14.1417ZM13.5084 17.2464C13.0491 17.2464 12.6754 16.7866 12.6754 16.2214C12.6754 15.6562 13.0491 15.1964 13.5084 15.1964C13.9677 15.1964 14.3415 15.6562 14.3415 16.2214C14.3415 16.7866 13.9677 17.2464 13.5084 17.2464Z" fill="white"/>
<path d="M18.4916 14.1417C17.4507 14.1417 16.6038 15.0747 16.6038 16.2214C16.6038 17.3681 17.4507 18.3011 18.4916 18.3011C19.5325 18.3011 20.3793 17.3681 20.3793 16.2214C20.3793 15.0747 19.5325 14.1417 18.4916 14.1417ZM18.4916 17.2464C18.0323 17.2464 17.6585 16.7866 17.6585 16.2214C17.6585 15.6562 18.0323 15.1964 18.4916 15.1964C18.9509 15.1964 19.3247 15.6562 19.3247 16.2214C19.3247 16.7866 18.9509 17.2464 18.4916 17.2464Z" fill="white"/>
<path d="M24.9992 19.7468C24.9867 19.5239 24.6714 14.2499 22.6686 11.095C22.6277 11.0305 22.5732 10.9756 22.5089 10.9343C20.0325 9.33961 18.3457 9.34418 18.2751 9.3439C18.0706 9.34661 17.8944 9.46558 17.8093 9.63749L16.9585 11.2678C16.6416 11.2471 16.3217 11.2363 16 11.2363C15.6784 11.2363 15.3584 11.2471 15.0415 11.2678L14.1917 9.63939C14.1069 9.46649 13.9302 9.34664 13.7249 9.34394C13.6539 9.34352 11.9673 9.33979 9.49115 10.9343C9.42692 10.9757 9.37239 11.0305 9.33143 11.095C7.32865 14.2499 7.01327 19.5239 7.00082 19.7468C6.99302 19.8866 7.04111 20.0238 7.13452 20.1281C7.2274 20.2317 9.43377 22.6561 12.4835 22.6561C12.4971 22.6561 12.5111 22.656 12.5248 22.656C12.6851 22.6548 12.8361 22.5809 12.9353 22.455L14.342 20.6698C14.8822 20.7315 15.4372 20.7637 16 20.7637C16.5629 20.7637 17.1178 20.7315 17.658 20.6698L19.0647 22.455C19.1639 22.5809 19.3149 22.6548 19.4752 22.656C19.4891 22.6561 19.5027 22.6561 19.5165 22.6561C22.566 22.6561 24.7727 20.2317 24.8655 20.1281C24.9589 20.0238 25.007 19.8866 24.9992 19.7468ZM19.731 21.5965L18.8516 20.4803C20.1903 20.2049 21.3919 19.7363 22.3298 19.107C22.5717 18.9448 22.6362 18.6172 22.474 18.3753C22.3117 18.1334 21.984 18.0688 21.7422 18.2312C20.3424 19.1704 18.2494 19.709 16 19.709C13.7507 19.709 11.6577 19.1704 10.2578 18.2313C10.0159 18.069 9.6883 18.1336 9.52606 18.3755C9.36381 18.6173 9.42836 18.9449 9.67023 19.1072C10.6082 19.7363 11.8098 20.205 13.1485 20.4804L12.2691 21.5964C10.2042 21.5006 8.56102 20.0567 8.07034 19.5775C8.15226 18.5557 8.5773 14.3414 10.1608 11.7581C11.7158 10.7765 12.8893 10.5035 13.4134 10.4277L13.9138 11.3864C12.7374 11.5582 11.6353 11.8738 10.6965 12.3158C10.433 12.4399 10.32 12.7541 10.444 13.0176C10.5681 13.281 10.8823 13.394 11.1457 13.2701C12.4868 12.6387 14.2108 12.291 16 12.291C17.7893 12.291 19.5133 12.6388 20.8543 13.2702C20.9269 13.3044 21.0033 13.3206 21.0786 13.3206C21.2765 13.3206 21.4662 13.2086 21.5561 13.0178C21.6801 12.7543 21.5671 12.4401 21.3036 12.316C20.3648 11.874 19.2627 11.5583 18.0862 11.3865L18.5866 10.4277C19.1106 10.5036 20.2841 10.7766 21.8392 11.7582C23.421 14.3388 23.8474 18.5574 23.9296 19.5784C23.4402 20.0586 21.8043 21.5014 19.731 21.5965Z" fill="white"/>
</svg>
