<svg width="32" height="32" viewBox="0 0 32 32" fill="none" xmlns="http://www.w3.org/2000/svg">
<path d="M8.79661 20.332L9.45657 20.713L16.8088 7.97899L16.1488 7.59795L8.79661 20.332Z" fill="white"/>
<path d="M23.3499 19.3147H8.64548V20.0768H23.3499V19.3147Z" fill="white"/>
<path d="M8.93644 19.7428L16.2914 23.9893L16.6725 23.3294L9.31748 19.0828L8.93644 19.7428Z" fill="white"/>
<path d="M15.3257 8.67526L22.6807 12.9218L23.0617 12.2618L15.7068 8.0153L15.3257 8.67526Z" fill="white"/>
<path d="M8.93848 12.2589L9.31952 12.9189L16.6745 8.67236L16.2935 8.0124L8.93848 12.2589Z" fill="white"/>
<path d="M15.1929 7.97913L22.5451 20.7132L23.205 20.3321L15.8528 7.59809L15.1929 7.97913Z" fill="white"/>
<path d="M9.99059 11.7536H9.22851V20.2466H9.99059V11.7536Z" fill="white"/>
<path d="M22.7715 11.7536H22.0094V20.2466H22.7715V11.7536Z" fill="white"/>
<path d="M15.8288 23.0903L16.1617 23.6668L22.5585 19.9734L22.2257 19.397L15.8288 23.0903Z" fill="white"/>
<path d="M23.7815 20.4945C23.3408 21.2612 22.3583 21.5229 21.5916 21.0822C20.825 20.6414 20.5633 19.659 21.004 18.8923C21.4447 18.1257 22.4272 17.864 23.1938 18.3047C23.9651 18.75 24.2268 19.7279 23.7815 20.4945Z" fill="white"/>
<path d="M10.9914 13.1079C10.5507 13.8745 9.56823 14.1362 8.80156 13.6955C8.03489 13.2548 7.77322 12.2723 8.21394 11.5057C8.65466 10.739 9.6371 10.4773 10.4038 10.918C11.1704 11.3633 11.4321 12.3412 10.9914 13.1079Z" fill="white"/>
<path d="M8.21853 20.4945C7.77781 19.7279 8.03948 18.75 8.80615 18.3047C9.57282 17.864 10.5507 18.1257 10.996 18.8923C11.4367 19.659 11.175 20.6368 10.4084 21.0822C9.6371 21.5229 8.65925 21.2612 8.21853 20.4945Z" fill="white"/>
<path d="M21.0086 13.1079C20.5679 12.3412 20.8296 11.3633 21.5962 10.918C22.3629 10.4773 23.3408 10.739 23.7861 11.5057C24.2268 12.2723 23.9651 13.2502 23.1984 13.6955C22.4318 14.1362 21.4493 13.8745 21.0086 13.1079Z" fill="white"/>
<path d="M16 24.989C15.114 24.989 14.3978 24.2728 14.3978 23.3868C14.3978 22.5007 15.114 21.7846 16 21.7846C16.886 21.7846 17.6022 22.5007 17.6022 23.3868C17.6022 24.2682 16.886 24.989 16 24.989Z" fill="white"/>
<path d="M16 10.2156C15.114 10.2156 14.3978 9.49947 14.3978 8.61343C14.3978 7.7274 15.114 7.01123 16 7.01123C16.886 7.01123 17.6022 7.7274 17.6022 8.61343C17.6022 9.49947 16.886 10.2156 16 10.2156Z" fill="white"/>
</svg>
