<svg width="32" height="32" viewBox="0 0 32 32" fill="none" xmlns="http://www.w3.org/2000/svg">
<path d="M16 12C15.1813 12 8 11.944 8 10C8 8.056 15.1813 8 16 8C16.8187 8 24 8.056 24 10C24 11.944 16.8187 12 16 12ZM9.05867 10C9.54667 10.3787 11.8887 11 16 11C20.1113 11 22.4533 10.3787 22.9413 10C22.4533 9.62133 20.1113 9 16 9C11.8887 9 9.54667 9.62133 9.05867 10Z" fill="white"/>
<path d="M16 16C15.1813 16 8 15.944 8 14C8 13.724 8.224 13.5 8.5 13.5C8.75667 13.5 8.968 13.6933 8.99667 13.9427C9.30467 14.3113 11.6713 15 16 15C20.3287 15 22.6953 14.3113 23.0033 13.9427C23.032 13.6933 23.2433 13.5 23.5 13.5C23.776 13.5 24 13.724 24 14C24 15.944 16.8187 16 16 16ZM23 13.9993C23 14 23 14 23 13.9993V13.9993ZM9 13.9993C9 14 9 14 9 13.9993V13.9993Z" fill="white"/>
<path d="M16 20C15.1813 20 8 19.944 8 18C8 17.724 8.224 17.5 8.5 17.5C8.75667 17.5 8.968 17.6933 8.99667 17.9427C9.30467 18.3113 11.6713 19 16 19C20.3287 19 22.6953 18.3113 23.0033 17.9427C23.032 17.6933 23.2433 17.5 23.5 17.5C23.776 17.5 24 17.724 24 18C24 19.944 16.8187 20 16 20ZM23 17.9993C23 18 23 18 23 17.9993V17.9993ZM9 17.9993C9 18 9 18 9 17.9993V17.9993Z" fill="white"/>
<path d="M16 24C15.1813 24 8 23.944 8 22L8 10C8 9.724 8.224 9.5 8.5 9.5C8.776 9.5 9 9.724 9 10V21.946C9.32067 22.3167 11.6867 23 16 23C20.3133 23 22.6793 22.3167 23 21.946V10C23 9.724 23.224 9.5 23.5 9.5C23.776 9.5 24 9.724 24 10V22C24 23.944 16.8187 24 16 24Z" fill="white"/>
<path d="M11.3333 18C11.7015 18 12 17.7015 12 17.3333C12 16.9651 11.7015 16.6667 11.3333 16.6667C10.9651 16.6667 10.6667 16.9651 10.6667 17.3333C10.6667 17.7015 10.9651 18 11.3333 18Z" fill="white"/>
<path d="M11.3333 14C11.7015 14 12 13.7015 12 13.3333C12 12.9651 11.7015 12.6667 11.3333 12.6667C10.9651 12.6667 10.6667 12.9651 10.6667 13.3333C10.6667 13.7015 10.9651 14 11.3333 14Z" fill="white"/>
<path d="M11.3333 22C11.7015 22 12 21.7015 12 21.3333C12 20.9651 11.7015 20.6667 11.3333 20.6667C10.9651 20.6667 10.6667 20.9651 10.6667 21.3333C10.6667 21.7015 10.9651 22 11.3333 22Z" fill="white"/>
</svg>
