<svg width="32" height="32" viewBox="0 0 32 32" fill="none" xmlns="http://www.w3.org/2000/svg">
<path d="M24 9.84279V22.1553C23.9949 22.1643 23.9863 22.1725 23.9847 22.1823C23.8853 22.8508 23.3323 23.3381 22.5597 23.3373C18.1852 23.3326 13.8107 23.3353 9.43663 23.333C9.2973 23.333 9.15327 23.3232 9.01981 23.2872C8.36855 23.1119 8.00065 22.6113 8.00026 21.9123C7.99987 17.9699 7.99987 14.0279 8.00065 10.0854C8.00065 9.24045 8.56072 8.66551 9.40493 8.66512C13.8002 8.66121 18.1954 8.66316 22.5906 8.66355C22.9691 8.66355 23.3069 8.77471 23.5871 9.0385C23.82 9.25767 23.9319 9.53869 24 9.84279ZM16.0052 9.33478C13.8338 9.33478 11.6628 9.33478 9.49143 9.33478C9.41354 9.33478 9.33487 9.33478 9.25738 9.34182C8.97793 9.36687 8.73684 9.58409 8.68674 9.8604C8.6703 9.95199 8.66522 10.0467 8.66522 10.1399C8.66404 14.0451 8.66443 17.9499 8.66522 21.8551C8.66522 21.9381 8.66835 22.0222 8.68166 22.1037C8.7251 22.369 8.87774 22.549 9.13449 22.6269C9.23155 22.6563 9.33918 22.6614 9.44211 22.6614C13.8158 22.6629 18.1895 22.6629 22.5632 22.6625C22.6204 22.6625 22.6779 22.6614 22.7347 22.6563C23.0223 22.6312 23.265 22.4132 23.3143 22.1291C23.3296 22.0426 23.3343 21.953 23.3343 21.8649C23.335 17.9546 23.335 14.0443 23.3343 10.134C23.3343 10.051 23.3307 9.96686 23.3166 9.88545C23.2716 9.62714 23.1225 9.44906 22.8724 9.37235C22.7656 9.33986 22.6474 9.33556 22.5343 9.33517C20.3578 9.33321 18.1813 9.3336 16.0048 9.3336L16.0052 9.33478Z" fill="white"/>
<path d="M15.9833 11.9989C13.9215 11.9989 11.8593 11.9989 9.79749 11.9981C9.72039 11.9981 9.64015 11.9946 9.56657 11.9739C9.4155 11.9316 9.33057 11.7978 9.34114 11.6412C9.35131 11.4889 9.45933 11.3676 9.61315 11.3445C9.67459 11.3351 9.73761 11.3351 9.79984 11.3351C13.934 11.3347 18.0686 11.3351 22.2028 11.3351C22.2497 11.3351 22.2967 11.3344 22.3433 11.3387C22.5335 11.3559 22.6572 11.4819 22.6607 11.6592C22.6638 11.8357 22.5441 11.97 22.3566 11.9946C22.3002 12.0021 22.2423 11.9993 22.1852 11.9993C20.1179 11.9993 18.051 11.9993 15.9837 11.9993L15.9833 11.9989Z" fill="white"/>
<path d="M14.0002 17.6724H12.6738C12.6706 17.7272 12.6652 17.7816 12.6648 17.8364C12.6632 18.1123 12.6687 18.3886 12.6605 18.6642C12.6546 18.8587 12.5121 18.9949 12.3356 18.9965C12.1677 18.998 12.0068 18.8661 12.0065 18.6841C12.0053 17.8305 11.9853 16.9754 12.0339 16.1241C12.0703 15.4814 12.7117 14.9789 13.3583 15.0004C14.0389 15.0231 14.6283 15.5492 14.6491 16.2039C14.6749 17.0204 14.6628 17.8384 14.6608 18.6556C14.6604 18.8579 14.509 19 14.3281 18.9965C14.1454 18.9929 14.0072 18.8516 14.0021 18.6454C13.9955 18.38 14.0002 18.1143 14.0002 17.8485C14.0002 17.7926 14.0002 17.7366 14.0002 17.672V17.6724ZM14.0002 16.9922C14.0002 16.8016 14.0006 16.6208 14.0002 16.4399C14.0002 16.3777 14.0017 16.3147 13.9939 16.2533C13.9524 15.9284 13.6929 15.6893 13.3626 15.6685C13.0597 15.6494 12.7379 15.8662 12.6984 16.1672C12.6632 16.4356 12.691 16.7123 12.691 16.9922H14.0006H14.0002Z" fill="white"/>
<path d="M15.9997 17.656C15.9997 18.0012 16.0044 18.3182 15.9982 18.6348C15.9931 18.897 15.7857 19.0536 15.561 18.9745C15.4381 18.9311 15.3614 18.845 15.3442 18.7143C15.336 18.6528 15.336 18.5898 15.3356 18.5276C15.3352 17.5076 15.3352 16.4873 15.3356 15.4674C15.3356 15.0983 15.4365 14.9997 15.8119 14.9997C16.0878 14.9997 16.3637 14.9969 16.6393 15C17.242 15.0071 17.6408 15.3844 17.6588 15.9863C17.6678 16.2967 17.6737 16.6141 17.6208 16.9182C17.5441 17.3601 17.2005 17.6321 16.7547 17.6544C16.5117 17.6665 16.2674 17.6568 15.9993 17.6568L15.9997 17.656ZM16.008 16.9984C16.2385 16.9984 16.4514 17.0016 16.6643 16.9977C16.8745 16.9938 16.9872 16.892 16.9958 16.6846C17.0052 16.4458 17.0036 16.2063 16.9966 15.9672C16.9915 15.8 16.9093 15.6955 16.743 15.6838C16.5019 15.6666 16.2584 15.6795 16.008 15.6795V16.9988V16.9984Z" fill="white"/>
<path d="M18.6529 15.6611C18.5379 15.6611 18.4345 15.6666 18.332 15.6599C18.139 15.6478 18.0021 15.5081 18.0021 15.3319C18.0021 15.1629 18.1332 15.009 18.3171 15.0051C18.7699 14.995 19.2228 14.9954 19.6756 15.0044C19.8678 15.0083 20.0028 15.166 19.9973 15.3406C19.9918 15.5182 19.856 15.6501 19.6596 15.6611C19.5574 15.667 19.4545 15.6623 19.3445 15.6623V18.3366C19.4553 18.3366 19.5582 18.3319 19.6607 18.3378C19.8568 18.3487 19.9926 18.4814 19.9977 18.6591C20.0028 18.8411 19.8635 18.9929 19.66 18.9965C19.2228 19.0039 18.7852 19.0035 18.348 18.9972C18.1433 18.9941 18.0024 18.8485 18.0028 18.6661C18.0028 18.4841 18.1441 18.3475 18.3488 18.3374C18.4463 18.3323 18.5445 18.3366 18.6533 18.3366V15.6619L18.6529 15.6611Z" fill="white"/>
<path d="M10.1626 10.6663C10.0949 10.6631 10.0268 10.6643 9.9603 10.6561C9.79788 10.6353 9.68634 10.516 9.67342 10.3555C9.6609 10.1997 9.75561 10.0459 9.91569 10.0224C10.0777 9.99895 10.2484 9.99778 10.4104 10.0201C10.5806 10.0436 10.673 10.1943 10.6585 10.3637C10.6452 10.5218 10.5317 10.6385 10.3654 10.6565C10.2985 10.6635 10.2304 10.6577 10.1626 10.6577C10.1626 10.6604 10.1626 10.6635 10.1626 10.6663Z" fill="white"/>
<path d="M11.8194 10.6667C11.7517 10.6627 11.6836 10.6639 11.617 10.6545C11.4616 10.6322 11.3532 10.514 11.3415 10.3614C11.3294 10.2048 11.4108 10.0514 11.5626 10.0291C11.7391 10.0033 11.9254 10.0033 12.102 10.0283C12.2526 10.0494 12.3399 10.208 12.3266 10.3575C12.3129 10.5117 12.2061 10.6318 12.0534 10.6537C11.9767 10.6647 11.8977 10.6627 11.8198 10.6667H11.8194Z" fill="white"/>
<path d="M21.8259 10.6667C21.7566 10.6627 21.6834 10.6643 21.6114 10.6533C21.4634 10.6314 21.3574 10.5168 21.3421 10.3712C21.3257 10.2146 21.4032 10.0549 21.5523 10.0322C21.7335 10.0044 21.9249 10.004 22.1065 10.0299C22.2572 10.0514 22.3405 10.2111 22.3249 10.3625C22.3088 10.5179 22.2024 10.633 22.0474 10.6545C21.9754 10.6643 21.9022 10.6627 21.8255 10.6667H21.8259Z" fill="white"/>
</svg>
