<svg width="32" height="32" viewBox="0 0 32 32" fill="none" xmlns="http://www.w3.org/2000/svg">
<path fill-rule="evenodd" clip-rule="evenodd" d="M10.5592 9.19553C10.9172 8.8375 11.4028 8.63637 11.9091 8.63637H16.6818C16.8265 8.63637 16.9652 8.69384 17.0675 8.79613L21.8402 13.5689C21.9425 13.6711 22 13.8099 22 13.9545V21.4545C22 21.9609 21.7989 22.4465 21.4408 22.8045C21.0828 23.1625 20.5972 23.3636 20.0909 23.3636H11.9091C11.4028 23.3636 10.9172 23.1625 10.5592 22.8045C10.2011 22.4465 10 21.9609 10 21.4545V10.5455C10 10.0391 10.2011 9.55355 10.5592 9.19553ZM11.9091 9.72728C11.6921 9.72728 11.484 9.81348 11.3305 9.96692C11.1771 10.1204 11.0909 10.3285 11.0909 10.5455V21.4545C11.0909 21.6715 11.1771 21.8797 11.3305 22.0331C11.484 22.1865 11.6921 22.2727 11.9091 22.2727H20.0909C20.3079 22.2727 20.516 22.1865 20.6695 22.0331C20.8229 21.8797 20.9091 21.6715 20.9091 21.4545V14.5H16.6818C16.3806 14.5 16.1364 14.2558 16.1364 13.9545V9.72728H11.9091ZM17.2273 10.4987L20.1377 13.4091H17.2273V10.4987Z" fill="white"/>
</svg>
