<svg width="32" height="32" viewBox="0 0 32 32" fill="none" xmlns="http://www.w3.org/2000/svg">
<path fill-rule="evenodd" clip-rule="evenodd" d="M23.8622 8.13783C24.0459 8.32161 24.0459 8.61957 23.8622 8.80334L21.7207 10.9448C22.2165 11.5473 22.5587 12.3001 22.4922 13.0309C22.3615 14.4674 21.4394 15.6984 20.8018 16.3982C20.2274 17.0287 19.2997 16.9535 18.7505 16.4043L15.5315 13.1853C15.0237 12.6775 14.9059 11.8232 15.4604 11.2394C16.1186 10.5462 17.371 9.50591 19.0118 9.50587C19.7449 9.50586 20.4638 9.82892 21.0473 10.2872L23.1967 8.13783C23.3804 7.95406 23.6784 7.95406 23.8622 8.13783ZM19.0118 10.447C17.7676 10.4471 16.7492 11.249 16.1428 11.8875C15.9982 12.0398 15.987 12.3098 16.1971 12.5198L19.416 15.7388C19.6405 15.9633 19.9436 15.9427 20.106 15.7644C20.71 15.1014 21.4531 14.064 21.5549 12.9456C21.5972 12.4806 21.3221 11.8567 20.792 11.3187C20.2681 10.7871 19.5987 10.447 19.0118 10.447ZM14.8269 14.1614C15.0106 14.3451 15.0106 14.6431 14.8269 14.8269L13.6537 16.0001L15.9999 18.3463L17.1731 17.1731C17.3569 16.9893 17.6549 16.9893 17.8386 17.1731C18.0224 17.3569 18.0224 17.6549 17.8386 17.8386L16.6329 19.0444C16.9592 19.5913 16.9264 20.3206 16.3981 20.8019C15.6982 21.4394 14.4674 22.3614 13.0309 22.4922C12.2813 22.5605 11.5304 22.2268 10.9315 21.734L8.80334 23.8622C8.61957 24.0459 8.32161 24.0459 8.13783 23.8622C7.95406 23.6784 7.95406 23.3804 8.13783 23.1967L10.2762 21.0583C9.82021 20.47 9.50589 19.7461 9.50576 19.012C9.50549 17.4941 10.5364 16.2159 11.2151 15.5295C11.711 15.0278 12.4321 15.0223 12.9627 15.36L14.1614 14.1614C14.3451 13.9776 14.6431 13.9776 14.8269 14.1614ZM12.5538 16.2313C12.3364 16.0138 12.0461 16.0276 11.8843 16.1912C11.2335 16.8495 10.4467 17.8921 10.4469 19.0118C10.447 19.6046 10.7769 20.276 11.2976 20.7967C11.8228 21.3219 12.4461 21.6004 12.9456 21.5549C14.064 21.4531 15.1013 20.71 15.7643 20.1061C15.9426 19.9437 15.9631 19.6406 15.7387 19.4161L12.5538 16.2313Z" fill="white"/>
</svg>
