<svg width="32" height="32" viewBox="0 0 32 32" fill="none" xmlns="http://www.w3.org/2000/svg">
<path d="M23.569 18.5052C23.4754 18.4462 23.3685 18.4118 23.258 18.4052C23.1476 18.3986 23.0373 18.42 22.9374 18.4675C22.6873 18.5858 22.4114 18.6389 22.1353 18.6219C21.8592 18.6049 21.5919 18.5184 21.3582 18.3705C21.1245 18.2225 20.932 18.0178 20.7986 17.7754C20.6653 17.5331 20.5953 17.261 20.5953 16.9844C20.5953 16.7078 20.6653 16.4356 20.7986 16.1933C20.932 15.951 21.1245 15.7463 21.3582 15.5983C21.5919 15.4503 21.8592 15.3638 22.1353 15.3468C22.4114 15.3299 22.6873 15.383 22.9374 15.5012C23.0374 15.5487 23.1478 15.5701 23.2584 15.5634C23.3689 15.5567 23.476 15.5222 23.5695 15.463C23.6631 15.4038 23.7402 15.3219 23.7936 15.2249C23.847 15.1278 23.875 15.0189 23.875 14.9082V11.4062C23.875 11.0582 23.7367 10.7243 23.4906 10.4782C23.2444 10.232 22.9106 10.0937 22.5625 10.0937H19.5913C19.6035 9.9848 19.6095 9.87525 19.6094 9.76562C19.6088 9.3623 19.5258 8.96334 19.3656 8.59321C19.2053 8.22308 18.9712 7.88957 18.6775 7.61312C18.2708 7.2312 17.7643 6.97227 17.2166 6.86633C16.6688 6.76039 16.1023 6.81176 15.5826 7.01451C15.0628 7.21726 14.6111 7.56308 14.2798 8.01193C13.9485 8.46078 13.7511 8.9943 13.7105 9.5507C13.6979 9.73169 13.7017 9.91345 13.722 10.0937H10.75C10.4019 10.0937 10.068 10.232 9.8219 10.4782C9.57576 10.7243 9.43748 11.0582 9.43748 11.4062V14.0493C9.32853 14.0371 9.21898 14.0311 9.10936 14.0312C8.70603 14.0319 8.30709 14.1149 7.93697 14.2751C7.56684 14.4354 7.23333 14.6695 6.95686 14.9631C6.6784 15.2573 6.46399 15.606 6.32717 15.9872C6.19035 16.3684 6.1341 16.7739 6.16197 17.178C6.209 17.8895 6.51132 18.5601 7.01335 19.0665C7.51538 19.5729 8.18335 19.881 8.89443 19.9342C9.07541 19.9472 9.25721 19.9434 9.43748 19.9227V22.5625C9.43748 22.9106 9.57576 23.2444 9.8219 23.4906C10.068 23.7367 10.4019 23.875 10.75 23.875H22.5625C22.9106 23.875 23.2444 23.7367 23.4906 23.4906C23.7367 23.2444 23.875 22.9106 23.875 22.5625V19.0606C23.875 18.9497 23.847 18.8406 23.7935 18.7435C23.74 18.6464 23.6628 18.5644 23.569 18.5052ZM22.5625 22.5625H10.75V19.0606C10.75 18.9498 10.722 18.8409 10.6686 18.7439C10.6152 18.6469 10.5381 18.565 10.4445 18.5058C10.351 18.4466 10.2439 18.412 10.1334 18.4053C10.0228 18.3986 9.91241 18.42 9.81236 18.4675C9.5623 18.5858 9.2864 18.6389 9.01031 18.6219C8.73421 18.6049 8.46689 18.5184 8.2332 18.3705C7.9995 18.2225 7.80701 18.0178 7.67364 17.7754C7.54026 17.5331 7.47032 17.261 7.47032 16.9844C7.47032 16.7078 7.54026 16.4356 7.67364 16.1933C7.80701 15.951 7.9995 15.7463 8.2332 15.5983C8.46689 15.4503 8.73421 15.3638 9.01031 15.3468C9.2864 15.3299 9.5623 15.383 9.81236 15.5012C9.91241 15.5487 10.0228 15.5701 10.1334 15.5634C10.2439 15.5567 10.351 15.5222 10.4445 15.463C10.5381 15.4038 10.6152 15.3219 10.6686 15.2249C10.722 15.1278 10.75 15.0189 10.75 14.9082V11.4062H14.58C14.6908 11.4063 14.7997 11.3783 14.8967 11.3249C14.9937 11.2715 15.0756 11.1944 15.1348 11.1008C15.194 11.0072 15.2286 10.9002 15.2353 10.7896C15.242 10.6791 15.2206 10.5687 15.1731 10.4686C15.0548 10.2186 15.0017 9.94267 15.0187 9.66658C15.0357 9.39048 15.1222 9.12316 15.2702 8.88946C15.4181 8.65577 15.6228 8.46328 15.8652 8.3299C16.1075 8.19653 16.3796 8.12659 16.6562 8.12659C16.9328 8.12659 17.205 8.19653 17.4473 8.3299C17.6896 8.46328 17.8943 8.65577 18.0423 8.88946C18.1903 9.12316 18.2768 9.39048 18.2938 9.66658C18.3107 9.94267 18.2576 10.2186 18.1394 10.4686C18.0919 10.5687 18.0705 10.6791 18.0772 10.7896C18.0839 10.9002 18.1184 11.0072 18.1776 11.1008C18.2368 11.1944 18.3187 11.2715 18.4157 11.3249C18.5128 11.3783 18.6217 11.4063 18.7324 11.4062H22.5625V14.0501C22.3822 14.0295 22.2004 14.0256 22.0194 14.0386C21.2557 14.0927 20.5427 14.4413 20.0311 15.011C19.5194 15.5806 19.249 16.3267 19.2769 17.0919C19.3047 17.8571 19.6287 18.5815 20.1805 19.1124C20.7323 19.6433 21.4687 19.9391 22.2344 19.9375C22.344 19.9377 22.4535 19.9317 22.5625 19.9195V22.5625Z" fill="white"/>
</svg>
