<svg width="32" height="32" viewBox="0 0 32 32" fill="none" xmlns="http://www.w3.org/2000/svg">
<path d="M25.2352 15.5144L21.6728 13.181C21.5834 13.1224 21.4794 13.0888 21.372 13.0836C21.2646 13.0785 21.1579 13.1022 21.0631 13.152C20.9683 13.2019 20.889 13.2761 20.8338 13.3667C20.7786 13.4574 20.7495 13.561 20.7496 13.6667V15.4167H11.8436V11.9167H14.2927C14.4372 12.4666 14.7809 12.9458 15.2593 13.2645C15.7377 13.5833 16.3181 13.7196 16.8915 13.6481C17.4649 13.5765 17.9921 13.3019 18.3742 12.8758C18.7564 12.4497 18.9672 11.9013 18.9672 11.3333C18.9672 10.7654 18.7564 10.217 18.3742 9.79087C17.9921 9.36474 17.4649 9.09016 16.8915 9.0186C16.3181 8.94704 15.7377 9.08341 15.2593 9.40215C14.7809 9.72089 14.4372 10.2001 14.2927 10.75H11.8436C11.5287 10.75 11.2266 10.8729 11.0039 11.0917C10.7812 11.3105 10.6561 11.6073 10.6561 11.9167V15.4167H7.09373C6.93626 15.4167 6.78525 15.4781 6.6739 15.5875C6.56255 15.6969 6.5 15.8453 6.5 16C6.5 16.1547 6.56255 16.3031 6.6739 16.4125C6.78525 16.5219 6.93626 16.5833 7.09373 16.5833H10.6561V20.0833C10.6561 20.3928 10.7812 20.6895 11.0039 20.9083C11.2266 21.1271 11.5287 21.25 11.8436 21.25H14.2185V21.8333C14.2185 22.1428 14.3436 22.4395 14.5663 22.6583C14.789 22.8771 15.091 23 15.406 23H17.7809C18.0958 23 18.3979 22.8771 18.6206 22.6583C18.8433 22.4395 18.9684 22.1428 18.9684 21.8333V19.5C18.9684 19.1906 18.8433 18.8938 18.6206 18.675C18.3979 18.4563 18.0958 18.3333 17.7809 18.3333H15.406C15.091 18.3333 14.789 18.4563 14.5663 18.675C14.3436 18.8938 14.2185 19.1906 14.2185 19.5V20.0833H11.8436V16.5833H20.7496V18.3333C20.7495 18.439 20.7786 18.5426 20.8338 18.6333C20.889 18.7239 20.9683 18.7981 21.0631 18.848C21.1579 18.8978 21.2646 18.9215 21.372 18.9164C21.4794 18.9113 21.5834 18.8776 21.6728 18.819L25.2352 16.4856C25.3167 16.4324 25.3834 16.3602 25.4296 16.2755C25.4758 16.1907 25.5 16.0961 25.5 16C25.5 15.9039 25.4758 15.8093 25.4296 15.7245C25.3834 15.6398 25.3167 15.5676 25.2352 15.5144ZM16.5934 10.1667C16.8283 10.1667 17.0579 10.2351 17.2532 10.3633C17.4484 10.4915 17.6006 10.6737 17.6905 10.8869C17.7804 11.1001 17.8039 11.3346 17.7581 11.5609C17.7123 11.7873 17.5992 11.9951 17.4331 12.1583C17.267 12.3215 17.0555 12.4326 16.8251 12.4776C16.5948 12.5226 16.356 12.4995 16.139 12.4112C15.922 12.3229 15.7366 12.1734 15.6061 11.9815C15.4756 11.7896 15.406 11.5641 15.406 11.3333C15.406 11.0239 15.5311 10.7272 15.7538 10.5084C15.9765 10.2896 16.2785 10.1667 16.5934 10.1667ZM15.406 19.5H17.7809V21.8333H15.406V19.5ZM21.937 17.2432V14.7604L23.8355 16L21.937 17.2432Z" fill="white"/>
</svg>
