<svg width="32" height="32" viewBox="0 0 32 32" fill="none" xmlns="http://www.w3.org/2000/svg">
<path d="M18.2326 8H13.7674C9.72428 8 8 9.72428 8 13.7674V18.2326C8 22.2757 9.72428 24 13.7674 24H18.2326C22.2757 24 24 22.2757 24 18.2326V13.7674C24 9.72428 22.2757 8 18.2326 8ZM22.8837 18.2326C22.8837 21.6662 21.6662 22.8837 18.2326 22.8837H13.7674C10.3338 22.8837 9.11628 21.6662 9.11628 18.2326V13.7674C9.11628 10.3338 10.3338 9.11628 13.7674 9.11628H18.2326C21.6662 9.11628 22.8837 10.3338 22.8837 13.7674V18.2326Z" fill="white"/>
<path d="M18.2623 14.2273L16.352 13.1252C16.0418 12.9111 15.6799 12.784 15.3039 12.757C14.9279 12.7301 14.5516 12.8043 14.214 12.9719C13.9013 13.181 13.6499 13.4695 13.4857 13.8078C13.3214 14.1462 13.2502 14.5221 13.2793 14.8971V17.1029C13.2502 17.4779 13.3214 17.8538 13.4857 18.1922C13.6499 18.5305 13.9013 18.819 14.214 19.0281C14.4755 19.1777 14.7722 19.2548 15.0735 19.2513C15.5239 19.2412 15.9638 19.1129 16.349 18.8793L18.2593 17.7771C18.5998 17.6147 18.8907 17.3643 19.1021 17.0519C19.3135 16.7395 19.4377 16.3764 19.462 16C19.4372 15.6247 19.3131 15.2627 19.1023 14.9512C18.8914 14.6397 18.6016 14.3898 18.2623 14.2273ZM17.7042 16.806L15.7939 17.9081C15.6509 18.0177 15.4824 18.0893 15.3043 18.1162C15.1261 18.1432 14.9441 18.1246 14.7751 18.0621C14.6365 17.947 14.5293 17.7987 14.4634 17.6309C14.3976 17.4632 14.3753 17.2816 14.3985 17.1029V14.8971C14.3753 14.7184 14.3976 14.5368 14.4634 14.3691C14.5293 14.2013 14.6365 14.053 14.7751 13.9379C14.8686 13.8864 14.9742 13.8607 15.0809 13.8634C15.3342 13.877 15.5797 13.9554 15.7939 14.0912L17.7042 15.1933C18.112 15.4285 18.3457 15.7224 18.3457 15.9993C18.3457 16.2761 18.112 16.5708 17.7042 16.806Z" fill="white"/>
</svg>
