<svg width="32" height="32" viewBox="0 0 32 32" fill="none" xmlns="http://www.w3.org/2000/svg">
<path fill-rule="evenodd" clip-rule="evenodd" d="M17.5 9.5H21.5C22.0523 9.5 22.5 9.94772 22.5 10.5V21.5C22.5 22.0523 22.0523 22.5 21.5 22.5H19V19V18.7929L18.8536 18.6464L13.5 13.2929V9.5H16.5V12V12.2071L16.6464 12.3536L18.6462 14.3533C18.5525 14.5491 18.5 14.7684 18.5 15C18.5 15.8284 19.1716 16.5 20 16.5C20.8284 16.5 21.5 15.8284 21.5 15C21.5 14.1716 20.8284 13.5 20 13.5C19.7684 13.5 19.5491 13.5525 19.3533 13.6462L17.5 11.7929V9.5ZM13.5 14.7071V18.5854C14.0826 18.7913 14.5 19.3469 14.5 20C14.5 20.8284 13.8284 21.5 13 21.5C12.1716 21.5 11.5 20.8284 11.5 20C11.5 19.3469 11.9174 18.7913 12.5 18.5854V9.5H10.5C9.94772 9.5 9.5 9.94772 9.5 10.5V21.5C9.5 22.0523 9.94772 22.5 10.5 22.5H18V19.2071L13.5 14.7071ZM8.5 10.5C8.5 9.39543 9.39543 8.5 10.5 8.5H21.5C22.6046 8.5 23.5 9.39543 23.5 10.5V21.5C23.5 22.6046 22.6046 23.5 21.5 23.5H10.5C9.39543 23.5 8.5 22.6046 8.5 21.5V10.5ZM20.5 15C20.5 15.2761 20.2761 15.5 20 15.5C19.7239 15.5 19.5 15.2761 19.5 15C19.5 14.7239 19.7239 14.5 20 14.5C20.2761 14.5 20.5 14.7239 20.5 15ZM13.5 20C13.5 20.2761 13.2761 20.5 13 20.5C12.7239 20.5 12.5 20.2761 12.5 20C12.5 19.7239 12.7239 19.5 13 19.5C13.2761 19.5 13.5 19.7239 13.5 20Z" fill="white"/>
</svg>
