<svg width="32" height="32" viewBox="0 0 32 32" fill="none" xmlns="http://www.w3.org/2000/svg">
<path fill-rule="evenodd" clip-rule="evenodd" d="M22.0581 9.69152L22.4375 10.1912C22.5371 10.323 22.5122 10.512 22.3804 10.6117L21.9775 10.9179C22.0508 11.1127 22.0976 11.3208 22.1167 11.5333L22.5752 11.5963C22.7393 11.6182 22.8536 11.7706 22.8316 11.9347L22.7466 12.5574C22.7246 12.7215 22.5723 12.8373 22.4082 12.8138L21.9072 12.745C21.8178 12.9398 21.7036 13.1186 21.5688 13.2783L21.8501 13.6475C21.9497 13.7794 21.9233 13.9684 21.7915 14.068L21.2919 14.4475C21.1601 14.5472 20.9711 14.5208 20.8715 14.3904L20.5653 13.9874C20.369 14.0607 20.1625 14.1076 19.9486 14.1266L19.8856 14.5852C19.8636 14.7493 19.7113 14.8636 19.5472 14.8417L18.9246 14.7567C18.7605 14.7347 18.6463 14.5823 18.6683 14.4182L18.7371 13.9171C18.5438 13.8277 18.3635 13.7135 18.2039 13.5801L17.8347 13.86C17.7029 13.9596 17.5139 13.9347 17.4143 13.8028L17.0349 13.3032C16.9353 13.1713 16.9601 12.9823 17.092 12.8827L17.4948 12.5765C17.4216 12.3801 17.3747 12.1735 17.3557 11.9611L16.8972 11.8981C16.7331 11.8761 16.6173 11.7237 16.6408 11.5596L16.7258 10.9369C16.7492 10.7728 16.9001 10.6585 17.0642 10.6805L17.5652 10.7494C17.6545 10.556 17.7688 10.3758 17.9021 10.2161L17.6223 9.84683C17.5226 9.71642 17.5476 9.52742 17.6794 9.42779L18.179 9.0483C18.3108 8.94867 18.4998 8.97358 18.5994 9.10544L18.9056 9.50837C19.1004 9.43512 19.3084 9.38823 19.5209 9.36918L19.5839 8.91057C19.6058 8.74647 19.7582 8.63072 19.9223 8.6527L20.5448 8.73768C20.7089 8.75966 20.8246 8.91204 20.8012 9.07614L20.7323 9.57723C20.9272 9.66661 21.1059 9.78089 21.267 9.91569L21.6362 9.63584C21.768 9.53475 21.957 9.55965 22.0581 9.69152ZM11.3466 18.4841V16.0665H12.5917C12.8232 16.0665 12.999 16.0856 13.1206 16.1266C13.2422 16.1662 13.3418 16.2394 13.4151 16.3464C13.4898 16.4548 13.5279 16.5852 13.5279 16.7391C13.5279 16.8724 13.4985 16.9896 13.4414 17.0863C13.3842 17.1845 13.3052 17.2636 13.2056 17.3237C13.1426 17.3618 13.0547 17.394 12.9433 17.4189C13.0327 17.4497 13.0971 17.4775 13.1367 17.5083C13.1646 17.5288 13.2041 17.5713 13.2554 17.6358C13.3066 17.7003 13.3418 17.7515 13.3593 17.7867L13.7226 18.4856H12.8789L12.4804 17.7486C12.4291 17.6534 12.3852 17.5904 12.3456 17.5625C12.2914 17.5259 12.2299 17.5068 12.1625 17.5068H12.0966V18.4856H11.3466V18.4841ZM13.9805 22.6936H12.5859L12.3852 23.35H11.1283L12.6269 19.3662H13.9746L15.4674 23.35H14.1783L13.9805 22.6936ZM13.7197 21.8306L13.2846 20.3976L12.8481 21.8306H13.7197ZM15.7575 19.3662H17.8054C18.2522 19.3662 18.5862 19.4717 18.8074 19.6841C19.0286 19.8966 19.1399 20.1999 19.1399 20.5911C19.1399 20.9939 19.0184 21.309 18.7766 21.5361C18.5349 21.7632 18.1643 21.876 17.6677 21.876H16.9924V23.35H15.7575V19.3662ZM16.9924 21.0687H17.2956C17.5344 21.0687 17.7029 21.0277 17.7995 20.9441C17.8962 20.8621 17.9446 20.7551 17.9446 20.6276C17.9446 20.5031 17.9021 20.3962 17.8186 20.3097C17.7351 20.2233 17.5769 20.1793 17.3454 20.1793H16.9924V21.0687ZM19.638 19.3662H20.873V23.35H19.638V19.3662ZM12.0966 17.0482H12.4116C12.4452 17.0482 12.5112 17.0365 12.6093 17.0145C12.6591 17.0043 12.7002 16.9794 12.7309 16.9383C12.7632 16.8973 12.7778 16.8504 12.7778 16.7977C12.7778 16.72 12.7529 16.6585 12.7031 16.6175C12.6533 16.575 12.561 16.5545 12.4248 16.5545H12.0966V17.0482ZM13.8663 16.0665H15.8658V16.5823H14.6163V16.9677H15.775V17.46H14.6163V17.9361H15.9025V18.4827H13.8663V16.0665ZM16.0797 17.6841L16.7888 17.6402C16.8034 17.7559 16.8357 17.8424 16.8825 17.9025C16.9601 17.9991 17.07 18.0489 17.2121 18.0489C17.3176 18.0489 17.4011 18.024 17.4582 17.9742C17.5154 17.9244 17.5446 17.8658 17.5446 17.7999C17.5446 17.7369 17.5168 17.6812 17.4627 17.6314C17.4084 17.5815 17.281 17.5362 17.0803 17.4907C16.7536 17.4174 16.5206 17.3193 16.38 17.1977C16.2394 17.076 16.1691 16.9208 16.1691 16.7317C16.1691 16.6072 16.2057 16.49 16.2775 16.3801C16.3493 16.2702 16.4577 16.1823 16.6027 16.1193C16.7478 16.0563 16.9455 16.0255 17.1974 16.0255C17.5066 16.0255 17.741 16.0827 17.9036 16.1984C18.0647 16.3142 18.1614 16.4958 18.1922 16.7478L17.4905 16.7904C17.4714 16.6805 17.4318 16.5999 17.3732 16.5516C17.3132 16.5017 17.2297 16.4768 17.1257 16.4768C17.0393 16.4768 16.9734 16.4958 16.9294 16.5325C16.8855 16.5691 16.8635 16.6146 16.8635 16.6673C16.8635 16.7054 16.8825 16.7391 16.9177 16.7713C16.9528 16.8021 17.0349 16.8328 17.1667 16.8607C17.4934 16.931 17.7278 17.0028 17.8684 17.0746C18.009 17.1464 18.113 17.2358 18.176 17.3427C18.2405 17.4483 18.2727 17.5683 18.2727 17.7003C18.2727 17.8555 18.2303 17.9976 18.1438 18.1281C18.0588 18.2585 17.9387 18.3581 17.7849 18.4255C17.6311 18.4929 17.4377 18.5266 17.2033 18.5266C16.7931 18.5266 16.5075 18.4475 16.3493 18.2892C16.1911 18.1281 16.1017 17.9274 16.0797 17.6841ZM18.3811 16.0665H20.6532V16.6644H19.8914V18.4841H19.1444V16.6644H18.3811V16.0665ZM15.8673 10.3289C15.5992 10.3084 15.3282 10.3113 15.0602 10.3377C14.2354 10.4168 13.4341 10.7171 12.7719 11.2314C12.0057 11.8248 11.4242 12.7127 11.2001 13.8893L11.1297 14.257L10.7635 14.3215C10.4046 14.3845 10.0838 14.471 9.80254 14.5808C9.53007 14.6863 9.28684 14.8167 9.07444 14.9706C8.90449 15.0937 8.75802 15.2314 8.63352 15.3808C8.24824 15.8424 8.06952 16.4211 8.07394 17.0072C8.07829 17.6021 8.27164 18.2028 8.62909 18.6966C8.76244 18.8797 8.91627 19.0482 9.09207 19.1947C9.27079 19.3427 9.47142 19.4658 9.69702 19.5581C9.82452 19.6108 9.96072 19.6548 10.1028 19.6899V20.7874C9.80982 20.7346 9.54027 20.6556 9.28834 20.5515C8.95579 20.4138 8.66134 20.2365 8.40207 20.0196C8.15592 19.8145 7.9406 19.5816 7.75752 19.3281C7.26965 18.6541 7.00595 17.8306 7.0001 17.0101C6.99425 16.1808 7.2521 15.3559 7.80875 14.6878C7.98897 14.471 8.20137 14.2717 8.44452 14.0959C8.72727 13.8907 9.05104 13.7179 9.41727 13.5757C9.66919 13.4776 9.93874 13.3955 10.223 13.3296C10.5453 12.049 11.2323 11.0629 12.1156 10.3787C12.9419 9.73841 13.9365 9.36478 14.9605 9.26662C15.4982 9.21533 16.0431 9.23878 16.5764 9.33841C16.5646 9.38676 16.5544 9.43512 16.5485 9.48493L16.5471 9.49372C16.5368 9.57723 16.5324 9.66075 16.5368 9.74573C16.424 9.78968 16.3185 9.84976 16.2233 9.92302L16.2189 9.92595C16.0768 10.0329 15.9567 10.1706 15.8673 10.3289ZM23.6183 13.142C23.7003 13.2168 23.7794 13.2944 23.8571 13.3779C24.0137 13.5464 24.1617 13.7369 24.3009 13.9494C24.7697 14.6702 25.01 15.6329 24.9997 16.575C24.9894 17.4995 24.7404 18.4197 24.2306 19.0965C23.898 19.5376 23.4718 19.898 22.9605 20.1837C22.6103 20.3801 22.2163 20.5427 21.7871 20.6746V19.539C22.0185 19.4526 22.2339 19.3559 22.4317 19.246C22.817 19.0306 23.1319 18.7683 23.3678 18.4533C23.734 17.9655 23.9141 17.2753 23.9215 16.5676C23.9303 15.8248 23.7486 15.079 23.3956 14.5369C23.2945 14.3801 23.1832 14.2395 23.066 14.1135C23.0206 14.0651 22.9751 14.0197 22.9283 13.9757C22.9356 13.9025 22.9385 13.8277 22.9341 13.753C23.0469 13.7091 23.1524 13.649 23.2476 13.5757L23.252 13.5728C23.4029 13.457 23.5289 13.3105 23.6183 13.142ZM19.9032 10.5252C20.5785 10.6175 21.0502 11.2402 20.9579 11.9157C20.8656 12.5911 20.243 13.0644 19.5677 12.9721C18.8924 12.8798 18.4192 12.2571 18.5129 11.5816C18.6067 10.9062 19.2278 10.4329 19.9032 10.5252Z" fill="white"/>
</svg>
