<svg width="32" height="32" viewBox="0 0 32 32" fill="none" xmlns="http://www.w3.org/2000/svg">
<path d="M26 20.0333C25.9839 20.0818 25.9651 20.1291 25.9521 20.1781C25.7891 20.8062 25.2422 21.2202 24.5996 21.2004C23.9699 21.1812 23.4491 20.7505 23.3163 20.1401C23.1751 19.4906 23.471 18.873 24.0704 18.6094C24.2168 18.5449 24.2553 18.4714 24.2537 18.3219C24.2459 17.6256 24.2506 16.9288 24.2506 16.2325V16.0137C24.1631 16.0137 24.0938 16.0137 24.0246 16.0137C22.6773 16.0137 21.3305 16.0163 19.9831 16.0106C19.8232 16.0101 19.7529 16.0387 19.7488 16.2184C19.7415 16.5137 19.5462 16.7033 19.3123 16.8491C18.89 17.1126 18.4145 17.2262 17.9301 17.2939C17.4281 17.3637 16.9229 17.4074 16.3995 17.4647C16.3958 17.509 16.388 17.5642 16.388 17.6199C16.387 18.5183 16.3896 19.4167 16.3849 20.3146C16.3844 20.4333 16.4109 20.4974 16.5307 20.5453C16.8724 20.6822 17.1177 20.9286 17.2515 21.2723C17.2963 21.3869 17.3593 21.4098 17.4692 21.4093C18.3671 21.4056 19.2655 21.403 20.1633 21.4124C20.2842 21.4135 20.4216 21.4572 20.5196 21.5265C20.644 21.6134 20.6748 21.7624 20.6201 21.9134C20.5581 22.0858 20.4305 22.1764 20.2498 22.1785C19.8982 22.1827 19.5467 22.1806 19.1957 22.1806C18.6165 22.1806 18.0374 22.1832 17.4583 22.1785C17.3525 22.1775 17.2989 22.2072 17.2562 22.3087C17.0213 22.867 16.5838 23.1498 15.9901 23.1467C15.4042 23.1436 14.9725 22.8592 14.7443 22.3082C14.6954 22.1895 14.6261 22.179 14.522 22.179C13.6173 22.1811 12.7127 22.179 11.808 22.1811C11.6054 22.1811 11.4513 22.1124 11.3794 21.9129C11.2877 21.6582 11.4789 21.4114 11.7778 21.4082C12.2726 21.4036 12.7668 21.4067 13.2616 21.4067C13.6845 21.4067 14.1079 21.4036 14.5308 21.4088C14.6402 21.4098 14.7037 21.3869 14.7485 21.2718C14.8855 20.9218 15.1407 20.6833 15.4849 20.5312C15.5401 20.5067 15.6073 20.427 15.6073 20.3729C15.6136 19.4162 15.611 18.4594 15.6094 17.5027C15.6094 17.4907 15.6011 17.4788 15.5933 17.4558C15.1724 17.4157 14.7454 17.3855 14.3214 17.3329C13.8111 17.2694 13.3053 17.172 12.8413 16.9361C12.5085 16.7673 12.2419 16.5424 12.2361 16.1221C12.2361 16.0856 12.1627 16.0309 12.1148 16.0195C12.0408 16.0018 11.9596 16.0143 11.8815 16.0143C10.593 16.0143 9.30399 16.0143 8.01552 16.0143H7.77022C7.76241 16.0762 7.75043 16.1252 7.75043 16.1741C7.74939 16.9095 7.75147 17.6454 7.74783 18.3808C7.74731 18.4844 7.77387 18.5402 7.87646 18.5844C8.51289 18.861 8.81965 19.4505 8.68736 20.1213C8.56393 20.7463 8.02489 21.1921 7.38118 21.202C6.72028 21.2119 6.19791 20.7911 6.0375 20.1219C6.03021 20.0916 6.01302 20.0635 6 20.0344C6 19.8911 6 19.7479 6 19.6047C6.01562 19.5635 6.03489 19.5234 6.04635 19.4813C6.15833 19.0823 6.39217 18.7766 6.776 18.6193C6.95047 18.548 6.98172 18.4516 6.98016 18.285C6.97287 17.4387 6.97651 16.5924 6.97703 15.746C6.97703 15.3716 7.10463 15.2455 7.48482 15.245C8.99516 15.2445 10.5055 15.2419 12.0153 15.2481C12.1913 15.2487 12.2466 15.2049 12.2455 15.0221C12.2372 13.4467 12.2481 11.8707 12.232 10.2958C12.2278 9.87499 12.4054 9.60105 12.7554 9.41512C13.2574 9.14795 13.8064 9.03806 14.3621 8.96619C15.6422 8.80057 16.9213 8.80422 18.1884 9.06462C18.5415 9.13701 18.8889 9.26357 19.2191 9.40939C19.5946 9.57501 19.7717 9.87291 19.7665 10.3114C19.7482 11.8671 19.7576 13.4232 19.7566 14.9794C19.7566 15.0565 19.7566 15.1336 19.7566 15.2315C19.8482 15.2367 19.9232 15.2445 19.9982 15.2445C21.4888 15.245 22.9798 15.2445 24.4704 15.245C24.9131 15.245 25.0209 15.3544 25.0209 15.8012C25.0209 16.6543 25.0188 17.5069 25.0251 18.36C25.0251 18.4282 25.0662 18.5365 25.1172 18.5579C25.5849 18.7563 25.875 19.0938 25.9755 19.5927C25.9792 19.6104 25.9906 19.6271 25.9984 19.6443V20.0349L26 20.0333ZM18.9899 15.0221C16.9848 15.5809 15.0115 15.5851 13.0111 15.019C13.0111 15.3466 13.0163 15.6632 13.0085 15.9794C13.0054 16.1028 13.047 16.1794 13.1606 16.2168C13.4678 16.3184 13.7699 16.4517 14.085 16.5121C15.2917 16.7439 16.5067 16.7293 17.7166 16.5429C18.0916 16.4851 18.4556 16.3502 18.8196 16.2346C18.8889 16.2127 18.979 16.1158 18.9821 16.0502C18.9988 15.7132 18.9899 15.3752 18.9899 15.0226V15.0221ZM13.0116 11.001C13.0116 11.3457 13.0054 11.6827 13.0179 12.0197C13.0199 12.077 13.0934 12.1587 13.1522 12.1816C13.4116 12.2827 13.6715 12.3936 13.9423 12.4514C14.9876 12.6759 16.0479 12.7118 17.1062 12.5936C17.6379 12.5342 18.164 12.3988 18.6822 12.2577C19.0004 12.1712 18.991 12.1374 18.9915 11.8155C18.9915 11.5879 18.9926 11.3598 18.9905 11.1322C18.9905 11.0848 18.9769 11.0369 18.9712 11.001C16.9828 11.5582 15.0152 11.5405 13.0127 11.001H13.0116ZM13.0121 13.004C13.0121 13.3566 13.0069 13.6993 13.0179 14.0409C13.0194 14.094 13.0866 14.1696 13.1413 14.1914C13.3751 14.2862 13.6095 14.3904 13.8543 14.4445C15.1131 14.7227 16.3838 14.7305 17.6525 14.5378C18.0582 14.4763 18.4504 14.3216 18.8457 14.1998C18.9025 14.1821 18.9806 14.1086 18.9827 14.0586C18.9946 13.7107 18.9889 13.3618 18.9889 13.0061C16.9937 13.5706 15.0219 13.5722 13.0127 13.0035L13.0121 13.004ZM13.1038 10.1333C14.0631 10.8015 18.0171 10.7984 18.8967 10.1297C17.89 9.46512 13.948 9.46772 13.1038 10.1333ZM15.9891 22.3811C16.3094 22.3879 16.5791 22.1337 16.5901 21.814C16.601 21.4864 16.337 21.2077 16.012 21.203C15.6849 21.1984 15.4256 21.4447 15.4141 21.7718C15.4026 22.1072 15.6542 22.3738 15.9891 22.3811ZM25.2256 19.8203C25.2167 19.4927 24.9594 19.2469 24.6303 19.2511C24.298 19.2558 24.0376 19.5255 24.0465 19.8557C24.0553 20.1791 24.3397 20.4411 24.6652 20.427C24.9855 20.4135 25.2339 20.1442 25.225 19.8203H25.2256ZM6.77808 19.8391C6.77808 20.1771 7.03588 20.4317 7.37285 20.4276C7.68897 20.4239 7.95459 20.1536 7.95407 19.8375C7.95407 19.5214 7.68689 19.2521 7.37076 19.249C7.03328 19.2459 6.77756 19.5005 6.77808 19.8391Z" fill="white"/>
</svg>
