<svg width="32" height="32" viewBox="0 0 32 32" fill="none" xmlns="http://www.w3.org/2000/svg">
<path fill-rule="evenodd" clip-rule="evenodd" d="M24 12.8C24 12.0928 23.7189 11.4144 23.2192 10.9141C22.7189 10.4144 22.0405 10.1333 21.3333 10.1333C18.4949 10.1333 13.5051 10.1333 10.6667 10.1333C9.95947 10.1333 9.28107 10.4144 8.7808 10.9141C8.28107 11.4144 8 12.0928 8 12.8V19.2C8 19.9072 8.28107 20.5856 8.7808 21.0858C9.28107 21.5856 9.95947 21.8666 10.6667 21.8666H21.3333C22.0405 21.8666 22.7189 21.5856 23.2192 21.0858C23.7189 20.5856 24 19.9072 24 19.2C24 17.3408 24 14.6592 24 12.8ZM9.20107 12.1584C9.11307 12.3589 9.06667 12.577 9.06667 12.8V19.2C9.06667 19.6245 9.2352 20.0314 9.53547 20.3312C9.8352 20.6314 10.2421 20.8 10.6667 20.8H21.3333C21.7579 20.8 22.1648 20.6314 22.4645 20.3312C22.7648 20.0314 22.9333 19.6245 22.9333 19.2C22.9333 17.3408 22.9333 14.6592 22.9333 12.8C22.9333 12.577 22.8869 12.3589 22.7989 12.1584L17.6955 16.3616C16.7104 17.1722 15.2896 17.1722 14.3045 16.3616L9.20107 12.1584ZM22.0677 11.3786C21.8427 11.2624 21.5915 11.2 21.3333 11.2H10.6667C10.4085 11.2 10.1573 11.2624 9.93227 11.3786L14.9829 15.5381C15.5739 16.0245 16.4261 16.0245 17.0171 15.5381L22.0677 11.3786Z" fill="white"/>
</svg>
