<svg width="32" height="32" viewBox="0 0 32 32" fill="none" xmlns="http://www.w3.org/2000/svg">
<path d="M15.9844 14.7544C16.0792 14.7544 16.1724 14.7343 16.255 14.696L22.7312 11.6957C22.9745 11.5829 23.0768 11.3384 22.9693 11.1265C22.9693 11.1265 22.9952 10.981 22.5727 10.7851L17.0619 7.95897C16.3916 7.64958 15.5738 7.64958 14.9035 7.95897L9.39609 10.7851C8.97287 10.9816 8.9994 11.1287 8.9994 11.1287C8.89193 11.3407 8.99422 11.5852 9.23751 11.698L15.7138 14.6982C15.7966 14.7357 15.8898 14.7551 15.9844 14.7544ZM10.4843 11.0471L15.442 8.75118C15.7784 8.59731 16.1876 8.59731 16.524 8.75118L21.4845 11.0476C21.5483 11.0778 21.6086 11.1127 21.6647 11.1518L15.9844 13.7823L10.3073 11.1537C10.3621 11.1141 10.4214 11.0789 10.4843 11.0485V11.0471Z" fill="white"/>
<path d="M8.87392 13.2914C8.75003 13.2249 8.60229 13.2115 8.46743 13.2546C8.33257 13.2977 8.22325 13.3932 8.16665 13.5174C8.05716 13.755 8.00042 14.0116 8 14.2711V19.9455C8.00097 20.6348 8.3921 21.2702 9.02351 21.6082L13.5412 24.0298C13.8419 24.1899 14.1809 24.2736 14.5255 24.273C14.8028 24.273 15.0275 24.0591 15.0275 23.7953V16.8695C15.0275 16.6971 14.9298 16.5381 14.772 16.4534L8.87392 13.2914ZM14.0236 23.192L9.51644 20.7761C9.20106 20.6071 9.00536 20.2899 9.00393 19.9455V14.4574L14.0236 17.1484V23.192Z" fill="white"/>
<path d="M17.4745 24.273C17.8191 24.2738 18.1581 24.1901 18.4588 24.0298L22.9765 21.6082C23.6079 21.2702 23.999 20.6348 24 19.9455V14.2711C23.9996 14.0116 23.9428 13.755 23.8333 13.5174C23.7768 13.3932 23.6674 13.2977 23.5326 13.2546C23.3977 13.2115 23.25 13.2249 23.1261 13.2914L17.228 16.4534C17.0702 16.5381 16.9725 16.6971 16.9725 16.8695V23.7953C16.9725 24.0591 17.1972 24.273 17.4745 24.273ZM17.9764 17.1484L22.9961 14.4574V19.9455C22.9946 20.2899 22.7989 20.6071 22.4836 20.7761L17.9764 23.192V17.1484Z" fill="white"/>
</svg>
