<svg width="32" height="32" viewBox="0 0 32 32" fill="none" xmlns="http://www.w3.org/2000/svg">
<path fill-rule="evenodd" clip-rule="evenodd" d="M15.0066 8.1333C10.5792 8.1333 7 11.7389 7 16.1994C7 19.765 9.29329 22.7831 12.4747 23.8514C12.8725 23.9317 13.0182 23.6778 13.0182 23.4643C13.0182 23.2773 13.005 22.6363 13.005 21.9685C10.7778 22.4493 10.314 21.0069 10.314 21.0069C9.95606 20.0721 9.42572 19.8318 9.42572 19.8318C8.69674 19.3377 9.47882 19.3377 9.47882 19.3377C10.2874 19.3911 10.7118 20.1657 10.7118 20.1657C11.4275 21.3942 12.5807 21.0471 13.0447 20.8334C13.1109 20.3125 13.3232 19.952 13.5485 19.7517C11.7721 19.5647 9.90312 18.8703 9.90312 15.772C9.90312 14.8906 10.2211 14.1695 10.7249 13.6087C10.6454 13.4084 10.3669 12.5803 10.8045 11.4719C10.8045 11.4719 11.4806 11.2582 13.0049 12.2998C13.6575 12.1233 14.3305 12.0335 15.0066 12.0327C15.6827 12.0327 16.3718 12.1263 17.0082 12.2998C18.5327 11.2582 19.2087 11.4719 19.2087 11.4719C19.6463 12.5803 19.3677 13.4084 19.2882 13.6087C19.8053 14.1695 20.1101 14.8906 20.1101 15.772C20.1101 18.8703 18.2411 19.5513 16.4515 19.7517C16.7432 20.0054 16.9949 20.4861 16.9949 21.2473C16.9949 22.329 16.9818 23.1971 16.9818 23.4641C16.9818 23.6778 17.1277 23.9317 17.5253 23.8515C20.7067 22.783 23 19.765 23 16.1994C23.0131 11.7389 19.4208 8.1333 15.0066 8.1333Z" fill="white"/>
<circle cx="21" cy="12.1333" r="3.75" fill="#2C3249" stroke="white" stroke-width="0.5"/>
<path d="M21.8333 11.6333H22.8333C22.8775 11.6333 22.9199 11.6157 22.9512 11.5845C22.9824 11.5532 23 11.5108 23 11.4666V10.4666C23 10.4224 22.9824 10.38 22.9512 10.3488C22.9199 10.3175 22.8775 10.3 22.8333 10.3C22.7891 10.3 22.7467 10.3175 22.7155 10.3488C22.6842 10.38 22.6667 10.4224 22.6667 10.4666V10.9635C22.3444 10.6 21.779 10.1333 21 10.1333C20.1079 10.1333 19.5712 10.6598 19.5487 10.6821C19.5174 10.7133 19.4998 10.7557 19.4997 10.7999C19.4996 10.8441 19.5171 10.8866 19.5483 10.9179C19.5796 10.9492 19.6219 10.9669 19.6662 10.9669C19.7104 10.967 19.7528 10.9495 19.7842 10.9183C19.7898 10.9127 20.2517 10.4666 21 10.4666C21.7292 10.4666 22.2548 10.9802 22.5117 11.3H21.8333C21.7891 11.3 21.7467 11.3175 21.7155 11.3488C21.6842 11.38 21.6667 11.4224 21.6667 11.4666C21.6667 11.5108 21.6842 11.5532 21.7155 11.5845C21.7467 11.6157 21.7891 11.6333 21.8333 11.6333ZM19.1667 12.6333H20.1667C20.2109 12.6333 20.2533 12.6509 20.2845 12.6821C20.3158 12.7134 20.3333 12.7558 20.3333 12.8C20.3333 12.8442 20.3158 12.8866 20.2845 12.9178C20.2533 12.9491 20.2109 12.9666 20.1667 12.9666H19.4883C19.7452 13.2864 20.2708 13.8 21 13.8C21.7483 13.8 22.2102 13.3539 22.2158 13.3483C22.2472 13.3171 22.2896 13.2996 22.3338 13.2997C22.3781 13.2997 22.4204 13.3174 22.4517 13.3487C22.4829 13.38 22.5004 13.4225 22.5003 13.4667C22.5002 13.5109 22.4826 13.5533 22.4512 13.5846C22.4287 13.6068 21.8921 14.1333 21 14.1333C20.221 14.1333 19.6556 13.6666 19.3333 13.3031V13.8C19.3333 13.8442 19.3158 13.8866 19.2845 13.9178C19.2533 13.9491 19.2109 13.9666 19.1667 13.9666C19.1225 13.9666 19.0801 13.9491 19.0488 13.9178C19.0176 13.8866 19 13.8442 19 13.8V12.8C19 12.7558 19.0176 12.7134 19.0488 12.6821C19.0801 12.6509 19.1225 12.6333 19.1667 12.6333Z" fill="white"/>
</svg>
