<svg width="32" height="32" viewBox="0 0 32 32" fill="none" xmlns="http://www.w3.org/2000/svg">
<path d="M8 19.1125C8.06877 18.9618 8.07377 18.7955 8.11847 18.6382C8.50297 17.2884 9.72898 16.3397 11.1325 16.3341C13.0953 16.3263 15.0585 16.3303 17.0213 16.3331C17.5614 16.3338 18.0694 16.4704 18.5414 16.7348C18.8128 16.8868 18.909 17.1668 18.7774 17.421C18.6449 17.6767 18.3432 17.762 18.0663 17.6117C17.7058 17.4163 17.3235 17.3294 16.9143 17.33C15.0244 17.3335 13.1344 17.3313 11.2441 17.3316C9.94029 17.3316 9.00094 18.27 9 19.5723C8.99969 20.1084 9.00375 20.6448 8.99719 21.1809C8.99562 21.2997 9.02219 21.3344 9.14723 21.3341C11.5214 21.3297 13.8959 21.331 16.2701 21.3313C16.5505 21.3313 16.7446 21.4598 16.8118 21.6873C16.9034 21.9977 16.684 22.3097 16.3589 22.3297C16.307 22.3328 16.2548 22.331 16.2026 22.331C13.6824 22.331 11.1626 22.3278 8.64239 22.3353C8.33636 22.3363 8.12223 22.2384 8 21.9562V19.1125Z" fill="white"/>
<path fill-rule="evenodd" clip-rule="evenodd" d="M24 22.7058C23.997 22.7095 23.9935 22.7131 23.9901 22.7166C23.9828 22.7241 23.9756 22.7315 23.9728 22.7402C23.7887 23.3616 23.3836 23.6661 22.7362 23.6664C21.5808 23.667 20.4251 23.667 19.2698 23.6664C18.4886 23.6661 18.0006 23.1806 18.0003 22.4044C18.0002 22.2425 18.0001 22.0805 18 21.9186C17.9997 21.352 17.9993 20.7855 18.0003 20.2187C18.0019 19.5063 18.4836 19.0115 19.1988 18.9993C19.326 18.9971 19.3367 18.9518 19.3385 18.8455C19.3408 18.7223 19.3374 18.5989 19.334 18.4754C19.3265 18.2032 19.3191 17.9311 19.372 17.662C19.533 16.8408 20.3023 16.2678 21.1388 16.3363C21.9675 16.4041 22.6305 17.0915 22.6586 17.9211C22.6675 18.1787 22.6657 18.4369 22.6638 18.6949L22.6638 18.695C22.6634 18.7545 22.663 18.8139 22.6627 18.8733C22.6624 18.9493 22.6643 19.0005 22.7665 18.9968C23.3879 18.9749 23.8878 19.4004 23.9869 19.9787C23.9873 19.981 23.991 19.9827 23.9947 19.9845C23.9965 19.9853 23.9983 19.9862 23.9997 19.9871V22.7055L24 22.7058ZM21.0038 19.9952C21.1963 19.9952 21.3889 19.9952 21.5814 19.9952C21.9666 19.9951 22.3517 19.995 22.7368 19.9952C22.9553 19.9952 23 20.0406 23 20.2606C23 20.5001 23 20.7395 23.0001 20.979C23.0001 21.4579 23.0002 21.9368 23 22.4157C23 22.6154 22.9512 22.6664 22.7534 22.6664C21.5821 22.667 20.4104 22.667 19.2391 22.6664C19.0503 22.6664 19.0003 22.6142 19.0003 22.4241C18.9997 21.6955 18.9997 20.9668 19.0003 20.2378C19.0003 20.0474 19.0503 19.9962 19.2391 19.9959C19.6508 19.995 20.0626 19.9952 20.4743 19.9954H20.4743C20.6507 19.9955 20.8271 19.9955 21.0034 19.9955L21.0038 19.9952ZM20.8383 18.9889C20.8924 18.9893 20.9465 18.9896 21.0006 18.9896C21.0552 18.9896 21.1099 18.9892 21.1645 18.9889C21.2972 18.988 21.43 18.9871 21.5627 18.9915C21.6461 18.9943 21.6671 18.9671 21.6658 18.8864C21.6637 18.7507 21.6641 18.615 21.6646 18.4793C21.6651 18.3131 21.6656 18.1469 21.6615 17.9809C21.6521 17.6126 21.3601 17.3319 20.9994 17.3319C20.6389 17.3322 20.3473 17.6139 20.3385 17.9818C20.3347 18.1445 20.3352 18.3074 20.3356 18.4702C20.3361 18.6093 20.3365 18.7484 20.3342 18.8874C20.3329 18.9699 20.3567 18.994 20.4386 18.9915C20.5717 18.9873 20.7051 18.9881 20.8383 18.9889Z" fill="white"/>
<path fill-rule="evenodd" clip-rule="evenodd" d="M10.6643 11.6567C10.6561 13.4901 12.1535 14.9915 13.9947 14.9959H13.9944C15.8328 15.0002 17.3339 13.5044 17.3351 11.6667C17.3367 9.8383 15.8418 8.33877 14.0125 8.33315C12.1741 8.32752 10.6727 9.81799 10.6643 11.6567ZM11.6643 11.6579C11.6583 12.9399 12.7046 13.9909 13.9919 13.9962H13.9916C15.2779 14.0015 16.3285 12.9602 16.3351 11.6736C16.3417 10.3994 15.2963 9.34127 14.0231 9.33315C12.7277 9.32502 11.6702 10.3672 11.6643 11.6579Z" fill="white"/>
</svg>
