<svg width="32" height="32" viewBox="0 0 32 32" fill="none" xmlns="http://www.w3.org/2000/svg">
<rect width="32" height="32" rx="4" />
<path d="M15.9843 14.7544C16.0791 14.7544 16.1723 14.7343 16.2549 14.696L22.7312 11.6957C22.9744 11.583 23.0767 11.3384 22.9693 11.1265C22.9693 11.1265 22.9951 10.9811 22.5726 10.7851L17.0618 7.959C16.3916 7.64961 15.5737 7.64961 14.9034 7.959L9.39601 10.7851C8.97278 10.9817 8.99932 11.1288 8.99932 11.1288C8.89185 11.3407 8.99414 11.5852 9.23742 11.698L15.7137 14.6982C15.7965 14.7358 15.8897 14.7551 15.9843 14.7544ZM10.4842 11.0472L15.4419 8.75121C15.7783 8.59735 16.1875 8.59735 16.5239 8.75121L21.4844 11.0476C21.5482 11.0778 21.6085 11.1127 21.6646 11.1519L15.9843 13.7823L10.3072 11.1537C10.362 11.1141 10.4213 11.0789 10.4842 11.0485V11.0472Z" fill="white"/>
<path d="M8.87392 13.2915C8.75003 13.225 8.60229 13.2116 8.46743 13.2547C8.33257 13.2977 8.22325 13.3932 8.16665 13.5174C8.05716 13.7551 8.00042 14.0117 8 14.2712V19.9456C8.00097 20.6349 8.3921 21.2703 9.02351 21.6083L13.5412 24.0299C13.8419 24.19 14.1809 24.2737 14.5255 24.273C14.8028 24.273 15.0275 24.0592 15.0275 23.7954V16.8696C15.0275 16.6972 14.9298 16.5382 14.772 16.4535L8.87392 13.2915ZM14.0236 23.1921L9.51644 20.7762C9.20106 20.6072 9.00536 20.29 9.00393 19.9456V14.4574L14.0236 17.1485V23.1921Z" fill="white"/>
<path d="M17.4744 24.273C17.819 24.2739 18.158 24.1902 18.4587 24.0299L22.9764 21.6083C23.6078 21.2703 23.999 20.6349 23.9999 19.9456V14.2712C23.9995 14.0117 23.9428 13.7551 23.8333 13.5174C23.7767 13.3932 23.6673 13.2977 23.5325 13.2547C23.3976 13.2116 23.2499 13.225 23.126 13.2915L17.2279 16.4535C17.0701 16.5382 16.9724 16.6972 16.9724 16.8696V23.7954C16.9724 24.0592 17.1971 24.273 17.4744 24.273ZM17.9763 17.1485L22.996 14.4574V19.9456C22.9946 20.29 22.7989 20.6072 22.4835 20.7762L17.9763 23.1921V17.1485Z" fill="white"/>
</svg>
