<svg width="32" height="32" viewBox="0 0 32 32" fill="none" xmlns="http://www.w3.org/2000/svg">
<path d="M21.5 12.5H20.5V11C20.5 10.6022 20.342 10.2206 20.0607 9.93934C19.7794 9.65804 19.3978 9.5 19 9.5H10.5C10.1022 9.5 9.72064 9.65804 9.43934 9.93934C9.15804 10.2206 9 10.6022 9 11V21C9 21.3978 9.15804 21.7794 9.43934 22.0607C9.72064 22.342 10.1022 22.5 10.5 22.5H21.25C21.7141 22.5 22.1592 22.3156 22.4874 21.9874C22.8156 21.6592 23 21.2141 23 20.75V14C23 13.6022 22.842 13.2206 22.5607 12.9393C22.2794 12.658 21.8978 12.5 21.5 12.5ZM10 21V11C10 10.8674 10.0527 10.7402 10.1464 10.6464C10.2402 10.5527 10.3674 10.5 10.5 10.5H19C19.1326 10.5 19.2598 10.5527 19.3536 10.6464C19.4473 10.7402 19.5 10.8674 19.5 11V20.75C19.5011 21.01 19.5609 21.2664 19.675 21.5H10.5C10.3674 21.5 10.2402 21.4473 10.1464 21.3536C10.0527 21.2598 10 21.1326 10 21ZM22 20.75C22 20.9489 21.921 21.1397 21.7803 21.2803C21.6397 21.421 21.4489 21.5 21.25 21.5C21.0511 21.5 20.8603 21.421 20.7197 21.2803C20.579 21.1397 20.5 20.9489 20.5 20.75V13.5H21.5C21.6326 13.5 21.7598 13.5527 21.8536 13.6464C21.9473 13.7402 22 13.8674 22 14V20.75Z" fill="white"/>
<path d="M18 13H13C12.8674 13 12.7402 13.0527 12.6464 13.1464C12.5527 13.2402 12.5 13.3674 12.5 13.5C12.5 13.6326 12.5527 13.7598 12.6464 13.8536C12.7402 13.9473 12.8674 14 13 14H18C18.1326 14 18.2598 13.9473 18.3536 13.8536C18.4473 13.7598 18.5 13.6326 18.5 13.5C18.5 13.3674 18.4473 13.2402 18.3536 13.1464C18.2598 13.0527 18.1326 13 18 13Z" fill="white"/>
<path d="M18 15.5H11.5C11.3674 15.5 11.2402 15.5527 11.1464 15.6464C11.0527 15.7402 11 15.8674 11 16C11 16.1326 11.0527 16.2598 11.1464 16.3536C11.2402 16.4473 11.3674 16.5 11.5 16.5H18C18.1326 16.5 18.2598 16.4473 18.3536 16.3536C18.4473 16.2598 18.5 16.1326 18.5 16C18.5 15.8674 18.4473 15.7402 18.3536 15.6464C18.2598 15.5527 18.1326 15.5 18 15.5Z" fill="white"/>
<path d="M18 18H11.5C11.3674 18 11.2402 18.0527 11.1464 18.1464C11.0527 18.2402 11 18.3674 11 18.5C11 18.6326 11.0527 18.7598 11.1464 18.8536C11.2402 18.9473 11.3674 19 11.5 19H18C18.1326 19 18.2598 18.9473 18.3536 18.8536C18.4473 18.7598 18.5 18.6326 18.5 18.5C18.5 18.3674 18.4473 18.2402 18.3536 18.1464C18.2598 18.0527 18.1326 18 18 18Z" fill="white"/>
</svg>
