<svg width="32" height="32" viewBox="0 0 32 32" fill="none" xmlns="http://www.w3.org/2000/svg">
<path d="M24.004 19.9253V22.3232C24.0049 22.5458 23.9593 22.7661 23.8701 22.9701C23.781 23.174 23.6502 23.3571 23.4861 23.5076C23.3221 23.6581 23.1285 23.7726 22.9176 23.844C22.7067 23.9153 22.4833 23.9418 22.2616 23.9217C19.8021 23.6545 17.4395 22.814 15.3638 21.4679C13.4326 20.2408 11.7953 18.6035 10.5681 16.6723C9.21732 14.5871 8.37669 12.2131 8.11434 9.74251C8.09436 9.52148 8.12063 9.29872 8.19147 9.0884C8.2623 8.87808 8.37616 8.68481 8.52578 8.5209C8.6754 8.357 8.85751 8.22604 9.06052 8.13637C9.26352 8.0467 9.48298 8.00029 9.7049 8.00008H12.1027C12.4906 7.99626 12.8667 8.13362 13.1608 8.38656C13.4549 8.63949 13.647 8.99074 13.7013 9.37484C13.8025 10.1422 13.9902 10.8956 14.2608 11.6208C14.3683 11.9069 14.3916 12.2178 14.3279 12.5167C14.2641 12.8156 14.116 13.09 13.9011 13.3073L12.886 14.3224C14.0239 16.3234 15.6807 17.9802 17.6817 19.1181L18.6968 18.103C18.9141 17.8881 19.1885 17.74 19.4874 17.6762C19.7863 17.6125 20.0972 17.6358 20.3833 17.7433C21.1084 18.0139 21.8619 18.2016 22.6293 18.3028C23.0175 18.3576 23.3721 18.5531 23.6256 18.8523C23.8791 19.1515 24.0137 19.5333 24.004 19.9253Z" stroke="white" stroke-linecap="round" stroke-linejoin="round"/>
</svg>
