<svg width="32" height="32" viewBox="0 0 32 32" fill="none" xmlns="http://www.w3.org/2000/svg">
<path d="M5.331 20.077C5.10367 20.077 4.913 20 4.759 19.846C4.605 19.692 4.528 19.5013 4.528 19.274C4.528 19.0467 4.605 18.856 4.759 18.702C4.913 18.548 5.10367 18.471 5.331 18.471C5.551 18.471 5.738 18.548 5.892 18.702C6.046 18.856 6.123 19.0467 6.123 19.274C6.123 19.5013 6.046 19.692 5.892 19.846C5.738 20 5.551 20.077 5.331 20.077ZM13.7593 20H12.5053L8.73232 14.291V20H7.47832V12.344H8.73232L12.5053 18.042V12.344H13.7593V20ZM16.6601 13.367V15.611H19.3001V16.634H16.6601V18.977H19.6301V20H15.4061V12.344H19.6301V13.367H16.6601ZM26.1136 12.355V13.378H24.0786V20H22.8246V13.378H20.7786V12.355H26.1136Z" fill="white"/>
</svg>
