<svg width="32" height="32" viewBox="0 0 32 32" fill="none" xmlns="http://www.w3.org/2000/svg">
<path d="M17.7998 7H10.5998C10.1224 7 9.66458 7.18964 9.32701 7.52721C8.98945 7.86477 8.7998 8.32261 8.7998 8.8V23.2C8.7998 23.6774 8.98945 24.1352 9.32701 24.4728C9.66458 24.8104 10.1224 25 10.5998 25H21.3998C21.8772 25 22.335 24.8104 22.6726 24.4728C23.0102 24.1352 23.1998 23.6774 23.1998 23.2V12.4M17.7998 7L23.1998 12.4M17.7998 7V12.4L23.1998 12.4M19.6 16.9H12.4M19.6 20.5H12.4M14.2 13.3H12.4" stroke="white" stroke-linecap="round" stroke-linejoin="round"/>
</svg>
