<svg width="640" height="442" viewBox="0 0 640 442" fill="none" xmlns="http://www.w3.org/2000/svg">
<g clip-path="url(#clip0_1081_975)">
<rect x="38.5" y="0.5" width="507" height="365" rx="13.5" fill="#15192C"/>
<rect x="38.5" y="0.5" width="507" height="365" rx="13.5" stroke="#373D57"/>
<path d="M509.5 248.5C509.5 355.086 422.2 441.5 314.5 441.5C206.8 441.5 119.5 355.086 119.5 248.5C119.5 141.914 206.8 55.5 314.5 55.5C422.2 55.5 509.5 141.914 509.5 248.5Z" stroke="#7950ED"/>
<g filter="url(#filter0_f_1081_975)">
<circle cx="206" cy="89" r="41" fill="#7950ED"/>
</g>
<circle cx="134" cy="325" r="23" fill="#40486D"/>
<path d="M143.684 335.895V333.474C143.684 332.189 143.174 330.958 142.266 330.05C141.358 329.142 140.126 328.632 138.842 328.632H129.158C127.874 328.632 126.642 329.142 125.734 330.05C124.826 330.958 124.316 332.189 124.316 333.474V335.895" stroke="#767EA0" stroke-linecap="round" stroke-linejoin="round"/>
<path d="M134 325C136.674 325 138.842 322.832 138.842 320.158C138.842 317.484 136.674 315.316 134 315.316C131.326 315.316 129.158 317.484 129.158 320.158C129.158 322.832 131.326 325 134 325Z" stroke="#767EA0" stroke-linecap="round" stroke-linejoin="round"/>
<circle cx="126" cy="193" r="23" fill="#2A3152"/>
<path d="M135.684 203.895V201.474C135.684 200.189 135.174 198.958 134.266 198.05C133.358 197.142 132.126 196.632 130.842 196.632H121.158C119.874 196.632 118.642 197.142 117.734 198.05C116.826 198.958 116.316 200.189 116.316 201.474V203.895" stroke="#767EA0" stroke-linecap="round" stroke-linejoin="round"/>
<path d="M126 193C128.674 193 130.842 190.832 130.842 188.158C130.842 185.484 128.674 183.316 126 183.316C123.326 183.316 121.158 185.484 121.158 188.158C121.158 190.832 123.326 193 126 193Z" stroke="#767EA0" stroke-linecap="round" stroke-linejoin="round"/>
<circle cx="350" cy="59" r="23" fill="#2A3152"/>
<path d="M359.684 69.8947V67.4737C359.684 66.1895 359.174 64.9579 358.266 64.0498C357.358 63.1417 356.126 62.6316 354.842 62.6316H345.158C343.874 62.6316 342.642 63.1417 341.734 64.0498C340.826 64.9579 340.316 66.1895 340.316 67.4737V69.8947" stroke="#767EA0" stroke-linecap="round" stroke-linejoin="round"/>
<path d="M350 59C352.674 59 354.842 56.8321 354.842 54.1579C354.842 51.4837 352.674 49.3158 350 49.3158C347.326 49.3158 345.158 51.4837 345.158 54.1579C345.158 56.8321 347.326 59 350 59Z" stroke="#767EA0" stroke-linecap="round" stroke-linejoin="round"/>
</g>
<defs>
<filter id="filter0_f_1081_975" x="-256" y="-373" width="924" height="924" filterUnits="userSpaceOnUse" color-interpolation-filters="sRGB">
<feFlood flood-opacity="0" result="BackgroundImageFix"/>
<feBlend mode="normal" in="SourceGraphic" in2="BackgroundImageFix" result="shape"/>
<feGaussianBlur stdDeviation="210.5" result="effect1_foregroundBlur_1081_975"/>
</filter>
<clipPath id="clip0_1081_975">
<rect width="640" height="442" fill="white" transform="translate(-0.000366211)"/>
</clipPath>
</defs>
</svg>
