<svg width="640" height="442" viewBox="0 0 640 442" fill="none" xmlns="http://www.w3.org/2000/svg">
<g opacity="0.35" clip-path="url(#clip0_1081_979)">
<g opacity="0.7" filter="url(#filter0_f_1081_979)">
<rect x="241" y="139" width="360" height="278" rx="10.0686" fill="#8059EE"/>
</g>
</g>
<g filter="url(#filter1_b_1081_979)">
<rect x="241" y="139" width="360" height="278" rx="10.0686" fill="#D8CBFF" fill-opacity="0.1"/>
<rect x="241.629" y="139.629" width="358.741" height="276.741" rx="9.43929" stroke="#586184" stroke-width="1.25857"/>
</g>
<rect x="276.961" y="203" width="304.039" height="13.1854" rx="6.59268" fill="#D8CBFF" fill-opacity="0.2"/>
<rect x="263" y="203" width="6.20488" height="13.1854" rx="3.10244" fill="#D8CBFF" fill-opacity="0.2"/>
<rect x="276.961" y="231.697" width="102.38" height="13.1854" rx="6.59268" fill="#D8CBFF" fill-opacity="0.2"/>
<rect x="263" y="231.697" width="6.20488" height="13.1854" rx="3.10244" fill="#D8CBFF" fill-opacity="0.2"/>
<rect x="276.961" y="260.396" width="217.171" height="13.1854" rx="6.59268" fill="#D8CBFF" fill-opacity="0.2"/>
<rect x="263" y="260.396" width="6.20488" height="13.1854" rx="3.10244" fill="#D8CBFF" fill-opacity="0.2"/>
<rect x="276.961" y="289.094" width="238.888" height="13.1854" rx="6.59268" fill="#D8CBFF" fill-opacity="0.2"/>
<rect x="263" y="289.094" width="6.20488" height="13.1854" rx="3.10244" fill="#D8CBFF" fill-opacity="0.2"/>
<rect x="276.961" y="317.789" width="113.239" height="13.1854" rx="6.59268" fill="#D8CBFF" fill-opacity="0.2"/>
<rect x="263" y="317.789" width="6.20488" height="13.1854" rx="3.10244" fill="#D8CBFF" fill-opacity="0.2"/>
<rect x="276.961" y="375.185" width="304.039" height="13.1854" rx="6.59268" fill="#D8CBFF" fill-opacity="0.2"/>
<rect x="263" y="375.185" width="6.20488" height="13.1854" rx="3.10244" fill="#D8CBFF" fill-opacity="0.2"/>
<g filter="url(#filter2_b_1081_979)">
<path d="M242.058 150.059C242.058 144.536 246.535 140.059 252.058 140.059H589.759C595.282 140.059 599.759 144.536 599.759 150.059V170.749H242.058V150.059Z" fill="#D8CBFF" fill-opacity="0.2"/>
</g>
<circle cx="269.044" cy="155.403" r="5.82058" fill="#D8CBFF" fill-opacity="0.2"/>
<circle cx="288.094" cy="155.403" r="5.82058" fill="#D8CBFF" fill-opacity="0.2"/>
<circle cx="307.143" cy="155.403" r="5.82058" fill="#D8CBFF" fill-opacity="0.2"/>
<defs>
<filter id="filter0_f_1081_979" x="-9" y="-111" width="860" height="778" filterUnits="userSpaceOnUse" color-interpolation-filters="sRGB">
<feFlood flood-opacity="0" result="BackgroundImageFix"/>
<feBlend mode="normal" in="SourceGraphic" in2="BackgroundImageFix" result="shape"/>
<feGaussianBlur stdDeviation="125" result="effect1_foregroundBlur_1081_979"/>
</filter>
<filter id="filter1_b_1081_979" x="226" y="124" width="390" height="308" filterUnits="userSpaceOnUse" color-interpolation-filters="sRGB">
<feFlood flood-opacity="0" result="BackgroundImageFix"/>
<feGaussianBlur in="BackgroundImageFix" stdDeviation="7.5"/>
<feComposite in2="SourceAlpha" operator="in" result="effect1_backgroundBlur_1081_979"/>
<feBlend mode="normal" in="SourceGraphic" in2="effect1_backgroundBlur_1081_979" result="shape"/>
</filter>
<filter id="filter2_b_1081_979" x="232.058" y="130.059" width="377.701" height="50.6903" filterUnits="userSpaceOnUse" color-interpolation-filters="sRGB">
<feFlood flood-opacity="0" result="BackgroundImageFix"/>
<feGaussianBlur in="BackgroundImageFix" stdDeviation="5"/>
<feComposite in2="SourceAlpha" operator="in" result="effect1_backgroundBlur_1081_979"/>
<feBlend mode="normal" in="SourceGraphic" in2="effect1_backgroundBlur_1081_979" result="shape"/>
</filter>
<clipPath id="clip0_1081_979">
<rect width="508" height="366" fill="white" transform="translate(38 0.160156)"/>
</clipPath>
</defs>
</svg>
