<svg width="281" height="78" viewBox="0 0 281 78" fill="none" xmlns="http://www.w3.org/2000/svg">
<g filter="url(#filter0_b_1084_1300)">
<rect x="0.553711" y="0.672165" width="266.689" height="50.7978" rx="25.3989" fill="#373D57" fill-opacity="0.5"/>
<rect x="1.55371" y="1.67216" width="264.689" height="48.7978" rx="24.3989" stroke="white" stroke-opacity="0.5" stroke-width="2"/>
</g>
<path d="M27.6685 31.8477C26.7992 31.8477 26.0307 31.7284 25.3631 31.4897C24.6955 31.2539 24.1344 30.9059 23.6798 30.4457C23.2253 29.9855 22.8815 29.4216 22.6486 28.7539C22.4156 28.0863 22.2991 27.3221 22.2991 26.4613C22.2991 25.6289 22.417 24.8846 22.6528 24.2284C22.8915 23.5721 23.2366 23.0153 23.6884 22.5579C24.1429 22.0977 24.694 21.7468 25.3418 21.5054C25.9923 21.2639 26.7281 21.1431 27.5492 21.1431C28.3474 21.1431 29.0463 21.2738 29.6457 21.5352C30.248 21.7937 30.7509 22.1446 31.1543 22.5877C31.5605 23.0281 31.8645 23.5238 32.0662 24.075C32.2707 24.6261 32.373 25.1943 32.373 25.7795C32.373 26.1914 32.3531 26.6091 32.3134 27.0324C32.2736 27.4556 32.1898 27.8448 32.0619 28.2C31.9341 28.5522 31.7366 28.8363 31.4696 29.0522C31.2054 29.2681 30.8474 29.3761 30.3957 29.3761C30.1969 29.3761 29.9781 29.3449 29.7395 29.2824C29.5009 29.2199 29.2892 29.1162 29.1045 28.9713C28.9199 28.8264 28.8105 28.6318 28.7764 28.3875H28.7253C28.6571 28.5522 28.552 28.7085 28.4099 28.8562C28.2707 29.0039 28.0875 29.1218 27.8602 29.2099C27.6358 29.298 27.3617 29.3363 27.0378 29.325C26.6685 29.3108 26.3432 29.2284 26.0619 29.0778C25.7807 28.9244 25.5449 28.717 25.3545 28.4556C25.167 28.1914 25.025 27.886 24.9284 27.5395C24.8347 27.19 24.7878 26.8136 24.7878 26.4102C24.7878 26.0267 24.8446 25.6758 24.9582 25.3576C25.0719 25.0395 25.2295 24.761 25.4313 24.5224C25.6358 24.2838 25.8744 24.0934 26.1472 23.9514C26.4227 23.8065 26.7196 23.717 27.0378 23.6829C27.3219 23.6545 27.5804 23.6673 27.8134 23.7213C28.0463 23.7724 28.2381 23.8505 28.3886 23.9556C28.5392 24.0579 28.6344 24.1716 28.6742 24.2966H28.7253V23.8193H29.6287V27.6716C29.6287 27.9102 29.6955 28.1204 29.829 28.3022C29.9625 28.4841 30.1571 28.575 30.4128 28.575C30.7026 28.575 30.9242 28.4755 31.0776 28.2767C31.2338 28.0778 31.3403 27.771 31.3972 27.3562C31.4568 26.9414 31.4867 26.4102 31.4867 25.7625C31.4867 25.3818 31.4341 25.0068 31.329 24.6375C31.2267 24.2653 31.0705 23.9173 30.8602 23.5934C30.6528 23.2696 30.3901 22.9841 30.0719 22.7369C29.7537 22.4897 29.3801 22.2966 28.9511 22.1573C28.525 22.0153 28.0406 21.9443 27.498 21.9443C26.8304 21.9443 26.2324 22.048 25.704 22.2554C25.1784 22.4599 24.731 22.7596 24.3617 23.1545C23.9952 23.5466 23.7153 24.0238 23.5222 24.5863C23.3318 25.146 23.2366 25.7823 23.2366 26.4954C23.2366 27.2198 23.3318 27.8633 23.5222 28.4258C23.7153 28.9883 23.9994 29.4627 24.3744 29.8491C24.7523 30.2355 25.2196 30.5281 25.7764 30.727C26.3332 30.9287 26.9753 31.0295 27.7026 31.0295C28.0151 31.0295 28.3233 30.9997 28.6273 30.94C28.9313 30.8804 29.1997 30.815 29.4327 30.744C29.6656 30.673 29.8332 30.6204 29.9355 30.5863L30.1742 31.3704C29.998 31.4443 29.7679 31.5181 29.4838 31.592C29.2026 31.6659 28.9014 31.727 28.5804 31.7752C28.2622 31.8235 27.9582 31.8477 27.6685 31.8477ZM27.1742 28.4556C27.5548 28.4556 27.8631 28.3789 28.0989 28.2255C28.3347 28.0721 28.5065 27.8406 28.6145 27.5309C28.7224 27.2213 28.7764 26.8306 28.7764 26.3591C28.7764 25.8818 28.7168 25.5096 28.5974 25.2426C28.4781 24.9755 28.302 24.788 28.069 24.6801C27.8361 24.5721 27.5491 24.5181 27.2082 24.5181C26.8844 24.5181 26.6074 24.6034 26.3773 24.7738C26.15 24.9414 25.9753 25.1659 25.8531 25.4471C25.7338 25.7255 25.6742 26.0295 25.6742 26.3591C25.6742 26.7227 25.7224 27.065 25.819 27.386C25.9156 27.7042 26.0733 27.9627 26.292 28.1616C26.5108 28.3576 26.8048 28.4556 27.1742 28.4556ZM36.5204 32.1375C36.0346 32.1375 35.617 32.075 35.2675 31.95C34.9181 31.8278 34.6269 31.6659 34.394 31.4642C34.1639 31.2653 33.9806 31.0522 33.8442 30.825L34.6454 30.2625C34.7363 30.3818 34.8514 30.5181 34.9906 30.6716C35.1298 30.8278 35.3201 30.9627 35.5616 31.0764C35.8059 31.1929 36.1255 31.2511 36.5204 31.2511C37.0488 31.2511 37.4849 31.1233 37.8286 30.8676C38.1724 30.6119 38.3442 30.2113 38.3442 29.6659V28.3363H38.259C38.1852 28.4556 38.08 28.6034 37.9437 28.7795C37.8102 28.9528 37.617 29.1076 37.3641 29.244C37.1141 29.3775 36.7761 29.4443 36.3499 29.4443C35.8215 29.4443 35.3471 29.3193 34.9266 29.0693C34.509 28.8193 34.1781 28.4556 33.9337 27.9784C33.6923 27.5011 33.5715 26.9216 33.5715 26.2397C33.5715 25.5693 33.6894 24.9855 33.9252 24.4883C34.161 23.9883 34.4891 23.602 34.9096 23.3292C35.33 23.0537 35.8158 22.9159 36.367 22.9159C36.7931 22.9159 37.1312 22.9869 37.3812 23.1289C37.634 23.2681 37.8272 23.4272 37.9607 23.6062C38.0971 23.7823 38.2022 23.9272 38.2761 24.0409H38.3783V23.0011H39.3499V29.7341C39.3499 30.2966 39.2221 30.7539 38.9664 31.1062C38.7136 31.4613 38.3727 31.7213 37.9437 31.886C37.5175 32.0537 37.0431 32.1375 36.5204 32.1375ZM36.4863 28.5409C36.8897 28.5409 37.2306 28.4485 37.509 28.2639C37.7874 28.0792 37.9991 27.8136 38.144 27.467C38.2889 27.1204 38.3613 26.7056 38.3613 26.2227C38.3613 25.7511 38.2903 25.3349 38.1482 24.9741C38.0062 24.6133 37.796 24.3306 37.5175 24.1261C37.2391 23.9216 36.8954 23.8193 36.4863 23.8193C36.0602 23.8193 35.705 23.9272 35.421 24.1431C35.1397 24.3591 34.9281 24.6488 34.786 25.0125C34.6468 25.3761 34.5772 25.7795 34.5772 26.2227C34.5772 26.6772 34.6482 27.0792 34.7903 27.4287C34.9352 27.7752 35.1482 28.048 35.4295 28.2468C35.7136 28.4429 36.0658 28.5409 36.4863 28.5409ZM41.1908 29.5466V23.0011H42.1624V23.9897H42.2306C42.3499 23.6659 42.5658 23.4031 42.8783 23.2014C43.1908 22.9997 43.5431 22.8988 43.9352 22.8988C44.009 22.8988 44.1014 22.9002 44.2121 22.9031C44.3229 22.9059 44.4067 22.9102 44.4636 22.9159V23.9386C44.4295 23.9301 44.3514 23.9173 44.2292 23.9002C44.1099 23.8804 43.9835 23.8704 43.8499 23.8704C43.5317 23.8704 43.2477 23.9372 42.9977 24.0707C42.7505 24.2014 42.5545 24.3832 42.4096 24.6162C42.2675 24.8463 42.1965 25.1091 42.1965 25.4045V29.5466H41.1908ZM47.5818 29.7C47.167 29.7 46.7906 29.6218 46.4526 29.4656C46.1145 29.3065 45.846 29.0778 45.6472 28.7795C45.4483 28.4784 45.3489 28.1147 45.3489 27.6886C45.3489 27.3136 45.4227 27.0096 45.5705 26.7767C45.7182 26.5409 45.9156 26.3562 46.1628 26.2227C46.4099 26.0892 46.6827 25.9897 46.981 25.9244C47.2821 25.8562 47.5847 25.8022 47.8886 25.7625C48.2864 25.7113 48.6088 25.673 48.856 25.6474C49.106 25.619 49.2878 25.5721 49.4014 25.5068C49.5179 25.4414 49.5761 25.3278 49.5761 25.1659V25.1318C49.5761 24.7113 49.4611 24.3846 49.231 24.1517C49.0037 23.9187 48.6585 23.8022 48.1955 23.8022C47.7153 23.8022 47.3389 23.9073 47.0662 24.1176C46.7935 24.3278 46.6017 24.5522 46.4909 24.7909L45.5364 24.45C45.7068 24.0522 45.9341 23.7426 46.2182 23.521C46.5051 23.2966 46.8176 23.1403 47.1557 23.0522C47.4966 22.9613 47.8318 22.9159 48.1614 22.9159C48.3716 22.9159 48.6131 22.9414 48.8858 22.9926C49.1614 23.0409 49.427 23.1417 49.6827 23.2951C49.9412 23.4485 50.1557 23.6801 50.3261 23.9897C50.4966 24.2994 50.5818 24.7142 50.5818 25.2341V29.5466H49.5761V28.6602H49.525C49.4568 28.8022 49.3432 28.9542 49.1841 29.1162C49.025 29.2781 48.8134 29.4159 48.5492 29.5295C48.2849 29.6431 47.9625 29.7 47.5818 29.7ZM47.7352 28.7966C48.133 28.7966 48.4682 28.7184 48.7409 28.5622C49.0165 28.4059 49.2239 28.2042 49.3631 27.9571C49.5051 27.7099 49.5761 27.45 49.5761 27.1772V26.2568C49.5335 26.3079 49.4398 26.3548 49.2949 26.3974C49.1528 26.4372 48.9881 26.4727 48.8006 26.5039C48.6159 26.5323 48.4355 26.5579 48.2594 26.5806C48.0861 26.6005 47.9455 26.6176 47.8375 26.6318C47.5761 26.6659 47.3318 26.7213 47.1045 26.798C46.8801 26.8718 46.6983 26.9841 46.5591 27.1346C46.4227 27.2823 46.3545 27.4841 46.3545 27.7397C46.3545 28.0892 46.4838 28.3534 46.7423 28.5324C47.0037 28.7085 47.3347 28.7966 47.7352 28.7966ZM52.4174 32.0011V23.0011H53.389V24.0409H53.5083C53.5822 23.9272 53.6844 23.7823 53.8151 23.6062C53.9487 23.4272 54.139 23.2681 54.3862 23.1289C54.6362 22.9869 54.9742 22.9159 55.4004 22.9159C55.9515 22.9159 56.4373 23.0537 56.8577 23.3292C57.2782 23.6048 57.6063 23.9954 57.8421 24.5011C58.0779 25.0068 58.1958 25.6034 58.1958 26.2909C58.1958 26.9841 58.0779 27.5849 57.8421 28.0934C57.6063 28.5991 57.2796 28.9912 56.862 29.2696C56.4444 29.5451 55.9629 29.6829 55.4174 29.6829C54.9969 29.6829 54.6603 29.6133 54.4075 29.4741C54.1546 29.3321 53.96 29.1716 53.8237 28.9926C53.6873 28.8108 53.5822 28.6602 53.5083 28.5409H53.4231V32.0011H52.4174ZM53.406 26.2738C53.406 26.7681 53.4785 27.2042 53.6234 27.5821C53.7683 27.9571 53.9799 28.2511 54.2583 28.4642C54.5367 28.6744 54.8776 28.7795 55.281 28.7795C55.7015 28.7795 56.0523 28.6687 56.3336 28.4471C56.6177 28.2227 56.8308 27.9216 56.9728 27.5437C57.1177 27.163 57.1901 26.7397 57.1901 26.2738C57.1901 25.8136 57.1191 25.3988 56.9771 25.0295C56.8379 24.6573 56.6262 24.3633 56.3421 24.1474C56.0609 23.9287 55.7072 23.8193 55.281 23.8193C54.8719 23.8193 54.5282 23.923 54.2498 24.1304C53.9714 24.3349 53.7612 24.6218 53.6191 24.9912C53.4771 25.3576 53.406 25.7852 53.406 26.2738ZM60.7356 25.6091V29.5466H59.7299V20.8193H60.7356V24.0238H60.8208C60.9742 23.6858 61.2043 23.4173 61.5112 23.2184C61.8208 23.0167 62.2327 22.9159 62.7469 22.9159C63.193 22.9159 63.5836 23.0054 63.9188 23.1843C64.2541 23.3605 64.514 23.6318 64.6987 23.9983C64.8862 24.3619 64.9799 24.825 64.9799 25.3875V29.5466H63.9742V25.4556C63.9742 24.9358 63.8393 24.5338 63.5694 24.2497C63.3023 23.9627 62.9316 23.8193 62.4572 23.8193C62.1276 23.8193 61.8322 23.8889 61.5708 24.0281C61.3123 24.1673 61.1077 24.3704 60.9572 24.6375C60.8094 24.9045 60.7356 25.2284 60.7356 25.6091ZM71.2857 32.0011V28.5409H71.2004C71.1266 28.6602 71.0215 28.8108 70.8851 28.9926C70.7487 29.1716 70.5541 29.3321 70.3013 29.4741C70.0484 29.6133 69.7118 29.6829 69.2913 29.6829C68.7459 29.6829 68.2643 29.5451 67.8467 29.2696C67.4291 28.9912 67.1024 28.5991 66.8666 28.0934C66.6308 27.5849 66.5129 26.9841 66.5129 26.2909C66.5129 25.6034 66.6308 25.0068 66.8666 24.5011C67.1024 23.9954 67.4305 23.6048 67.851 23.3292C68.2715 23.0537 68.7572 22.9159 69.3084 22.9159C69.7345 22.9159 70.0712 22.9869 70.3183 23.1289C70.5683 23.2681 70.7587 23.4272 70.8893 23.6062C71.0229 23.7823 71.1266 23.9272 71.2004 24.0409H71.3197V23.0011H72.2913V32.0011H71.2857ZM69.4277 28.7795C69.8311 28.7795 70.172 28.6744 70.4504 28.4642C70.7288 28.2511 70.9405 27.9571 71.0854 27.5821C71.2303 27.2042 71.3027 26.7681 71.3027 26.2738C71.3027 25.7852 71.2317 25.3576 71.0896 24.9912C70.9476 24.6218 70.7374 24.3349 70.459 24.1304C70.1805 23.923 69.8368 23.8193 69.4277 23.8193C69.0016 23.8193 68.6465 23.9287 68.3624 24.1474C68.0811 24.3633 67.8695 24.6573 67.7274 25.0295C67.5882 25.3988 67.5186 25.8136 67.5186 26.2738C67.5186 26.7397 67.5896 27.163 67.7317 27.5437C67.8766 27.9216 68.0896 28.2227 68.3709 28.4471C68.655 28.6687 69.0072 28.7795 69.4277 28.7795ZM75.1379 20.8193V29.5466H74.1322V20.8193H75.1379ZM77.7129 29.6147C77.5026 29.6147 77.3222 29.5395 77.1717 29.3889C77.0211 29.2383 76.9458 29.0579 76.9458 28.8477C76.9458 28.6375 77.0211 28.4571 77.1717 28.3065C77.3222 28.1559 77.5026 28.0806 77.7129 28.0806C77.9231 28.0806 78.1035 28.1559 78.2541 28.3065C78.4046 28.4571 78.4799 28.6375 78.4799 28.8477C78.4799 28.9869 78.4444 29.1147 78.3734 29.2312C78.3052 29.3477 78.2129 29.4414 78.0964 29.5125C77.9827 29.5806 77.8549 29.6147 77.7129 29.6147ZM121.025 25.8647C121.025 24.7909 121.165 23.8037 121.443 22.9031C121.724 21.9997 122.125 21.1687 122.645 20.4102H123.531C123.326 20.6914 123.135 21.038 122.956 21.45C122.78 21.8591 122.625 22.3093 122.491 22.8008C122.358 23.2895 122.253 23.7951 122.176 24.3179C122.102 24.8406 122.065 25.3562 122.065 25.8647C122.065 26.5409 122.13 27.227 122.261 27.923C122.392 28.619 122.568 29.2653 122.79 29.8619C123.011 30.4585 123.258 30.9443 123.531 31.3193H122.645C122.125 30.5608 121.724 29.7312 121.443 28.8306C121.165 27.9272 121.025 26.9386 121.025 25.8647ZM127.163 25.8647C127.163 26.9386 127.022 27.9272 126.741 28.8306C126.463 29.7312 126.063 30.5608 125.543 31.3193H124.657C124.862 31.038 125.052 30.6914 125.228 30.2795C125.407 29.8704 125.563 29.4216 125.697 28.9329C125.83 28.4414 125.934 27.9343 126.008 27.4116C126.085 26.886 126.123 26.3704 126.123 25.8647C126.123 25.1886 126.058 24.5025 125.927 23.8065C125.796 23.1105 125.62 22.4642 125.399 21.8676C125.177 21.271 124.93 20.7852 124.657 20.4102H125.543C126.063 21.1687 126.463 21.9997 126.741 22.9031C127.022 23.8037 127.163 24.7909 127.163 25.8647ZM132.738 32.0011V23.0011H133.709V24.0409H133.829C133.902 23.9272 134.005 23.7823 134.135 23.6062C134.269 23.4272 134.459 23.2681 134.706 23.1289C134.956 22.9869 135.295 22.9159 135.721 22.9159C136.272 22.9159 136.758 23.0537 137.178 23.3292C137.599 23.6048 137.927 23.9954 138.162 24.5011C138.398 25.0068 138.516 25.6034 138.516 26.2909C138.516 26.9841 138.398 27.5849 138.162 28.0934C137.927 28.5991 137.6 28.9912 137.182 29.2696C136.765 29.5451 136.283 29.6829 135.738 29.6829C135.317 29.6829 134.981 29.6133 134.728 29.4741C134.475 29.3321 134.28 29.1716 134.144 28.9926C134.008 28.8108 133.902 28.6602 133.829 28.5409H133.743V32.0011H132.738ZM133.726 26.2738C133.726 26.7681 133.799 27.2042 133.944 27.5821C134.089 27.9571 134.3 28.2511 134.579 28.4642C134.857 28.6744 135.198 28.7795 135.601 28.7795C136.022 28.7795 136.373 28.6687 136.654 28.4471C136.938 28.2227 137.151 27.9216 137.293 27.5437C137.438 27.163 137.51 26.7397 137.51 26.2738C137.51 25.8136 137.439 25.3988 137.297 25.0295C137.158 24.6573 136.947 24.3633 136.662 24.1474C136.381 23.9287 136.027 23.8193 135.601 23.8193C135.192 23.8193 134.849 23.923 134.57 24.1304C134.292 24.3349 134.081 24.6218 133.939 24.9912C133.797 25.3576 133.726 25.7852 133.726 26.2738ZM141.976 29.7C141.562 29.7 141.185 29.6218 140.847 29.4656C140.509 29.3065 140.241 29.0778 140.042 28.7795C139.843 28.4784 139.743 28.1147 139.743 27.6886C139.743 27.3136 139.817 27.0096 139.965 26.7767C140.113 26.5409 140.31 26.3562 140.557 26.2227C140.804 26.0892 141.077 25.9897 141.375 25.9244C141.677 25.8562 141.979 25.8022 142.283 25.7625C142.681 25.7113 143.003 25.673 143.25 25.6474C143.5 25.619 143.682 25.5721 143.796 25.5068C143.912 25.4414 143.971 25.3278 143.971 25.1659V25.1318C143.971 24.7113 143.856 24.3846 143.625 24.1517C143.398 23.9187 143.053 23.8022 142.59 23.8022C142.11 23.8022 141.733 23.9073 141.461 24.1176C141.188 24.3278 140.996 24.5522 140.885 24.7909L139.931 24.45C140.101 24.0522 140.329 23.7426 140.613 23.521C140.9 23.2966 141.212 23.1403 141.55 23.0522C141.891 22.9613 142.226 22.9159 142.556 22.9159C142.766 22.9159 143.008 22.9414 143.28 22.9926C143.556 23.0409 143.822 23.1417 144.077 23.2951C144.336 23.4485 144.55 23.6801 144.721 23.9897C144.891 24.2994 144.976 24.7142 144.976 25.2341V29.5466H143.971V28.6602H143.92C143.851 28.8022 143.738 28.9542 143.579 29.1162C143.42 29.2781 143.208 29.4159 142.944 29.5295C142.679 29.6431 142.357 29.7 141.976 29.7ZM142.13 28.7966C142.527 28.7966 142.863 28.7184 143.135 28.5622C143.411 28.4059 143.618 28.2042 143.758 27.9571C143.9 27.7099 143.971 27.45 143.971 27.1772V26.2568C143.928 26.3079 143.834 26.3548 143.689 26.3974C143.547 26.4372 143.383 26.4727 143.195 26.5039C143.01 26.5323 142.83 26.5579 142.654 26.5806C142.481 26.6005 142.34 26.6176 142.232 26.6318C141.971 26.6659 141.726 26.7213 141.499 26.798C141.275 26.8718 141.093 26.9841 140.954 27.1346C140.817 27.2823 140.749 27.4841 140.749 27.7397C140.749 28.0892 140.878 28.3534 141.137 28.5324C141.398 28.7085 141.729 28.7966 142.13 28.7966ZM146.812 29.5466V23.0011H147.784V23.9897H147.852C147.971 23.6659 148.187 23.4031 148.499 23.2014C148.812 22.9997 149.164 22.8988 149.556 22.8988C149.63 22.8988 149.722 22.9002 149.833 22.9031C149.944 22.9059 150.028 22.9102 150.085 22.9159V23.9386C150.051 23.9301 149.972 23.9173 149.85 23.9002C149.731 23.8804 149.605 23.8704 149.471 23.8704C149.153 23.8704 148.869 23.9372 148.619 24.0707C148.372 24.2014 148.176 24.3832 148.031 24.6162C147.889 24.8463 147.818 25.1091 147.818 25.4045V29.5466H146.812ZM153.822 29.6829C153.191 29.6829 152.647 29.5437 152.19 29.2653C151.735 28.9841 151.384 28.592 151.137 28.0892C150.893 27.5835 150.771 26.9954 150.771 26.325C150.771 25.6545 150.893 25.0636 151.137 24.5522C151.384 24.038 151.728 23.6375 152.168 23.3505C152.612 23.0608 153.129 22.9159 153.72 22.9159C154.061 22.9159 154.397 22.9727 154.73 23.0863C155.062 23.2 155.364 23.3846 155.637 23.6403C155.91 23.8931 156.127 24.2284 156.289 24.646C156.451 25.0636 156.532 25.5778 156.532 26.1886V26.6147H151.487V25.7454H155.509C155.509 25.3761 155.436 25.0466 155.288 24.7568C155.143 24.467 154.936 24.2383 154.666 24.0707C154.399 23.9031 154.083 23.8193 153.72 23.8193C153.319 23.8193 152.972 23.9187 152.68 24.1176C152.39 24.3136 152.167 24.5693 152.011 24.8846C151.855 25.2 151.776 25.538 151.776 25.8988V26.4784C151.776 26.9727 151.862 27.3917 152.032 27.7355C152.205 28.0764 152.445 28.3363 152.752 28.5153C153.059 28.6914 153.416 28.7795 153.822 28.7795C154.086 28.7795 154.325 28.7426 154.538 28.6687C154.754 28.592 154.94 28.4784 155.096 28.3278C155.252 28.1744 155.373 27.9841 155.458 27.7568L156.43 28.0295C156.328 28.3591 156.156 28.6488 155.914 28.8988C155.673 29.146 155.374 29.3392 155.019 29.4784C154.664 29.6147 154.265 29.6829 153.822 29.6829ZM159.068 25.6091V29.5466H158.062V23.0011H159.034V24.0238H159.119C159.272 23.6914 159.505 23.4244 159.818 23.2227C160.13 23.0181 160.534 22.9159 161.028 22.9159C161.471 22.9159 161.859 23.0068 162.191 23.1886C162.524 23.3676 162.782 23.6403 162.967 24.0068C163.151 24.3704 163.244 24.8306 163.244 25.3875V29.5466H162.238V25.4556C162.238 24.9414 162.105 24.5409 161.838 24.2539C161.57 23.9642 161.204 23.8193 160.738 23.8193C160.417 23.8193 160.13 23.8889 159.877 24.0281C159.627 24.1673 159.43 24.3704 159.285 24.6375C159.14 24.9045 159.068 25.2284 159.068 25.6091ZM167.928 23.0011V23.8534H164.536V23.0011H167.928ZM165.525 21.4329H166.53V27.6716C166.53 27.9556 166.572 28.1687 166.654 28.3108C166.739 28.45 166.847 28.5437 166.978 28.592C167.111 28.6375 167.252 28.6602 167.4 28.6602C167.51 28.6602 167.601 28.6545 167.672 28.6431C167.743 28.6289 167.8 28.6176 167.843 28.6091L168.047 29.5125C167.979 29.538 167.884 29.5636 167.762 29.5892C167.64 29.6176 167.485 29.6318 167.297 29.6318C167.013 29.6318 166.735 29.5707 166.462 29.4485C166.192 29.3264 165.968 29.1403 165.789 28.8903C165.613 28.6403 165.525 28.325 165.525 27.9443V21.4329ZM170.174 29.6147C169.964 29.6147 169.783 29.5395 169.633 29.3889C169.482 29.2383 169.407 29.0579 169.407 28.8477C169.407 28.6375 169.482 28.4571 169.633 28.3065C169.783 28.1559 169.964 28.0806 170.174 28.0806C170.384 28.0806 170.564 28.1559 170.715 28.3065C170.866 28.4571 170.941 28.6375 170.941 28.8477C170.941 28.9869 170.905 29.1147 170.834 29.2312C170.766 29.3477 170.674 29.4414 170.557 29.5125C170.444 29.5806 170.316 29.6147 170.174 29.6147ZM170.174 24.7568C169.964 24.7568 169.783 24.6815 169.633 24.5309C169.482 24.3804 169.407 24.2 169.407 23.9897C169.407 23.7795 169.482 23.5991 169.633 23.4485C169.783 23.298 169.964 23.2227 170.174 23.2227C170.384 23.2227 170.564 23.298 170.715 23.4485C170.866 23.5991 170.941 23.7795 170.941 23.9897C170.941 24.1289 170.905 24.2568 170.834 24.3733C170.766 24.4897 170.674 24.5835 170.557 24.6545C170.444 24.7227 170.316 24.7568 170.174 24.7568ZM183.28 23.5466H182.223C182.16 23.2426 182.051 22.9755 181.895 22.7454C181.741 22.5153 181.554 22.3221 181.332 22.1659C181.113 22.0068 180.871 21.8875 180.603 21.8079C180.336 21.7284 180.058 21.6886 179.768 21.6886C179.24 21.6886 178.761 21.8221 178.332 22.0892C177.906 22.3562 177.567 22.7497 177.314 23.2696C177.064 23.7895 176.939 24.4272 176.939 25.1829C176.939 25.9386 177.064 26.5764 177.314 27.0963C177.567 27.6162 177.906 28.0096 178.332 28.2767C178.761 28.5437 179.24 28.6772 179.768 28.6772C180.058 28.6772 180.336 28.6375 180.603 28.5579C180.871 28.4784 181.113 28.3605 181.332 28.2042C181.554 28.0451 181.741 27.8505 181.895 27.6204C182.051 27.3875 182.16 27.1204 182.223 26.8193H183.28C183.2 27.2653 183.055 27.6645 182.845 28.0167C182.635 28.369 182.373 28.6687 182.061 28.9159C181.748 29.1602 181.398 29.3463 181.008 29.4741C180.622 29.602 180.209 29.6659 179.768 29.6659C179.024 29.6659 178.362 29.4841 177.782 29.1204C177.203 28.7568 176.747 28.2397 176.415 27.5693C176.082 26.8988 175.916 26.1034 175.916 25.1829C175.916 24.2625 176.082 23.467 176.415 22.7966C176.747 22.1261 177.203 21.6091 177.782 21.2454C178.362 20.8818 179.024 20.7 179.768 20.7C180.209 20.7 180.622 20.7639 181.008 20.8917C181.398 21.0196 181.748 21.2071 182.061 21.4542C182.373 21.6985 182.635 21.9968 182.845 22.3491C183.055 22.6985 183.2 23.0977 183.28 23.5466ZM188.976 26.8704V23.0011H189.982V29.5466H188.976V28.4386H188.908C188.754 28.771 188.516 29.0537 188.192 29.2866C187.868 29.5167 187.459 29.6318 186.965 29.6318C186.556 29.6318 186.192 29.5423 185.874 29.3633C185.556 29.1815 185.306 28.9088 185.124 28.5451C184.942 28.1787 184.851 27.717 184.851 27.1602V23.0011H185.857V27.092C185.857 27.5693 185.99 27.95 186.257 28.2341C186.527 28.5181 186.871 28.6602 187.288 28.6602C187.538 28.6602 187.793 28.5963 188.051 28.4684C188.313 28.3406 188.531 28.1446 188.708 27.8804C188.887 27.6162 188.976 27.2795 188.976 26.8704ZM196.46 24.467L195.557 24.7227C195.5 24.5721 195.416 24.4258 195.305 24.2838C195.197 24.1389 195.05 24.0196 194.862 23.9258C194.675 23.8321 194.434 23.7852 194.142 23.7852C193.741 23.7852 193.407 23.8775 193.14 24.0622C192.876 24.244 192.744 24.4755 192.744 24.7568C192.744 25.0068 192.835 25.2042 193.017 25.3491C193.199 25.494 193.483 25.6147 193.869 25.7113L194.841 25.95C195.426 26.092 195.862 26.3093 196.149 26.602C196.436 26.8917 196.579 27.2653 196.579 27.7227C196.579 28.0977 196.471 28.4329 196.255 28.7284C196.042 29.0238 195.744 29.2568 195.361 29.4272C194.977 29.5977 194.531 29.6829 194.023 29.6829C193.355 29.6829 192.802 29.538 192.365 29.2483C191.927 28.9585 191.65 28.5352 191.534 27.9784L192.488 27.7397C192.579 28.092 192.751 28.3562 193.004 28.5324C193.26 28.7085 193.594 28.7966 194.005 28.7966C194.474 28.7966 194.846 28.6971 195.122 28.4983C195.4 28.2966 195.54 28.0551 195.54 27.7738C195.54 27.5466 195.46 27.3562 195.301 27.2028C195.142 27.0466 194.898 26.9301 194.568 26.8534L193.477 26.5977C192.878 26.4556 192.437 26.2355 192.156 25.9372C191.878 25.636 191.738 25.2596 191.738 24.8079C191.738 24.4386 191.842 24.1119 192.05 23.8278C192.26 23.5437 192.545 23.3207 192.906 23.1588C193.27 22.9968 193.682 22.9159 194.142 22.9159C194.79 22.9159 195.298 23.0579 195.667 23.342C196.04 23.6261 196.304 24.0011 196.46 24.467ZM200.94 23.0011V23.8534H197.548V23.0011H200.94ZM198.536 21.4329H199.542V27.6716C199.542 27.9556 199.583 28.1687 199.666 28.3108C199.751 28.45 199.859 28.5437 199.989 28.592C200.123 28.6375 200.264 28.6602 200.411 28.6602C200.522 28.6602 200.613 28.6545 200.684 28.6431C200.755 28.6289 200.812 28.6176 200.855 28.6091L201.059 29.5125C200.991 29.538 200.896 29.5636 200.774 29.5892C200.651 29.6176 200.497 29.6318 200.309 29.6318C200.025 29.6318 199.747 29.5707 199.474 29.4485C199.204 29.3264 198.98 29.1403 198.801 28.8903C198.624 28.6403 198.536 28.325 198.536 27.9443V21.4329ZM205.041 29.6829C204.45 29.6829 203.932 29.5423 203.486 29.261C203.043 28.9798 202.696 28.5863 202.446 28.0806C202.199 27.575 202.075 26.9841 202.075 26.3079C202.075 25.6261 202.199 25.0309 202.446 24.5224C202.696 24.0139 203.043 23.619 203.486 23.3377C203.932 23.0565 204.45 22.9159 205.041 22.9159C205.632 22.9159 206.149 23.0565 206.592 23.3377C207.038 23.619 207.385 24.0139 207.632 24.5224C207.882 25.0309 208.007 25.6261 208.007 26.3079C208.007 26.9841 207.882 27.575 207.632 28.0806C207.385 28.5863 207.038 28.9798 206.592 29.261C206.149 29.5423 205.632 29.6829 205.041 29.6829ZM205.041 28.7795C205.49 28.7795 205.86 28.6645 206.149 28.4343C206.439 28.2042 206.654 27.9017 206.793 27.5267C206.932 27.1517 207.002 26.7454 207.002 26.3079C207.002 25.8704 206.932 25.4627 206.793 25.0849C206.654 24.7071 206.439 24.4017 206.149 24.1687C205.86 23.9358 205.49 23.8193 205.041 23.8193C204.592 23.8193 204.223 23.9358 203.933 24.1687C203.644 24.4017 203.429 24.7071 203.29 25.0849C203.151 25.4627 203.081 25.8704 203.081 26.3079C203.081 26.7454 203.151 27.1517 203.29 27.5267C203.429 27.9017 203.644 28.2042 203.933 28.4343C204.223 28.6645 204.592 28.7795 205.041 28.7795ZM209.542 29.5466V23.0011H210.514V24.0238H210.599C210.736 23.6744 210.956 23.4031 211.26 23.2099C211.564 23.0139 211.929 22.9159 212.355 22.9159C212.787 22.9159 213.146 23.0139 213.433 23.2099C213.723 23.4031 213.949 23.6744 214.111 24.0238H214.179C214.346 23.6858 214.598 23.4173 214.933 23.2184C215.268 23.0167 215.67 22.9159 216.139 22.9159C216.724 22.9159 217.203 23.0991 217.575 23.4656C217.947 23.8292 218.133 24.396 218.133 25.1659V29.5466H217.128V25.1659C217.128 24.6829 216.996 24.3377 216.731 24.1304C216.467 23.923 216.156 23.8193 215.798 23.8193C215.338 23.8193 214.981 23.9585 214.728 24.2369C214.476 24.5125 214.349 24.8619 214.349 25.2852V29.5466H213.326V25.0636C213.326 24.6914 213.206 24.3917 212.964 24.1645C212.723 23.9343 212.412 23.8193 212.031 23.8193C211.77 23.8193 211.525 23.8889 211.298 24.0281C211.074 24.1673 210.892 24.3605 210.753 24.6076C210.616 24.852 210.548 25.1346 210.548 25.4556V29.5466H209.542ZM222.716 29.6829C222.086 29.6829 221.542 29.5437 221.084 29.2653C220.63 28.9841 220.279 28.592 220.032 28.0892C219.787 27.5835 219.665 26.9954 219.665 26.325C219.665 25.6545 219.787 25.0636 220.032 24.5522C220.279 24.038 220.623 23.6375 221.063 23.3505C221.506 23.0608 222.023 22.9159 222.614 22.9159C222.955 22.9159 223.292 22.9727 223.624 23.0863C223.956 23.2 224.259 23.3846 224.532 23.6403C224.804 23.8931 225.022 24.2284 225.184 24.646C225.346 25.0636 225.427 25.5778 225.427 26.1886V26.6147H220.381V25.7454H224.404C224.404 25.3761 224.33 25.0466 224.182 24.7568C224.037 24.467 223.83 24.2383 223.56 24.0707C223.293 23.9031 222.978 23.8193 222.614 23.8193C222.214 23.8193 221.867 23.9187 221.574 24.1176C221.285 24.3136 221.062 24.5693 220.905 24.8846C220.749 25.2 220.671 25.538 220.671 25.8988V26.4784C220.671 26.9727 220.756 27.3917 220.927 27.7355C221.1 28.0764 221.34 28.3363 221.647 28.5153C221.954 28.6914 222.31 28.7795 222.716 28.7795C222.981 28.7795 223.219 28.7426 223.432 28.6687C223.648 28.592 223.834 28.4784 223.991 28.3278C224.147 28.1744 224.268 27.9841 224.353 27.7568L225.324 28.0295C225.222 28.3591 225.05 28.6488 224.809 28.8988C224.567 29.146 224.269 29.3392 223.914 29.4784C223.559 29.6147 223.16 29.6829 222.716 29.6829ZM226.956 29.5466V23.0011H227.928V23.9897H227.996C228.116 23.6659 228.331 23.4031 228.644 23.2014C228.956 22.9997 229.309 22.8988 229.701 22.8988C229.775 22.8988 229.867 22.9002 229.978 22.9031C230.089 22.9059 230.172 22.9102 230.229 22.9159V23.9386C230.195 23.9301 230.117 23.9173 229.995 23.9002C229.875 23.8804 229.749 23.8704 229.616 23.8704C229.297 23.8704 229.013 23.9372 228.763 24.0707C228.516 24.2014 228.32 24.3832 228.175 24.6162C228.033 24.8463 227.962 25.1091 227.962 25.4045V29.5466H226.956ZM232.171 28.3534L232.103 28.8136C232.055 29.1375 231.981 29.4841 231.882 29.8534C231.785 30.2227 231.684 30.5707 231.579 30.8974C231.474 31.2241 231.387 31.4841 231.319 31.6772H230.552C230.589 31.4954 230.637 31.2554 230.697 30.9571C230.757 30.6588 230.816 30.325 230.876 29.9556C230.938 29.5892 230.989 29.2142 231.029 28.8306L231.08 28.3534H232.171Z" fill="#888FAD"/>
<path d="M83.796 29.5466V20.8193H86.7448C87.4295 20.8193 87.9891 20.9429 88.4238 21.19C88.8613 21.4343 89.1852 21.7653 89.3954 22.1829C89.6056 22.6005 89.7107 23.0664 89.7107 23.5806C89.7107 24.0948 89.6056 24.5622 89.3954 24.9826C89.188 25.4031 88.867 25.7383 88.4323 25.9883C87.9977 26.2355 87.4408 26.3591 86.7619 26.3591H84.6482V25.4216H86.7278C87.1965 25.4216 87.5729 25.3406 87.857 25.1787C88.1411 25.0167 88.3471 24.798 88.4749 24.5224C88.6056 24.244 88.671 23.9301 88.671 23.5806C88.671 23.2312 88.6056 22.9187 88.4749 22.6431C88.3471 22.3676 88.1397 22.1517 87.8528 21.9954C87.5658 21.8363 87.1852 21.7568 86.7107 21.7568H84.8528V29.5466H83.796ZM93.2029 29.7C92.7881 29.7 92.4117 29.6218 92.0737 29.4656C91.7356 29.3065 91.4671 29.0778 91.2683 28.7795C91.0694 28.4784 90.97 28.1147 90.97 27.6886C90.97 27.3136 91.0438 27.0096 91.1916 26.7767C91.3393 26.5409 91.5367 26.3562 91.7839 26.2227C92.031 26.0892 92.3038 25.9897 92.6021 25.9244C92.9032 25.8562 93.2058 25.8022 93.5097 25.7625C93.9075 25.7113 94.2299 25.673 94.4771 25.6474C94.7271 25.619 94.9089 25.5721 95.0225 25.5068C95.139 25.4414 95.1972 25.3278 95.1972 25.1659V25.1318C95.1972 24.7113 95.0822 24.3846 94.8521 24.1517C94.6248 23.9187 94.2796 23.8022 93.8166 23.8022C93.3364 23.8022 92.96 23.9073 92.6873 24.1176C92.4146 24.3278 92.2228 24.5522 92.112 24.7909L91.1575 24.45C91.3279 24.0522 91.5552 23.7426 91.8393 23.521C92.1262 23.2966 92.4387 23.1403 92.7768 23.0522C93.1177 22.9613 93.4529 22.9159 93.7825 22.9159C93.9927 22.9159 94.2342 22.9414 94.5069 22.9926C94.7825 23.0409 95.0481 23.1417 95.3038 23.2951C95.5623 23.4485 95.7768 23.6801 95.9472 23.9897C96.1177 24.2994 96.2029 24.7142 96.2029 25.2341V29.5466H95.1972V28.6602H95.1461C95.0779 28.8022 94.9643 28.9542 94.8052 29.1162C94.6461 29.2781 94.4344 29.4159 94.1702 29.5295C93.906 29.6431 93.5836 29.7 93.2029 29.7ZM93.3563 28.7966C93.7541 28.7966 94.0893 28.7184 94.362 28.5622C94.6376 28.4059 94.845 28.2042 94.9842 27.9571C95.1262 27.7099 95.1972 27.45 95.1972 27.1772V26.2568C95.1546 26.3079 95.0609 26.3548 94.916 26.3974C94.7739 26.4372 94.6092 26.4727 94.4217 26.5039C94.237 26.5323 94.0566 26.5579 93.8805 26.5806C93.7072 26.6005 93.5666 26.6176 93.4586 26.6318C93.1972 26.6659 92.9529 26.7213 92.7256 26.798C92.5012 26.8718 92.3194 26.9841 92.1802 27.1346C92.0438 27.2823 91.9756 27.4841 91.9756 27.7397C91.9756 28.0892 92.1049 28.3534 92.3634 28.5324C92.6248 28.7085 92.9558 28.7966 93.3563 28.7966ZM98.0385 29.5466V23.0011H99.0101V23.9897H99.0783C99.1976 23.6659 99.4135 23.4031 99.726 23.2014C100.038 22.9997 100.391 22.8988 100.783 22.8988C100.857 22.8988 100.949 22.9002 101.06 22.9031C101.171 22.9059 101.254 22.9102 101.311 22.9159V23.9386C101.277 23.9301 101.199 23.9173 101.077 23.9002C100.958 23.8804 100.831 23.8704 100.698 23.8704C100.379 23.8704 100.095 23.9372 99.8453 24.0707C99.5982 24.2014 99.4021 24.3832 99.2572 24.6162C99.1152 24.8463 99.0442 25.1091 99.0442 25.4045V29.5466H98.0385ZM105.048 29.6829C104.418 29.6829 103.874 29.5437 103.416 29.2653C102.962 28.9841 102.611 28.592 102.364 28.0892C102.119 27.5835 101.997 26.9954 101.997 26.325C101.997 25.6545 102.119 25.0636 102.364 24.5522C102.611 24.038 102.955 23.6375 103.395 23.3505C103.838 23.0608 104.355 22.9159 104.946 22.9159C105.287 22.9159 105.624 22.9727 105.956 23.0863C106.288 23.2 106.591 23.3846 106.864 23.6403C107.137 23.8931 107.354 24.2284 107.516 24.646C107.678 25.0636 107.759 25.5778 107.759 26.1886V26.6147H102.713V25.7454H106.736C106.736 25.3761 106.662 25.0466 106.514 24.7568C106.369 24.467 106.162 24.2383 105.892 24.0707C105.625 23.9031 105.31 23.8193 104.946 23.8193C104.546 23.8193 104.199 23.9187 103.906 24.1176C103.617 24.3136 103.394 24.5693 103.237 24.8846C103.081 25.2 103.003 25.538 103.003 25.8988V26.4784C103.003 26.9727 103.088 27.3917 103.259 27.7355C103.432 28.0764 103.672 28.3363 103.979 28.5153C104.286 28.6914 104.642 28.7795 105.048 28.7795C105.313 28.7795 105.551 28.7426 105.764 28.6687C105.98 28.592 106.166 28.4784 106.323 28.3278C106.479 28.1744 106.6 27.9841 106.685 27.7568L107.656 28.0295C107.554 28.3591 107.382 28.6488 107.141 28.8988C106.899 29.146 106.601 29.3392 106.246 29.4784C105.891 29.6147 105.492 29.6829 105.048 29.6829ZM110.294 25.6091V29.5466H109.288V23.0011H110.26V24.0238H110.345C110.499 23.6914 110.732 23.4244 111.044 23.2227C111.357 23.0181 111.76 22.9159 112.254 22.9159C112.698 22.9159 113.085 23.0068 113.418 23.1886C113.75 23.3676 114.009 23.6403 114.193 24.0068C114.378 24.3704 114.47 24.8306 114.47 25.3875V29.5466H113.465V25.4556C113.465 24.9414 113.331 24.5409 113.064 24.2539C112.797 23.9642 112.431 23.8193 111.965 23.8193C111.644 23.8193 111.357 23.8889 111.104 24.0281C110.854 24.1673 110.656 24.3704 110.512 24.6375C110.367 24.9045 110.294 25.2284 110.294 25.6091ZM119.155 23.0011V23.8534H115.763V23.0011H119.155ZM116.751 21.4329H117.757V27.6716C117.757 27.9556 117.798 28.1687 117.88 28.3108C117.966 28.45 118.074 28.5437 118.204 28.592C118.338 28.6375 118.478 28.6602 118.626 28.6602C118.737 28.6602 118.828 28.6545 118.899 28.6431C118.97 28.6289 119.027 28.6176 119.069 28.6091L119.274 29.5125C119.206 29.538 119.111 29.5636 118.988 29.5892C118.866 29.6176 118.711 29.6318 118.524 29.6318C118.24 29.6318 117.961 29.5707 117.689 29.4485C117.419 29.3264 117.194 29.1403 117.015 28.8903C116.839 28.6403 116.751 28.325 116.751 27.9443V21.4329Z" fill="#7950ED"/>
<path d="M246.605 73.6941L232.319 39.8289L266.184 53.0575L251.897 59.4072L246.605 73.6941Z" fill="#D9D9D9"/>
<path d="M255.957 72.9363H254.849L258.054 64.209H259.145L262.349 72.9363H261.241L258.633 65.5897H258.565L255.957 72.9363ZM256.366 69.5272H260.832V70.4647H256.366V69.5272ZM264.578 64.209V72.9363H263.572V64.209H264.578ZM269.164 73.0727C268.533 73.0727 267.989 72.9335 267.532 72.6551C267.078 72.3738 266.727 71.9818 266.48 71.4789C266.235 70.9732 266.113 70.3852 266.113 69.7147C266.113 69.0443 266.235 68.4534 266.48 67.942C266.727 67.4278 267.07 67.0272 267.511 66.7403C267.954 66.4505 268.471 66.3056 269.062 66.3056C269.403 66.3056 269.739 66.3624 270.072 66.4761C270.404 66.5897 270.707 66.7744 270.98 67.0301C271.252 67.2829 271.47 67.6181 271.631 68.0357C271.793 68.4534 271.874 68.9676 271.874 69.5784V70.0045H266.829V69.1352H270.852C270.852 68.7659 270.778 68.4363 270.63 68.1465C270.485 67.8568 270.278 67.6281 270.008 67.4605C269.741 67.2928 269.426 67.209 269.062 67.209C268.661 67.209 268.315 67.3085 268.022 67.5073C267.732 67.7034 267.509 67.959 267.353 68.2744C267.197 68.5897 267.119 68.9278 267.119 69.2886V69.8681C267.119 70.3624 267.204 70.7815 267.374 71.1252C267.548 71.4661 267.788 71.7261 268.095 71.9051C268.401 72.0812 268.758 72.1693 269.164 72.1693C269.428 72.1693 269.667 72.1323 269.88 72.0585C270.096 71.9818 270.282 71.8681 270.438 71.7176C270.595 71.5642 270.715 71.3738 270.801 71.1465L271.772 71.4193C271.67 71.7488 271.498 72.0386 271.256 72.2886C271.015 72.5357 270.717 72.7289 270.362 72.8681C270.006 73.0045 269.607 73.0727 269.164 73.0727ZM273.978 66.3909L275.547 69.067L277.115 66.3909H278.274L276.16 69.6636L278.274 72.9363H277.115L275.547 70.3965L273.978 72.9363H272.819L274.899 69.6636L272.819 66.3909H273.978Z" fill="white"/>
<defs>
<filter id="filter0_b_1084_1300" x="-6.44629" y="-6.32784" width="280.688" height="64.7978" filterUnits="userSpaceOnUse" color-interpolation-filters="sRGB">
<feFlood flood-opacity="0" result="BackgroundImageFix"/>
<feGaussianBlur in="BackgroundImageFix" stdDeviation="3.5"/>
<feComposite in2="SourceAlpha" operator="in" result="effect1_backgroundBlur_1084_1300"/>
<feBlend mode="normal" in="SourceGraphic" in2="effect1_backgroundBlur_1084_1300" result="shape"/>
</filter>
</defs>
</svg>
