<svg width="1092" height="893" viewBox="0 0 1092 893" fill="none" xmlns="http://www.w3.org/2000/svg">
<path d="M685.651 503.872L671.365 470.007L705.23 483.236L690.943 489.586L685.651 503.872Z" fill="#7950ED" stroke="#2A3152"/>
<path d="M697.986 494.387H699.043V500.626C699.043 501.183 698.941 501.656 698.736 502.045C698.532 502.434 698.243 502.73 697.871 502.931C697.499 503.133 697.06 503.234 696.554 503.234C696.077 503.234 695.652 503.147 695.28 502.974C694.908 502.798 694.615 502.548 694.402 502.224C694.189 501.9 694.083 501.515 694.083 501.069H695.123C695.123 501.316 695.184 501.532 695.306 501.717C695.431 501.899 695.601 502.041 695.817 502.143C696.033 502.245 696.279 502.297 696.554 502.297C696.858 502.297 697.117 502.233 697.33 502.105C697.543 501.977 697.705 501.789 697.816 501.542C697.929 501.292 697.986 500.987 697.986 500.626V494.387ZM703.684 503.251C703.093 503.251 702.574 503.11 702.128 502.829C701.685 502.548 701.339 502.154 701.089 501.649C700.841 501.143 700.718 500.552 700.718 499.876C700.718 499.194 700.841 498.599 701.089 498.091C701.339 497.582 701.685 497.187 702.128 496.906C702.574 496.625 703.093 496.484 703.684 496.484C704.275 496.484 704.792 496.625 705.235 496.906C705.681 497.187 706.027 497.582 706.275 498.091C706.525 498.599 706.65 499.194 706.65 499.876C706.65 500.552 706.525 501.143 706.275 501.649C706.027 502.154 705.681 502.548 705.235 502.829C704.792 503.11 704.275 503.251 703.684 503.251ZM703.684 502.348C704.133 502.348 704.502 502.233 704.792 502.002C705.081 501.772 705.296 501.47 705.435 501.095C705.574 500.72 705.644 500.314 705.644 499.876C705.644 499.439 705.574 499.031 705.435 498.653C705.296 498.275 705.081 497.97 704.792 497.737C704.502 497.504 704.133 497.387 703.684 497.387C703.235 497.387 702.865 497.504 702.576 497.737C702.286 497.97 702.071 498.275 701.932 498.653C701.793 499.031 701.723 499.439 701.723 499.876C701.723 500.314 701.793 500.72 701.932 501.095C702.071 501.47 702.286 501.772 702.576 502.002C702.865 502.233 703.235 502.348 703.684 502.348ZM709.19 499.177V503.115H708.185V494.387H709.19V497.592H709.276C709.429 497.254 709.659 496.985 709.966 496.787C710.276 496.585 710.688 496.484 711.202 496.484C711.648 496.484 712.038 496.574 712.374 496.752C712.709 496.929 712.969 497.2 713.153 497.566C713.341 497.93 713.435 498.393 713.435 498.956V503.115H712.429V499.024C712.429 498.504 712.294 498.102 712.024 497.818C711.757 497.531 711.386 497.387 710.912 497.387C710.582 497.387 710.287 497.457 710.026 497.596C709.767 497.735 709.563 497.939 709.412 498.206C709.264 498.473 709.19 498.797 709.19 499.177ZM716.28 499.177V503.115H715.275V496.569H716.246V497.592H716.331C716.485 497.26 716.718 496.993 717.03 496.791C717.343 496.586 717.746 496.484 718.24 496.484C718.684 496.484 719.071 496.575 719.404 496.757C719.736 496.936 719.995 497.208 720.179 497.575C720.364 497.939 720.456 498.399 720.456 498.956V503.115H719.451V499.024C719.451 498.51 719.317 498.109 719.05 497.822C718.783 497.532 718.417 497.387 717.951 497.387C717.63 497.387 717.343 497.457 717.09 497.596C716.84 497.735 716.642 497.939 716.498 498.206C716.353 498.473 716.28 498.797 716.28 499.177Z" fill="#7950ED"/>
<g filter="url(#filter0_f_1084_1293)">
<path d="M421.608 446.196C421.608 432.461 432.743 421.326 446.478 421.326H645.436C659.171 421.326 670.306 432.461 670.306 446.196V446.196C670.306 459.931 659.171 471.066 645.436 471.066H446.478C432.743 471.066 421.608 459.931 421.608 446.196V446.196Z" fill="#7950ED"/>
</g>
<g filter="url(#filter1_bd_1084_1293)">
<path d="M421.608 446.196C421.608 432.461 432.743 421.326 446.478 421.326H645.436C659.171 421.326 670.306 432.461 670.306 446.196V446.196C670.306 459.931 659.171 471.066 645.436 471.066H446.478C432.743 471.066 421.608 459.931 421.608 446.196V446.196Z" fill="#7950ED"/>
</g>
<path d="M444.428 450.269C444.217 450.269 444.037 450.193 443.887 450.043C443.736 449.892 443.661 449.712 443.661 449.502C443.661 449.291 443.736 449.111 443.887 448.96C444.037 448.81 444.217 448.734 444.428 448.734C444.638 448.734 444.818 448.81 444.969 448.96C445.119 449.111 445.195 449.291 445.195 449.502C445.195 449.641 445.159 449.769 445.088 449.885C445.02 450.002 444.928 450.095 444.811 450.166C444.698 450.234 444.57 450.269 444.428 450.269ZM449.914 443.655V444.507H446.386V443.655H449.914ZM447.443 450.2V442.752C447.443 442.377 447.531 442.064 447.707 441.814C447.883 441.564 448.112 441.377 448.393 441.252C448.674 441.127 448.971 441.064 449.284 441.064C449.531 441.064 449.732 441.084 449.889 441.124C450.045 441.163 450.161 441.2 450.238 441.234L449.948 442.104C449.897 442.087 449.826 442.065 449.735 442.04C449.647 442.014 449.531 442.002 449.386 442.002C449.053 442.002 448.813 442.085 448.666 442.253C448.521 442.421 448.448 442.666 448.448 442.99V450.2H447.443ZM451.324 450.2V443.655H452.329V450.2H451.324ZM451.835 442.564C451.639 442.564 451.47 442.497 451.328 442.364C451.189 442.23 451.119 442.07 451.119 441.882C451.119 441.695 451.189 441.534 451.328 441.401C451.47 441.267 451.639 441.2 451.835 441.2C452.031 441.2 452.199 441.267 452.338 441.401C452.48 441.534 452.551 441.695 452.551 441.882C452.551 442.07 452.48 442.23 452.338 442.364C452.199 442.497 452.031 442.564 451.835 442.564ZM455.177 446.263V450.2H454.171V443.655H455.143V444.678H455.228C455.382 444.345 455.614 444.078 455.927 443.877C456.239 443.672 456.643 443.57 457.137 443.57C457.58 443.57 457.968 443.661 458.301 443.842C458.633 444.021 458.891 444.294 459.076 444.661C459.261 445.024 459.353 445.484 459.353 446.041V450.2H458.347V446.109C458.347 445.595 458.214 445.195 457.947 444.908C457.68 444.618 457.313 444.473 456.847 444.473C456.526 444.473 456.239 444.543 455.987 444.682C455.737 444.821 455.539 445.024 455.394 445.291C455.249 445.558 455.177 445.882 455.177 446.263ZM463.662 450.337C463.117 450.337 462.635 450.199 462.218 449.923C461.8 449.645 461.474 449.253 461.238 448.747C461.002 448.239 460.884 447.638 460.884 446.945C460.884 446.257 461.002 445.661 461.238 445.155C461.474 444.649 461.802 444.259 462.222 443.983C462.643 443.707 463.128 443.57 463.679 443.57C464.106 443.57 464.442 443.641 464.689 443.783C464.939 443.922 465.13 444.081 465.26 444.26C465.394 444.436 465.498 444.581 465.572 444.695H465.657V441.473H466.662V450.2H465.691V449.195H465.572C465.498 449.314 465.393 449.465 465.256 449.646C465.12 449.825 464.925 449.986 464.672 450.128C464.42 450.267 464.083 450.337 463.662 450.337ZM463.799 449.433C464.202 449.433 464.543 449.328 464.822 449.118C465.1 448.905 465.312 448.611 465.456 448.236C465.601 447.858 465.674 447.422 465.674 446.928C465.674 446.439 465.603 446.011 465.461 445.645C465.319 445.276 465.108 444.989 464.83 444.784C464.552 444.577 464.208 444.473 463.799 444.473C463.373 444.473 463.018 444.582 462.733 444.801C462.452 445.017 462.241 445.311 462.099 445.683C461.959 446.053 461.89 446.467 461.89 446.928C461.89 447.394 461.961 447.817 462.103 448.198C462.248 448.575 462.461 448.877 462.742 449.101C463.026 449.323 463.378 449.433 463.799 449.433ZM471.303 450.337C470.712 450.337 470.194 450.196 469.748 449.915C469.304 449.634 468.958 449.24 468.708 448.734C468.461 448.229 468.337 447.638 468.337 446.962C468.337 446.28 468.461 445.685 468.708 445.176C468.958 444.668 469.304 444.273 469.748 443.992C470.194 443.71 470.712 443.57 471.303 443.57C471.894 443.57 472.411 443.71 472.854 443.992C473.3 444.273 473.647 444.668 473.894 445.176C474.144 445.685 474.269 446.28 474.269 446.962C474.269 447.638 474.144 448.229 473.894 448.734C473.647 449.24 473.3 449.634 472.854 449.915C472.411 450.196 471.894 450.337 471.303 450.337ZM471.303 449.433C471.752 449.433 472.121 449.318 472.411 449.088C472.701 448.858 472.915 448.555 473.054 448.18C473.194 447.805 473.263 447.399 473.263 446.962C473.263 446.524 473.194 446.117 473.054 445.739C472.915 445.361 472.701 445.055 472.411 444.823C472.121 444.59 471.752 444.473 471.303 444.473C470.854 444.473 470.485 444.59 470.195 444.823C469.905 445.055 469.691 445.361 469.552 445.739C469.412 446.117 469.343 446.524 469.343 446.962C469.343 447.399 469.412 447.805 469.552 448.18C469.691 448.555 469.905 448.858 470.195 449.088C470.485 449.318 470.854 449.433 471.303 449.433ZM476.81 446.263V450.2H475.804V443.655H476.776V444.678H476.861C477.014 444.345 477.247 444.078 477.56 443.877C477.872 443.672 478.276 443.57 478.77 443.57C479.213 443.57 479.601 443.661 479.933 443.842C480.266 444.021 480.524 444.294 480.709 444.661C480.894 445.024 480.986 445.484 480.986 446.041V450.2H479.98V446.109C479.98 445.595 479.847 445.195 479.58 444.908C479.313 444.618 478.946 444.473 478.48 444.473C478.159 444.473 477.872 444.543 477.619 444.682C477.369 444.821 477.172 445.024 477.027 445.291C476.882 445.558 476.81 445.882 476.81 446.263ZM485.568 450.337C484.937 450.337 484.393 450.198 483.936 449.919C483.481 449.638 483.13 449.246 482.883 448.743C482.639 448.237 482.517 447.649 482.517 446.979C482.517 446.308 482.639 445.717 482.883 445.206C483.13 444.692 483.474 444.291 483.915 444.004C484.358 443.715 484.875 443.57 485.466 443.57C485.807 443.57 486.143 443.627 486.476 443.74C486.808 443.854 487.111 444.038 487.383 444.294C487.656 444.547 487.873 444.882 488.035 445.3C488.197 445.717 488.278 446.232 488.278 446.842V447.269H483.233V446.399H487.255C487.255 446.03 487.182 445.7 487.034 445.411C486.889 445.121 486.682 444.892 486.412 444.725C486.145 444.557 485.829 444.473 485.466 444.473C485.065 444.473 484.719 444.573 484.426 444.771C484.136 444.967 483.913 445.223 483.757 445.538C483.601 445.854 483.523 446.192 483.523 446.553V447.132C483.523 447.627 483.608 448.046 483.778 448.389C483.951 448.73 484.192 448.99 484.498 449.169C484.805 449.345 485.162 449.433 485.568 449.433C485.832 449.433 486.071 449.396 486.284 449.323C486.5 449.246 486.686 449.132 486.842 448.982C486.998 448.828 487.119 448.638 487.204 448.411L488.176 448.683C488.074 449.013 487.902 449.303 487.66 449.553C487.419 449.8 487.121 449.993 486.765 450.132C486.41 450.269 486.011 450.337 485.568 450.337Z" fill="white"/>
<path d="M490.166 446.519C490.166 445.445 490.305 444.457 490.584 443.557C490.865 442.654 491.265 441.823 491.785 441.064H492.672C492.467 441.345 492.275 441.692 492.096 442.104C491.92 442.513 491.765 442.963 491.632 443.455C491.498 443.943 491.393 444.449 491.317 444.972C491.243 445.494 491.206 446.01 491.206 446.519C491.206 447.195 491.271 447.881 491.402 448.577C491.532 449.273 491.709 449.919 491.93 450.516C492.152 451.112 492.399 451.598 492.672 451.973H491.785C491.265 451.215 490.865 450.385 490.584 449.484C490.305 448.581 490.166 447.592 490.166 446.519ZM493.678 446.536V446.007C494.153 446.007 494.484 445.908 494.671 445.709C494.862 445.51 494.957 445.178 494.957 444.712V443.348C494.957 442.956 494.994 442.617 495.068 442.33C495.144 442.043 495.268 441.805 495.438 441.618C495.609 441.43 495.836 441.291 496.12 441.2C496.404 441.109 496.755 441.064 497.173 441.064V441.899C496.843 441.899 496.583 441.95 496.393 442.053C496.205 442.155 496.072 442.314 495.992 442.53C495.916 442.743 495.877 443.016 495.877 443.348V445.053C495.877 445.274 495.847 445.476 495.788 445.658C495.731 445.84 495.624 445.996 495.468 446.127C495.312 446.257 495.089 446.358 494.799 446.429C494.512 446.5 494.139 446.536 493.678 446.536ZM497.173 451.973C496.755 451.973 496.404 451.928 496.12 451.837C495.836 451.746 495.609 451.607 495.438 451.419C495.268 451.232 495.144 450.994 495.068 450.707C494.994 450.421 494.957 450.081 494.957 449.689V448.325C494.957 447.859 494.862 447.527 494.671 447.328C494.484 447.129 494.153 447.03 493.678 447.03V446.502C494.139 446.502 494.512 446.537 494.799 446.608C495.089 446.679 495.312 446.78 495.468 446.911C495.624 447.041 495.731 447.198 495.788 447.379C495.847 447.561 495.877 447.763 495.877 447.984V449.689C495.877 450.021 495.916 450.294 495.992 450.507C496.072 450.72 496.205 450.878 496.393 450.98C496.583 451.085 496.843 451.138 497.173 451.138V451.973ZM493.678 447.03V446.007H494.684V447.03H493.678ZM537.686 450.269C537.475 450.269 537.295 450.193 537.144 450.043C536.994 449.892 536.918 449.712 536.918 449.502C536.918 449.291 536.994 449.111 537.144 448.96C537.295 448.81 537.475 448.734 537.686 448.734C537.896 448.734 538.076 448.81 538.227 448.96C538.377 449.111 538.453 449.291 538.453 449.502C538.453 449.641 538.417 449.769 538.346 449.885C538.278 450.002 538.186 450.095 538.069 450.166C537.955 450.234 537.828 450.269 537.686 450.269ZM537.686 445.411C537.475 445.411 537.295 445.335 537.144 445.185C536.994 445.034 536.918 444.854 536.918 444.644C536.918 444.433 536.994 444.253 537.144 444.102C537.295 443.952 537.475 443.877 537.686 443.877C537.896 443.877 538.076 443.952 538.227 444.102C538.377 444.253 538.453 444.433 538.453 444.644C538.453 444.783 538.417 444.911 538.346 445.027C538.278 445.144 538.186 445.237 538.069 445.308C537.955 445.377 537.828 445.411 537.686 445.411ZM543.155 446.536V446.007C543.629 446.007 543.96 445.908 544.148 445.709C544.338 445.51 544.433 445.178 544.433 444.712V443.348C544.433 442.956 544.47 442.617 544.544 442.33C544.621 442.043 544.744 441.805 544.915 441.618C545.085 441.43 545.313 441.291 545.597 441.2C545.881 441.109 546.232 441.064 546.649 441.064V441.899C546.32 441.899 546.06 441.95 545.869 442.053C545.682 442.155 545.548 442.314 545.469 442.53C545.392 442.743 545.354 443.016 545.354 443.348V445.053C545.354 445.274 545.324 445.476 545.264 445.658C545.208 445.84 545.101 445.996 544.945 446.127C544.788 446.257 544.565 446.358 544.276 446.429C543.989 446.5 543.615 446.536 543.155 446.536ZM546.649 451.973C546.232 451.973 545.881 451.928 545.597 451.837C545.313 451.746 545.085 451.607 544.915 451.419C544.744 451.232 544.621 450.994 544.544 450.707C544.47 450.421 544.433 450.081 544.433 449.689V448.325C544.433 447.859 544.338 447.527 544.148 447.328C543.96 447.129 543.629 447.03 543.155 447.03V446.502C543.615 446.502 543.989 446.537 544.276 446.608C544.565 446.679 544.788 446.78 544.945 446.911C545.101 447.041 545.208 447.198 545.264 447.379C545.324 447.561 545.354 447.763 545.354 447.984V449.689C545.354 450.021 545.392 450.294 545.469 450.507C545.548 450.72 545.682 450.878 545.869 450.98C546.06 451.085 546.32 451.138 546.649 451.138V451.973ZM543.155 447.03V446.007H544.161V447.03H543.155ZM562.389 450.269C562.178 450.269 561.998 450.193 561.847 450.043C561.697 449.892 561.622 449.712 561.622 449.502C561.622 449.291 561.697 449.111 561.847 448.96C561.998 448.81 562.178 448.734 562.389 448.734C562.599 448.734 562.779 448.81 562.93 448.96C563.08 449.111 563.156 449.291 563.156 449.502C563.156 449.641 563.12 449.769 563.049 449.885C562.981 450.002 562.889 450.095 562.772 450.166C562.659 450.234 562.531 450.269 562.389 450.269ZM562.389 445.411C562.178 445.411 561.998 445.335 561.847 445.185C561.697 445.034 561.622 444.854 561.622 444.644C561.622 444.433 561.697 444.253 561.847 444.102C561.998 443.952 562.178 443.877 562.389 443.877C562.599 443.877 562.779 443.952 562.93 444.102C563.08 444.253 563.156 444.433 563.156 444.644C563.156 444.783 563.12 444.911 563.049 445.027C562.981 445.144 562.889 445.237 562.772 445.308C562.659 445.377 562.531 445.411 562.389 445.411ZM568.335 452.655V443.655H569.307V444.695H569.426C569.5 444.581 569.602 444.436 569.733 444.26C569.867 444.081 570.057 443.922 570.304 443.783C570.554 443.641 570.892 443.57 571.318 443.57C571.869 443.57 572.355 443.707 572.776 443.983C573.196 444.259 573.524 444.649 573.76 445.155C573.996 445.661 574.114 446.257 574.114 446.945C574.114 447.638 573.996 448.239 573.76 448.747C573.524 449.253 573.198 449.645 572.78 449.923C572.362 450.199 571.881 450.337 571.335 450.337C570.915 450.337 570.578 450.267 570.325 450.128C570.073 449.986 569.878 449.825 569.742 449.646C569.605 449.465 569.5 449.314 569.426 449.195H569.341V452.655H568.335ZM569.324 446.928C569.324 447.422 569.396 447.858 569.541 448.236C569.686 448.611 569.898 448.905 570.176 449.118C570.455 449.328 570.796 449.433 571.199 449.433C571.619 449.433 571.97 449.323 572.252 449.101C572.536 448.877 572.749 448.575 572.891 448.198C573.036 447.817 573.108 447.394 573.108 446.928C573.108 446.467 573.037 446.053 572.895 445.683C572.756 445.311 572.544 445.017 572.26 444.801C571.979 444.582 571.625 444.473 571.199 444.473C570.79 444.473 570.446 444.577 570.168 444.784C569.889 444.989 569.679 445.276 569.537 445.645C569.395 446.011 569.324 446.439 569.324 446.928ZM577.574 450.354C577.159 450.354 576.783 450.276 576.445 450.119C576.107 449.96 575.838 449.732 575.639 449.433C575.44 449.132 575.341 448.769 575.341 448.342C575.341 447.967 575.415 447.663 575.563 447.43C575.71 447.195 575.908 447.01 576.155 446.877C576.402 446.743 576.675 446.644 576.973 446.578C577.274 446.51 577.577 446.456 577.881 446.416C578.279 446.365 578.601 446.327 578.848 446.301C579.098 446.273 579.28 446.226 579.394 446.161C579.51 446.095 579.568 445.982 579.568 445.82V445.786C579.568 445.365 579.453 445.038 579.223 444.805C578.996 444.573 578.651 444.456 578.188 444.456C577.708 444.456 577.331 444.561 577.058 444.771C576.786 444.982 576.594 445.206 576.483 445.445L575.529 445.104C575.699 444.706 575.926 444.396 576.21 444.175C576.497 443.95 576.81 443.794 577.148 443.706C577.489 443.615 577.824 443.57 578.154 443.57C578.364 443.57 578.605 443.595 578.878 443.646C579.154 443.695 579.419 443.796 579.675 443.949C579.933 444.102 580.148 444.334 580.318 444.644C580.489 444.953 580.574 445.368 580.574 445.888V450.2H579.568V449.314H579.517C579.449 449.456 579.335 449.608 579.176 449.77C579.017 449.932 578.806 450.07 578.541 450.183C578.277 450.297 577.955 450.354 577.574 450.354ZM577.727 449.45C578.125 449.45 578.46 449.372 578.733 449.216C579.009 449.06 579.216 448.858 579.355 448.611C579.497 448.364 579.568 448.104 579.568 447.831V446.911C579.526 446.962 579.432 447.009 579.287 447.051C579.145 447.091 578.98 447.127 578.793 447.158C578.608 447.186 578.428 447.212 578.252 447.234C578.078 447.254 577.938 447.271 577.83 447.286C577.568 447.32 577.324 447.375 577.097 447.452C576.872 447.526 576.69 447.638 576.551 447.788C576.415 447.936 576.347 448.138 576.347 448.394C576.347 448.743 576.476 449.007 576.735 449.186C576.996 449.362 577.327 449.45 577.727 449.45ZM582.41 450.2V443.655H583.381V444.644H583.449C583.569 444.32 583.785 444.057 584.097 443.855C584.41 443.654 584.762 443.553 585.154 443.553C585.228 443.553 585.32 443.554 585.431 443.557C585.542 443.56 585.625 443.564 585.682 443.57V444.592C585.648 444.584 585.57 444.571 585.448 444.554C585.329 444.534 585.202 444.524 585.069 444.524C584.75 444.524 584.466 444.591 584.216 444.725C583.969 444.855 583.773 445.037 583.628 445.27C583.486 445.5 583.415 445.763 583.415 446.058V450.2H582.41ZM589.42 450.337C588.789 450.337 588.245 450.198 587.787 449.919C587.333 449.638 586.982 449.246 586.735 448.743C586.491 448.237 586.368 447.649 586.368 446.979C586.368 446.308 586.491 445.717 586.735 445.206C586.982 444.692 587.326 444.291 587.766 444.004C588.209 443.715 588.726 443.57 589.317 443.57C589.658 443.57 589.995 443.627 590.327 443.74C590.66 443.854 590.962 444.038 591.235 444.294C591.508 444.547 591.725 444.882 591.887 445.3C592.049 445.717 592.13 446.232 592.13 446.842V447.269H587.084V446.399H591.107C591.107 446.03 591.033 445.7 590.885 445.411C590.741 445.121 590.533 444.892 590.263 444.725C589.996 444.557 589.681 444.473 589.317 444.473C588.917 444.473 588.57 444.573 588.277 444.771C587.988 444.967 587.765 445.223 587.608 445.538C587.452 445.854 587.374 446.192 587.374 446.553V447.132C587.374 447.627 587.459 448.046 587.63 448.389C587.803 448.73 588.043 448.99 588.35 449.169C588.657 449.345 589.013 449.433 589.42 449.433C589.684 449.433 589.922 449.396 590.135 449.323C590.351 449.246 590.537 449.132 590.694 448.982C590.85 448.828 590.971 448.638 591.056 448.411L592.027 448.683C591.925 449.013 591.753 449.303 591.512 449.553C591.27 449.8 590.972 449.993 590.617 450.132C590.262 450.269 589.863 450.337 589.42 450.337ZM594.665 446.263V450.2H593.66V443.655H594.631V444.678H594.716C594.87 444.345 595.103 444.078 595.415 443.877C595.728 443.672 596.131 443.57 596.625 443.57C597.069 443.57 597.456 443.661 597.789 443.842C598.121 444.021 598.38 444.294 598.564 444.661C598.749 445.024 598.841 445.484 598.841 446.041V450.2H597.836V446.109C597.836 445.595 597.702 445.195 597.435 444.908C597.168 444.618 596.802 444.473 596.336 444.473C596.015 444.473 595.728 444.543 595.475 444.682C595.225 444.821 595.027 445.024 594.883 445.291C594.738 445.558 594.665 445.882 594.665 446.263ZM603.526 443.655V444.507H600.134V443.655H603.526ZM601.122 442.087H602.128V448.325C602.128 448.609 602.169 448.823 602.252 448.965C602.337 449.104 602.445 449.198 602.575 449.246C602.709 449.291 602.85 449.314 602.997 449.314C603.108 449.314 603.199 449.308 603.27 449.297C603.341 449.283 603.398 449.271 603.44 449.263L603.645 450.166C603.577 450.192 603.482 450.217 603.36 450.243C603.237 450.271 603.083 450.286 602.895 450.286C602.611 450.286 602.333 450.225 602.06 450.102C601.79 449.98 601.565 449.794 601.387 449.544C601.21 449.294 601.122 448.979 601.122 448.598V442.087ZM605.771 450.269C605.561 450.269 605.381 450.193 605.23 450.043C605.08 449.892 605.004 449.712 605.004 449.502C605.004 449.291 605.08 449.111 605.23 448.96C605.381 448.81 605.561 448.734 605.771 448.734C605.982 448.734 606.162 448.81 606.313 448.96C606.463 449.111 606.538 449.291 606.538 449.502C606.538 449.641 606.503 449.769 606.432 449.885C606.364 450.002 606.271 450.095 606.155 450.166C606.041 450.234 605.913 450.269 605.771 450.269ZM625.002 446.502V447.03C624.527 447.03 624.195 447.129 624.005 447.328C623.817 447.527 623.724 447.859 623.724 448.325V449.689C623.724 450.081 623.685 450.421 623.608 450.707C623.535 450.994 623.412 451.232 623.242 451.419C623.072 451.607 622.844 451.746 622.56 451.837C622.276 451.928 621.925 451.973 621.508 451.973V451.138C621.837 451.138 622.096 451.085 622.283 450.98C622.474 450.878 622.607 450.72 622.684 450.507C622.763 450.294 622.803 450.021 622.803 449.689V447.984C622.803 447.763 622.831 447.561 622.888 447.379C622.948 447.198 623.056 447.041 623.212 446.911C623.368 446.78 623.59 446.679 623.877 446.608C624.167 446.537 624.542 446.502 625.002 446.502ZM621.508 441.064C621.925 441.064 622.276 441.109 622.56 441.2C622.844 441.291 623.072 441.43 623.242 441.618C623.412 441.805 623.535 442.043 623.608 442.33C623.685 442.617 623.724 442.956 623.724 443.348V444.712C623.724 445.178 623.817 445.51 624.005 445.709C624.195 445.908 624.527 446.007 625.002 446.007V446.536C624.542 446.536 624.167 446.5 623.877 446.429C623.59 446.358 623.368 446.257 623.212 446.127C623.056 445.996 622.948 445.84 622.888 445.658C622.831 445.476 622.803 445.274 622.803 445.053V443.348C622.803 443.016 622.763 442.743 622.684 442.53C622.607 442.314 622.474 442.155 622.283 442.053C622.096 441.95 621.837 441.899 621.508 441.899V441.064ZM625.002 446.007V447.03H623.996V446.007H625.002ZM632.725 446.502V447.03C632.25 447.03 631.918 447.129 631.727 447.328C631.54 447.527 631.446 447.859 631.446 448.325V449.689C631.446 450.081 631.408 450.421 631.331 450.707C631.257 450.994 631.135 451.232 630.965 451.419C630.794 451.607 630.567 451.746 630.283 451.837C629.999 451.928 629.648 451.973 629.23 451.973V451.138C629.56 451.138 629.818 451.085 630.006 450.98C630.196 450.878 630.33 450.72 630.406 450.507C630.486 450.294 630.526 450.021 630.526 449.689V447.984C630.526 447.763 630.554 447.561 630.611 447.379C630.671 447.198 630.779 447.041 630.935 446.911C631.091 446.78 631.313 446.679 631.6 446.608C631.889 446.537 632.264 446.502 632.725 446.502ZM629.23 441.064C629.648 441.064 629.999 441.109 630.283 441.2C630.567 441.291 630.794 441.43 630.965 441.618C631.135 441.805 631.257 442.043 631.331 442.33C631.408 442.617 631.446 442.956 631.446 443.348V444.712C631.446 445.178 631.54 445.51 631.727 445.709C631.918 445.908 632.25 446.007 632.725 446.007V446.536C632.264 446.536 631.889 446.5 631.6 446.429C631.313 446.358 631.091 446.257 630.935 446.127C630.779 445.996 630.671 445.84 630.611 445.658C630.554 445.476 630.526 445.274 630.526 445.053V443.348C630.526 443.016 630.486 442.743 630.406 442.53C630.33 442.314 630.196 442.155 630.006 442.053C629.818 441.95 629.56 441.899 629.23 441.899V441.064ZM632.725 446.007V447.03H631.719V446.007H632.725ZM636.237 446.519C636.237 447.592 636.096 448.581 635.815 449.484C635.537 450.385 635.138 451.215 634.618 451.973H633.731C633.936 451.692 634.126 451.345 634.302 450.933C634.481 450.524 634.638 450.075 634.771 449.587C634.905 449.095 635.008 448.588 635.082 448.065C635.159 447.54 635.197 447.024 635.197 446.519C635.197 445.842 635.132 445.156 635.001 444.46C634.871 443.764 634.694 443.118 634.473 442.521C634.251 441.925 634.004 441.439 633.731 441.064H634.618C635.138 441.823 635.537 442.654 635.815 443.557C636.096 444.457 636.237 445.445 636.237 446.519Z" fill="#B5B9C9"/>
<path d="M503.361 450.2L501.367 443.655H502.424L503.839 448.666H503.907L505.304 443.655H506.378L507.759 448.649H507.827L509.242 443.655H510.299L508.304 450.2H507.316L505.884 445.172H505.782L504.35 450.2H503.361ZM512.634 446.263V450.2H511.628V441.473H512.634V444.678H512.719C512.873 444.34 513.103 444.071 513.41 443.872C513.719 443.671 514.131 443.57 514.645 443.57C515.091 443.57 515.482 443.659 515.817 443.838C516.152 444.014 516.412 444.286 516.597 444.652C516.785 445.016 516.878 445.479 516.878 446.041V450.2H515.873V446.109C515.873 445.59 515.738 445.188 515.468 444.904C515.201 444.617 514.83 444.473 514.356 444.473C514.026 444.473 513.731 444.543 513.469 444.682C513.211 444.821 513.006 445.024 512.856 445.291C512.708 445.558 512.634 445.882 512.634 446.263ZM521.463 450.337C520.832 450.337 520.288 450.198 519.83 449.919C519.376 449.638 519.025 449.246 518.778 448.743C518.534 448.237 518.411 447.649 518.411 446.979C518.411 446.308 518.534 445.717 518.778 445.206C519.025 444.692 519.369 444.291 519.809 444.004C520.252 443.715 520.769 443.57 521.36 443.57C521.701 443.57 522.038 443.627 522.37 443.74C522.703 443.854 523.005 444.038 523.278 444.294C523.551 444.547 523.768 444.882 523.93 445.3C524.092 445.717 524.173 446.232 524.173 446.842V447.269H519.127V446.399H523.15C523.15 446.03 523.076 445.7 522.928 445.411C522.784 445.121 522.576 444.892 522.306 444.725C522.039 444.557 521.724 444.473 521.36 444.473C520.96 444.473 520.613 444.573 520.32 444.771C520.031 444.967 519.808 445.223 519.651 445.538C519.495 445.854 519.417 446.192 519.417 446.553V447.132C519.417 447.627 519.502 448.046 519.673 448.389C519.846 448.73 520.086 448.99 520.393 449.169C520.7 449.345 521.056 449.433 521.463 449.433C521.727 449.433 521.965 449.396 522.178 449.323C522.394 449.246 522.58 449.132 522.737 448.982C522.893 448.828 523.014 448.638 523.099 448.411L524.07 448.683C523.968 449.013 523.796 449.303 523.555 449.553C523.313 449.8 523.015 449.993 522.66 450.132C522.305 450.269 521.906 450.337 521.463 450.337ZM525.703 450.2V443.655H526.674V444.644H526.742C526.862 444.32 527.078 444.057 527.39 443.855C527.703 443.654 528.055 443.553 528.447 443.553C528.521 443.553 528.613 443.554 528.724 443.557C528.835 443.56 528.918 443.564 528.975 443.57V444.592C528.941 444.584 528.863 444.571 528.741 444.554C528.622 444.534 528.495 444.524 528.362 444.524C528.043 444.524 527.759 444.591 527.509 444.725C527.262 444.855 527.066 445.037 526.921 445.27C526.779 445.5 526.708 445.763 526.708 446.058V450.2H525.703ZM532.713 450.337C532.082 450.337 531.538 450.198 531.08 449.919C530.626 449.638 530.275 449.246 530.028 448.743C529.784 448.237 529.661 447.649 529.661 446.979C529.661 446.308 529.784 445.717 530.028 445.206C530.275 444.692 530.619 444.291 531.059 444.004C531.502 443.715 532.019 443.57 532.61 443.57C532.951 443.57 533.288 443.627 533.62 443.74C533.953 443.854 534.255 444.038 534.528 444.294C534.801 444.547 535.018 444.882 535.18 445.3C535.342 445.717 535.423 446.232 535.423 446.842V447.269H530.377V446.399H534.4C534.4 446.03 534.326 445.7 534.178 445.411C534.034 445.121 533.826 444.892 533.556 444.725C533.289 444.557 532.974 444.473 532.61 444.473C532.21 444.473 531.863 444.573 531.57 444.771C531.281 444.967 531.058 445.223 530.901 445.538C530.745 445.854 530.667 446.192 530.667 446.553V447.132C530.667 447.627 530.752 448.046 530.923 448.389C531.096 448.73 531.336 448.99 531.643 449.169C531.95 449.345 532.306 449.433 532.713 449.433C532.977 449.433 533.215 449.396 533.428 449.323C533.644 449.246 533.83 449.132 533.987 448.982C534.143 448.828 534.264 448.638 534.349 448.411L535.32 448.683C535.218 449.013 535.046 449.303 534.805 449.553C534.563 449.8 534.265 449.993 533.91 450.132C533.555 450.269 533.156 450.337 532.713 450.337ZM551.355 450.2V443.655H552.361V450.2H551.355ZM551.866 442.564C551.67 442.564 551.501 442.497 551.359 442.364C551.22 442.23 551.15 442.07 551.15 441.882C551.15 441.695 551.22 441.534 551.359 441.401C551.501 441.267 551.67 441.2 551.866 441.2C552.062 441.2 552.23 441.267 552.369 441.401C552.511 441.534 552.582 441.695 552.582 441.882C552.582 442.07 552.511 442.23 552.369 442.364C552.23 442.497 552.062 442.564 551.866 442.564ZM556.674 450.337C556.129 450.337 555.647 450.199 555.23 449.923C554.812 449.645 554.485 449.253 554.249 448.747C554.014 448.239 553.896 447.638 553.896 446.945C553.896 446.257 554.014 445.661 554.249 445.155C554.485 444.649 554.813 444.259 555.234 443.983C555.654 443.707 556.14 443.57 556.691 443.57C557.117 443.57 557.454 443.641 557.701 443.783C557.951 443.922 558.141 444.081 558.272 444.26C558.406 444.436 558.509 444.581 558.583 444.695H558.668V441.473H559.674V450.2H558.703V449.195H558.583C558.509 449.314 558.404 449.465 558.268 449.646C558.132 449.825 557.937 449.986 557.684 450.128C557.431 450.267 557.095 450.337 556.674 450.337ZM556.811 449.433C557.214 449.433 557.555 449.328 557.833 449.118C558.112 448.905 558.323 448.611 558.468 448.236C558.613 447.858 558.686 447.422 558.686 446.928C558.686 446.439 558.614 446.011 558.472 445.645C558.33 445.276 558.12 444.989 557.842 444.784C557.563 444.577 557.22 444.473 556.811 444.473C556.384 444.473 556.029 444.582 555.745 444.801C555.464 445.017 555.252 445.311 555.11 445.683C554.971 446.053 554.901 446.467 554.901 446.928C554.901 447.394 554.972 447.817 555.114 448.198C555.259 448.575 555.472 448.877 555.754 449.101C556.038 449.323 556.39 449.433 556.811 449.433ZM608.343 450.2V443.655H609.349V450.2H608.343ZM608.855 442.564C608.659 442.564 608.489 442.497 608.347 442.364C608.208 442.23 608.139 442.07 608.139 441.882C608.139 441.695 608.208 441.534 608.347 441.401C608.489 441.267 608.659 441.2 608.855 441.2C609.051 441.2 609.218 441.267 609.357 441.401C609.499 441.534 609.57 441.695 609.57 441.882C609.57 442.07 609.499 442.23 609.357 442.364C609.218 442.497 609.051 442.564 608.855 442.564ZM613.662 450.337C613.117 450.337 612.635 450.199 612.218 449.923C611.8 449.645 611.474 449.253 611.238 448.747C611.002 448.239 610.884 447.638 610.884 446.945C610.884 446.257 611.002 445.661 611.238 445.155C611.474 444.649 611.802 444.259 612.222 443.983C612.643 443.707 613.128 443.57 613.679 443.57C614.106 443.57 614.442 443.641 614.689 443.783C614.939 443.922 615.13 444.081 615.26 444.26C615.394 444.436 615.498 444.581 615.572 444.695H615.657V441.473H616.662V450.2H615.691V449.195H615.572C615.498 449.314 615.393 449.465 615.256 449.646C615.12 449.825 614.925 449.986 614.672 450.128C614.42 450.267 614.083 450.337 613.662 450.337ZM613.799 449.433C614.202 449.433 614.543 449.328 614.822 449.118C615.1 448.905 615.312 448.611 615.456 448.236C615.601 447.858 615.674 447.422 615.674 446.928C615.674 446.439 615.603 446.011 615.461 445.645C615.319 445.276 615.108 444.989 614.83 444.784C614.552 444.577 614.208 444.473 613.799 444.473C613.373 444.473 613.018 444.582 612.733 444.801C612.452 445.017 612.241 445.311 612.099 445.683C611.959 446.053 611.89 446.467 611.89 446.928C611.89 447.394 611.961 447.817 612.103 448.198C612.248 448.575 612.461 448.877 612.742 449.101C613.026 449.323 613.378 449.433 613.799 449.433Z" fill="#53DBEE"/>
<defs>
<filter id="filter0_f_1084_1293" x="0.608398" y="0.32605" width="1090.7" height="891.74" filterUnits="userSpaceOnUse" color-interpolation-filters="sRGB">
<feFlood flood-opacity="0" result="BackgroundImageFix"/>
<feBlend mode="normal" in="SourceGraphic" in2="BackgroundImageFix" result="shape"/>
<feGaussianBlur stdDeviation="210.5" result="effect1_foregroundBlur_1084_1293"/>
</filter>
<filter id="filter1_bd_1084_1293" x="373.608" y="390.326" width="344.698" height="145.74" filterUnits="userSpaceOnUse" color-interpolation-filters="sRGB">
<feFlood flood-opacity="0" result="BackgroundImageFix"/>
<feGaussianBlur in="BackgroundImageFix" stdDeviation="5"/>
<feComposite in2="SourceAlpha" operator="in" result="effect1_backgroundBlur_1084_1293"/>
<feColorMatrix in="SourceAlpha" type="matrix" values="0 0 0 0 0 0 0 0 0 0 0 0 0 0 0 0 0 0 127 0" result="hardAlpha"/>
<feOffset dy="17"/>
<feGaussianBlur stdDeviation="24"/>
<feComposite in2="hardAlpha" operator="out"/>
<feColorMatrix type="matrix" values="0 0 0 0 0.474378 0 0 0 0 0.313594 0 0 0 0 0.929167 0 0 0 0.45 0"/>
<feBlend mode="normal" in2="effect1_backgroundBlur_1084_1293" result="effect2_dropShadow_1084_1293"/>
<feBlend mode="normal" in="SourceGraphic" in2="effect2_dropShadow_1084_1293" result="shape"/>
</filter>
</defs>
</svg>
