<svg width="640" height="442" viewBox="0 0 640 442" fill="none" xmlns="http://www.w3.org/2000/svg">
<g clip-path="url(#clip0_1081_1233)">
<path d="M486.651 256.872L472.364 223.007L506.23 236.236L491.943 242.586L486.651 256.872Z" fill="#7950ED" stroke="#2A3152"/>
<path d="M498.986 247.387H500.043V253.626C500.043 254.183 499.941 254.656 499.736 255.045C499.532 255.434 499.243 255.73 498.871 255.931C498.499 256.133 498.06 256.234 497.554 256.234C497.077 256.234 496.652 256.147 496.28 255.974C495.908 255.798 495.615 255.548 495.402 255.224C495.189 254.9 495.083 254.515 495.083 254.069H496.123C496.123 254.316 496.184 254.532 496.306 254.717C496.431 254.899 496.601 255.041 496.817 255.143C497.033 255.245 497.279 255.297 497.554 255.297C497.858 255.297 498.117 255.233 498.33 255.105C498.543 254.977 498.705 254.789 498.816 254.542C498.929 254.292 498.986 253.987 498.986 253.626V247.387ZM504.684 256.251C504.093 256.251 503.574 256.11 503.128 255.829C502.685 255.548 502.338 255.154 502.088 254.649C501.841 254.143 501.718 253.552 501.718 252.876C501.718 252.194 501.841 251.599 502.088 251.091C502.338 250.582 502.685 250.187 503.128 249.906C503.574 249.625 504.093 249.484 504.684 249.484C505.275 249.484 505.792 249.625 506.235 249.906C506.681 250.187 507.027 250.582 507.275 251.091C507.525 251.599 507.65 252.194 507.65 252.876C507.65 253.552 507.525 254.143 507.275 254.649C507.027 255.154 506.681 255.548 506.235 255.829C505.792 256.11 505.275 256.251 504.684 256.251ZM504.684 255.348C505.132 255.348 505.502 255.233 505.792 255.002C506.081 254.772 506.296 254.47 506.435 254.095C506.574 253.72 506.644 253.314 506.644 252.876C506.644 252.439 506.574 252.031 506.435 251.653C506.296 251.275 506.081 250.97 505.792 250.737C505.502 250.504 505.132 250.387 504.684 250.387C504.235 250.387 503.865 250.504 503.576 250.737C503.286 250.97 503.071 251.275 502.932 251.653C502.793 252.031 502.723 252.439 502.723 252.876C502.723 253.314 502.793 253.72 502.932 254.095C503.071 254.47 503.286 254.772 503.576 255.002C503.865 255.233 504.235 255.348 504.684 255.348ZM510.19 252.177V256.115H509.185V247.387H510.19V250.592H510.276C510.429 250.254 510.659 249.985 510.966 249.787C511.276 249.585 511.688 249.484 512.202 249.484C512.648 249.484 513.038 249.574 513.374 249.752C513.709 249.929 513.969 250.2 514.153 250.566C514.341 250.93 514.435 251.393 514.435 251.956V256.115H513.429V252.024C513.429 251.504 513.294 251.102 513.024 250.818C512.757 250.531 512.386 250.387 511.912 250.387C511.582 250.387 511.287 250.457 511.026 250.596C510.767 250.735 510.563 250.939 510.412 251.206C510.264 251.473 510.19 251.797 510.19 252.177ZM517.28 252.177V256.115H516.275V249.569H517.246V250.592H517.331C517.485 250.26 517.718 249.993 518.03 249.791C518.343 249.586 518.746 249.484 519.24 249.484C519.684 249.484 520.071 249.575 520.404 249.757C520.736 249.936 520.995 250.208 521.179 250.575C521.364 250.939 521.456 251.399 521.456 251.956V256.115H520.451V252.024C520.451 251.51 520.317 251.109 520.05 250.822C519.783 250.532 519.417 250.387 518.951 250.387C518.63 250.387 518.343 250.457 518.09 250.596C517.84 250.735 517.642 250.939 517.498 251.206C517.353 251.473 517.28 251.797 517.28 252.177Z" fill="#7950ED"/>
<g filter="url(#filter0_f_1081_1233)">
<path d="M222.608 199.196C222.608 185.461 233.743 174.326 247.478 174.326H446.436C460.171 174.326 471.306 185.461 471.306 199.196C471.306 212.931 460.171 224.066 446.436 224.066H247.478C233.743 224.066 222.608 212.931 222.608 199.196Z" fill="#7950ED"/>
</g>
<g filter="url(#filter1_bd_1081_1233)">
<path d="M222.608 199.196C222.608 185.461 233.743 174.326 247.478 174.326H446.436C460.171 174.326 471.306 185.461 471.306 199.196C471.306 212.931 460.171 224.066 446.436 224.066H247.478C233.743 224.066 222.608 212.931 222.608 199.196Z" fill="#7950ED"/>
</g>
<path d="M245.428 203.269C245.217 203.269 245.037 203.193 244.886 203.043C244.736 202.892 244.661 202.712 244.661 202.502C244.661 202.291 244.736 202.111 244.886 201.96C245.037 201.81 245.217 201.734 245.428 201.734C245.638 201.734 245.818 201.81 245.969 201.96C246.119 202.111 246.195 202.291 246.195 202.502C246.195 202.641 246.159 202.769 246.088 202.885C246.02 203.002 245.928 203.095 245.811 203.166C245.697 203.234 245.57 203.269 245.428 203.269ZM250.914 196.655V197.507H247.386V196.655H250.914ZM248.443 203.2V195.752C248.443 195.377 248.531 195.064 248.707 194.814C248.883 194.564 249.112 194.377 249.393 194.252C249.674 194.127 249.971 194.064 250.283 194.064C250.531 194.064 250.732 194.084 250.889 194.124C251.045 194.163 251.161 194.2 251.238 194.234L250.948 195.104C250.897 195.087 250.826 195.065 250.735 195.04C250.647 195.014 250.531 195.002 250.386 195.002C250.053 195.002 249.813 195.085 249.666 195.253C249.521 195.421 249.448 195.666 249.448 195.99V203.2H248.443ZM252.324 203.2V196.655H253.329V203.2H252.324ZM252.835 195.564C252.639 195.564 252.47 195.497 252.328 195.364C252.189 195.23 252.119 195.07 252.119 194.882C252.119 194.695 252.189 194.534 252.328 194.401C252.47 194.267 252.639 194.2 252.835 194.2C253.031 194.2 253.199 194.267 253.338 194.401C253.48 194.534 253.551 194.695 253.551 194.882C253.551 195.07 253.48 195.23 253.338 195.364C253.199 195.497 253.031 195.564 252.835 195.564ZM256.177 199.263V203.2H255.171V196.655H256.143V197.678H256.228C256.381 197.345 256.614 197.078 256.927 196.877C257.239 196.672 257.643 196.57 258.137 196.57C258.58 196.57 258.968 196.661 259.3 196.842C259.633 197.021 259.891 197.294 260.076 197.661C260.261 198.024 260.353 198.484 260.353 199.041V203.2H259.347V199.109C259.347 198.595 259.214 198.195 258.947 197.908C258.68 197.618 258.313 197.473 257.847 197.473C257.526 197.473 257.239 197.543 256.987 197.682C256.737 197.821 256.539 198.024 256.394 198.291C256.249 198.558 256.177 198.882 256.177 199.263ZM264.662 203.337C264.117 203.337 263.635 203.199 263.218 202.923C262.8 202.645 262.473 202.253 262.238 201.747C262.002 201.239 261.884 200.638 261.884 199.945C261.884 199.257 262.002 198.661 262.238 198.155C262.473 197.649 262.802 197.259 263.222 196.983C263.642 196.707 264.128 196.57 264.679 196.57C265.106 196.57 265.442 196.641 265.689 196.783C265.939 196.922 266.13 197.081 266.26 197.26C266.394 197.436 266.498 197.581 266.571 197.695H266.657V194.473H267.662V203.2H266.691V202.195H266.571C266.498 202.314 266.392 202.465 266.256 202.646C266.12 202.825 265.925 202.986 265.672 203.128C265.419 203.267 265.083 203.337 264.662 203.337ZM264.799 202.433C265.202 202.433 265.543 202.328 265.821 202.118C266.1 201.905 266.311 201.611 266.456 201.236C266.601 200.858 266.674 200.422 266.674 199.928C266.674 199.439 266.603 199.011 266.461 198.645C266.319 198.276 266.108 197.989 265.83 197.784C265.552 197.577 265.208 197.473 264.799 197.473C264.373 197.473 264.017 197.582 263.733 197.801C263.452 198.017 263.24 198.311 263.098 198.683C262.959 199.053 262.89 199.467 262.89 199.928C262.89 200.394 262.961 200.817 263.103 201.198C263.248 201.575 263.461 201.877 263.742 202.101C264.026 202.323 264.378 202.433 264.799 202.433ZM272.303 203.337C271.712 203.337 271.194 203.196 270.748 202.915C270.304 202.634 269.958 202.24 269.708 201.734C269.461 201.229 269.337 200.638 269.337 199.962C269.337 199.28 269.461 198.685 269.708 198.176C269.958 197.668 270.304 197.273 270.748 196.992C271.194 196.71 271.712 196.57 272.303 196.57C272.894 196.57 273.411 196.71 273.854 196.992C274.3 197.273 274.647 197.668 274.894 198.176C275.144 198.685 275.269 199.28 275.269 199.962C275.269 200.638 275.144 201.229 274.894 201.734C274.647 202.24 274.3 202.634 273.854 202.915C273.411 203.196 272.894 203.337 272.303 203.337ZM272.303 202.433C272.752 202.433 273.121 202.318 273.411 202.088C273.701 201.858 273.915 201.555 274.054 201.18C274.194 200.805 274.263 200.399 274.263 199.962C274.263 199.524 274.194 199.117 274.054 198.739C273.915 198.361 273.701 198.055 273.411 197.823C273.121 197.59 272.752 197.473 272.303 197.473C271.854 197.473 271.485 197.59 271.195 197.823C270.905 198.055 270.691 198.361 270.552 198.739C270.412 199.117 270.343 199.524 270.343 199.962C270.343 200.399 270.412 200.805 270.552 201.18C270.691 201.555 270.905 201.858 271.195 202.088C271.485 202.318 271.854 202.433 272.303 202.433ZM277.81 199.263V203.2H276.804V196.655H277.776V197.678H277.861C278.014 197.345 278.247 197.078 278.56 196.877C278.872 196.672 279.276 196.57 279.77 196.57C280.213 196.57 280.601 196.661 280.933 196.842C281.266 197.021 281.524 197.294 281.709 197.661C281.894 198.024 281.986 198.484 281.986 199.041V203.2H280.98V199.109C280.98 198.595 280.847 198.195 280.58 197.908C280.313 197.618 279.946 197.473 279.48 197.473C279.159 197.473 278.872 197.543 278.619 197.682C278.369 197.821 278.172 198.024 278.027 198.291C277.882 198.558 277.81 198.882 277.81 199.263ZM286.568 203.337C285.937 203.337 285.393 203.198 284.936 202.919C284.481 202.638 284.13 202.246 283.883 201.743C283.639 201.237 283.517 200.649 283.517 199.979C283.517 199.308 283.639 198.717 283.883 198.206C284.13 197.692 284.474 197.291 284.914 197.004C285.358 196.715 285.875 196.57 286.466 196.57C286.807 196.57 287.143 196.627 287.476 196.74C287.808 196.854 288.11 197.038 288.383 197.294C288.656 197.547 288.873 197.882 289.035 198.3C289.197 198.717 289.278 199.232 289.278 199.842V200.269H284.233V199.399H288.255C288.255 199.03 288.182 198.7 288.034 198.411C287.889 198.121 287.682 197.892 287.412 197.725C287.145 197.557 286.829 197.473 286.466 197.473C286.065 197.473 285.718 197.573 285.426 197.771C285.136 197.967 284.913 198.223 284.757 198.538C284.601 198.854 284.522 199.192 284.522 199.553V200.132C284.522 200.627 284.608 201.046 284.778 201.389C284.951 201.73 285.191 201.99 285.498 202.169C285.805 202.345 286.162 202.433 286.568 202.433C286.832 202.433 287.071 202.396 287.284 202.323C287.5 202.246 287.686 202.132 287.842 201.982C287.998 201.828 288.119 201.638 288.204 201.411L289.176 201.683C289.074 202.013 288.902 202.303 288.66 202.553C288.419 202.8 288.12 202.993 287.765 203.132C287.41 203.269 287.011 203.337 286.568 203.337Z" fill="white"/>
<path d="M291.166 199.519C291.166 198.445 291.305 197.457 291.584 196.557C291.865 195.654 292.265 194.823 292.785 194.064H293.672C293.467 194.345 293.275 194.692 293.096 195.104C292.92 195.513 292.765 195.963 292.632 196.455C292.498 196.943 292.393 197.449 292.316 197.972C292.243 198.494 292.206 199.01 292.206 199.519C292.206 200.195 292.271 200.881 292.402 201.577C292.532 202.273 292.709 202.919 292.93 203.516C293.152 204.112 293.399 204.598 293.672 204.973H292.785C292.265 204.215 291.865 203.385 291.584 202.484C291.305 201.581 291.166 200.592 291.166 199.519ZM294.678 199.536V199.007C295.153 199.007 295.484 198.908 295.671 198.709C295.862 198.51 295.957 198.178 295.957 197.712V196.348C295.957 195.956 295.994 195.617 296.068 195.33C296.144 195.043 296.268 194.805 296.438 194.618C296.609 194.43 296.836 194.291 297.12 194.2C297.404 194.109 297.755 194.064 298.173 194.064V194.899C297.843 194.899 297.583 194.95 297.393 195.053C297.205 195.155 297.072 195.314 296.992 195.53C296.916 195.743 296.877 196.016 296.877 196.348V198.053C296.877 198.274 296.847 198.476 296.788 198.658C296.731 198.84 296.624 198.996 296.468 199.127C296.312 199.257 296.089 199.358 295.799 199.429C295.512 199.5 295.139 199.536 294.678 199.536ZM298.173 204.973C297.755 204.973 297.404 204.928 297.12 204.837C296.836 204.746 296.609 204.607 296.438 204.419C296.268 204.232 296.144 203.994 296.068 203.707C295.994 203.421 295.957 203.081 295.957 202.689V201.325C295.957 200.859 295.862 200.527 295.671 200.328C295.484 200.129 295.153 200.03 294.678 200.03V199.502C295.139 199.502 295.512 199.537 295.799 199.608C296.089 199.679 296.312 199.78 296.468 199.911C296.624 200.041 296.731 200.198 296.788 200.379C296.847 200.561 296.877 200.763 296.877 200.984V202.689C296.877 203.021 296.916 203.294 296.992 203.507C297.072 203.72 297.205 203.878 297.393 203.98C297.583 204.085 297.843 204.138 298.173 204.138V204.973ZM294.678 200.03V199.007H295.684V200.03H294.678ZM338.685 203.269C338.475 203.269 338.295 203.193 338.144 203.043C337.994 202.892 337.918 202.712 337.918 202.502C337.918 202.291 337.994 202.111 338.144 201.96C338.295 201.81 338.475 201.734 338.685 201.734C338.896 201.734 339.076 201.81 339.227 201.96C339.377 202.111 339.452 202.291 339.452 202.502C339.452 202.641 339.417 202.769 339.346 202.885C339.278 203.002 339.185 203.095 339.069 203.166C338.955 203.234 338.827 203.269 338.685 203.269ZM338.685 198.411C338.475 198.411 338.295 198.335 338.144 198.185C337.994 198.034 337.918 197.854 337.918 197.644C337.918 197.433 337.994 197.253 338.144 197.102C338.295 196.952 338.475 196.877 338.685 196.877C338.896 196.877 339.076 196.952 339.227 197.102C339.377 197.253 339.452 197.433 339.452 197.644C339.452 197.783 339.417 197.911 339.346 198.027C339.278 198.144 339.185 198.237 339.069 198.308C338.955 198.377 338.827 198.411 338.685 198.411ZM344.155 199.536V199.007C344.629 199.007 344.96 198.908 345.148 198.709C345.338 198.51 345.433 198.178 345.433 197.712V196.348C345.433 195.956 345.47 195.617 345.544 195.33C345.621 195.043 345.744 194.805 345.915 194.618C346.085 194.43 346.313 194.291 346.597 194.2C346.881 194.109 347.232 194.064 347.649 194.064V194.899C347.32 194.899 347.06 194.95 346.869 195.053C346.682 195.155 346.548 195.314 346.469 195.53C346.392 195.743 346.354 196.016 346.354 196.348V198.053C346.354 198.274 346.324 198.476 346.264 198.658C346.207 198.84 346.101 198.996 345.945 199.127C345.788 199.257 345.565 199.358 345.276 199.429C344.989 199.5 344.615 199.536 344.155 199.536ZM347.649 204.973C347.232 204.973 346.881 204.928 346.597 204.837C346.313 204.746 346.085 204.607 345.915 204.419C345.744 204.232 345.621 203.994 345.544 203.707C345.47 203.421 345.433 203.081 345.433 202.689V201.325C345.433 200.859 345.338 200.527 345.148 200.328C344.96 200.129 344.629 200.03 344.155 200.03V199.502C344.615 199.502 344.989 199.537 345.276 199.608C345.565 199.679 345.788 199.78 345.945 199.911C346.101 200.041 346.207 200.198 346.264 200.379C346.324 200.561 346.354 200.763 346.354 200.984V202.689C346.354 203.021 346.392 203.294 346.469 203.507C346.548 203.72 346.682 203.878 346.869 203.98C347.06 204.085 347.32 204.138 347.649 204.138V204.973ZM344.155 200.03V199.007H345.161V200.03H344.155ZM363.389 203.269C363.178 203.269 362.998 203.193 362.847 203.043C362.697 202.892 362.622 202.712 362.622 202.502C362.622 202.291 362.697 202.111 362.847 201.96C362.998 201.81 363.178 201.734 363.389 201.734C363.599 201.734 363.779 201.81 363.93 201.96C364.08 202.111 364.156 202.291 364.156 202.502C364.156 202.641 364.12 202.769 364.049 202.885C363.981 203.002 363.889 203.095 363.772 203.166C363.658 203.234 363.531 203.269 363.389 203.269ZM363.389 198.411C363.178 198.411 362.998 198.335 362.847 198.185C362.697 198.034 362.622 197.854 362.622 197.644C362.622 197.433 362.697 197.253 362.847 197.102C362.998 196.952 363.178 196.877 363.389 196.877C363.599 196.877 363.779 196.952 363.93 197.102C364.08 197.253 364.156 197.433 364.156 197.644C364.156 197.783 364.12 197.911 364.049 198.027C363.981 198.144 363.889 198.237 363.772 198.308C363.658 198.377 363.531 198.411 363.389 198.411ZM369.335 205.655V196.655H370.307V197.695H370.426C370.5 197.581 370.602 197.436 370.733 197.26C370.867 197.081 371.057 196.922 371.304 196.783C371.554 196.641 371.892 196.57 372.318 196.57C372.869 196.57 373.355 196.707 373.776 196.983C374.196 197.259 374.524 197.649 374.76 198.155C374.996 198.661 375.114 199.257 375.114 199.945C375.114 200.638 374.996 201.239 374.76 201.747C374.524 202.253 374.197 202.645 373.78 202.923C373.362 203.199 372.881 203.337 372.335 203.337C371.915 203.337 371.578 203.267 371.325 203.128C371.072 202.986 370.878 202.825 370.742 202.646C370.605 202.465 370.5 202.314 370.426 202.195H370.341V205.655H369.335ZM370.324 199.928C370.324 200.422 370.396 200.858 370.541 201.236C370.686 201.611 370.898 201.905 371.176 202.118C371.455 202.328 371.796 202.433 372.199 202.433C372.619 202.433 372.97 202.323 373.251 202.101C373.536 201.877 373.749 201.575 373.891 201.198C374.036 200.817 374.108 200.394 374.108 199.928C374.108 199.467 374.037 199.053 373.895 198.683C373.756 198.311 373.544 198.017 373.26 197.801C372.979 197.582 372.625 197.473 372.199 197.473C371.79 197.473 371.446 197.577 371.168 197.784C370.889 197.989 370.679 198.276 370.537 198.645C370.395 199.011 370.324 199.439 370.324 199.928ZM378.574 203.354C378.159 203.354 377.783 203.276 377.445 203.119C377.107 202.96 376.838 202.732 376.639 202.433C376.44 202.132 376.341 201.769 376.341 201.342C376.341 200.967 376.415 200.663 376.563 200.43C376.71 200.195 376.908 200.01 377.155 199.877C377.402 199.743 377.675 199.644 377.973 199.578C378.274 199.51 378.577 199.456 378.881 199.416C379.278 199.365 379.601 199.327 379.848 199.301C380.098 199.273 380.28 199.226 380.394 199.161C380.51 199.095 380.568 198.982 380.568 198.82V198.786C380.568 198.365 380.453 198.038 380.223 197.805C379.996 197.573 379.651 197.456 379.188 197.456C378.707 197.456 378.331 197.561 378.058 197.771C377.786 197.982 377.594 198.206 377.483 198.445L376.528 198.104C376.699 197.706 376.926 197.396 377.21 197.175C377.497 196.95 377.81 196.794 378.148 196.706C378.489 196.615 378.824 196.57 379.153 196.57C379.364 196.57 379.605 196.595 379.878 196.646C380.153 196.695 380.419 196.796 380.675 196.949C380.933 197.102 381.148 197.334 381.318 197.644C381.489 197.953 381.574 198.368 381.574 198.888V203.2H380.568V202.314H380.517C380.449 202.456 380.335 202.608 380.176 202.77C380.017 202.932 379.805 203.07 379.541 203.183C379.277 203.297 378.955 203.354 378.574 203.354ZM378.727 202.45C379.125 202.45 379.46 202.372 379.733 202.216C380.009 202.06 380.216 201.858 380.355 201.611C380.497 201.364 380.568 201.104 380.568 200.831V199.911C380.526 199.962 380.432 200.009 380.287 200.051C380.145 200.091 379.98 200.127 379.793 200.158C379.608 200.186 379.428 200.212 379.251 200.234C379.078 200.254 378.938 200.271 378.83 200.286C378.568 200.32 378.324 200.375 378.097 200.452C377.872 200.526 377.69 200.638 377.551 200.788C377.415 200.936 377.347 201.138 377.347 201.394C377.347 201.743 377.476 202.007 377.734 202.186C377.996 202.362 378.327 202.45 378.727 202.45ZM383.409 203.2V196.655H384.381V197.644H384.449C384.569 197.32 384.784 197.057 385.097 196.855C385.409 196.654 385.762 196.553 386.154 196.553C386.228 196.553 386.32 196.554 386.431 196.557C386.542 196.56 386.625 196.564 386.682 196.57V197.592C386.648 197.584 386.57 197.571 386.448 197.554C386.329 197.534 386.202 197.524 386.069 197.524C385.75 197.524 385.466 197.591 385.216 197.725C384.969 197.855 384.773 198.037 384.628 198.27C384.486 198.5 384.415 198.763 384.415 199.058V203.2H383.409ZM390.419 203.337C389.789 203.337 389.245 203.198 388.787 202.919C388.333 202.638 387.982 202.246 387.735 201.743C387.49 201.237 387.368 200.649 387.368 199.979C387.368 199.308 387.49 198.717 387.735 198.206C387.982 197.692 388.326 197.291 388.766 197.004C389.209 196.715 389.726 196.57 390.317 196.57C390.658 196.57 390.995 196.627 391.327 196.74C391.659 196.854 391.962 197.038 392.235 197.294C392.508 197.547 392.725 197.882 392.887 198.3C393.049 198.717 393.13 199.232 393.13 199.842V200.269H388.084V199.399H392.107C392.107 199.03 392.033 198.7 391.885 198.411C391.74 198.121 391.533 197.892 391.263 197.725C390.996 197.557 390.681 197.473 390.317 197.473C389.917 197.473 389.57 197.573 389.277 197.771C388.988 197.967 388.765 198.223 388.608 198.538C388.452 198.854 388.374 199.192 388.374 199.553V200.132C388.374 200.627 388.459 201.046 388.63 201.389C388.803 201.73 389.043 201.99 389.35 202.169C389.657 202.345 390.013 202.433 390.419 202.433C390.684 202.433 390.922 202.396 391.135 202.323C391.351 202.246 391.537 202.132 391.694 201.982C391.85 201.828 391.971 201.638 392.056 201.411L393.027 201.683C392.925 202.013 392.753 202.303 392.512 202.553C392.27 202.8 391.972 202.993 391.617 203.132C391.262 203.269 390.863 203.337 390.419 203.337ZM395.665 199.263V203.2H394.659V196.655H395.631V197.678H395.716C395.87 197.345 396.103 197.078 396.415 196.877C396.728 196.672 397.131 196.57 397.625 196.57C398.069 196.57 398.456 196.661 398.789 196.842C399.121 197.021 399.38 197.294 399.564 197.661C399.749 198.024 399.841 198.484 399.841 199.041V203.2H398.836V199.109C398.836 198.595 398.702 198.195 398.435 197.908C398.168 197.618 397.802 197.473 397.336 197.473C397.015 197.473 396.728 197.543 396.475 197.682C396.225 197.821 396.027 198.024 395.883 198.291C395.738 198.558 395.665 198.882 395.665 199.263ZM404.526 196.655V197.507H401.134V196.655H404.526ZM402.122 195.087H403.128V201.325C403.128 201.609 403.169 201.823 403.251 201.965C403.337 202.104 403.445 202.198 403.575 202.246C403.709 202.291 403.849 202.314 403.997 202.314C404.108 202.314 404.199 202.308 404.27 202.297C404.341 202.283 404.398 202.271 404.44 202.263L404.645 203.166C404.577 203.192 404.482 203.217 404.359 203.243C404.237 203.271 404.082 203.286 403.895 203.286C403.611 203.286 403.332 203.225 403.06 203.102C402.79 202.98 402.565 202.794 402.386 202.544C402.21 202.294 402.122 201.979 402.122 201.598V195.087ZM406.771 203.269C406.561 203.269 406.381 203.193 406.23 203.043C406.08 202.892 406.004 202.712 406.004 202.502C406.004 202.291 406.08 202.111 406.23 201.96C406.381 201.81 406.561 201.734 406.771 201.734C406.982 201.734 407.162 201.81 407.313 201.96C407.463 202.111 407.538 202.291 407.538 202.502C407.538 202.641 407.503 202.769 407.432 202.885C407.364 203.002 407.271 203.095 407.155 203.166C407.041 203.234 406.913 203.269 406.771 203.269ZM426.002 199.502V200.03C425.527 200.03 425.195 200.129 425.005 200.328C424.817 200.527 424.723 200.859 424.723 201.325V202.689C424.723 203.081 424.685 203.421 424.608 203.707C424.534 203.994 424.412 204.232 424.242 204.419C424.071 204.607 423.844 204.746 423.56 204.837C423.276 204.928 422.925 204.973 422.508 204.973V204.138C422.837 204.138 423.096 204.085 423.283 203.98C423.473 203.878 423.607 203.72 423.684 203.507C423.763 203.294 423.803 203.021 423.803 202.689V200.984C423.803 200.763 423.831 200.561 423.888 200.379C423.948 200.198 424.056 200.041 424.212 199.911C424.368 199.78 424.59 199.679 424.877 199.608C425.167 199.537 425.542 199.502 426.002 199.502ZM422.508 194.064C422.925 194.064 423.276 194.109 423.56 194.2C423.844 194.291 424.071 194.43 424.242 194.618C424.412 194.805 424.534 195.043 424.608 195.33C424.685 195.617 424.723 195.956 424.723 196.348V197.712C424.723 198.178 424.817 198.51 425.005 198.709C425.195 198.908 425.527 199.007 426.002 199.007V199.536C425.542 199.536 425.167 199.5 424.877 199.429C424.59 199.358 424.368 199.257 424.212 199.127C424.056 198.996 423.948 198.84 423.888 198.658C423.831 198.476 423.803 198.274 423.803 198.053V196.348C423.803 196.016 423.763 195.743 423.684 195.53C423.607 195.314 423.473 195.155 423.283 195.053C423.096 194.95 422.837 194.899 422.508 194.899V194.064ZM426.002 199.007V200.03H424.996V199.007H426.002ZM433.724 199.502V200.03C433.25 200.03 432.918 200.129 432.727 200.328C432.54 200.527 432.446 200.859 432.446 201.325V202.689C432.446 203.081 432.408 203.421 432.331 203.707C432.257 203.994 432.135 204.232 431.965 204.419C431.794 204.607 431.567 204.746 431.283 204.837C430.999 204.928 430.648 204.973 430.23 204.973V204.138C430.56 204.138 430.818 204.085 431.006 203.98C431.196 203.878 431.33 203.72 431.406 203.507C431.486 203.294 431.526 203.021 431.526 202.689V200.984C431.526 200.763 431.554 200.561 431.611 200.379C431.671 200.198 431.778 200.041 431.935 199.911C432.091 199.78 432.313 199.679 432.599 199.608C432.889 199.537 433.264 199.502 433.724 199.502ZM430.23 194.064C430.648 194.064 430.999 194.109 431.283 194.2C431.567 194.291 431.794 194.43 431.965 194.618C432.135 194.805 432.257 195.043 432.331 195.33C432.408 195.617 432.446 195.956 432.446 196.348V197.712C432.446 198.178 432.54 198.51 432.727 198.709C432.918 198.908 433.25 199.007 433.724 199.007V199.536C433.264 199.536 432.889 199.5 432.599 199.429C432.313 199.358 432.091 199.257 431.935 199.127C431.778 198.996 431.671 198.84 431.611 198.658C431.554 198.476 431.526 198.274 431.526 198.053V196.348C431.526 196.016 431.486 195.743 431.406 195.53C431.33 195.314 431.196 195.155 431.006 195.053C430.818 194.95 430.56 194.899 430.23 194.899V194.064ZM433.724 199.007V200.03H432.719V199.007H433.724ZM437.237 199.519C437.237 200.592 437.096 201.581 436.815 202.484C436.537 203.385 436.137 204.215 435.618 204.973H434.731C434.936 204.692 435.126 204.345 435.302 203.933C435.481 203.524 435.637 203.075 435.771 202.587C435.905 202.095 436.008 201.588 436.082 201.065C436.159 200.54 436.197 200.024 436.197 199.519C436.197 198.842 436.132 198.156 436.001 197.46C435.87 196.764 435.694 196.118 435.473 195.521C435.251 194.925 435.004 194.439 434.731 194.064H435.618C436.137 194.823 436.537 195.654 436.815 196.557C437.096 197.457 437.237 198.445 437.237 199.519Z" fill="#B5B9C9"/>
<path d="M304.361 203.2L302.367 196.655H303.424L304.838 201.666H304.907L306.304 196.655H307.378L308.759 201.649H308.827L310.242 196.655H311.299L309.304 203.2H308.316L306.884 198.172H306.782L305.35 203.2H304.361ZM313.634 199.263V203.2H312.628V194.473H313.634V197.678H313.719C313.873 197.34 314.103 197.071 314.409 196.872C314.719 196.671 315.131 196.57 315.645 196.57C316.091 196.57 316.482 196.659 316.817 196.838C317.152 197.014 317.412 197.286 317.597 197.652C317.784 198.016 317.878 198.479 317.878 199.041V203.2H316.873V199.109C316.873 198.59 316.738 198.188 316.468 197.904C316.201 197.617 315.83 197.473 315.356 197.473C315.026 197.473 314.731 197.543 314.469 197.682C314.211 197.821 314.006 198.024 313.856 198.291C313.708 198.558 313.634 198.882 313.634 199.263ZM322.462 203.337C321.832 203.337 321.288 203.198 320.83 202.919C320.376 202.638 320.025 202.246 319.778 201.743C319.533 201.237 319.411 200.649 319.411 199.979C319.411 199.308 319.533 198.717 319.778 198.206C320.025 197.692 320.369 197.291 320.809 197.004C321.252 196.715 321.769 196.57 322.36 196.57C322.701 196.57 323.038 196.627 323.37 196.74C323.702 196.854 324.005 197.038 324.278 197.294C324.55 197.547 324.768 197.882 324.93 198.3C325.092 198.717 325.173 199.232 325.173 199.842V200.269H320.127V199.399H324.15C324.15 199.03 324.076 198.7 323.928 198.411C323.783 198.121 323.576 197.892 323.306 197.725C323.039 197.557 322.724 197.473 322.36 197.473C321.96 197.473 321.613 197.573 321.32 197.771C321.031 197.967 320.808 198.223 320.651 198.538C320.495 198.854 320.417 199.192 320.417 199.553V200.132C320.417 200.627 320.502 201.046 320.673 201.389C320.846 201.73 321.086 201.99 321.393 202.169C321.7 202.345 322.056 202.433 322.462 202.433C322.727 202.433 322.965 202.396 323.178 202.323C323.394 202.246 323.58 202.132 323.737 201.982C323.893 201.828 324.014 201.638 324.099 201.411L325.07 201.683C324.968 202.013 324.796 202.303 324.555 202.553C324.313 202.8 324.015 202.993 323.66 203.132C323.305 203.269 322.906 203.337 322.462 203.337ZM326.702 203.2V196.655H327.674V197.644H327.742C327.862 197.32 328.077 197.057 328.39 196.855C328.702 196.654 329.055 196.553 329.447 196.553C329.521 196.553 329.613 196.554 329.724 196.557C329.835 196.56 329.918 196.564 329.975 196.57V197.592C329.941 197.584 329.863 197.571 329.741 197.554C329.622 197.534 329.495 197.524 329.362 197.524C329.043 197.524 328.759 197.591 328.509 197.725C328.262 197.855 328.066 198.037 327.921 198.27C327.779 198.5 327.708 198.763 327.708 199.058V203.2H326.702ZM333.712 203.337C333.082 203.337 332.538 203.198 332.08 202.919C331.626 202.638 331.275 202.246 331.028 201.743C330.783 201.237 330.661 200.649 330.661 199.979C330.661 199.308 330.783 198.717 331.028 198.206C331.275 197.692 331.619 197.291 332.059 197.004C332.502 196.715 333.019 196.57 333.61 196.57C333.951 196.57 334.288 196.627 334.62 196.74C334.952 196.854 335.255 197.038 335.528 197.294C335.8 197.547 336.018 197.882 336.18 198.3C336.342 198.717 336.423 199.232 336.423 199.842V200.269H331.377V199.399H335.4C335.4 199.03 335.326 198.7 335.178 198.411C335.033 198.121 334.826 197.892 334.556 197.725C334.289 197.557 333.974 197.473 333.61 197.473C333.21 197.473 332.863 197.573 332.57 197.771C332.281 197.967 332.058 198.223 331.901 198.538C331.745 198.854 331.667 199.192 331.667 199.553V200.132C331.667 200.627 331.752 201.046 331.923 201.389C332.096 201.73 332.336 201.99 332.643 202.169C332.95 202.345 333.306 202.433 333.712 202.433C333.977 202.433 334.215 202.396 334.428 202.323C334.644 202.246 334.83 202.132 334.987 201.982C335.143 201.828 335.264 201.638 335.349 201.411L336.32 201.683C336.218 202.013 336.046 202.303 335.805 202.553C335.563 202.8 335.265 202.993 334.91 203.132C334.555 203.269 334.156 203.337 333.712 203.337ZM352.355 203.2V196.655H353.36V203.2H352.355ZM352.866 195.564C352.67 195.564 352.501 195.497 352.359 195.364C352.22 195.23 352.15 195.07 352.15 194.882C352.15 194.695 352.22 194.534 352.359 194.401C352.501 194.267 352.67 194.2 352.866 194.2C353.062 194.2 353.23 194.267 353.369 194.401C353.511 194.534 353.582 194.695 353.582 194.882C353.582 195.07 353.511 195.23 353.369 195.364C353.23 195.497 353.062 195.564 352.866 195.564ZM357.674 203.337C357.129 203.337 356.647 203.199 356.229 202.923C355.812 202.645 355.485 202.253 355.249 201.747C355.014 201.239 354.896 200.638 354.896 199.945C354.896 199.257 355.014 198.661 355.249 198.155C355.485 197.649 355.813 197.259 356.234 196.983C356.654 196.707 357.14 196.57 357.691 196.57C358.117 196.57 358.454 196.641 358.701 196.783C358.951 196.922 359.141 197.081 359.272 197.26C359.406 197.436 359.509 197.581 359.583 197.695H359.668V194.473H360.674V203.2H359.702V202.195H359.583C359.509 202.314 359.404 202.465 359.268 202.646C359.131 202.825 358.937 202.986 358.684 203.128C358.431 203.267 358.095 203.337 357.674 203.337ZM357.81 202.433C358.214 202.433 358.555 202.328 358.833 202.118C359.112 201.905 359.323 201.611 359.468 201.236C359.613 200.858 359.685 200.422 359.685 199.928C359.685 199.439 359.614 199.011 359.472 198.645C359.33 198.276 359.12 197.989 358.842 197.784C358.563 197.577 358.22 197.473 357.81 197.473C357.384 197.473 357.029 197.582 356.745 197.801C356.464 198.017 356.252 198.311 356.11 198.683C355.971 199.053 355.901 199.467 355.901 199.928C355.901 200.394 355.972 200.817 356.114 201.198C356.259 201.575 356.472 201.877 356.754 202.101C357.038 202.323 357.39 202.433 357.81 202.433ZM409.343 203.2V196.655H410.349V203.2H409.343ZM409.854 195.564C409.658 195.564 409.489 195.497 409.347 195.364C409.208 195.23 409.139 195.07 409.139 194.882C409.139 194.695 409.208 194.534 409.347 194.401C409.489 194.267 409.658 194.2 409.854 194.2C410.05 194.2 410.218 194.267 410.357 194.401C410.499 194.534 410.57 194.695 410.57 194.882C410.57 195.07 410.499 195.23 410.357 195.364C410.218 195.497 410.05 195.564 409.854 195.564ZM414.662 203.337C414.117 203.337 413.635 203.199 413.218 202.923C412.8 202.645 412.473 202.253 412.238 201.747C412.002 201.239 411.884 200.638 411.884 199.945C411.884 199.257 412.002 198.661 412.238 198.155C412.473 197.649 412.802 197.259 413.222 196.983C413.642 196.707 414.128 196.57 414.679 196.57C415.106 196.57 415.442 196.641 415.689 196.783C415.939 196.922 416.13 197.081 416.26 197.26C416.394 197.436 416.498 197.581 416.571 197.695H416.657V194.473H417.662V203.2H416.691V202.195H416.571C416.498 202.314 416.392 202.465 416.256 202.646C416.12 202.825 415.925 202.986 415.672 203.128C415.419 203.267 415.083 203.337 414.662 203.337ZM414.799 202.433C415.202 202.433 415.543 202.328 415.821 202.118C416.1 201.905 416.311 201.611 416.456 201.236C416.601 200.858 416.674 200.422 416.674 199.928C416.674 199.439 416.603 199.011 416.461 198.645C416.319 198.276 416.108 197.989 415.83 197.784C415.552 197.577 415.208 197.473 414.799 197.473C414.373 197.473 414.017 197.582 413.733 197.801C413.452 198.017 413.24 198.311 413.098 198.683C412.959 199.053 412.89 199.467 412.89 199.928C412.89 200.394 412.961 200.817 413.103 201.198C413.248 201.575 413.461 201.877 413.742 202.101C414.026 202.323 414.378 202.433 414.799 202.433Z" fill="#53DBEE"/>
</g>
<defs>
<filter id="filter0_f_1081_1233" x="-198.392" y="-246.674" width="1090.7" height="891.74" filterUnits="userSpaceOnUse" color-interpolation-filters="sRGB">
<feFlood flood-opacity="0" result="BackgroundImageFix"/>
<feBlend mode="normal" in="SourceGraphic" in2="BackgroundImageFix" result="shape"/>
<feGaussianBlur stdDeviation="210.5" result="effect1_foregroundBlur_1081_1233"/>
</filter>
<filter id="filter1_bd_1081_1233" x="174.608" y="143.326" width="344.698" height="145.74" filterUnits="userSpaceOnUse" color-interpolation-filters="sRGB">
<feFlood flood-opacity="0" result="BackgroundImageFix"/>
<feGaussianBlur in="BackgroundImageFix" stdDeviation="5"/>
<feComposite in2="SourceAlpha" operator="in" result="effect1_backgroundBlur_1081_1233"/>
<feColorMatrix in="SourceAlpha" type="matrix" values="0 0 0 0 0 0 0 0 0 0 0 0 0 0 0 0 0 0 127 0" result="hardAlpha"/>
<feOffset dy="17"/>
<feGaussianBlur stdDeviation="24"/>
<feComposite in2="hardAlpha" operator="out"/>
<feColorMatrix type="matrix" values="0 0 0 0 0.474378 0 0 0 0 0.313594 0 0 0 0 0.929167 0 0 0 0.45 0"/>
<feBlend mode="normal" in2="effect1_backgroundBlur_1081_1233" result="effect2_dropShadow_1081_1233"/>
<feBlend mode="normal" in="SourceGraphic" in2="effect2_dropShadow_1081_1233" result="shape"/>
</filter>
<clipPath id="clip0_1081_1233">
<rect width="640" height="442" fill="white"/>
</clipPath>
</defs>
</svg>
