<svg width="640" height="442" viewBox="0 0 640 442" fill="none" xmlns="http://www.w3.org/2000/svg">
<g filter="url(#filter0_b_1081_1195)">
<rect x="330.554" y="71.6722" width="266.689" height="50.7978" rx="25.3989" fill="#373D57" fill-opacity="0.5"/>
<rect x="331.554" y="72.6722" width="264.689" height="48.7978" rx="24.3989" stroke="white" stroke-opacity="0.5" stroke-width="2"/>
</g>
<path d="M357.668 102.848C356.799 102.848 356.031 102.728 355.363 102.49C354.695 102.254 354.134 101.906 353.68 101.446C353.225 100.985 352.881 100.422 352.649 99.7539C352.416 99.0863 352.299 98.3221 352.299 97.4613C352.299 96.6289 352.417 95.8846 352.653 95.2284C352.891 94.5721 353.237 94.0153 353.688 93.5579C354.143 93.0977 354.694 92.7468 355.342 92.5054C355.992 92.2639 356.728 92.1431 357.549 92.1431C358.347 92.1431 359.046 92.2738 359.646 92.5352C360.248 92.7937 360.751 93.1446 361.154 93.5877C361.56 94.0281 361.864 94.5238 362.066 95.075C362.271 95.6261 362.373 96.1943 362.373 96.7795C362.373 97.1914 362.353 97.609 362.313 98.0323C362.274 98.4556 362.19 98.8448 362.062 99.2C361.934 99.5522 361.737 99.8363 361.47 100.052C361.205 100.268 360.847 100.376 360.396 100.376C360.197 100.376 359.978 100.345 359.739 100.282C359.501 100.22 359.289 100.116 359.104 99.9713C358.92 99.8264 358.81 99.6318 358.776 99.3875H358.725C358.657 99.5522 358.552 99.7085 358.41 99.8562C358.271 100.004 358.087 100.122 357.86 100.21C357.636 100.298 357.362 100.336 357.038 100.325C356.668 100.311 356.343 100.228 356.062 100.078C355.781 99.9244 355.545 99.717 355.354 99.4556C355.167 99.1914 355.025 98.886 354.928 98.5394C354.835 98.19 354.788 97.8136 354.788 97.4102C354.788 97.0267 354.845 96.6758 354.958 96.3576C355.072 96.0394 355.229 95.761 355.431 95.5224C355.636 95.2838 355.874 95.0934 356.147 94.9514C356.423 94.8065 356.72 94.717 357.038 94.6829C357.322 94.6545 357.58 94.6673 357.813 94.7213C358.046 94.7724 358.238 94.8505 358.389 94.9556C358.539 95.0579 358.634 95.1715 358.674 95.2965H358.725V94.8193H359.629V98.6715C359.629 98.9102 359.695 99.1204 359.829 99.3022C359.962 99.484 360.157 99.575 360.413 99.575C360.702 99.575 360.924 99.4755 361.077 99.2767C361.234 99.0778 361.34 98.771 361.397 98.3562C361.457 97.9414 361.487 97.4102 361.487 96.7625C361.487 96.3818 361.434 96.0068 361.329 95.6375C361.227 95.2653 361.07 94.9173 360.86 94.5934C360.653 94.2696 360.39 93.984 360.072 93.7369C359.754 93.4897 359.38 93.2965 358.951 93.1573C358.525 93.0153 358.041 92.9443 357.498 92.9443C356.83 92.9443 356.232 93.048 355.704 93.2554C355.178 93.4599 354.731 93.7596 354.362 94.1545C353.995 94.5465 353.715 95.0238 353.522 95.5863C353.332 96.146 353.237 96.7823 353.237 97.4954C353.237 98.2198 353.332 98.8633 353.522 99.4258C353.715 99.9883 353.999 100.463 354.374 100.849C354.752 101.235 355.22 101.528 355.776 101.727C356.333 101.929 356.975 102.03 357.702 102.03C358.015 102.03 358.323 102 358.627 101.94C358.931 101.88 359.2 101.815 359.433 101.744C359.666 101.673 359.833 101.62 359.935 101.586L360.174 102.37C359.998 102.444 359.768 102.518 359.484 102.592C359.202 102.666 358.901 102.727 358.58 102.775C358.262 102.824 357.958 102.848 357.668 102.848ZM357.174 99.4556C357.555 99.4556 357.863 99.3789 358.099 99.2255C358.335 99.0721 358.506 98.8406 358.614 98.5309C358.722 98.2213 358.776 97.8306 358.776 97.359C358.776 96.8818 358.717 96.5096 358.597 96.2426C358.478 95.9755 358.302 95.788 358.069 95.6801C357.836 95.5721 357.549 95.5181 357.208 95.5181C356.884 95.5181 356.607 95.6034 356.377 95.7738C356.15 95.9414 355.975 96.1659 355.853 96.4471C355.734 96.7255 355.674 97.0295 355.674 97.359C355.674 97.7227 355.722 98.065 355.819 98.386C355.916 98.7042 356.073 98.9627 356.292 99.1616C356.511 99.3576 356.805 99.4556 357.174 99.4556ZM366.52 103.137C366.035 103.137 365.617 103.075 365.267 102.95C364.918 102.828 364.627 102.666 364.394 102.464C364.164 102.265 363.981 102.052 363.844 101.825L364.645 101.262C364.736 101.382 364.851 101.518 364.99 101.672C365.13 101.828 365.32 101.963 365.562 102.076C365.806 102.193 366.125 102.251 366.52 102.251C367.049 102.251 367.485 102.123 367.829 101.868C368.172 101.612 368.344 101.211 368.344 100.666V99.3363H368.259C368.185 99.4556 368.08 99.6034 367.944 99.7795C367.81 99.9528 367.617 100.108 367.364 100.244C367.114 100.378 366.776 100.444 366.35 100.444C365.821 100.444 365.347 100.319 364.927 100.069C364.509 99.8193 364.178 99.4556 363.934 98.9784C363.692 98.5011 363.571 97.9215 363.571 97.2397C363.571 96.5693 363.689 95.9855 363.925 95.4883C364.161 94.9883 364.489 94.6019 364.91 94.3292C365.33 94.0537 365.816 93.9159 366.367 93.9159C366.793 93.9159 367.131 93.9869 367.381 94.1289C367.634 94.2681 367.827 94.4272 367.961 94.6062C368.097 94.7823 368.202 94.9272 368.276 95.0409H368.378V94.0011H369.35V100.734C369.35 101.297 369.222 101.754 368.966 102.106C368.713 102.461 368.373 102.721 367.944 102.886C367.517 103.054 367.043 103.137 366.52 103.137ZM366.486 99.5409C366.89 99.5409 367.231 99.4485 367.509 99.2639C367.787 99.0792 367.999 98.8136 368.144 98.467C368.289 98.1204 368.361 97.7056 368.361 97.2227C368.361 96.7511 368.29 96.3349 368.148 95.9741C368.006 95.6133 367.796 95.3306 367.517 95.1261C367.239 94.9215 366.895 94.8193 366.486 94.8193C366.06 94.8193 365.705 94.9272 365.421 95.1431C365.14 95.359 364.928 95.6488 364.786 96.0125C364.647 96.3761 364.577 96.7795 364.577 97.2227C364.577 97.6772 364.648 98.0792 364.79 98.4287C364.935 98.7752 365.148 99.048 365.429 99.2468C365.713 99.4429 366.066 99.5409 366.486 99.5409ZM371.191 100.547V94.0011H372.162V94.9897H372.231C372.35 94.6659 372.566 94.4031 372.878 94.2014C373.191 93.9997 373.543 93.8988 373.935 93.8988C374.009 93.8988 374.101 93.9002 374.212 93.9031C374.323 93.9059 374.407 93.9102 374.463 93.9159V94.9386C374.429 94.9301 374.351 94.9173 374.229 94.9002C374.11 94.8804 373.983 94.8704 373.85 94.8704C373.532 94.8704 373.248 94.9372 372.998 95.0707C372.75 95.2014 372.554 95.3832 372.41 95.6162C372.267 95.8463 372.196 96.109 372.196 96.4045V100.547H371.191ZM377.582 100.7C377.167 100.7 376.791 100.622 376.452 100.466C376.114 100.306 375.846 100.078 375.647 99.7795C375.448 99.4784 375.349 99.1147 375.349 98.6886C375.349 98.3136 375.423 98.0096 375.57 97.7767C375.718 97.5409 375.916 97.3562 376.163 97.2227C376.41 97.0892 376.683 96.9897 376.981 96.9244C377.282 96.8562 377.585 96.8022 377.889 96.7625C378.286 96.7113 378.609 96.673 378.856 96.6474C379.106 96.619 379.288 96.5721 379.401 96.5068C379.518 96.4414 379.576 96.3278 379.576 96.1659V96.1318C379.576 95.7113 379.461 95.3846 379.231 95.1517C379.004 94.9187 378.658 94.8022 378.195 94.8022C377.715 94.8022 377.339 94.9073 377.066 95.1176C376.793 95.3278 376.602 95.5522 376.491 95.7909L375.536 95.45C375.707 95.0522 375.934 94.7426 376.218 94.521C376.505 94.2965 376.818 94.1403 377.156 94.0522C377.497 93.9613 377.832 93.9159 378.161 93.9159C378.372 93.9159 378.613 93.9414 378.886 93.9926C379.161 94.0409 379.427 94.1417 379.683 94.2951C379.941 94.4485 380.156 94.6801 380.326 94.9897C380.497 95.2994 380.582 95.7142 380.582 96.234V100.547H379.576V99.6602H379.525C379.457 99.8022 379.343 99.9542 379.184 100.116C379.025 100.278 378.813 100.416 378.549 100.53C378.285 100.643 377.962 100.7 377.582 100.7ZM377.735 99.7965C378.133 99.7965 378.468 99.7184 378.741 99.5622C379.016 99.4059 379.224 99.2042 379.363 98.9571C379.505 98.7099 379.576 98.45 379.576 98.1772V97.2568C379.533 97.3079 379.44 97.3548 379.295 97.3974C379.153 97.4372 378.988 97.4727 378.8 97.5039C378.616 97.5323 378.435 97.5579 378.259 97.5806C378.086 97.6005 377.945 97.6176 377.837 97.6318C377.576 97.6659 377.332 97.7213 377.104 97.798C376.88 97.8718 376.698 97.984 376.559 98.1346C376.423 98.2823 376.354 98.484 376.354 98.7397C376.354 99.0892 376.484 99.3534 376.742 99.5323C377.004 99.7085 377.335 99.7965 377.735 99.7965ZM382.417 103.001V94.0011H383.389V95.0409H383.508C383.582 94.9272 383.684 94.7823 383.815 94.6062C383.949 94.4272 384.139 94.2681 384.386 94.1289C384.636 93.9869 384.974 93.9159 385.4 93.9159C385.951 93.9159 386.437 94.0537 386.858 94.3292C387.278 94.6048 387.606 94.9954 387.842 95.5011C388.078 96.0068 388.196 96.6034 388.196 97.2909C388.196 97.984 388.078 98.5849 387.842 99.0934C387.606 99.5991 387.28 99.9912 386.862 100.27C386.444 100.545 385.963 100.683 385.417 100.683C384.997 100.683 384.66 100.613 384.407 100.474C384.155 100.332 383.96 100.172 383.824 99.9926C383.687 99.8108 383.582 99.6602 383.508 99.5409H383.423V103.001H382.417ZM383.406 97.2738C383.406 97.7681 383.478 98.2042 383.623 98.5821C383.768 98.9571 383.98 99.2511 384.258 99.4642C384.537 99.6744 384.878 99.7795 385.281 99.7795C385.701 99.7795 386.052 99.6687 386.334 99.4471C386.618 99.2227 386.831 98.9215 386.973 98.5437C387.118 98.163 387.19 97.7397 387.19 97.2738C387.19 96.8136 387.119 96.3988 386.977 96.0295C386.838 95.6573 386.626 95.3633 386.342 95.1474C386.061 94.9287 385.707 94.8193 385.281 94.8193C384.872 94.8193 384.528 94.923 384.25 95.1304C383.971 95.3349 383.761 95.6218 383.619 95.9912C383.477 96.3576 383.406 96.7852 383.406 97.2738ZM390.736 96.609V100.547H389.73V91.8193H390.736V95.0238H390.821C390.974 94.6858 391.204 94.4173 391.511 94.2184C391.821 94.0167 392.233 93.9159 392.747 93.9159C393.193 93.9159 393.584 94.0054 393.919 94.1843C394.254 94.3605 394.514 94.6318 394.699 94.9983C394.886 95.3619 394.98 95.825 394.98 96.3875V100.547H393.974V96.4556C393.974 95.9358 393.839 95.5338 393.569 95.2497C393.302 94.9627 392.932 94.8193 392.457 94.8193C392.128 94.8193 391.832 94.8889 391.571 95.0281C391.312 95.1673 391.108 95.3704 390.957 95.6375C390.809 95.9045 390.736 96.2284 390.736 96.609ZM401.286 103.001V99.5409H401.2C401.126 99.6602 401.021 99.8108 400.885 99.9926C400.749 100.172 400.554 100.332 400.301 100.474C400.048 100.613 399.712 100.683 399.291 100.683C398.746 100.683 398.264 100.545 397.847 100.27C397.429 99.9912 397.102 99.5991 396.867 99.0934C396.631 98.5849 396.513 97.984 396.513 97.2909C396.513 96.6034 396.631 96.0068 396.867 95.5011C397.102 94.9954 397.43 94.6048 397.851 94.3292C398.271 94.0537 398.757 93.9159 399.308 93.9159C399.734 93.9159 400.071 93.9869 400.318 94.1289C400.568 94.2681 400.759 94.4272 400.889 94.6062C401.023 94.7823 401.126 94.9272 401.2 95.0409H401.32V94.0011H402.291V103.001H401.286ZM399.428 99.7795C399.831 99.7795 400.172 99.6744 400.45 99.4642C400.729 99.2511 400.94 98.9571 401.085 98.5821C401.23 98.2042 401.303 97.7681 401.303 97.2738C401.303 96.7852 401.232 96.3576 401.09 95.9912C400.948 95.6218 400.737 95.3349 400.459 95.1304C400.18 94.923 399.837 94.8193 399.428 94.8193C399.001 94.8193 398.646 94.9287 398.362 95.1474C398.081 95.3633 397.869 95.6573 397.727 96.0295C397.588 96.3988 397.519 96.8136 397.519 97.2738C397.519 97.7397 397.59 98.163 397.732 98.5437C397.876 98.9215 398.09 99.2227 398.371 99.4471C398.655 99.6687 399.007 99.7795 399.428 99.7795ZM405.138 91.8193V100.547H404.132V91.8193H405.138ZM407.713 100.615C407.503 100.615 407.322 100.539 407.172 100.389C407.021 100.238 406.946 100.058 406.946 99.8477C406.946 99.6375 407.021 99.4571 407.172 99.3065C407.322 99.1559 407.503 99.0806 407.713 99.0806C407.923 99.0806 408.103 99.1559 408.254 99.3065C408.405 99.4571 408.48 99.6375 408.48 99.8477C408.48 99.9869 408.444 100.115 408.373 100.231C408.305 100.348 408.213 100.441 408.096 100.512C407.983 100.581 407.855 100.615 407.713 100.615ZM451.025 96.8647C451.025 95.7909 451.164 94.8037 451.443 93.9031C451.724 92.9997 452.125 92.1687 452.645 91.4102H453.531C453.326 91.6914 453.135 92.038 452.956 92.45C452.78 92.859 452.625 93.3093 452.491 93.8008C452.358 94.2894 452.253 94.7951 452.176 95.3179C452.102 95.8406 452.065 96.3562 452.065 96.8647C452.065 97.5409 452.13 98.2269 452.261 98.923C452.392 99.619 452.568 100.265 452.789 100.862C453.011 101.458 453.258 101.944 453.531 102.319H452.645C452.125 101.561 451.724 100.731 451.443 99.8306C451.164 98.9272 451.025 97.9386 451.025 96.8647ZM457.163 96.8647C457.163 97.9386 457.022 98.9272 456.741 99.8306C456.462 100.731 456.063 101.561 455.543 102.319H454.657C454.862 102.038 455.052 101.691 455.228 101.28C455.407 100.87 455.563 100.422 455.697 99.9329C455.83 99.4414 455.934 98.9343 456.008 98.4116C456.085 97.886 456.123 97.3704 456.123 96.8647C456.123 96.1886 456.058 95.5025 455.927 94.8065C455.796 94.1105 455.62 93.4642 455.399 92.8676C455.177 92.271 454.93 91.7852 454.657 91.4102H455.543C456.063 92.1687 456.462 92.9997 456.741 93.9031C457.022 94.8037 457.163 95.7909 457.163 96.8647ZM462.738 103.001V94.0011H463.709V95.0409H463.829C463.902 94.9272 464.005 94.7823 464.135 94.6062C464.269 94.4272 464.459 94.2681 464.706 94.1289C464.956 93.9869 465.294 93.9159 465.721 93.9159C466.272 93.9159 466.758 94.0537 467.178 94.3292C467.598 94.6048 467.927 94.9954 468.162 95.5011C468.398 96.0068 468.516 96.6034 468.516 97.2909C468.516 97.984 468.398 98.5849 468.162 99.0934C467.927 99.5991 467.6 99.9912 467.182 100.27C466.765 100.545 466.283 100.683 465.738 100.683C465.317 100.683 464.981 100.613 464.728 100.474C464.475 100.332 464.28 100.172 464.144 99.9926C464.008 99.8108 463.902 99.6602 463.829 99.5409H463.743V103.001H462.738ZM463.726 97.2738C463.726 97.7681 463.799 98.2042 463.944 98.5821C464.088 98.9571 464.3 99.2511 464.579 99.4642C464.857 99.6744 465.198 99.7795 465.601 99.7795C466.022 99.7795 466.373 99.6687 466.654 99.4471C466.938 99.2227 467.151 98.9215 467.293 98.5437C467.438 98.163 467.51 97.7397 467.51 97.2738C467.51 96.8136 467.439 96.3988 467.297 96.0295C467.158 95.6573 466.946 95.3633 466.662 95.1474C466.381 94.9287 466.027 94.8193 465.601 94.8193C465.192 94.8193 464.848 94.923 464.57 95.1304C464.292 95.3349 464.081 95.6218 463.939 95.9912C463.797 96.3576 463.726 96.7852 463.726 97.2738ZM471.976 100.7C471.562 100.7 471.185 100.622 470.847 100.466C470.509 100.306 470.24 100.078 470.042 99.7795C469.843 99.4784 469.743 99.1147 469.743 98.6886C469.743 98.3136 469.817 98.0096 469.965 97.7767C470.113 97.5409 470.31 97.3562 470.557 97.2227C470.804 97.0892 471.077 96.9897 471.375 96.9244C471.677 96.8562 471.979 96.8022 472.283 96.7625C472.681 96.7113 473.003 96.673 473.25 96.6474C473.5 96.619 473.682 96.5721 473.796 96.5068C473.912 96.4414 473.971 96.3278 473.971 96.1659V96.1318C473.971 95.7113 473.856 95.3846 473.625 95.1517C473.398 94.9187 473.053 94.8022 472.59 94.8022C472.11 94.8022 471.733 94.9073 471.461 95.1176C471.188 95.3278 470.996 95.5522 470.885 95.7909L469.931 95.45C470.101 95.0522 470.329 94.7426 470.613 94.521C470.9 94.2965 471.212 94.1403 471.55 94.0522C471.891 93.9613 472.226 93.9159 472.556 93.9159C472.766 93.9159 473.008 93.9414 473.28 93.9926C473.556 94.0409 473.821 94.1417 474.077 94.2951C474.336 94.4485 474.55 94.6801 474.721 94.9897C474.891 95.2994 474.976 95.7142 474.976 96.234V100.547H473.971V99.6602H473.919C473.851 99.8022 473.738 99.9542 473.579 100.116C473.419 100.278 473.208 100.416 472.944 100.53C472.679 100.643 472.357 100.7 471.976 100.7ZM472.13 99.7965C472.527 99.7965 472.863 99.7184 473.135 99.5622C473.411 99.4059 473.618 99.2042 473.758 98.9571C473.9 98.7099 473.971 98.45 473.971 98.1772V97.2568C473.928 97.3079 473.834 97.3548 473.689 97.3974C473.547 97.4372 473.383 97.4727 473.195 97.5039C473.01 97.5323 472.83 97.5579 472.654 97.5806C472.481 97.6005 472.34 97.6176 472.232 97.6318C471.971 97.6659 471.726 97.7213 471.499 97.798C471.275 97.8718 471.093 97.984 470.954 98.1346C470.817 98.2823 470.749 98.484 470.749 98.7397C470.749 99.0892 470.878 99.3534 471.137 99.5323C471.398 99.7085 471.729 99.7965 472.13 99.7965ZM476.812 100.547V94.0011H477.783V94.9897H477.852C477.971 94.6659 478.187 94.4031 478.499 94.2014C478.812 93.9997 479.164 93.8988 479.556 93.8988C479.63 93.8988 479.722 93.9002 479.833 93.9031C479.944 93.9059 480.028 93.9102 480.085 93.9159V94.9386C480.05 94.9301 479.972 94.9173 479.85 94.9002C479.731 94.8804 479.604 94.8704 479.471 94.8704C479.153 94.8704 478.869 94.9372 478.619 95.0707C478.372 95.2014 478.175 95.3832 478.031 95.6162C477.889 95.8463 477.818 96.109 477.818 96.4045V100.547H476.812ZM483.822 100.683C483.191 100.683 482.647 100.544 482.19 100.265C481.735 99.984 481.384 99.592 481.137 99.0892C480.893 98.5835 480.771 97.9954 480.771 97.325C480.771 96.6545 480.893 96.0636 481.137 95.5522C481.384 95.038 481.728 94.6375 482.168 94.3505C482.612 94.0608 483.129 93.9159 483.72 93.9159C484.06 93.9159 484.397 93.9727 484.729 94.0863C485.062 94.2 485.364 94.3846 485.637 94.6403C485.91 94.8931 486.127 95.2284 486.289 95.646C486.451 96.0636 486.532 96.5778 486.532 97.1886V97.6147H481.487V96.7454H485.509C485.509 96.3761 485.435 96.0465 485.288 95.7568C485.143 95.467 484.935 95.2383 484.666 95.0707C484.399 94.9031 484.083 94.8193 483.72 94.8193C483.319 94.8193 482.972 94.9187 482.68 95.1176C482.39 95.3136 482.167 95.5693 482.011 95.8846C481.854 96.2 481.776 96.538 481.776 96.8988V97.4784C481.776 97.9727 481.862 98.3917 482.032 98.7355C482.205 99.0764 482.445 99.3363 482.752 99.5153C483.059 99.6914 483.416 99.7795 483.822 99.7795C484.086 99.7795 484.325 99.7426 484.538 99.6687C484.754 99.592 484.94 99.4784 485.096 99.3278C485.252 99.1744 485.373 98.984 485.458 98.7568L486.43 99.0295C486.327 99.359 486.156 99.6488 485.914 99.8988C485.673 100.146 485.374 100.339 485.019 100.478C484.664 100.615 484.265 100.683 483.822 100.683ZM489.068 96.609V100.547H488.062V94.0011H489.033V95.0238H489.119C489.272 94.6914 489.505 94.4244 489.818 94.2227C490.13 94.0181 490.533 93.9159 491.028 93.9159C491.471 93.9159 491.859 94.0068 492.191 94.1886C492.524 94.3676 492.782 94.6403 492.967 95.0068C493.151 95.3704 493.244 95.8306 493.244 96.3875V100.547H492.238V96.4556C492.238 95.9414 492.104 95.5409 491.837 95.2539C491.57 94.9642 491.204 94.8193 490.738 94.8193C490.417 94.8193 490.13 94.8889 489.877 95.0281C489.627 95.1673 489.43 95.3704 489.285 95.6375C489.14 95.9045 489.068 96.2284 489.068 96.609ZM497.928 94.0011V94.8534H494.536V94.0011H497.928ZM495.525 92.4329H496.53V98.6715C496.53 98.9556 496.571 99.1687 496.654 99.3108C496.739 99.45 496.847 99.5437 496.978 99.592C497.111 99.6375 497.252 99.6602 497.4 99.6602C497.51 99.6602 497.601 99.6545 497.672 99.6431C497.743 99.6289 497.8 99.6176 497.843 99.609L498.047 100.512C497.979 100.538 497.884 100.564 497.762 100.589C497.64 100.618 497.485 100.632 497.297 100.632C497.013 100.632 496.735 100.571 496.462 100.449C496.192 100.326 495.968 100.14 495.789 99.8903C495.613 99.6403 495.525 99.325 495.525 98.9443V92.4329ZM500.174 100.615C499.963 100.615 499.783 100.539 499.633 100.389C499.482 100.238 499.407 100.058 499.407 99.8477C499.407 99.6375 499.482 99.4571 499.633 99.3065C499.783 99.1559 499.963 99.0806 500.174 99.0806C500.384 99.0806 500.564 99.1559 500.715 99.3065C500.865 99.4571 500.941 99.6375 500.941 99.8477C500.941 99.9869 500.905 100.115 500.834 100.231C500.766 100.348 500.674 100.441 500.557 100.512C500.444 100.581 500.316 100.615 500.174 100.615ZM500.174 95.7568C499.963 95.7568 499.783 95.6815 499.633 95.5309C499.482 95.3804 499.407 95.2 499.407 94.9897C499.407 94.7795 499.482 94.5991 499.633 94.4485C499.783 94.298 499.963 94.2227 500.174 94.2227C500.384 94.2227 500.564 94.298 500.715 94.4485C500.865 94.5991 500.941 94.7795 500.941 94.9897C500.941 95.1289 500.905 95.2568 500.834 95.3733C500.766 95.4897 500.674 95.5835 500.557 95.6545C500.444 95.7227 500.316 95.7568 500.174 95.7568ZM513.28 94.5465H512.223C512.16 94.2426 512.051 93.9755 511.895 93.7454C511.741 93.5153 511.554 93.3221 511.332 93.1659C511.113 93.0068 510.87 92.8875 510.603 92.8079C510.336 92.7284 510.058 92.6886 509.768 92.6886C509.24 92.6886 508.761 92.8221 508.332 93.0892C507.906 93.3562 507.566 93.7497 507.314 94.2696C507.064 94.7894 506.939 95.4272 506.939 96.1829C506.939 96.9386 507.064 97.5764 507.314 98.0963C507.566 98.6162 507.906 99.0096 508.332 99.2767C508.761 99.5437 509.24 99.6772 509.768 99.6772C510.058 99.6772 510.336 99.6375 510.603 99.5579C510.87 99.4784 511.113 99.3605 511.332 99.2042C511.554 99.0451 511.741 98.8505 511.895 98.6204C512.051 98.3875 512.16 98.1204 512.223 97.8193H513.28C513.2 98.2653 513.055 98.6644 512.845 99.0167C512.635 99.369 512.373 99.6687 512.061 99.9159C511.748 100.16 511.397 100.346 511.008 100.474C510.622 100.602 510.209 100.666 509.768 100.666C509.024 100.666 508.362 100.484 507.782 100.12C507.203 99.7568 506.747 99.2397 506.414 98.5693C506.082 97.8988 505.916 97.1034 505.916 96.1829C505.916 95.2625 506.082 94.467 506.414 93.7965C506.747 93.1261 507.203 92.609 507.782 92.2454C508.362 91.8818 509.024 91.7 509.768 91.7C510.209 91.7 510.622 91.7639 511.008 91.8917C511.397 92.0196 511.748 92.2071 512.061 92.4542C512.373 92.6985 512.635 92.9968 512.845 93.3491C513.055 93.6985 513.2 94.0977 513.28 94.5465ZM518.976 97.8704V94.0011H519.982V100.547H518.976V99.4386H518.908C518.754 99.771 518.516 100.054 518.192 100.287C517.868 100.517 517.459 100.632 516.965 100.632C516.555 100.632 516.192 100.542 515.874 100.363C515.555 100.181 515.305 99.9088 515.124 99.5451C514.942 99.1787 514.851 98.717 514.851 98.1602V94.0011H515.857V98.092C515.857 98.5693 515.99 98.95 516.257 99.234C516.527 99.5181 516.871 99.6602 517.288 99.6602C517.538 99.6602 517.793 99.5963 518.051 99.4684C518.313 99.3406 518.531 99.1446 518.707 98.8804C518.886 98.6162 518.976 98.2795 518.976 97.8704ZM526.46 95.467L525.557 95.7227C525.5 95.5721 525.416 95.4258 525.305 95.2838C525.197 95.1389 525.049 95.0196 524.862 94.9258C524.674 94.8321 524.434 94.7852 524.142 94.7852C523.741 94.7852 523.407 94.8775 523.14 95.0622C522.876 95.244 522.744 95.4755 522.744 95.7568C522.744 96.0068 522.835 96.2042 523.017 96.3491C523.199 96.494 523.483 96.6147 523.869 96.7113L524.841 96.95C525.426 97.092 525.862 97.3093 526.149 97.6019C526.436 97.8917 526.579 98.2653 526.579 98.7227C526.579 99.0977 526.471 99.4329 526.255 99.7284C526.042 100.024 525.744 100.257 525.361 100.427C524.977 100.598 524.531 100.683 524.022 100.683C523.355 100.683 522.802 100.538 522.365 100.248C521.927 99.9585 521.65 99.5352 521.534 98.9784L522.488 98.7397C522.579 99.092 522.751 99.3562 523.004 99.5323C523.26 99.7085 523.593 99.7965 524.005 99.7965C524.474 99.7965 524.846 99.6971 525.122 99.4983C525.4 99.2965 525.539 99.0551 525.539 98.7738C525.539 98.5465 525.46 98.3562 525.301 98.2028C525.142 98.0465 524.897 97.9301 524.568 97.8534L523.477 97.5977C522.878 97.4556 522.437 97.2355 522.156 96.9372C521.878 96.636 521.738 96.2596 521.738 95.8079C521.738 95.4386 521.842 95.1119 522.049 94.8278C522.26 94.5437 522.545 94.3207 522.906 94.1588C523.27 93.9968 523.682 93.9159 524.142 93.9159C524.789 93.9159 525.298 94.0579 525.667 94.342C526.039 94.6261 526.304 95.0011 526.46 95.467ZM530.94 94.0011V94.8534H527.548V94.0011H530.94ZM528.536 92.4329H529.542V98.6715C529.542 98.9556 529.583 99.1687 529.666 99.3108C529.751 99.45 529.859 99.5437 529.989 99.592C530.123 99.6375 530.264 99.6602 530.411 99.6602C530.522 99.6602 530.613 99.6545 530.684 99.6431C530.755 99.6289 530.812 99.6176 530.854 99.609L531.059 100.512C530.991 100.538 530.896 100.564 530.774 100.589C530.651 100.618 530.497 100.632 530.309 100.632C530.025 100.632 529.747 100.571 529.474 100.449C529.204 100.326 528.979 100.14 528.8 99.8903C528.624 99.6403 528.536 99.325 528.536 98.9443V92.4329ZM535.041 100.683C534.45 100.683 533.932 100.542 533.486 100.261C533.043 99.9798 532.696 99.5863 532.446 99.0806C532.199 98.575 532.075 97.984 532.075 97.3079C532.075 96.6261 532.199 96.0309 532.446 95.5224C532.696 95.0139 533.043 94.619 533.486 94.3377C533.932 94.0565 534.45 93.9159 535.041 93.9159C535.632 93.9159 536.149 94.0565 536.592 94.3377C537.038 94.619 537.385 95.0139 537.632 95.5224C537.882 96.0309 538.007 96.6261 538.007 97.3079C538.007 97.984 537.882 98.575 537.632 99.0806C537.385 99.5863 537.038 99.9798 536.592 100.261C536.149 100.542 535.632 100.683 535.041 100.683ZM535.041 99.7795C535.49 99.7795 535.859 99.6644 536.149 99.4343C536.439 99.2042 536.653 98.9017 536.793 98.5267C536.932 98.1517 537.001 97.7454 537.001 97.3079C537.001 96.8704 536.932 96.4627 536.793 96.0849C536.653 95.7071 536.439 95.4017 536.149 95.1687C535.859 94.9358 535.49 94.8193 535.041 94.8193C534.592 94.8193 534.223 94.9358 533.933 95.1687C533.644 95.4017 533.429 95.7071 533.29 96.0849C533.151 96.4627 533.081 96.8704 533.081 97.3079C533.081 97.7454 533.151 98.1517 533.29 98.5267C533.429 98.9017 533.644 99.2042 533.933 99.4343C534.223 99.6644 534.592 99.7795 535.041 99.7795ZM539.542 100.547V94.0011H540.514V95.0238H540.599C540.736 94.6744 540.956 94.4031 541.26 94.2099C541.564 94.0139 541.929 93.9159 542.355 93.9159C542.787 93.9159 543.146 94.0139 543.433 94.2099C543.723 94.4031 543.949 94.6744 544.111 95.0238H544.179C544.346 94.6858 544.598 94.4173 544.933 94.2184C545.268 94.0167 545.67 93.9159 546.139 93.9159C546.724 93.9159 547.203 94.0991 547.575 94.4656C547.947 94.8292 548.133 95.396 548.133 96.1659V100.547H547.128V96.1659C547.128 95.6829 546.995 95.3377 546.731 95.1304C546.467 94.923 546.156 94.8193 545.798 94.8193C545.338 94.8193 544.981 94.9585 544.728 95.2369C544.476 95.5125 544.349 95.8619 544.349 96.2852V100.547H543.326V96.0636C543.326 95.6914 543.206 95.3917 542.964 95.1644C542.723 94.9343 542.412 94.8193 542.031 94.8193C541.77 94.8193 541.525 94.8889 541.298 95.0281C541.074 95.1673 540.892 95.3605 540.753 95.6076C540.616 95.8519 540.548 96.1346 540.548 96.4556V100.547H539.542ZM552.716 100.683C552.086 100.683 551.542 100.544 551.084 100.265C550.63 99.984 550.279 99.592 550.032 99.0892C549.787 98.5835 549.665 97.9954 549.665 97.325C549.665 96.6545 549.787 96.0636 550.032 95.5522C550.279 95.038 550.623 94.6375 551.063 94.3505C551.506 94.0608 552.023 93.9159 552.614 93.9159C552.955 93.9159 553.292 93.9727 553.624 94.0863C553.956 94.2 554.259 94.3846 554.532 94.6403C554.804 94.8931 555.022 95.2284 555.184 95.646C555.346 96.0636 555.427 96.5778 555.427 97.1886V97.6147H550.381V96.7454H554.404C554.404 96.3761 554.33 96.0465 554.182 95.7568C554.037 95.467 553.83 95.2383 553.56 95.0707C553.293 94.9031 552.978 94.8193 552.614 94.8193C552.213 94.8193 551.867 94.9187 551.574 95.1176C551.285 95.3136 551.062 95.5693 550.905 95.8846C550.749 96.2 550.671 96.538 550.671 96.8988V97.4784C550.671 97.9727 550.756 98.3917 550.927 98.7355C551.1 99.0764 551.34 99.3363 551.647 99.5153C551.954 99.6914 552.31 99.7795 552.716 99.7795C552.981 99.7795 553.219 99.7426 553.432 99.6687C553.648 99.592 553.834 99.4784 553.99 99.3278C554.147 99.1744 554.267 98.984 554.353 98.7568L555.324 99.0295C555.222 99.359 555.05 99.6488 554.809 99.8988C554.567 100.146 554.269 100.339 553.914 100.478C553.559 100.615 553.16 100.683 552.716 100.683ZM556.956 100.547V94.0011H557.928V94.9897H557.996C558.115 94.6659 558.331 94.4031 558.644 94.2014C558.956 93.9997 559.309 93.8988 559.701 93.8988C559.775 93.8988 559.867 93.9002 559.978 93.9031C560.088 93.9059 560.172 93.9102 560.229 93.9159V94.9386C560.195 94.9301 560.117 94.9173 559.995 94.9002C559.875 94.8804 559.749 94.8704 559.615 94.8704C559.297 94.8704 559.013 94.9372 558.763 95.0707C558.516 95.2014 558.32 95.3832 558.175 95.6162C558.033 95.8463 557.962 96.109 557.962 96.4045V100.547H556.956ZM562.171 99.3534L562.103 99.8136C562.055 100.137 561.981 100.484 561.881 100.853C561.785 101.223 561.684 101.571 561.579 101.897C561.474 102.224 561.387 102.484 561.319 102.677H560.552C560.589 102.495 560.637 102.255 560.697 101.957C560.756 101.659 560.816 101.325 560.876 100.956C560.938 100.589 560.989 100.214 561.029 99.8306L561.08 99.3534H562.171Z" fill="#888FAD"/>
<path d="M413.796 100.547V91.8193H416.745C417.429 91.8193 417.989 91.9429 418.424 92.19C418.861 92.4343 419.185 92.7653 419.395 93.1829C419.606 93.6005 419.711 94.0664 419.711 94.5806C419.711 95.0948 419.606 95.5622 419.395 95.9826C419.188 96.4031 418.867 96.7383 418.432 96.9883C417.998 97.2355 417.441 97.359 416.762 97.359H414.648V96.4215H416.728C417.196 96.4215 417.573 96.3406 417.857 96.1787C418.141 96.0167 418.347 95.798 418.475 95.5224C418.606 95.244 418.671 94.9301 418.671 94.5806C418.671 94.2312 418.606 93.9187 418.475 93.6431C418.347 93.3676 418.14 93.1517 417.853 92.9954C417.566 92.8363 417.185 92.7568 416.711 92.7568H414.853V100.547H413.796ZM423.203 100.7C422.788 100.7 422.412 100.622 422.074 100.466C421.736 100.306 421.467 100.078 421.268 99.7795C421.069 99.4784 420.97 99.1147 420.97 98.6886C420.97 98.3136 421.044 98.0096 421.191 97.7767C421.339 97.5409 421.537 97.3562 421.784 97.2227C422.031 97.0892 422.304 96.9897 422.602 96.9244C422.903 96.8562 423.206 96.8022 423.51 96.7625C423.907 96.7113 424.23 96.673 424.477 96.6474C424.727 96.619 424.909 96.5721 425.022 96.5068C425.139 96.4414 425.197 96.3278 425.197 96.1659V96.1318C425.197 95.7113 425.082 95.3846 424.852 95.1517C424.625 94.9187 424.28 94.8022 423.816 94.8022C423.336 94.8022 422.96 94.9073 422.687 95.1176C422.414 95.3278 422.223 95.5522 422.112 95.7909L421.157 95.45C421.328 95.0522 421.555 94.7426 421.839 94.521C422.126 94.2965 422.439 94.1403 422.777 94.0522C423.118 93.9613 423.453 93.9159 423.782 93.9159C423.993 93.9159 424.234 93.9414 424.507 93.9926C424.782 94.0409 425.048 94.1417 425.304 94.2951C425.562 94.4485 425.777 94.6801 425.947 94.9897C426.118 95.2994 426.203 95.7142 426.203 96.234V100.547H425.197V99.6602H425.146C425.078 99.8022 424.964 99.9542 424.805 100.116C424.646 100.278 424.434 100.416 424.17 100.53C423.906 100.643 423.584 100.7 423.203 100.7ZM423.356 99.7965C423.754 99.7965 424.089 99.7184 424.362 99.5622C424.637 99.4059 424.845 99.2042 424.984 98.9571C425.126 98.7099 425.197 98.45 425.197 98.1772V97.2568C425.155 97.3079 425.061 97.3548 424.916 97.3974C424.774 97.4372 424.609 97.4727 424.422 97.5039C424.237 97.5323 424.057 97.5579 423.88 97.5806C423.707 97.6005 423.566 97.6176 423.459 97.6318C423.197 97.6659 422.953 97.7213 422.726 97.798C422.501 97.8718 422.319 97.984 422.18 98.1346C422.044 98.2823 421.976 98.484 421.976 98.7397C421.976 99.0892 422.105 99.3534 422.363 99.5323C422.625 99.7085 422.956 99.7965 423.356 99.7965ZM428.038 100.547V94.0011H429.01V94.9897H429.078C429.198 94.6659 429.413 94.4031 429.726 94.2014C430.038 93.9997 430.391 93.8988 430.783 93.8988C430.857 93.8988 430.949 93.9002 431.06 93.9031C431.171 93.9059 431.254 93.9102 431.311 93.9159V94.9386C431.277 94.9301 431.199 94.9173 431.077 94.9002C430.957 94.8804 430.831 94.8704 430.698 94.8704C430.379 94.8704 430.095 94.9372 429.845 95.0707C429.598 95.2014 429.402 95.3832 429.257 95.6162C429.115 95.8463 429.044 96.109 429.044 96.4045V100.547H428.038ZM435.048 100.683C434.418 100.683 433.874 100.544 433.416 100.265C432.962 99.984 432.611 99.592 432.364 99.0892C432.119 98.5835 431.997 97.9954 431.997 97.325C431.997 96.6545 432.119 96.0636 432.364 95.5522C432.611 95.038 432.955 94.6375 433.395 94.3505C433.838 94.0608 434.355 93.9159 434.946 93.9159C435.287 93.9159 435.624 93.9727 435.956 94.0863C436.288 94.2 436.591 94.3846 436.864 94.6403C437.136 94.8931 437.354 95.2284 437.516 95.646C437.678 96.0636 437.759 96.5778 437.759 97.1886V97.6147H432.713V96.7454H436.736C436.736 96.3761 436.662 96.0465 436.514 95.7568C436.369 95.467 436.162 95.2383 435.892 95.0707C435.625 94.9031 435.31 94.8193 434.946 94.8193C434.546 94.8193 434.199 94.9187 433.906 95.1176C433.617 95.3136 433.394 95.5693 433.237 95.8846C433.081 96.2 433.003 96.538 433.003 96.8988V97.4784C433.003 97.9727 433.088 98.3917 433.259 98.7355C433.432 99.0764 433.672 99.3363 433.979 99.5153C434.286 99.6914 434.642 99.7795 435.048 99.7795C435.313 99.7795 435.551 99.7426 435.764 99.6687C435.98 99.592 436.166 99.4784 436.323 99.3278C436.479 99.1744 436.599 98.984 436.685 98.7568L437.656 99.0295C437.554 99.359 437.382 99.6488 437.141 99.8988C436.899 100.146 436.601 100.339 436.246 100.478C435.891 100.615 435.492 100.683 435.048 100.683ZM440.294 96.609V100.547H439.288V94.0011H440.26V95.0238H440.345C440.499 94.6914 440.732 94.4244 441.044 94.2227C441.357 94.0181 441.76 93.9159 442.254 93.9159C442.698 93.9159 443.085 94.0068 443.418 94.1886C443.75 94.3676 444.009 94.6403 444.193 95.0068C444.378 95.3704 444.47 95.8306 444.47 96.3875V100.547H443.465V96.4556C443.465 95.9414 443.331 95.5409 443.064 95.2539C442.797 94.9642 442.43 94.8193 441.965 94.8193C441.644 94.8193 441.357 94.8889 441.104 95.0281C440.854 95.1673 440.656 95.3704 440.511 95.6375C440.367 95.9045 440.294 96.2284 440.294 96.609ZM449.155 94.0011V94.8534H445.762V94.0011H449.155ZM446.751 92.4329H447.757V98.6715C447.757 98.9556 447.798 99.1687 447.88 99.3108C447.966 99.45 448.074 99.5437 448.204 99.592C448.338 99.6375 448.478 99.6602 448.626 99.6602C448.737 99.6602 448.828 99.6545 448.899 99.6431C448.97 99.6289 449.027 99.6176 449.069 99.609L449.274 100.512C449.206 100.538 449.111 100.564 448.988 100.589C448.866 100.618 448.711 100.632 448.524 100.632C448.24 100.632 447.961 100.571 447.689 100.449C447.419 100.326 447.194 100.14 447.015 99.8903C446.839 99.6403 446.751 99.325 446.751 98.9443V92.4329Z" fill="#7950ED"/>
<path d="M576.605 144.694L562.319 110.829L596.184 124.057L581.897 130.407L576.605 144.694Z" fill="#D9D9D9"/>
<path d="M585.957 143.936H584.849L588.054 135.209H589.145L592.349 143.936H591.241L588.633 136.59H588.565L585.957 143.936ZM586.366 140.527H590.832V141.465H586.366V140.527ZM594.578 135.209V143.936H593.572V135.209H594.578ZM599.164 144.073C598.534 144.073 597.99 143.933 597.532 143.655C597.078 143.374 596.727 142.982 596.48 142.479C596.235 141.973 596.113 141.385 596.113 140.715C596.113 140.044 596.235 139.453 596.48 138.942C596.727 138.428 597.07 138.027 597.511 137.74C597.954 137.451 598.471 137.306 599.062 137.306C599.403 137.306 599.74 137.362 600.072 137.476C600.404 137.59 600.707 137.774 600.98 138.03C601.252 138.283 601.47 138.618 601.632 139.036C601.793 139.453 601.874 139.968 601.874 140.578V141.004H596.829V140.135H600.852C600.852 139.766 600.778 139.436 600.63 139.147C600.485 138.857 600.278 138.628 600.008 138.46C599.741 138.293 599.426 138.209 599.062 138.209C598.661 138.209 598.315 138.308 598.022 138.507C597.732 138.703 597.509 138.959 597.353 139.274C597.197 139.59 597.119 139.928 597.119 140.289V140.868C597.119 141.362 597.204 141.781 597.374 142.125C597.548 142.466 597.788 142.726 598.095 142.905C598.401 143.081 598.758 143.169 599.164 143.169C599.428 143.169 599.667 143.132 599.88 143.058C600.096 142.982 600.282 142.868 600.438 142.718C600.595 142.564 600.715 142.374 600.801 142.147L601.772 142.419C601.67 142.749 601.498 143.039 601.257 143.289C601.015 143.536 600.717 143.729 600.362 143.868C600.007 144.004 599.607 144.073 599.164 144.073ZM603.978 137.391L605.547 140.067L607.115 137.391H608.274L606.16 140.664L608.274 143.936H607.115L605.547 141.397L603.978 143.936H602.819L604.899 140.664L602.819 137.391H603.978Z" fill="white"/>
<defs>
<filter id="filter0_b_1081_1195" x="323.554" y="64.6722" width="280.689" height="64.7978" filterUnits="userSpaceOnUse" color-interpolation-filters="sRGB">
<feFlood flood-opacity="0" result="BackgroundImageFix"/>
<feGaussianBlur in="BackgroundImageFix" stdDeviation="3.5"/>
<feComposite in2="SourceAlpha" operator="in" result="effect1_backgroundBlur_1081_1195"/>
<feBlend mode="normal" in="SourceGraphic" in2="effect1_backgroundBlur_1081_1195" result="shape"/>
</filter>
</defs>
</svg>
