<svg width="645" height="450" viewBox="0 0 645 450" fill="none" xmlns="http://www.w3.org/2000/svg">
<g filter="url(#filter0_b_1081_740)">
<rect x="448" y="18" width="161" height="161" rx="80.5" fill="#15192C" fill-opacity="0.5"/>
</g>
<g filter="url(#filter1_f_1081_740)">
<circle cx="529" cy="116" r="41" fill="#7950ED" fill-opacity="0.7"/>
</g>
<path d="M553.318 43.892C541.337 43.892 531.589 53.6391 531.589 65.6205V87.3489H494.341C490.912 87.3489 488.132 90.1286 488.132 93.5571V137.014C488.132 140.443 490.912 143.222 494.341 143.222H550.214C553.642 143.222 556.422 140.443 556.422 137.014V93.5571C556.422 90.1286 553.642 87.3489 550.214 87.3489H544.006V65.6205C544.006 60.4854 548.183 56.3082 553.318 56.3082C558.453 56.3082 562.63 60.4854 562.63 65.6205V81.1408C562.63 84.5693 565.41 87.3489 568.838 87.3489C572.267 87.3489 575.046 84.5693 575.046 81.1408V65.6205C575.046 53.6391 565.299 43.892 553.318 43.892ZM525.381 120.924V127.702C525.381 129.416 523.991 130.806 522.277 130.806C520.563 130.806 519.173 129.416 519.173 127.702V120.924C515.564 119.641 512.965 116.23 512.965 112.181C512.965 107.038 517.134 102.869 522.277 102.869C527.421 102.869 531.589 107.038 531.589 112.181C531.589 116.23 528.99 119.641 525.381 120.924Z" fill="#7950ED"/>
<path d="M553.318 43.892C541.337 43.892 531.589 53.6391 531.589 65.6205V87.3489H494.341C490.912 87.3489 488.132 90.1286 488.132 93.5571V137.014C488.132 140.443 490.912 143.222 494.341 143.222H550.214C553.642 143.222 556.422 140.443 556.422 137.014V93.5571C556.422 90.1286 553.642 87.3489 550.214 87.3489H544.006V65.6205C544.006 60.4854 548.183 56.3082 553.318 56.3082C558.453 56.3082 562.63 60.4854 562.63 65.6205V81.1408C562.63 84.5693 565.41 87.3489 568.838 87.3489C572.267 87.3489 575.046 84.5693 575.046 81.1408V65.6205C575.046 53.6391 565.299 43.892 553.318 43.892ZM525.381 120.924V127.702C525.381 129.416 523.991 130.806 522.277 130.806C520.563 130.806 519.173 129.416 519.173 127.702V120.924C515.564 119.641 512.965 116.23 512.965 112.181C512.965 107.038 517.134 102.869 522.277 102.869C527.421 102.869 531.589 107.038 531.589 112.181C531.589 116.23 528.99 119.641 525.381 120.924Z" fill="#7950ED"/>
<rect x="508.837" y="100.163" width="29.848" height="32.7839" fill="#7950ED"/>
<path d="M506.987 117.368V116.043L517.354 110.607V112.728L509.402 116.672L509.466 116.54V116.871L509.402 116.739L517.354 120.683V122.804L506.987 117.368ZM527.208 105.569L521.896 125.886H520.157L525.47 105.569H527.208ZM540.374 117.368L530.007 122.804V120.683L537.96 116.739L537.895 116.871V116.54L537.96 116.672L530.007 112.728V110.607L540.374 116.043V117.368Z" fill="white"/>
<circle cx="528.5" cy="98.6602" r="80" stroke="#373D57"/>
<circle cx="528.5" cy="98.6602" r="80" stroke="url(#paint0_linear_1081_740)"/>
<defs>
<filter id="filter0_b_1081_740" x="438" y="8" width="181" height="181" filterUnits="userSpaceOnUse" color-interpolation-filters="sRGB">
<feFlood flood-opacity="0" result="BackgroundImageFix"/>
<feGaussianBlur in="BackgroundImageFix" stdDeviation="5"/>
<feComposite in2="SourceAlpha" operator="in" result="effect1_backgroundBlur_1081_740"/>
<feBlend mode="normal" in="SourceGraphic" in2="effect1_backgroundBlur_1081_740" result="shape"/>
</filter>
<filter id="filter1_f_1081_740" x="413" y="0" width="232" height="232" filterUnits="userSpaceOnUse" color-interpolation-filters="sRGB">
<feFlood flood-opacity="0" result="BackgroundImageFix"/>
<feBlend mode="normal" in="SourceGraphic" in2="BackgroundImageFix" result="shape"/>
<feGaussianBlur stdDeviation="37.5" result="effect1_foregroundBlur_1081_740"/>
</filter>
<linearGradient id="paint0_linear_1081_740" x1="505.5" y1="21.6602" x2="574.5" y2="163.16" gradientUnits="userSpaceOnUse">
<stop stop-color="#7950ED" stop-opacity="0.5"/>
<stop offset="1" stop-color="#8963F4" stop-opacity="0.5"/>
</linearGradient>
</defs>
</svg>
