<svg width="640" height="442" viewBox="0 0 640 442" fill="none" xmlns="http://www.w3.org/2000/svg">
<rect x="51.5" y="45.5" width="526.027" height="386.333" rx="13.5" fill="#15192C"/>
<rect x="51.5" y="45.5" width="526.027" height="386.333" rx="13.5" stroke="#373D57"/>
<g clip-path="url(#clip0_1080_739)">
<g opacity="0.15" filter="url(#filter0_f_1080_739)">
<rect x="128" y="130" width="360" height="371" rx="10.0686" fill="#7950ED"/>
</g>
</g>
<g filter="url(#filter1_d_1080_739)">
<rect x="128" y="104" width="360" height="278" rx="10.0686" fill="#22273C"/>
<rect x="128.629" y="104.629" width="358.741" height="276.741" rx="9.43929" stroke="#373D57" stroke-width="1.25857"/>
</g>
<rect x="160.929" y="158" width="131.976" height="5.93581" rx="2.9679" fill="#373E62"/>
<rect x="160.929" y="179.766" width="86.467" height="5.93581" rx="2.9679" fill="#373E62"/>
<rect x="265.6" y="179.766" width="27.3054" height="5.93581" rx="2.9679" fill="#373E62"/>
<rect x="311.109" y="179.766" width="97.8442" height="5.93581" rx="2.9679" fill="#373E62"/>
<rect x="160.929" y="201.527" width="136.527" height="5.93581" rx="2.9679" fill="#373E62"/>
<rect x="315.66" y="201.527" width="27.3054" height="5.93581" rx="2.9679" fill="#373E62"/>
<rect x="361.168" y="201.527" width="27.3054" height="5.93581" rx="2.9679" fill="#373E62"/>
<rect x="160.929" y="223.293" width="45.5089" height="5.93581" rx="2.9679" fill="#373E62"/>
<rect x="224.641" y="223.293" width="88.7424" height="5.93581" rx="2.9679" fill="#373E62"/>
<rect x="331.587" y="223.293" width="27.3054" height="5.93581" rx="2.9679" fill="#373E62"/>
<rect x="377.096" y="223.293" width="81.9161" height="5.93581" rx="2.9679" fill="#373E62"/>
<rect x="160.929" y="245.059" width="138.802" height="5.93581" rx="2.9679" fill="#373E62"/>
<rect x="317.935" y="245.059" width="65.988" height="5.93581" rx="2.9679" fill="#373E62"/>
<rect x="402.126" y="245.059" width="27.3054" height="5.93581" rx="2.9679" fill="#373E62"/>
<rect x="160.929" y="266.824" width="45.5089" height="5.93581" rx="2.9679" fill="#373E62"/>
<rect x="224.641" y="266.824" width="79.6406" height="5.93581" rx="2.9679" fill="#373E62"/>
<rect x="322.485" y="266.824" width="27.3054" height="5.93581" rx="2.9679" fill="#373E62"/>
<rect x="160.929" y="288.59" width="134.251" height="5.93581" rx="2.9679" fill="#373E62"/>
<rect x="313.384" y="288.59" width="134.251" height="5.93581" rx="2.9679" fill="#373E62"/>
<rect x="160.929" y="310.352" width="45.5089" height="5.93581" rx="2.9679" fill="#373E62"/>
<rect x="224.641" y="310.352" width="61.4371" height="5.93581" rx="2.9679" fill="#373E62"/>
<rect x="309.791" y="310.352" width="136.527" height="5.93581" rx="2.9679" fill="#373E62"/>
<rect x="160.929" y="332.117" width="45.5089" height="5.93581" rx="2.9679" fill="#373E62"/>
<rect x="224.641" y="332.117" width="197.964" height="5.93581" rx="2.9679" fill="#373E62"/>
<rect x="160.929" y="353.879" width="111.497" height="5.93581" rx="2.9679" fill="#373E62"/>
<rect x="290.63" y="353.879" width="45.5089" height="5.93581" rx="2.9679" fill="#373E62"/>
<path d="M129.058 115.059C129.058 109.536 133.535 105.059 139.058 105.059H476.759C482.282 105.059 486.759 109.536 486.759 115.059V135.749H129.058V115.059Z" fill="#161B30"/>
<circle cx="156.044" cy="120.403" r="5.82058" fill="#2A3152"/>
<circle cx="175.094" cy="120.403" r="5.82058" fill="#2A3152"/>
<circle cx="194.143" cy="120.403" r="5.82058" fill="#2A3152"/>
<defs>
<filter id="filter0_f_1080_739" x="-72" y="-70" width="760" height="771" filterUnits="userSpaceOnUse" color-interpolation-filters="sRGB">
<feFlood flood-opacity="0" result="BackgroundImageFix"/>
<feBlend mode="normal" in="SourceGraphic" in2="BackgroundImageFix" result="shape"/>
<feGaussianBlur stdDeviation="100" result="effect1_foregroundBlur_1080_739"/>
</filter>
<filter id="filter1_d_1080_739" x="102.829" y="81.3457" width="410.343" height="328.343" filterUnits="userSpaceOnUse" color-interpolation-filters="sRGB">
<feFlood flood-opacity="0" result="BackgroundImageFix"/>
<feColorMatrix in="SourceAlpha" type="matrix" values="0 0 0 0 0 0 0 0 0 0 0 0 0 0 0 0 0 0 127 0" result="hardAlpha"/>
<feOffset dy="2.51714"/>
<feGaussianBlur stdDeviation="12.5857"/>
<feColorMatrix type="matrix" values="0 0 0 0 0.0438865 0 0 0 0 0.0438865 0 0 0 0 0.0868652 0 0 0 0.18 0"/>
<feBlend mode="normal" in2="BackgroundImageFix" result="effect1_dropShadow_1080_739"/>
<feBlend mode="normal" in="SourceGraphic" in2="effect1_dropShadow_1080_739" result="shape"/>
</filter>
<clipPath id="clip0_1080_739">
<rect x="51" y="45" width="526" height="387" rx="14" fill="white"/>
</clipPath>
</defs>
</svg>
