<svg width="710" height="540" viewBox="0 0 710 540" fill="none" xmlns="http://www.w3.org/2000/svg">
<rect x="0.880493" y="1.43335" width="529" height="499" rx="13.5" fill="#2C3249"/>
<path opacity="0.1" d="M460.88 250.559C460.88 357.145 373.581 443.559 265.88 443.559C158.18 443.559 70.8805 357.145 70.8805 250.559C70.8805 143.973 158.18 57.5593 265.88 57.5593C373.581 57.5593 460.88 143.973 460.88 250.559Z" stroke="white"/>
<g filter="url(#filter0_d_16_13884)">
<circle cx="160.38" cy="93.0593" r="50" fill="#7950ED"/>
<path d="M181.433 116.743V111.48C181.433 108.689 180.324 106.011 178.35 104.037C176.376 102.063 173.699 100.954 170.907 100.954H149.854C147.062 100.954 144.385 102.063 142.411 104.037C140.437 106.011 139.328 108.689 139.328 111.48V116.743" stroke="white" stroke-linecap="round" stroke-linejoin="round"/>
<path d="M160.38 93.0593C166.194 93.0593 170.907 88.3466 170.907 82.533C170.907 76.7195 166.194 72.0067 160.38 72.0067C154.567 72.0067 149.854 76.7195 149.854 82.533C149.854 88.3466 154.567 93.0593 160.38 93.0593Z" stroke="white" stroke-linecap="round" stroke-linejoin="round"/>
</g>
<circle cx="87.3805" cy="328.933" r="23" fill="#444B66"/>
<path d="M97.0647 339.828V337.407C97.0647 336.123 96.5546 334.891 95.6465 333.983C94.7384 333.075 93.5068 332.565 92.2226 332.565H82.5384C81.2542 332.565 80.0226 333.075 79.1145 333.983C78.2064 334.891 77.6963 336.123 77.6963 337.407V339.828" stroke="#80869D" stroke-linecap="round" stroke-linejoin="round"/>
<path d="M87.3805 328.933C90.0547 328.933 92.2226 326.765 92.2226 324.091C92.2226 321.417 90.0547 319.249 87.3805 319.249C84.7063 319.249 82.5384 321.417 82.5384 324.091C82.5384 326.765 84.7063 328.933 87.3805 328.933Z" stroke="#80869D" stroke-linecap="round" stroke-linejoin="round"/>
<circle cx="79.3805" cy="196.933" r="23" fill="#444B66"/>
<path d="M89.0647 207.828V205.407C89.0647 204.123 88.5546 202.891 87.6465 201.983C86.7384 201.075 85.5068 200.565 84.2226 200.565H74.5384C73.2542 200.565 72.0226 201.075 71.1145 201.983C70.2064 202.891 69.6963 204.123 69.6963 205.407V207.828" stroke="#80869D" stroke-linecap="round" stroke-linejoin="round"/>
<path d="M79.3805 196.933C82.0547 196.933 84.2226 194.765 84.2226 192.091C84.2226 189.417 82.0547 187.249 79.3805 187.249C76.7063 187.249 74.5384 189.417 74.5384 192.091C74.5384 194.765 76.7063 196.933 79.3805 196.933Z" stroke="#80869D" stroke-linecap="round" stroke-linejoin="round"/>
<circle cx="303.38" cy="62.9333" r="23" fill="#444B66"/>
<path d="M313.065 73.828V71.4069C313.065 70.1227 312.555 68.8911 311.646 67.983C310.738 67.075 309.507 66.5648 308.223 66.5648H298.538C297.254 66.5648 296.023 67.075 295.115 67.983C294.206 68.8911 293.696 70.1227 293.696 71.4069V73.828" stroke="#80869D" stroke-linecap="round" stroke-linejoin="round"/>
<path d="M303.38 62.9334C306.055 62.9334 308.223 60.7655 308.223 58.0913C308.223 55.417 306.055 53.2491 303.38 53.2491C300.706 53.2491 298.538 55.417 298.538 58.0913C298.538 60.7655 300.706 62.9334 303.38 62.9334Z" stroke="#80869D" stroke-linecap="round" stroke-linejoin="round"/>
<rect x="0.880493" y="1.43335" width="529" height="499" rx="13.5" stroke="#373D57"/>
<g filter="url(#filter1_d_16_13884)">
<rect x="195.649" y="225.017" width="514.351" height="314.05" rx="10.0686" fill="#15192C"/>
<rect x="237.304" y="265.017" width="384.504" height="16.6749" rx="8.33746" fill="#373D57"/>
<rect x="219.649" y="265.017" width="7.84702" height="16.6749" rx="3.92351" fill="#373D57"/>
<rect x="237.304" y="301.692" width="129.476" height="16.6749" rx="8.33746" fill="#373D57"/>
<rect x="219.649" y="301.692" width="7.84702" height="16.6749" rx="3.92351" fill="#373D57"/>
<rect x="237.304" y="338.367" width="274.646" height="16.6749" rx="8.33746" fill="#373D57"/>
<rect x="219.649" y="338.367" width="7.84702" height="16.6749" rx="3.92351" fill="#373D57"/>
<rect x="237.304" y="375.042" width="302.11" height="16.6749" rx="8.33746" fill="#373D57"/>
<rect x="219.649" y="375.042" width="7.84702" height="16.6749" rx="3.92351" fill="#373D57"/>
<rect x="237.304" y="411.717" width="143.208" height="16.6749" rx="8.33746" fill="#373D57"/>
<rect x="219.649" y="411.717" width="7.84702" height="16.6749" rx="3.92351" fill="#373D57"/>
<rect x="219.649" y="482.392" width="7.84702" height="16.6749" rx="3.92351" fill="#373D57"/>
<rect x="237.496" y="482.392" width="384.504" height="16.6749" rx="8.33746" fill="#373D57"/>
<rect x="196.149" y="225.517" width="513.351" height="313.05" rx="9.56857" stroke="#373D57"/>
</g>
<defs>
<filter id="filter0_d_16_13884" x="90.3805" y="43.0593" width="140" height="140" filterUnits="userSpaceOnUse" color-interpolation-filters="sRGB">
<feFlood flood-opacity="0" result="BackgroundImageFix"/>
<feColorMatrix in="SourceAlpha" type="matrix" values="0 0 0 0 0 0 0 0 0 0 0 0 0 0 0 0 0 0 127 0" result="hardAlpha"/>
<feOffset dy="20"/>
<feGaussianBlur stdDeviation="10"/>
<feComposite in2="hardAlpha" operator="out"/>
<feColorMatrix type="matrix" values="0 0 0 0 0 0 0 0 0 0 0 0 0 0 0 0 0 0 0.15 0"/>
<feBlend mode="normal" in2="BackgroundImageFix" result="effect1_dropShadow_16_13884"/>
<feBlend mode="normal" in="SourceGraphic" in2="effect1_dropShadow_16_13884" result="shape"/>
</filter>
<filter id="filter1_d_16_13884" x="134.264" y="225.017" width="575.736" height="341.435" filterUnits="userSpaceOnUse" color-interpolation-filters="sRGB">
<feFlood flood-opacity="0" result="BackgroundImageFix"/>
<feColorMatrix in="SourceAlpha" type="matrix" values="0 0 0 0 0 0 0 0 0 0 0 0 0 0 0 0 0 0 127 0" result="hardAlpha"/>
<feMorphology radius="34.6148" operator="erode" in="SourceAlpha" result="effect1_dropShadow_16_13884"/>
<feOffset dx="-56" dy="22"/>
<feGaussianBlur stdDeviation="20"/>
<feComposite in2="hardAlpha" operator="out"/>
<feColorMatrix type="matrix" values="0 0 0 0 0.0823529 0 0 0 0 0.0980392 0 0 0 0 0.172549 0 0 0 0.4 0"/>
<feBlend mode="normal" in2="BackgroundImageFix" result="effect1_dropShadow_16_13884"/>
<feBlend mode="normal" in="SourceGraphic" in2="effect1_dropShadow_16_13884" result="shape"/>
</filter>
</defs>
</svg>
