<svg width="710" height="538" viewBox="0 0 710 538" fill="none" xmlns="http://www.w3.org/2000/svg">
<rect x="169.598" y="147.71" width="539.68" height="388.618" rx="7.27886" fill="#15192C"/>
<path d="M176.877 154.989H702V521.05C702 525.468 698.418 529.05 694 529.05H184.877C180.459 529.05 176.877 525.468 176.877 521.05V154.989Z" fill="#15192C"/>
<rect x="190.877" y="194.989" width="3.40453" height="8.51132" rx="1.70226" fill="#22273C"/>
<rect x="201.091" y="194.989" width="228.103" height="8.51132" rx="4.25566" fill="#22273C"/>
<rect x="190.877" y="212.836" width="3.40453" height="8.51132" rx="1.70226" fill="#22273C"/>
<rect x="201.091" y="212.836" width="228.103" height="8.51132" rx="4.25566" fill="#22273C"/>
<rect x="190.877" y="230.683" width="3.40453" height="8.51132" rx="1.70226" fill="#22273C"/>
<rect x="201.091" y="230.683" width="42.5566" height="8.51132" rx="4.25566" fill="#22273C"/>
<rect x="250.457" y="230.683" width="321.728" height="8.51132" rx="4.25566" fill="#22273C"/>
<rect x="190.877" y="248.53" width="3.40453" height="8.51132" rx="1.70226" fill="#22273C"/>
<rect x="201.091" y="248.53" width="42.5566" height="8.51132" rx="4.25566" fill="#22273C"/>
<rect x="250.457" y="248.53" width="217.89" height="8.51132" rx="4.25566" fill="#22273C"/>
<rect x="190.877" y="266.377" width="3.40453" height="8.51132" rx="1.70226" fill="#22273C"/>
<rect x="201.091" y="266.377" width="42.5566" height="8.51132" rx="4.25566" fill="#22273C"/>
<rect x="250.457" y="266.377" width="284.278" height="8.51132" rx="4.25566" fill="#22273C"/>
<rect x="190.877" y="284.223" width="3.40453" height="8.51132" rx="1.70226" fill="#22273C"/>
<rect x="201.091" y="284.223" width="17.0226" height="8.51132" rx="4.25566" fill="#22273C"/>
<rect x="224.923" y="284.223" width="393.223" height="8.51132" rx="4.25566" fill="#22273C"/>
<rect x="190.877" y="302.07" width="3.40453" height="8.51132" rx="1.70226" fill="#22273C"/>
<rect x="190.877" y="319.917" width="3.40453" height="8.51132" rx="1.70226" fill="#22273C"/>
<rect x="201.091" y="319.917" width="17.0226" height="8.51132" rx="4.25566" fill="#22273C"/>
<rect x="224.923" y="319.917" width="393.223" height="8.51132" rx="4.25566" fill="#22273C"/>
<rect x="190.877" y="337.764" width="3.40453" height="8.51132" rx="1.70226" fill="#22273C"/>
<rect x="201.091" y="337.764" width="42.5566" height="8.51132" rx="4.25566" fill="#22273C"/>
<rect x="250.457" y="337.764" width="321.728" height="8.51132" rx="4.25566" fill="#22273C"/>
<rect x="190.877" y="355.611" width="3.40453" height="8.51132" rx="1.70226" fill="#22273C"/>
<rect x="201.091" y="355.611" width="17.0226" height="8.51132" rx="4.25566" fill="#22273C"/>
<rect x="224.923" y="355.611" width="393.223" height="8.51132" rx="4.25566" fill="#22273C"/>
<rect x="190.877" y="373.458" width="3.40453" height="8.51132" rx="1.70226" fill="#22273C"/>
<rect x="201.091" y="373.458" width="17.0226" height="8.51132" rx="4.25566" fill="#22273C"/>
<rect x="224.923" y="373.458" width="17.0226" height="8.51132" rx="4.25566" fill="#22273C"/>
<rect x="248.754" y="373.458" width="98.7314" height="8.51132" rx="4.25566" fill="#22273C"/>
<rect x="354.295" y="373.458" width="204.272" height="8.51132" rx="4.25566" fill="#22273C"/>
<rect x="190.877" y="391.304" width="3.40453" height="8.51132" rx="1.70226" fill="#22273C"/>
<rect x="201.091" y="391.304" width="42.5566" height="8.51132" rx="4.25566" fill="#22273C"/>
<rect x="250.457" y="391.304" width="284.278" height="8.51132" rx="4.25566" fill="#22273C"/>
<rect x="190.877" y="409.151" width="3.40453" height="8.51132" rx="1.70226" fill="#22273C"/>
<rect x="201.091" y="409.151" width="355.773" height="8.51132" rx="4.25566" fill="#22273C"/>
<rect x="563.673" y="409.151" width="95.3268" height="8.51132" rx="4.25566" fill="#22273C"/>
<rect x="190.877" y="426.998" width="3.40453" height="8.51132" rx="1.70226" fill="#22273C"/>
<rect x="201.091" y="426.998" width="303.003" height="8.51132" rx="4.25566" fill="#22273C"/>
<rect x="510.903" y="426.998" width="142.99" height="8.51132" rx="4.25566" fill="#22273C"/>
<rect x="190.877" y="444.845" width="3.40453" height="8.51132" rx="1.70226" fill="#22273C"/>
<rect x="201.091" y="444.845" width="42.5566" height="8.51132" rx="4.25566" fill="#22273C"/>
<rect x="250.457" y="444.845" width="321.728" height="8.51132" rx="4.25566" fill="#22273C"/>
<rect x="190.877" y="462.692" width="3.40453" height="8.51132" rx="1.70226" fill="#22273C"/>
<rect x="201.091" y="462.692" width="17.0226" height="8.51132" rx="4.25566" fill="#22273C"/>
<rect x="224.923" y="462.692" width="17.0226" height="8.51132" rx="4.25566" fill="#22273C"/>
<rect x="248.754" y="462.692" width="98.7314" height="8.51132" rx="4.25566" fill="#22273C"/>
<rect x="354.295" y="462.692" width="204.272" height="8.51132" rx="4.25566" fill="#22273C"/>
<rect x="190.877" y="480.539" width="3.40453" height="8.51132" rx="1.70226" fill="#22273C"/>
<rect x="201.091" y="480.539" width="42.5566" height="8.51132" rx="4.25566" fill="#22273C"/>
<rect x="250.457" y="480.539" width="284.278" height="8.51132" rx="4.25566" fill="#22273C"/>
<rect x="169.598" y="147.71" width="539.68" height="388.618" rx="7.27886" stroke="#373D57" stroke-width="1.44228"/>
<g filter="url(#filter0_d_16_14735)">
<path d="M1.33793 10.2857C1.33793 5.45209 5.25635 1.53367 10.09 1.53367H516.419C521.253 1.53367 525.171 5.45209 525.171 10.2857V37.7088H1.33793V10.2857Z" fill="#15192C"/>
<path d="M22.3411 19.6211C22.3411 21.8769 20.5128 23.7054 18.2577 23.7054C16.0026 23.7054 14.1743 21.8769 14.1743 19.6211C14.1743 17.3653 16.0026 15.5368 18.2577 15.5368C20.5128 15.5368 22.3411 17.3653 22.3411 19.6211Z" stroke="#686F8C" stroke-width="1.16694"/>
<path d="M36.3424 19.6211C36.3424 21.8769 34.5141 23.7054 32.259 23.7054C30.0039 23.7054 28.1756 21.8769 28.1756 19.6211C28.1756 17.3653 30.0039 15.5368 32.259 15.5368C34.5141 15.5368 36.3424 17.3653 36.3424 19.6211Z" stroke="#686F8C" stroke-width="1.16694"/>
<path d="M50.3439 19.6211C50.3439 21.8769 48.5156 23.7054 46.2606 23.7054C44.0055 23.7054 42.1772 21.8769 42.1772 19.6211C42.1772 17.3653 44.0055 15.5368 46.2606 15.5368C48.5156 15.5368 50.3439 17.3653 50.3439 19.6211Z" stroke="#686F8C" stroke-width="1.16694"/>
<path d="M1.33793 10.2857C1.33793 5.45209 5.25635 1.53367 10.09 1.53367H516.419C521.253 1.53367 525.171 5.45209 525.171 10.2857V37.7088H1.33793V10.2857Z" stroke="#373D57" stroke-width="1.16694"/>
<path d="M1.33793 37.7087H525.171V385.828C525.171 389.924 521.85 393.244 517.754 393.244H8.75446C4.65842 393.244 1.33793 389.924 1.33793 385.828V37.7087Z" fill="#2C3249"/>
<rect x="14.7545" y="77.1252" width="3.40453" height="8.51132" rx="1.70226" fill="#373D57"/>
<rect x="24.968" y="77.1252" width="228.103" height="8.51132" rx="4.25566" fill="#515873"/>
<rect x="14.7545" y="94.9722" width="3.40453" height="8.51132" rx="1.70226" fill="#373D57"/>
<rect x="24.968" y="94.9722" width="228.103" height="8.51132" rx="4.25566" fill="#515873"/>
<rect x="14.7545" y="112.819" width="3.40453" height="8.51132" rx="1.70226" fill="#373D57"/>
<rect x="24.968" y="112.819" width="42.5566" height="8.51132" rx="4.25566" fill="#515873"/>
<rect x="74.3337" y="112.819" width="321.728" height="8.51132" rx="4.25566" fill="#515873"/>
<rect x="14.7545" y="130.666" width="3.40453" height="8.51132" rx="1.70226" fill="#373D57"/>
<rect x="24.968" y="130.666" width="355.773" height="8.51132" rx="4.25566" fill="#515873"/>
<rect x="387.55" y="130.666" width="95.3268" height="8.51132" rx="4.25566" fill="#515873"/>
<rect x="14.7545" y="148.513" width="3.40453" height="8.51132" rx="1.70226" fill="#373D57"/>
<rect x="24.968" y="148.513" width="303.003" height="8.51132" rx="4.25566" fill="#515873"/>
<rect x="334.78" y="148.513" width="142.99" height="8.51132" rx="4.25566" fill="#515873"/>
<rect x="14.7545" y="166.359" width="3.40453" height="8.51132" rx="1.70226" fill="#373D57"/>
<rect x="24.968" y="166.359" width="42.5566" height="8.51132" rx="4.25566" fill="#515873"/>
<rect x="74.3337" y="166.359" width="217.89" height="8.51132" rx="4.25566" fill="#515873"/>
<rect x="14.7545" y="184.206" width="3.40453" height="8.51132" rx="1.70226" fill="#373D57"/>
<rect x="24.968" y="184.206" width="17.0226" height="8.51132" rx="4.25566" fill="#7950ED"/>
<rect x="48.7998" y="184.206" width="393.223" height="8.51132" rx="4.25566" fill="#7950ED"/>
<rect x="14.7545" y="202.053" width="3.40453" height="8.51132" rx="1.70226" fill="#373D57"/>
<rect x="24.968" y="202.053" width="42.5566" height="8.51132" rx="4.25566" fill="#7950ED"/>
<rect x="74.3337" y="202.053" width="321.728" height="8.51132" rx="4.25566" fill="#7950ED"/>
<rect x="14.7545" y="219.9" width="3.40453" height="8.51132" rx="1.70226" fill="#373D57"/>
<rect x="24.968" y="219.9" width="17.0226" height="8.51132" rx="4.25566" fill="#7950ED"/>
<rect x="48.7998" y="219.9" width="452" height="9" rx="4.5" fill="#7950ED"/>
<rect x="14.7545" y="238.235" width="3.40453" height="8.51132" rx="1.70226" fill="#373D57"/>
<rect x="24.968" y="238.235" width="17.0226" height="8.51132" rx="4.25566" fill="#7950ED"/>
<rect x="48.7998" y="238.235" width="17.0226" height="8.51132" rx="4.25566" fill="#7950ED"/>
<rect x="72.6315" y="238.235" width="98.7314" height="8.51132" rx="4.25566" fill="#7950ED"/>
<rect x="178.172" y="238.235" width="204.272" height="8.51132" rx="4.25566" fill="#7950ED"/>
<rect x="14.7545" y="256.082" width="3.40453" height="8.51132" rx="1.70226" fill="#373D57"/>
<rect x="24.968" y="256.082" width="42.5566" height="8.51132" rx="4.25566" fill="#515873"/>
<rect x="74.3337" y="256.082" width="284.278" height="8.51132" rx="4.25566" fill="#515873"/>
<rect x="14.7545" y="273.929" width="3.40453" height="8.51132" rx="1.70226" fill="#373D57"/>
<rect x="24.968" y="273.929" width="17.0226" height="8.51132" rx="4.25566" fill="#515873"/>
<rect x="48.7998" y="273.929" width="393.223" height="8.51132" rx="4.25566" fill="#515873"/>
<rect x="14.7545" y="291.776" width="3.40453" height="8.51132" rx="1.70226" fill="#373D57"/>
<rect x="24.968" y="291.776" width="42.5566" height="8.51132" rx="4.25566" fill="#515873"/>
<rect x="74.3337" y="291.776" width="284.278" height="8.51132" rx="4.25566" fill="#515873"/>
<rect x="14.7545" y="309.623" width="3.40453" height="8.51132" rx="1.70226" fill="#373D57"/>
<rect x="24.968" y="309.623" width="42.5566" height="8.51132" rx="4.25566" fill="#515873"/>
<rect x="74.3337" y="309.623" width="321.728" height="8.51132" rx="4.25566" fill="#515873"/>
<rect x="14.7545" y="327.47" width="3.40453" height="8.51132" rx="1.70226" fill="#373D57"/>
<rect x="24.968" y="327.47" width="17.0226" height="8.51132" rx="4.25566" fill="#515873"/>
<rect x="48.7998" y="327.47" width="17.0226" height="8.51132" rx="4.25566" fill="#515873"/>
<rect x="72.6315" y="327.47" width="98.7314" height="8.51132" rx="4.25566" fill="#515873"/>
<rect x="178.172" y="327.47" width="204.272" height="8.51132" rx="4.25566" fill="#515873"/>
<rect x="14.7545" y="345.316" width="3.40453" height="8.51132" rx="1.70226" fill="#373D57"/>
<rect x="24.968" y="345.316" width="42.5566" height="8.51132" rx="4.25566" fill="#515873"/>
<rect x="74.3337" y="345.316" width="284.278" height="8.51132" rx="4.25566" fill="#515873"/>
<path d="M1.33793 37.7087H525.171V385.828C525.171 389.924 521.85 393.244 517.754 393.244H8.75446C4.65842 393.244 1.33793 389.924 1.33793 385.828V37.7087Z" stroke="#373D57" stroke-width="1.16694"/>
</g>
<defs>
<filter id="filter0_d_16_14735" x="0.754456" y="0.950195" width="602.385" height="436.263" filterUnits="userSpaceOnUse" color-interpolation-filters="sRGB">
<feFlood flood-opacity="0" result="BackgroundImageFix"/>
<feColorMatrix in="SourceAlpha" type="matrix" values="0 0 0 0 0 0 0 0 0 0 0 0 0 0 0 0 0 0 127 0" result="hardAlpha"/>
<feMorphology radius="34.6148" operator="erode" in="SourceAlpha" result="effect1_dropShadow_16_14735"/>
<feOffset dx="72" dy="38"/>
<feGaussianBlur stdDeviation="20"/>
<feComposite in2="hardAlpha" operator="out"/>
<feColorMatrix type="matrix" values="0 0 0 0 0.0823529 0 0 0 0 0.0980392 0 0 0 0 0.172549 0 0 0 0.4 0"/>
<feBlend mode="normal" in2="BackgroundImageFix" result="effect1_dropShadow_16_14735"/>
<feBlend mode="normal" in="SourceGraphic" in2="effect1_dropShadow_16_14735" result="shape"/>
</filter>
</defs>
</svg>
