
<svg width="710" height="610" viewBox="0 0 710 610" fill="none" xmlns="http://www.w3.org/2000/svg">
    <rect x="169.023" y="183.71" width="540.256" height="388.618" rx="7.27886" fill="#15192C"/>
    <path d="M176.302 190.989H701.424V557.05C701.424 561.468 697.843 565.05 693.424 565.05H184.302C179.883 565.05 176.302 561.468 176.302 557.05V190.989Z" fill="#15192C"/>
    <rect x="190.302" y="230.989" width="3.40453" height="8.51132" rx="1.70226" fill="#22273C"/>
    <rect x="200.515" y="230.989" width="228.103" height="8.51132" rx="4.25566" fill="#22273C"/>
    <rect x="190.302" y="248.836" width="3.40453" height="8.51132" rx="1.70226" fill="#22273C"/>
    <rect x="200.515" y="248.836" width="228.103" height="8.51132" rx="4.25566" fill="#22273C"/>
    <rect x="190.302" y="266.683" width="3.40453" height="8.51132" rx="1.70226" fill="#22273C"/>
    <rect x="200.515" y="266.683" width="42.5566" height="8.51132" rx="4.25566" fill="#22273C"/>
    <rect x="249.881" y="266.683" width="321.728" height="8.51132" rx="4.25566" fill="#22273C"/>
    <rect x="190.302" y="284.53" width="3.40453" height="8.51132" rx="1.70226" fill="#22273C"/>
    <rect x="200.515" y="284.53" width="42.5566" height="8.51132" rx="4.25566" fill="#22273C"/>
    <rect x="249.881" y="284.53" width="217.89" height="8.51132" rx="4.25566" fill="#22273C"/>
    <rect x="190.302" y="302.377" width="3.40453" height="8.51132" rx="1.70226" fill="#22273C"/>
    <rect x="200.515" y="302.377" width="42.5566" height="8.51132" rx="4.25566" fill="#22273C"/>
    <rect x="249.881" y="302.377" width="284.278" height="8.51132" rx="4.25566" fill="#22273C"/>
    <rect x="190.302" y="320.223" width="3.40453" height="8.51132" rx="1.70226" fill="#22273C"/>
    <rect x="200.515" y="320.223" width="17.0226" height="8.51132" rx="4.25566" fill="#22273C"/>
    <rect x="224.347" y="320.223" width="393.223" height="8.51132" rx="4.25566" fill="#22273C"/>
    <rect x="190.302" y="338.07" width="3.40453" height="8.51132" rx="1.70226" fill="#22273C"/>
    <rect x="190.302" y="355.917" width="3.40453" height="8.51132" rx="1.70226" fill="#22273C"/>
    <rect x="200.515" y="355.917" width="17.0226" height="8.51132" rx="4.25566" fill="#22273C"/>
    <rect x="224.347" y="355.917" width="393.223" height="8.51132" rx="4.25566" fill="#22273C"/>
    <rect x="190.302" y="373.764" width="3.40453" height="8.51132" rx="1.70226" fill="#22273C"/>
    <rect x="200.515" y="373.764" width="42.5566" height="8.51132" rx="4.25566" fill="#22273C"/>
    <rect x="249.881" y="373.764" width="321.728" height="8.51132" rx="4.25566" fill="#22273C"/>
    <rect x="190.302" y="391.611" width="3.40453" height="8.51132" rx="1.70226" fill="#22273C"/>
    <rect x="200.515" y="391.611" width="17.0226" height="8.51132" rx="4.25566" fill="#22273C"/>
    <rect x="224.347" y="391.611" width="393.223" height="8.51132" rx="4.25566" fill="#22273C"/>
    <rect x="190.302" y="409.458" width="3.40453" height="8.51132" rx="1.70226" fill="#22273C"/>
    <rect x="200.515" y="409.458" width="17.0226" height="8.51132" rx="4.25566" fill="#22273C"/>
    <rect x="224.347" y="409.458" width="17.0226" height="8.51132" rx="4.25566" fill="#22273C"/>
    <rect x="248.179" y="409.458" width="98.7314" height="8.51132" rx="4.25566" fill="#22273C"/>
    <rect x="353.719" y="409.458" width="204.272" height="8.51132" rx="4.25566" fill="#22273C"/>
    <rect x="190.302" y="427.304" width="3.40453" height="8.51132" rx="1.70226" fill="#22273C"/>
    <rect x="200.515" y="427.304" width="42.5566" height="8.51132" rx="4.25566" fill="#22273C"/>
    <rect x="249.881" y="427.304" width="284.278" height="8.51132" rx="4.25566" fill="#22273C"/>
    <rect x="190.302" y="445.151" width="3.40453" height="8.51132" rx="1.70226" fill="#22273C"/>
    <rect x="200.515" y="445.151" width="355.773" height="8.51132" rx="4.25566" fill="#22273C"/>
    <rect x="563.098" y="445.151" width="95.3268" height="8.51132" rx="4.25566" fill="#22273C"/>
    <rect x="190.302" y="462.998" width="3.40453" height="8.51132" rx="1.70226" fill="#22273C"/>
    <rect x="200.515" y="462.998" width="303.003" height="8.51132" rx="4.25566" fill="#22273C"/>
    <rect x="510.327" y="462.998" width="142.99" height="8.51132" rx="4.25566" fill="#22273C"/>
    <rect x="190.302" y="480.845" width="3.40453" height="8.51132" rx="1.70226" fill="#22273C"/>
    <rect x="200.515" y="480.845" width="42.5566" height="8.51132" rx="4.25566" fill="#22273C"/>
    <rect x="249.881" y="480.845" width="321.728" height="8.51132" rx="4.25566" fill="#22273C"/>
    <rect x="190.302" y="498.692" width="3.40453" height="8.51132" rx="1.70226" fill="#22273C"/>
    <rect x="200.515" y="498.692" width="17.0226" height="8.51132" rx="4.25566" fill="#22273C"/>
    <rect x="224.347" y="498.692" width="17.0226" height="8.51132" rx="4.25566" fill="#22273C"/>
    <rect x="248.179" y="498.692" width="98.7314" height="8.51132" rx="4.25566" fill="#22273C"/>
    <rect x="353.719" y="498.692" width="204.272" height="8.51132" rx="4.25566" fill="#22273C"/>
    <rect x="190.302" y="516.539" width="3.40453" height="8.51132" rx="1.70226" fill="#22273C"/>
    <rect x="200.515" y="516.539" width="42.5566" height="8.51132" rx="4.25566" fill="#22273C"/>
    <rect x="249.881" y="516.539" width="284.278" height="8.51132" rx="4.25566" fill="#22273C"/>
    <rect x="169.023" y="183.71" width="540.256" height="388.618" rx="7.27886" stroke="#373D57" stroke-width="1.44228"/>
    <g filter="url(#filter0_d_228_4410)">
        <path d="M9.33552 37.5337H516.223C521.057 37.5337 524.975 41.4521 524.975 46.2857V73.7088H0.58347V46.2857C0.58347 41.4521 4.50189 37.5337 9.33552 37.5337Z" fill="#15192C"/>
        <path d="M21.5866 55.6211C21.5866 57.8769 19.7583 59.7054 17.5033 59.7054C15.2482 59.7054 13.4199 57.8769 13.4199 55.6211C13.4199 53.3653 15.2482 51.5368 17.5033 51.5368C19.7583 51.5368 21.5866 53.3653 21.5866 55.6211Z" stroke="#686F8C" stroke-width="1.16694"/>
        <path d="M35.5879 55.6211C35.5879 57.8769 33.7596 59.7054 31.5046 59.7054C29.2495 59.7054 27.4212 57.8769 27.4212 55.6211C27.4212 53.3653 29.2495 51.5368 31.5046 51.5368C33.7596 51.5368 35.5879 53.3653 35.5879 55.6211Z" stroke="#686F8C" stroke-width="1.16694"/>
        <path d="M49.5895 55.6211C49.5895 57.8769 47.7612 59.7054 45.5061 59.7054C43.251 59.7054 41.4227 57.8769 41.4227 55.6211C41.4227 53.3653 43.251 51.5368 45.5061 51.5368C47.7612 51.5368 49.5895 53.3653 49.5895 55.6211Z" stroke="#686F8C" stroke-width="1.16694"/>
        <path d="M9.33552 37.5337H516.223C521.057 37.5337 524.975 41.4521 524.975 46.2857V73.7088H0.58347V46.2857C0.58347 41.4521 4.50189 37.5337 9.33552 37.5337Z" stroke="#373D57" stroke-width="1.16694"/>
        <path d="M0.58347 73.7087H524.975V421.828C524.975 425.924 521.654 429.244 517.558 429.244H8.00003C3.90399 429.244 0.58347 425.924 0.58347 421.828V73.7087Z" fill="#2C3249"/>
        <rect x="14" y="113.125" width="3.40453" height="8.51132" rx="1.70226" fill="#373D57"/>
        <rect x="24.2136" y="113.125" width="228.103" height="8.51132" rx="4.25566" fill="#515873"/>
        <rect x="14" y="130.972" width="3.40453" height="8.51132" rx="1.70226" fill="#373D57"/>
        <rect x="24.2136" y="130.972" width="228.103" height="8.51132" rx="4.25566" fill="#515873"/>
        <rect x="14" y="148.819" width="3.40453" height="8.51132" rx="1.70226" fill="#373D57"/>
        <rect x="24.2136" y="148.819" width="42.5566" height="8.51132" rx="4.25566" fill="#515873"/>
        <rect x="73.5793" y="148.819" width="321.728" height="8.51132" rx="4.25566" fill="#515873"/>
        <rect x="14" y="166.666" width="3.40453" height="8.51132" rx="1.70226" fill="#373D57"/>
        <rect x="24.2136" y="166.666" width="355.773" height="8.51132" rx="4.25566" fill="#515873"/>
        <rect x="386.796" y="166.666" width="95.3268" height="8.51132" rx="4.25566" fill="#515873"/>
        <rect x="14" y="184.513" width="3.40453" height="8.51132" rx="1.70226" fill="#373D57"/>
        <rect x="24.2136" y="184.513" width="303.003" height="8.51132" rx="4.25566" fill="#515873"/>
        <rect x="334.026" y="184.513" width="142.99" height="8.51132" rx="4.25566" fill="#515873"/>
        <rect x="14" y="202.359" width="3.40453" height="8.51132" rx="1.70226" fill="#373D57"/>
        <rect x="24.2136" y="202.359" width="42.5566" height="8.51132" rx="4.25566" fill="#515873"/>
        <rect x="73.5793" y="202.359" width="217.89" height="8.51132" rx="4.25566" fill="#515873"/>
        <rect x="14" y="220.206" width="3.40453" height="8.51132" rx="1.70226" fill="#373D57"/>
        <rect x="24.2136" y="220.206" width="17.0226" height="8.51132" rx="4.25566" fill="#7950ED"/>
        <rect x="48.0453" y="220.206" width="393.223" height="8.51132" rx="4.25566" fill="#7950ED"/>
        <rect x="14" y="238.053" width="3.40453" height="8.51132" rx="1.70226" fill="#373D57"/>
        <rect x="24.2136" y="238.053" width="42.5566" height="8.51132" rx="4.25566" fill="#7950ED"/>
        <rect x="73.5793" y="238.053" width="321.728" height="8.51132" rx="4.25566" fill="#7950ED"/>
        <rect x="14" y="255.9" width="3.40453" height="8.51132" rx="1.70226" fill="#373D57"/>
        <rect x="24.2136" y="255.9" width="17.0226" height="8.51132" rx="4.25566" fill="#7950ED"/>
        <rect x="48.0453" y="255.9" width="452" height="9" rx="4.5" fill="#7950ED"/>
        <rect x="14" y="274.235" width="3.40453" height="8.51132" rx="1.70226" fill="#373D57"/>
        <rect x="24.2136" y="274.235" width="17.0226" height="8.51132" rx="4.25566" fill="#7950ED"/>
        <rect x="48.0453" y="274.235" width="17.0226" height="8.51132" rx="4.25566" fill="#7950ED"/>
        <rect x="71.877" y="274.235" width="98.7314" height="8.51132" rx="4.25566" fill="#7950ED"/>
        <rect x="177.417" y="274.235" width="204.272" height="8.51132" rx="4.25566" fill="#7950ED"/>
        <rect x="14" y="292.082" width="3.40453" height="8.51132" rx="1.70226" fill="#373D57"/>
        <rect x="24.2136" y="292.082" width="42.5566" height="8.51132" rx="4.25566" fill="#515873"/>
        <rect x="73.5793" y="292.082" width="284.278" height="8.51132" rx="4.25566" fill="#515873"/>
        <rect x="14" y="309.929" width="3.40453" height="8.51132" rx="1.70226" fill="#373D57"/>
        <rect x="24.2136" y="309.929" width="17.0226" height="8.51132" rx="4.25566" fill="#515873"/>
        <rect x="48.0453" y="309.929" width="393.223" height="8.51132" rx="4.25566" fill="#515873"/>
        <rect x="14" y="327.776" width="3.40453" height="8.51132" rx="1.70226" fill="#373D57"/>
        <rect x="24.2136" y="327.776" width="42.5566" height="8.51132" rx="4.25566" fill="#515873"/>
        <rect x="73.5793" y="327.776" width="284.278" height="8.51132" rx="4.25566" fill="#515873"/>
        <rect x="14" y="345.623" width="3.40453" height="8.51132" rx="1.70226" fill="#373D57"/>
        <rect x="24.2136" y="345.623" width="42.5566" height="8.51132" rx="4.25566" fill="#515873"/>
        <rect x="73.5793" y="345.623" width="321.728" height="8.51132" rx="4.25566" fill="#515873"/>
        <rect x="14" y="363.47" width="3.40453" height="8.51132" rx="1.70226" fill="#373D57"/>
        <rect x="24.2136" y="363.47" width="17.0226" height="8.51132" rx="4.25566" fill="#515873"/>
        <rect x="48.0453" y="363.47" width="17.0226" height="8.51132" rx="4.25566" fill="#515873"/>
        <rect x="71.877" y="363.47" width="98.7314" height="8.51132" rx="4.25566" fill="#515873"/>
        <rect x="177.417" y="363.47" width="204.272" height="8.51132" rx="4.25566" fill="#515873"/>
        <rect x="14" y="381.316" width="3.40453" height="8.51132" rx="1.70226" fill="#373D57"/>
        <rect x="24.2136" y="381.316" width="42.5566" height="8.51132" rx="4.25566" fill="#515873"/>
        <rect x="73.5793" y="381.316" width="284.278" height="8.51132" rx="4.25566" fill="#515873"/>
        <path d="M0.58347 73.7087H524.975V421.828C524.975 425.924 521.654 429.244 517.558 429.244H8.00003C3.90399 429.244 0.58347 425.924 0.58347 421.828V73.7087Z" stroke="#373D57" stroke-width="1.16694"/>
    </g>
    <defs>
        <filter id="filter0_d_228_4410" x="0" y="36.9502" width="602.944" height="436.263" filterUnits="userSpaceOnUse" color-interpolation-filters="sRGB">
            <feFlood flood-opacity="0" result="BackgroundImageFix"/>
            <feColorMatrix in="SourceAlpha" type="matrix" values="0 0 0 0 0 0 0 0 0 0 0 0 0 0 0 0 0 0 127 0" result="hardAlpha"/>
            <feMorphology radius="34.6148" operator="erode" in="SourceAlpha" result="effect1_dropShadow_228_4410"/>
            <feOffset dx="72" dy="38"/>
            <feGaussianBlur stdDeviation="20"/>
            <feComposite in2="hardAlpha" operator="out"/>
            <feColorMatrix type="matrix" values="0 0 0 0 0.0823529 0 0 0 0 0.0980392 0 0 0 0 0.172549 0 0 0 0.4 0"/>
            <feBlend mode="normal" in2="BackgroundImageFix" result="effect1_dropShadow_228_4410"/>
            <feBlend mode="normal" in="SourceGraphic" in2="effect1_dropShadow_228_4410" result="shape"/>
        </filter>
    </defs>
</svg>