<svg width="153" height="27" viewBox="0 0 153 27" fill="none" xmlns="http://www.w3.org/2000/svg">
<path d="M23.0101 13.5557C23.0849 13.2742 23.1475 13.045 23.2067 12.8154C23.8689 10.2483 24.5299 7.68077 25.1925 5.11403C25.3583 4.47121 25.4778 4.38052 26.1389 4.38014C26.4739 4.38014 26.8094 4.37634 27.1441 4.38242C27.3949 4.38697 27.4867 4.48981 27.4636 4.74139C27.4522 4.86586 27.426 4.99147 27.3888 5.11138C26.3628 8.40784 25.3348 11.7039 24.3068 14.9996C24.1072 15.6398 24.0043 15.7168 23.338 15.7161C23.0029 15.7161 22.6675 15.7195 22.3328 15.7054C21.9541 15.6895 21.8167 15.5794 21.7196 15.2087C21.5883 14.7082 21.4718 14.2035 21.3507 13.7003C20.8172 11.4785 20.2844 9.25633 19.7505 7.03453C19.7387 6.98634 19.7216 6.93929 19.6909 6.83835C19.5759 7.31648 19.4723 7.74376 19.3703 8.17105C18.8246 10.4551 18.2793 12.7387 17.7332 15.0228C17.7199 15.0782 17.704 15.1328 17.6873 15.1871C17.5636 15.5886 17.4277 15.6933 17.0027 15.6986C16.6297 15.7035 16.2567 15.7028 15.8837 15.6997C15.4454 15.6959 15.3008 15.5999 15.1623 15.1757C14.9665 14.5757 14.7862 13.9709 14.6026 13.3671C13.7833 10.6737 12.9648 7.98055 12.1489 5.28593C12.0909 5.09354 12.0389 4.89584 12.0169 4.697C11.9941 4.48791 12.0931 4.38697 12.3026 4.38469C12.7766 4.38052 13.2509 4.38621 13.7252 4.39114C13.9685 4.3938 14.1419 4.51523 14.2095 4.74481C14.3571 5.24685 14.4963 5.75154 14.6257 6.2589C15.2223 8.5953 15.8139 10.9325 16.4081 13.2696C16.4187 13.3106 16.435 13.3504 16.4681 13.4468C16.572 13.012 16.6646 12.6321 16.7542 12.2511C17.315 9.8669 17.8751 7.48231 18.4364 5.09848C18.5832 4.47387 18.7016 4.38166 19.3463 4.38128C19.6624 4.38128 19.9789 4.37634 20.2946 4.38621C20.7105 4.39911 20.8589 4.51675 20.9587 4.92126C21.1071 5.52196 21.2441 6.12532 21.386 6.72716C21.9059 8.93302 22.4257 11.1389 22.946 13.3447C22.9585 13.3975 22.9767 13.4487 23.009 13.5565L23.0101 13.5557Z" fill="white"/>
<path d="M19.4512 27.0001C17.8434 26.9754 16.5729 26.8999 15.3066 26.7314C10.9829 26.1561 7.00493 24.6644 3.3734 22.2491C2.29798 21.5338 1.28252 20.7407 0.31487 19.8861C0.239356 19.8194 0.162323 19.7514 0.0989519 19.6736C0.00598163 19.5594 -0.0444879 19.4289 0.052277 19.2915C0.152078 19.15 0.298174 19.1397 0.442752 19.1951C0.571392 19.2448 0.692064 19.3173 0.813115 19.3856C3.25804 20.7722 5.83085 21.8564 8.52243 22.6624C10.0475 23.1192 11.5939 23.4885 13.1645 23.7454C14.0783 23.8949 15 23.9985 15.9206 24.104C17.3151 24.2641 18.7165 24.3206 20.1187 24.2872C20.9694 24.2671 21.8202 24.2064 22.6695 24.1427C24.9793 23.9696 27.244 23.5378 29.4768 22.9291C31.0448 22.5018 32.5763 21.9679 34.0779 21.3463C34.2278 21.2845 34.4152 21.2511 34.5716 21.2792C34.9738 21.3517 35.1134 21.7877 34.8406 22.092C34.7283 22.2172 34.5852 22.3174 34.4467 22.4157C32.3748 23.885 30.0904 24.9126 27.6743 25.6662C26.389 26.0673 25.0818 26.3796 23.7532 26.5933C22.9947 26.7151 22.2293 26.8039 21.4643 26.8733C20.6852 26.9439 19.9027 26.9728 19.4516 27.0001H19.4512Z" fill="white"/>
<path d="M8.72056 9.39148C8.6773 8.71754 8.68337 8.08193 8.58585 7.46225C8.43406 6.49878 7.84892 6.00888 6.85015 5.86772C5.57627 5.68747 4.37715 5.96183 3.20268 6.42137C3.02699 6.49005 2.8475 6.55342 2.66422 6.5982C2.47638 6.64412 2.34926 6.56708 2.34167 6.38228C2.32687 6.0233 2.32763 5.66243 2.35191 5.30421C2.36557 5.10233 2.54051 4.98773 2.71203 4.92056C3.2338 4.71603 3.75178 4.49062 4.28987 4.34149C5.51518 4.00148 6.76136 3.96923 8.0045 4.24397C9.54439 4.58397 10.4585 5.57667 10.6771 7.13781C10.7329 7.53701 10.7572 7.94304 10.7606 8.34604C10.7708 9.61689 10.7591 10.8881 10.7682 12.159C10.7705 12.4857 10.7754 12.8238 10.8581 13.1357C10.972 13.5649 11.1439 13.9816 11.3222 14.3899C11.485 14.7629 11.4611 14.9314 11.1272 15.159C10.887 15.3226 10.6456 15.485 10.4012 15.6421C10.1052 15.8322 9.86353 15.8182 9.64761 15.5423C9.40399 15.2308 9.20097 14.887 8.98543 14.5542C8.92472 14.4604 8.88222 14.3553 8.83782 14.2673C8.5054 14.5587 8.20524 14.8707 7.85841 15.1162C6.61564 15.9958 5.23854 16.2185 3.78214 15.8114C2.51205 15.4566 1.6738 14.358 1.58235 13.0416C1.51177 12.0258 1.69657 11.0885 2.40618 10.3113C3.02775 9.63055 3.81629 9.25829 4.71222 9.10157C5.80054 8.91107 6.87823 9.02757 7.95138 9.23286C8.18627 9.27764 8.41964 9.32887 8.72094 9.3911L8.72056 9.39148ZM6.52077 10.4726C6.05706 10.5272 5.67531 10.5428 5.30723 10.6221C4.53501 10.7883 3.98212 11.219 3.8383 12.0364C3.78897 12.3183 3.79314 12.617 3.82046 12.9031C3.88763 13.6082 4.34755 14.1322 5.0435 14.2688C5.95043 14.4464 6.80689 14.2688 7.58253 13.7721C8.18513 13.3862 8.57826 12.842 8.64619 12.1077C8.6811 11.7309 8.68565 11.3514 8.71487 10.9743C8.72588 10.832 8.66174 10.7841 8.53918 10.7667C7.84019 10.6657 7.14197 10.5633 6.52039 10.4726H6.52077Z" fill="white"/>
<path d="M32.2605 16.0514C31.2769 16.054 30.326 15.873 29.3993 15.552C29.298 15.5171 29.2001 15.4723 29.0999 15.4336C28.6039 15.242 28.3182 14.9175 28.3926 14.3491C28.4146 14.181 28.3926 14.0075 28.4062 13.8375C28.4229 13.6338 28.5383 13.5385 28.7382 13.5708C28.8733 13.5928 29.0084 13.6364 29.1344 13.6911C30.2622 14.1813 31.4374 14.3954 32.665 14.3035C33.1223 14.2694 33.5655 14.1753 33.9666 13.9377C34.4478 13.6531 34.6982 13.2304 34.694 12.6714C34.6899 12.1257 34.4269 11.7155 33.9385 11.4962C33.4452 11.2746 32.9276 11.1065 32.418 10.9228C31.7065 10.6663 30.9619 10.4796 30.2861 10.1502C29.1097 9.57722 28.5068 8.58605 28.528 7.26549C28.5451 6.18476 29.0999 5.39167 29.9696 4.79931C30.6682 4.32384 31.4572 4.11513 32.2897 4.06352C33.2661 4.0028 34.2174 4.15004 35.1464 4.45058C35.2424 4.4817 35.3369 4.51812 35.4298 4.55721C36.0313 4.81032 36.1683 5.01523 36.1664 5.6645C36.166 5.82844 36.166 5.99388 36.1447 6.1563C36.1189 6.35286 36.0089 6.43749 35.815 6.40219C35.6742 6.37639 35.5365 6.32251 35.404 6.26521C34.3263 5.7977 33.2058 5.65426 32.0487 5.84248C31.7918 5.88422 31.5304 5.97263 31.3008 6.09482C30.4686 6.53767 30.3707 7.71972 31.1392 8.26426C31.4883 8.51167 31.9008 8.68585 32.3064 8.83346C33.1363 9.13514 33.9913 9.36889 34.8166 9.68158C35.7141 10.0212 36.3869 10.6204 36.6715 11.574C37.1075 13.035 36.4912 14.5566 35.1346 15.3478C34.2493 15.8643 33.2763 16.0517 32.2609 16.0506L32.2605 16.0514Z" fill="white"/>
<path d="M35.7275 18.383C36.3449 18.394 36.9529 18.4528 37.5505 18.6016C38.248 18.775 38.4062 18.9359 38.3615 19.6524C38.2275 21.807 37.5118 23.7176 35.9097 25.2325C35.8596 25.2799 35.8057 25.338 35.7439 25.355C35.6422 25.3827 35.4953 25.426 35.4365 25.3782C35.3773 25.3304 35.3686 25.168 35.397 25.0742C35.4744 24.8211 35.5845 24.5783 35.6805 24.3308C36.0342 23.4175 36.3791 22.5003 36.5578 21.5338C36.6113 21.2454 36.6132 20.946 36.6197 20.6511C36.6261 20.3426 36.4595 20.1282 36.1749 20.0371C35.9184 19.9552 35.6509 19.8907 35.3834 19.8637C34.5888 19.7833 33.7949 19.8417 33.003 19.9233C32.5077 19.9745 32.0133 20.0349 31.5169 20.0743C31.4323 20.0812 31.2984 20.0265 31.2654 19.9609C31.2335 19.8971 31.2722 19.748 31.3318 19.6971C31.5177 19.5389 31.7181 19.3909 31.9313 19.2721C32.7195 18.8331 33.5725 18.5895 34.4654 18.4874C34.8847 18.4396 35.3071 18.4168 35.7279 18.3823L35.7275 18.383Z" fill="white"/>
<g clip-path="url(#clip0_3879_645)">
<path d="M58.8809 15.913H56.8298C56.8173 15.6695 56.7922 15.4344 56.7922 15.1951C56.7922 13.0244 56.7922 10.8537 56.7922 8.67869C56.7838 6.78572 56.1865 6.26013 54.3484 6.51224C54.152 6.53788 53.9515 6.58061 53.7594 6.63189C52.2513 7.02928 52.1009 7.22585 52.1009 8.80689C52.1009 10.9392 52.1009 13.0671 52.1009 15.1994V15.9087H50.0163C50.0038 15.6737 49.9787 15.4387 49.9787 15.2037C49.9787 13.0714 49.9787 10.9434 49.9787 8.81116C49.9746 6.73444 49.2853 6.15757 47.2926 6.5507C47.1923 6.57206 47.0963 6.59343 47.0002 6.61907C45.4838 6.97801 45.3125 7.19593 45.3125 8.77697C45.3125 10.8665 45.3125 12.956 45.3125 15.0456C45.3125 15.6524 45.0061 15.9558 44.3934 15.9558C44.0133 15.9558 43.6373 15.9558 43.207 15.9558V5.03803H44.9365C45.0117 5.33714 45.0869 5.63199 45.1579 5.92683C45.96 5.57644 46.7412 5.17049 47.56 4.89274C48.5459 4.56371 49.5819 4.46116 50.5427 4.9782C51.0189 5.23459 51.4033 5.67044 51.8753 6.05929C52.903 5.34996 54.0894 4.79446 55.4387 4.66627C56.9175 4.52098 58.0538 5.02948 58.5802 6.17894C58.7765 6.61052 58.9102 7.11902 58.9144 7.59333C58.9478 10.2555 58.9311 12.9176 58.9311 15.584C58.9311 15.6823 58.906 15.7806 58.8893 15.913H58.8809Z" fill="white"/>
<path d="M107.238 4.9952C107.451 4.9952 107.631 4.9952 107.806 4.9952C108.514 4.9895 108.968 5.27153 109.168 5.84127C110.02 5.47806 110.843 4.96102 111.733 4.77727C114.294 4.23887 116.287 5.60625 116.888 8.2171C117.281 9.92206 117.252 11.627 116.621 13.285C115.606 15.9514 112.648 17.0154 110.204 15.5924C109.929 15.4301 109.67 15.2421 109.302 15.0028C109.302 15.9386 109.302 16.806 109.302 17.6692C109.302 18.5323 109.302 19.4211 109.302 20.3398H107.238V4.9952ZM109.298 10.3451C109.298 10.9391 109.298 11.533 109.298 12.127C109.298 13.5371 109.411 13.6952 110.718 14.1695C112.443 14.7891 114.006 14.2678 114.561 12.7551C115.138 11.1954 115.1 9.58449 114.549 8.00772C114.269 7.20438 113.688 6.67025 112.849 6.52924C111.704 6.33695 110.61 6.52924 109.645 7.21293C109.473 7.33685 109.319 7.6146 109.31 7.82825C109.273 8.66578 109.294 9.50758 109.294 10.3451H109.298Z" fill="white"/>
<path d="M88.2115 4.99535C86.4528 6.74732 84.8027 8.39673 83.1108 10.0846C84.9865 12.0844 86.7327 13.9475 88.6084 15.943C87.6392 15.943 86.8496 15.9601 86.0643 15.9259C85.9013 15.9174 85.7217 15.7336 85.5922 15.5926C84.2345 14.144 82.8894 12.6869 81.5359 11.2341C81.4565 11.1486 81.3646 11.0717 81.185 10.905V15.943C80.5166 15.943 79.9234 15.9601 79.3302 15.9259C79.2215 15.9216 79.0795 15.7208 79.0294 15.5841C78.9751 15.4388 79.0127 15.2593 79.0127 15.0969C79.0127 10.3239 79.0127 5.55086 79.0127 0.777822C79.0127 0.534257 79.0127 0.294964 79.0127 0.00439453H81.1348V9.62738C81.3437 9.45218 81.4607 9.37099 81.5609 9.26416C82.8058 7.96515 84.0424 6.64904 85.304 5.36711C85.5045 5.16628 85.8387 5.02954 86.1228 5.0039C86.7703 4.95262 87.4261 4.98681 88.2115 4.98681V4.99535Z" fill="white"/>
<path d="M130.619 9.84519C130.586 9.06749 130.607 8.39234 130.515 7.73429C130.41 6.99932 129.955 6.52501 129.207 6.52928C128.017 6.53355 126.826 6.68311 125.64 6.79848C125.326 6.82839 125.025 6.95659 124.629 7.06341C124.629 6.59765 124.604 6.19171 124.641 5.79431C124.654 5.6533 124.796 5.45674 124.925 5.40119C126.755 4.66194 128.635 4.38846 130.565 4.91833C131.751 5.24308 132.52 6.11052 132.557 7.33262C132.645 10.1742 132.587 13.0201 132.587 15.9514C132.098 15.9514 131.622 15.9728 131.154 15.9386C131.029 15.9301 130.87 15.7591 130.811 15.6224C130.732 15.4472 130.736 15.2293 130.707 15.0199C129.993 15.3617 129.345 15.7549 128.643 15.9899C127.44 16.3916 126.224 16.383 125.134 15.6096C124.031 14.8276 123.789 13.6653 123.956 12.4005C124.132 11.0929 124.942 10.281 126.107 9.83665C127.331 9.37088 128.589 9.47771 129.842 9.71273C130.055 9.75118 130.272 9.78537 130.627 9.84946L130.619 9.84519ZM130.59 12.58C130.59 12.1783 130.615 11.9091 130.577 11.6484C130.561 11.5202 130.452 11.3194 130.352 11.298C129.216 11.016 128.067 10.8451 126.943 11.328C126.279 11.6142 125.978 12.268 126.066 13.1056C126.149 13.9132 126.492 14.3319 127.256 14.5114C128.083 14.7037 128.831 14.4131 129.575 14.1012C130.297 13.7978 130.866 13.3919 130.59 12.5842V12.58Z" fill="white"/>
<path d="M67.2703 9.84953C67.2285 9.05901 67.2452 8.3625 67.1449 7.68308C67.0405 6.97802 66.5434 6.51225 65.8583 6.52507C64.6677 6.54644 63.4771 6.6789 62.2907 6.79427C61.9774 6.82419 61.6766 6.95238 61.2797 7.06348C61.2797 6.59771 61.2547 6.19177 61.2923 5.79437C61.3048 5.65336 61.4427 5.45253 61.5722 5.40125C63.4437 4.65773 65.3528 4.36289 67.3204 4.96112C68.4901 5.32006 69.1919 6.20032 69.2253 7.38396C69.3089 10.2042 69.2546 13.033 69.2546 15.9472C68.7407 15.9472 68.2478 15.9686 67.7548 15.9301C67.6379 15.9216 67.5 15.725 67.4415 15.584C67.3663 15.4045 67.3622 15.1952 67.3329 15.0157C66.6478 15.349 66.0212 15.7122 65.357 15.9643C64.4337 16.319 63.4687 16.3489 62.533 16.007C61.2129 15.5285 60.5362 14.4303 60.5612 12.9005C60.5821 11.4733 61.4176 10.2982 62.7377 9.82816C63.97 9.39231 65.2191 9.4735 66.4724 9.70852C66.6854 9.74697 66.9026 9.78543 67.2703 9.84953ZM67.2368 12.5715C67.2368 12.1698 67.2619 11.9006 67.2243 11.64C67.2076 11.5118 67.0948 11.3195 66.9904 11.2938C65.875 11.0204 64.7471 10.8494 63.6358 11.3109C62.9466 11.5972 62.6333 12.2211 62.7043 13.0543C62.7711 13.8919 63.1304 14.332 63.9116 14.5115C64.7345 14.6995 65.4865 14.4089 66.2301 14.097C66.9569 13.7893 67.5125 13.3791 67.2368 12.5715Z" fill="white"/>
<path d="M97.3952 13.8747C97.3952 14.3447 97.4203 14.7506 97.3827 15.1566C97.3702 15.3019 97.2407 15.5113 97.1112 15.5625C94.8804 16.4556 92.6454 16.6863 90.469 15.4258C89.6627 14.9558 89.1531 14.1781 88.8397 13.285C88.28 11.6954 88.2632 10.0545 88.6225 8.4393C89.1948 5.84981 91.3128 4.40124 93.9613 4.67472C96.2381 4.90974 97.579 6.38395 97.6333 8.72987C97.6501 9.4392 97.6333 10.1485 97.6333 10.9348H90.5985C90.235 12.7337 91.4465 14.3746 93.2721 14.4387C94.4125 14.4772 95.5613 14.2122 96.7059 14.0712C96.9148 14.0456 97.1195 13.9516 97.3869 13.8704L97.3952 13.8747ZM95.6699 9.43066C95.7159 8.36239 95.6866 7.34112 94.7383 6.72152C93.8277 6.12329 92.8 6.19166 91.8768 6.70016C90.8616 7.25566 90.5818 8.27692 90.5149 9.43066H95.6657H95.6699Z" fill="white"/>
<path d="M152.289 13.8705C152.369 15.678 152.582 15.4516 151.019 15.9515C149.658 16.3874 148.241 16.3916 146.863 16.0712C145.313 15.708 144.21 14.7294 143.746 13.1484C143.136 11.0674 143.099 8.99067 144.114 7.00796C145.539 4.22191 149.39 4.20482 150.994 5.39273C151.993 6.13198 152.436 7.18743 152.527 8.39244C152.582 9.0804 152.481 9.78119 152.477 10.4734C152.477 10.8965 152.264 10.9648 151.905 10.9648C149.983 10.952 148.062 10.9606 146.14 10.9606C145.927 10.9606 145.71 10.9606 145.505 10.9606C145.259 12.8535 146.374 14.3705 148.175 14.4431C149.315 14.4859 150.464 14.2295 151.608 14.0885C151.821 14.0628 152.022 13.9603 152.277 13.8791L152.289 13.8705ZM150.602 9.43507C150.673 8.33689 150.614 7.30708 149.662 6.70884C148.73 6.11916 147.69 6.18753 146.754 6.74303C145.781 7.31989 145.518 8.30698 145.472 9.43507H150.606H150.602Z" fill="white"/>
<path d="M105.802 14.1738C105.802 14.5883 105.823 15.0156 105.79 15.4387C105.781 15.5583 105.639 15.7335 105.527 15.772C104.42 16.1224 103.296 16.2762 102.164 15.913C101.157 15.5925 100.551 14.8575 100.509 13.8063C100.43 11.7595 100.447 9.71273 100.426 7.66165C100.426 7.37963 100.426 7.09761 100.426 6.73012C99.8828 6.73012 99.4107 6.7173 98.9345 6.73012C98.617 6.74294 98.4708 6.64466 98.4583 6.28572C98.4207 5.32428 98.404 5.32428 99.3188 5.17045C99.6906 5.11062 100.067 5.06789 100.472 5.01234C100.56 4.209 100.697 3.43985 100.714 2.67069C100.731 2.03828 100.969 1.84172 101.55 1.91863C101.859 1.96136 102.176 1.92718 102.552 1.92718V4.96961H105.644V6.70021H102.611C102.594 6.93523 102.569 7.11043 102.569 7.28562C102.569 9.13159 102.565 10.9733 102.569 12.8193C102.569 13.9303 102.92 14.3063 104.006 14.3106C104.582 14.3106 105.159 14.2251 105.806 14.1738H105.802Z" fill="white"/>
<path d="M142.464 13.9772C142.464 14.4344 142.502 14.8489 142.448 15.2463C142.423 15.4172 142.235 15.6437 142.072 15.7078C140.418 16.3658 138.738 16.4171 137.109 15.6864C135.538 14.9814 134.803 13.6011 134.573 11.9261C134.348 10.2981 134.394 8.6871 135.171 7.20007C136.01 5.58912 137.426 4.85415 139.148 4.77723C139.954 4.73877 140.768 4.92252 141.575 5.03789C142.172 5.12335 142.502 5.44811 142.381 6.12753C142.339 6.36255 142.373 6.60611 142.373 6.84968C141.579 6.74712 140.852 6.60184 140.121 6.57193C138.02 6.47792 136.967 7.33681 136.754 9.42635C136.662 10.3493 136.733 11.3108 136.883 12.2295C137.092 13.5029 138.028 14.2934 139.336 14.3276C140.204 14.3489 141.078 14.1866 141.951 14.0968C142.105 14.0797 142.251 14.0327 142.464 13.9857V13.9772Z" fill="white"/>
<path d="M122.783 14.2422C122.783 14.7208 122.796 15.1481 122.775 15.5711C122.771 15.6651 122.679 15.7933 122.591 15.8446C121.538 16.4727 119.721 15.9771 119.232 14.8917C119.057 14.4986 118.977 14.0243 118.973 13.5884C118.952 9.18713 118.961 4.79012 118.961 0.38885C118.961 0.269204 118.99 0.153831 119.007 0H121.074V0.713605C121.074 4.76449 121.074 8.81537 121.074 12.8705C121.074 14.1909 121.162 14.2764 122.428 14.2465C122.507 14.2465 122.587 14.2465 122.779 14.2465L122.783 14.2422Z" fill="white"/>
<path d="M71.6875 5.02524H73.4086C73.4922 5.49955 73.5757 5.9525 73.6551 6.37981C74.2984 5.95677 74.8916 5.46537 75.56 5.1577C76.2326 4.84577 76.9845 4.76885 77.7532 5.02951V6.86266C77.043 6.90112 76.3538 6.93103 75.6686 6.97804C75.4932 6.99086 75.3136 7.04641 75.1465 7.10623C73.8347 7.58054 73.7512 7.70446 73.7512 9.11031C73.7512 11.1357 73.7512 13.1612 73.7512 15.1866C73.7512 15.4088 73.7512 15.631 73.7512 15.9002H71.6875V5.02524Z" fill="white"/>
</g>
<defs>
<clipPath id="clip0_3879_645">
<rect width="109.35" height="20.3441" fill="white" transform="translate(43.1992)"/>
</clipPath>
</defs>
</svg>
