<svg width="247" height="200" viewBox="0 0 247 200" fill="none" xmlns="http://www.w3.org/2000/svg">
    <path opacity="0.4545" d="M410.508 90.4565C556.836 90.4565 675.458 -28.1653 675.458 -174.493C675.458 -320.82 556.836 -439.442 410.508 -439.442C264.181 -439.442 145.559 -320.82 145.559 -174.493C145.559 -28.1653 264.181 90.4565 410.508 90.4565Z" stroke="white" stroke-opacity="0.27" stroke-width="1.0455" stroke-miterlimit="10"/>
    <path opacity="0.3636" d="M410.49 126.591C576.776 126.591 711.577 -8.20993 711.577 -174.496C711.577 -340.782 576.776 -475.583 410.49 -475.583C244.204 -475.583 109.403 -340.782 109.403 -174.496C109.403 -8.20993 244.204 126.591 410.49 126.591Z" stroke="white" stroke-opacity="0.27" stroke-width="0.8864" stroke-miterlimit="10"/>
    <path opacity="0.2727" d="M410.539 162.728C596.784 162.728 747.764 11.7473 747.764 -174.497C747.764 -360.741 596.784 -511.722 410.539 -511.722C224.295 -511.722 73.3147 -360.741 73.3147 -174.497C73.3147 11.7473 224.295 162.728 410.539 162.728Z" stroke="white" stroke-opacity="0.27" stroke-width="0.7273" stroke-miterlimit="10"/>
    <path opacity="0.1818" d="M410.519 195.297C616.721 195.297 783.881 28.1373 783.881 -178.065C783.881 -384.267 616.721 -551.427 410.519 -551.427C204.316 -551.427 37.1564 -384.267 37.1564 -178.065C37.1564 28.1373 204.316 195.297 410.519 195.297Z" stroke="white" stroke-opacity="0.27" stroke-width="0.5682" stroke-miterlimit="10"/>
    <path opacity="0.0909091" d="M410.5 235C636.661 235 820 51.6606 820 -174.5C820 -400.661 636.661 -584 410.5 -584C184.339 -584 1 -400.661 1 -174.5C1 51.6606 184.339 235 410.5 235Z" stroke="white" stroke-opacity="0.27" stroke-width="0.4091" stroke-miterlimit="10"/>
    <path d="M179.936 22.4949C179.416 24.4365 180.554 26.4062 182.497 26.9267C184.439 27.4472 186.41 26.3104 186.93 24.3688C187.45 22.4272 186.312 20.4575 184.37 19.9369C182.492 19.4338 180.457 20.5533 179.936 22.4949Z" fill="white"/>
    <path d="M221.605 150.138C224.861 149.944 227.341 147.147 227.145 143.893C226.949 140.638 224.151 138.158 220.895 138.353C217.639 138.548 215.159 141.344 215.355 144.599C215.551 147.853 218.349 150.333 221.605 150.138Z" fill="#FFBD70"/>
</svg>
