<svg width="226" height="130" viewBox="0 0 226 130" fill="none" xmlns="http://www.w3.org/2000/svg">
<path opacity="0.4545" d="M-0.495605 372.404C80.0828 372.404 145.405 307.082 145.405 226.504C145.405 145.925 80.0828 80.6038 -0.495605 80.6038C-81.074 80.6038 -146.396 145.925 -146.396 226.504C-146.396 307.082 -81.074 372.404 -0.495605 372.404Z" stroke="white" stroke-opacity="0.27" stroke-width="1.0455" stroke-miterlimit="10"/>
<path opacity="0.3636" d="M-0.505539 392.302C91.0634 392.302 165.295 318.071 165.295 226.502C165.295 134.933 91.0634 60.7021 -0.505539 60.7021C-92.0744 60.7021 -166.306 134.933 -166.306 226.502C-166.306 318.071 -92.0744 392.302 -0.505539 392.302Z" stroke="white" stroke-opacity="0.27" stroke-width="0.8864" stroke-miterlimit="10"/>
<path opacity="0.2727" d="M-0.478378 412.202C102.081 412.202 185.222 329.061 185.222 226.502C185.222 123.942 102.081 40.8016 -0.478378 40.8016C-103.038 40.8016 -186.178 123.942 -186.178 226.502C-186.178 329.061 -103.038 412.202 -0.478378 412.202Z" stroke="white" stroke-opacity="0.27" stroke-width="0.7273" stroke-miterlimit="10"/>
<path opacity="0.1818" d="M-0.490112 430.137C113.06 430.137 205.11 338.087 205.11 224.537C205.11 110.987 113.06 18.937 -0.490112 18.937C-114.04 18.937 -206.09 110.987 -206.09 224.537C-206.09 338.087 -114.04 430.137 -0.490112 430.137Z" stroke="white" stroke-opacity="0.27" stroke-width="0.5682" stroke-miterlimit="10"/>
<path opacity="0.0909091" d="M-0.500015 452C124.04 452 225 351.04 225 226.5C225 101.96 124.04 1 -0.500015 1C-125.04 1 -226 101.96 -226 226.5C-226 351.04 -125.04 452 -0.500015 452Z" stroke="white" stroke-opacity="0.27" stroke-width="0.4091" stroke-miterlimit="10"/>
<circle cx="-0.978218" cy="225.081" r="127.665" fill="#7950ED"/>
<path d="M152.428 124.05C154.296 123.938 155.719 122.334 155.606 120.467C155.494 118.6 153.888 117.177 152.021 117.289C150.153 117.401 148.73 119.005 148.843 120.872C148.955 122.739 150.56 124.161 152.428 124.05Z" fill="#F85B6E"/>
<path d="M58.6455 92.4098C57.687 95.1639 54.7157 96.6 51.9601 95.641C49.2045 94.682 47.7669 91.7115 48.7254 88.9574C49.6839 86.2033 52.6552 84.7672 55.4107 85.7262C58.0745 86.6533 59.604 89.6557 58.6455 92.4098Z" fill="#20A4F3"/>
</svg>
