<svg width="235" height="198" viewBox="0 0 235 198" fill="none" xmlns="http://www.w3.org/2000/svg">
<path opacity="0.4545" d="M410.509 52.4565C556.836 52.4565 675.458 -66.1653 675.458 -212.493C675.458 -358.82 556.836 -477.442 410.509 -477.442C264.181 -477.442 145.559 -358.82 145.559 -212.493C145.559 -66.1653 264.181 52.4565 410.509 52.4565Z" stroke="white" stroke-opacity="0.27" stroke-width="1.0455" stroke-miterlimit="10"/>
<path opacity="0.3636" d="M410.49 88.5914C576.776 88.5914 711.577 -46.2099 711.577 -212.496C711.577 -378.782 576.776 -513.583 410.49 -513.583C244.204 -513.583 109.403 -378.782 109.403 -212.496C109.403 -46.2099 244.204 88.5914 410.49 88.5914Z" stroke="white" stroke-opacity="0.27" stroke-width="0.8864" stroke-miterlimit="10"/>
<path opacity="0.2727" d="M410.539 124.728C596.784 124.728 747.764 -26.2527 747.764 -212.497C747.764 -398.741 596.784 -549.722 410.539 -549.722C224.295 -549.722 73.3147 -398.741 73.3147 -212.497C73.3147 -26.2527 224.295 124.728 410.539 124.728Z" stroke="white" stroke-opacity="0.27" stroke-width="0.7273" stroke-miterlimit="10"/>
<path opacity="0.1818" d="M410.518 157.297C616.721 157.297 783.881 -9.86273 783.881 -216.065C783.881 -422.267 616.721 -589.427 410.518 -589.427C204.316 -589.427 37.1562 -422.267 37.1562 -216.065C37.1562 -9.86273 204.316 157.297 410.518 157.297Z" stroke="white" stroke-opacity="0.27" stroke-width="0.5682" stroke-miterlimit="10"/>
<path opacity="0.0909091" d="M410.5 197C636.661 197 820 13.6606 820 -212.5C820 -438.661 636.661 -622 410.5 -622C184.339 -622 1 -438.661 1 -212.5C1 13.6606 184.339 197 410.5 197Z" stroke="white" stroke-opacity="0.27" stroke-width="0.4091" stroke-miterlimit="10"/>
<path d="M221.503 110.435C223.817 110.297 225.581 108.309 225.441 105.995C225.302 103.681 223.313 101.917 220.998 102.056C218.683 102.195 216.919 104.183 217.059 106.497C217.198 108.81 219.188 110.574 221.503 110.435Z" fill="#FFBD70"/>
<path d="M157.295 10.8589C156.977 12.0461 157.673 13.2504 158.861 13.5687C160.048 13.887 161.253 13.1918 161.571 12.0047C161.889 10.8175 161.194 9.61318 160.006 9.29491C158.858 8.98725 157.613 9.67175 157.295 10.8589Z" fill="white"/>
</svg>
