<svg width="130" height="27" viewBox="0 0 130 27" fill="none" xmlns="http://www.w3.org/2000/svg">
<path d="M0 13.2201C0 20.0386 4.99505 25.6395 11.4221 26.4222V0.0180664C4.99505 0.800797 0 6.40167 0 13.2201Z" fill="#7950ED"/>
<path d="M25.9299 13.2195C25.9299 6.36621 20.8837 0.730549 14.3884 0V26.4563H25.9129V13.5847C25.9299 13.463 25.9299 13.3412 25.9299 13.2195Z" fill="#7950ED"/>
<path d="M37.4297 13.2373C38.8276 13.2373 39.7823 13.9157 40.2938 14.6462V13.3765H42.51V22.23H40.2938V20.9429C39.7823 21.7082 38.7935 22.3866 37.4126 22.3866C35.2135 22.3866 33.4575 20.5428 33.4575 17.7771C33.4575 15.0115 35.2135 13.2373 37.4297 13.2373ZM37.9923 15.2028C36.816 15.2028 35.7079 16.1073 35.7079 17.7771C35.7079 19.447 36.816 20.421 37.9923 20.421C39.2027 20.421 40.2938 19.4992 40.2938 17.8119C40.2938 16.1247 39.2027 15.2028 37.9923 15.2028Z" fill="white"/>
<path d="M56.8803 17.3425C56.8803 15.9336 56.1131 15.203 54.9539 15.203C53.7776 15.203 53.0104 15.9336 53.0104 17.3425V22.2302H50.8112V17.3425C50.8112 15.9336 50.0441 15.203 48.8848 15.203C47.6914 15.203 46.9243 15.9336 46.9243 17.3425V22.2302H44.7251V13.3766H46.9243V14.4551C47.4698 13.7245 48.3904 13.2549 49.4815 13.2549C50.8283 13.2549 51.9364 13.8463 52.5331 14.9421C53.0957 13.9333 54.2379 13.2549 55.5165 13.2549C57.5963 13.2549 59.0795 14.5942 59.0795 17.0468V22.2476H56.8803V17.3425Z" fill="white"/>
<path d="M66.3089 13.2373C68.5421 13.2373 70.281 15.0115 70.281 17.7771C70.281 20.5428 68.5421 22.3866 66.3089 22.3866C64.945 22.3866 63.9733 21.6908 63.4448 20.9776V26.4568H61.2456V13.3765H63.4448V14.6636C63.9562 13.8983 64.9621 13.2373 66.3089 13.2373ZM65.7292 15.2028C64.5529 15.2028 63.4448 16.1247 63.4448 17.8119C63.4448 19.4992 64.5529 20.421 65.7292 20.421C66.9226 20.421 68.0307 19.4644 68.0307 17.7771C68.0307 16.0899 66.9226 15.2028 65.7292 15.2028Z" fill="white"/>
<path d="M71.9519 10.4021H74.1511V22.2474H71.9519V10.4021Z" fill="white"/>
<path d="M76.1455 11.0109C76.1455 10.2803 76.7081 9.7063 77.4923 9.7063C78.2595 9.7063 78.8391 10.2803 78.8391 11.0109C78.8391 11.7414 78.2595 12.3154 77.4923 12.3154C76.7081 12.3154 76.1455 11.7414 76.1455 11.0109ZM76.3842 13.3764H78.5834V22.23H76.3842V13.3764Z" fill="white"/>
<path d="M84.5512 13.2373C86.7163 13.2373 88.1654 14.3853 88.6427 16.3682H86.273C86.0173 15.6203 85.4377 15.1333 84.5342 15.1333C83.3067 15.1333 82.4884 16.0725 82.4884 17.8119C82.4884 19.5339 83.3067 20.4732 84.5342 20.4732C85.4377 20.4732 86.0003 20.0558 86.273 19.2556H88.6427C88.1654 21.1516 86.7163 22.3866 84.5512 22.3866C82.0452 22.3866 80.2551 20.595 80.2551 17.8119C80.2551 15.0289 82.0452 13.2373 84.5512 13.2373Z" fill="white"/>
<path d="M93.738 13.2373C95.136 13.2373 96.0907 13.9157 96.6021 14.6462V13.3765H98.8183V22.23H96.6021V20.9429C96.0907 21.7082 95.1019 22.3866 93.721 22.3866C91.5218 22.3866 89.7659 20.5428 89.7659 17.7771C89.7659 15.0115 91.5218 13.2373 93.738 13.2373ZM94.3006 15.2028C93.1243 15.2028 92.0162 16.1073 92.0162 17.7771C92.0162 19.447 93.1243 20.421 94.3006 20.421C95.511 20.421 96.6021 19.4992 96.6021 17.8119C96.6021 16.1247 95.511 15.2028 94.3006 15.2028Z" fill="white"/>
<path d="M101.393 15.2202H100.354V13.3765H101.393V11.1848H103.61V13.3765H105.553V15.2202H103.593V19.4992C103.593 20.0906 103.831 20.3515 104.513 20.3515H105.536V22.2474H104.155C102.502 22.2474 101.376 21.5343 101.376 19.4992V15.2202H101.393Z" fill="white"/>
<path d="M106.968 11.0109C106.968 10.2803 107.531 9.7063 108.315 9.7063C109.082 9.7063 109.662 10.2803 109.662 11.0109C109.662 11.7414 109.082 12.3154 108.315 12.3154C107.531 12.3154 106.968 11.7414 106.968 11.0109ZM107.207 13.3764H109.406V22.23H107.207V13.3764Z" fill="white"/>
<path d="M115.492 22.3866C112.986 22.3866 111.094 20.595 111.094 17.8119C111.094 15.0115 113.054 13.2373 115.56 13.2373C118.066 13.2373 120.027 15.0115 120.027 17.8119C120.027 20.595 118.032 22.3866 115.492 22.3866ZM115.492 20.4384C116.651 20.4384 117.759 19.5687 117.759 17.8119C117.759 16.0377 116.685 15.1854 115.509 15.1854C114.333 15.1854 113.293 16.0377 113.293 17.8119C113.327 19.5687 114.316 20.4384 115.492 20.4384Z" fill="white"/>
<path d="M127.801 17.3423C127.801 15.916 127.034 15.1506 125.874 15.1506C124.681 15.1506 123.914 15.916 123.914 17.3423V22.23H121.715V13.3765H123.914V14.4723C124.476 13.7243 125.414 13.2373 126.539 13.2373C128.568 13.2373 130 14.5766 130 17.0292V22.23H127.801V17.3423Z" fill="white"/>
</svg>
