<svg width="243" height="50" viewBox="0 0 243 50" fill="none" xmlns="http://www.w3.org/2000/svg">
<g clip-path="url(#clip0_2_11)">
<path d="M35.6637 19.346C36.2269 18.9994 36.7519 18.5943 37.2301 18.1374C37.3233 18.0477 37.4107 17.958 37.4993 17.8682C37.8338 17.5278 38.1424 17.1628 38.4223 16.7762C38.7072 16.3833 38.9519 15.9628 39.153 15.5211C39.4332 14.9187 39.6052 14.2717 39.6611 13.6098C39.8348 11.35 38.4957 9.10309 35.5099 7.29087L23.4874 0L9.47209 13.428L0.348022 22.1686L13.0045 29.8487C15.0313 31.0896 17.3594 31.7515 19.7359 31.7623C22.6402 31.7623 25.4232 30.7368 27.4767 28.7684C29.7096 26.6287 30.4508 23.8596 29.0733 21.5579C28.8488 21.1847 28.583 20.8379 28.2808 20.5242C29.0185 20.6886 29.7719 20.7727 30.5277 20.7748H30.5475C31.7833 20.7769 33.0086 20.5481 34.1603 20.1C34.6829 19.894 35.1861 19.6416 35.6637 19.346ZM23.9408 26.3152C21.6892 28.4724 18.0671 28.7905 15.1186 27.0028L6.36275 21.6885L14.2223 14.154L23.1285 19.5604C26.338 21.5102 26.1609 24.1941 23.9408 26.3198V26.3152ZM24.9827 16.7343L16.749 11.7404L24.2543 4.54514L32.3388 9.45272C35.3619 11.2859 35.7546 13.7706 33.5683 15.8625C32.4343 16.9352 30.9775 17.6028 29.4246 17.7613C27.8717 17.9199 26.31 17.5604 24.9827 16.7389V16.7343ZM28.4626 38.8772C26.1819 41.0624 23.0819 42.2663 19.7359 42.2663C17.0985 42.2556 14.5145 41.5224 12.2644 40.1464L0.348022 32.9243V35.7994L13.0045 43.4806C15.0313 44.7215 17.3594 45.3834 19.7359 45.3943C22.6402 45.3943 25.4232 44.3675 27.4767 42.4003C28.9777 40.9622 29.8075 39.2385 29.7702 37.565V37.3564C29.3857 37.9081 28.9477 38.4207 28.4626 38.8866V38.8772ZM28.4626 34.3321C26.1819 36.5184 23.0819 37.7223 19.7359 37.7223C17.0985 37.7116 14.5145 36.9784 12.2644 35.6024L0.348022 28.3803V31.2566L13.0045 38.9378C15.0314 40.1784 17.3595 40.8398 19.7359 40.8503C22.6402 40.8503 25.4232 39.8247 27.4767 37.8575C28.9777 36.4182 29.8075 34.6957 29.7702 33.021V32.8124C29.3863 33.3646 28.9482 33.8772 28.4626 34.3426V34.3321ZM28.4626 29.787C26.1819 31.9733 23.0819 33.1772 19.7359 33.1772C17.0985 33.1665 14.5145 32.4333 12.2644 31.0573L0.348022 23.8375V26.7137L13.0045 34.395C15.0314 35.6356 17.3595 36.297 19.7359 36.3075C22.6402 36.3075 25.4232 35.2819 27.4767 33.3135C28.9777 31.8754 29.8075 30.1529 29.7702 28.4782V28.2661C29.3863 28.8194 28.9483 29.3332 28.4626 29.7998V29.787ZM38.216 32.7867C36.3139 34.5986 33.8249 35.6679 31.2013 35.8005V38.925C33.4568 38.7996 35.5939 37.8754 37.2301 36.318C38.8616 34.7586 39.6949 33.042 39.6774 31.3486V31.0922C39.2494 31.7094 38.7597 32.2814 38.216 32.7996V32.7867ZM28.4626 43.4165C26.1819 45.6017 23.0819 46.8068 19.7359 46.8068C17.0983 46.7962 14.5141 46.0626 12.2644 44.6857L0.348022 37.4671V40.3422L13.0045 48.0234C15.0313 49.2643 17.3594 49.9262 19.7359 49.9371C22.6402 49.9371 25.4232 48.9103 27.4767 46.9431C28.9777 45.505 29.8075 43.7813 29.7702 42.1078V41.8992C29.386 42.4512 28.948 42.9637 28.4626 43.4294V43.4165ZM38.4561 18.9183C38.3768 18.9987 38.2987 19.0791 38.216 19.1572C37.4405 19.8828 36.5687 20.4981 35.6253 20.9857C34.6612 21.4721 33.6308 21.8141 32.5672 22.0008C32.0223 22.1018 31.4708 22.163 30.917 22.1838C30.9753 22.3714 31.0219 22.5625 31.0627 22.7548C31.1599 23.2144 31.2041 23.6837 31.1943 24.1533V25.2896H31.2002C32.2142 25.2288 33.2128 25.0114 34.1603 24.6451C35.303 24.1982 36.3474 23.5323 37.2347 22.6849C37.3291 22.5952 37.4107 22.5031 37.4993 22.4122C37.8338 22.0714 38.1424 21.706 38.4223 21.319C38.7077 20.9256 38.9533 20.5048 39.1553 20.0627C39.4346 19.4587 39.6051 18.8101 39.6588 18.1468C39.6693 18.0034 39.6821 17.8589 39.6809 17.7155V17.4825C39.597 17.599 39.5085 17.7225 39.4176 17.8426C39.1205 18.2254 38.7993 18.589 38.4561 18.9311V18.9183ZM38.4561 27.9992C38.3768 28.0808 38.3046 28.1635 38.223 28.2439C36.3211 30.056 33.8319 31.125 31.2083 31.2566V34.3799C33.4636 34.254 35.6006 33.3299 37.2371 31.7728C38.0386 31.0297 38.6905 30.14 39.1577 29.1518C39.4368 28.5477 39.6073 27.8991 39.6611 27.2359C39.6716 27.0913 39.6844 26.9468 39.6833 26.8035V26.5471C39.597 26.673 39.512 26.7988 39.4187 26.9224C39.1204 27.3063 38.7972 27.6703 38.4514 28.012L38.4561 27.9992ZM38.4561 23.4541C38.3768 23.5357 38.3046 23.6184 38.223 23.6988C37.836 24.0651 37.4223 24.402 36.9853 24.7069C36.5539 25.0113 36.1009 25.2839 35.6299 25.5227C34.254 26.2199 32.7484 26.6239 31.2083 26.7091H31.2025V29.8173C33.4579 29.6915 35.5949 28.7674 37.2312 27.2102C37.3256 27.1205 37.4072 27.0284 37.4958 26.9375C37.8303 26.5967 38.1389 26.2313 38.4188 25.8443C38.704 25.4512 38.9495 25.0307 39.1518 24.5892C39.4312 23.9848 39.6016 23.3358 39.6553 22.6721C39.6658 22.5287 39.6786 22.3842 39.6774 22.2409V21.9845C39.5912 22.1103 39.5061 22.2362 39.4129 22.3597C39.1165 22.7498 38.7953 23.1204 38.4514 23.4692L38.4561 23.4541ZM66.5427 13.1005C67.1596 13.1005 67.8235 13.1071 68.5344 13.1203C69.2453 13.1335 69.9492 13.1724 70.6461 13.2368C71.3019 13.297 71.9534 13.397 72.597 13.5363C73.1436 13.6479 73.6675 13.8504 74.1471 14.1354C75.1089 14.7185 75.9271 15.5108 76.5408 16.4534C77.1896 17.4494 77.514 18.6677 77.514 20.1082C77.514 21.6263 77.1453 22.9386 76.408 24.0449C75.6707 25.1513 74.6179 25.9706 73.2497 26.5028V26.5821C75.0196 26.9565 76.3742 27.756 77.3135 28.9805C78.2528 30.205 78.7221 31.6967 78.7213 33.4557C78.7216 34.494 78.5308 35.5235 78.1584 36.4928C77.7876 37.4708 77.2191 38.3619 76.4884 39.1103C75.708 39.8992 74.7781 40.5244 73.7531 40.9494C72.6654 41.4155 71.4114 41.6486 69.9912 41.6486H56.1145V13.1156L66.5427 13.1005ZM67.5916 25.3689C69.767 25.3689 71.3291 24.9889 72.2777 24.2291C73.2264 23.4692 73.7026 22.3306 73.7065 20.8132C73.7065 19.8032 73.5457 19.0037 73.224 18.4148C72.9178 17.8459 72.4573 17.3749 71.8955 17.0559C71.2892 16.7281 70.6243 16.5229 69.9387 16.4522C69.1581 16.3564 68.3722 16.3097 67.5857 16.3124H59.9406V25.384L67.5916 25.3689ZM69.5227 38.4367C71.2118 38.4367 72.5326 37.9837 73.4851 37.0778C74.4376 36.1719 74.91 34.923 74.9023 33.331C74.9023 32.3987 74.7282 31.6264 74.3801 31.0141C74.0473 30.419 73.57 29.9172 72.9921 29.555C72.3804 29.1818 71.7053 28.9242 71.0004 28.7952C70.2323 28.6478 69.4517 28.5745 68.6696 28.5761H59.9359V38.4472L69.5227 38.4367ZM101.547 41.553C100.956 41.8988 100.138 42.072 99.0929 42.0728C98.2071 42.0728 97.5032 41.8265 96.9811 41.3339C96.459 40.8414 96.1972 40.0353 96.1956 38.9157C95.3243 39.9854 94.1966 40.8173 92.9173 41.3339C90.771 42.1465 88.4294 42.2928 86.1987 41.7535C85.4095 41.566 84.6645 41.2263 84.0053 40.7536C83.3763 40.2946 82.8683 39.6894 82.5253 38.9903C82.164 38.2584 81.983 37.3727 81.9822 36.3331C81.9822 35.1607 82.1834 34.2016 82.5859 33.4557C82.9668 32.7341 83.5112 32.1115 84.1755 31.6376C84.8602 31.1581 85.6222 30.7998 86.4282 30.5783C87.2736 30.339 88.1387 30.1393 89.0236 29.9793C89.9622 29.7928 90.8557 29.6529 91.7041 29.5597C92.4575 29.4833 93.204 29.3497 93.937 29.16C94.5815 28.9875 95.0896 28.7346 95.4661 28.4013C95.8425 28.068 96.029 27.5855 96.029 26.9422C96.029 26.1963 95.8884 25.5969 95.6071 25.1439C95.3425 24.7081 94.9679 24.3496 94.5209 24.1044C94.0565 23.8585 93.5523 23.6963 93.0315 23.6254C92.4912 23.547 91.9459 23.5081 91.3999 23.5088C89.9525 23.5088 88.7455 23.7808 87.779 24.3246C86.8125 24.8685 86.2888 25.9007 86.208 27.4212H82.7886C82.8423 26.1423 83.1103 25.0635 83.5928 24.1848C84.056 23.3276 84.7182 22.5942 85.5239 22.0462C86.362 21.4866 87.2965 21.0871 88.2801 20.868C89.3692 20.6229 90.4829 20.5032 91.5992 20.5114C92.5351 20.5115 93.4698 20.5785 94.3962 20.7118C95.2769 20.83 96.1289 21.1064 96.9112 21.5276C97.6584 21.9346 98.2842 22.5326 98.7246 23.2606C99.1807 24.0041 99.4087 24.9753 99.4087 26.1742V36.7795C99.4087 37.5766 99.4557 38.1613 99.5497 38.5334C99.6437 38.9056 99.9588 39.0917 100.495 39.0917C100.85 39.0836 101.202 39.0299 101.544 38.932L101.547 41.553ZM95.9952 30.9629C95.5651 31.2822 95.0022 31.5129 94.3053 31.6621C93.6084 31.8113 92.8765 31.9267 92.112 32.0199C91.3475 32.1131 90.5771 32.2192 89.7986 32.3381C89.0778 32.4403 88.3729 32.6337 87.7009 32.9138C87.1109 33.159 86.5922 33.549 86.1928 34.0477C85.8044 34.5388 85.6101 35.2081 85.6101 36.0558C85.5941 36.5486 85.7126 37.0364 85.9528 37.4671C86.1716 37.842 86.4744 38.1611 86.8373 38.3994C87.2244 38.6487 87.6543 38.8241 88.1053 38.9169C88.6074 39.0248 89.1196 39.0779 89.6332 39.0754C90.7597 39.0754 91.7255 38.9231 92.5304 38.6185C93.2539 38.361 93.9224 37.9696 94.5011 37.4647C94.9784 37.044 95.3623 36.5279 95.6281 35.9497C95.8547 35.4702 95.9781 34.9485 95.9905 34.4183L95.9952 30.9629ZM117.146 24.5904C116.288 23.8717 115.134 23.512 113.686 23.5112C112.452 23.5112 111.419 23.7377 110.589 24.1906C109.787 24.6168 109.102 25.2345 108.597 25.9889C108.084 26.7743 107.722 27.6486 107.531 28.5668C107.314 29.5575 107.206 30.5688 107.209 31.5829C107.207 32.5257 107.322 33.4652 107.55 34.3799C107.76 35.2425 108.121 36.0609 108.617 36.797C109.102 37.5062 109.751 38.0889 110.508 38.4961C111.285 38.9227 112.21 39.1356 113.284 39.1348C114.974 39.1348 116.295 38.6954 117.247 37.8167C118.198 36.938 118.781 35.6991 118.995 34.1002H122.491C122.116 36.6571 121.157 38.6286 119.615 40.0147C118.073 41.4008 115.975 42.0934 113.321 42.0926C111.739 42.0926 110.338 41.8393 109.118 41.3328C107.947 40.8586 106.902 40.1185 106.067 39.1709C105.226 38.1983 104.596 37.0623 104.216 35.8343C103.786 34.4586 103.574 33.0241 103.588 31.5829C103.577 30.1157 103.78 28.6548 104.192 27.2463C104.561 25.9637 105.183 24.7681 106.022 23.7303C106.853 22.7181 107.905 21.9099 109.097 21.368C110.333 20.7969 111.77 20.5114 113.409 20.5114C114.529 20.5037 115.645 20.6448 116.728 20.9309C117.714 21.1884 118.642 21.6292 119.464 22.2304C120.262 22.8239 120.927 23.5782 121.415 24.4447C121.924 25.3374 122.246 26.3964 122.381 27.6216H118.841C118.569 26.3163 118.004 25.3059 117.146 24.5904ZM129.939 13.1215V30.02L139.434 20.9892H144.021L135.773 28.5015L144.625 41.6498H140.279L133.158 30.8591L129.939 33.817V41.6498H126.52V13.1156L129.939 13.1215ZM149.814 37.0382C150.127 37.5497 150.563 37.9754 151.081 38.277C151.63 38.5937 152.229 38.8166 152.851 38.9367C153.52 39.0713 154.201 39.1381 154.884 39.136C155.449 39.1347 156.014 39.0958 156.574 39.0194C157.135 38.9477 157.684 38.7995 158.205 38.5789C158.687 38.3778 159.11 38.0569 159.432 37.6466C159.754 37.2332 159.915 36.7068 159.915 36.0674C159.915 35.1887 159.58 34.5228 158.909 34.0699C158.135 33.5711 157.286 33.2 156.394 32.9709C155.389 32.6912 154.296 32.4379 153.116 32.211C151.993 32.0022 150.895 31.6808 149.836 31.2519C148.876 30.8675 148.016 30.2684 147.323 29.5003C146.651 28.7544 146.316 27.7152 146.317 26.3828C146.317 25.3432 146.55 24.4497 147.016 23.7023C147.474 22.9671 148.093 22.3452 148.826 21.8831C149.596 21.4041 150.438 21.0534 151.32 20.8447C152.224 20.6231 153.151 20.5111 154.082 20.5114C155.177 20.5029 156.27 20.6036 157.345 20.8121C158.282 20.9889 159.176 21.3412 159.981 21.8505C160.752 22.3496 161.382 23.0377 161.811 23.8491C162.267 24.6883 162.536 25.7336 162.616 26.9853H159.196C159.142 26.3194 158.968 25.7667 158.674 25.3269C158.384 24.8928 157.998 24.5308 157.547 24.2687C157.078 23.9962 156.569 23.7996 156.039 23.686C155.49 23.5669 154.93 23.5067 154.369 23.5065C153.85 23.5058 153.332 23.5448 152.82 23.6231C152.326 23.6947 151.845 23.8359 151.391 24.0426C150.984 24.2236 150.625 24.4974 150.342 24.8421C150.073 25.1754 149.939 25.6082 149.939 26.1404C149.932 26.4142 149.984 26.6864 150.092 26.9382C150.2 27.19 150.361 27.4156 150.564 27.5995C151.028 28.0158 151.567 28.3412 152.152 28.5586C152.858 28.8299 153.584 29.0434 154.324 29.1973C155.13 29.3713 155.935 29.5512 156.739 29.7368C157.594 29.9233 158.432 30.1498 159.253 30.4163C160.025 30.6616 160.757 31.0193 161.424 31.478C162.049 31.912 162.571 32.4782 162.953 33.1364C163.342 33.803 163.536 34.6289 163.536 35.6141C163.536 36.8673 163.274 37.9064 162.752 38.7316C162.235 39.5504 161.532 40.235 160.699 40.7291C159.818 41.2492 158.85 41.6079 157.843 41.7885C156.802 41.9862 155.744 42.0865 154.685 42.088C153.575 42.0928 152.468 41.9719 151.385 41.7278C150.393 41.5127 149.449 41.1131 148.605 40.5496C147.795 39.9977 147.132 39.2569 146.673 38.3913C146.191 37.4985 145.923 36.4128 145.869 35.1339H149.289C149.294 35.8019 149.475 36.4567 149.814 37.0324V37.0382ZM176.206 20.9939V23.9913H172.062V36.8133C172.053 37.1361 172.088 37.4586 172.164 37.7724C172.22 37.9984 172.356 38.1966 172.546 38.3318C172.782 38.4815 173.051 38.5708 173.33 38.5917C173.764 38.6362 174.201 38.656 174.638 38.6511H176.206V41.6486H173.591C172.83 41.6587 172.069 41.5982 171.319 41.468C170.761 41.3811 170.235 41.1546 169.79 40.8095C169.375 40.4507 169.074 39.9783 168.925 39.4506C168.736 38.8648 168.642 38.0921 168.643 37.1326V23.9855H165.102V20.988H168.643V14.7938H172.062V20.988L176.206 20.9939ZM198.415 41.5682C197.823 41.9139 197.005 42.0872 195.96 42.088C195.074 42.088 194.371 41.8417 193.848 41.3491C193.326 40.8565 193.065 40.0504 193.063 38.9308C192.192 40.0006 191.064 40.8325 189.785 41.3491C187.638 42.1617 185.297 42.3079 183.066 41.7686C182.277 41.5811 181.532 41.2415 180.873 40.7687C180.246 40.304 179.742 39.6936 179.404 38.9903C179.043 38.2584 178.862 37.3727 178.861 36.3331C178.861 35.1607 179.062 34.2016 179.465 33.4557C179.846 32.7341 180.39 32.1115 181.054 31.6376C181.739 31.1581 182.501 30.7998 183.307 30.5783C184.153 30.339 185.018 30.1393 185.903 29.9793C186.84 29.7928 187.734 29.6529 188.583 29.5597C189.336 29.4833 190.083 29.3497 190.816 29.16C191.461 28.9875 191.969 28.7346 192.345 28.4013C192.722 28.068 192.908 27.5855 192.908 26.9422C192.908 26.1963 192.767 25.5969 192.486 25.1439C192.221 24.7081 191.847 24.3496 191.4 24.1044C190.935 23.8585 190.431 23.6963 189.911 23.6254C189.37 23.547 188.825 23.5081 188.279 23.5088C186.831 23.5088 185.624 23.7808 184.658 24.3246C183.691 24.8685 183.169 25.9007 183.089 27.4212H179.67C179.722 26.1423 179.99 25.0635 180.474 24.1848C180.936 23.328 181.597 22.5946 182.402 22.0462C183.24 21.4866 184.174 21.0871 185.158 20.868C186.247 20.6217 187.361 20.5009 188.477 20.5079C189.413 20.508 190.348 20.575 191.274 20.7083C192.155 20.8265 193.007 21.1029 193.789 21.5241C194.535 21.9322 195.16 22.531 195.599 23.2594C196.055 24.003 196.283 24.9742 196.283 26.173V36.7783C196.283 37.5755 196.33 38.1601 196.424 38.5323C196.518 38.9044 196.833 39.0905 197.369 39.0905C197.724 39.0824 198.077 39.0288 198.418 38.9308L198.415 41.5682ZM192.863 30.978C192.432 31.2973 191.87 31.5281 191.173 31.6773C190.476 31.8264 189.744 31.9418 188.979 32.0351C188.215 32.1283 187.444 32.2343 186.666 32.3532C185.947 32.4559 185.244 32.6494 184.574 32.9289C183.984 33.1742 183.465 33.5642 183.066 34.0629C182.678 34.5539 182.483 35.2233 182.483 36.0709C182.467 36.5637 182.586 37.0516 182.826 37.4822C183.045 37.8572 183.348 38.1763 183.71 38.4146C184.098 38.6638 184.527 38.8393 184.978 38.932C185.481 39.0399 185.993 39.0931 186.506 39.0905C187.634 39.0905 188.599 38.9382 189.404 38.6337C190.127 38.3762 190.796 37.9848 191.374 37.4799C191.852 37.0591 192.236 36.543 192.501 35.9649C192.728 35.4854 192.851 34.9637 192.864 34.4335L192.863 30.978ZM217.202 47.4827C215.648 49.1609 213.208 50 209.88 50C208.886 49.9971 207.895 49.8901 206.923 49.6807C205.961 49.4843 205.037 49.1332 204.187 48.6411C203.38 48.1724 202.686 47.5313 202.156 46.7636C201.619 45.9867 201.323 45.0408 201.27 43.9258H204.69C204.701 44.4969 204.907 45.0471 205.273 45.4852C205.643 45.9161 206.094 46.2691 206.602 46.5236C207.142 46.7968 207.717 46.9929 208.311 47.1063C208.894 47.2231 209.487 47.2836 210.082 47.2869C211.207 47.2869 212.16 47.0927 212.938 46.7042C213.699 46.3303 214.361 45.7811 214.869 45.1017C215.403 44.3674 215.78 43.5306 215.975 42.6439C216.211 41.6084 216.326 40.5489 216.318 39.4868V38.1314H216.236C215.646 39.4102 214.753 40.3495 213.556 40.9494C212.377 41.5448 211.074 41.8527 209.753 41.8479C208.199 41.8479 206.845 41.5682 205.69 41.0088C204.573 40.4762 203.585 39.7057 202.797 38.7514C202.001 37.7718 201.407 36.6446 201.048 35.4346C200.654 34.1322 200.458 32.7781 200.466 31.4174C200.472 30.1438 200.634 28.8757 200.948 27.6414C201.259 26.3773 201.807 25.1837 202.563 24.1242C203.346 23.0437 204.364 22.1554 205.541 21.5265C206.774 20.8466 208.289 20.5067 210.086 20.5067C211.345 20.4937 212.588 20.789 213.707 21.3668C214.809 21.9422 215.707 22.8415 216.282 23.9435H216.322V20.988H219.54V39.89C219.537 43.2736 218.758 45.8045 217.202 47.4827ZM212.837 38.192C213.612 37.7413 214.268 37.1105 214.748 36.3529C215.245 35.5596 215.605 34.6886 215.814 33.7762C216.04 32.8336 216.154 31.8679 216.156 30.8988C216.156 29.9956 216.048 29.0957 215.834 28.2183C215.633 27.3721 215.286 26.5675 214.809 25.8408C214.341 25.1379 213.714 24.556 212.978 24.1428C212.227 23.7163 211.315 23.503 210.242 23.503C209.142 23.503 208.203 23.7097 207.426 24.123C206.667 24.5182 206.013 25.0863 205.514 25.7814C205.004 26.5047 204.636 27.3182 204.428 28.1787C204.198 29.107 204.083 30.0601 204.087 31.0165C204.087 31.9559 204.181 32.8929 204.369 33.8135C204.541 34.7087 204.867 35.5672 205.334 36.3506C205.78 37.1009 206.401 37.7319 207.145 38.1896C207.895 38.6558 208.834 38.8889 209.96 38.8889C211.087 38.8889 212.046 38.6566 212.837 38.192ZM239.408 40.3293C237.854 41.5018 235.896 42.088 233.533 42.088C231.871 42.088 230.429 41.8215 229.208 41.2885C228.027 40.784 226.975 40.0191 226.131 39.0509C225.277 38.047 224.642 36.8766 224.266 35.6141C223.838 34.1999 223.603 32.7346 223.567 31.2577C223.55 29.7888 223.795 28.3286 224.29 26.9457C224.739 25.6909 225.427 24.5349 226.315 23.5415C227.18 22.5874 228.235 21.8252 229.412 21.3039C230.648 20.7653 231.983 20.4952 233.331 20.5114C235.181 20.5114 236.717 20.8913 237.937 21.6512C239.126 22.3791 240.13 23.3703 240.874 24.5484C241.612 25.7236 242.13 27.0232 242.403 28.3838C242.678 29.6858 242.792 31.0164 242.745 32.3462H227.175C227.144 33.2172 227.252 34.0875 227.496 34.9241C227.727 35.7178 228.125 36.4533 228.662 37.0813C229.227 37.7274 229.931 38.2381 230.72 38.5754C231.551 38.9499 232.53 39.1363 233.657 39.1348C235.106 39.1348 236.293 38.8019 237.217 38.136C238.142 37.4702 238.752 36.4578 239.048 35.0989H242.428C241.971 37.4166 240.965 39.16 239.411 40.3293H239.408ZM238.583 27.0622C238.292 26.3658 237.869 25.7325 237.336 25.1975C236.472 24.378 235.39 23.8252 234.219 23.6055C233.049 23.3857 231.84 23.5084 230.738 23.9587C230.048 24.2505 229.425 24.6791 228.907 25.2185C228.393 25.7579 227.984 26.3877 227.7 27.0762C227.402 27.7944 227.225 28.5573 227.177 29.3336H239.126C239.076 28.5513 238.893 27.7833 238.585 27.0622H238.583ZM35.6637 19.346C36.2269 18.9994 36.7519 18.5943 37.2301 18.1374C37.3233 18.0477 37.4107 17.958 37.4993 17.8682C37.8338 17.5278 38.1424 17.1628 38.4223 16.7762C38.7072 16.3833 38.9519 15.9628 39.153 15.5211C39.4332 14.9187 39.6052 14.2717 39.6611 13.6098C39.8348 11.35 38.4957 9.10309 35.5099 7.29087L23.4874 0L9.47209 13.428L0.348022 22.1686L13.0045 29.8487C15.0313 31.0896 17.3594 31.7515 19.7359 31.7623C22.6402 31.7623 25.4232 30.7368 27.4767 28.7684C29.7096 26.6287 30.4508 23.8596 29.0733 21.5579C28.8488 21.1847 28.583 20.8379 28.2808 20.5242C29.0185 20.6886 29.7719 20.7727 30.5277 20.7748H30.5475C31.7833 20.7769 33.0086 20.5481 34.1603 20.1C34.6829 19.894 35.1861 19.6416 35.6637 19.346ZM23.9408 26.3152C21.6892 28.4724 18.0671 28.7905 15.1186 27.0028L6.36275 21.6885L14.2223 14.154L23.1285 19.5604C26.338 21.5102 26.1609 24.1941 23.9408 26.3198V26.3152ZM24.9827 16.7343L16.749 11.7404L24.2543 4.54514L32.3388 9.45272C35.3619 11.2859 35.7546 13.7706 33.5683 15.8625C32.4343 16.9352 30.9775 17.6028 29.4246 17.7613C27.8717 17.9199 26.31 17.5604 24.9827 16.7389V16.7343ZM28.4626 38.8772C26.1819 41.0624 23.0819 42.2663 19.7359 42.2663C17.0985 42.2556 14.5145 41.5224 12.2644 40.1464L0.348022 32.9243V35.7994L13.0045 43.4806C15.0313 44.7215 17.3594 45.3834 19.7359 45.3943C22.6402 45.3943 25.4232 44.3675 27.4767 42.4003C28.9777 40.9622 29.8075 39.2385 29.7702 37.565V37.3564C29.3857 37.9081 28.9477 38.4207 28.4626 38.8866V38.8772ZM28.4626 34.3321C26.1819 36.5184 23.0819 37.7223 19.7359 37.7223C17.0985 37.7116 14.5145 36.9784 12.2644 35.6024L0.348022 28.3803V31.2566L13.0045 38.9378C15.0314 40.1784 17.3595 40.8398 19.7359 40.8503C22.6402 40.8503 25.4232 39.8247 27.4767 37.8575C28.9777 36.4182 29.8075 34.6957 29.7702 33.021V32.8124C29.3863 33.3646 28.9482 33.8772 28.4626 34.3426V34.3321ZM28.4626 29.787C26.1819 31.9733 23.0819 33.1772 19.7359 33.1772C17.0985 33.1665 14.5145 32.4333 12.2644 31.0573L0.348022 23.8375V26.7137L13.0045 34.395C15.0314 35.6356 17.3595 36.297 19.7359 36.3075C22.6402 36.3075 25.4232 35.2819 27.4767 33.3135C28.9777 31.8754 29.8075 30.1529 29.7702 28.4782V28.2661C29.3863 28.8194 28.9483 29.3332 28.4626 29.7998V29.787ZM38.216 32.7867C36.3139 34.5986 33.8249 35.6679 31.2013 35.8005V38.925C33.4568 38.7996 35.5939 37.8754 37.2301 36.318C38.8616 34.7586 39.6949 33.042 39.6774 31.3486V31.0922C39.2494 31.7094 38.7597 32.2814 38.216 32.7996V32.7867ZM28.4626 43.4165C26.1819 45.6017 23.0819 46.8068 19.7359 46.8068C17.0983 46.7962 14.5141 46.0626 12.2644 44.6857L0.348022 37.4671V40.3422L13.0045 48.0234C15.0313 49.2643 17.3594 49.9262 19.7359 49.9371C22.6402 49.9371 25.4232 48.9103 27.4767 46.9431C28.9777 45.505 29.8075 43.7813 29.7702 42.1078V41.8992C29.386 42.4512 28.948 42.9637 28.4626 43.4294V43.4165ZM38.4561 18.9183C38.3768 18.9987 38.2987 19.0791 38.216 19.1572C37.4405 19.8828 36.5687 20.4981 35.6253 20.9857C34.6612 21.4721 33.6308 21.8141 32.5672 22.0008C32.0223 22.1018 31.4708 22.163 30.917 22.1838C30.9753 22.3714 31.0219 22.5625 31.0627 22.7548C31.1599 23.2144 31.2041 23.6837 31.1943 24.1533V25.2896H31.2002C32.2142 25.2288 33.2128 25.0114 34.1603 24.6451C35.303 24.1982 36.3474 23.5323 37.2347 22.6849C37.3291 22.5952 37.4107 22.5031 37.4993 22.4122C37.8338 22.0714 38.1424 21.706 38.4223 21.319C38.7077 20.9256 38.9533 20.5048 39.1553 20.0627C39.4346 19.4587 39.6051 18.8101 39.6588 18.1468C39.6693 18.0034 39.6821 17.8589 39.6809 17.7155V17.4825C39.597 17.599 39.5085 17.7225 39.4176 17.8426C39.1205 18.2254 38.7993 18.589 38.4561 18.9311V18.9183ZM38.4561 27.9992C38.3768 28.0808 38.3046 28.1635 38.223 28.2439C36.3211 30.056 33.8319 31.125 31.2083 31.2566V34.3799C33.4636 34.254 35.6006 33.3299 37.2371 31.7728C38.0386 31.0297 38.6905 30.14 39.1577 29.1518C39.4368 28.5477 39.6073 27.8991 39.6611 27.2359C39.6716 27.0913 39.6844 26.9468 39.6833 26.8035V26.5471C39.597 26.673 39.512 26.7988 39.4187 26.9224C39.1204 27.3063 38.7972 27.6703 38.4514 28.012L38.4561 27.9992ZM38.4561 23.4541C38.3768 23.5357 38.3046 23.6184 38.223 23.6988C37.836 24.0651 37.4223 24.402 36.9853 24.7069C36.5539 25.0113 36.1009 25.2839 35.6299 25.5227C34.254 26.2199 32.7484 26.6239 31.2083 26.7091H31.2025V29.8173C33.4579 29.6915 35.5949 28.7674 37.2312 27.2102C37.3256 27.1205 37.4072 27.0284 37.4958 26.9375C37.8303 26.5967 38.1389 26.2313 38.4188 25.8443C38.704 25.4512 38.9495 25.0307 39.1518 24.5892C39.4312 23.9848 39.6016 23.3358 39.6553 22.6721C39.6658 22.5287 39.6786 22.3842 39.6774 22.2409V21.9845C39.5912 22.1103 39.5061 22.2362 39.4129 22.3597C39.1165 22.7498 38.7953 23.1204 38.4514 23.4692L38.4561 23.4541Z" fill="white"/>
</g>
<defs>
<clipPath id="clip0_2_11">
<rect width="243" height="50" fill="white"/>
</clipPath>
</defs>
</svg>
