<svg width="130" height="50" viewBox="0 0 130 50" fill="none" xmlns="http://www.w3.org/2000/svg">
<g clip-path="url(#clip0_2_5)">
<path d="M122.79 40.5886C121.252 40.5886 119.997 40.1181 119.025 39.177C118.084 38.2043 117.613 36.9181 117.613 35.3181V22.1414H111.778V17.2472H117.613V10H123.543V17.2472H129.943V22.1414H123.543V34.2828C123.543 35.2239 123.982 35.6944 124.86 35.6944H129.378V40.5886H122.79Z" fill="white"/>
<path d="M95.1892 40.589V17.2475H101.025V19.8828H101.872C102.217 18.9416 102.781 18.2514 103.566 17.8122C104.381 17.373 105.323 17.1533 106.389 17.1533H109.213V22.424H106.295C104.789 22.424 103.55 22.8319 102.578 23.6476C101.605 24.4319 101.119 25.6554 101.119 27.3182V40.589H95.1892Z" fill="white"/>
<path d="M79.827 41.247C77.5053 41.247 75.419 40.7763 73.568 39.8351C71.717 38.8939 70.2581 37.5293 69.1915 35.7409C68.1248 33.9528 67.5914 31.8038 67.5914 29.2939V28.5409C67.5914 26.031 68.1248 23.882 69.1915 22.0937C70.2581 20.3055 71.717 18.9407 73.568 17.9995C75.419 17.0583 77.5053 16.5878 79.827 16.5878C82.1485 16.5878 84.2348 17.0583 86.0858 17.9995C87.9369 18.9407 89.3957 20.3055 90.4624 22.0937C91.529 23.882 92.0624 26.031 92.0624 28.5409V29.2939C92.0624 31.8038 91.529 33.9528 90.4624 35.7409C89.3957 37.5293 87.9369 38.8939 86.0858 39.8351C84.2348 40.7763 82.1485 41.247 79.827 41.247ZM79.827 35.9763C81.6465 35.9763 83.1525 35.3959 84.3447 34.2351C85.5369 33.0429 86.1328 31.3488 86.1328 29.1526V28.6821C86.1328 26.4859 85.5369 24.8075 84.3447 23.6467C83.1838 22.4545 81.678 21.8584 79.827 21.8584C78.0073 21.8584 76.5013 22.4545 75.3091 23.6467C74.117 24.8075 73.521 26.4859 73.521 28.6821V29.1526C73.521 31.3488 74.117 33.0429 75.3091 34.2351C76.5013 35.3959 78.0073 35.9763 79.827 35.9763Z" fill="white"/>
<path d="M41.0678 50V17.2466H46.9032V20.0702H47.7504C48.2837 19.1603 49.115 18.3603 50.2445 17.6701C51.3739 16.9485 52.9897 16.5878 55.0917 16.5878C56.9741 16.5878 58.7152 17.0583 60.3152 17.9995C61.9152 18.9094 63.2016 20.2584 64.1741 22.0467C65.1468 23.8349 65.6329 25.9997 65.6329 28.5409V29.2939C65.6329 31.8351 65.1468 33.9998 64.1741 35.7881C63.2016 37.5763 61.9152 38.9411 60.3152 39.8823C58.7152 40.7921 56.9741 41.247 55.0917 41.247C53.6799 41.247 52.4877 41.0745 51.515 40.7293C50.5739 40.4156 49.8052 40.0078 49.2092 39.5058C48.6445 38.9725 48.1895 38.4391 47.8445 37.9058H46.9974V50H41.0678ZM53.3034 36.0704C55.1544 36.0704 56.6761 35.4899 57.8682 34.3293C59.0917 33.1371 59.7034 31.4116 59.7034 29.1526V28.6821C59.7034 26.4232 59.0917 24.7134 57.8682 23.5526C56.6446 22.3604 55.1231 21.7643 53.3034 21.7643C51.4837 21.7643 49.9622 22.3604 48.7385 23.5526C47.515 24.7134 46.9032 26.4232 46.9032 28.6821V29.1526C46.9032 31.4116 47.515 33.1371 48.7385 34.3293C49.9622 35.4899 51.4837 36.0704 53.3034 36.0704Z" fill="white"/>
<path fill-rule="evenodd" clip-rule="evenodd" d="M0 30.0109H16.0784L0 13.9333V30.0109ZM0.0193139 35.5789C0.286471 39.179 3.29193 42.0166 6.96016 42.0166H32.0168V16.9602C32.0168 13.2696 29.1445 10.25 25.5134 10.0147V35.5791L0.0193139 35.5789ZM19.9452 10V26.0032L3.94118 10H19.9452Z" fill="white"/>
</g>
<defs>
<clipPath id="clip0_2_5">
<rect width="129.943" height="50" fill="white"/>
</clipPath>
</defs>
</svg>
