<svg width="946" height="946" viewBox="0 0 946 946" fill="none" xmlns="http://www.w3.org/2000/svg">
<ellipse cx="472.489" cy="473" rx="265.308" ry="265.479" fill="#7950ED"/>
<path opacity="0.4545" d="M473 778.213C641.565 778.213 778.213 641.565 778.213 473C778.213 304.436 641.565 167.787 473 167.787C304.436 167.787 167.787 304.436 167.787 473C167.787 641.565 304.436 778.213 473 778.213Z" stroke="white" stroke-opacity="0.15" stroke-width="0.947196" stroke-miterlimit="10"/>
<path opacity="0.3636" d="M473 820.079C664.686 820.079 820.079 664.686 820.079 473C820.079 281.314 664.686 125.921 473 125.921C281.314 125.921 125.921 281.314 125.921 473C125.921 664.686 281.314 820.079 473 820.079Z" stroke="white" stroke-opacity="0.15" stroke-width="0.803056" stroke-miterlimit="10"/>
<path opacity="0.2727" d="M473 861.944C687.808 861.944 861.945 687.808 861.945 473C861.945 258.192 687.808 84.0557 473 84.0557C258.192 84.0557 84.0562 258.192 84.0562 473C84.0562 687.808 258.192 861.944 473 861.944Z" stroke="white" stroke-opacity="0.15" stroke-width="0.658915" stroke-miterlimit="10"/>
<path opacity="0.1818" d="M473 899.083C710.557 899.083 903.135 706.505 903.135 468.948C903.135 231.392 710.557 38.814 473 38.814C235.443 38.814 42.8657 231.392 42.8657 468.948C42.8657 706.505 235.443 899.083 473 899.083Z" stroke="white" stroke-opacity="0.15" stroke-width="0.514775" stroke-miterlimit="10"/>
<path opacity="0.0909091" d="M473 945C733.678 945 945 733.678 945 473C945 212.322 733.678 1 473 1C212.322 1 1 212.322 1 473C1 733.678 212.322 945 473 945Z" stroke="white" stroke-opacity="0.15" stroke-width="0.370634" stroke-miterlimit="10"/>
</svg>
