<svg width="60" height="68" viewBox="0 0 60 68" fill="none" xmlns="http://www.w3.org/2000/svg">
<path d="M23.1341 39.0333C23.1341 39.0634 23.1375 39.0759 23.1341 39.0843C23.0941 39.1677 23.0515 39.2512 23.0114 39.3347C22.584 40.2145 22.5414 41.1127 22.8954 42.0251C23.0198 42.3457 23.2593 42.4667 23.5298 42.3682C23.7886 42.2739 23.8796 42.016 23.7685 41.6904C23.3386 40.4257 23.751 39.3664 24.928 38.7111C25.2277 38.5442 25.3262 38.2946 25.191 38.0458C25.0549 37.7954 24.7961 37.7269 24.4898 37.8864C24.2435 38.0141 24.0115 38.1702 23.7644 38.3188C23.4931 38.1026 23.4605 37.8229 23.5164 37.5049C23.5657 37.2244 23.4296 37.0082 23.1926 36.9456C22.938 36.8788 22.7084 37.014 22.6191 37.2928C22.5873 37.3905 22.5698 37.4949 22.5598 37.5975C22.503 38.1802 22.7334 38.6502 23.1341 39.0333ZM44.5793 23.8614C44.4566 23.7228 44.3648 23.525 44.2329 23.495C44.0701 23.4574 43.8188 23.4991 43.7037 23.6085C42.8923 24.3848 42.1026 25.1837 41.3129 25.9826C41.105 26.1921 41.1067 26.4667 41.2853 26.6529C41.4807 26.8557 41.747 26.8591 41.9757 26.6337C42.7687 25.8523 43.5567 25.0668 44.3381 24.2746C44.4332 24.1786 44.48 24.0342 44.5785 23.8614H44.5793ZM25.6209 27.486C24.4213 27.4977 23.3704 28.3191 23.0915 29.4752C23.0056 29.8333 23.1842 30.1205 23.5064 30.1272C23.7928 30.133 23.9313 29.9602 24.0014 29.7015C24.1843 29.0261 24.6259 28.6087 25.3062 28.4693C25.5241 28.4251 25.7595 28.4652 25.9865 28.4718C26.257 28.4802 26.4707 28.3216 26.4957 28.072C26.5216 27.8082 26.4014 27.6262 26.1426 27.5628C25.9723 27.521 25.7954 27.5102 25.6209 27.4851V27.486ZM43.9841 39.9357C44.283 39.9432 44.4858 39.7654 44.5117 39.5275C44.5376 39.2879 44.4124 39.1377 44.2195 39.0225C43.4624 38.57 42.7078 38.1143 41.949 37.6635C41.6393 37.4798 41.3571 37.5291 41.2169 37.7795C41.0783 38.0274 41.1751 38.287 41.484 38.474C42.2211 38.9198 42.959 39.3631 43.6995 39.8038C43.8038 39.8664 43.9215 39.9073 43.9825 39.9357H43.9841ZM43.7471 32.634C44.1427 32.634 44.5376 32.6407 44.9333 32.6315C45.2229 32.6256 45.4216 32.4303 45.4241 32.174C45.4266 31.9203 45.2296 31.7074 44.9408 31.7032C44.1603 31.6924 43.3798 31.6915 42.6001 31.7032C42.3121 31.7074 42.1201 31.9244 42.1268 32.1807C42.1334 32.437 42.3313 32.6248 42.6235 32.6307C42.9974 32.6382 43.3722 32.6323 43.7471 32.6323V32.634Z" fill="white"/>
<path d="M25.3121 49.9983C24.8312 49.8397 24.332 49.722 23.8746 49.5125C23.0874 49.1519 22.488 48.5584 22.069 47.8004C21.9538 47.5917 21.8311 47.5449 21.6057 47.5566C18.9912 47.6894 16.8609 46.0858 16.2907 43.5506C16.0344 42.4136 16.188 41.3176 16.7023 40.2716C16.7432 40.189 16.7832 40.1072 16.8392 39.9945C15.6304 39.5579 14.8541 38.7373 14.632 37.4701C14.4092 36.1971 14.8566 35.162 15.8625 34.3322C15.8032 34.2646 15.7456 34.1945 15.6847 34.1285C15.2239 33.6327 14.8891 33.0634 14.6938 32.4139C14.5895 32.0658 14.6938 31.8212 14.9793 31.7319C15.2506 31.6476 15.4701 31.7812 15.5787 32.1209C15.774 32.7295 16.1004 33.2487 16.5679 33.6853C16.7123 33.8205 16.8467 33.8598 17.0412 33.8063C17.2499 33.7496 17.4711 33.7237 17.6881 33.712C18.0154 33.6936 18.2407 33.889 18.2474 34.1678C18.2533 34.4316 18.0604 34.6119 17.7382 34.6428C16.4961 34.763 15.7348 35.4433 15.5386 36.6086C15.3516 37.7214 16.1171 38.8675 17.2232 39.1038C17.3367 39.128 17.4986 39.0637 17.5996 38.9894C17.8501 38.8041 18.0688 38.5779 18.3167 38.3892C18.603 38.1713 18.8877 38.2039 19.0546 38.4451C19.2116 38.6722 19.1465 38.9368 18.8676 39.1397C17.9402 39.815 17.3475 40.7074 17.1797 41.8443C16.926 43.5631 17.5228 44.9597 18.9536 45.9238C20.3878 46.8905 21.9004 46.8788 23.4029 46.0232C23.4839 45.9773 23.559 45.9188 23.6409 45.8746C23.8963 45.7368 24.1592 45.7961 24.2961 46.0198C24.4289 46.236 24.388 46.4948 24.1492 46.6476C23.8345 46.8479 23.4989 47.014 23.17 47.191C23.0799 47.2394 22.9831 47.2753 22.8887 47.3171C23.9122 49.2971 26.9524 49.7888 28.4241 47.7169C28.743 47.2678 28.9475 46.7836 28.9508 46.2135C28.9592 44.6834 29.0084 43.1524 29.0092 41.6223C29.0143 34.8531 29.0092 28.0848 29.0051 21.3157C29.0051 20.0627 28.1762 19.0927 27.005 18.9508C25.7328 18.7972 24.3045 19.6904 23.8554 20.9492C24.0248 20.9868 24.1935 21.0152 24.3563 21.0619C24.6852 21.1562 25.0166 21.2472 25.3379 21.3649C25.6418 21.476 25.7553 21.7172 25.6593 21.9752C25.5625 22.2356 25.3254 22.3466 25.0157 22.2314C24.3746 21.9927 23.721 21.86 23.034 21.865C19.6047 21.8892 17.1797 25.371 18.3501 28.599C18.3818 28.6867 18.4194 28.7735 18.4444 28.8628C18.5246 29.1441 18.4119 29.3779 18.1581 29.468C17.9244 29.5515 17.6814 29.4497 17.5763 29.1867C17.4452 28.8612 17.3442 28.5239 17.2232 28.1683C16.451 28.5965 15.9284 29.2159 15.6363 30.0315C15.4618 30.5173 15.2698 30.6743 14.9559 30.5666C14.6512 30.4614 14.5836 30.1918 14.7522 29.7185C15.1463 28.6191 15.8642 27.8027 16.9068 27.2776C17.0679 27.1966 17.1263 27.1115 17.128 26.9278C17.1539 23.734 19.4612 21.228 22.6383 20.9467C22.8311 20.93 22.872 20.8265 22.9296 20.6888C23.5457 19.2146 24.6234 18.3013 26.2178 18.0417C27.7379 17.7946 29.2246 18.6653 29.7397 20.1145C29.8248 20.3532 29.9217 20.4425 30.1863 20.4592C32.0119 20.5711 33.7215 21.0845 35.3026 22.0119C35.6331 22.2056 35.7316 22.4735 35.5755 22.7281C35.4228 22.9769 35.1673 23.0153 34.8384 22.8233C33.431 22.0027 31.9134 21.5361 30.2923 21.3983C30.1896 21.39 30.0861 21.3975 29.9617 21.3975V24.4694C30.3132 24.4694 30.6537 24.4694 30.9943 24.4694C31.3341 24.4694 31.5252 24.6431 31.6237 24.9636C31.7331 25.3209 31.8566 25.6757 32.0036 26.0196C32.057 26.1432 32.183 26.25 32.2991 26.3301C32.7031 26.6098 33.0988 26.5639 33.5028 26.3001C33.7182 26.159 33.9703 26.0747 34.2015 25.9562C34.4336 25.8376 34.6489 25.856 34.8334 26.0363C35.2124 26.4069 35.5872 26.7818 35.9562 27.1616C36.1273 27.3377 36.1423 27.5464 36.0355 27.7676C35.8543 28.1424 35.6657 28.5131 35.5054 28.8971C35.457 29.0139 35.4687 29.17 35.4929 29.3011C35.583 29.7978 35.9044 30.0549 36.3894 30.1442C36.5305 30.1701 36.6599 30.2611 36.801 30.2869C37.3286 30.3854 37.5614 30.6985 37.5372 31.2277C37.5172 31.6635 37.5423 32.1051 37.4788 32.5341C37.4546 32.6969 37.2676 32.8914 37.1065 32.9682C36.7425 33.141 36.3419 33.237 35.9687 33.3931C35.8435 33.4457 35.7325 33.5701 35.654 33.6878C35.3835 34.0918 35.4261 34.49 35.6857 34.894C35.831 35.1194 35.9236 35.379 36.0413 35.6219C36.1432 35.8323 36.1273 36.0352 35.967 36.2013C35.5922 36.5903 35.2107 36.9734 34.8234 37.3499C34.6373 37.5311 34.4202 37.5319 34.189 37.4167C33.8267 37.2356 33.4636 37.0536 33.0896 36.8975C32.9727 36.8491 32.8166 36.8607 32.6856 36.8841C32.188 36.9726 31.9376 37.3007 31.84 37.7798C31.8049 37.951 31.7064 38.1096 31.6713 38.2815C31.5745 38.7507 31.2782 38.9368 30.8224 38.9276C30.5427 38.9218 30.2631 38.9268 29.9617 38.9268V43.2041H33.6714C33.6714 42.9262 33.6814 42.6674 33.6689 42.4103C33.6472 41.9378 33.8634 41.6365 34.2783 41.4186C36.9512 40.012 38.8119 37.8875 39.6225 34.9733C40.7594 30.8838 39.7569 27.3085 36.7718 24.29C36.7275 24.2457 36.6808 24.204 36.6365 24.1606C36.3736 23.9035 36.3343 23.6347 36.5288 23.4226C36.7309 23.2023 37.0088 23.1989 37.2634 23.4711C37.7893 24.032 38.347 24.5755 38.7969 25.194C42.9182 30.8604 41.095 38.8133 34.9227 42.1306C34.669 42.2675 34.5763 42.4153 34.6064 42.6849C34.6256 42.8586 34.6097 43.0355 34.6097 43.2033C35.9328 43.5305 36.2008 44.7744 35.5388 45.6425C35.9662 46.2202 36.033 46.8362 35.6139 47.4531C35.1924 48.0742 34.5371 48.0884 33.8334 48.0533C33.8334 48.2203 33.835 48.3622 33.8334 48.5041C33.8217 49.232 33.517 49.6719 32.845 49.9366C32.8099 49.9507 32.7799 49.9783 32.7473 50H25.3112L25.3121 49.9983ZM29.9525 37.9668C30.4823 38.0403 30.8279 37.8494 30.9893 37.3942C31.0244 37.2965 31.0695 37.2005 31.0895 37.0995C31.1938 36.5844 31.5269 36.3607 31.9935 36.1178C32.7089 35.7447 33.2749 35.8757 33.9052 36.2288C34.4236 36.5193 34.4311 36.4851 34.8585 36.0585C35.0371 35.8799 35.1039 35.7288 34.9511 35.4992C34.8426 35.3365 34.7925 35.1361 34.689 34.9692C34.4102 34.5167 34.4653 34.1185 34.6398 33.6035C34.8869 32.8706 35.3309 32.55 36.018 32.3638C36.6524 32.1919 36.6357 32.1543 36.6148 31.4765C36.609 31.2837 36.5547 31.1785 36.3577 31.12C36.0096 31.0165 35.6749 30.8696 35.3276 30.7619C35.0855 30.686 34.9486 30.5407 34.8677 30.3028C34.7675 30.009 34.6439 29.721 34.5079 29.4413C34.3977 29.2151 34.3985 29.0089 34.5104 28.7869C34.679 28.453 34.8376 28.114 34.9937 27.7735C35.0263 27.7025 35.0722 27.5831 35.0413 27.5481C34.8576 27.3369 34.6748 27.1123 34.4453 26.9621C34.361 26.907 34.1481 27.0372 33.9995 27.0956C33.8643 27.1482 33.7265 27.2041 33.6063 27.2834C33.138 27.5931 32.7181 27.5239 32.1864 27.336C31.4969 27.0931 31.1805 26.6807 30.9935 26.0288C30.794 25.3343 30.7623 25.3434 30.0268 25.3894C30.0085 25.3902 29.9918 25.4069 29.9667 25.4194V27.9245C32.2907 27.7843 33.8776 29.4989 34.0538 31.2912C34.1456 32.2261 33.9361 33.0943 33.3801 33.8589C32.537 35.0184 31.3708 35.5151 29.9542 35.4508V37.9693L29.9525 37.9668ZM29.9601 28.8837V34.4917C31.0953 34.5827 32.0077 34.202 32.6355 33.2712C33.31 32.272 33.33 31.2094 32.6922 30.1893C32.0762 29.2034 31.1446 28.7902 29.9592 28.8837H29.9601ZM29.7814 47.1175C31.3458 47.1175 32.8742 47.1209 34.4035 47.115C34.7449 47.1134 34.952 46.903 34.9486 46.6025C34.9453 46.302 34.7399 46.1183 34.3885 46.1133C34.0346 46.1083 33.6806 46.1158 33.3275 46.11C33.0762 46.1058 32.8776 46.0081 32.8141 45.7435C32.7415 45.4422 32.9418 45.1892 33.2699 45.1792C33.6547 45.1675 34.0404 45.1851 34.4244 45.17C34.7516 45.1567 34.947 44.9555 34.9495 44.6675C34.952 44.377 34.76 44.1892 34.4311 44.1633C34.3693 44.1583 34.3067 44.1591 34.2441 44.1591C32.9226 44.1591 31.6012 44.1591 30.2798 44.1591C30.1788 44.1591 30.0778 44.1691 29.9651 44.175V45.175C30.3683 45.175 30.7514 45.1667 31.1337 45.18C31.2615 45.1842 31.4434 45.2051 31.5019 45.2877C31.5979 45.4238 31.6697 45.6241 31.648 45.7828C31.6162 46.0131 31.4025 46.1058 31.1763 46.1091C30.7731 46.1158 30.3691 46.1108 29.9659 46.1108C29.9033 46.4556 29.8465 46.7703 29.7831 47.1184L29.7814 47.1175ZM32.8943 48.0558C31.7189 48.0558 30.587 48.055 29.455 48.0583C29.3991 48.0583 29.324 48.0792 29.2914 48.1184C29.0351 48.4206 28.7872 48.7295 28.5176 49.0592C29.8332 49.0592 31.1212 49.0626 32.4093 49.0567C32.7039 49.055 32.8709 48.8839 32.8926 48.5934C32.9051 48.429 32.8951 48.2628 32.8951 48.0558H32.8943Z" fill="white"/>
<path d="M23.1341 39.0318C22.7334 38.6495 22.5022 38.1787 22.5598 37.596C22.5698 37.4934 22.5881 37.389 22.619 37.2913C22.7084 37.0125 22.9379 36.8773 23.1925 36.9441C23.4296 37.0067 23.5657 37.2229 23.5164 37.5034C23.4605 37.8214 23.493 38.1019 23.7643 38.3173C24.0114 38.1687 24.2435 38.0126 24.4897 37.8849C24.7969 37.7254 25.0549 37.7939 25.191 38.0443C25.3262 38.2939 25.2277 38.5427 24.928 38.7096C23.751 39.3649 23.3386 40.4234 23.7685 41.6889C23.8787 42.0145 23.7877 42.2724 23.5298 42.3667C23.2593 42.4652 23.0197 42.3442 22.8953 42.0236C22.5414 41.1112 22.584 40.213 23.0114 39.3332C23.0523 39.2497 23.094 39.1662 23.1341 39.0828C23.1383 39.0744 23.1341 39.0619 23.1341 39.0318Z" fill="#A787FF"/>
<path d="M44.5793 23.8614C44.4808 24.0342 44.434 24.1786 44.3389 24.2746C43.5567 25.0668 42.7687 25.8523 41.9765 26.6337C41.7469 26.859 41.4814 26.8557 41.2861 26.6529C41.1075 26.4667 41.1058 26.1921 41.3137 25.9825C42.1033 25.1837 42.893 24.384 43.7044 23.6085C43.8196 23.4983 44.0709 23.4565 44.2337 23.4949C44.3647 23.5258 44.4574 23.7236 44.5801 23.8614H44.5793Z" fill="#A787FF"/>
<path d="M25.6209 27.4854C25.7954 27.5104 25.9724 27.5212 26.1427 27.563C26.4014 27.6264 26.5216 27.8084 26.4958 28.0722C26.4715 28.3218 26.257 28.4804 25.9865 28.472C25.7595 28.4654 25.5233 28.4245 25.3062 28.4695C24.6259 28.6081 24.1843 29.0263 24.0015 29.7017C23.9313 29.9604 23.7936 30.1332 23.5065 30.1274C23.1842 30.1207 23.0056 29.8336 23.0916 29.4754C23.3695 28.3193 24.4205 27.4987 25.6209 27.4862V27.4854Z" fill="#A787FF"/>
<path d="M43.9833 39.9351C43.9215 39.9067 43.8047 39.865 43.7003 39.8032C42.9607 39.3625 42.2219 38.9192 41.4848 38.4734C41.1751 38.2865 41.0791 38.0268 41.2177 37.7789C41.3579 37.5285 41.6401 37.4792 41.9498 37.6629C42.7078 38.1137 43.4632 38.5694 44.2204 39.0219C44.4132 39.1371 44.5384 39.2873 44.5125 39.5269C44.4867 39.7648 44.2838 39.9426 43.985 39.9351H43.9833Z" fill="#A787FF"/>
<path d="M43.7462 32.6351C43.3714 32.6351 42.9966 32.641 42.6226 32.6335C42.3304 32.6276 42.1326 32.4398 42.1259 32.1835C42.1192 31.9264 42.3112 31.7102 42.5992 31.706C43.3797 31.6943 44.1594 31.6943 44.9399 31.706C45.2279 31.7102 45.4249 31.9239 45.4232 32.1768C45.4207 32.4331 45.2221 32.6285 44.9324 32.6343C44.5375 32.6426 44.1419 32.6368 43.7462 32.6368V32.6351Z" fill="#A787FF"/>
</svg>
