<svg width="60" height="60" viewBox="0 0 60 60" fill="none" xmlns="http://www.w3.org/2000/svg">
<path d="M43.1284 21.7846C41.9815 21.7846 40.8574 21.7846 39.7446 21.7846C39.0746 21.7846 38.8702 21.571 38.8702 20.8708C38.8702 19.7078 38.8702 18.5449 38.8702 17.3344C38.768 17.3344 38.6659 17.3344 38.575 17.3344C34.6802 17.3344 30.7855 17.3344 26.8793 17.3344C26.1072 17.3344 25.6871 17.7735 25.6871 18.5923C25.6871 19.8028 25.6871 21.0132 25.6871 22.2237C25.6871 22.6153 25.494 22.8764 25.1874 22.9357C24.79 23.0188 24.4266 22.7458 24.4153 22.3068C24.4153 20.9539 24.3812 19.601 24.4153 18.2482C24.4721 17.014 25.5167 16.029 26.7317 16.0053C28.1965 15.9934 29.6727 16.0053 31.1375 16.0053C33.8854 16.0053 36.6333 16.0053 39.3699 16.0053C39.6537 16.0053 39.8695 16.1121 40.0739 16.3257C41.4024 17.7379 42.7537 19.1382 44.0936 20.5267C44.298 20.7403 44.4001 20.9539 44.4001 21.2624C44.4001 27.9674 44.4001 34.6842 44.4001 41.3892C44.4001 42.9794 43.4123 44 41.8907 44C36.9058 44 31.921 44 26.9361 44C25.4145 44 24.4266 42.9794 24.4266 41.3773C24.4266 40.1788 24.4266 38.9683 24.4266 37.7697C24.4266 37.295 24.7219 36.9984 25.142 37.0458C25.4827 37.0814 25.6984 37.3544 25.6984 37.7697C25.6984 38.9683 25.6984 40.1788 25.6984 41.3773C25.6984 42.2437 26.1072 42.6709 26.9361 42.6709C31.921 42.6709 36.9058 42.6709 41.8907 42.6709C42.7082 42.6709 43.117 42.2437 43.117 41.4011C43.117 34.9691 43.117 28.537 43.117 22.105C43.117 22.0101 43.117 21.927 43.117 21.7965L43.1284 21.7846ZM42.1178 20.4317C41.4705 19.7553 40.812 19.067 40.1761 18.4024V20.4317H42.1178Z" fill="white"/>
<path d="M36.5651 34.6723C37.8028 34.6723 39.0405 34.6723 40.2782 34.6723C40.7097 34.6723 41.0049 34.9452 40.9936 35.3487C40.9936 35.7285 40.7097 36.0014 40.3123 36.0014C39.4947 36.0014 38.6885 36.0014 37.871 36.0014C36.1677 36.0014 34.4758 36.0014 32.7726 36.0014C32.2502 36.0014 31.9209 35.5267 32.1253 35.0758C32.2502 34.7791 32.4887 34.6723 32.7953 34.6723C34.0557 34.6723 35.3047 34.6723 36.5651 34.6723Z" fill="white"/>
<path d="M32.2844 39.55C31.0353 39.55 29.7862 39.55 28.5372 39.55C28.2306 39.55 28.0035 39.4432 27.8672 39.1465C27.6856 38.743 27.9467 38.2802 28.3782 38.2209C28.4577 38.2209 28.5372 38.2209 28.6167 38.2209C31.0467 38.2209 33.4766 38.2209 35.918 38.2209C35.9747 38.2209 36.0429 38.2209 36.0996 38.2209C36.463 38.2446 36.7242 38.5175 36.7242 38.8736C36.7242 39.2414 36.463 39.5381 36.0883 39.55C35.4183 39.55 34.7484 39.55 34.0671 39.55C33.4653 39.55 32.8635 39.55 32.2616 39.55H32.2844Z" fill="white"/>
<path d="M37.4849 28.8933C36.5765 28.8933 35.6681 28.8933 34.7483 28.8933C34.2941 28.8933 33.9989 28.6203 34.0102 28.2168C34.0102 27.8134 34.2941 27.5641 34.7483 27.5641C36.5878 27.5641 38.4274 27.5641 40.2669 27.5641C40.6984 27.5641 40.9936 27.8371 40.9936 28.2287C40.9936 28.6203 40.7097 28.8933 40.2669 28.8933C39.3358 28.8933 38.4046 28.8933 37.4849 28.8933Z" fill="white"/>
<path d="M37.5189 32.4415C36.5878 32.4415 35.6567 32.4415 34.7369 32.4415C34.2941 32.4415 34.0216 32.1686 34.0216 31.7651C34.0216 31.3735 34.3054 31.1005 34.7256 31.1005C36.5878 31.1005 38.4387 31.1005 40.3009 31.1005C40.8459 31.1005 41.1752 31.6108 40.9368 32.0737C40.8005 32.3347 40.5734 32.4297 40.3009 32.4297C39.3811 32.4297 38.4614 32.4297 37.5416 32.4297L37.5189 32.4415Z" fill="white"/>
<path d="M33.3743 25.3331C32.5113 25.3331 31.637 25.3331 30.774 25.3331C30.3312 25.3331 30.0473 25.0839 30.0473 24.6804C30.0473 24.2651 30.3198 24.004 30.7854 24.004C32.5227 24.004 34.2714 24.004 36.0087 24.004C36.4515 24.004 36.7354 24.2651 36.7468 24.6567C36.7468 25.0602 36.4629 25.3331 36.0087 25.3331C35.1344 25.3331 34.26 25.3331 33.3857 25.3331H33.3743Z" fill="white"/>
<path d="M34.4077 21.7848C33.874 21.7848 33.3517 21.7848 32.818 21.7848C32.3638 21.7848 32.0685 21.5119 32.0685 21.1084C32.0685 20.7168 32.3638 20.4557 32.7953 20.4438C33.8626 20.4438 34.93 20.4438 36.0087 20.4438C36.4516 20.4438 36.7355 20.7049 36.7355 21.0965C36.7355 21.5 36.4516 21.773 35.986 21.773C35.4523 21.773 34.93 21.773 34.3963 21.773L34.4077 21.7848Z" fill="white"/>
<path d="M29.3093 20.4554C29.5818 20.4554 29.8543 20.4554 30.1268 20.4554C30.5129 20.4554 30.7968 20.7521 30.7854 21.1318C30.7854 21.4997 30.5129 21.7845 30.1268 21.7845C29.5704 21.7845 29.014 21.7845 28.4576 21.7845C28.0829 21.7845 27.8104 21.4879 27.8104 21.12C27.8104 20.7521 28.0829 20.4673 28.4463 20.4554C28.469 20.4554 28.4803 20.4554 28.5031 20.4554C28.7642 20.4554 29.0367 20.4554 29.2979 20.4554H29.3093Z" fill="white"/>
<path d="M39.5288 24.004C39.8013 24.004 40.0738 24.004 40.3463 24.004C40.7211 24.0159 40.9936 24.3007 40.9936 24.6686C40.9936 25.0364 40.7211 25.3212 40.3463 25.3331C39.7786 25.3331 39.2108 25.3331 38.6544 25.3331C38.2797 25.3331 38.0186 25.0246 38.0186 24.6567C38.0186 24.3007 38.2911 24.0277 38.6544 24.004C38.6772 24.004 38.6885 24.004 38.7112 24.004C38.9837 24.004 39.2563 24.004 39.5288 24.004Z" fill="white"/>
<path d="M39.4834 39.55C39.2222 39.55 38.9497 39.55 38.6885 39.55C38.3024 39.55 38.0186 39.2533 38.0186 38.8736C38.0186 38.5057 38.2911 38.2209 38.6658 38.2209C39.2222 38.2209 39.7786 38.2209 40.335 38.2209C40.7097 38.2209 40.9822 38.5175 40.9822 38.8736C40.9822 39.2533 40.7097 39.5381 40.3123 39.55C40.0284 39.55 39.7445 39.55 39.4607 39.55H39.4834Z" fill="white"/>
<path fill-rule="evenodd" clip-rule="evenodd" d="M25.8195 25.4697C26.1124 25.1768 26.5873 25.1768 26.8802 25.4697L30.8802 29.4697C31.0208 29.6103 31.0998 29.8011 31.0998 30C31.0998 30.1989 31.0208 30.3897 30.8802 30.5303L26.8802 34.5303C26.5873 34.8232 26.1124 34.8232 25.8195 34.5303C25.5266 34.2374 25.5266 33.7626 25.8195 33.4697L28.5392 30.75L16.3499 30.75C15.9356 30.75 15.5999 30.4142 15.5999 30C15.5999 29.5858 15.9356 29.25 16.3499 29.25L28.5392 29.25L25.8195 26.5303C25.5266 26.2374 25.5266 25.7626 25.8195 25.4697Z" fill="#A787FF"/>
</svg>
