<svg width="60" height="68" viewBox="0 0 60 68" fill="none" xmlns="http://www.w3.org/2000/svg">
<path d="M25.6129 49C25.3801 48.8781 25.2996 48.6867 25.302 48.4234C25.3121 47.3101 25.3059 46.1967 25.3059 45.0842C25.3059 44.9787 25.3059 44.874 25.3059 44.7302H24.9371C23.2605 44.7302 21.5846 44.7302 19.908 44.7302C19.4134 44.7302 19.2915 44.606 19.2915 44.106C19.2915 43.1302 19.2915 42.1535 19.2915 41.1324C19.2064 41.1887 19.1501 41.2308 19.0907 41.2644C18.8891 41.3801 18.6946 41.3699 18.5329 41.1973C18.3712 41.0238 18.3555 40.8082 18.5094 40.6386C18.8102 40.3066 19.1282 39.9878 19.4611 39.6878C19.6572 39.5112 19.8798 39.5636 20.0634 39.744C20.3353 40.0105 20.6056 40.2777 20.8697 40.5519C21.0783 40.7691 21.0971 40.9879 20.9393 41.1793C20.7807 41.3723 20.547 41.384 20.2892 41.2105C20.2666 41.1949 20.2416 41.1816 20.1916 41.1519V43.8294H25.2926C25.2973 43.7333 25.3051 43.631 25.3051 43.5286C25.3059 42.4153 25.3051 41.3019 25.3059 40.1886C25.3059 39.7136 25.4387 39.5823 25.9161 39.5815C27.0075 39.58 28.099 39.5815 29.1905 39.5815C29.2967 39.5815 29.4022 39.5815 29.5491 39.5815C29.5491 39.1862 29.5592 38.8104 29.5413 38.4362C29.5374 38.358 29.4366 38.2791 29.3694 38.2112C28.117 36.9533 26.8614 35.697 25.6083 34.4399C25.2621 34.093 25.2629 33.907 25.6106 33.5586C26.8435 32.3218 28.074 31.0827 29.3147 29.8545C29.4967 29.674 29.5819 29.4943 29.5639 29.2404C29.5452 28.9802 29.56 28.7177 29.56 28.4192C29.4256 28.4192 29.3217 28.4192 29.2178 28.4192C28.1162 28.4192 27.0154 28.42 25.9137 28.4192C25.4387 28.4192 25.3067 28.2856 25.3067 27.8083C25.3059 25.0738 25.309 22.34 25.302 19.6055C25.302 19.336 25.3629 19.1266 25.6129 19H34.3853C34.6181 19.1219 34.6986 19.3125 34.6962 19.5766C34.6861 20.6899 34.6923 21.8033 34.6923 22.9166C34.6923 23.0221 34.6923 23.1283 34.6923 23.2737H35.0283C36.7245 23.2737 38.4199 23.2737 40.116 23.2737C40.5754 23.2737 40.7059 23.4041 40.7067 23.8628C40.7083 24.7612 40.7067 25.6597 40.7067 26.5582C40.7067 26.6512 40.7067 26.7442 40.7067 26.884C40.8083 26.8098 40.8645 26.7574 40.9294 26.7231C41.1231 26.6207 41.3091 26.6371 41.4622 26.7988C41.6153 26.9606 41.6489 27.1707 41.5044 27.3317C41.1927 27.6794 40.863 28.0138 40.5145 28.3247C40.3301 28.4896 40.1098 28.4278 39.9363 28.2575C39.6652 27.9911 39.3949 27.7231 39.13 27.4497C38.9191 27.2309 38.8988 27.0176 39.0558 26.8231C39.2144 26.627 39.4473 26.6137 39.7051 26.7863C39.7285 26.802 39.7527 26.816 39.8035 26.8481V24.151H39.5051C37.819 24.151 36.1322 24.151 34.4462 24.151C33.9571 24.151 33.8149 24.0104 33.8141 23.5268C33.8126 22.326 33.8141 21.1251 33.8141 19.9008H26.2005V27.5208H33.7985C33.804 27.4114 33.8134 27.3082 33.8134 27.2043C33.8149 26.677 33.8126 26.1496 33.8149 25.6222C33.8165 25.2269 33.9704 25.0277 34.2634 25.0316C34.5478 25.0355 34.6892 25.223 34.69 25.6074C34.6915 26.3496 34.6923 27.0918 34.69 27.8341C34.6884 28.2724 34.5486 28.4161 34.1142 28.4169C33.0032 28.42 31.8922 28.4177 30.7804 28.4177C30.6757 28.4177 30.5718 28.4177 30.4382 28.4177C30.4382 28.8036 30.4249 29.1529 30.4468 29.5005C30.453 29.599 30.5476 29.7045 30.6257 29.7834C31.8703 31.0366 33.1188 32.2851 34.3657 33.5351C34.7408 33.9109 34.7408 34.0867 34.3673 34.461C33.1336 35.697 31.9023 36.9361 30.6624 38.1651C30.496 38.3299 30.4155 38.494 30.4319 38.7284C30.4507 38.9987 30.4366 39.2706 30.4366 39.5808C30.5702 39.5808 30.6741 39.5808 30.7773 39.5808C31.8789 39.5808 32.9797 39.58 34.0813 39.5808C34.5564 39.5808 34.69 39.7151 34.69 40.1902C34.6908 42.9247 34.6876 45.6592 34.6939 48.3937C34.6939 48.6625 34.6314 48.8719 34.3829 48.9992H25.6106L25.6129 49ZM26.2059 40.4761V48.1054H33.7977V40.4761H26.2059ZM33.518 33.9977C32.3477 32.8249 31.1648 31.6397 30.0124 30.4858C28.8428 31.6577 27.6552 32.8476 26.4927 34.0125C27.6498 35.1751 28.8311 36.3611 29.996 37.5314C31.1632 36.3595 32.3453 35.1743 33.5173 33.9977H33.518Z" fill="white"/>
<path d="M44.9711 34.5267C44.8844 34.8642 44.8211 35.2095 44.7078 35.5384C43.9906 37.6128 41.9795 38.8894 39.7747 38.6816C37.6996 38.4862 35.9574 36.8197 35.6261 34.7134C35.219 32.1265 37.0168 29.7272 39.6591 29.3295C42.146 28.9561 44.5437 30.771 44.9188 33.3094C44.9266 33.3649 44.9539 33.4172 44.9719 33.4711V34.5259L44.9711 34.5267ZM40.2779 30.1764C38.1762 30.1733 36.4636 31.8734 36.448 33.979C36.4324 36.0846 38.1551 37.8175 40.267 37.8221C42.3678 37.8268 44.0859 36.1197 44.0929 34.0188C44.1007 31.8984 42.3936 30.1796 40.2771 30.1764H40.2779Z" fill="#A787FF"/>
<path d="M19.7314 29.2974C22.3246 29.2997 24.4379 31.4217 24.4278 34.0117C24.4168 36.6087 22.298 38.7127 19.7057 38.7002C17.118 38.6885 15.0281 36.5884 15.0281 34.0007C15.0281 31.3998 17.1321 29.295 19.7314 29.2981V29.2974ZM19.7314 37.822C21.8331 37.8173 23.5434 36.1102 23.5512 34.0085C23.559 31.8991 21.8339 30.1732 19.7213 30.1763C17.6048 30.1794 15.8992 31.8967 15.9062 34.0187C15.9133 36.1188 17.6306 37.8267 19.7322 37.822H19.7314Z" fill="#A787FF"/>
</svg>
