<svg width="60" height="60" viewBox="0 0 60 60" fill="none" xmlns="http://www.w3.org/2000/svg">
<path d="M26.2196 39.5085C26.2196 40.4234 26.1986 41.2899 26.2261 42.154C26.2478 42.8333 25.9663 43.3384 25.4531 43.7386C24.7294 44.3033 23.8839 44.5922 22.9972 44.76C21.0262 45.1327 19.0713 45.1053 17.1599 44.4357C16.7477 44.2912 16.3499 44.0766 15.982 43.8378C15.3712 43.4417 15.0566 42.885 15.0606 42.1177C15.0808 38.8864 15.0816 35.6551 15.0606 32.4239C15.055 31.6429 15.3833 31.0942 15.9925 30.6747C16.8929 30.0535 17.9224 29.788 18.9866 29.6412C19.444 29.5783 19.9071 29.5532 20.4122 29.5064C20.4122 29.3967 20.4122 29.2805 20.4122 29.1644C20.4122 24.9762 20.4122 20.7889 20.4122 16.6007C20.4122 15.5511 20.9584 15.0065 22.0153 15.0065C29.1346 15.0065 36.2539 15.0097 43.3724 15C43.9735 14.9992 44.4462 15.1977 44.744 15.7052C44.8714 15.923 44.8819 16.2118 44.9303 16.4708C44.9505 16.5773 44.9303 16.6919 44.9303 16.8024C44.9303 23.8394 44.9287 30.8756 44.9328 37.9126C44.9328 38.4588 44.7851 38.9219 44.3244 39.2527C44.0219 39.4697 43.6798 39.5101 43.3207 39.5101C39.223 39.5077 35.1244 39.5085 31.0266 39.5085C29.5566 39.5085 28.0866 39.5085 26.6166 39.5085H26.2196ZM44.0364 19.3326H33.1767V38.5734H33.5462C36.7977 38.5734 40.0491 38.5734 43.3006 38.5734C43.9202 38.5734 44.0356 38.4572 44.0356 37.8327C44.0356 31.7841 44.0356 25.7354 44.0356 19.6876L44.0364 19.3326ZM32.2465 38.5621V19.3358H21.4054V29.5177C21.7354 29.5573 22.0557 29.5879 22.3719 29.6363C23.4539 29.8009 24.5035 30.0631 25.4112 30.7175C25.9864 31.1314 26.289 31.6679 26.2801 32.4077C26.2567 34.3505 26.272 36.2933 26.272 38.2361V38.5637H32.2473L32.2465 38.5621ZM21.3989 18.3547H44.034C44.034 17.6859 44.0404 17.042 44.0307 16.3982C44.0267 16.1465 43.8839 15.9859 43.6265 15.9512C43.5176 15.9367 43.4063 15.9351 43.2957 15.9351C36.2378 15.9351 29.1798 15.9351 22.1218 15.9351C22.021 15.9351 21.9193 15.9294 21.8201 15.944C21.5845 15.9795 21.4118 16.1223 21.4054 16.3562C21.3868 17.017 21.3989 17.6786 21.3989 18.3547ZM25.2894 37.0445C23.8242 37.936 22.2509 38.1474 20.6389 38.1474C19.0269 38.1474 17.4568 37.9271 16.0038 37.0477C16.0038 37.7399 15.982 38.391 16.0159 39.0381C16.0272 39.2567 16.1248 39.5367 16.2837 39.6674C16.6032 39.9312 16.9687 40.1733 17.3552 40.3161C19.231 41.0067 21.1512 41.0204 23.0851 40.5912C23.7064 40.4532 24.3018 40.2386 24.8206 39.8554C25.0586 39.6795 25.2821 39.4762 25.2869 39.1527C25.2974 38.4701 25.2894 37.7883 25.2894 37.0445ZM20.6445 33.843C21.787 33.8229 22.9206 33.7236 23.9831 33.271C24.3639 33.1089 24.731 32.8757 25.0481 32.6086C25.3846 32.3254 25.3838 31.9825 25.0481 31.701C24.7302 31.4339 24.3696 31.1765 23.9839 31.0394C21.7749 30.256 19.5473 30.2527 17.3358 31.0305C16.9397 31.1701 16.5677 31.4283 16.2426 31.7002C15.9029 31.9842 15.915 32.3085 16.2418 32.6094C16.4741 32.824 16.7477 33.0112 17.0325 33.1484C18.1725 33.6986 19.4004 33.818 20.6445 33.843ZM16.0562 33.7995C16.0562 34.2101 16.1022 34.6482 16.0457 35.0734C15.9481 35.8052 16.3289 36.203 16.9122 36.4958C17.0647 36.5725 17.2188 36.6483 17.3786 36.7072C19.1883 37.3704 21.0383 37.3922 22.9077 37.0356C23.5628 36.9105 24.2026 36.7137 24.7488 36.3208C24.9739 36.1586 25.2595 35.9125 25.2877 35.6769C25.3628 35.0484 25.3136 34.4046 25.3136 33.8051C22.2235 35.1993 19.1584 35.1888 16.0562 33.7995ZM25.2902 40.8276C22.1767 42.2226 19.1027 42.2258 16.0038 40.826C16.0038 41.2617 16.0143 41.732 15.9997 42.2016C15.9909 42.488 16.0756 42.7357 16.3015 42.889C16.6484 43.1238 17.001 43.3771 17.3899 43.5175C19.2496 44.1896 21.1569 44.221 23.065 43.7773C23.6604 43.6385 24.2276 43.3497 24.7843 43.0802C25.0618 42.9463 25.2861 42.6978 25.2894 42.3428C25.2942 41.8305 25.291 41.3181 25.291 40.8284L25.2902 40.8276Z" fill="white"/>
<path d="M37.9917 29.4558H37.2357C37.2357 29.7511 37.2421 30.031 37.2341 30.311C37.2236 30.6902 37.0727 30.8386 36.6951 30.8411C36.0206 30.8451 35.3461 30.8459 34.6716 30.8411C34.3134 30.8386 34.1464 30.6837 34.144 30.3279C34.1359 29.4219 34.1359 28.5158 34.144 27.6098C34.1472 27.2516 34.311 27.1007 34.6716 27.0991C35.3566 27.095 36.0408 27.095 36.7258 27.0991C37.0719 27.1015 37.2212 27.2459 37.2341 27.5937C37.2446 27.8833 37.2365 28.1737 37.2365 28.4795H37.9933C37.9933 28.3698 37.9933 28.2625 37.9933 28.156C37.9933 26.5553 37.9933 24.9546 37.9933 23.3547C37.9933 22.873 38.1208 22.7447 38.5952 22.7399C38.9276 22.7367 39.2592 22.735 39.5916 22.731C39.6093 22.731 39.6271 22.7157 39.6819 22.6907C39.6819 22.4196 39.6771 22.1307 39.6827 21.8419C39.6892 21.4942 39.8272 21.3393 40.1773 21.3328C40.872 21.3207 41.5666 21.3207 42.2613 21.3328C42.6316 21.3393 42.7672 21.4917 42.7688 21.8588C42.7712 22.7342 42.772 23.6104 42.7688 24.4858C42.7672 24.8747 42.6107 25.032 42.2145 25.0361C41.5602 25.0425 40.9059 25.0417 40.2507 25.0361C39.8328 25.0328 39.6868 24.8836 39.6819 24.4721C39.6787 24.2026 39.6819 23.9323 39.6819 23.6427H38.9485V28.4763H39.6819C39.6819 28.1939 39.6779 27.9067 39.6827 27.6187C39.6892 27.2532 39.8352 27.1007 40.1943 27.0983C40.8792 27.0934 41.5634 27.0942 42.2484 27.0983C42.6074 27.1007 42.7664 27.2548 42.7688 27.613C42.7736 28.5191 42.7736 29.4251 42.7688 30.3312C42.7672 30.6716 42.6058 30.8362 42.2702 30.8394C41.5755 30.8459 40.8809 30.8459 40.1862 30.8394C39.8449 30.8362 39.6924 30.6781 39.6844 30.3368C39.6779 30.056 39.6827 29.7753 39.6827 29.4671H38.9235C38.9235 29.5744 38.9235 29.6817 38.9235 29.7898C38.9235 31.1589 38.9348 32.5281 38.9155 33.8965C38.9106 34.2143 39.0082 34.3128 39.3052 34.2692C39.4125 34.2539 39.523 34.2668 39.6827 34.2668C39.6827 33.9562 39.6787 33.6697 39.6835 33.3833C39.6892 33.0194 39.8336 32.8605 40.1935 32.8557C40.8776 32.8468 41.5626 32.8468 42.2476 32.8557C42.6195 32.8605 42.7688 33.0227 42.7704 33.4043C42.7736 34.2902 42.7736 35.1761 42.7704 36.0619C42.7688 36.4419 42.6211 36.596 42.2419 36.6001C41.5674 36.6073 40.893 36.6073 40.2185 36.6001C39.8223 36.596 39.6892 36.4492 39.6844 36.0401C39.6811 35.7884 39.6803 35.5375 39.6763 35.2858C39.6763 35.268 39.6618 35.2503 39.6376 35.197C39.2939 35.197 38.9348 35.1994 38.5758 35.197C38.1385 35.1938 37.9965 35.0542 37.9965 34.6194C37.9949 33.0186 37.9965 31.4179 37.9965 29.818C37.9965 29.7083 37.9965 29.5994 37.9965 29.4566L37.9917 29.4558ZM40.6235 24.0622H41.8095V22.2356H40.6235V24.0622ZM36.2352 28.0487H35.0508V29.8842H36.2352V28.0487ZM40.6267 33.8117V35.6513H41.8063V33.8117H40.6267ZM41.8297 29.8842C41.8297 29.3057 41.8337 28.7458 41.824 28.185C41.8232 28.131 41.7401 28.035 41.6925 28.0334C41.344 28.0205 40.9938 28.0261 40.634 28.0261V29.8842H41.8297Z" fill="#A787FF"/>
<path d="M26.799 28.3625C25.5605 28.3625 24.3229 28.3674 23.0844 28.3561C22.9247 28.3545 22.7302 28.3133 22.6124 28.2165C22.3438 27.997 22.4648 27.542 22.8004 27.4484C22.9045 27.4194 23.0191 27.4169 23.1288 27.4169C25.575 27.4153 24.0213 27.4153 26.4667 27.4161C26.5272 27.4161 26.5877 27.4137 26.6474 27.4186C26.9573 27.4444 27.1533 27.6428 27.1412 27.9172C27.1291 28.1874 26.9492 28.3577 26.6329 28.3601C25.697 28.3666 28.7603 28.3625 27.8244 28.3633C27.4823 28.3633 27.1402 28.3633 26.7973 28.3633L26.799 28.3625Z" fill="#A787FF"/>
<path d="M26.8086 22.2663C25.571 22.2663 24.3341 22.2752 23.0965 22.2566C22.9182 22.2542 22.6955 22.1663 22.5753 22.0396C22.3421 21.7935 22.5003 21.4167 22.8359 21.349C22.9432 21.3272 23.0561 21.3272 23.1659 21.3272C25.5903 21.3264 26.0148 21.3264 28.4385 21.3264C28.4885 21.3264 28.5393 21.3256 28.5893 21.3272C28.9613 21.3425 29.1541 21.5144 29.142 21.8177C29.1299 22.1106 28.9427 22.2647 28.5805 22.2647C27.3226 22.2671 28.0656 22.2655 26.8078 22.2655L26.8086 22.2663Z" fill="#A787FF"/>
<path d="M26.8191 25.306C25.6017 25.306 24.3834 25.306 23.1659 25.306C23.065 25.306 22.9642 25.3092 22.8641 25.2963C22.5995 25.2624 22.4761 25.0906 22.4761 24.8405C22.4761 24.588 22.61 24.4242 22.8674 24.3838C22.9464 24.3717 23.0279 24.3782 23.1086 24.3782C25.5742 24.3782 28.0398 24.3782 30.5054 24.3782C30.566 24.3782 30.6265 24.375 30.6862 24.3798C30.9565 24.4024 31.1412 24.5936 31.142 24.8486C31.142 25.1116 30.971 25.2923 30.6829 25.3012C30.2908 25.3125 29.8979 25.306 29.5058 25.306C28.6102 25.306 27.7147 25.306 26.8191 25.306Z" fill="#A787FF"/>
<path d="M37.0261 17.6223C35.3261 17.6223 33.6262 17.6223 31.9262 17.6223C31.8254 17.6223 31.7221 17.6311 31.6253 17.6118C31.3752 17.561 31.2372 17.3923 31.2421 17.143C31.2477 16.8937 31.3808 16.7275 31.6463 16.7025C31.7463 16.6928 31.8472 16.6944 31.948 16.6944C35.3374 16.6944 38.7276 16.6944 42.1171 16.6944C42.6108 16.6944 42.8141 16.8292 42.8174 17.1543C42.8198 17.4827 42.6149 17.6223 42.1259 17.6223C40.426 17.6223 38.726 17.6223 37.0261 17.6223Z" fill="white"/>
<path d="M23.3692 17.618C23.2595 17.618 23.1481 17.6261 23.0392 17.6164C22.7762 17.5938 22.6205 17.4212 22.6172 17.163C22.614 16.9032 22.7657 16.7217 23.0287 16.7031C23.2474 16.6878 23.4692 16.6878 23.6879 16.7015C23.959 16.7184 24.1034 16.8863 24.1058 17.1517C24.1082 17.4284 23.9525 17.5971 23.6685 17.618C23.5693 17.6253 23.4684 17.6188 23.3684 17.6188C23.3684 17.6188 23.3684 17.6188 23.3684 17.618H23.3692Z" fill="white"/>
<path d="M25.5783 16.7008C25.688 16.7008 25.7994 16.6912 25.9083 16.7025C26.164 16.7291 26.3327 16.9179 26.3157 17.1696C26.2996 17.4157 26.1794 17.5948 25.9155 17.6133C25.6864 17.6295 25.4549 17.6295 25.2257 17.6133C24.9675 17.5956 24.8142 17.4076 24.8231 17.1462C24.832 16.8921 24.9579 16.7307 25.2185 16.7033C25.3371 16.6904 25.4581 16.7008 25.5783 16.7V16.7008Z" fill="white"/>
<path d="M27.7605 17.6163C27.65 17.6163 27.5378 17.6276 27.4289 17.6138C27.1828 17.5832 27.0045 17.3758 27.0239 17.1338C27.0433 16.8845 27.1699 16.7151 27.437 16.7013C27.6476 16.69 27.8598 16.6884 28.0703 16.6989C28.3616 16.7143 28.5157 16.8829 28.5141 17.1612C28.5125 17.4347 28.3511 17.6001 28.0631 17.6187C27.963 17.6251 27.8622 17.6195 27.7613 17.6195C27.7613 17.6187 27.7613 17.6171 27.7613 17.6163H27.7605Z" fill="white"/>
</svg>
