<svg width="72" height="38" viewBox="0 0 72 38" fill="none" xmlns="http://www.w3.org/2000/svg">
<path d="M66.7721 0H31.217C28.3339 0 25.9883 2.36761 25.9883 5.27778V32.7222C25.9883 35.6324 28.3339 38 31.217 38H66.7721C69.6552 38 72.0008 35.6324 72.0008 32.7222V5.27778C72.0008 2.36761 69.6552 0 66.7721 0ZM31.217 2.11111H66.7721C68.5017 2.11111 69.9093 3.53189 69.9093 5.27778V8.44444H28.0798V5.27778C28.0798 3.53189 29.4873 2.11111 31.217 2.11111ZM66.7721 35.8889H31.217C29.4873 35.8889 28.0798 34.4681 28.0798 32.7222V10.5556H69.9093V32.7222C69.9093 34.4681 68.5017 35.8889 66.7721 35.8889Z" fill="white"/>
<path d="M31.217 6.33333C31.7945 6.33333 32.2627 5.86074 32.2627 5.27778C32.2627 4.69481 31.7945 4.22222 31.217 4.22222C30.6394 4.22222 30.1712 4.69481 30.1712 5.27778C30.1712 5.86074 30.6394 6.33333 31.217 6.33333Z" fill="white"/>
<path d="M35.3999 6.33333C35.9775 6.33333 36.4457 5.86074 36.4457 5.27778C36.4457 4.69481 35.9775 4.22222 35.3999 4.22222C34.8224 4.22222 34.3542 4.69481 34.3542 5.27778C34.3542 5.86074 34.8224 6.33333 35.3999 6.33333Z" fill="white"/>
<path d="M39.5829 6.33333C40.1604 6.33333 40.6286 5.86074 40.6286 5.27778C40.6286 4.69481 40.1604 4.22222 39.5829 4.22222C39.0053 4.22222 38.5371 4.69481 38.5371 5.27778C38.5371 5.86074 39.0053 6.33333 39.5829 6.33333Z" fill="white"/>
<path d="M43.335 18.3929C43.029 18.0981 42.5344 18.0981 42.2284 18.3929L38.3154 22.1626C38.0094 22.4574 38.0094 22.9339 38.3154 23.2287L42.2284 26.9985C42.381 27.1455 42.5813 27.2194 42.7817 27.2194C42.982 27.2194 43.1823 27.1455 43.335 26.9985C43.6409 26.7037 43.6409 26.2272 43.335 25.9324L39.9753 22.6957L43.335 19.459C43.6409 19.1642 43.6409 18.6877 43.335 18.3929Z" fill="#53DBEE"/>
<path d="M55.8564 18.3929C55.5504 18.0981 55.0558 18.0981 54.7498 18.3929C54.4438 18.6877 54.4438 19.1642 54.7498 19.459L58.1094 22.6957L54.7498 25.9324C54.4438 26.2272 54.4438 26.7037 54.7498 26.9985C54.9024 27.1455 55.1027 27.2194 55.3031 27.2194C55.5034 27.2194 55.7038 27.1455 55.8564 26.9985L59.7693 23.2287C60.0753 22.9339 60.0753 22.4574 59.7693 22.1626L55.8564 18.3929Z" fill="#53DBEE"/>
<path d="M51.7399 17.4971C51.354 17.3101 50.8837 17.4617 50.6896 17.8341L45.9941 26.8816C45.8008 27.254 45.9573 27.7072 46.3439 27.8934C46.4566 27.9469 46.5756 27.9725 46.6929 27.9725C46.9801 27.9725 47.2564 27.8202 47.3941 27.5556L52.0897 18.5082C52.283 18.1357 52.1264 17.6834 51.7399 17.4971Z" fill="#53DBEE"/>
<path d="M3.13722 28.289C3.13722 28.8719 3.60541 29.3445 4.18295 29.3445H17.7776C18.3551 29.3445 18.8233 28.8719 18.8233 28.289C18.8233 27.706 18.3551 27.2334 17.7776 27.2334H4.18295C3.60541 27.2334 3.13722 27.706 3.13722 28.289Z" fill="white"/>
<path d="M6.27443 9.28895C6.27443 9.87192 6.74262 10.3445 7.32017 10.3445H20.9148C21.4923 10.3445 21.9605 9.87192 21.9605 9.28895C21.9605 8.70599 21.4923 8.2334 20.9148 8.2334H7.32017C6.74262 8.2334 6.27443 8.70599 6.27443 9.28895Z" fill="white"/>
<path d="M0 21.9556C0 22.5386 0.468194 23.0112 1.04574 23.0112H14.6403C15.2179 23.0112 15.6861 22.5386 15.6861 21.9556C15.6861 21.3727 15.2179 20.9001 14.6403 20.9001H1.04574C0.468193 20.9001 0 21.3727 0 21.9556Z" fill="white"/>
<path d="M16.7318 21.9556C16.7318 22.5386 17.2 23.0112 17.7776 23.0112C18.3551 23.0112 18.8233 22.5386 18.8233 21.9556C18.8233 21.3727 18.3551 20.9001 17.7776 20.9001C17.2 20.9001 16.7318 21.3727 16.7318 21.9556Z" fill="white"/>
<path d="M3.13722 15.6223C3.13722 16.2053 3.60541 16.6778 4.18295 16.6778H17.7776C18.3551 16.6778 18.8233 16.2053 18.8233 15.6223C18.8233 15.0393 18.3551 14.5667 17.7776 14.5667H4.18295C3.60541 14.5667 3.13722 15.0393 3.13722 15.6223Z" fill="white"/>
<path d="M19.869 15.6223C19.869 16.2053 20.3372 16.6778 20.9148 16.6778C21.4923 16.6778 21.9605 16.2053 21.9605 15.6223C21.9605 15.0393 21.4923 14.5667 20.9148 14.5667C20.3372 14.5667 19.869 15.0393 19.869 15.6223Z" fill="white"/>
</svg>
