<svg width="60" height="60" viewBox="0 0 60 60" fill="none" xmlns="http://www.w3.org/2000/svg">
<path d="M28.6734 15C29.562 15 30.4505 15 31.3383 15C31.43 15.0141 31.521 15.0376 31.6127 15.0416C33.0205 15.0988 34.4167 15.2549 35.8005 15.5208C37.3786 15.8235 38.9256 16.2408 40.3622 16.9835C41.6301 17.6392 42.7736 18.4336 43.125 19.9646V40.0308C42.9703 40.7327 42.6228 41.3209 42.1074 41.8143C41.4606 42.4331 40.7034 42.8778 39.895 43.2378C37.7952 44.1734 35.5711 44.6024 33.3051 44.833C31.1408 45.0534 28.9743 45.055 26.8085 44.8416C24.8238 44.6464 22.8718 44.2911 20.9921 43.5978C19.9131 43.1993 18.8838 42.7029 18.017 41.9201C17.2622 41.237 16.8711 40.4174 16.875 39.3547C16.8976 33.0804 16.8929 26.8068 16.8789 20.5324C16.8774 19.6454 17.1852 18.9246 17.783 18.3058C18.5433 17.5192 19.48 17.0101 20.4743 16.6023C22.6868 15.6941 25.0111 15.3012 27.3759 15.1035C27.8082 15.0674 28.2412 15.0345 28.6734 15ZM30.0121 16.1764C28.2404 16.1639 26.4804 16.3004 24.7367 16.6141C23.112 16.9066 21.5215 17.3239 20.0452 18.0972C19.3976 18.436 18.7843 18.8281 18.3505 19.4415C17.9478 20.0116 17.9307 20.585 18.3575 21.1355C18.6063 21.4563 18.911 21.7496 19.2398 21.9857C20.3095 22.7575 21.5362 23.1849 22.7909 23.53C24.7181 24.0586 26.688 24.3057 28.6804 24.3825C31.5 24.4908 34.2923 24.2915 37.0342 23.5802C38.2687 23.2594 39.4783 22.8571 40.5464 22.1347C40.9576 21.8563 41.3417 21.5065 41.6573 21.1222C42.0825 20.6046 42.0685 20.0187 41.676 19.4768C41.4824 19.2093 41.2445 18.9615 40.9864 18.756C40.0466 18.0086 38.9497 17.5756 37.8201 17.2282C35.275 16.4447 32.6591 16.1811 30.0105 16.1764H30.0121ZM41.9465 29.0632C41.8983 29.0844 41.8734 29.0899 41.8555 29.1048C40.953 29.8546 39.9128 30.3432 38.8191 30.729C36.6921 31.4788 34.4898 31.8294 32.2502 31.9745C28.9572 32.1886 25.6984 31.9863 22.4963 31.1337C21.1133 30.7659 19.7793 30.2694 18.5923 29.4373C18.4212 29.3173 18.2564 29.1887 18.0706 29.0506C18.0613 29.1181 18.0528 29.1503 18.0528 29.1832C18.0528 30.4757 18.066 31.769 18.0489 33.0615C18.0419 33.6239 18.2673 34.0584 18.6444 34.4364C19.2297 35.0231 19.9418 35.4121 20.6889 35.7383C22.4427 36.5046 24.2928 36.8999 26.1796 37.125C29.1904 37.4842 32.1965 37.4387 35.1887 36.9242C36.7403 36.6575 38.2578 36.2607 39.6858 35.5728C40.3202 35.267 40.9227 34.9086 41.414 34.3893C41.6767 34.1117 41.9333 33.8011 41.9387 33.4082C41.9597 31.9698 41.9473 30.5306 41.9473 29.064L41.9465 29.0632ZM18.052 35.5007C18.052 35.6427 18.052 35.7344 18.052 35.8254C18.052 36.9799 18.0901 38.1359 18.0396 39.2888C18.003 40.1233 18.3303 40.739 18.9662 41.1853C19.5158 41.5711 20.0957 41.9343 20.7075 42.2041C22.9798 43.208 25.3967 43.5852 27.8502 43.7507C29.9763 43.8942 32.0993 43.837 34.2131 43.5476C35.823 43.3272 37.405 42.9852 38.9209 42.3797C39.8289 42.0166 40.7019 41.5868 41.4015 40.8723C41.7778 40.488 41.976 40.0425 41.9675 39.4841C41.9473 38.2606 41.9613 37.0371 41.9605 35.8136C41.9605 35.7242 41.9527 35.6348 41.9457 35.5046C41.1567 36.1673 40.3015 36.6238 39.3935 36.9838C37 37.9328 34.4945 38.321 31.9462 38.47C29.1126 38.6347 26.2977 38.4747 23.5201 37.8567C21.5759 37.4246 19.6969 36.823 18.0528 35.5007H18.052ZM18.0691 22.5779C18.0605 22.6406 18.0528 22.6743 18.0528 22.7073C18.0543 24.0343 18.0637 25.3613 18.0559 26.6884C18.0535 27.0923 18.1896 27.4319 18.4399 27.7275C18.6055 27.9228 18.7882 28.1087 18.9864 28.2695C19.7343 28.875 20.5971 29.2679 21.4927 29.5887C23.964 30.4726 26.5309 30.7926 29.1352 30.871C30.8275 30.922 32.516 30.8412 34.1944 30.6098C35.8634 30.38 37.5037 30.0247 39.0694 29.3761C39.9175 29.0248 40.7338 28.6122 41.3883 27.9417C41.7257 27.5966 41.9605 27.2052 41.9566 26.6876C41.9465 25.3692 41.9581 24.0508 41.9589 22.7324C41.9589 22.6877 41.9441 22.6422 41.9309 22.5692C41.1808 23.2084 40.356 23.6523 39.4814 24.0045C36.9533 25.0225 34.3017 25.4107 31.6057 25.5433C29.073 25.668 26.5527 25.5315 24.062 25.0288C21.9265 24.5974 19.8516 23.9951 18.0691 22.5786V22.5779Z" fill="white"/>
<path d="M40.5237 26.2614C40.5143 26.7633 40.0907 27.1795 39.5879 27.1802C39.07 27.1797 38.6372 26.7387 38.6491 26.2216C38.661 25.7184 39.0834 25.3059 39.5874 25.3052C40.1079 25.3046 40.5331 25.7393 40.5237 26.2626L40.5237 26.2614Z" fill="#A787FF"/>
<path d="M37.6052 27.4884C37.5958 27.9904 37.1722 28.4066 36.6694 28.4073C36.1515 28.4067 35.7187 27.9657 35.7306 27.4487C35.7426 26.9454 36.165 26.533 36.669 26.5323C37.1894 26.5316 37.6147 26.9663 37.6052 27.4897L37.6052 27.4884Z" fill="#A787FF"/>
<path d="M34.6868 28.152C34.6774 28.654 34.2537 29.0702 33.751 29.0709C33.233 29.0703 32.8002 28.6293 32.8122 28.1122C32.8241 27.609 33.2465 27.1966 33.7505 27.1959C34.271 27.1952 34.6962 27.6299 34.6868 28.1532L34.6868 28.152Z" fill="#A787FF"/>
<path d="M40.5237 32.8239C40.5143 33.3258 40.0907 33.742 39.5879 33.7427C39.07 33.7422 38.6372 33.3012 38.6491 32.7841C38.661 32.2809 39.0834 31.8684 39.5874 31.8677C40.1079 31.8671 40.5331 32.3018 40.5237 32.8251L40.5237 32.8239Z" fill="#A787FF"/>
<path d="M37.6052 34.0509C37.5958 34.5529 37.1722 34.9691 36.6694 34.9698C36.1515 34.9692 35.7187 34.5282 35.7306 34.0112C35.7426 33.5079 36.165 33.0955 36.669 33.0948C37.1894 33.0941 37.6147 33.5288 37.6052 34.0522L37.6052 34.0509Z" fill="#A787FF"/>
<path d="M34.6868 34.7145C34.6774 35.2165 34.2537 35.6327 33.751 35.6334C33.233 35.6328 32.8002 35.1918 32.8122 34.6747C32.8241 34.1715 33.2465 33.7591 33.7505 33.7584C34.271 33.7577 34.6962 34.1924 34.6868 34.7157L34.6868 34.7145Z" fill="#A787FF"/>
<path d="M40.5237 39.3864C40.5143 39.8883 40.0907 40.3045 39.5879 40.3052C39.07 40.3047 38.6372 39.8637 38.6491 39.3466C38.661 38.8434 39.0834 38.4309 39.5874 38.4302C40.1079 38.4296 40.5331 38.8643 40.5237 39.3876L40.5237 39.3864Z" fill="#A787FF"/>
<path d="M37.6052 40.6134C37.5958 41.1154 37.1722 41.5316 36.6694 41.5323C36.1515 41.5317 35.7187 41.0907 35.7306 40.5737C35.7426 40.0704 36.165 39.658 36.669 39.6573C37.1894 39.6566 37.6147 40.0913 37.6052 40.6147L37.6052 40.6134Z" fill="#A787FF"/>
<path d="M34.6868 41.277C34.6774 41.779 34.2537 42.1952 33.751 42.1959C33.233 42.1953 32.8002 41.7543 32.8122 41.2372C32.8241 40.734 33.2465 40.3216 33.7505 40.3209C34.271 40.3202 34.6962 40.7549 34.6868 41.2782L34.6868 41.277Z" fill="#A787FF"/>
</svg>
