<svg width="120" height="121" fill="none" xmlns="http://www.w3.org/2000/svg">
  <circle cx="88" cy="29.5" r="18" fill="#A787FF" />
  <circle cx="19.5" cy="64.001" r="3.5" fill="#FFBD70" />
  <circle cx="65.5" cy="96.001" r="2.5" fill="#F685A1" />
  <path
    d="M28 80.704v-49.23c.066-.258.144-.514.197-.775.63-2.982 2.39-4.94 5.31-5.833.48-.148.977-.244 1.467-.366h49.23c.225.064.449.142.676.187 3.13.611 5.11 2.472 5.996 5.518.121.418.201.847.3 1.272V96.5c-.23-.141-.49-.252-.686-.432-5.07-4.728-10.135-9.463-15.201-14.197-.207-.193-.416-.385-.835-.777a8607.11 8607.11 0 0 0 1.795 6.447c-.291.035-.427.065-.56.065-13.431.002-26.86.03-40.292-.016-3.475-.012-6.255-2.316-7.098-5.602-.106-.427-.198-.857-.299-1.284Zm39.47-11.985c.685.849 1.208 1.616 1.858 2.258.34.337.907.644 1.362.632 3.803-.103 7.04-1.536 9.569-4.4.377-.427.634-1.142.613-1.713-.25-6.882-1.92-13.417-4.972-19.595-.117-.238-.264-.498-.47-.65-2.77-2.076-5.874-3.3-9.343-3.532-.297-.021-.607.174-.91.268.974.564 1.917.858 2.82 1.24.91.383 1.803.818 2.666 1.298.83.459 1.61 1.005 2.415 1.513-9.149-3.885-18.213-4.032-27.325.043 1.336-.89 2.675-1.764 4.105-2.447 1.436-.687 2.964-1.185 4.451-1.766l-.037-.256c-.314-.017-.632-.078-.941-.045-3.223.34-6.177 1.41-8.794 3.341a2.87 2.87 0 0 0-.819 1.005c-3.087 6.242-4.732 12.847-4.93 19.807-.01.369.137.82.369 1.105 2.566 3.139 5.88 4.802 9.944 4.917.279.008.663-.063.827-.25.73-.837 1.4-1.727 2.104-2.617-3.897-1.867-4.78-2.468-5.875-4.107 9.243 4.942 18.31 5.07 27.366.062-1.539 1.993-3.567 3.17-6.053 3.889Z"
    fill="#fff" />
  <path
    d="M56.738 58.82c-.029 2.261-1.838 4.052-4.053 4.017-2.221-.037-4.01-1.897-3.963-4.12.045-2.224 1.877-3.943 4.156-3.9 2.293.04 3.889 1.696 3.86 4.004ZM69.864 58.816c-.008 2.212-1.69 4.015-3.708 3.978-1.986-.04-3.617-1.82-3.639-3.971-.02-2.195 1.64-3.998 3.686-3.998 2.068 0 3.67 1.747 3.661 3.991Z"
    fill="#fff" />
</svg>