<svg width="120" height="121" fill="none" xmlns="http://www.w3.org/2000/svg">
  <circle cx="90" cy="58.501" r="18" fill="#A787FF" />
  <circle cx="25.5" cy="77.001" r="3.5" fill="#FFBD70" />
  <circle cx="43.5" cy="11.001" r="2.5" fill="#F685A1" />
  <path
    d="M42.172 29C38.218 29 35 32.23 35 36.2v49.6c0 3.97 3.218 7.2 7.172 7.2h36.656C82.782 93 86 89.77 86 85.8V54.6H67.672c-3.954 0-7.172-3.23-7.172-7.2V29H42.172Zm23.11 1.406V47.4c0 1.323 1.072 2.4 2.39 2.4h16.927L65.281 30.406ZM50.14 62.6h20.718c1.32 0 2.391 1.075 2.391 2.4s-1.071 2.4-2.39 2.4H50.14a2.396 2.396 0 0 1-2.39-2.4c0-1.325 1.071-2.4 2.39-2.4Zm-.016 11.2h14.338c1.32 0 2.39 1.074 2.39 2.4a2.394 2.394 0 0 1-2.064 2.378l-.323.022H50.128a2.396 2.396 0 0 1-2.39-2.4c0-1.214.897-2.22 2.063-2.378l.324-.022Z"
    fill="#fff" />
</svg>