<svg width="65" height="19" fill="none" xmlns="http://www.w3.org/2000/svg"><rect width="65" height="19" rx="4" fill="#20A4F3"/><path d="M10.944 9.792c0-1.384-.991-2.272-2.247-2.272-1.256 0-2.248.888-2.248 2.272s.952 2.28 2.208 2.28c1.264 0 2.287-.896 2.287-2.28Zm-3.567 0c0-1 .616-1.48 1.304-1.48.68 0 1.328.48 1.328 1.48s-.672 1.488-1.352 1.488c-.688 0-1.28-.488-1.28-1.488Zm5.381-1.552v-.648h-.912v6.504h.912V11.36c.288.344.808.712 1.536.712 1.16 0 2.072-.936 2.072-2.296 0-1.36-.912-2.256-2.072-2.256-.72 0-1.256.352-1.536.72Zm2.68 1.536c0 .952-.656 1.504-1.344 1.504-.68 0-1.336-.536-1.336-1.488 0-.944.656-1.48 1.336-1.48.688 0 1.344.512 1.344 1.464Zm3.686-1.488c.68 0 1.216.432 1.232 1.112h-2.44c.096-.696.592-1.112 1.208-1.112Zm2.064 2.4h-.984c-.168.344-.48.616-1.04.616-.672 0-1.192-.44-1.256-1.168h3.368c.024-.152.032-.296.032-.448 0-1.296-.888-2.168-2.144-2.168-1.304 0-2.2.888-2.2 2.272s.936 2.28 2.2 2.28c1.08 0 1.776-.616 2.024-1.384ZM25.334 12h.904V9.4c0-1.232-.776-1.88-1.808-1.88-.529 0-1.017.216-1.313.576v-.504h-.912V12h.913V9.536c0-.808.44-1.224 1.112-1.224.663 0 1.104.416 1.104 1.224V12Zm2.163-2.512h3.288V8.72h-3.288v.768Zm7.871 1.28c-.047-1.592-2.535-1.096-2.535-1.984 0-.296.256-.496.744-.496.495 0 .791.264.824.648h.911c-.047-.88-.703-1.416-1.703-1.416-1.04 0-1.697.568-1.697 1.272 0 1.616 2.56 1.12 2.56 1.984 0 .304-.28.528-.808.528-.504 0-.848-.296-.88-.656h-.944c.04.8.784 1.424 1.84 1.424 1.04 0 1.688-.56 1.688-1.304Zm5.186-.976c0-1.384-.992-2.272-2.248-2.272-1.256 0-2.248.888-2.248 2.272s.952 2.28 2.208 2.28c1.264 0 2.288-.896 2.288-2.28Zm-3.568 0c0-1 .616-1.48 1.304-1.48.68 0 1.328.48 1.328 1.48s-.672 1.488-1.352 1.488c-.688 0-1.28-.488-1.28-1.488Zm8.462-2.2h-.913v2.456c0 .808-.44 1.224-1.111 1.224-.664 0-1.105-.416-1.105-1.224V7.592h-.904v2.592c0 1.232.785 1.88 1.816 1.88.52 0 1.017-.216 1.304-.592V12h.913V7.592Zm2.115 2.088c0-.936.416-1.216 1.088-1.216h.232V7.52c-.624 0-1.064.272-1.32.712v-.64h-.912V12h.912V9.68Zm1.854.112c0 1.384.896 2.28 2.16 2.28 1.08 0 1.784-.6 2.032-1.464h-.984c-.168.456-.504.696-1.048.696-.736 0-1.224-.544-1.224-1.512 0-.96.488-1.504 1.224-1.504.544 0 .896.272 1.048.696h.984c-.248-.928-.952-1.464-2.032-1.464-1.264 0-2.16.896-2.16 2.272Zm6.957-1.504c.68 0 1.216.432 1.232 1.112h-2.44c.096-.696.592-1.112 1.208-1.112Zm2.064 2.4h-.984c-.168.344-.48.616-1.04.616-.672 0-1.192-.44-1.256-1.168h3.368c.024-.152.032-.296.032-.448 0-1.296-.888-2.168-2.144-2.168-1.304 0-2.2.888-2.2 2.272s.936 2.28 2.2 2.28c1.08 0 1.776-.616 2.024-1.384Z" fill="#fff"/></svg>