<svg width="100" height="26" fill="none" xmlns="http://www.w3.org/2000/svg"><rect x="3" y=".5" width="97" height="25" rx="4" fill="#20A4F3"/><path d="M19.167 14.188c0-2.076-1.488-3.408-3.372-3.408s-3.372 1.332-3.372 3.408c0 2.076 1.428 3.42 3.312 3.42 1.896 0 3.432-1.344 3.432-3.42Zm-5.352 0c0-1.5.924-2.22 1.956-2.22 1.02 0 1.992.72 1.992 2.22 0 1.5-1.008 2.232-2.028 2.232-1.032 0-1.92-.732-1.92-2.232Zm8.072-2.328v-.972H20.52v9.756h1.368V16.54a2.99 2.99 0 0 0 2.304 1.068c1.74 0 3.108-1.404 3.108-3.444s-1.368-3.384-3.108-3.384c-1.08 0-1.884.528-2.304 1.08Zm4.02 2.304c0 1.428-.984 2.256-2.016 2.256-1.02 0-2.004-.804-2.004-2.232 0-1.416.984-2.22 2.004-2.22 1.032 0 2.016.768 2.016 2.196Zm5.529-2.232c1.02 0 1.824.648 1.848 1.668h-3.66c.144-1.044.888-1.668 1.812-1.668Zm3.096 3.6h-1.476c-.252.516-.72.924-1.56.924-1.008 0-1.788-.66-1.884-1.752h5.052a4.22 4.22 0 0 0 .048-.672c0-1.944-1.332-3.252-3.216-3.252-1.956 0-3.3 1.332-3.3 3.408 0 2.076 1.404 3.42 3.3 3.42 1.62 0 2.664-.924 3.036-2.076ZM40.75 17.5h1.356v-3.9c0-1.848-1.164-2.82-2.712-2.82-.792 0-1.524.324-1.968.864v-.756h-1.368V17.5h1.368v-3.696c0-1.212.66-1.836 1.668-1.836.996 0 1.656.624 1.656 1.836V17.5Zm3.245-3.768h4.932V12.58h-4.932v1.152Zm11.808 1.92c-.072-2.388-3.804-1.644-3.804-2.976 0-.444.384-.744 1.116-.744.744 0 1.188.396 1.236.972h1.368c-.072-1.32-1.056-2.124-2.556-2.124-1.56 0-2.544.852-2.544 1.908 0 2.424 3.84 1.68 3.84 2.976 0 .456-.42.792-1.212.792-.756 0-1.272-.444-1.32-.984H50.51c.06 1.2 1.176 2.136 2.76 2.136 1.56 0 2.532-.84 2.532-1.956Zm7.778-1.464c0-2.076-1.488-3.408-3.372-3.408s-3.372 1.332-3.372 3.408c0 2.076 1.428 3.42 3.312 3.42 1.896 0 3.432-1.344 3.432-3.42Zm-5.352 0c0-1.5.924-2.22 1.956-2.22 1.02 0 1.992.72 1.992 2.22 0 1.5-1.008 2.232-2.028 2.232-1.032 0-1.92-.732-1.92-2.232Zm12.692-3.3h-1.368v3.684c0 1.212-.66 1.836-1.668 1.836-.996 0-1.656-.624-1.656-1.836v-3.684h-1.356v3.888c0 1.848 1.176 2.82 2.724 2.82.78 0 1.524-.324 1.956-.888v.792h1.368v-6.612Zm3.173 3.132c0-1.404.624-1.824 1.632-1.824h.348V10.78c-.936 0-1.596.408-1.98 1.068v-.96h-1.368V17.5h1.368v-3.48Zm2.782.168c0 2.076 1.344 3.42 3.24 3.42 1.62 0 2.676-.9 3.048-2.196h-1.476c-.252.684-.756 1.044-1.572 1.044-1.104 0-1.836-.816-1.836-2.268 0-1.44.732-2.256 1.836-2.256.816 0 1.344.408 1.572 1.044h1.476c-.372-1.392-1.428-2.196-3.048-2.196-1.896 0-3.24 1.344-3.24 3.408Zm10.435-2.256c1.02 0 1.824.648 1.848 1.668h-3.66c.144-1.044.888-1.668 1.812-1.668Zm3.096 3.6h-1.476c-.252.516-.72.924-1.56.924-1.008 0-1.788-.66-1.884-1.752h5.052a4.22 4.22 0 0 0 .048-.672c0-1.944-1.332-3.252-3.216-3.252-1.956 0-3.3 1.332-3.3 3.408 0 2.076 1.404 3.42 3.3 3.42 1.62 0 2.664-.924 3.036-2.076Z" fill="#fff"/><path d="M0 12.5 3 10v5l-3-2.5Z" fill="#20A4F3"/></svg>