<svg width="80" height="80" fill="none" xmlns="http://www.w3.org/2000/svg"><path d="m58.745 32.289-10.914-7.55c.09-.49.144-.994.144-1.51 0-4.537-3.691-8.229-8.229-8.229-4.537 0-8.229 3.692-8.229 8.229 0 .535.056 1.057.154 1.564l-8.938 8.105a8.205 8.205 0 0 0-1.282-.11c-4.539-.001-8.23 3.69-8.23 8.228s3.691 8.229 8.229 8.229a8.17 8.17 0 0 0 2.64-.443l8.601 6.373a8.23 8.23 0 0 0-.158 1.596c0 4.538 3.692 8.229 8.23 8.229 4.537 0 8.228-3.691 8.228-8.229 0-.55-.056-1.085-.16-1.605l6.995-6.902a8.17 8.17 0 0 0 2.724.473c4.538 0 8.23-3.692 8.23-8.229 0-4.472-3.588-8.115-8.035-8.219Zm-18.999-16.14c3.904 0 7.08 3.176 7.08 7.08 0 1.74-.635 3.333-1.681 4.568v-.564a2.814 2.814 0 0 0-2.811-2.81h-1.968a3.262 3.262 0 0 0 2.638-3.198 3.261 3.261 0 0 0-3.258-3.258 3.262 3.262 0 0 0-3.258 3.258 3.262 3.262 0 0 0 2.639 3.197h-1.968a2.814 2.814 0 0 0-2.811 2.811v.564a7.044 7.044 0 0 1-1.68-4.568c0-3.904 3.175-7.08 7.078-7.08Zm4.248 12.728a7.035 7.035 0 0 1-4.248 1.43 7.032 7.032 0 0 1-4.247-1.43v-1.644c0-.916.745-1.66 1.66-1.66h5.175c.915 0 1.66.744 1.66 1.66v1.644Zm-4.248-5.544a2.11 2.11 0 0 1-2.107-2.107 2.11 2.11 0 0 1 2.107-2.108 2.11 2.11 0 0 1 2.108 2.108 2.11 2.11 0 0 1-2.108 2.107ZM14.371 41.016c0-3.903 3.176-7.08 7.08-7.08 3.903 0 7.079 3.177 7.079 7.08 0 1.74-.635 3.334-1.68 4.569v-.564a2.814 2.814 0 0 0-2.812-2.81H22.07a3.262 3.262 0 0 0 2.639-3.198 3.262 3.262 0 0 0-3.258-3.258 3.261 3.261 0 0 0-3.258 3.258 3.262 3.262 0 0 0 2.638 3.197h-1.968a2.814 2.814 0 0 0-2.811 2.811v.563a7.04 7.04 0 0 1-1.68-4.568Zm7.079.105a2.11 2.11 0 0 1-2.107-2.108 2.11 2.11 0 0 1 2.107-2.107 2.11 2.11 0 0 1 2.107 2.107 2.11 2.11 0 0 1-2.107 2.108Zm-4.247 5.545V45.02c0-.915.744-1.66 1.66-1.66h5.174c.916 0 1.66.745 1.66 1.66v1.645a7.033 7.033 0 0 1-4.246 1.43 7.032 7.032 0 0 1-4.248-1.43Zm19.312 15.756v-1.645c0-.915.745-1.66 1.66-1.66h5.175c.916 0 1.66.745 1.66 1.66v1.645a7.035 7.035 0 0 1-4.248 1.429 7.034 7.034 0 0 1-4.247-1.43Zm9.646-1.082v-.563a2.814 2.814 0 0 0-2.811-2.81h-1.968a3.262 3.262 0 0 0 2.638-3.199 3.261 3.261 0 0 0-3.258-3.258 3.261 3.261 0 0 0-3.258 3.258 3.262 3.262 0 0 0 2.639 3.198h-1.968a2.814 2.814 0 0 0-2.811 2.811v.563a7.044 7.044 0 0 1-1.68-4.568c0-3.903 3.175-7.08 7.078-7.08 3.904 0 7.08 3.177 7.08 7.08 0 1.74-.635 3.334-1.681 4.568Zm-5.398-4.464a2.11 2.11 0 0 1-2.107-2.108 2.11 2.11 0 0 1 2.107-2.107 2.11 2.11 0 0 1 2.107 2.107 2.11 2.11 0 0 1-2.107 2.108Zm7.705-2.966c-1.166-3.13-4.175-5.367-7.706-5.367-3.56 0-6.592 2.278-7.736 5.45l-7.712-5.715a8.236 8.236 0 0 0 4.365-7.261c0-3.617-2.349-6.69-5.598-7.79l7.937-7.198c1.15 3.161 4.175 5.428 7.727 5.428 3.595 0 6.65-2.32 7.77-5.538l9.425 6.52c-3.768.751-6.619 4.082-6.619 8.069 0 3.142 1.773 5.877 4.369 7.262l-6.222 6.14Zm5.836-7.752v-1.645c0-.915.745-1.66 1.66-1.66h5.175c.916 0 1.66.745 1.66 1.66v1.645a7.034 7.034 0 0 1-4.246 1.43 7.038 7.038 0 0 1-4.25-1.43Zm9.646-1.08v-.565c0-1.55-1.26-2.81-2.81-2.81H59.17a3.262 3.262 0 0 0 2.639-3.199 3.261 3.261 0 0 0-3.258-3.258 3.261 3.261 0 0 0-3.258 3.258 3.263 3.263 0 0 0 2.64 3.198h-1.969a2.814 2.814 0 0 0-2.81 2.811v.564a7.044 7.044 0 0 1-1.68-4.568c0-3.903 3.175-7.08 7.078-7.08 3.904 0 7.08 3.177 7.08 7.08a7.06 7.06 0 0 1-1.683 4.568Zm-5.398-4.465a2.11 2.11 0 0 1-2.108-2.108 2.11 2.11 0 0 1 2.108-2.107 2.11 2.11 0 0 1 2.107 2.107 2.11 2.11 0 0 1-2.107 2.108Z" fill="#fff"/></svg>