<svg width="81" height="80" fill="none" xmlns="http://www.w3.org/2000/svg"><path d="M40.667 26.247a.756.756 0 0 1-.357-.089l-8.181-4.392a.73.73 0 0 1-.389-.643.73.73 0 0 1 .388-.642l8.182-4.392c.221-.119.491-.119.712 0l8.183 4.393c.24.128.388.374.388.641a.731.731 0 0 1-.387.643l-8.183 4.392a.757.757 0 0 1-.356.09Zm-6.63-5.124 6.63 3.56 6.63-3.56-6.63-3.557-6.63 3.557ZM57.772 21.855h-6.693a.738.738 0 0 1-.743-.732c0-.404.332-.731.743-.731h6.693c.41 0 .743.328.743.731a.738.738 0 0 1-.743.732Z" fill="#fff"/><path d="M57.772 27.708a.738.738 0 0 1-.744-.732v-5.853c0-.404.332-.731.744-.731.41 0 .743.328.743.731v5.853a.738.738 0 0 1-.743.732Z" fill="#fff"/><path d="M57.772 27.708a.748.748 0 0 1-.526-.214.723.723 0 0 1 0-1.035l1.487-1.464a.752.752 0 0 1 1.052 0c.29.287.29.749 0 1.035l-1.488 1.464a.748.748 0 0 1-.525.214Z" fill="#fff"/><path d="M57.772 27.708a.748.748 0 0 1-.526-.214l-1.488-1.464a.723.723 0 0 1 0-1.035.752.752 0 0 1 1.052 0l1.487 1.464c.291.286.291.748 0 1.035a.748.748 0 0 1-.525.214ZM63.723 35.758H51.822a.738.738 0 0 1-.744-.731v-5.855c0-.404.332-.732.743-.732h11.902c.411 0 .744.328.744.732v5.855a.738.738 0 0 1-.744.731Zm-11.158-1.463H62.98v-4.392H52.565v4.392ZM30.254 21.855h-6.692a.738.738 0 0 1-.744-.732c0-.404.333-.731.744-.731h6.692c.412 0 .744.328.744.731a.738.738 0 0 1-.744.732Z" fill="#fff"/><path d="M23.562 27.708a.738.738 0 0 1-.744-.732v-5.853c0-.404.333-.731.744-.731s.744.328.744.731v5.853a.738.738 0 0 1-.744.732Z" fill="#fff"/><path d="M23.562 27.708a.748.748 0 0 1-.526-.214L21.55 26.03a.723.723 0 0 1 0-1.035.752.752 0 0 1 1.051 0l1.488 1.464c.29.286.29.748 0 1.035a.748.748 0 0 1-.526.214Z" fill="#fff"/><path d="M23.562 27.708a.748.748 0 0 1-.526-.214.723.723 0 0 1 0-1.035l1.488-1.464a.752.752 0 0 1 1.051 0c.291.287.291.749 0 1.035l-1.487 1.464a.748.748 0 0 1-.526.214ZM29.512 35.758H17.61a.738.738 0 0 1-.743-.731v-5.855c0-.404.332-.732.743-.732h11.902c.411 0 .744.328.744.732v5.855a.738.738 0 0 1-.744.731Zm-11.158-1.463h10.414v-4.392H18.354v4.392ZM30.834 58.65a.657.657 0 0 1-.645-.67c0-2.58 2.027-4.68 4.518-4.68.357 0 .646.298.646.668 0 .37-.289.669-.646.669-1.78 0-3.227 1.5-3.227 3.344 0 .37-.289.669-.646.669Z" fill="#fff"/><path d="m37.29 54.638-2.583-.001a.658.658 0 0 1-.645-.67c0-.369.289-.668.645-.668l2.583.001c.356 0 .645.3.645.67 0 .37-.29.668-.646.668ZM30.834 62.662a.657.657 0 0 1-.645-.668v-3.821c0-.37.288-.67.645-.67.357 0 .646.3.646.67v3.82c0 .37-.289.67-.646.67ZM50.2 58.65a.657.657 0 0 1-.646-.67c0-1.843-1.448-3.343-3.227-3.343a.657.657 0 0 1-.646-.67c0-.369.288-.668.646-.668 2.49 0 4.518 2.1 4.518 4.682 0 .37-.288.669-.645.669Z" fill="#fff"/><path d="M43.744 54.638a.657.657 0 0 1-.645-.669c0-.369.288-.669.645-.669h2.583c.356 0 .645.298.645.668 0 .37-.29.669-.645.669l-2.583.001ZM50.2 62.662a.657.657 0 0 1-.646-.668v-3.821c0-.37.289-.67.646-.67.357 0 .645.3.645.67v3.82c0 .37-.288.67-.645.67ZM48.908 64H32.125a.657.657 0 0 1-.645-.669c0-.37.288-.669.645-.669h16.783c.358 0 .646.3.646.67 0 .369-.288.668-.646.668ZM37.29 54.638a.657.657 0 0 1-.646-.669v-2.14c0-.37.288-.67.645-.67.357 0 .646.3.646.67v2.14c0 .37-.29.669-.646.669Z" fill="#fff"/><path d="M43.744 54.637a.657.657 0 0 1-.645-.67v-2.139c0-.37.288-.669.645-.669.357 0 .646.3.646.67v2.139c0 .37-.289.669-.646.669Z" fill="#fff"/><path d="M40.517 53.3c-4.272 0-7.746-3.601-7.746-8.027 0-.37.288-.668.645-.668.357 0 .646.299.646.668 0 3.688 2.895 6.688 6.455 6.688s6.455-3 6.455-6.688c0-.37.288-.668.645-.668.358 0 .646.299.646.668 0 4.426-3.475 8.026-7.746 8.026Z" fill="#fff"/><path d="M33.416 45.944a.657.657 0 0 1-.645-.67v-6.02c0-.37.288-.669.645-.669.357 0 .646.3.646.67v6.018c0 .37-.289.67-.646.67ZM47.617 45.944a.657.657 0 0 1-.645-.67v-6.02c0-.37.288-.669.645-.669.358 0 .646.3.646.67v6.018c0 .37-.288.67-.645.67Z" fill="#fff"/><path d="M47.617 39.923a.657.657 0 0 1-.645-.669c0-1.475-1.158-2.675-2.582-2.675a.657.657 0 0 1-.646-.669c0-.37.289-.669.646-.669 2.136 0 3.873 1.8 3.873 4.013 0 .37-.288.669-.645.669Z" fill="#fff"/><path d="M44.39 36.579a.657.657 0 0 1-.646-.669v-2.675c0-.37.289-.669.646-.669.357 0 .645.3.645.669v2.675c0 .37-.288.669-.645.669Z" fill="#fff"/><path d="M44.39 33.904h-5.164a.657.657 0 0 1-.646-.67c0-.368.289-.668.646-.668h5.164c.357 0 .645.3.645.669 0 .369-.288.669-.645.669Z" fill="#fff"/><path d="M33.416 39.923a.657.657 0 0 1-.645-.669c0-3.688 2.895-6.688 6.455-6.688.357 0 .645.3.645.67 0 .369-.288.668-.645.668-2.848 0-5.164 2.4-5.164 5.35 0 .37-.289.669-.646.669ZM47.617 43.267a.632.632 0 0 1-.456-.195l-1.936-2.007a.685.685 0 0 1 0-.945.629.629 0 0 1 .912 0l1.937 2.006a.685.685 0 0 1 0 .946.631.631 0 0 1-.456.195Z" fill="#fff"/><path d="M40.517 42.598c-2.895 0-5.366-1.36-5.47-1.418a.68.68 0 0 1-.263-.905.634.634 0 0 1 .874-.273c.023.013 2.297 1.258 4.859 1.258 2.573 0 4.835-1.245 4.858-1.257a.633.633 0 0 1 .874.272.681.681 0 0 1-.263.905c-.103.058-2.574 1.418-5.47 1.418Z" fill="#fff"/><path d="M33.416 43.267a.631.631 0 0 1-.456-.195.685.685 0 0 1 0-.946l1.936-2.006a.629.629 0 0 1 .913 0 .685.685 0 0 1 0 .945l-1.936 2.007a.632.632 0 0 1-.457.195ZM38.58 55.974a.632.632 0 0 1-.456-.196l-1.291-1.336a.685.685 0 0 1 0-.946.63.63 0 0 1 .913 0l1.29 1.337a.685.685 0 0 1 0 .945.632.632 0 0 1-.456.196Z" fill="#fff"/><path d="M38.58 55.974a.647.647 0 0 1-.612-.457.674.674 0 0 1 .408-.846l1.937-.669a.64.64 0 0 1 .816.423c.113.35-.07.73-.408.846l-1.936.669a.633.633 0 0 1-.205.034ZM42.453 55.974a.632.632 0 0 1-.456-.196.685.685 0 0 1 0-.945l1.291-1.337a.63.63 0 0 1 .913 0 .685.685 0 0 1 0 .946l-1.291 1.336a.632.632 0 0 1-.457.196Z" fill="#fff"/><path d="M42.453 55.974a.625.625 0 0 1-.204-.034l-1.936-.67a.674.674 0 0 1-.408-.845.64.64 0 0 1 .816-.423l1.937.669c.338.116.52.495.408.846a.648.648 0 0 1-.613.457ZM48.908 64a.657.657 0 0 1-.645-.669c0-.37.289-.669.645-.669.357 0 .646-.3.646-.668 0-.37.289-.67.646-.67.357 0 .645.3.645.67 0 1.106-.869 2.006-1.937 2.006ZM32.125 64c-1.068 0-1.936-.9-1.936-2.006 0-.37.288-.67.645-.67.357 0 .646.3.646.67 0 .369.289.668.645.668.357 0 .646.3.646.67 0 .369-.289.668-.646.668ZM40.536 58.65a.66.66 0 0 1-.649-.67c0-.37.286-.668.642-.668h.007c.356 0 .646.299.646.669 0 .37-.29.669-.646.669ZM40.536 61.325a.66.66 0 0 1-.649-.669c0-.37.286-.669.642-.669h.007c.356 0 .646.3.646.669 0 .37-.29.669-.646.669Z" fill="#fff"/></svg>