<svg width="81" height="80" fill="none" xmlns="http://www.w3.org/2000/svg"><path d="M63.584 40h-30a.75.75 0 0 1-.75-.75v-4.5a.75.75 0 1 1 1.5 0v3.75h28.5v-21h-28.5v14.25a.75.75 0 1 1-1.5 0v-15a.75.75 0 0 1 .75-.75h30a.75.75 0 0 1 .75.75v22.5a.75.75 0 0 1-.75.75ZM20.084 40a.75.75 0 0 1-.75-.75V35.5a.75.75 0 1 1 1.5 0v3.75a.75.75 0 0 1-.75.75ZM23.084 32.502h-3a.75.75 0 1 1 0-1.5h3a.75.75 0 1 1 0 1.5Z" fill="#fff"/><path d="M17.084 35.5a.75.75 0 0 1-.75-.75 3.754 3.754 0 0 1 3.75-3.75.75.75 0 1 1 0 1.5c-1.241 0-2.25 1.01-2.25 2.25a.75.75 0 0 1-.75.75Z" fill="#fff"/><path d="M17.084 40a.75.75 0 0 1-.75-.75v-4.5a.75.75 0 1 1 1.5 0v4.5a.75.75 0 0 1-.75.75ZM30.584 40a.75.75 0 0 1-.75-.75v-4.5a.75.75 0 1 1 1.5 0v4.5a.75.75 0 0 1-.75.75Z" fill="#fff"/><path d="M34.334 35.5h-3.75a.75.75 0 1 1 0-1.5h3.75a.75.75 0 1 1 0 1.5ZM39.584 30.25a.75.75 0 0 1-.75-.75.75.75 0 0 0-1.5 0 .75.75 0 1 1-1.5 0c0-1.24 1.009-2.25 2.25-2.25 1.24 0 2.25 1.01 2.25 2.25a.75.75 0 0 1-.75.75Z" fill="#fff"/><path d="M34.334 35.5a.75.75 0 1 1 0-1.5c2.481 0 4.5-2.018 4.5-4.5a.75.75 0 1 1 1.5 0c0 3.308-2.692 6-6 6Z" fill="#fff"/><path d="M34.334 32.5a.75.75 0 1 1 0-1.5c.827 0 1.5-.673 1.5-1.5a.75.75 0 1 1 1.5 0c0 1.654-1.346 3-3 3ZM62.085 48.25a.75.75 0 0 1-.75-.75c0-.827-.674-1.5-1.502-1.5a.75.75 0 1 1 0-1.5 3.004 3.004 0 0 1 3.002 3 .75.75 0 0 1-.75.75Z" fill="#fff"/><path d="M59.834 46a.75.75 0 0 1-.75-.75V43a.75.75 0 1 1 1.5 0v2.25a.75.75 0 0 1-.75.75ZM51.584 48.25a.75.75 0 0 1-.75-.75 5.257 5.257 0 0 1 5.25-5.25.75.75 0 1 1 0 1.5 3.754 3.754 0 0 0-3.75 3.75.75.75 0 0 1-.75.75Z" fill="#fff"/><path d="M59.834 43.75h-3.75a.75.75 0 1 1 0-1.5h3.75a.75.75 0 1 1 0 1.5ZM56.834 55c-4.166 0-5.852-3.275-5.922-3.415a.75.75 0 0 1 1.34-.674c.057.109 1.366 2.589 4.581 2.589 3.25 0 4.567-2.56 4.58-2.585a.75.75 0 0 1 1.342.671c-.07.139-1.756 3.414-5.921 3.414Z" fill="#fff"/><path d="M51.584 52a.75.75 0 0 1-.75-.75v-3.753a.75.75 0 1 1 1.5 0v3.753a.75.75 0 0 1-.75.75ZM62.084 52a.75.75 0 0 1-.75-.75v-3.753a.75.75 0 1 1 1.5 0v3.753a.75.75 0 0 1-.75.75ZM50.084 61.746a.75.75 0 0 1-.75-.75c0-1.654 1.345-2.999 3-2.999a.75.75 0 1 1 0 1.5 1.5 1.5 0 0 0-1.5 1.5.75.75 0 0 1-.75.75Z" fill="#fff"/><path d="M54.584 59.502h-2.25a.75.75 0 1 1 0-1.5h2.25a.75.75 0 1 1 0 1.5ZM50.084 64a.75.75 0 0 1-.75-.75v-2.254a.75.75 0 1 1 1.5 0v2.254a.75.75 0 0 1-.75.75ZM63.584 61.746a.75.75 0 0 1-.75-.75 1.5 1.5 0 0 0-1.5-1.499.75.75 0 1 1 0-1.5c1.654 0 3 1.346 3 3a.75.75 0 0 1-.75.75Z" fill="#fff"/><path d="M61.334 59.502h-2.25a.75.75 0 1 1 0-1.5h2.25a.75.75 0 1 1 0 1.5ZM63.584 64a.75.75 0 0 1-.75-.75v-2.254a.75.75 0 1 1 1.5 0v2.254a.75.75 0 0 1-.75.75Z" fill="#fff"/><path d="M63.584 64h-13.5a.75.75 0 1 1 0-1.5h13.5a.75.75 0 1 1 0 1.5ZM54.584 59.502a.75.75 0 0 1-.75-.75v-2.764a.75.75 0 1 1 1.5 0v2.764a.75.75 0 0 1-.75.75ZM59.084 59.496a.75.75 0 0 1-.75-.75v-2.758a.75.75 0 1 1 1.5 0v2.758a.75.75 0 0 1-.75.75Z" fill="#fff"/><path d="M56.834 57.244c-3.309 0-6-2.691-6-5.998a.75.75 0 1 1 1.5 0 4.504 4.504 0 0 0 4.5 4.498c2.481 0 4.5-2.017 4.5-4.498a.75.75 0 1 1 1.5 0 6.006 6.006 0 0 1-6 5.998ZM59.084 59.496h-4.5a.75.75 0 1 1 0-1.5h4.5a.75.75 0 1 1 0 1.5ZM23.834 55c-4.166 0-5.852-3.275-5.922-3.415a.75.75 0 0 1 1.34-.674c.057.109 1.366 2.589 4.582 2.589 3.248 0 4.566-2.56 4.578-2.585a.75.75 0 0 1 1.342.671c-.069.139-1.755 3.414-5.92 3.414Z" fill="#fff"/><path d="M18.584 52a.75.75 0 0 1-.75-.75v-3.003a.75.75 0 1 1 1.5 0v3.003a.75.75 0 0 1-.75.75ZM29.084 52a.75.75 0 0 1-.75-.75v-3.003a.75.75 0 1 1 1.5 0v3.003a.75.75 0 0 1-.75.75ZM17.084 61.746a.75.75 0 0 1-.75-.75c0-1.654 1.345-2.999 3-2.999a.75.75 0 1 1 0 1.5 1.5 1.5 0 0 0-1.5 1.5.75.75 0 0 1-.75.75Z" fill="#fff"/><path d="M21.584 59.502h-2.25a.75.75 0 1 1 0-1.5h2.25a.75.75 0 1 1 0 1.5ZM17.084 64a.75.75 0 0 1-.75-.75v-2.254a.75.75 0 1 1 1.5 0v2.254a.75.75 0 0 1-.75.75ZM30.584 61.746a.75.75 0 0 1-.75-.75 1.5 1.5 0 0 0-1.5-1.499.75.75 0 1 1 0-1.5c1.654 0 3 1.346 3 3a.75.75 0 0 1-.75.75Z" fill="#fff"/><path d="M28.334 59.502h-2.25a.75.75 0 1 1 0-1.5h2.25a.75.75 0 1 1 0 1.5ZM30.584 64a.75.75 0 0 1-.75-.75v-2.254a.75.75 0 1 1 1.5 0v2.254a.75.75 0 0 1-.75.75Z" fill="#fff"/><path d="M30.584 64h-13.5a.75.75 0 1 1 0-1.5h13.5a.75.75 0 1 1 0 1.5ZM21.584 59.502a.75.75 0 0 1-.75-.75v-2.764a.75.75 0 1 1 1.5 0v2.764a.75.75 0 0 1-.75.75ZM26.084 59.496a.75.75 0 0 1-.75-.75v-2.758a.75.75 0 1 1 1.5 0v2.758a.75.75 0 0 1-.75.75Z" fill="#fff"/><path d="M23.834 57.244c-3.309 0-6-2.691-6-5.998a.75.75 0 1 1 1.5 0 4.504 4.504 0 0 0 4.5 4.498c2.481 0 4.5-2.017 4.5-4.498a.75.75 0 1 1 1.5 0 6.006 6.006 0 0 1-6 5.998ZM29.084 48.997a.75.75 0 0 1-.75-.75 4.503 4.503 0 0 0-4.5-4.497 4.503 4.503 0 0 0-4.5 4.497.75.75 0 1 1-1.5 0 6.005 6.005 0 0 1 6-5.997c3.308 0 6 2.69 6 5.997a.75.75 0 0 1-.75.75ZM26.084 59.496h-4.5a.75.75 0 1 1 0-1.5h4.5a.75.75 0 1 1 0 1.5ZM47.084 57.25a.75.75 0 0 1-.75-.75v-7.468a.75.75 0 1 1 1.5 0V56.5a.75.75 0 0 1-.75.75Z" fill="#fff"/><path d="M47.084 57.25h-13.5a.75.75 0 1 1 0-1.5h13.5a.75.75 0 1 1 0 1.5Z" fill="#fff"/><path d="M33.584 57.25a.75.75 0 0 1-.75-.75v-7.468a.75.75 0 1 1 1.5 0V56.5a.75.75 0 0 1-.75.75Z" fill="#fff"/><path d="M47.084 49.782a.75.75 0 0 1-.75-.75c0-3.309-2.692-6-6-6-3.309 0-6 2.691-6 6a.75.75 0 1 1-1.5 0c0-4.136 3.364-7.5 7.5-7.5 4.135 0 7.5 3.364 7.5 7.5a.75.75 0 0 1-.75.75ZM33.584 61.746a.75.75 0 0 1-.75-.75c0-1.654 1.345-2.999 3-2.999a.75.75 0 1 1 0 1.5 1.5 1.5 0 0 0-1.5 1.5.75.75 0 0 1-.75.75Z" fill="#fff"/><path d="M38.084 59.502h-2.25a.75.75 0 1 1 0-1.5h2.25a.75.75 0 1 1 0 1.5ZM33.584 64a.75.75 0 0 1-.75-.75v-2.254a.75.75 0 1 1 1.5 0v2.254a.75.75 0 0 1-.75.75ZM47.084 61.746a.75.75 0 0 1-.75-.75 1.5 1.5 0 0 0-1.5-1.499.75.75 0 1 1 0-1.5c1.654 0 3 1.346 3 3a.75.75 0 0 1-.75.75Z" fill="#fff"/><path d="M44.834 59.502h-2.25a.75.75 0 1 1 0-1.5h2.25a.75.75 0 1 1 0 1.5ZM47.084 64a.75.75 0 0 1-.75-.75v-2.254a.75.75 0 1 1 1.5 0v2.254a.75.75 0 0 1-.75.75Z" fill="#fff"/><path d="M47.084 64h-13.5a.75.75 0 1 1 0-1.5h13.5a.75.75 0 1 1 0 1.5ZM38.084 59.502a.75.75 0 0 1-.75-.75v-1.264a.75.75 0 1 1 1.5 0v1.264a.75.75 0 0 1-.75.75ZM42.584 59.496a.75.75 0 0 1-.75-.75v-1.258a.75.75 0 1 1 1.5 0v1.258a.75.75 0 0 1-.75.75Z" fill="#fff"/><path d="M40.334 60.246a.752.752 0 0 1-.238-.039l-2.25-.75a.75.75 0 1 1 .475-1.422l2.25.75a.75.75 0 0 1-.237 1.461Z" fill="#fff"/><path d="M40.334 60.246a.749.749 0 0 1-.238-1.462l2.25-.75a.75.75 0 1 1 .475 1.423l-2.25.75a.737.737 0 0 1-.237.04ZM20.084 25.75a.75.75 0 0 1-.75-.75v-2.151a.75.75 0 1 1 1.5 0V25a.75.75 0 0 1-.75.75ZM30.584 25.75a.75.75 0 0 1-.75-.75v-2.626a.75.75 0 1 1 1.5 0V25a.75.75 0 0 1-.75.75Z" fill="#fff"/><path d="M30.584 23.124a.75.75 0 0 1-.75-.75 4.88 4.88 0 0 0-4.876-4.874 4.88 4.88 0 0 0-4.874 4.874.75.75 0 1 1-1.5 0A6.382 6.382 0 0 1 24.957 16a6.382 6.382 0 0 1 6.376 6.374.75.75 0 0 1-.75.75Z" fill="#fff"/><path d="M30.584 24.152a.75.75 0 0 1-.596-.294c-1.447-1.891-1.841-1.735-3.31-1.153-1.408.559-3.537 1.403-7.462.782a.749.749 0 1 1 .235-1.481c3.518.553 5.343-.167 6.674-.695 1.809-.717 3.02-1.02 5.054 1.636a.75.75 0 0 1-.595 1.206Z" fill="#fff"/><path d="M27.583 22.357a.75.75 0 0 1-.672-1.08l1.5-3.054a.749.749 0 1 1 1.346.66l-1.5 3.054a.75.75 0 0 1-.674.42ZM34.334 32.5l-6.751-.004a.75.75 0 0 1 0-1.5h.001l6.75.004a.75.75 0 0 1 0 1.5ZM23.084 32.502a.75.75 0 0 1-.75-.75v-2.014a.75.75 0 1 1 1.5 0v2.014a.75.75 0 0 1-.75.75Z" fill="#fff"/><path d="M27.584 32.496a.75.75 0 0 1-.75-.75v-2.008a.75.75 0 1 1 1.5 0v2.008a.75.75 0 0 1-.75.75Z" fill="#fff"/><path d="M25.334 30.994c-3.309 0-6-2.691-6-5.998a.75.75 0 1 1 1.5 0 4.504 4.504 0 0 0 4.5 4.498c2.481 0 4.5-2.017 4.5-4.498a.75.75 0 1 1 1.5 0 6.006 6.006 0 0 1-6 5.998Z" fill="#fff"/><path d="M23.834 33.246a.75.75 0 0 1-.337-1.421l1.5-.75a.75.75 0 0 1 .671 1.342l-1.5.75a.743.743 0 0 1-.334.08ZM26.834 33.246a.748.748 0 0 1-.53-1.28l.75-.75a.75.75 0 1 1 1.06 1.06l-.75.75a.748.748 0 0 1-.53.22Z" fill="#fff"/><path d="M23.834 33.246a.748.748 0 0 1-.53-.22l-.75-.75a.75.75 0 1 1 1.06-1.06l.75.75a.75.75 0 0 1-.53 1.28ZM26.834 33.246a.756.756 0 0 1-.336-.079l-1.5-.75a.75.75 0 0 1 .671-1.341l1.5.75a.75.75 0 0 1-.335 1.42ZM19.334 23.496a.75.75 0 0 1-.75-.75v-.372a.75.75 0 1 1 1.5 0v.372a.75.75 0 0 1-.75.75ZM44.082 23.5c-1.24 0-2.25-1.01-2.25-2.25s1.01-2.25 2.25-2.25a.75.75 0 1 1 0 1.5.75.75 0 0 0 0 1.5.75.75 0 1 1 0 1.5ZM48.58 23.5a.75.75 0 1 1 0-1.5.75.75 0 0 0 0-1.5.75.75 0 1 1 0-1.5c1.241 0 2.25 1.01 2.25 2.25s-1.009 2.25-2.25 2.25Z" fill="#fff"/><path d="M48.58 20.5h-4.498a.75.75 0 1 1 0-1.5h4.498a.75.75 0 1 1 0 1.5ZM48.58 23.5h-4.498a.75.75 0 1 1 0-1.5h4.498a.75.75 0 1 1 0 1.5ZM44.082 37c-1.24 0-2.25-1.01-2.25-2.25 0-1.241 1.01-2.25 2.25-2.25a.75.75 0 1 1 0 1.5.75.75 0 0 0 0 1.5.75.75 0 1 1 0 1.5ZM48.58 37a.75.75 0 1 1 0-1.5.75.75 0 0 0 0-1.5.75.75 0 1 1 0-1.5c1.241 0 2.25 1.009 2.25 2.25 0 1.24-1.009 2.25-2.25 2.25Z" fill="#fff"/><path d="M48.58 34h-4.498a.75.75 0 1 1 0-1.5h4.498a.75.75 0 1 1 0 1.5ZM48.58 37h-4.498a.75.75 0 1 1 0-1.5h4.498a.75.75 0 1 1 0 1.5ZM46.331 26.497a.75.75 0 0 1-.75-.75V22.75a.75.75 0 1 1 1.5 0v2.997a.75.75 0 0 1-.75.75Z" fill="#fff"/><path d="M46.331 31a.753.753 0 0 1-.386-.107l-3.75-2.25a.75.75 0 0 1 0-1.285l3.75-2.25a.754.754 0 0 1 .772 0l3.749 2.25a.75.75 0 0 1 0 1.285l-3.75 2.25a.746.746 0 0 1-.385.108Zm-2.292-3 2.292 1.376 2.292-1.375-2.292-1.376-2.292 1.376ZM60.584 30.25h-7.5a.75.75 0 0 1-.75-.75v-3a.75.75 0 0 1 .75-.75h7.5a.75.75 0 0 1 .75.75v3a.75.75 0 0 1-.75.75Zm-6.75-1.5h6v-1.5h-6v1.5Z" fill="#fff"/><path d="M46.331 34a.75.75 0 0 1-.75-.75v-3a.75.75 0 1 1 1.5 0v3a.75.75 0 0 1-.75.75ZM53.084 28.75H50.08a.75.75 0 1 1 0-1.5h3.004a.75.75 0 1 1 0 1.5ZM56.834 35.5a.75.75 0 0 1-.75-.75V29.5a.75.75 0 1 1 1.5 0v5.25a.75.75 0 0 1-.75.75Z" fill="#fff"/><path d="M56.834 35.5H50.08a.75.75 0 1 1 0-1.5h6.754a.75.75 0 1 1 0 1.5Z" fill="#fff"/></svg>