<svg width="156" height="80" viewBox="0 0 156 80" fill="none" xmlns="http://www.w3.org/2000/svg">
<path d="M47.3046 53.9886C44.9576 53.8956 43.0374 53.2551 41.536 52.0654C41.2495 51.8381 40.5667 51.1567 40.3376 50.8693C39.7288 50.1057 39.3148 49.3625 39.0387 48.538C38.1892 45.9999 38.6264 42.6693 40.2894 39.0141C41.7132 35.8847 43.9103 32.781 47.7434 28.4824C48.3081 27.8499 49.9895 26 50.0004 26C50.0044 26 49.9128 26.1583 49.7974 26.3511C48.8008 28.0162 47.948 29.9775 47.4834 31.6755C46.7371 34.4 46.8271 36.7381 47.747 38.5511C48.3816 39.8001 49.4695 40.882 50.6928 41.48C52.8344 42.5266 55.9699 42.6132 59.799 41.7333C60.0626 41.6724 73.1261 38.2136 88.8291 34.0468C104.532 29.8797 117.382 26.473 117.384 26.4758C117.389 26.4794 80.9016 42.052 61.9607 50.1309C58.9611 51.41 58.1589 51.7331 56.7487 52.2269C53.1439 53.4896 49.9148 54.092 47.3046 53.9886Z" fill="white"/>
</svg>
