<svg width="156" height="80" viewBox="0 0 156 80" fill="none" xmlns="http://www.w3.org/2000/svg">
<path d="M48.2616 46.2065C48.5507 47.3 49.0172 47.7228 49.8416 47.7228C50.6963 47.7228 51.1444 47.2094 51.1444 46.2065V27.587H56.4981V46.2065C56.4981 48.831 56.1576 49.9682 54.8269 51.2993C53.8678 52.2585 52.0989 53 49.8653 53C48.0607 53 46.334 52.4027 45.2327 51.2995C44.2673 50.3322 43.7369 49.3386 42.9081 46.2063L39.623 33.7935C39.3337 32.7 38.8674 32.2773 38.043 32.2773C37.1881 32.2773 36.74 32.7906 36.74 33.7935V52.4132H31.3863V33.7935C31.3863 31.1692 31.727 30.0318 33.0577 28.7007C34.0164 27.7419 35.7855 27 38.0193 27C39.8239 27 41.5506 27.5975 42.6519 28.7005C43.6173 29.6678 44.1477 30.6614 44.9765 33.7937L48.2616 46.2065Z" fill="white"/>
<path d="M119.08 52.4132L112.897 33.0713C112.829 32.8578 112.764 32.6765 112.665 32.5556C112.496 32.3489 112.261 32.2403 111.944 32.2403C111.628 32.2403 111.393 32.3489 111.223 32.5556C111.124 32.6763 111.06 32.8576 110.992 33.0713L104.809 52.4132H99.275L106.029 31.2845C106.38 30.1839 106.883 29.2494 107.522 28.6268C108.617 27.559 109.908 27 111.944 27C113.981 27 115.272 27.559 116.367 28.6266C117.005 29.2494 117.508 30.1837 117.86 31.2844L124.614 52.413H119.08V52.4132Z" fill="white"/>
<path d="M91.7173 52.4132C95.2247 52.4132 96.9355 51.668 98.2872 50.3239C99.7828 48.8371 100.498 47.2103 100.498 44.7815C100.498 42.6354 99.7125 40.6476 98.5163 39.4581C96.9522 37.9027 95.0096 37.4125 91.8418 37.4125L87.4049 37.4123C85.7095 37.4123 85.0338 37.2074 84.4993 36.6822C84.1322 36.3219 83.9601 35.7861 83.9601 35.1545C83.9601 34.5016 84.1173 33.8568 84.5661 33.4163C84.9643 33.0254 85.5071 32.846 86.5502 32.846H99.3735V27.587H87.5296C84.0221 27.587 82.3115 28.3324 80.9597 29.6763C79.4643 31.1631 78.7487 32.7897 78.7487 35.2185C78.7487 37.365 79.5343 39.3526 80.7306 40.5419C82.2948 42.0973 84.2373 42.5877 87.405 42.5877L91.8422 42.588C93.5376 42.588 94.2132 42.7926 94.7478 43.318C95.1149 43.6784 95.2869 44.2141 95.2869 44.8457C95.2869 45.4986 95.1297 46.1434 94.6812 46.5838C94.2828 46.9748 93.7399 47.1542 92.6969 47.1542H79.4716L74.3992 31.2845C74.0473 30.1839 73.5443 29.2494 72.9061 28.6268C71.8108 27.559 70.5201 27 68.4833 27C66.4465 27 65.1556 27.559 64.0608 28.6266C63.4224 29.2494 62.9196 30.1837 62.5677 31.2844L55.8142 52.413H61.348L67.5308 33.0711C67.5991 32.8576 67.6634 32.6763 67.7625 32.5554C67.9324 32.3487 68.1676 32.2401 68.4836 32.2401C68.7997 32.2401 69.0347 32.3487 69.2048 32.5554C69.3038 32.6761 69.3682 32.8574 69.4363 33.0711L75.6191 52.413H91.7173V52.4132Z" fill="white"/>
</svg>
