<svg width="156" height="80" viewBox="0 0 156 80" fill="none" xmlns="http://www.w3.org/2000/svg">
<g clip-path="url(#clip0_135_2431)">
<path d="M78.0268 10.8749C61.8467 10.8749 48.8492 23.9105 48.8492 40.0832C48.8492 56.2559 61.8473 69.2915 78.0268 69.2915C94.2055 69.2915 107.193 56.2559 107.193 40.0832C107.193 23.9105 94.2055 10.8749 78.0268 10.8749Z" fill="white"/>
<path d="M58.8955 30.9262C53.8204 30.9262 49.7483 35.0149 49.7483 40.0838C49.7483 45.1528 53.8204 49.2414 58.8955 49.2414C62.0119 49.2414 63.2302 47.0413 63.2302 47.0413V49.0427H68.0428V40.0836C68.0428 35.0146 63.9707 30.926 58.8955 30.926V30.9262ZM58.8955 35.7141C61.3152 35.7141 63.2548 37.6652 63.2548 40.0839C63.2548 42.5027 61.3152 44.4537 58.8955 44.4537C56.4759 44.4537 54.5362 42.5027 54.5362 40.0839C54.5362 37.6652 56.4759 35.7141 58.8955 35.7141Z" fill="#22273C"/>
<path d="M69.2067 24.6197V40.0837C69.2067 45.1527 73.2819 49.2445 78.3571 49.2445C83.4322 49.2445 87.4969 45.1526 87.4969 40.0837C87.4969 35.0146 83.4322 30.9228 78.3571 30.9228C75.2406 30.9228 74.0182 33.129 74.0182 33.129V24.6194L69.2067 24.6197ZM78.3571 35.7136C80.7767 35.7136 82.7169 37.6652 82.7169 40.0839C82.7169 42.5027 80.7769 44.4543 78.3571 44.4543C75.9374 44.4543 73.9972 42.5027 73.9972 40.0839C73.9972 37.6652 75.9374 35.7136 78.3571 35.7136Z" fill="#22273C"/>
<path d="M97.429 30.9262C92.3538 30.9262 88.2817 35.0149 88.2817 40.0838C88.2817 45.1528 92.3538 49.2414 97.429 49.2414C101.81 49.2414 105.444 46.1948 106.357 42.1013H101.297C100.571 43.4973 99.1178 44.4534 97.429 44.4534C95.0093 44.4534 93.0697 42.5024 93.0697 40.0836C93.0697 37.6649 95.0093 35.7139 97.429 35.7139C99.1229 35.7139 100.584 36.6736 101.307 38.0765H106.357C105.448 33.9778 101.813 30.926 97.4289 30.926L97.429 30.9262Z" fill="#22273C"/>
</g>
<defs>
<clipPath id="clip0_135_2431">
<rect width="58.9271" height="59" fill="white" transform="translate(48.5365 10.5)"/>
</clipPath>
</defs>
</svg>
