<svg width="156" height="80" viewBox="0 0 156 80" fill="none" xmlns="http://www.w3.org/2000/svg">
<path d="M60.3254 37.7204H59.614V48.3555H60.3254V37.7204Z" fill="white"/>
<path d="M63.2695 42.5869C64.1081 42.5869 64.6061 43.6585 64.6061 44.9845C64.6061 46.3256 64.1505 47.4957 63.2786 47.4957C62.4324 47.4957 61.9753 46.2681 61.9753 44.9709C61.9753 43.7282 62.4824 42.5869 63.2695 42.5869ZM64.5743 48.3555H65.2509V36.7168H64.5743V42.6701H64.5576C64.2367 41.9647 63.7266 41.5409 63.1953 41.5409C62.001 41.5409 61.282 43.1636 61.282 45.0541C61.282 46.8872 62.0192 48.5386 63.1862 48.5386C63.7266 48.5386 64.2277 48.1572 64.5576 47.4382H64.5743V48.3555Z" fill="white"/>
<path d="M68.1541 42.5869C68.9927 42.5869 69.4907 43.6585 69.4907 44.983C69.4907 46.3256 69.0351 47.4957 68.1617 47.4957C67.3155 47.4957 66.8584 46.2666 66.8584 44.9709C66.8584 43.7282 67.367 42.5869 68.1541 42.5869ZM70.1355 41.7256H69.4574V42.6716H69.4407C69.1108 41.9662 68.6203 41.5424 68.0784 41.5424C66.8841 41.5424 66.1652 43.1651 66.1652 45.0557C66.1652 46.8887 66.9023 48.5401 68.0694 48.5401C68.6279 48.5401 69.0941 48.1723 69.4407 47.4397H69.4574V48.3555H70.1355V41.7256Z" fill="white"/>
<path d="M72.0639 36.7168V42.5006L72.0806 42.5293C72.3606 41.8951 72.7239 41.5409 73.2158 41.5409C74.3163 41.5409 74.5706 42.8669 74.5706 44.4184V48.3539H73.8924V44.6152C73.8924 43.545 73.8425 42.5853 73.0539 42.5853C72.1245 42.5853 72.0639 44.0248 72.0639 45.21V48.3539H71.3873V36.7168H72.0639Z" fill="white"/>
<path d="M77.5919 42.5853C78.4289 42.5853 79.0056 43.6994 79.0056 45.042C79.0056 46.3937 78.4289 47.4942 77.5919 47.4942C76.7533 47.4942 76.1781 46.3937 76.1781 45.042C76.1781 43.6994 76.7533 42.5853 77.5919 42.5853ZM77.5919 48.5386C78.7498 48.5386 79.6822 47.0007 79.6822 45.0541C79.6822 43.1076 78.7604 41.5409 77.5919 41.5409C76.4233 41.5409 75.5 43.1076 75.5 45.0541C75.5 47.0007 76.4324 48.5386 77.5919 48.5386Z" fill="white"/>
<path d="M83.2621 37.2678L88.239 45.9578V37.7204H88.9504V48.8353L83.9735 40.1604V48.3555H83.2621V37.2678Z" fill="white"/>
<path d="M91.7598 42.5869C92.5984 42.5869 93.0979 43.6585 93.0979 44.983C93.0979 46.3256 92.6408 47.4957 91.7689 47.4957C90.9228 47.4957 90.4656 46.2666 90.4656 44.9709C90.4656 43.7282 90.9742 42.5869 91.7598 42.5869ZM93.7412 41.7256H93.0646V42.6716H93.048C92.7165 41.9662 92.226 41.5424 91.6841 41.5424C90.4914 41.5424 89.7709 43.1651 89.7709 45.0557C89.7709 46.8887 90.508 48.5401 91.675 48.5401C92.2351 48.5401 92.6998 48.1723 93.048 47.4397H93.0646V48.3555H93.7412V41.7256Z" fill="white"/>
<path d="M95.7044 48.3555H95.0263V42.767H94.6116V41.7241H95.0263V39.3431H95.7044V41.7241H96.4144V42.767H95.7044V48.3555Z" fill="white"/>
<path d="M97.8266 48.3539H97.15V41.7241H97.8266V48.3539ZM97.9719 39.228C97.9719 39.6791 97.7524 40.0333 97.489 40.0333C97.2272 40.0333 97.0062 39.6791 97.0062 39.228C97.0062 38.7906 97.2272 38.4227 97.489 38.4227C97.7524 38.4227 97.9719 38.7906 97.9719 39.228Z" fill="white"/>
<path d="M100.809 42.5853C101.646 42.5853 102.221 43.6994 102.221 45.042C102.221 46.3937 101.646 47.4942 100.809 47.4942C99.9684 47.4942 99.3948 46.3937 99.3948 45.042C99.3948 43.6994 99.9684 42.5853 100.809 42.5853ZM100.809 48.5386C101.966 48.5386 102.899 47.0007 102.899 45.0541C102.899 43.1076 101.976 41.5409 100.809 41.5409C99.6385 41.5409 98.7166 43.1076 98.7166 45.0541C98.7166 47.0007 99.6475 48.5386 100.809 48.5386Z" fill="white"/>
<path d="M104.337 42.5293H104.355C104.635 41.8951 104.998 41.5409 105.489 41.5409C106.589 41.5409 106.845 42.8684 106.845 44.4199V48.3539H106.168V44.6152C106.168 43.545 106.115 42.5853 105.328 42.5853C104.4 42.5853 104.338 44.0248 104.338 45.21V48.3539H103.662V41.7241H104.338V42.5293H104.337Z" fill="white"/>
<path d="M109.608 42.5869C110.448 42.5869 110.947 43.6585 110.947 44.983C110.947 46.3256 110.488 47.4957 109.62 47.4957C108.77 47.4957 108.316 46.2666 108.316 44.9709C108.316 43.7282 108.825 42.5869 109.608 42.5869ZM111.59 41.7256H110.915V42.6716H110.897C110.566 41.9662 110.075 41.5424 109.535 41.5424C108.341 41.5424 107.622 43.1651 107.622 45.0557C107.622 46.8887 108.357 48.5401 109.526 48.5401C110.084 48.5401 110.549 48.1723 110.897 47.4397H110.915V48.3555H111.59V41.7256Z" fill="white"/>
<path d="M113.504 36.7184H112.826V48.3555H113.504V36.7184Z" fill="white"/>
<path d="M118.083 47.255H119.843V48.3555H117.371V37.7204H118.083V47.255Z" fill="white"/>
<path d="M122.197 42.5869C123.034 42.5869 123.533 43.6585 123.533 44.983C123.533 46.3256 123.076 47.4957 122.206 47.4957C121.358 47.4957 120.903 46.2666 120.903 44.9709C120.901 43.7282 121.41 42.5869 122.197 42.5869ZM124.177 41.7256H123.5V42.6716H123.482C123.15 41.9662 122.663 41.5424 122.121 41.5424C120.927 41.5424 120.208 43.1651 120.208 45.0557C120.208 46.8887 120.942 48.5401 122.112 48.5401C122.669 48.5401 123.135 48.1723 123.482 47.4397H123.5V48.3555H124.177V41.7256Z" fill="white"/>
<path d="M127.333 42.5869C128.171 42.5869 128.671 43.6585 128.671 44.9845C128.671 46.3256 128.212 47.4957 127.343 47.4957C126.496 47.4957 126.04 46.2681 126.04 44.9709C126.04 43.7282 126.547 42.5869 127.333 42.5869ZM125.395 48.3555H126.072V47.4397H126.09C126.412 48.1587 126.912 48.5401 127.461 48.5401C128.628 48.5401 129.365 46.8887 129.365 45.042C129.365 43.1651 128.637 41.5424 127.451 41.5424C126.912 41.5424 126.411 41.9662 126.09 42.6716H126.072V36.7168H125.395V48.3555Z" fill="white"/>
<path d="M132.048 42.5853C132.886 42.5853 133.463 43.6994 133.463 45.042C133.463 46.3937 132.886 47.4942 132.048 47.4942C131.209 47.4942 130.634 46.3937 130.634 45.042C130.635 43.6994 131.211 42.5853 132.048 42.5853ZM132.048 48.5386C133.209 48.5386 134.14 47.0007 134.14 45.0541C134.14 43.1076 133.215 41.5409 132.048 41.5409C130.879 41.5409 129.956 43.1076 129.956 45.0541C129.956 47.0007 130.89 48.5386 132.048 48.5386Z" fill="white"/>
<path d="M135.543 42.4446H135.559C135.797 41.9224 136.003 41.5424 136.44 41.5424C136.669 41.5424 136.855 41.6696 137.05 41.8512L136.728 42.882C136.593 42.7276 136.499 42.5869 136.321 42.5869C135.576 42.5869 135.541 44.1792 135.541 45.0405V48.3539H134.868V41.7241H135.543V42.4446Z" fill="white"/>
<path d="M139.218 42.5869C140.055 42.5869 140.555 43.6585 140.555 44.983C140.555 46.3256 140.097 47.4957 139.225 47.4957C138.379 47.4957 137.922 46.2666 137.922 44.9709C137.921 43.7282 138.429 42.5869 139.218 42.5869ZM141.196 41.7256H140.52V42.6716H140.505C140.172 41.9662 139.683 41.5424 139.141 41.5424C137.948 41.5424 137.229 43.1651 137.229 45.0557C137.229 46.8887 137.963 48.5401 139.13 48.5401C139.692 48.5401 140.158 48.1723 140.505 47.4397H140.52V48.3555H141.196V41.7256Z" fill="white"/>
<path d="M143.16 48.3555H142.484V42.767H142.07V41.7241H142.484V39.3431H143.16V41.7241H143.872V42.767H143.16V48.3555Z" fill="white"/>
<path d="M146.217 42.5853C147.054 42.5853 147.632 43.6994 147.632 45.042C147.632 46.3937 147.054 47.4942 146.217 47.4942C145.379 47.4942 144.803 46.3937 144.803 45.042C144.803 43.6994 145.379 42.5853 146.217 42.5853ZM146.217 48.5386C147.378 48.5386 148.308 47.0007 148.308 45.0541C148.308 43.1076 147.386 41.5409 146.217 41.5409C145.049 41.5409 144.125 43.1076 144.125 45.0541C144.125 47.0007 145.058 48.5386 146.217 48.5386Z" fill="white"/>
<path d="M149.9 42.4446C150.135 41.9224 150.34 41.5424 150.779 41.5424C151.006 41.5424 151.193 41.6696 151.388 41.8512L151.068 42.882C150.931 42.7276 150.838 42.5869 150.66 42.5869C149.915 42.5869 149.882 44.1792 149.882 45.0405V48.3539H149.204V41.7241H149.882V42.4446H149.9Z" fill="white"/>
<path d="M151.75 41.7256H152.537L153.943 46.4785L155.231 41.7256H156L153.062 52.0806H152.292L153.578 47.7348L151.75 41.7256Z" fill="white"/>
<path d="M55.8828 52.6634C54.8459 53.6503 53.1067 54.2255 50.8483 54.4298C53.2384 54.2996 54.9988 53.7335 55.8828 52.6634Z" fill="white"/>
<path d="M15.2649 24.8406C14.2326 24.8406 13.3305 25.387 12.8249 26.2044C10.7845 25.9486 8.91054 25.8532 7.26064 25.9395L7.26215 25.941C7.19555 25.9425 7.13198 25.9471 7.06538 25.9501C6.01337 26.0137 5.05371 26.1544 4.20302 26.3724C1.92949 27.049 1.29223 28.4386 1.73271 30.1596C1.75239 30.0446 1.77812 29.9311 1.80991 29.819C2.70298 27.9042 6.76416 27.4002 12.4298 28.151C12.6417 29.5284 13.8285 30.5865 15.2664 30.5865C16.8528 30.5865 18.1394 29.2999 18.1394 27.7135C18.1394 26.1272 16.8513 24.8406 15.2649 24.8406Z" fill="white"/>
<path d="M18.3997 31.528H12.1437V40.6948C14.1584 42.0071 16.3003 43.2529 18.3997 44.3654V31.528Z" fill="white"/>
<path d="M45.2356 39.1175V31.528H38.9796V35.6421C38.2833 35.294 37.5734 34.9519 36.8514 34.6159V31.528H30.8421V32.0562C28.4641 31.1163 26.2421 30.3519 24.2682 29.7373L24.2168 29.9507C26.177 30.5653 28.4066 31.3373 30.8421 32.2984V42.322L26.9671 31.528H20.5386V45.4568C22.3489 46.3468 24.0821 47.1158 25.626 47.7091C25.9348 47.8363 26.2421 47.9589 26.5478 48.083V45.1132L27.7512 48.5553C30.8678 49.7586 33.9406 50.7879 36.8514 51.6068V34.8853C37.5734 35.2259 38.2833 35.571 38.9796 35.9222V52.1744C43.1816 53.237 46.9612 53.8183 49.928 53.8122V49.191H45.2356V39.4233C52.8146 44.1444 57.5508 49.1229 56.2476 52.0912C54.1299 56.5596 40.0483 54.3329 25.5972 48.5386C21.8161 47.1142 16.8921 44.6712 12.4934 41.8981L12.4949 41.9072C3.75498 36.5382 -0.672511 30.9846 0.888084 28.21C0.635301 28.5052 0.4249 28.8306 0.267478 29.1863C-1.13115 32.3287 2.97392 37.4479 12.1437 42.9395V54.6508H18.3997V46.3408C19.0945 46.6844 19.8059 47.031 20.5386 47.3746V54.6508H26.5478V49.9963C27.2063 50.2536 27.8617 50.5018 28.5156 50.7425L29.8809 54.6508H36.8514V53.3581C37.5719 53.5428 38.2818 53.7154 38.9796 53.8728V54.6508H43.0045C50.0567 55.7543 55.3379 55.1079 56.6593 52.2607C58.07 49.3166 53.2339 44.0703 45.2356 39.1175Z" fill="white"/>
</svg>
