<svg width="156" height="80" viewBox="0 0 156 80" fill="none" xmlns="http://www.w3.org/2000/svg">
<g clip-path="url(#clip0_135_2376)">
<mask id="mask0_135_2376" style="mask-type:alpha" maskUnits="userSpaceOnUse" x="0" y="24" width="33" height="32">
<path fill-rule="evenodd" clip-rule="evenodd" d="M0 24.7343H32.8714V55.0986H0V24.7343Z" fill="white"/>
</mask>
<g mask="url(#mask0_135_2376)">
<path fill-rule="evenodd" clip-rule="evenodd" d="M5.45998 49.1929C2.3957 46.0729 0.947128 42.9529 1.11427 39.8886C1.28141 36.6014 3.28713 33.4814 7.18713 30.25C10.4743 27.5757 13.5386 26.1272 16.5471 25.9043C20.3357 25.6257 23.9571 27.2414 27.4114 30.6957C30.42 33.76 31.9243 36.88 31.7571 39.9443C31.59 43.2314 29.64 46.4072 25.74 49.5829C18.4414 55.6 11.6443 55.4329 5.45998 49.1929ZM4.67998 49.9729C7.96713 53.3157 11.4771 55.0429 15.1543 55.0986C18.7757 55.1543 22.62 53.5943 26.4643 50.4743C30.5871 47.0757 32.7043 43.6772 32.8714 40.0557C33.0386 36.6572 31.4786 33.2586 28.2471 29.9157C24.5143 26.1829 20.5586 24.4557 16.4357 24.79C13.2043 25.0129 9.91713 26.5172 6.46284 29.4143C2.28427 32.8129 0.222842 36.2114 -1.46581e-05 39.8329C-0.167158 43.2314 1.39284 46.63 4.67998 49.9729Z" fill="#D3D4DC"/>
</g>
<mask id="mask1_135_2376" style="mask-type:alpha" maskUnits="userSpaceOnUse" x="0" y="24" width="33" height="32">
<path fill-rule="evenodd" clip-rule="evenodd" d="M0 24.7343H32.8714V55.0986H0V24.7343Z" fill="white"/>
</mask>
<g mask="url(#mask1_135_2376)">
<path fill-rule="evenodd" clip-rule="evenodd" d="M16.4914 48.4129C16.3243 48.4129 16.2129 48.4129 16.1014 48.4686C12.6472 48.7472 9.86144 49.0814 7.63287 49.36C8.74716 50.3072 9.86145 51.0314 10.92 51.5886C12.3686 52.3129 13.9286 52.6472 15.4329 52.6472C18.2743 52.6472 21.3386 51.4214 24.4586 48.9143C22.8429 48.6914 20.7814 48.4686 18.1629 48.2457L16.4914 48.4129Z" fill="#D3D4DC"/>
</g>
<mask id="mask2_135_2376" style="mask-type:alpha" maskUnits="userSpaceOnUse" x="0" y="24" width="33" height="32">
<path fill-rule="evenodd" clip-rule="evenodd" d="M0 24.7343H32.8714V55.0986H0V24.7343Z" fill="white"/>
</mask>
<g mask="url(#mask2_135_2376)">
<path fill-rule="evenodd" clip-rule="evenodd" d="M26.0186 31.2529C24.0129 31.5872 21.06 31.9214 16.8257 32.2557C16.7143 32.2557 16.5471 32.2557 16.38 32.3114C10.92 32.7572 7.63286 33.2029 5.57143 33.5372C3.84428 35.4314 2.78571 37.27 2.50714 39.1643C3.00857 38.83 5.29286 37.9943 15.9343 37.1029C16.1014 37.1029 16.2129 37.1029 16.38 37.0472C24.3471 36.3786 27.7457 35.7657 29.25 35.3757C28.5814 34.15 27.6343 32.9243 26.4643 31.6986C26.2971 31.5314 26.1857 31.3643 26.0186 31.2529Z" fill="white"/>
</g>
<mask id="mask3_135_2376" style="mask-type:alpha" maskUnits="userSpaceOnUse" x="0" y="24" width="33" height="32">
<path fill-rule="evenodd" clip-rule="evenodd" d="M0 24.7343H32.8714V55.0986H0V24.7343Z" fill="white"/>
</mask>
<g mask="url(#mask3_135_2376)">
<path fill-rule="evenodd" clip-rule="evenodd" d="M16.3243 31.4757C16.3243 31.4757 16.38 31.4757 16.3243 31.4757C16.4914 31.4757 16.6029 31.4757 16.77 31.42C20.2243 31.1414 23.0657 30.8072 25.2386 30.5286C22.7314 28.3557 20.0571 27.1857 17.3829 27.1857C17.16 27.1857 16.8814 27.1857 16.6586 27.2414C14.04 27.4643 11.3657 28.6343 8.46857 30.9743C10.0843 31.1972 12.1457 31.42 14.7086 31.6429C15.21 31.5314 15.7671 31.5314 16.3243 31.4757Z" fill="#D3D4DC"/>
</g>
<mask id="mask4_135_2376" style="mask-type:alpha" maskUnits="userSpaceOnUse" x="0" y="24" width="33" height="32">
<path fill-rule="evenodd" clip-rule="evenodd" d="M0 24.7343H32.8714V55.0986H0V24.7343Z" fill="white"/>
</mask>
<g mask="url(#mask4_135_2376)">
<path fill-rule="evenodd" clip-rule="evenodd" d="M16.4357 42.8414C8.52426 43.4543 5.12568 44.1229 3.6214 44.5129C4.28997 45.7386 5.23711 46.9643 6.46283 48.2457L6.85283 48.6357C8.85854 48.3014 11.7557 47.9672 16.0457 47.6329C16.1571 47.6329 16.3243 47.6329 16.4914 47.5771C22.0071 47.1314 25.35 46.6857 27.3557 46.2957C29.0828 44.4014 30.0857 42.5629 30.3643 40.6686C29.9743 40.9472 27.9685 41.8386 16.8814 42.73C16.7143 42.7857 16.5471 42.7857 16.4357 42.8414Z" fill="white"/>
</g>
<mask id="mask5_135_2376" style="mask-type:alpha" maskUnits="userSpaceOnUse" x="0" y="24" width="33" height="32">
<path fill-rule="evenodd" clip-rule="evenodd" d="M0 24.7343H32.8714V55.0986H0V24.7343Z" fill="white"/>
</mask>
<g mask="url(#mask5_135_2376)">
<path fill-rule="evenodd" clip-rule="evenodd" d="M16.3243 42.0058C16.3243 42.0058 16.38 42.0058 16.3243 42.0058H16.77C27.0214 41.17 29.3614 40.39 30.42 39.8886V39.7772C30.42 39.7772 30.42 38.7743 18.1628 37.7158L16.4914 37.8829H16.0457C6.18427 38.7186 3.39856 39.4986 2.45142 40V40.1672C2.67427 40.39 4.17856 41.2815 14.6528 42.1729L16.3243 42.0058Z" fill="#D3D4DC"/>
</g>
<path fill-rule="evenodd" clip-rule="evenodd" d="M68.7614 32.0256C66.2543 32.0256 65.3629 33.6413 65.0286 35.5356H71.6586C71.6586 35.5356 71.7143 35.5356 71.6586 35.4799C71.6586 35.4799 71.7143 35.4242 71.6586 35.4242C71.8814 33.697 71.2129 32.0256 68.7614 32.0256ZM67.9257 43.3356C62.6886 43.3356 61.7414 40.1599 62.0757 36.5942C62.41 33.0842 64.0814 29.9084 69.2071 29.9084C73.9986 29.9084 74.9457 33.5856 74.2214 37.7084H64.75C64.6943 39.937 65.6414 41.2184 67.9814 41.2184C70.1543 41.2184 70.8786 40.2156 71.2686 39.157H74.11C73.72 41.4413 71.9929 43.3356 67.9257 43.3356Z" fill="white"/>
<path fill-rule="evenodd" clip-rule="evenodd" d="M82.8014 32.0256C80.2943 32.0256 79.4028 33.6413 79.0686 35.5356H85.6986C85.6986 35.5356 85.7543 35.5356 85.6986 35.4799C85.6986 35.4799 85.7543 35.4242 85.6986 35.4242C85.9214 33.697 85.2528 32.0256 82.8014 32.0256ZM81.9657 43.3356C76.7286 43.3356 75.7814 40.1599 76.1157 36.5942C76.45 33.0842 78.1214 29.9084 83.2471 29.9084C88.0386 29.9084 88.9857 33.5856 88.2614 37.7084H78.79C78.7343 39.937 79.6814 41.2184 82.0214 41.2184C84.1943 41.2184 84.9186 40.2156 85.3086 39.157H88.15C87.7043 41.4413 86.0328 43.3356 81.9657 43.3356Z" fill="white"/>
<path fill-rule="evenodd" clip-rule="evenodd" d="M99.5714 43.2242H99.1814L99.9057 35.9256C100.129 33.5856 99.85 32.1927 97.12 32.1927C94.39 32.1927 93.61 33.5299 93.3872 35.9256L92.6629 43.2242H89.9886L91.27 30.1313H92.7743L93.0529 31.2456C93.0529 31.2456 93.1086 31.6356 93.2757 31.6356C93.4429 31.6913 93.4429 31.5799 93.6657 31.4127C94.39 30.6885 95.8386 29.9642 98.1786 29.9642C102.413 29.9642 103.026 32.4713 102.636 36.1485L101.856 43.2242H99.5714Z" fill="white"/>
<path fill-rule="evenodd" clip-rule="evenodd" d="M104.697 43.2242L106.313 26.8442H109.099L107.65 40.9399H113.834L113.611 43.2242H104.697Z" fill="white"/>
<path fill-rule="evenodd" clip-rule="evenodd" d="M115.45 43.2242H114.949L116.23 30.0756H118.904L117.623 43.2242H115.45Z" fill="white"/>
<path fill-rule="evenodd" clip-rule="evenodd" d="M116.341 29.0727L116.564 26.8442H119.294L119.016 29.0727H116.341Z" fill="white"/>
<path fill-rule="evenodd" clip-rule="evenodd" d="M143.251 43.2242H142.861L143.586 35.8142C143.809 33.3627 143.53 32.137 140.8 32.137C138.07 32.137 137.346 33.307 137.123 35.8142L136.343 43.2242H133.669L135.284 26.8442H137.959L137.569 30.7442C137.569 30.7442 137.513 31.1342 137.68 31.1899C137.791 31.2456 137.959 31.1899 138.126 31.0227C138.85 30.4099 139.964 29.9642 141.803 29.9642C146.037 29.9642 146.65 32.4156 146.26 36.1485L145.536 43.2242H143.251Z" fill="white"/>
<path fill-rule="evenodd" clip-rule="evenodd" d="M62.2986 32.2485C62.8557 31.357 63.5243 30.6885 64.36 30.1313C63.8586 30.0199 63.3571 29.9642 62.6886 29.9642C60.3486 29.9642 58.9 30.6885 58.1757 31.4127C58.0086 31.5799 57.9528 31.6913 57.7857 31.6913C57.6186 31.6356 57.5628 31.2456 57.5628 31.2456L57.2843 30.1313H55.78L54.61 43.2242H57.2843L58.0086 35.9256C58.2314 33.5299 58.9557 32.1927 61.7414 32.1927C61.9643 32.1927 62.1314 32.1927 62.2986 32.2485Z" fill="white"/>
<path fill-rule="evenodd" clip-rule="evenodd" d="M126.649 32.3599C129.211 32.3599 129.601 33.3628 129.49 34.8113C129.323 36.3713 128.654 37.4856 126.203 37.4856C123.696 37.4856 123.25 36.3713 123.417 34.8113C123.473 33.3628 124.197 32.3599 126.649 32.3599ZM126.37 41.1628C123.529 40.7728 122.526 40.6613 122.581 40.0485C122.637 39.7699 122.693 39.4356 123.751 39.3242C123.751 39.3242 125.144 39.4913 125.98 39.4913C130.771 39.4913 132.053 37.597 132.331 34.867C132.499 33.3628 131.941 32.3599 131.161 31.9142L133 31.357L133.167 30.0199H127.484C122.247 30.0199 120.91 32.137 120.631 34.8113C120.52 36.037 120.854 37.3742 122.247 38.0985C120.91 38.4328 119.963 39.0456 119.851 40.1599C119.629 42.4999 123.139 42.667 126.036 43.1685C127.93 43.5028 129.379 43.7256 129.267 44.7842C129.211 45.5642 128.543 46.4556 125.59 46.4556C122.637 46.4556 122.024 45.5085 122.136 44.7842C122.191 44.2828 122.526 43.9485 123.083 43.7256C122.024 43.5028 120.966 43.2799 120.186 42.7785C119.684 43.2242 119.406 43.837 119.294 44.617C119.127 46.567 120.241 48.6285 125.256 48.6285C130.27 48.6285 131.83 46.567 132.053 44.617C132.331 41.9428 129.044 41.497 126.37 41.1628Z" fill="white"/>
<path fill-rule="evenodd" clip-rule="evenodd" d="M50.2086 43.2242L49.8743 41.4413C49.8743 41.4413 49.8186 41.107 49.7072 41.0513C49.54 40.9399 49.4286 41.107 49.2614 41.3299C48.1472 42.6113 46.5872 43.447 44.2472 43.447C38.5643 43.447 37.2829 39.4913 37.7286 34.9785C38.23 30.4656 40.0686 26.5099 46.1414 26.5099C51.4343 26.5099 53.1614 29.2399 52.8272 32.2485H49.9857C50.0414 30.3542 49.15 28.8499 45.9186 28.8499C42.0743 28.8499 41.0157 31.5799 40.6257 34.9227C40.2914 38.3213 40.9043 40.9956 44.6372 40.9956C47.7572 40.9956 49.4286 39.1013 49.7072 36.2599H44.9157L45.0272 34.9785L45.1386 33.9199H52.7157L51.7686 43.2242H50.2086Z" fill="white"/>
<path fill-rule="evenodd" clip-rule="evenodd" d="M152.054 32.2485L151.33 39.4356C151.219 40.7171 151.664 41.2185 154.506 41.1071L154.283 43.3356C149.937 43.6142 148.266 42.5556 148.544 39.4356L149.269 32.2485H147.43L147.541 30.5771L149.157 30.0756C149.157 30.0756 149.38 30.0199 149.436 29.9085C149.491 29.7971 149.491 29.6299 149.491 29.6299L149.77 26.6213H152.5L152.166 29.9085H155.564L155.341 32.1928H152.054V32.2485Z" fill="white"/>
<path fill-rule="evenodd" clip-rule="evenodd" d="M48.0664 50.7546H46.785V52.4817H48.0664C49.0693 52.4817 49.2921 52.0917 49.2921 51.5903C49.2921 50.8103 48.6793 50.7546 48.0664 50.7546ZM48.0664 48.4146H46.785V50.0303H48.0664C48.9578 50.0303 49.125 49.6403 49.125 49.2503C49.125 48.7489 48.9578 48.4146 48.0664 48.4146ZM48.0664 53.206H45.8378V47.5789H48.0107C49.515 47.5789 50.1278 48.1917 50.0721 49.0274C50.0721 49.5289 49.8493 50.086 49.3478 50.1974C49.9607 50.3646 50.2393 50.9774 50.2393 51.5346C50.2393 52.426 49.7378 53.206 48.0664 53.206Z" fill="white"/>
<path fill-rule="evenodd" clip-rule="evenodd" d="M52.1893 53.206H53.1364V47.5789H52.1893V53.206Z" fill="white"/>
<path fill-rule="evenodd" clip-rule="evenodd" d="M57.8164 48.3031C56.4235 48.3031 56.145 49.2503 56.145 50.3646C56.145 51.5346 56.4235 52.426 57.8164 52.426C59.2092 52.426 59.4878 51.4788 59.4878 50.3646C59.4878 49.2503 59.2092 48.3031 57.8164 48.3031ZM57.8164 53.2617C55.6992 53.2617 55.1978 51.9246 55.1978 50.3646C55.1978 48.8046 55.6992 47.4674 57.8164 47.4674C59.9892 47.4674 60.435 48.8046 60.435 50.3646C60.4907 51.9246 59.9892 53.2617 57.8164 53.2617Z" fill="white"/>
<path fill-rule="evenodd" clip-rule="evenodd" d="M64.8364 53.2617C62.9978 53.2617 62.3292 52.426 62.3292 51.2003H63.2764C63.2764 51.9246 63.6664 52.426 64.7807 52.426C65.7835 52.426 66.1178 52.036 66.1178 51.646C66.2292 50.2531 62.4964 51.256 62.4407 49.2503C62.4407 48.2474 63.0535 47.5231 64.6692 47.5231C66.3407 47.5231 67.0092 48.3031 67.0092 49.4731H66.0621C66.0064 48.6931 65.6164 48.3031 64.6692 48.3031C63.7778 48.3031 63.3878 48.6374 63.4435 49.1946C63.4992 50.3088 67.0649 49.5288 67.0649 51.5346C67.1207 52.3703 66.6192 53.2617 64.8364 53.2617Z" fill="white"/>
<path fill-rule="evenodd" clip-rule="evenodd" d="M71.5778 53.2617C69.5164 53.2617 69.015 51.9246 69.015 50.3646C69.015 48.8046 69.5164 47.4674 71.5778 47.4674C73.4164 47.4674 74.085 48.526 74.085 49.696H73.0821C73.0264 48.916 72.6364 48.3031 71.5778 48.3031C70.2407 48.3031 70.0178 49.2503 70.0178 50.3646C70.0178 51.4788 70.2964 52.426 71.5778 52.426C72.6364 52.426 73.0264 51.8131 73.0821 50.9774H74.085C74.085 52.3146 73.3607 53.2617 71.5778 53.2617Z" fill="white"/>
<path fill-rule="evenodd" clip-rule="evenodd" d="M76.035 53.206H77.0378V47.5789H76.035V53.206Z" fill="white"/>
<path fill-rule="evenodd" clip-rule="evenodd" d="M79.2107 53.206V47.5789H83.055V48.4146H80.1578V49.9746H82.8321V50.7546H80.1578V52.426H83.055V53.206H79.2107Z" fill="white"/>
<path fill-rule="evenodd" clip-rule="evenodd" d="M88.9607 53.206L86.0078 48.8046V53.206H85.0607V47.5789H86.2864L89.1835 51.9246V47.5789H90.1307V53.206H88.9607Z" fill="white"/>
<path fill-rule="evenodd" clip-rule="evenodd" d="M94.6993 53.2617C92.6378 53.2617 92.1364 51.9246 92.1364 50.3646C92.1364 48.8046 92.6378 47.4674 94.6993 47.4674C96.5378 47.4674 97.2064 48.526 97.2064 49.696H96.2036C96.1478 48.916 95.7578 48.3031 94.6993 48.3031C93.3621 48.3031 93.1393 49.2503 93.1393 50.3646C93.1393 51.4788 93.4178 52.426 94.6993 52.426C95.7578 52.426 96.1478 51.8131 96.2036 50.9774H97.2064C97.2064 52.3146 96.5378 53.2617 94.6993 53.2617Z" fill="white"/>
<path fill-rule="evenodd" clip-rule="evenodd" d="M99.2121 53.206V47.5789H103.112V48.4146H100.159V49.9746H102.834V50.7546H100.159V52.426H103.112V53.206H99.2121Z" fill="white"/>
<path fill-rule="evenodd" clip-rule="evenodd" d="M107.402 53.2617C105.564 53.2617 104.895 52.426 104.895 51.2003H105.842C105.842 51.9246 106.232 52.426 107.346 52.426C108.349 52.426 108.684 52.036 108.684 51.646C108.795 50.2531 105.062 51.256 105.006 49.2503C105.006 48.2474 105.619 47.5231 107.235 47.5231C108.851 47.5231 109.519 48.3031 109.519 49.4731H108.572C108.516 48.6931 108.126 48.3031 107.179 48.3031C106.288 48.3031 105.898 48.6374 105.954 49.1946C106.009 50.3088 109.575 49.5288 109.575 51.5346C109.631 52.3703 109.129 53.2617 107.402 53.2617Z" fill="white"/>
<path fill-rule="evenodd" clip-rule="evenodd" d="M112.528 48.1917V50.0303H112.026V48.2474H111.469V47.8017H113.085V48.1917H112.528Z" fill="white"/>
<path fill-rule="evenodd" clip-rule="evenodd" d="M115.592 50.0303V48.4146L114.979 50.0303H114.478L113.865 48.4146V50.0303H113.364V47.8017H114.088L114.645 49.2503C114.701 49.3617 114.701 49.5288 114.701 49.5288C114.701 49.5288 114.701 49.4174 114.756 49.2503L115.314 47.8017H116.038V50.0303H115.592Z" fill="white"/>
</g>
<defs>
<clipPath id="clip0_135_2376">
<rect width="156" height="30.6429" fill="white" transform="translate(0 24.6786)"/>
</clipPath>
</defs>
</svg>
