<svg width="60" height="61" viewBox="0 0 60 61" fill="none" xmlns="http://www.w3.org/2000/svg">
<path d="M41.3735 42.4483V46.0604C41.3735 46.5797 41.0164 47 40.57 47H8.0391C7.59271 47 7.2356 46.5797 7.2356 46.0604V15C7.2356 14.4477 7.68331 14 8.2356 14H40.3735C40.9258 14 41.3735 14.4477 41.3735 15V18.125" stroke="white" stroke-miterlimit="10" stroke-linecap="square" stroke-linejoin="round"/>
<path d="M51.6992 42.1234H20.0521C19.459 42.1234 18.9871 41.6393 18.9871 41.0584V32.8168C18.9871 32.2238 19.4711 31.7518 20.0521 31.7518H51.6992C52.2922 31.7518 52.7642 32.2359 52.7642 32.8168V41.0584C52.7642 41.6393 52.2922 42.1234 51.6992 42.1234Z" stroke="#A787FF" stroke-miterlimit="10" stroke-linecap="round" stroke-linejoin="round"/>
<path d="M51.6992 28.8359H20.0521C19.459 28.8359 18.9871 28.3518 18.9871 27.7709V19.5293C18.9871 18.9363 19.4711 18.4644 20.0521 18.4644H51.6992C52.2922 18.4644 52.7642 18.9484 52.7642 19.5293V27.7709C52.7642 28.3518 52.2922 28.8359 51.6992 28.8359Z" stroke="#A787FF" stroke-miterlimit="10" stroke-linecap="round" stroke-linejoin="round"/>
<path d="M11.1929 20.3522H13.9038" stroke="white" stroke-miterlimit="10" stroke-linecap="round" stroke-linejoin="round"/>
<path d="M11.1929 23.6071H13.9038" stroke="white" stroke-miterlimit="10" stroke-linecap="round" stroke-linejoin="round"/>
<path d="M22.678 22.1417H25.3889" stroke="#A787FF" stroke-miterlimit="10" stroke-linecap="round" stroke-linejoin="round"/>
<path d="M22.678 25.3619H25.3889" stroke="white" stroke-miterlimit="10" stroke-linecap="round" stroke-linejoin="round"/>
<path d="M22.678 25.3619H25.3889" stroke="#A787FF" stroke-miterlimit="10" stroke-linecap="round" stroke-linejoin="round"/>
<path d="M27.2649 25.3619H29.9758" stroke="#A787FF" stroke-miterlimit="10" stroke-linecap="round" stroke-linejoin="round"/>
<path d="M31.2949 25.3619H49.2787" stroke="#A787FF" stroke-miterlimit="10" stroke-linecap="round" stroke-linejoin="round"/>
<path d="M27.4707 22.1417H49.2788" stroke="#A787FF" stroke-miterlimit="10" stroke-linecap="round" stroke-linejoin="round"/>
<path d="M11.1929 26.8508H13.9038" stroke="white" stroke-miterlimit="10" stroke-linecap="round" stroke-linejoin="round"/>
<path d="M25.122 38.5336L22.9929 36.6679L25.1988 35.0217" stroke="#A787FF" stroke-miterlimit="10" stroke-linecap="round" stroke-linejoin="round"/>
<path d="M29.6872 38.5336L31.8163 36.6679L29.6104 35.0217" stroke="#A787FF" stroke-miterlimit="10" stroke-linecap="round" stroke-linejoin="round"/>
<path d="M26.6033 39.3898L28.019 34.5061" stroke="#A787FF" stroke-miterlimit="10" stroke-linecap="round" stroke-linejoin="round"/>
</svg>
