<svg width="60" height="61" viewBox="0 0 60 61" fill="none" xmlns="http://www.w3.org/2000/svg">
<path d="M17.3455 28.495V25.9675" stroke="#A787FF" stroke-miterlimit="10" stroke-linecap="round" stroke-linejoin="round"/>
<path d="M25.5764 28.495V25.9675" stroke="#A787FF" stroke-miterlimit="10" stroke-linecap="round" stroke-linejoin="round"/>
<path d="M34.5444 28.495V25.9675" stroke="#A787FF" stroke-miterlimit="10" stroke-linecap="round" stroke-linejoin="round"/>
<path d="M42.7749 28.495V25.9675" stroke="#A787FF" stroke-miterlimit="10" stroke-linecap="round" stroke-linejoin="round"/>
<path d="M30.935 46.3407C30.913 46.4286 30.869 46.5055 30.803 46.5715L29.5376 47.8352C29.3175 48.055 28.9764 48.055 28.7563 47.8352L27.5019 46.5715C27.4359 46.5055 27.3919 46.4286 27.3698 46.3407C27.3148 46.1539 27.3588 45.9451 27.5019 45.7912L28.7673 44.5275C28.8884 44.4066 29.0424 44.3517 29.2075 44.3736C29.3285 44.3846 29.4495 44.4396 29.5486 44.5275L30.814 45.7912C30.957 45.9451 31.0011 46.1539 30.935 46.3407Z" stroke="white" stroke-miterlimit="10" stroke-linecap="round" stroke-linejoin="round"/>
<path d="M29.1968 44.3741V41.462" stroke="white" stroke-miterlimit="10" stroke-linecap="round" stroke-linejoin="round"/>
<path d="M40.2442 46.3412H30.9351" stroke="white" stroke-miterlimit="10" stroke-linecap="round" stroke-linejoin="round"/>
<path d="M27.3699 46.3412H18.0608" stroke="white" stroke-miterlimit="10" stroke-linecap="round" stroke-linejoin="round"/>
<path d="M33.367 15.5824V17.2088C33.367 17.5165 33.6091 17.7583 33.9172 17.7583H45.262V24.6484C45.262 25.3737 44.6678 25.9671 43.9416 25.9671H16.0472C15.321 25.9671 14.7268 25.3737 14.7268 24.6484V14.3187C14.7268 13.5934 15.321 13 16.0472 13H43.9526C44.6788 13 45.273 13.5934 45.273 14.3187V15.033H33.9172C33.6201 15.033 33.367 15.2747 33.367 15.5824Z" stroke="white" stroke-miterlimit="10" stroke-linecap="round" stroke-linejoin="round"/>
<path d="M45.2732 21.3079H33.6753" stroke="white" stroke-miterlimit="10" stroke-linecap="round" stroke-linejoin="round"/>
<path d="M45.2729 15.0331V17.7584H33.9171C33.609 17.7584 33.3669 17.5166 33.3669 17.2089V15.5825C33.3669 15.2748 33.609 15.0331 33.9171 15.0331H45.2729Z" stroke="white" stroke-miterlimit="10" stroke-linecap="round" stroke-linejoin="round"/>
<path d="M18.0278 21.9673H21.7581" stroke="#A787FF" stroke-miterlimit="10" stroke-linecap="round" stroke-linejoin="round"/>
<path d="M18.0278 20.1644H21.7581" stroke="#A787FF" stroke-miterlimit="10" stroke-linecap="round" stroke-linejoin="round"/>
<path d="M18.0278 18.3523H21.7581" stroke="#A787FF" stroke-miterlimit="10" stroke-linecap="round" stroke-linejoin="round"/>
<path d="M18.0278 16.5493H21.7581" stroke="#A787FF" stroke-miterlimit="10" stroke-linecap="round" stroke-linejoin="round"/>
<path d="M33.367 31.0776V32.7039C33.367 33.0116 33.6091 33.2534 33.9172 33.2534H45.262V40.1436C45.262 40.8688 44.6678 41.4622 43.9416 41.4622H16.0472C15.321 41.4622 14.7268 40.8688 14.7268 40.1436V29.8138C14.7268 29.0885 15.321 28.4951 16.0472 28.4951H43.9526C44.6788 28.4951 45.273 29.0885 45.273 29.8138V30.5281H33.9172C33.6201 30.5281 33.367 30.7699 33.367 31.0776Z" stroke="white" stroke-miterlimit="10" stroke-linecap="round" stroke-linejoin="round"/>
<path d="M45.2732 36.8019H33.6753" stroke="white" stroke-miterlimit="10" stroke-linecap="round" stroke-linejoin="round"/>
<path d="M45.2729 30.5267V33.252H33.9171C33.609 33.252 33.3669 33.0103 33.3669 32.7026V31.0762C33.3669 30.7685 33.609 30.5267 33.9171 30.5267H45.2729Z" stroke="white" stroke-miterlimit="10" stroke-linecap="round" stroke-linejoin="round"/>
<path d="M18.0278 37.4619H21.7581" stroke="#A787FF" stroke-miterlimit="10" stroke-linecap="round" stroke-linejoin="round"/>
<path d="M18.0278 35.6591H21.7581" stroke="#A787FF" stroke-miterlimit="10" stroke-linecap="round" stroke-linejoin="round"/>
<path d="M18.0278 33.8575H21.7581" stroke="#A787FF" stroke-miterlimit="10" stroke-linecap="round" stroke-linejoin="round"/>
<path d="M18.0278 32.0547H21.7581" stroke="#A787FF" stroke-miterlimit="10" stroke-linecap="round" stroke-linejoin="round"/>
</svg>
