<svg width="60" height="61" viewBox="0 0 60 61" fill="none" xmlns="http://www.w3.org/2000/svg">
<path d="M35.062 24.9689V16.8101" stroke="#A787FF" stroke-miterlimit="10" stroke-linecap="round" stroke-linejoin="round"/>
<path d="M21.7024 31.5517H12.6946V11.0001H29.3869" stroke="#A787FF" stroke-miterlimit="10" stroke-linecap="round" stroke-linejoin="round"/>
<path d="M35.0619 16.36V16.8105H29.3867V11.0001H29.702L35.0619 16.36Z" stroke="#A787FF" stroke-miterlimit="10" stroke-linecap="round" stroke-linejoin="round"/>
<path d="M26.4565 19.9408C26.4565 21.4812 25.7359 22.8595 24.6099 23.7423L21.4299 19.9408H26.4565Z" stroke="#A787FF" stroke-miterlimit="10" stroke-linecap="round" stroke-linejoin="round"/>
<path d="M24.6011 23.7416C23.7814 24.3902 22.7364 24.7775 21.6104 24.7775C18.9349 24.7775 16.7729 22.6066 16.7729 19.9401C16.7729 17.3277 18.8449 15.2018 21.4302 15.1027V19.9401L24.6011 23.7416Z" stroke="#A787FF" stroke-miterlimit="10" stroke-linecap="round" stroke-linejoin="round"/>
<path d="M26.4565 19.9401H21.4299V15.1027C21.493 15.1027 21.547 15.1027 21.6101 15.1027C24.2856 15.0937 26.4565 17.2647 26.4565 19.9401Z" stroke="#A787FF" stroke-miterlimit="10" stroke-linecap="round" stroke-linejoin="round"/>
<path d="M47.3056 39.0335C47.3056 41.1477 45.7423 42.8866 43.714 43.1731V48.8143C43.714 49.4664 43.1797 49.9999 42.5267 49.9999H36.7484C36.8573 49.6343 36.9067 49.2391 36.9067 48.8341C36.9067 46.5222 35.0268 44.6451 32.7115 44.6451C30.3963 44.6451 28.5164 46.5222 28.5164 48.8341C28.5164 49.2391 28.5757 49.6244 28.6747 49.9999H22.9261C22.2731 49.9999 21.7388 49.4664 21.7388 48.8143V43.1829C19.661 42.9359 18.0581 41.1675 18.0581 39.0335C18.0581 36.8995 19.661 35.1311 21.7388 34.8742V29.2428C21.7388 28.5907 22.2731 28.0572 22.9261 28.0572H28.546C28.6945 25.8837 30.515 24.1647 32.7313 24.1647C34.9477 24.1647 36.7583 25.8837 36.9166 28.0572H42.5366C43.1896 28.0572 43.7239 28.5907 43.7239 29.2428V34.8841C45.7423 35.1706 47.3056 36.9193 47.3056 39.0335Z" stroke="white" stroke-miterlimit="10" stroke-linecap="round" stroke-linejoin="round"/>
</svg>
