<svg width="56" height="60" viewBox="0 0 56 60" fill="none" xmlns="http://www.w3.org/2000/svg">
<circle cx="3" cy="3" r="3" transform="matrix(1 0 0 -1 1 47)" fill="#53DBEE"/>
<circle cx="3.5" cy="3.5" r="3.5" transform="matrix(1 0 0 -1 48 19)" fill="#53DBEE"/>
<path d="M49.8804 18.4398L50.2728 17.8006L50.2709 17.7995L49.8804 18.4398ZM54.5127 17.2768L53.8687 16.8925L53.8678 16.894L54.5127 17.2768ZM53.3661 12.5786L52.9737 13.2178L52.9753 13.2187L53.3661 12.5786ZM48.7339 13.7416L49.3782 14.1254L49.3788 14.1244L48.7339 13.7416ZM11.3869 24.4279C11.3869 24.8421 11.7226 25.1779 12.1369 25.1779C12.5511 25.1779 12.8869 24.8421 12.8869 24.4279H11.3869ZM28.0005 48.8884L27.6095 49.5284C27.8496 49.675 28.1514 49.675 28.3915 49.5284L28.0005 48.8884ZM12.8869 35.0174C12.8869 34.6032 12.5511 34.2674 12.1369 34.2674C11.7226 34.2674 11.3869 34.6032 11.3869 35.0174H12.8869ZM28.0005 10.557L28.3916 9.91705C28.1515 9.77035 27.8495 9.77035 27.6094 9.91705L28.0005 10.557ZM7.66174 16.6369C7.3083 16.4209 6.84668 16.5323 6.63068 16.8858C6.41468 17.2392 6.52609 17.7008 6.87953 17.9168L7.66174 16.6369ZM6.12083 18.4398L5.72937 17.8001L5.72901 17.8003L6.12083 18.4398ZM1.48521 17.2768L0.840632 17.6603L0.840845 17.6606L1.48521 17.2768ZM2.63173 12.5786L3.02319 13.2184L3.02357 13.2181L2.63173 12.5786ZM7.26735 13.7416L6.62241 14.1244L6.62278 14.125L7.26735 13.7416ZM48.3398 42.8086C48.6933 43.0244 49.1549 42.9128 49.3707 42.5592C49.5865 42.2057 49.4749 41.7441 49.1213 41.5283L48.3398 42.8086ZM49.8804 41.0055L50.2713 41.6456L50.2728 41.6447L49.8804 41.0055ZM54.5127 42.1684L53.8678 42.5512L53.8687 42.5528L54.5127 42.1684ZM53.3661 46.8667L52.9752 46.2266L52.9737 46.2276L53.3661 46.8667ZM48.7339 45.7038L49.3788 45.3209L49.3779 45.3194L48.7339 45.7038ZM6.87984 41.5283C6.5263 41.7441 6.41466 42.2057 6.63049 42.5592C6.84632 42.9128 7.30788 43.0244 7.66142 42.8086L6.87984 41.5283ZM6.12083 41.0055L5.72898 41.645L5.72937 41.6453L6.12083 41.0055ZM1.48521 42.1684L0.840845 41.7846L0.840632 41.7849L1.48521 42.1684ZM2.63173 46.8667L3.02357 46.2272L3.02322 46.227L2.63173 46.8667ZM7.26735 45.7038L6.62278 45.3203L6.62242 45.3209L7.26735 45.7038ZM27.2506 20.2509C27.2506 20.6651 27.5864 21.0009 28.0006 21.0009C28.4148 21.0009 28.7506 20.6651 28.7506 20.2509H27.2506ZM28.0006 1L28.5347 0.473435C28.3937 0.330519 28.2014 0.250041 28.0007 0.25C27.8 0.249959 27.6077 0.33036 27.4667 0.473219L28.0006 1ZM23.4703 4.52328C23.1794 4.81812 23.1826 5.29298 23.4774 5.58391C23.7723 5.87485 24.2471 5.87168 24.5381 5.57684L23.4703 4.52328ZM31.4597 5.57662C31.7505 5.87158 32.2253 5.87494 32.5203 5.58413C32.8153 5.29331 32.8186 4.81845 32.5278 4.52349L31.4597 5.57662ZM28.7506 39.7491C28.7506 39.3349 28.4148 38.9991 28.0006 38.9991C27.5864 38.9991 27.2506 39.3349 27.2506 39.7491H28.7506ZM28.0006 59L27.4665 59.5266C27.6075 59.6696 27.7999 59.75 28.0007 59.75C28.2015 59.75 28.3939 59.6694 28.5349 59.5264L28.0006 59ZM24.5383 54.42C24.2475 54.1251 23.7726 54.1217 23.4776 54.4125C23.1827 54.7033 23.1793 55.1782 23.4701 55.4732L24.5383 54.42ZM32.528 55.4729C32.8187 55.1779 32.8152 54.703 32.5201 54.4123C32.225 54.1216 31.7501 54.1252 31.4594 54.4203L32.528 55.4729ZM11.3869 29.7277C11.3869 30.1419 11.7226 30.4777 12.1369 30.4777C12.5511 30.4777 12.8869 30.1419 12.8869 29.7277H11.3869ZM12.8869 29.7244C12.8869 29.3102 12.5511 28.9744 12.1369 28.9744C11.7226 28.9744 11.3869 29.3102 11.3869 29.7244H12.8869ZM49.488 19.0789C51.4439 20.2798 53.9847 19.6357 55.1577 17.6597L53.8678 16.894C53.1167 18.1594 51.5061 18.5579 50.2728 17.8006L49.488 19.0789ZM55.1568 17.6612C56.3308 15.6943 55.7094 13.1307 53.757 11.9385L52.9753 13.2187C54.2188 13.9781 54.6253 15.6249 53.8687 16.8925L55.1568 17.6612ZM53.7585 11.9395C51.8027 10.7386 49.2619 11.3826 48.0889 13.3587L49.3788 14.1244C50.1299 12.8589 51.7403 12.4605 52.9737 13.2178L53.7585 11.9395ZM48.0895 13.3577C47.2746 14.7256 47.3283 16.3797 48.085 17.6587L49.376 16.895C48.8874 16.069 48.8555 15.0028 49.3782 14.1254L48.0895 13.3577ZM48.0854 17.6594C48.4198 18.2233 48.895 18.7172 49.4898 19.0801L50.2709 17.7995C49.8906 17.5675 49.5881 17.2527 49.3756 16.8943L48.0854 17.6594ZM12.8869 24.4279V20.2509H11.3869V24.4279H12.8869ZM11.7459 20.8909L27.6095 30.5816L28.3915 29.3015L12.5278 19.6108L11.7459 20.8909ZM28.3915 30.5816L44.2552 20.8909L43.4733 19.6108L27.6095 29.3015L28.3915 30.5816ZM43.1143 20.2509V39.1978H44.6143V20.2509H43.1143ZM43.4733 38.5577L27.6095 48.2483L28.3915 49.5284L44.2552 39.8378L43.4733 38.5577ZM28.3915 48.2483L12.5278 38.5577L11.7459 39.8378L27.6095 49.5284L28.3915 48.2483ZM12.8869 39.1978V35.0174H11.3869V39.1978H12.8869ZM12.5279 20.8908L28.3916 11.197L27.6094 9.91705L11.7458 19.6109L12.5279 20.8908ZM27.6094 11.197L43.4732 20.8908L44.2553 19.6109L28.3916 9.91705L27.6094 11.197ZM27.2505 29.9416V48.8884H28.7505V29.9416H27.2505ZM44.2554 20.8908L49.1216 17.9168L48.3394 16.6369L43.4732 19.6109L44.2554 20.8908ZM12.528 19.6109L7.66174 16.6369L6.87953 17.9168L11.7458 20.8908L12.528 19.6109ZM5.72901 17.8003C4.49224 18.558 2.88399 18.1597 2.12957 16.8931L0.840845 17.6606C2.01706 19.6354 4.55346 20.2797 6.51264 19.0793L5.72901 17.8003ZM2.12978 16.8934C1.37536 15.6252 1.78253 13.9775 3.02319 13.2184L2.24028 11.9389C0.291726 13.1312 -0.329078 15.6939 0.840632 17.6603L2.12978 16.8934ZM3.02357 13.2181C4.2609 12.46 5.87157 12.8594 6.62241 14.1244L7.9123 13.3587C6.73901 11.3821 4.19829 10.7392 2.2399 11.9391L3.02357 13.2181ZM6.62278 14.125C7.3772 15.3932 6.97003 17.0409 5.72937 17.8001L6.51228 19.0795C8.46083 17.8872 9.08164 15.3245 7.91193 13.3581L6.62278 14.125ZM43.4735 39.8379L48.3398 42.8086L49.1213 41.5283L44.2551 38.5576L43.4735 39.8379ZM50.2728 41.6447C51.5061 40.8874 53.1167 41.2858 53.8678 42.5512L55.1577 41.7855C53.9847 39.8095 51.4438 39.1654 49.4879 40.3664L50.2728 41.6447ZM53.8687 42.5528C54.6253 43.8203 54.2188 45.4672 52.9752 46.2266L53.757 47.5068C55.7093 46.3145 56.3308 43.751 55.1567 41.784L53.8687 42.5528ZM52.9737 46.2276C51.7404 46.9848 50.1299 46.5863 49.3788 45.3209L48.0889 46.0866C49.2619 48.0626 51.8026 48.7067 53.7585 47.5059L52.9737 46.2276ZM49.3779 45.3194C48.6213 44.0518 49.0278 42.405 50.2713 41.6456L49.4895 40.3655C47.5372 41.5576 46.9158 44.1212 48.0898 46.0882L49.3779 45.3194ZM11.7461 38.5576L6.87984 41.5283L7.66142 42.8086L12.5276 39.8379L11.7461 38.5576ZM6.51268 40.366C4.55348 39.1655 2.01706 39.8098 0.840845 41.7846L2.12957 42.5522C2.88399 41.2855 4.49222 40.8872 5.72898 41.645L6.51268 40.366ZM0.840632 41.7849C-0.329087 43.7513 0.291744 46.314 2.24024 47.5064L3.02322 46.227C1.78251 45.4677 1.37537 43.82 2.12978 42.5518L0.840632 41.7849ZM2.2399 47.5062C4.19832 48.7062 6.73901 48.0631 7.91228 46.0866L6.62242 45.3209C5.87157 46.5858 4.26087 46.9853 3.02357 46.2272L2.2399 47.5062ZM7.91193 46.0872C9.08164 44.1209 8.46083 41.5581 6.51228 40.3658L5.72937 41.6453C6.97003 42.4044 7.3772 44.0521 6.62278 45.3203L7.91193 46.0872ZM28.7506 20.2509V1H27.2506V20.2509H28.7506ZM24.5381 5.57684L28.5344 1.52678L27.4667 0.473219L23.4703 4.52328L24.5381 5.57684ZM27.4665 1.52656L31.4597 5.57662L32.5278 4.52349L28.5347 0.473435L27.4665 1.52656ZM27.2506 39.7491V59H28.7506V39.7491H27.2506ZM23.4701 55.4732L27.4665 59.5266L28.5347 58.4734L24.5383 54.42L23.4701 55.4732ZM28.5349 59.5264L32.528 55.4729L31.4594 54.4203L27.4663 58.4737L28.5349 59.5264ZM12.8869 29.7277V29.7244H11.3869V29.7277H12.8869Z" fill="white"/>
</svg>
