<svg width="700" height="400" viewBox="0 0 700 400" fill="none" xmlns="http://www.w3.org/2000/svg">
<g filter="url(#filter0_d_1654_11754)">
<rect x="525.154" y="116.724" width="132.845" height="167.836" rx="9.03702" fill="#2C3248" shape-rendering="crispEdges"/>
<rect x="538.009" y="131.95" width="106.545" height="110.103" rx="1.75063" fill="#22273C"/>
<rect x="538.009" y="131.95" width="106.545" height="110.103" rx="1.75063" stroke="#373D57" stroke-width="0.798929"/>
<g clip-path="url(#clip0_1654_11754)">
<path d="M561.356 156.174C561.05 156.17 560.747 156.233 560.467 156.359C560.188 156.485 559.939 156.671 559.739 156.903C559.539 157.135 559.393 157.408 559.309 157.703C559.226 157.997 559.208 158.307 559.258 158.609L568.167 212.695C568.278 213.357 568.619 213.959 569.129 214.395C569.64 214.83 570.287 215.072 570.959 215.078H613.701C614.204 215.084 614.692 214.91 615.078 214.586C615.463 214.262 615.719 213.811 615.799 213.315L624.709 158.62C624.758 158.317 624.74 158.008 624.657 157.713C624.574 157.418 624.427 157.145 624.227 156.913C624.027 156.681 623.778 156.496 623.499 156.37C623.22 156.244 622.916 156.181 622.61 156.185L561.356 156.174ZM598.873 195.265H585.23L581.536 175.966H602.178L598.873 195.265Z" fill="#2684FF"/>
<path d="M621.821 175.939H602.139L598.836 195.222H585.205L569.109 214.327C569.62 214.768 570.27 215.013 570.944 215.019H613.663C614.166 215.025 614.654 214.851 615.039 214.528C615.424 214.204 615.68 213.754 615.76 213.257L621.821 175.939Z" fill="url(#paint0_linear_1654_11754)"/>
</g>
<path d="M571.406 261.376C571.818 261.453 572.157 261.659 572.423 261.995C572.688 262.33 572.821 262.715 572.821 263.148C572.821 263.539 572.723 263.885 572.528 264.186C572.339 264.479 572.063 264.71 571.699 264.877C571.336 265.045 570.906 265.129 570.41 265.129H567.255V257.813H570.274C570.77 257.813 571.196 257.893 571.553 258.054C571.916 258.214 572.189 258.438 572.37 258.725C572.559 259.011 572.653 259.336 572.653 259.699C572.653 260.126 572.538 260.482 572.307 260.769C572.084 261.055 571.783 261.258 571.406 261.376ZM568.723 260.831H570.064C570.414 260.831 570.683 260.755 570.871 260.601C571.06 260.44 571.154 260.213 571.154 259.919C571.154 259.626 571.06 259.399 570.871 259.238C570.683 259.077 570.414 258.997 570.064 258.997H568.723V260.831ZM570.201 263.934C570.557 263.934 570.833 263.85 571.029 263.682C571.231 263.515 571.333 263.277 571.333 262.97C571.333 262.655 571.228 262.411 571.018 262.236C570.809 262.054 570.526 261.963 570.169 261.963H568.723V263.934H570.201ZM574.735 258.63C574.476 258.63 574.26 258.55 574.085 258.389C573.917 258.221 573.833 258.015 573.833 257.771C573.833 257.526 573.917 257.324 574.085 257.163C574.26 256.995 574.476 256.911 574.735 256.911C574.993 256.911 575.206 256.995 575.374 257.163C575.549 257.324 575.636 257.526 575.636 257.771C575.636 258.015 575.549 258.221 575.374 258.389C575.206 258.55 574.993 258.63 574.735 258.63ZM575.458 259.322V265.129H573.991V259.322H575.458ZM578.616 260.527V263.337C578.616 263.532 578.662 263.675 578.753 263.766C578.85 263.85 579.011 263.892 579.235 263.892H579.916V265.129H578.994C577.757 265.129 577.138 264.528 577.138 263.326V260.527H576.447V259.322H577.138V257.886H578.616V259.322H579.916V260.527H578.616ZM582.439 260.171C582.628 259.892 582.886 259.664 583.215 259.49C583.55 259.315 583.931 259.228 584.357 259.228C584.853 259.228 585.301 259.35 585.699 259.595C586.104 259.839 586.422 260.189 586.653 260.643C586.89 261.09 587.009 261.611 587.009 262.205C587.009 262.798 586.89 263.326 586.653 263.787C586.422 264.241 586.104 264.594 585.699 264.846C585.301 265.097 584.853 265.223 584.357 265.223C583.924 265.223 583.543 265.139 583.215 264.972C582.893 264.797 582.635 264.573 582.439 264.301V265.129H580.972V257.372H582.439V260.171ZM585.51 262.205C585.51 261.855 585.437 261.555 585.29 261.303C585.15 261.045 584.962 260.849 584.724 260.716C584.493 260.583 584.242 260.517 583.969 260.517C583.704 260.517 583.452 260.587 583.215 260.727C582.984 260.859 582.795 261.055 582.649 261.314C582.509 261.572 582.439 261.876 582.439 262.225C582.439 262.575 582.509 262.879 582.649 263.137C582.795 263.396 582.984 263.595 583.215 263.735C583.452 263.868 583.704 263.934 583.969 263.934C584.242 263.934 584.493 263.864 584.724 263.724C584.962 263.585 585.15 263.385 585.29 263.127C585.437 262.868 585.51 262.561 585.51 262.205ZM593.557 259.322V265.129H592.079V264.395C591.891 264.647 591.643 264.846 591.335 264.993C591.035 265.132 590.706 265.202 590.35 265.202C589.896 265.202 589.494 265.108 589.145 264.919C588.795 264.724 588.519 264.441 588.316 264.07C588.121 263.693 588.023 263.246 588.023 262.729V259.322H589.49V262.519C589.49 262.98 589.606 263.337 589.836 263.588C590.067 263.833 590.381 263.955 590.78 263.955C591.185 263.955 591.503 263.833 591.734 263.588C591.964 263.337 592.079 262.98 592.079 262.519V259.322H593.557ZM594.628 262.225C594.628 261.625 594.75 261.1 594.995 260.653C595.239 260.199 595.578 259.85 596.011 259.605C596.445 259.353 596.941 259.228 597.5 259.228C598.22 259.228 598.814 259.409 599.282 259.773C599.757 260.129 600.075 260.632 600.236 261.282H598.653C598.569 261.031 598.426 260.835 598.223 260.695C598.027 260.548 597.783 260.475 597.489 260.475C597.07 260.475 596.738 260.629 596.494 260.936C596.249 261.237 596.127 261.666 596.127 262.225C596.127 262.778 596.249 263.207 596.494 263.515C596.738 263.815 597.07 263.965 597.489 263.965C598.083 263.965 598.471 263.7 598.653 263.169H600.236C600.075 263.798 599.757 264.297 599.282 264.668C598.807 265.038 598.213 265.223 597.5 265.223C596.941 265.223 596.445 265.101 596.011 264.856C595.578 264.605 595.239 264.255 594.995 263.808C594.75 263.354 594.628 262.826 594.628 262.225ZM604.749 265.129L602.778 262.655V265.129H601.311V257.372H602.778V261.785L604.728 259.322H606.635L604.078 262.236L606.656 265.129H604.749ZM612.83 262.1C612.83 262.309 612.816 262.498 612.788 262.666H608.543C608.578 263.085 608.725 263.413 608.983 263.651C609.242 263.889 609.56 264.007 609.937 264.007C610.482 264.007 610.87 263.773 611.1 263.305H612.683C612.515 263.864 612.194 264.325 611.719 264.689C611.244 265.045 610.66 265.223 609.968 265.223C609.409 265.223 608.906 265.101 608.459 264.856C608.019 264.605 607.673 264.252 607.421 263.798C607.177 263.344 607.054 262.819 607.054 262.225C607.054 261.625 607.177 261.097 607.421 260.643C607.666 260.189 608.008 259.839 608.449 259.595C608.889 259.35 609.395 259.228 609.968 259.228C610.52 259.228 611.013 259.346 611.446 259.584C611.887 259.822 612.225 260.161 612.463 260.601C612.708 261.034 612.83 261.534 612.83 262.1ZM611.31 261.68C611.303 261.303 611.167 261.003 610.901 260.779C610.636 260.548 610.311 260.433 609.926 260.433C609.563 260.433 609.256 260.545 609.004 260.769C608.759 260.985 608.609 261.289 608.553 261.68H611.31ZM615.609 260.527V263.337C615.609 263.532 615.655 263.675 615.746 263.766C615.844 263.85 616.004 263.892 616.228 263.892H616.909V265.129H615.987C614.75 265.129 614.132 264.528 614.132 263.326V260.527H613.44V259.322H614.132V257.886H615.609V259.322H616.909V260.527H615.609Z" fill="white"/>
</g>
<g filter="url(#filter1_d_1654_11754)">
<rect x="382.604" y="97.7261" width="163.204" height="206.191" rx="11.1022" fill="#2C3248" shape-rendering="crispEdges"/>
<rect x="398.395" y="116.431" width="130.893" height="135.265" rx="2.1507" fill="#22273C"/>
<rect x="398.395" y="116.431" width="130.893" height="135.265" rx="2.1507" stroke="#373D57" stroke-width="0.981505"/>
<path fill-rule="evenodd" clip-rule="evenodd" d="M435.399 212.067L426.219 207.706V163.612L435.399 159.278L448.05 186.394L435.399 212.067Z" fill="#4B612C"/>
<path fill-rule="evenodd" clip-rule="evenodd" d="M465.722 167.001L435.398 159.278V212.067L465.722 204.051V167.001Z" fill="#759C3E"/>
<path fill-rule="evenodd" clip-rule="evenodd" d="M479.73 200.111L486.788 202.361L491.238 187.825L486.788 173.281L479.73 174.245V200.111Z" fill="#4B612C"/>
<path fill-rule="evenodd" clip-rule="evenodd" d="M486.789 173.658L479.732 174.503L475.582 173.676L482.823 159.334L486.789 173.658Z" fill="#3C4929"/>
<path fill-rule="evenodd" clip-rule="evenodd" d="M475.582 173.676L482.823 172.758V159.297L475.582 161.143V173.676Z" fill="#4B612C"/>
<path fill-rule="evenodd" clip-rule="evenodd" d="M452.5 168.828L459.16 162.226L476.638 171.298L470.172 172.299L452.5 168.828Z" fill="#3C4929"/>
<path fill-rule="evenodd" clip-rule="evenodd" d="M486.789 197.752L479.732 196.999L475.582 197.733L482.823 212.168L486.789 197.752Z" fill="#B7CA9D"/>
<path fill-rule="evenodd" clip-rule="evenodd" d="M475.582 197.734L482.823 198.652V212.169L475.582 210.268V197.734Z" fill="#4B612C"/>
<path fill-rule="evenodd" clip-rule="evenodd" d="M476.639 171.298L459.16 167.267V148.058L476.639 156.386V171.298ZM492.101 163.705L482.824 159.297V172.759L492.101 174.861V163.705Z" fill="#759C3E"/>
<path fill-rule="evenodd" clip-rule="evenodd" d="M452.5 202.582L459.16 215.17L476.638 200.111L470.172 199.111L452.5 202.582Z" fill="#B7CA9D"/>
<path fill-rule="evenodd" clip-rule="evenodd" d="M476.639 200.111L459.16 204.142V223.352L476.639 215.097V200.111ZM492.101 207.797L482.824 212.168V198.651L492.101 196.549V207.797Z" fill="#759C3E"/>
<path fill-rule="evenodd" clip-rule="evenodd" d="M441.584 215.005L459.16 223.352L467.244 185.842L459.16 148.058L441.584 156.359V215.005Z" fill="#4B612C"/>
<path fill-rule="evenodd" clip-rule="evenodd" d="M469.01 218.687L459.16 223.352V148.333L469.01 152.998V218.687ZM486.789 210.267L492.101 207.797V163.704L486.789 162.547V210.267Z" fill="#759C3E"/>
<path d="M409.689 277.589H406.109L405.517 279.302H403.624L406.856 270.301H408.955L412.187 279.302H410.281L409.689 277.589ZM409.2 276.147L407.899 272.387L406.599 276.147H409.2ZM425.41 270.314L422.899 279.302H420.774L419.087 272.902L417.323 279.302L415.211 279.315L412.79 270.314H414.722L416.306 277.293L418.134 270.314H420.143L421.868 277.255L423.465 270.314H425.41ZM429.69 279.392C429.063 279.392 428.497 279.285 427.99 279.07C427.492 278.856 427.098 278.547 426.806 278.143C426.514 277.74 426.364 277.263 426.355 276.714H428.287C428.312 277.083 428.441 277.375 428.673 277.589C428.913 277.804 429.239 277.911 429.652 277.911C430.072 277.911 430.403 277.813 430.643 277.615C430.883 277.409 431.004 277.143 431.004 276.817C431.004 276.551 430.922 276.332 430.759 276.16C430.596 275.988 430.39 275.855 430.141 275.761C429.901 275.658 429.566 275.546 429.136 275.426C428.553 275.254 428.076 275.087 427.707 274.924C427.347 274.752 427.033 274.499 426.767 274.164C426.51 273.821 426.381 273.366 426.381 272.799C426.381 272.267 426.514 271.803 426.78 271.408C427.046 271.013 427.42 270.713 427.9 270.507C428.381 270.292 428.93 270.185 429.549 270.185C430.476 270.185 431.227 270.413 431.802 270.868C432.386 271.314 432.708 271.941 432.768 272.748H430.785C430.768 272.439 430.634 272.185 430.386 271.988C430.145 271.782 429.823 271.679 429.42 271.679C429.068 271.679 428.784 271.769 428.57 271.949C428.364 272.129 428.261 272.391 428.261 272.735C428.261 272.975 428.338 273.177 428.493 273.34C428.656 273.494 428.853 273.623 429.085 273.726C429.325 273.821 429.66 273.932 430.089 274.061C430.673 274.233 431.15 274.404 431.519 274.576C431.888 274.748 432.205 275.005 432.472 275.349C432.738 275.692 432.871 276.143 432.871 276.701C432.871 277.182 432.746 277.628 432.497 278.04C432.248 278.452 431.884 278.783 431.403 279.032C430.922 279.272 430.351 279.392 429.69 279.392ZM437.064 274.795C437.064 273.911 437.262 273.121 437.657 272.426C438.06 271.722 438.605 271.177 439.292 270.79C439.987 270.395 440.764 270.198 441.623 270.198C442.627 270.198 443.507 270.455 444.263 270.971C445.018 271.486 445.546 272.198 445.846 273.108H443.773C443.567 272.679 443.275 272.357 442.898 272.142C442.528 271.928 442.099 271.82 441.61 271.82C441.086 271.82 440.618 271.945 440.206 272.194C439.803 272.434 439.485 272.778 439.253 273.224C439.03 273.67 438.919 274.194 438.919 274.795C438.919 275.387 439.03 275.911 439.253 276.366C439.485 276.812 439.803 277.16 440.206 277.409C440.618 277.649 441.086 277.77 441.61 277.77C442.099 277.77 442.528 277.662 442.898 277.448C443.275 277.225 443.567 276.898 443.773 276.469H445.846C445.546 277.388 445.018 278.104 444.263 278.62C443.516 279.126 442.636 279.379 441.623 279.379C440.764 279.379 439.987 279.186 439.292 278.8C438.605 278.405 438.06 277.86 437.657 277.164C437.262 276.469 437.064 275.679 437.064 274.795ZM450.554 279.418C449.867 279.418 449.249 279.268 448.7 278.967C448.15 278.658 447.717 278.225 447.399 277.667C447.09 277.109 446.936 276.465 446.936 275.735C446.936 275.005 447.094 274.361 447.412 273.803C447.738 273.245 448.18 272.816 448.738 272.516C449.296 272.207 449.919 272.052 450.606 272.052C451.292 272.052 451.915 272.207 452.473 272.516C453.031 272.816 453.469 273.245 453.786 273.803C454.112 274.361 454.276 275.005 454.276 275.735C454.276 276.465 454.108 277.109 453.773 277.667C453.447 278.225 453.001 278.658 452.434 278.967C451.876 279.268 451.249 279.418 450.554 279.418ZM450.554 277.847C450.88 277.847 451.185 277.77 451.468 277.615C451.76 277.452 451.992 277.212 452.164 276.894C452.335 276.576 452.421 276.19 452.421 275.735C452.421 275.057 452.241 274.537 451.88 274.177C451.528 273.808 451.095 273.623 450.58 273.623C450.065 273.623 449.631 273.808 449.279 274.177C448.936 274.537 448.764 275.057 448.764 275.735C448.764 276.413 448.932 276.937 449.266 277.306C449.61 277.667 450.039 277.847 450.554 277.847ZM455.134 275.709C455.134 274.988 455.276 274.349 455.559 273.791C455.851 273.233 456.246 272.803 456.744 272.503C457.242 272.202 457.796 272.052 458.405 272.052C458.869 272.052 459.311 272.155 459.731 272.361C460.152 272.559 460.487 272.825 460.736 273.16V269.773H462.564V279.302H460.736V278.246C460.513 278.598 460.199 278.881 459.796 279.096C459.392 279.311 458.925 279.418 458.392 279.418C457.791 279.418 457.242 279.263 456.744 278.954C456.246 278.645 455.851 278.212 455.559 277.654C455.276 277.087 455.134 276.439 455.134 275.709ZM460.749 275.735C460.749 275.297 460.663 274.924 460.491 274.615C460.32 274.297 460.088 274.057 459.796 273.894C459.504 273.722 459.191 273.636 458.856 273.636C458.521 273.636 458.212 273.718 457.929 273.881C457.645 274.044 457.414 274.284 457.233 274.602C457.062 274.911 456.976 275.28 456.976 275.709C456.976 276.139 457.062 276.516 457.233 276.842C457.414 277.16 457.645 277.405 457.929 277.576C458.221 277.748 458.53 277.834 458.856 277.834C459.191 277.834 459.504 277.752 459.796 277.589C460.088 277.418 460.32 277.177 460.491 276.868C460.663 276.551 460.749 276.173 460.749 275.735ZM470.957 275.581C470.957 275.838 470.94 276.07 470.905 276.276H465.69C465.733 276.791 465.913 277.194 466.231 277.486C466.549 277.778 466.939 277.924 467.403 277.924C468.072 277.924 468.549 277.637 468.832 277.061H470.777C470.571 277.748 470.176 278.315 469.592 278.761C469.008 279.199 468.291 279.418 467.441 279.418C466.755 279.418 466.137 279.268 465.587 278.967C465.046 278.658 464.621 278.225 464.312 277.667C464.012 277.109 463.862 276.465 463.862 275.735C463.862 274.997 464.012 274.349 464.312 273.791C464.613 273.233 465.033 272.803 465.574 272.503C466.115 272.202 466.737 272.052 467.441 272.052C468.12 272.052 468.725 272.198 469.257 272.49C469.798 272.782 470.214 273.198 470.506 273.739C470.807 274.271 470.957 274.885 470.957 275.581ZM469.09 275.065C469.081 274.602 468.914 274.233 468.587 273.958C468.261 273.675 467.862 273.533 467.39 273.533C466.944 273.533 466.566 273.67 466.257 273.945C465.956 274.211 465.772 274.585 465.703 275.065H469.09ZM471.835 274.795C471.835 273.911 472.032 273.121 472.427 272.426C472.831 271.722 473.376 271.177 474.063 270.79C474.758 270.395 475.535 270.198 476.393 270.198C477.398 270.198 478.278 270.455 479.033 270.971C479.789 271.486 480.317 272.198 480.617 273.108H478.544C478.338 272.679 478.046 272.357 477.668 272.142C477.299 271.928 476.87 271.82 476.381 271.82C475.857 271.82 475.389 271.945 474.977 272.194C474.573 272.434 474.256 272.778 474.024 273.224C473.801 273.67 473.689 274.194 473.689 274.795C473.689 275.387 473.801 275.911 474.024 276.366C474.256 276.812 474.573 277.16 474.977 277.409C475.389 277.649 475.857 277.77 476.381 277.77C476.87 277.77 477.299 277.662 477.668 277.448C478.046 277.225 478.338 276.898 478.544 276.469H480.617C480.317 277.388 479.789 278.104 479.033 278.62C478.286 279.126 477.406 279.379 476.393 279.379C475.535 279.379 474.758 279.186 474.063 278.8C473.376 278.405 472.831 277.86 472.427 277.164C472.032 276.469 471.835 275.679 471.835 274.795ZM485.325 279.418C484.638 279.418 484.02 279.268 483.47 278.967C482.921 278.658 482.487 278.225 482.17 277.667C481.861 277.109 481.706 276.465 481.706 275.735C481.706 275.005 481.865 274.361 482.183 273.803C482.509 273.245 482.951 272.816 483.509 272.516C484.067 272.207 484.689 272.052 485.376 272.052C486.063 272.052 486.685 272.207 487.243 272.516C487.801 272.816 488.239 273.245 488.557 273.803C488.883 274.361 489.046 275.005 489.046 275.735C489.046 276.465 488.879 277.109 488.544 277.667C488.218 278.225 487.771 278.658 487.205 278.967C486.647 279.268 486.02 279.418 485.325 279.418ZM485.325 277.847C485.651 277.847 485.956 277.77 486.239 277.615C486.531 277.452 486.763 277.212 486.934 276.894C487.106 276.576 487.192 276.19 487.192 275.735C487.192 275.057 487.012 274.537 486.651 274.177C486.299 273.808 485.865 273.623 485.35 273.623C484.835 273.623 484.402 273.808 484.05 274.177C483.706 274.537 483.535 275.057 483.535 275.735C483.535 276.413 483.702 276.937 484.037 277.306C484.38 277.667 484.81 277.847 485.325 277.847ZM499.228 272.065C500.104 272.065 500.808 272.336 501.34 272.876C501.881 273.409 502.151 274.155 502.151 275.117V279.302H500.348V275.362C500.348 274.804 500.207 274.379 499.923 274.087C499.64 273.786 499.254 273.636 498.764 273.636C498.275 273.636 497.884 273.786 497.593 274.087C497.309 274.379 497.168 274.804 497.168 275.362V279.302H495.365V275.362C495.365 274.804 495.223 274.379 494.94 274.087C494.657 273.786 494.27 273.636 493.781 273.636C493.283 273.636 492.888 273.786 492.596 274.087C492.313 274.379 492.171 274.804 492.171 275.362V279.302H490.369V272.168H492.171V273.031C492.403 272.73 492.699 272.494 493.06 272.323C493.429 272.151 493.832 272.065 494.27 272.065C494.828 272.065 495.326 272.185 495.764 272.426C496.202 272.657 496.541 272.992 496.781 273.43C497.013 273.018 497.348 272.687 497.786 272.439C498.232 272.19 498.713 272.065 499.228 272.065ZM512.721 272.065C513.597 272.065 514.301 272.336 514.833 272.876C515.374 273.409 515.644 274.155 515.644 275.117V279.302H513.842V275.362C513.842 274.804 513.7 274.379 513.417 274.087C513.133 273.786 512.747 273.636 512.258 273.636C511.768 273.636 511.378 273.786 511.086 274.087C510.803 274.379 510.661 274.804 510.661 275.362V279.302H508.858V275.362C508.858 274.804 508.716 274.379 508.433 274.087C508.15 273.786 507.764 273.636 507.274 273.636C506.776 273.636 506.381 273.786 506.09 274.087C505.806 274.379 505.665 274.804 505.665 275.362V279.302H503.862V272.168H505.665V273.031C505.896 272.73 506.193 272.494 506.553 272.323C506.922 272.151 507.326 272.065 507.764 272.065C508.322 272.065 508.819 272.185 509.257 272.426C509.695 272.657 510.034 272.992 510.275 273.43C510.506 273.018 510.841 272.687 511.279 272.439C511.725 272.19 512.206 272.065 512.721 272.065ZM518.269 271.318C517.952 271.318 517.686 271.219 517.471 271.022C517.265 270.816 517.162 270.563 517.162 270.262C517.162 269.962 517.265 269.713 517.471 269.515C517.686 269.309 517.952 269.206 518.269 269.206C518.587 269.206 518.849 269.309 519.055 269.515C519.269 269.713 519.377 269.962 519.377 270.262C519.377 270.563 519.269 270.816 519.055 271.022C518.849 271.219 518.587 271.318 518.269 271.318ZM519.158 272.168V279.302H517.355V272.168H519.158ZM523.038 273.649V277.1C523.038 277.34 523.094 277.516 523.205 277.628C523.326 277.731 523.523 277.783 523.798 277.783H524.635V279.302H523.502C521.982 279.302 521.222 278.564 521.222 277.087V273.649H520.372V272.168H521.222V270.404H523.038V272.168H524.635V273.649H523.038Z" fill="white"/>
</g>
<g filter="url(#filter2_d_1654_11754)">
<rect x="214.285" y="81.1885" width="188.625" height="238.307" rx="12.8315" fill="#2C3248" shape-rendering="crispEdges"/>
<rect x="232.536" y="102.807" width="151.281" height="156.334" rx="2.48569" fill="#22273C"/>
<rect x="232.536" y="102.807" width="151.281" height="156.334" rx="2.48569" stroke="#373D57" stroke-width="1.13439"/>
<path d="M347.679 172.775L347.564 172.482L336.441 143.47C336.214 142.902 335.814 142.419 335.296 142.093C334.778 141.771 334.174 141.616 333.565 141.649C332.956 141.682 332.372 141.9 331.892 142.275C331.417 142.661 331.072 143.184 330.904 143.772L323.394 166.736H292.981L285.47 143.772C285.308 143.181 284.962 142.655 284.483 142.271C284.003 141.896 283.419 141.678 282.81 141.645C282.201 141.612 281.597 141.767 281.079 142.088C280.563 142.417 280.162 142.898 279.934 143.466L268.79 172.465L268.679 172.758C267.078 176.939 266.88 181.527 268.116 185.83C269.352 190.134 271.954 193.919 275.53 196.615L275.568 196.645L275.671 196.717L292.615 209.398L300.998 215.739L306.105 219.592C306.702 220.045 307.431 220.29 308.181 220.29C308.931 220.29 309.66 220.045 310.258 219.592L315.364 215.739L323.747 209.398L340.794 196.641L340.836 196.606C344.405 193.91 347.001 190.129 348.235 185.831C349.469 181.534 349.274 176.952 347.679 172.775Z" fill="#E24329"/>
<path d="M347.678 172.775L347.563 172.482C342.143 173.594 337.036 175.888 332.606 179.201L308.176 197.662C316.495 203.951 323.737 209.416 323.737 209.416L340.784 196.658L340.827 196.624C344.4 193.927 347 190.144 348.236 185.843C349.471 181.541 349.276 176.956 347.678 172.775Z" fill="#FC6D26"/>
<path d="M292.615 209.415L300.998 215.756L306.105 219.608C306.702 220.062 307.431 220.307 308.181 220.307C308.931 220.307 309.66 220.062 310.258 219.608L315.364 215.756L323.747 209.415C323.747 209.415 316.496 203.933 308.177 197.661C299.858 203.933 292.615 209.415 292.615 209.415Z" fill="#FCA326"/>
<path d="M283.743 179.201C279.316 175.881 274.21 173.581 268.79 172.465L268.679 172.758C267.078 176.939 266.88 181.527 268.116 185.831C269.352 190.134 271.954 193.919 275.53 196.615L275.568 196.645L275.671 196.717L292.615 209.398C292.615 209.398 299.849 203.934 308.177 197.644L283.743 179.201Z" fill="#FC6D26"/>
<path d="M293.127 283.602C292.889 283.166 292.561 282.833 292.145 282.605C291.728 282.377 291.242 282.263 290.686 282.263C290.071 282.263 289.525 282.402 289.049 282.68C288.573 282.957 288.201 283.354 287.933 283.87C287.665 284.386 287.531 284.982 287.531 285.656C287.531 286.351 287.665 286.956 287.933 287.472C288.211 287.988 288.593 288.385 289.079 288.663C289.565 288.94 290.131 289.079 290.776 289.079C291.569 289.079 292.219 288.871 292.725 288.454C293.231 288.028 293.564 287.437 293.722 286.683H290.15V285.091H295.776V286.906C295.637 287.631 295.34 288.3 294.883 288.916C294.427 289.531 293.836 290.027 293.112 290.404C292.398 290.771 291.594 290.955 290.701 290.955C289.699 290.955 288.791 290.731 287.978 290.285C287.174 289.828 286.539 289.198 286.073 288.395C285.616 287.591 285.388 286.678 285.388 285.656C285.388 284.634 285.616 283.721 286.073 282.918C286.539 282.104 287.174 281.474 287.978 281.028C288.791 280.571 289.694 280.343 290.686 280.343C291.857 280.343 292.874 280.631 293.737 281.206C294.6 281.772 295.196 282.571 295.523 283.602H293.127ZM298.374 281.638C298.007 281.638 297.7 281.524 297.452 281.296C297.214 281.057 297.094 280.765 297.094 280.417C297.094 280.07 297.214 279.782 297.452 279.554C297.7 279.316 298.007 279.197 298.374 279.197C298.741 279.197 299.044 279.316 299.282 279.554C299.53 279.782 299.654 280.07 299.654 280.417C299.654 280.765 299.53 281.057 299.282 281.296C299.044 281.524 298.741 281.638 298.374 281.638ZM299.401 282.62V290.865H297.318V282.62H299.401ZM303.886 284.332V288.32C303.886 288.598 303.95 288.801 304.079 288.93C304.218 289.05 304.446 289.109 304.764 289.109H305.731V290.865H304.422C302.665 290.865 301.787 290.012 301.787 288.305V284.332H300.805V282.62H301.787V280.581H303.886V282.62H305.731V284.332H303.886ZM309.313 289.213H312.737V290.865H307.23V280.477H309.313V289.213ZM313.525 286.713C313.525 285.879 313.689 285.14 314.016 284.495C314.354 283.85 314.805 283.354 315.371 283.007C315.946 282.66 316.586 282.486 317.29 282.486C317.906 282.486 318.441 282.61 318.898 282.858C319.364 283.106 319.736 283.419 320.014 283.796V282.62H322.112V290.865H320.014V289.66C319.746 290.047 319.374 290.369 318.898 290.627C318.431 290.875 317.891 290.999 317.276 290.999C316.581 290.999 315.946 290.821 315.371 290.463C314.805 290.106 314.354 289.605 314.016 288.96C313.689 288.305 313.525 287.556 313.525 286.713ZM320.014 286.743C320.014 286.237 319.915 285.805 319.716 285.448C319.518 285.081 319.25 284.803 318.913 284.614C318.575 284.416 318.213 284.317 317.826 284.317C317.439 284.317 317.082 284.411 316.755 284.6C316.427 284.788 316.159 285.066 315.951 285.433C315.753 285.79 315.653 286.217 315.653 286.713C315.653 287.209 315.753 287.646 315.951 288.023C316.159 288.39 316.427 288.672 316.755 288.871C317.092 289.069 317.449 289.169 317.826 289.169C318.213 289.169 318.575 289.074 318.913 288.886C319.25 288.687 319.518 288.41 319.716 288.052C319.915 287.685 320.014 287.249 320.014 286.743ZM326.231 283.826C326.499 283.429 326.866 283.106 327.332 282.858C327.809 282.61 328.349 282.486 328.955 282.486C329.659 282.486 330.294 282.66 330.86 283.007C331.435 283.354 331.887 283.85 332.214 284.495C332.551 285.13 332.72 285.87 332.72 286.713C332.72 287.556 332.551 288.305 332.214 288.96C331.887 289.605 331.435 290.106 330.86 290.463C330.294 290.821 329.659 290.999 328.955 290.999C328.339 290.999 327.799 290.88 327.332 290.642C326.876 290.394 326.509 290.076 326.231 289.689V290.865H324.147V279.852H326.231V283.826ZM330.592 286.713C330.592 286.217 330.488 285.79 330.279 285.433C330.081 285.066 329.813 284.788 329.476 284.6C329.148 284.411 328.791 284.317 328.404 284.317C328.027 284.317 327.67 284.416 327.332 284.614C327.005 284.803 326.737 285.081 326.529 285.448C326.33 285.815 326.231 286.247 326.231 286.743C326.231 287.239 326.33 287.67 326.529 288.037C326.737 288.405 327.005 288.687 327.332 288.886C327.67 289.074 328.027 289.169 328.404 289.169C328.791 289.169 329.148 289.069 329.476 288.871C329.813 288.672 330.081 288.39 330.279 288.023C330.488 287.656 330.592 287.219 330.592 286.713Z" fill="white"/>
</g>
<g filter="url(#filter3_d_1654_11754)">
<rect x="42" y="60.8237" width="220.694" height="278.824" rx="15.0131" fill="#2C3248" shape-rendering="crispEdges"/>
<rect x="63.355" y="86.1187" width="177.002" height="182.913" rx="2.9083" fill="#22273C"/>
<rect x="63.355" y="86.1187" width="177.002" height="182.913" rx="2.9083" stroke="#373D57" stroke-width="1.32725"/>
<path d="M156.027 125.704C129.417 125.704 107.836 147.827 107.836 175.114C107.836 196.944 121.643 215.464 140.794 221.999C143.2 222.456 143.979 220.924 143.979 219.623V210.425C130.574 213.414 127.783 204.594 127.783 204.594C125.59 198.883 122.43 197.364 122.43 197.364C118.056 194.297 122.763 194.363 122.763 194.363C127.602 194.708 130.148 199.456 130.148 199.456C134.445 207.007 141.421 204.825 144.172 203.561C144.602 200.37 145.85 198.188 147.232 196.956C136.53 195.701 125.277 191.464 125.277 172.536C125.277 167.138 127.16 162.732 130.241 159.274C129.743 158.026 128.092 152.999 130.711 146.197C130.711 146.197 134.759 144.871 143.967 151.261C147.81 150.166 151.931 149.618 156.027 149.598C160.123 149.618 164.247 150.166 168.099 151.261C177.299 144.871 181.339 146.197 181.339 146.197C183.961 153.003 182.311 158.03 181.813 159.274C184.905 162.732 186.772 167.142 186.772 172.536C186.772 191.513 175.5 195.692 164.769 196.915C166.496 198.447 168.074 201.453 168.074 206.064V219.623C168.074 220.936 168.845 222.48 171.291 221.995C190.427 215.452 204.218 196.936 204.218 175.114C204.218 147.827 182.64 125.704 156.027 125.704Z" fill="white"/>
<path d="M131.469 297.932C131.19 297.421 130.807 297.032 130.32 296.765C129.832 296.498 129.263 296.364 128.613 296.364C127.893 296.364 127.255 296.527 126.698 296.852C126.141 297.177 125.705 297.641 125.392 298.245C125.078 298.849 124.922 299.545 124.922 300.335C124.922 301.147 125.078 301.855 125.392 302.459C125.717 303.063 126.164 303.527 126.733 303.852C127.301 304.177 127.963 304.34 128.718 304.34C129.646 304.34 130.407 304.096 130.999 303.608C131.591 303.109 131.98 302.418 132.166 301.536H127.986V299.673H134.569V301.797C134.406 302.645 134.058 303.428 133.524 304.148C132.99 304.868 132.299 305.448 131.452 305.889C130.616 306.319 129.675 306.534 128.631 306.534C127.458 306.534 126.396 306.272 125.444 305.75C124.504 305.216 123.761 304.479 123.215 303.539C122.681 302.598 122.414 301.53 122.414 300.335C122.414 299.139 122.681 298.071 123.215 297.131C123.761 296.179 124.504 295.442 125.444 294.919C126.396 294.385 127.452 294.118 128.613 294.118C129.983 294.118 131.173 294.455 132.183 295.128C133.193 295.79 133.889 296.724 134.273 297.932H131.469ZM137.608 295.633C137.179 295.633 136.819 295.5 136.529 295.233C136.25 294.954 136.111 294.611 136.111 294.205C136.111 293.799 136.25 293.462 136.529 293.195C136.819 292.917 137.179 292.777 137.608 292.777C138.038 292.777 138.392 292.917 138.671 293.195C138.961 293.462 139.106 293.799 139.106 294.205C139.106 294.611 138.961 294.954 138.671 295.233C138.392 295.5 138.038 295.633 137.608 295.633ZM138.81 296.782V306.429H136.372V296.782H138.81ZM144.057 298.785V303.452C144.057 303.777 144.132 304.015 144.283 304.165C144.446 304.305 144.713 304.374 145.084 304.374H146.216V306.429H144.684C142.629 306.429 141.602 305.431 141.602 303.434V298.785H140.452V296.782H141.602V294.397H144.057V296.782H146.216V298.785H144.057ZM158.052 294.275V306.429H155.614V301.257H150.407V306.429H147.97V294.275H150.407V299.272H155.614V294.275H158.052ZM169.558 296.782V306.429H167.103V305.21C166.79 305.628 166.378 305.959 165.867 306.203C165.368 306.435 164.822 306.551 164.23 306.551C163.475 306.551 162.808 306.394 162.227 306.081C161.647 305.756 161.188 305.286 160.852 304.67C160.527 304.044 160.364 303.301 160.364 302.442V296.782H162.802V302.093C162.802 302.86 162.994 303.452 163.377 303.869C163.76 304.276 164.282 304.479 164.944 304.479C165.617 304.479 166.145 304.276 166.528 303.869C166.912 303.452 167.103 302.86 167.103 302.093V296.782H169.558ZM174.402 298.193C174.715 297.728 175.144 297.351 175.69 297.061C176.247 296.771 176.88 296.626 177.588 296.626C178.412 296.626 179.155 296.829 179.817 297.235C180.49 297.641 181.019 298.222 181.402 298.976C181.796 299.719 181.994 300.584 181.994 301.571C181.994 302.558 181.796 303.434 181.402 304.2C181.019 304.955 180.49 305.541 179.817 305.959C179.155 306.377 178.412 306.586 177.588 306.586C176.868 306.586 176.236 306.447 175.69 306.168C175.156 305.878 174.727 305.506 174.402 305.054V306.429H171.964V293.543H174.402V298.193ZM179.504 301.571C179.504 300.99 179.382 300.491 179.138 300.073C178.906 299.644 178.592 299.319 178.198 299.098C177.814 298.878 177.397 298.767 176.944 298.767C176.503 298.767 176.085 298.884 175.69 299.116C175.307 299.336 174.994 299.661 174.75 300.091C174.518 300.52 174.402 301.025 174.402 301.606C174.402 302.186 174.518 302.691 174.75 303.121C174.994 303.55 175.307 303.881 175.69 304.113C176.085 304.334 176.503 304.444 176.944 304.444C177.397 304.444 177.814 304.328 178.198 304.096C178.592 303.864 178.906 303.533 179.138 303.103C179.382 302.674 179.504 302.163 179.504 301.571Z" fill="white"/>
</g>
<defs>
<filter id="filter0_d_1654_11754" x="509.176" y="100.746" width="164.803" height="199.793" filterUnits="userSpaceOnUse" color-interpolation-filters="sRGB">
<feFlood flood-opacity="0" result="BackgroundImageFix"/>
<feColorMatrix in="SourceAlpha" type="matrix" values="0 0 0 0 0 0 0 0 0 0 0 0 0 0 0 0 0 0 127 0" result="hardAlpha"/>
<feOffset/>
<feGaussianBlur stdDeviation="7.98929"/>
<feComposite in2="hardAlpha" operator="out"/>
<feColorMatrix type="matrix" values="0 0 0 0 0 0 0 0 0 0 0 0 0 0 0 0 0 0 0.25 0"/>
<feBlend mode="normal" in2="BackgroundImageFix" result="effect1_dropShadow_1654_11754"/>
<feBlend mode="normal" in="SourceGraphic" in2="effect1_dropShadow_1654_11754" result="shape"/>
</filter>
<filter id="filter1_d_1654_11754" x="362.973" y="78.096" width="202.463" height="245.451" filterUnits="userSpaceOnUse" color-interpolation-filters="sRGB">
<feFlood flood-opacity="0" result="BackgroundImageFix"/>
<feColorMatrix in="SourceAlpha" type="matrix" values="0 0 0 0 0 0 0 0 0 0 0 0 0 0 0 0 0 0 127 0" result="hardAlpha"/>
<feOffset/>
<feGaussianBlur stdDeviation="9.81505"/>
<feComposite in2="hardAlpha" operator="out"/>
<feColorMatrix type="matrix" values="0 0 0 0 0 0 0 0 0 0 0 0 0 0 0 0 0 0 0.25 0"/>
<feBlend mode="normal" in2="BackgroundImageFix" result="effect1_dropShadow_1654_11754"/>
<feBlend mode="normal" in="SourceGraphic" in2="effect1_dropShadow_1654_11754" result="shape"/>
</filter>
<filter id="filter2_d_1654_11754" x="191.597" y="58.5008" width="234" height="283.683" filterUnits="userSpaceOnUse" color-interpolation-filters="sRGB">
<feFlood flood-opacity="0" result="BackgroundImageFix"/>
<feColorMatrix in="SourceAlpha" type="matrix" values="0 0 0 0 0 0 0 0 0 0 0 0 0 0 0 0 0 0 127 0" result="hardAlpha"/>
<feOffset/>
<feGaussianBlur stdDeviation="11.3439"/>
<feComposite in2="hardAlpha" operator="out"/>
<feColorMatrix type="matrix" values="0 0 0 0 0 0 0 0 0 0 0 0 0 0 0 0 0 0 0.25 0"/>
<feBlend mode="normal" in2="BackgroundImageFix" result="effect1_dropShadow_1654_11754"/>
<feBlend mode="normal" in="SourceGraphic" in2="effect1_dropShadow_1654_11754" result="shape"/>
</filter>
<filter id="filter3_d_1654_11754" x="15.455" y="34.2787" width="273.783" height="331.914" filterUnits="userSpaceOnUse" color-interpolation-filters="sRGB">
<feFlood flood-opacity="0" result="BackgroundImageFix"/>
<feColorMatrix in="SourceAlpha" type="matrix" values="0 0 0 0 0 0 0 0 0 0 0 0 0 0 0 0 0 0 127 0" result="hardAlpha"/>
<feOffset/>
<feGaussianBlur stdDeviation="13.2725"/>
<feComposite in2="hardAlpha" operator="out"/>
<feColorMatrix type="matrix" values="0 0 0 0 0 0 0 0 0 0 0 0 0 0 0 0 0 0 0.25 0"/>
<feBlend mode="normal" in2="BackgroundImageFix" result="effect1_dropShadow_1654_11754"/>
<feBlend mode="normal" in="SourceGraphic" in2="effect1_dropShadow_1654_11754" result="shape"/>
</filter>
<linearGradient id="paint0_linear_1654_11754" x1="15338.8" y1="1422.45" x2="9282.36" y2="9118.34" gradientUnits="userSpaceOnUse">
<stop offset="0.18" stop-color="#0052CC"/>
<stop offset="1" stop-color="#2684FF"/>
</linearGradient>
<clipPath id="clip0_1654_11754">
<rect width="66" height="59.5584" fill="white" transform="translate(558.982 155.779)"/>
</clipPath>
</defs>
</svg>
