<svg width="70" height="70" viewBox="0 0 70 70" fill="none" xmlns="http://www.w3.org/2000/svg">
<g id="Group 16257">
<path id="Vector" d="M32.1332 38.7923H27.355C26.8743 38.7923 26.4837 39.1829 26.4837 39.6637V44.1513C26.4837 44.632 26.8743 45.0227 27.355 45.0227H32.1332C32.6139 45.0227 33.0045 44.632 33.0045 44.1513V39.6637C33.0045 39.1829 32.6139 38.7923 32.1332 38.7923ZM31.2618 43.2799H28.2264V40.5351H31.2618V43.2799ZM29.4217 24.654L28.5939 29.2738C28.5183 29.695 28.1509 29.9913 27.737 29.9913C27.6862 29.9913 27.6339 29.9869 27.5816 29.9782C27.1082 29.894 26.793 29.4408 26.8772 28.9674L27.705 24.3476C27.7907 23.8741 28.2424 23.559 28.7159 23.6432C29.1908 23.7274 29.5059 24.1806 29.4217 24.654ZM44.8845 21.4444C44.7305 21.1699 44.44 21 44.1249 21H44.1205L25.5411 21.0915C25.2289 21.0929 24.9428 21.2614 24.7874 21.5315L19.1146 31.5002C19.0333 31.644 18.9941 31.8067 19.0013 31.9722C19.0943 33.9517 20.4624 35.5812 22.3097 36.1186V48.2178C22.3097 48.6985 22.7004 49.0892 23.1811 49.0892H46.0565C46.5372 49.0892 46.9279 48.6985 46.9279 48.2178V36.258C49.0424 35.9588 50.5935 34.3017 50.7155 32.0986C50.7242 31.933 50.6864 31.7689 50.6051 31.6237L44.8845 21.4444ZM40.9618 47.3464H36.8169V40.8255H40.9618V47.3464ZM45.1851 47.3464H42.7045V39.9541C42.7045 39.4734 42.3139 39.0827 41.8331 39.0827H35.9455C35.4648 39.0827 35.0741 39.4734 35.0741 39.9541V47.3464H24.051V36.2885C25.3901 36.168 26.5461 35.465 27.2766 34.415C28.1611 35.5565 29.5902 36.3074 31.1688 36.3074C32.7155 36.3074 34.0952 35.5652 34.9434 34.4165C35.7828 35.5652 37.1552 36.3074 38.7005 36.3074C40.2109 36.3074 41.4991 35.5754 42.2776 34.3976C42.9834 35.2835 44.0189 35.9414 45.1836 36.1941V47.3464H45.1851ZM46.2337 34.5646C44.6129 34.5646 43.1315 33.3025 43.0633 31.8633C43.0415 31.4 42.661 31.034 42.1962 31.0326H42.1919C41.73 31.0326 41.3481 31.3942 41.3219 31.856C41.2508 33.1602 40.3997 34.5646 38.7005 34.5646C37.1582 34.5646 35.8932 33.3911 35.8235 31.8909C35.8017 31.4276 35.4212 31.0616 34.9564 31.0602H34.9535C34.4917 31.0602 34.1083 31.4218 34.0836 31.8836C34.0023 33.3621 32.6952 34.5631 31.1703 34.5631C29.5756 34.5631 28.1712 33.3388 28.103 31.8894C28.0812 31.4261 27.7007 31.0602 27.236 31.0587H27.233C26.7712 31.0587 26.3878 31.4203 26.3631 31.8822C26.2774 33.4347 25.1316 34.5617 23.64 34.5617C22.1688 34.5617 20.9503 33.5088 20.7659 32.1247L26.0552 22.8299L43.618 22.7442L48.9538 32.2394C48.7694 33.6206 47.6816 34.5646 46.2337 34.5646ZM42.6319 28.9892C42.7045 29.4655 42.3763 29.9085 41.9014 29.9811C41.8578 29.9884 41.8128 29.9913 41.7692 29.9913C41.3452 29.9913 40.9748 29.6819 40.9095 29.2506L40.1949 24.5364C40.1223 24.06 40.4505 23.6171 40.9255 23.5445C41.4004 23.4704 41.8448 23.7986 41.9174 24.275L42.6319 28.9892ZM35.928 24.4638L35.8641 29.1329C35.8583 29.6093 35.4691 29.9927 34.9928 29.9927C34.9884 29.9927 34.984 29.9927 34.9811 29.9927C34.5004 29.9869 34.1156 29.5904 34.1214 29.1097L34.1853 24.4405C34.1911 23.9642 34.5803 23.5808 35.0567 23.5808H35.0683C35.549 23.5866 35.9339 23.9816 35.928 24.4638Z" fill="white"/>
<g id="Vector_2">
<path d="M31.2169 3.94448C30.8959 4.30175 30.925 4.85363 31.2837 5.17459C31.6409 5.49555 32.1928 5.4665 32.5152 5.10778L34.2754 3.14571V10.0878C34.2754 10.5685 34.6661 10.9591 35.1468 10.9591C35.6275 10.9591 36.0182 10.5685 36.0182 10.0878V3.1094L37.8859 5.14264C38.0573 5.32999 38.2925 5.42439 38.5278 5.42439C38.7384 5.42439 38.9504 5.34887 39.1174 5.19492C39.4718 4.8696 39.4951 4.31772 39.1697 3.96336L35.7887 0.281749C35.6232 0.101662 35.3908 0 35.1468 0H35.141C34.8956 0.00145231 34.6618 0.106019 34.4976 0.28901L31.2169 3.94448Z" fill="white"/>
<path d="M69.722 35.5236C69.9021 35.3551 70.0023 35.1198 69.9994 34.8744C69.9965 34.6289 69.889 34.3951 69.7031 34.231L66.0215 30.9793C65.6614 30.6612 65.1095 30.6961 64.7914 31.0562C64.4734 31.4164 64.5082 31.9683 64.8684 32.2864L66.8377 34.0248L59.9044 34.0843C59.4222 34.0887 59.0359 34.4823 59.0403 34.963C59.0446 35.4422 59.4339 35.8271 59.9117 35.8271H59.9189L66.9031 35.7676L64.8771 37.657C64.5257 37.9852 64.5068 38.5371 64.835 38.8886C65.0064 39.073 65.2387 39.166 65.4726 39.166C65.6846 39.166 65.8981 39.089 66.0666 38.9321L69.722 35.5236Z" fill="white"/>
<path d="M59.932 59.5637C60.1019 59.3865 60.1905 59.1469 60.1745 58.9014L59.8507 53.9999C59.8187 53.5206 59.4034 53.1575 58.9241 53.188C58.4448 53.22 58.0803 53.6339 58.1122 54.1146L58.2851 56.7447L53.3211 51.8955C52.9754 51.56 52.425 51.5658 52.0881 51.91C51.7526 52.2556 51.7584 52.8061 52.1026 53.143L57.0942 58.0199L54.3348 57.9342C53.8526 57.9182 53.4518 58.2973 53.4373 58.778C53.4227 59.2587 53.8003 59.661 54.281 59.6755L59.277 59.8295H59.3046C59.5413 59.8295 59.7679 59.7336 59.932 59.5637Z" fill="white"/>
<path d="M36.0313 69.7008L39.2554 65.9945C39.5706 65.6314 39.5328 65.081 39.1668 64.7659C38.8038 64.4493 38.2533 64.4885 37.9382 64.8516L36.2157 66.8325L36.101 59.9006C36.0923 59.4199 35.7002 59.0379 35.2151 59.0438C34.7344 59.0525 34.351 59.449 34.3582 59.9297L34.473 66.9138L32.5675 64.9024C32.2364 64.5524 31.686 64.5378 31.336 64.869C30.986 65.2001 30.9714 65.7505 31.3026 66.1005L34.7402 69.7284C34.9057 69.9012 35.1338 70 35.3734 70H35.3923C35.6377 69.9956 35.8701 69.8867 36.0313 69.7008Z" fill="white"/>
<path d="M3.17127 36.4661L10.1032 36.3005C10.5839 36.2889 10.9644 35.8895 10.9557 35.4059C10.944 34.9252 10.5447 34.5403 10.0639 34.5563L3.08267 34.7233L5.07815 32.8048C5.4238 32.4723 5.43542 31.9204 5.10139 31.5733C4.76881 31.2276 4.21693 31.216 3.86983 31.55L0.268093 35.0152C0.0909109 35.1866 -0.00639404 35.4233 0.000867528 35.6688C0.00667678 35.9142 0.117053 36.1451 0.304401 36.3049L4.03539 39.5C4.1995 39.6409 4.40137 39.7091 4.60179 39.7091C4.84723 39.7091 5.09122 39.606 5.26405 39.4041C5.57629 39.0382 5.53418 38.4892 5.1682 38.1755L3.17127 36.4661Z" fill="white"/>
<path d="M9.68198 10.8241C9.51351 11.0042 9.42928 11.2453 9.44961 11.4907L9.85045 16.3879C9.88676 16.8425 10.2687 17.1881 10.7175 17.1881C10.7394 17.1881 10.7613 17.1868 10.7845 17.1855L10.7886 17.1852C11.2679 17.146 11.6252 16.7248 11.586 16.2456L11.3725 13.6314L16.4105 18.3906C16.579 18.5504 16.794 18.6288 17.0089 18.6288C17.2398 18.6288 17.4707 18.5373 17.6421 18.3558C17.9732 18.0058 17.9573 17.4553 17.6073 17.1242L12.5285 12.3258L15.3024 12.3679H15.3155C15.7904 12.3679 16.1796 11.9859 16.1869 11.5096C16.1942 11.0289 15.8093 10.6324 15.3286 10.6251L10.3312 10.5481C10.0857 10.5394 9.85045 10.644 9.68198 10.8241Z" fill="white"/>
</g>
<g id="Vector_3">
<path d="M51.6806 16.7998C51.3408 17.1425 51.3437 17.6944 51.685 18.0328C51.8549 18.2013 52.0771 18.2855 52.2979 18.2841C52.5215 18.2841 52.7466 18.1984 52.9166 18.027L57.8312 13.0717L57.7252 15.8326C57.7063 16.3133 58.081 16.7185 58.5617 16.7373H58.5966C59.0628 16.7373 59.4491 16.3685 59.4665 15.8994L59.6597 10.9049C59.6698 10.6594 59.5754 10.4227 59.3997 10.2499C59.224 10.077 58.9843 9.987 58.7389 10.0015L53.8344 10.2862C53.3537 10.3138 52.9877 10.7262 53.0153 11.2069C53.0429 11.6877 53.4583 12.0536 53.9361 12.026L56.5662 11.8736L51.6806 16.7998Z" fill="#53DBEE"/>
<path d="M17.8882 53.4474C18.2223 53.1003 18.2107 52.5485 17.8636 52.2159C17.515 51.8833 16.9646 51.8949 16.6334 52.2391L11.7958 57.2801L11.8597 54.5076C11.8713 54.0255 11.4894 53.6275 11.0086 53.6159H10.9883C10.5163 53.6159 10.1285 53.9921 10.1169 54.467L10.0007 59.4629C9.99492 59.7098 10.0922 59.9451 10.2709 60.115C10.4321 60.269 10.6485 60.3546 10.8707 60.3546C10.8912 60.3546 10.9104 60.3534 10.9307 60.352L10.9346 60.3517L15.8332 59.9916C16.3125 59.9567 16.6727 59.5384 16.6378 59.0592C16.6029 58.5799 16.1847 58.2168 15.7054 58.2546L13.0884 58.4478L17.8882 53.4474Z" fill="#53DBEE"/>
</g>
</g>
</svg>
