<svg width="164" height="117" viewBox="0 0 164 117" fill="none" xmlns="http://www.w3.org/2000/svg">
  <path d="M126.8 117c-5.6 0-10.8-1-15.4-2.7-4.6-2-8.6-4.6-11.8-7.9a37.3 37.3 0 0 1-7.7-12.3 46 46 0 0 1-2.7-16c0-6.1 1-12.5 3-19.1 2-6.6 5-13.3 8.9-20 3.8-6.8 8.4-13.4 13.8-20 5.6-6.6 11.8-13 18.8-19l17 14.4-8.9 10.4A155 155 0 0 0 128.7 45c-1.8 3.6-3.4 7.3-4.9 11.3L164 78a39.7 39.7 0 0 1-11 28.2 36.1 36.1 0 0 1-26.2 10.7Zm-89.3 0c-5.6 0-10.7-1-15.3-2.7-4.7-2-8.6-4.6-11.9-7.9a37.3 37.3 0 0 1-7.6-12.3A46 46 0 0 1 0 78C0 72 1 65.6 3 59c2-6.6 5-13.3 8.8-20 3.9-6.8 8.5-13.4 14-20 5.4-6.6 11.7-13 18.7-19l17 14.4a155 155 0 0 0-22 30.6 113 113 0 0 0-5 11.3L74.9 78a39.7 39.7 0 0 1-11.1 28.2A36.1 36.1 0 0 1 37.5 117Z" fill="#2C3249"/>
</svg>
