<svg width="1000" height="1000" viewBox="0 0 1000 1000" fill="none" xmlns="http://www.w3.org/2000/svg">
<path opacity="0.4" d="M175.833 498.75C175.833 677.092 320.408 821.667 498.75 821.667H821.667V498.75C821.667 320.408 677.092 175.833 498.75 175.833C320.408 175.833 175.833 320.408 175.833 498.75Z" stroke="white" stroke-opacity="0.3" stroke-miterlimit="10"/>
<path opacity="0.3" d="M115.833 499.167C115.833 710.876 287.457 882.5 499.167 882.5H882.5V499.167C882.5 287.457 710.876 115.833 499.167 115.833C287.457 115.833 115.833 287.457 115.833 499.167Z" stroke="white" stroke-opacity="0.27" stroke-miterlimit="10"/>
<path opacity="0.2" d="M62.5 500C62.5 741.625 258.375 937.5 500 937.5H937.5V500C937.5 258.375 741.625 62.5 500 62.5C258.375 62.5 62.5 258.375 62.5 500Z" stroke="white" stroke-opacity="0.27" stroke-miterlimit="10"/>
<path opacity="0.1" d="M7.5 500C7.5 772 228 992.5 500 992.5H992.5V500C992.5 228 772 7.5 500 7.5C228 7.5 7.5 228 7.5 500Z" stroke="white" stroke-opacity="0.27" stroke-miterlimit="10"/>
<path d="M721.757 117.64C719.332 124.606 711.817 128.239 704.846 125.813C697.876 123.387 694.24 115.873 696.664 108.907C699.089 101.94 706.604 98.3078 713.575 100.734C720.312 103.079 724.181 110.673 721.757 117.64Z" fill="#20A4F3"/>
<path d="M196.535 730.46C195.722 732.793 193.205 734.01 190.87 733.198C188.535 732.385 187.317 729.868 188.129 727.534C188.941 725.2 191.459 723.983 193.794 724.796C196.051 725.582 197.347 728.126 196.535 730.46Z" fill="white"/>
<path d="M647.481 942.438C645.493 948.149 639.332 951.127 633.618 949.138C627.904 947.15 624.923 940.99 626.911 935.279C628.898 929.569 635.059 926.591 640.773 928.579C646.297 930.502 649.468 936.728 647.481 942.438Z" fill="#FFBD70"/>
<path d="M820.365 434.274C819.466 437.628 816.063 439.592 812.707 438.693C809.351 437.793 807.386 434.391 808.284 431.037C809.183 427.683 812.587 425.719 815.942 426.618C819.186 427.488 821.264 430.92 820.365 434.274Z" fill="#8DD9B9"/>
<path d="M222.785 242.592C228.726 242.236 233.253 237.133 232.895 231.194C232.537 225.255 227.431 220.729 221.489 221.084C215.547 221.44 211.021 226.543 211.379 232.482C211.736 238.421 216.843 242.948 222.785 242.592Z" fill="#F85B6E"/>
</svg>
