<svg width="44" height="21" viewBox="0 0 44 21" fill="none" xmlns="http://www.w3.org/2000/svg">
<path fill-rule="evenodd" clip-rule="evenodd" d="M16.0143 20.1803H18.8285H18.8419V4.38867H16.3627V14.5566C16.3627 15.5561 16.4029 16.2757 16.4699 16.6888H16.4297C16.3359 16.5156 16.1483 16.1824 15.8401 15.716L8.68397 4.38867H5.69556V20.1803H8.16133V9.82579C8.16133 8.71971 8.13453 7.98676 8.08093 7.65361H8.14793C8.26854 7.97344 8.42935 8.27994 8.61697 8.57312L16.0143 20.1803ZM0.455632 19.9936C0.750452 20.2734 1.12568 20.42 1.55451 20.42C1.99674 20.42 2.37197 20.2868 2.66679 19.9936C2.97501 19.6871 3.13582 19.3406 3.13582 18.9408C3.13582 18.5277 2.97501 18.1812 2.66679 17.888C2.35856 17.5948 1.99674 17.4483 1.55451 17.4483C1.12568 17.4483 0.763853 17.5948 0.455632 17.888C0.14741 18.1812 0 18.5277 0 18.9408C0 19.3539 0.14741 19.7004 0.455632 19.9936ZM30.9292 20.1803H22.232V4.38867H30.5807V6.61416H24.8049V11.0918H30.1251V13.3039H24.8049V17.9681H30.9292V20.1803ZM38.836 6.61416H43.2852V4.38867H31.8274V6.61416H36.2631V20.1803H38.836V6.61416Z" fill="white"/>
</svg>
