<svg width="44" height="44" viewBox="0 0 44 44" fill="none" xmlns="http://www.w3.org/2000/svg">
<path d="M23.9376 27.2317L26.5209 16.8984H29.1042L31.6876 27.2317" stroke="#A787FF" stroke-width="1.2" stroke-miterlimit="10" stroke-linecap="round" stroke-linejoin="round"/>
<path d="M27.8126 16.8977V13.5394" stroke="#A787FF" stroke-width="1.2" stroke-miterlimit="10" stroke-linecap="round" stroke-linejoin="round"/>
<path d="M22.6108 9.01888C21.8065 10.6421 21.8064 12.5623 22.6108 14.1855" stroke="#A787FF" stroke-width="1.2" stroke-miterlimit="10" stroke-linecap="round" stroke-linejoin="round"/>
<path d="M33.0144 9.01888C33.8187 10.6421 33.8187 12.5624 33.0144 14.1855" stroke="#A787FF" stroke-width="1.2" stroke-miterlimit="10" stroke-linecap="round" stroke-linejoin="round"/>
<path d="M19.6255 6.43522C17.6403 9.58088 17.6403 13.6228 19.6256 16.7686" stroke="#A787FF" stroke-width="1.2" stroke-miterlimit="10" stroke-linecap="round" stroke-linejoin="round"/>
<path d="M35.9996 6.43522C37.9849 9.58095 37.9848 13.6229 35.9996 16.7686" stroke="#A787FF" stroke-width="1.2" stroke-miterlimit="10" stroke-linecap="round" stroke-linejoin="round"/>
<path d="M25.8751 11.6025C25.8751 12.6726 26.7425 13.54 27.8126 13.54C28.8826 13.54 29.7501 12.6726 29.7501 11.6025C29.7501 10.5325 28.8826 9.66504 27.8126 9.66504C26.7425 9.66504 25.8751 10.5325 25.8751 11.6025Z" stroke="#A787FF" stroke-width="1.2" stroke-miterlimit="10" stroke-linecap="round" stroke-linejoin="round"/>
<path d="M30.3959 22.065L23.9376 27.2317" stroke="#A787FF" stroke-width="1.2" stroke-miterlimit="10" stroke-linecap="round" stroke-linejoin="round"/>
<path d="M30.3959 22.0647L25.7292 20.0647" stroke="#A787FF" stroke-width="1.2" stroke-miterlimit="10" stroke-linecap="round" stroke-linejoin="round"/>
<path d="M18.125 27.2314H37.5V37.5647H18.125V27.2314Z" stroke="white" stroke-width="1.2" stroke-miterlimit="10" stroke-linecap="round" stroke-linejoin="round"/>
<path d="M6.5 20.773H18.125V37.5647H6.5V20.773Z" stroke="white" stroke-width="1.2" stroke-miterlimit="10" stroke-linecap="round" stroke-linejoin="round"/>
<path d="M33.625 32.398H37.5V37.5647H33.625V32.398Z" stroke="white" stroke-width="1.2" stroke-miterlimit="10" stroke-linecap="round" stroke-linejoin="round"/>
<path d="M29.75 32.398H33.625V37.5647H29.75V32.398Z" stroke="white" stroke-width="1.2" stroke-miterlimit="10" stroke-linecap="round" stroke-linejoin="round"/>
<path d="M25.875 32.398H29.75V37.5647H25.875V32.398Z" stroke="white" stroke-width="1.2" stroke-miterlimit="10" stroke-linecap="round" stroke-linejoin="round"/>
<path d="M22 32.398H25.875V37.5647H22V32.398Z" stroke="white" stroke-width="1.2" stroke-miterlimit="10" stroke-linecap="round" stroke-linejoin="round"/>
<path d="M10.375 32.398H14.25V37.5647H10.375V32.398Z" stroke="white" stroke-width="1.2" stroke-miterlimit="10" stroke-linecap="round" stroke-linejoin="round"/>
<path d="M14.25 28.5227H10.375" stroke="white" stroke-width="1.2" stroke-miterlimit="10" stroke-linecap="round" stroke-linejoin="round"/>
<path d="M14.25 24.6477H10.375" stroke="white" stroke-width="1.2" stroke-miterlimit="10" stroke-linecap="round" stroke-linejoin="round"/>
</svg>
