<svg width="60" height="60" viewBox="0 0 60 60" fill="none" xmlns="http://www.w3.org/2000/svg">
<rect x="12.3906" y="11.5" width="35.2188" height="37" rx="0.5" stroke="white"/>
<path d="M12.4846 18.4214H47.219" stroke="white"/>
<path d="M12.4846 41.2817H47.219" stroke="white"/>
<path d="M14.8594 15.1562H16.3437" stroke="white" stroke-linecap="round"/>
<path d="M18.4219 15.1562H19.9062" stroke="white" stroke-linecap="round"/>
<path d="M21.9844 15.1562H23.4687" stroke="white" stroke-linecap="round"/>
<path d="M21.3906 28.2183H29.1094" stroke="#A787FF" stroke-linecap="round"/>
<path d="M31.4844 28.2183H35.0469" stroke="#A787FF" stroke-linecap="round"/>
<path d="M37.4219 28.2183H40.9844" stroke="#A787FF" stroke-linecap="round"/>
<path d="M23.1719 25.2505H27.3281" stroke="#A787FF" stroke-linecap="round"/>
<path d="M19.6094 46.0312H20.7969" stroke="#A787FF" stroke-linecap="round"/>
<path d="M22.5781 46.0312H23.7656" stroke="#A787FF" stroke-linecap="round"/>
<path d="M25.5469 46.0312H26.7344" stroke="#A787FF" stroke-linecap="round"/>
<path d="M28.5156 46.0312H29.7031" stroke="#A787FF" stroke-linecap="round"/>
<path d="M29.7031 25.2505H42.1719" stroke="#A787FF" stroke-linecap="round"/>
<path d="M35.6409 31.187L33.498 33.1156C33.0566 33.5128 33.0566 34.2049 33.498 34.6022L35.6409 36.5308" stroke="white" stroke-linecap="round"/>
<path d="M41.5781 31.187L43.3626 33.1945C43.6994 33.5734 43.6994 34.1444 43.3626 34.5233L41.5781 36.5308" stroke="white" stroke-linecap="round"/>
<path d="M39.7969 31.187L37.4219 36.5308" stroke="white" stroke-linecap="round"/>
<path d="M17.2344 23.469L14.8594 29.4065" stroke="white" stroke-linecap="round"/>
<path d="M19.6094 23.4688L17.2344 29.4062" stroke="white" stroke-linecap="round"/>
<path d="M18.125 43.6558L17.2344 46.0308" stroke="white" stroke-linecap="round"/>
</svg>
