<svg width="45" height="44" viewBox="0 0 45 44" fill="none" xmlns="http://www.w3.org/2000/svg">
<path d="M37.9942 31.8178L28.1306 35.6188C28.0266 35.6589 27.9202 35.7003 27.8117 35.7425C26.5804 36.2217 25.1157 36.7916 23.7188 36.7916C23.313 36.7916 22.913 36.7436 22.5261 36.6312L17.2705 35.1053C16.6283 34.9188 16.0235 34.9703 15.422 35.2628L13.7752 36.0635L14.0618 36.7517C14.2257 37.1454 14.2272 37.5777 14.0658 37.969C13.9043 38.3603 13.5985 38.6658 13.2046 38.8295L10.6779 39.8787C10.4795 39.961 10.2737 40 10.0712 40C9.44845 40 8.85605 39.6317 8.60223 39.0223L4.32355 28.7483C4.15958 28.3546 4.15812 27.9222 4.31961 27.531C4.48103 27.1396 4.78688 26.8341 5.18077 26.6705L7.70747 25.6213C8.51587 25.2858 9.4467 25.67 9.78309 26.4776L10.0366 27.0863C11.2428 26.5163 12.5199 25.9086 13.8109 25.2773C15.6031 24.4009 17.0133 23.8038 18.7643 24.2098C17.6724 20.9454 18.4581 17.078 20.9337 13.8529L24.9811 8.58023L22.7888 4.76423C22.6981 4.60639 22.6984 4.41211 22.7896 4.25455C22.8807 4.097 23.049 4 23.2311 4H32.6823C32.8643 4 33.0326 4.097 33.1238 4.25455C33.215 4.41211 33.2153 4.60639 33.1246 4.76423L30.9323 8.58023L34.9797 13.8528C36.5368 15.8815 37.4711 18.2747 37.6105 20.5917C37.7319 22.6106 37.2659 24.4925 36.2558 26.1071C37.0533 25.998 37.7485 26.025 38.3326 26.1897C39.1915 26.4319 39.8063 26.9837 40.0637 27.7436C40.5774 29.2606 39.591 31.2024 37.9942 31.8178ZM25.8881 8.11092H30.0252L31.801 5.02024H24.1125L25.8881 8.11092ZM20.0366 24.6587C20.5638 24.9042 21.128 25.2351 21.7439 25.6668L26.4216 26.9201C27.1278 27.1094 27.7193 27.5643 28.087 28.2012C28.1187 28.2561 28.1483 28.3117 28.176 28.368L34.7601 26.4364C34.7611 26.4361 34.7621 26.4358 34.7632 26.4355C37.4285 23.2043 37.1983 18.4187 34.1704 14.474L30.069 9.13109H25.8444L21.743 14.474C19.2744 17.6901 18.6296 21.5735 20.0366 24.6587ZM13.1199 37.144L8.84133 26.8699C8.75053 26.6519 8.53861 26.5201 8.31583 26.5201C8.24332 26.5201 8.16972 26.534 8.09874 26.5635L5.57211 27.6127C5.43007 27.6717 5.32018 27.7808 5.26275 27.9201C5.20533 28.0592 5.20628 28.2141 5.26538 28.356L9.54398 38.63C9.6643 38.919 9.99741 39.0563 10.2866 38.9364L12.8133 37.8872C12.9553 37.8282 13.0651 37.719 13.1226 37.5799C13.18 37.4407 13.179 37.2859 13.1199 37.144ZM39.0972 28.0709C38.7416 27.0208 37.2276 26.7758 35.0473 27.4154L28.4487 29.3512C28.4742 29.6609 28.4463 29.9755 28.3638 30.2839C28.1745 30.9901 27.7195 31.5816 27.0827 31.9493C26.4458 32.3171 25.706 32.4151 24.9999 32.226L18.667 30.5292C18.3949 30.4562 18.2334 30.1765 18.3063 29.9044C18.3791 29.6321 18.6594 29.471 18.931 29.5437L25.264 31.2406C25.7069 31.3593 26.1716 31.2972 26.5726 31.0658C26.9735 30.8344 27.2596 30.463 27.3783 30.0199C27.497 29.5768 27.4349 29.1122 27.2035 28.7114C26.9721 28.3105 26.6007 28.0244 26.1576 27.9057L21.3923 26.6288C21.3338 26.6132 21.2785 26.5872 21.2293 26.5522C18.2254 24.4221 16.7734 24.9644 14.2592 26.1939C12.9474 26.8353 11.6515 27.4517 10.4293 28.0293L13.3823 35.1202L14.9759 34.3454C15.8035 33.943 16.6714 33.8691 17.555 34.1256L22.8106 35.6515C24.1974 36.0546 25.9964 35.3543 27.4417 34.7917C27.5513 34.7491 27.6588 34.7073 27.7639 34.6668L37.6275 30.8658C38.7061 30.4501 39.4342 29.0658 39.0972 28.0709Z" fill="white"/>
<path d="M27.3073 14.279C26.0948 14.5364 25.1879 15.5393 25.1878 16.7339C25.1878 18.1228 26.4137 19.2526 27.9207 19.2524C28.7626 19.2524 29.4476 19.8384 29.4476 20.5586C29.4476 21.2787 28.7625 21.8647 27.9207 21.8647C27.3468 21.8647 27.0633 21.6926 26.5525 21.208C26.3103 20.9784 25.9287 20.9893 25.7001 21.233C25.4716 21.4765 25.4827 21.8603 25.7249 22.0901C26.1624 22.5052 26.6204 22.8863 27.3294 23.0234L27.343 23.5943C27.351 23.9241 27.6193 24.1859 27.9456 24.1859L27.9604 24.1858C28.2932 24.1776 28.5566 23.8998 28.5486 23.565L28.5354 23.013C29.7471 22.7552 30.6534 21.7526 30.6534 20.5586C30.6534 19.1697 29.4274 18.0398 27.9206 18.0398C27.0786 18.0398 26.3936 17.4539 26.3936 16.7338C26.3937 16.0136 27.0788 15.4276 27.9205 15.4275C28.3448 15.4276 29.1347 15.7756 29.3062 16.0379C29.489 16.3178 29.8627 16.3955 30.1411 16.2117C30.4195 16.0278 30.4968 15.6519 30.3139 15.3721C29.9621 14.8337 29.1742 14.4512 28.514 14.2943L28.4981 13.6278C28.4901 13.2932 28.2168 13.0293 27.8808 13.0363C27.548 13.0443 27.2845 13.3222 27.2925 13.6569L27.3073 14.279Z" fill="#A787FF"/>
</svg>
