<svg width="61" height="61" viewBox="0 0 61 61" fill="none" xmlns="http://www.w3.org/2000/svg">
<path d="M35.5 47.5V48H35V47.5H35.5ZM41.5 47C41.7761 47 42 47.2239 42 47.5C42 47.7761 41.7761 48 41.5 48V47ZM36 41.5V47.5H35V41.5H36ZM35.5 47H41.5V48H35.5V47Z" fill="white"/>
<path d="M24.5 47.5V48H25V47.5H24.5ZM18.5 47C18.2239 47 18 47.2239 18 47.5C18 47.7761 18.2239 48 18.5 48V47ZM24 41.5V47.5H25V41.5H24ZM24.5 47H18.5V48H24.5V47Z" fill="white"/>
<path d="M30 47.5C30 47.7761 30.2239 48 30.5 48C30.7761 48 31 47.7761 31 47.5H30ZM30 41.5V47.5H31V41.5H30Z" fill="white"/>
<circle cx="19.0488" cy="47.5" r="1" fill="white"/>
<circle cx="41.0488" cy="47.5" r="1" fill="white"/>
<circle cx="30.5" cy="47.5" r="1" fill="white"/>
<path fill-rule="evenodd" clip-rule="evenodd" d="M20.3516 28.3223C20.3516 28.2372 20.3824 28.1709 20.4196 28.1297C20.4566 28.0887 20.4926 28.0781 20.5174 28.0781H40.303C40.3294 28.0781 40.3646 28.0889 40.401 28.1299C40.4387 28.1723 40.4688 28.2398 40.4688 28.3223V34.081C40.4688 34.1619 40.4398 34.2284 40.4032 34.2709C40.3704 34.268 40.3371 34.2666 40.3031 34.2666H20.5175C20.4836 34.2666 20.4501 34.2681 20.4173 34.271C20.3806 34.2284 20.3516 34.162 20.3516 34.081V28.3223ZM19.5645 34.7957C19.4276 34.5854 19.3516 34.3336 19.3516 34.081V28.3223C19.3516 27.6817 19.8307 27.0781 20.5174 27.0781H40.303C41.0042 27.0781 41.4688 27.6979 41.4688 28.3223V34.081C41.4688 34.3336 41.3928 34.5854 41.2558 34.7958C41.3929 35.0062 41.469 35.2581 41.469 35.5108V41.2695C41.469 41.8939 41.0043 42.5136 40.3031 42.5136H20.5175C19.8163 42.5136 19.3517 41.8939 19.3517 41.2695V35.5108C19.3517 35.2544 19.4284 35.0039 19.5645 34.7957ZM20.4173 35.3209C20.3812 35.3623 20.3517 35.4275 20.3517 35.5108V41.2695C20.3517 41.352 20.3819 41.4194 20.4195 41.4618C20.456 41.5029 20.4912 41.5136 20.5175 41.5136H40.3031C40.3295 41.5136 40.3647 41.5029 40.4012 41.4618C40.4388 41.4194 40.469 41.352 40.469 41.2695V35.5108C40.469 35.4298 40.44 35.3634 40.4033 35.3209C40.3705 35.3237 40.337 35.3252 40.303 35.3252H20.5174C20.4835 35.3252 20.4501 35.3237 20.4173 35.3209ZM21.6594 30.8466C21.6594 30.5705 21.8833 30.3466 22.1594 30.3466H23.8542C24.1304 30.3466 24.3542 30.5705 24.3542 30.8466C24.3542 31.1227 24.1304 31.3466 23.8542 31.3466H22.1594C21.8833 31.3466 21.6594 31.1227 21.6594 30.8466ZM22.1594 37.5843C21.8833 37.5843 21.6594 37.8081 21.6594 38.0843C21.6594 38.3604 21.8833 38.5843 22.1594 38.5843H23.8542C24.1304 38.5843 24.3542 38.3604 24.3542 38.0843C24.3542 37.8081 24.1304 37.5843 23.8542 37.5843H22.1594ZM24.6558 30.8466C24.6558 30.5705 24.8797 30.3466 25.1558 30.3466H38.7901C39.0662 30.3466 39.2901 30.5705 39.2901 30.8466C39.2901 31.1227 39.0662 31.3466 38.7901 31.3466H25.1558C24.8797 31.3466 24.6558 31.1227 24.6558 30.8466ZM25.1558 37.5843C24.8797 37.5843 24.6558 37.8081 24.6558 38.0843C24.6558 38.3604 24.8797 38.5843 25.1558 38.5843H38.7901C39.0662 38.5843 39.2901 38.3604 39.2901 38.0843C39.2901 37.8081 39.0662 37.5843 38.7901 37.5843H25.1558Z" fill="#A787FF"/>
<path fill-rule="evenodd" clip-rule="evenodd" d="M16.4688 19.5C17.6696 19.5 18.8123 19.749 19.848 20.1982C20.1571 20.3323 20.4567 20.4842 20.7455 20.6527C20.8628 20.3365 20.9925 20.0263 21.1341 19.7227C23.1237 15.4566 27.451 12.5 32.4688 12.5C37.0085 12.5 40.983 14.9201 43.1725 18.5404C43.4552 18.5137 43.7416 18.5 44.0312 18.5C49.0018 18.5 53.0312 22.5294 53.0312 27.5C53.0312 32.154 49.4987 35.9829 44.9688 36.4518V36.5H44.0312H43.9688H41.5V35.5H44.0312H44.4511L44.8658 35.4571C48.8914 35.0404 52.0312 31.6362 52.0312 27.5C52.0312 23.0817 48.4495 19.5 44.0312 19.5C43.7731 19.5 43.5181 19.5122 43.2667 19.536L42.6417 19.5952L42.3168 19.0579C40.3009 15.7246 36.6441 13.5 32.4688 13.5C27.5255 13.5 23.3083 16.6194 21.683 21.0005L21.2692 22.1159L20.2416 21.5164C19.1341 20.8704 17.8462 20.5 16.4688 20.5C12.3266 20.5 8.96875 23.8579 8.96875 28C8.96875 31.9937 12.0908 35.2589 16.0267 35.4872L16.247 35.5H16.4688H19.5V36.5H16.9688H16.4688H15.9688V36.4855C11.5071 36.2267 7.96875 32.5266 7.96875 28C7.96875 23.3056 11.7743 19.5 16.4688 19.5Z" fill="white"/>
</svg>
