<svg width="44" height="44" viewBox="0 0 44 44" fill="none" xmlns="http://www.w3.org/2000/svg">
<path d="M34.5854 8.91727H9.41459C8.08105 8.91727 7.00002 9.9983 7.00002 11.3319V13.3223H37V11.3319C37 9.9983 35.9189 8.91727 34.5854 8.91727Z" stroke="white" stroke-width="1.2" stroke-miterlimit="10" stroke-linecap="round" stroke-linejoin="round"/>
<path d="M7 13.3221V32.6684C7 34.002 8.08104 35.083 9.41463 35.083H34.5853C35.9189 35.083 37 34.002 37 32.6684V13.3221H7Z" stroke="white" stroke-width="1.2" stroke-miterlimit="10" stroke-linecap="round" stroke-linejoin="round"/>
<path d="M16.1071 31.6428V32.5479" stroke="white" stroke-width="1.2" stroke-miterlimit="10" stroke-linecap="round" stroke-linejoin="round"/>
<path d="M13.4286 32.0122L30.5714 32.0122" stroke="white" stroke-width="1.2" stroke-miterlimit="10" stroke-linecap="round" stroke-linejoin="round"/>
<path d="M30.5714 29.0044H13.4285V17.2672H30.5714V29.0044Z" stroke="#A787FF" stroke-width="1.2" stroke-miterlimit="10" stroke-linecap="round" stroke-linejoin="round"/>
<path d="M23.782 23.772L21.3783 25.0584C20.8976 25.3156 20.3163 24.9674 20.3163 24.4222V21.8494C20.3163 21.3041 20.8976 20.9559 21.3783 21.2132L23.782 22.4996C24.2902 22.7715 24.2902 23.5 23.782 23.772Z" stroke="#A787FF" stroke-width="1.2" stroke-miterlimit="10" stroke-linecap="round" stroke-linejoin="round"/>
</svg>
