<svg width="60" height="60" viewBox="0 0 60 60" fill="none" xmlns="http://www.w3.org/2000/svg">
<path d="M35.062 24.4689V16.3101" stroke="#A787FF" stroke-miterlimit="10" stroke-linecap="round" stroke-linejoin="round"/>
<path d="M21.7024 31.0517H12.6946V10.5001H29.3869" stroke="#A787FF" stroke-miterlimit="10" stroke-linecap="round" stroke-linejoin="round"/>
<path d="M35.0619 15.86V16.3105H29.3867V10.5001H29.702L35.0619 15.86Z" stroke="#A787FF" stroke-miterlimit="10" stroke-linecap="round" stroke-linejoin="round"/>
<path d="M26.4565 19.4408C26.4565 20.9812 25.7359 22.3595 24.6099 23.2423L21.4299 19.4408H26.4565Z" stroke="#A787FF" stroke-miterlimit="10" stroke-linecap="round" stroke-linejoin="round"/>
<path d="M24.6011 23.2416C23.7814 23.8902 22.7364 24.2775 21.6104 24.2775C18.9349 24.2775 16.7729 22.1066 16.7729 19.4401C16.7729 16.8277 18.8449 14.7018 21.4302 14.6027V19.4401L24.6011 23.2416Z" stroke="#A787FF" stroke-miterlimit="10" stroke-linecap="round" stroke-linejoin="round"/>
<path d="M26.4565 19.4401H21.4299V14.6027C21.493 14.6027 21.547 14.6027 21.6101 14.6027C24.2856 14.5937 26.4565 16.7647 26.4565 19.4401Z" stroke="#A787FF" stroke-miterlimit="10" stroke-linecap="round" stroke-linejoin="round"/>
<path d="M47.3056 38.5335C47.3056 40.6477 45.7423 42.3866 43.714 42.6731V48.3143C43.714 48.9664 43.1797 49.4999 42.5267 49.4999H36.7484C36.8573 49.1343 36.9067 48.7391 36.9067 48.3341C36.9067 46.0222 35.0268 44.1451 32.7115 44.1451C30.3963 44.1451 28.5164 46.0222 28.5164 48.3341C28.5164 48.7391 28.5757 49.1244 28.6747 49.4999H22.9261C22.2731 49.4999 21.7388 48.9664 21.7388 48.3143V42.6829C19.661 42.4359 18.0581 40.6675 18.0581 38.5335C18.0581 36.3995 19.661 34.6311 21.7388 34.3742V28.7428C21.7388 28.0907 22.2731 27.5572 22.9261 27.5572H28.546C28.6945 25.3837 30.515 23.6647 32.7313 23.6647C34.9477 23.6647 36.7583 25.3837 36.9166 27.5572H42.5366C43.1896 27.5572 43.7239 28.0907 43.7239 28.7428V34.3841C45.7423 34.6706 47.3056 36.4193 47.3056 38.5335Z" stroke="white" stroke-miterlimit="10" stroke-linecap="round" stroke-linejoin="round"/>
</svg>
