<svg width="44" height="44" viewBox="0 0 44 44" fill="none" xmlns="http://www.w3.org/2000/svg">
<path d="M17.913 22.4494C17.9492 22.8722 17.6958 23.2663 17.2962 23.4088L11.3199 25.5408C10.9261 25.6814 10.488 25.5204 10.2789 25.1582C10.0397 24.7439 10.1817 24.2143 10.5959 23.9751L15.4577 21.1682C16.4984 20.5673 17.8107 21.2521 17.913 22.4494Z" stroke="white" stroke-width="1.2" stroke-miterlimit="10" stroke-linecap="round" stroke-linejoin="round"/>
<path d="M25.7064 31.3118C27.4244 30.8015 28.9934 29.9455 30.3337 28.8249" stroke="#A787FF" stroke-width="1.2" stroke-miterlimit="10" stroke-linecap="round" stroke-linejoin="round"/>
<path d="M13.6665 28.8249C15.0061 29.9455 16.5759 30.8015 18.2938 31.3118" stroke="#A787FF" stroke-width="1.2" stroke-miterlimit="10" stroke-linecap="round" stroke-linejoin="round"/>
<path d="M9.3848 21.9998C9.13325 20.9903 9 19.9347 9 18.8473C9 13.4198 12.326 8.76901 17.0515 6.82226" stroke="#A787FF" stroke-width="1.2" stroke-miterlimit="10" stroke-linecap="round" stroke-linejoin="round"/>
<path d="M26.9485 6.82226C31.674 8.76901 35 13.4198 35 18.8473C35 19.9347 34.8668 20.9903 34.6152 21.9998" stroke="#A787FF" stroke-width="1.2" stroke-miterlimit="10" stroke-linecap="round" stroke-linejoin="round"/>
<path d="M25.5003 12.5344C27.8273 13.7837 29.41 16.2407 29.41 19.0669" stroke="#A787FF" stroke-width="1.2" stroke-miterlimit="10" stroke-linecap="round" stroke-linejoin="round"/>
<path d="M14.5901 19.0669C14.5901 16.2407 16.1728 13.7837 18.4998 12.5344" stroke="#A787FF" stroke-width="1.2" stroke-miterlimit="10" stroke-linecap="round" stroke-linejoin="round"/>
<path d="M13.8979 38.1523H30.1016" stroke="white" stroke-width="1.2" stroke-miterlimit="10" stroke-linecap="round" stroke-linejoin="round"/>
<path d="M23.95 38.1523L23.0907 21.1847" stroke="white" stroke-width="1.2" stroke-miterlimit="10" stroke-linecap="round" stroke-linejoin="round"/>
<path d="M20.9092 21.1841L20.0581 38.1436" stroke="white" stroke-width="1.2" stroke-miterlimit="10" stroke-linecap="round" stroke-linejoin="round"/>
<path d="M21.1 13.8134C20.7159 13.6332 20.5012 13.2169 20.5776 12.7994L21.7193 6.5578C21.7947 6.14648 22.1531 5.84761 22.5713 5.84761C23.0496 5.84761 23.4373 6.2354 23.4373 6.71367V12.3277C23.4373 13.5293 22.1881 14.3234 21.1 13.8134Z" stroke="white" stroke-width="1.2" stroke-miterlimit="10" stroke-linecap="round" stroke-linejoin="round"/>
<path d="M22 16.6555V13.9704" stroke="white" stroke-width="1.2" stroke-miterlimit="10" stroke-linecap="round" stroke-linejoin="round"/>
<path d="M19.9246 20.2491L17.5995 21.592" stroke="white" stroke-width="1.2" stroke-miterlimit="10" stroke-linecap="round" stroke-linejoin="round"/>
<path d="M26.9862 20.8913C27.3342 20.6486 27.8022 20.6711 28.1255 20.9459L32.96 25.0554C33.2786 25.3263 33.3582 25.7862 33.1491 26.1483C32.9099 26.5626 32.3803 26.7045 31.966 26.4653L27.1042 23.6584C26.0635 23.0575 26.0004 21.5786 26.9862 20.8913Z" stroke="white" stroke-width="1.2" stroke-miterlimit="10" stroke-linecap="round" stroke-linejoin="round"/>
<path d="M26.4005 21.592L24.0748 20.2491" stroke="white" stroke-width="1.2" stroke-miterlimit="10" stroke-linecap="round" stroke-linejoin="round"/>
<path d="M24.0638 20.2683C23.3918 21.4081 21.923 21.7874 20.7832 21.1154C19.6434 20.4435 19.2642 18.9747 19.9361 17.8349C20.608 16.6951 22.0768 16.3158 23.2166 16.9878C24.3564 17.6597 24.7357 19.1284 24.0638 20.2683Z" stroke="white" stroke-width="1.2" stroke-miterlimit="10" stroke-linecap="round" stroke-linejoin="round"/>
<path d="M21.9999 18.9381C21.9377 18.9381 21.8874 18.9884 21.8874 19.0506C21.8874 19.1127 21.9377 19.1631 21.9999 19.1631C22.062 19.1631 22.1124 19.1127 22.1124 19.0506C22.1124 18.9885 22.062 18.9381 21.9999 18.9381Z" fill="white" stroke="white" stroke-width="1.2"/>
</svg>
