<svg width="60" height="60" viewBox="0 0 60 60" fill="none" xmlns="http://www.w3.org/2000/svg">
<path d="M41.3733 41.9483V45.5604C41.3733 46.0797 41.0162 46.5 40.5698 46.5H8.03886C7.59247 46.5 7.23535 46.0797 7.23535 45.5604V14.5C7.23535 13.9477 7.68307 13.5 8.23535 13.5H40.3733C40.9256 13.5 41.3733 13.9477 41.3733 14.5V17.625" stroke="white" stroke-miterlimit="10" stroke-linecap="square" stroke-linejoin="round"/>
<path d="M51.6994 41.6235H20.0523C19.4593 41.6235 18.9873 41.1394 18.9873 40.5585V32.3169C18.9873 31.7239 19.4714 31.252 20.0523 31.252H51.6994C52.2924 31.252 52.7644 31.736 52.7644 32.3169V40.5585C52.7644 41.1394 52.2924 41.6235 51.6994 41.6235Z" stroke="#A787FF" stroke-miterlimit="10" stroke-linecap="round" stroke-linejoin="round"/>
<path d="M51.6994 28.3359H20.0523C19.4593 28.3359 18.9873 27.8518 18.9873 27.2709V19.0293C18.9873 18.4363 19.4714 17.9644 20.0523 17.9644H51.6994C52.2924 17.9644 52.7644 18.4484 52.7644 19.0293V27.2709C52.7644 27.8518 52.2924 28.3359 51.6994 28.3359Z" stroke="#A787FF" stroke-miterlimit="10" stroke-linecap="round" stroke-linejoin="round"/>
<path d="M11.1924 19.8523H13.9033" stroke="white" stroke-miterlimit="10" stroke-linecap="round" stroke-linejoin="round"/>
<path d="M11.1924 23.1072H13.9033" stroke="white" stroke-miterlimit="10" stroke-linecap="round" stroke-linejoin="round"/>
<path d="M22.6777 21.6416H25.3886" stroke="#A787FF" stroke-miterlimit="10" stroke-linecap="round" stroke-linejoin="round"/>
<path d="M22.6777 24.8621H25.3886" stroke="white" stroke-miterlimit="10" stroke-linecap="round" stroke-linejoin="round"/>
<path d="M22.6777 24.8621H25.3886" stroke="#A787FF" stroke-miterlimit="10" stroke-linecap="round" stroke-linejoin="round"/>
<path d="M27.2646 24.8621H29.9755" stroke="#A787FF" stroke-miterlimit="10" stroke-linecap="round" stroke-linejoin="round"/>
<path d="M31.2949 24.8621H49.2787" stroke="#A787FF" stroke-miterlimit="10" stroke-linecap="round" stroke-linejoin="round"/>
<path d="M27.4707 21.6416H49.2788" stroke="#A787FF" stroke-miterlimit="10" stroke-linecap="round" stroke-linejoin="round"/>
<path d="M11.1924 26.3508H13.9033" stroke="white" stroke-miterlimit="10" stroke-linecap="round" stroke-linejoin="round"/>
<path d="M25.1213 38.0336L22.9922 36.1679L25.1981 34.5217" stroke="#A787FF" stroke-miterlimit="10" stroke-linecap="round" stroke-linejoin="round"/>
<path d="M29.6862 38.0336L31.8153 36.1679L29.6094 34.5217" stroke="#A787FF" stroke-miterlimit="10" stroke-linecap="round" stroke-linejoin="round"/>
<path d="M26.6025 38.8898L28.0183 34.0061" stroke="#A787FF" stroke-miterlimit="10" stroke-linecap="round" stroke-linejoin="round"/>
</svg>
