<svg width="45" height="44" viewBox="0 0 45 44" fill="none" xmlns="http://www.w3.org/2000/svg">
<path d="M23.1192 17.1509V10.6217C23.1192 7.90353 20.9156 5.69998 18.1974 5.69998C15.4791 5.69998 13.2756 7.90353 13.2756 10.6217V17.1509" stroke="white" stroke-width="1.2" stroke-miterlimit="10"/>
<path d="M28.5735 23.8008L27.9773 13.596H8.41756L7.40712 30.893C7.26949 33.2488 9.14286 35.2349 11.5027 35.2349H24.112" stroke="white" stroke-width="1.2" stroke-miterlimit="10"/>
<path d="M26.4339 30.3017L29.002 33.2063L33.5769 28.4674" stroke="#A787FF" stroke-width="1.2" stroke-miterlimit="10"/>
<path d="M37.4 30.9729C37.4 35.0195 34.1197 38.2998 30.0731 38.2998C26.0265 38.2998 22.7461 35.0195 22.7461 30.9729C22.7461 26.9263 26.0265 23.646 30.0731 23.646C34.1197 23.646 37.4 26.9263 37.4 30.9729Z" stroke="#A787FF" stroke-width="1.2" stroke-miterlimit="10"/>
</svg>
