<svg width="60" height="60" viewBox="0 0 60 60" fill="none" xmlns="http://www.w3.org/2000/svg">
<path fill-rule="evenodd" clip-rule="evenodd" d="M17.5209 28.6152H21.6747C21.9296 28.6152 22.1363 28.8219 22.1363 29.0768V33.2306C22.1363 33.4855 21.9296 33.6922 21.6747 33.6922C21.4198 33.6922 21.2132 33.4855 21.2132 33.2306V30.191L12.7703 38.6339C12.5901 38.8141 12.2978 38.8141 12.1176 38.6339C11.9374 38.4537 11.9374 38.1614 12.1176 37.9812L20.5605 29.5383H17.5209C17.266 29.5383 17.0593 29.3317 17.0593 29.0768C17.0593 28.8219 17.266 28.6152 17.5209 28.6152ZM26.7517 37.8461H30.9056C31.1605 37.8461 31.3671 38.0527 31.3671 38.3076V42.4615C31.3671 42.7164 31.1605 42.923 30.9056 42.923C30.6507 42.923 30.444 42.7164 30.444 42.4615V39.4219L22.0012 47.8647C21.8209 48.045 21.5287 48.045 21.3484 47.8647C21.1682 47.6845 21.1682 47.3923 21.3484 47.212L29.7913 38.7692H26.7517C26.4968 38.7692 26.2902 38.5625 26.2902 38.3076C26.2902 38.0527 26.4968 37.8461 26.7517 37.8461ZM31.6149 30.022C31.627 29.7673 31.4304 29.5511 31.1758 29.539L27.0267 29.3414C26.772 29.3293 26.5558 29.5259 26.5437 29.7805C26.5316 30.0351 26.7281 30.2513 26.9827 30.2634L30.0189 30.408L20.6895 38.8893C20.5009 39.0607 20.487 39.3526 20.6585 39.5412C20.83 39.7298 21.1219 39.7437 21.3105 39.5723L30.6398 31.091L30.4953 34.1272C30.4831 34.3818 30.6797 34.598 30.9343 34.6102C31.1889 34.6223 31.4052 34.4257 31.4173 34.1711L31.6149 30.022Z" fill="white"/>
<path d="M24 40L18 46" stroke="#A787FF" stroke-width="0.923077" stroke-linecap="round"/>
<path d="M20 36L14 42" stroke="#A787FF" stroke-width="0.923077" stroke-linecap="round"/>
<mask id="path-4-inside-1_1586_7850" fill="white">
<path d="M17.6689 23.8829C16.7835 23.0357 15.8876 22.1864 15.1167 21.2375C14.6147 20.6212 14.6295 19.7613 15.1611 19.1704C16.235 17.9737 17.402 16.8554 18.5732 15.7519C18.8295 15.5104 19.2679 15.4617 19.6217 15.3241C20.2613 15.3897 20.7739 15.6248 21.208 16.0484C21.5342 16.3704 21.8731 16.6796 22.1802 17.0185C22.6398 17.5268 23.1397 17.7577 23.8068 17.4082C24.1944 17.2049 24.599 17.0312 25.012 16.885C25.5351 16.6986 25.6707 16.2983 25.6876 15.8112C25.7173 15.072 25.7088 14.3307 25.7851 13.5979C25.8698 12.7867 26.7572 12.0306 27.5705 12.0263C28.9091 12.0157 30.2519 12.0835 31.5863 12.003C32.7575 11.9331 33.8293 13.0874 33.7572 14.0893C33.7149 14.6844 33.753 15.2859 33.7572 15.8853C33.7594 16.3301 33.9309 16.6648 34.363 16.8406C34.9476 17.0778 35.5152 17.3806 36.1209 17.5353C36.3772 17.6009 36.7648 17.4272 36.9978 17.243C37.451 16.885 37.8344 16.4381 38.2517 16.0336C39.0692 15.2415 40.3125 15.1673 41.0305 15.8366C42.1085 16.8406 43.1633 17.8741 44.1651 18.9522C44.8831 19.7232 44.7688 21.0003 43.9491 21.8158C43.625 22.1377 43.3137 22.4766 42.9769 22.7858C42.5089 23.2158 42.2505 23.669 42.5893 24.3108C42.8075 24.728 42.9769 25.1728 43.1527 25.6133C43.3433 26.0899 43.7034 26.2657 44.1906 26.2615C44.7539 26.2572 45.3216 26.3017 45.8807 26.2572C46.9355 26.1767 48.0835 27.2527 48.0136 28.4367C47.9352 29.7541 48.0008 31.0799 47.9924 32.4016C47.986 33.2763 47.2405 34.1447 46.3594 34.24C45.6795 34.3141 44.989 34.3162 44.3049 34.3247C43.75 34.3332 43.3116 34.4772 43.104 35.0575C42.9092 35.6019 42.6063 36.1166 42.4877 36.6757C42.4284 36.9553 42.6063 37.3535 42.799 37.6034C43.1421 38.0461 43.5912 38.4019 43.9724 38.817C44.7815 39.696 44.9001 40.8079 44.1291 41.6784C43.1887 42.7396 42.1763 43.7499 41.1067 44.6818C40.2087 45.4633 39.1772 45.3913 38.2877 44.5886C37.5845 43.9532 36.9364 43.2564 36.2819 42.5701"/>
</mask>
<path d="M15.1167 21.2375L15.7674 20.7088L15.7668 20.7081L15.1167 21.2375ZM15.1611 19.1704L15.7845 19.7311L15.7852 19.7303L15.1611 19.1704ZM18.5732 15.7519L19.1482 16.3622L19.1482 16.3622L18.5732 15.7519ZM19.6217 15.3241L19.7073 14.49L19.506 14.4693L19.3175 14.5427L19.6217 15.3241ZM21.208 16.0484L21.797 15.4517L21.7936 15.4483L21.208 16.0484ZM22.1802 17.0185L22.8021 16.4561L22.8015 16.4554L22.1802 17.0185ZM23.8068 17.4082L24.1959 18.1509L24.1963 18.1507L23.8068 17.4082ZM25.012 16.885L25.2917 17.6755L25.2934 17.6749L25.012 16.885ZM25.6876 15.8112L24.8498 15.7776L24.8497 15.7821L25.6876 15.8112ZM25.7851 13.5979L24.9511 13.5108L24.9511 13.5111L25.7851 13.5979ZM27.5705 12.0263L27.5749 12.8648L27.5772 12.8647L27.5705 12.0263ZM31.5863 12.003L31.5363 11.1661L31.5358 11.1661L31.5863 12.003ZM33.7572 14.0893L32.9209 14.0291L32.9209 14.0297L33.7572 14.0893ZM33.7572 15.8853L34.5957 15.8813L34.5957 15.8794L33.7572 15.8853ZM34.363 16.8406L34.047 17.6172L34.0477 17.6175L34.363 16.8406ZM36.1209 17.5353L36.329 16.723L36.3283 16.7229L36.1209 17.5353ZM36.9978 17.243L36.4782 16.585L36.4777 16.5854L36.9978 17.243ZM38.2517 16.0336L37.6682 15.4314L37.668 15.4316L38.2517 16.0336ZM41.0305 15.8366L40.4588 16.4499L40.4591 16.4502L41.0305 15.8366ZM44.1651 18.9522L43.5509 19.523L43.5516 19.5236L44.1651 18.9522ZM43.9491 21.8158L44.54 22.4106L44.5404 22.4102L43.9491 21.8158ZM42.9769 22.7858L42.4098 22.1682L42.4097 22.1683L42.9769 22.7858ZM42.5893 24.3108L43.3324 23.9223L43.3308 23.9193L42.5893 24.3108ZM43.1527 25.6133L42.374 25.9241L42.3742 25.9247L43.1527 25.6133ZM44.1906 26.2615L44.1842 25.423L44.1833 25.423L44.1906 26.2615ZM45.8807 26.2572L45.8169 25.4212L45.8142 25.4214L45.8807 26.2572ZM48.0136 28.4367L48.8505 28.4864L48.8506 28.4861L48.0136 28.4367ZM47.9924 32.4016L48.8308 32.4077L48.8308 32.4069L47.9924 32.4016ZM46.3594 34.24L46.2692 33.4064L46.2685 33.4065L46.3594 34.24ZM44.3049 34.3247L44.2945 33.4863L44.2921 33.4864L44.3049 34.3247ZM43.104 35.0575L43.8934 35.3401L43.8935 35.3399L43.104 35.0575ZM42.4877 36.6757L41.6675 36.5017L42.4877 36.6757ZM42.799 37.6034L42.1351 38.1154L42.1363 38.1171L42.799 37.6034ZM43.9724 38.817L43.3549 39.3841L43.3555 39.3849L43.9724 38.817ZM44.1291 41.6784L44.7566 42.2345L44.7568 42.2343L44.1291 41.6784ZM41.1067 44.6818L41.6572 45.3143L41.6575 45.3139L41.1067 44.6818ZM38.2877 44.5886L37.7255 45.2107L37.7259 45.2111L38.2877 44.5886ZM18.2485 23.2772C17.3537 22.4209 16.4989 21.6091 15.7674 20.7088L14.4659 21.7663C15.2764 22.7637 16.2133 23.6506 17.0892 24.4887L18.2485 23.2772ZM15.7668 20.7081C15.5217 20.4072 15.5334 20.0102 15.7845 19.7311L14.5378 18.6096C13.7256 19.5124 13.7077 20.8352 14.4665 21.767L15.7668 20.7081ZM15.7852 19.7303C16.8333 18.5623 17.9776 17.465 19.1482 16.3622L17.9983 15.1416C16.8264 16.2457 15.6366 17.3851 14.5371 18.6104L15.7852 19.7303ZM19.1482 16.3622C19.1328 16.3767 19.1537 16.3498 19.3168 16.2975C19.3959 16.2722 19.4692 16.2522 19.5797 16.2199C19.679 16.1909 19.8017 16.1537 19.9258 16.1054L19.3175 14.5427C19.1609 14.6037 19.0906 14.6091 18.805 14.7006C18.5964 14.7675 18.2699 14.8857 17.9983 15.1416L19.1482 16.3622ZM19.536 16.1581C19.9981 16.2056 20.3313 16.3644 20.6225 16.6486L21.7936 15.4483C21.2164 14.8852 20.5245 14.5739 19.7073 14.49L19.536 16.1581ZM20.6191 16.6452C20.977 16.9984 21.2723 17.2652 21.5589 17.5815L22.8015 16.4554C22.4739 16.094 22.0915 15.7423 21.797 15.4517L20.6191 16.6452ZM21.5583 17.5808C21.8371 17.8892 22.2031 18.2005 22.6808 18.3399C23.1906 18.4887 23.706 18.4075 24.1959 18.1509L23.4178 16.6655C23.2405 16.7583 23.1724 16.7365 23.1506 16.7301C23.0967 16.7144 22.9829 16.6561 22.8021 16.4561L21.5583 17.5808ZM24.1963 18.1507C24.5455 17.9675 24.913 17.8094 25.2917 17.6755L24.7323 16.0946C24.2849 16.2529 23.8433 16.4422 23.4173 16.6657L24.1963 18.1507ZM25.2934 17.6749C25.7303 17.5192 26.0652 17.2449 26.2742 16.8651C26.4674 16.514 26.5152 16.1399 26.5256 15.8404L24.8497 15.7821C24.8432 15.9697 24.8146 16.0393 24.8051 16.0567C24.803 16.0603 24.8034 16.0594 24.8025 16.0602C24.8004 16.062 24.7819 16.0769 24.7306 16.0952L25.2934 17.6749ZM26.5254 15.8448C26.5575 15.046 26.5463 14.3839 26.619 13.6847L24.9511 13.5111C24.8714 14.2776 24.8771 15.098 24.8499 15.7776L26.5254 15.8448ZM26.619 13.685C26.6336 13.5447 26.7345 13.334 26.9552 13.1418C27.1752 12.9502 27.4137 12.8656 27.5749 12.8648L27.5662 11.1879C26.9141 11.1913 26.3022 11.4868 25.8539 11.8772C25.4064 12.267 25.0212 12.8399 24.9511 13.5108L26.619 13.685ZM27.5772 12.8647C28.8446 12.8547 30.2788 12.9219 31.6368 12.84L31.5358 11.1661C30.2251 11.2452 28.9736 11.1767 27.5639 11.1879L27.5772 12.8647ZM31.6362 12.84C31.9304 12.8224 32.2686 12.9608 32.5453 13.2373C32.83 13.5219 32.9349 13.8353 32.9209 14.0291L34.5935 14.1494C34.6516 13.3414 34.2566 12.5768 33.7307 12.0512C33.1967 11.5176 32.4134 11.1137 31.5363 11.1661L31.6362 12.84ZM32.9209 14.0297C32.8755 14.6674 32.915 15.3564 32.9188 15.8913L34.5957 15.8794C34.591 15.2155 34.5542 14.7015 34.5936 14.1488L32.9209 14.0297ZM32.9188 15.8893C32.9204 16.2149 32.9841 16.5702 33.1808 16.8966C33.3835 17.233 33.6865 17.4705 34.047 17.6172L34.679 16.0639C34.6394 16.0478 34.6224 16.0349 34.618 16.0314C34.6157 16.0294 34.6152 16.0288 34.6158 16.0294C34.616 16.0297 34.6163 16.03 34.6166 16.0304C34.6167 16.0306 34.6168 16.0307 34.6169 16.0309C34.6169 16.0309 34.617 16.031 34.617 16.031C34.617 16.031 34.617 16.0311 34.617 16.031C34.617 16.031 34.617 16.031 34.617 16.031C34.617 16.0309 34.6169 16.0309 34.6169 16.0308C34.6168 16.0306 34.6166 16.0303 34.6164 16.0299C34.616 16.0291 34.6153 16.0277 34.6145 16.0255C34.6128 16.0213 34.6102 16.0139 34.6075 16.0024C34.6018 15.9789 34.596 15.94 34.5957 15.8813L32.9188 15.8893ZM34.0477 17.6175C34.5181 17.8084 35.2374 18.1751 35.9136 18.3477L36.3283 16.7229C35.793 16.5862 35.377 16.3472 34.6783 16.0636L34.0477 17.6175ZM35.9129 18.3475C36.2837 18.4425 36.6377 18.3508 36.858 18.2696C37.101 18.18 37.3336 18.0464 37.5179 17.9006L36.4777 16.5854C36.4565 16.6021 36.4253 16.6235 36.3871 16.645C36.3491 16.6665 36.3113 16.6839 36.2782 16.6961C36.262 16.7021 36.2488 16.7061 36.2389 16.7087C36.2288 16.7113 36.2241 16.7119 36.2247 16.7118C36.2252 16.7118 36.2341 16.7106 36.2503 16.7111C36.2665 16.7117 36.2938 16.714 36.329 16.723L35.9129 18.3475ZM37.5174 17.901C38.0113 17.5109 38.4965 16.9641 38.8353 16.6356L37.668 15.4316C37.1723 15.9122 36.8908 16.2591 36.4782 16.585L37.5174 17.901ZM38.8351 16.6358C39.3977 16.0906 40.1304 16.1438 40.4588 16.4499L41.6022 15.2233C40.4946 14.1908 38.7407 14.3923 37.6682 15.4314L38.8351 16.6358ZM40.4591 16.4502C41.5271 17.4448 42.5666 18.4638 43.5509 19.523L44.7793 18.3815C43.76 17.2845 42.69 16.2363 41.6019 15.223L40.4591 16.4502ZM43.5516 19.5236C43.8992 19.8969 43.9256 20.6564 43.3578 21.2213L44.5404 22.4102C45.6119 21.3442 45.8671 19.5495 44.7787 18.3808L43.5516 19.5236ZM43.3582 21.2209C42.9943 21.5824 42.734 21.8706 42.4098 22.1682L43.544 23.4034C43.8934 23.0826 44.2558 22.693 44.54 22.4106L43.3582 21.2209ZM42.4097 22.1683C42.1392 22.4168 41.8311 22.7564 41.6835 23.2086C41.5214 23.705 41.59 24.2139 41.8479 24.7023L43.3308 23.9193C43.2857 23.8338 43.2762 23.7848 43.274 23.766C43.2722 23.7506 43.2734 23.7418 43.2776 23.7291C43.2914 23.6867 43.3466 23.5847 43.5441 23.4033L42.4097 22.1683ZM41.8463 24.6993C42.0396 25.0689 42.1902 25.4636 42.374 25.9241L43.9315 25.3026C43.7636 24.882 43.5754 24.3872 43.3324 23.9223L41.8463 24.6993ZM42.3742 25.9247C42.5274 26.3077 42.7764 26.6288 43.1347 26.84C43.4809 27.044 43.8568 27.1028 44.1978 27.0999L44.1833 25.423C44.0371 25.4243 43.9895 25.3973 43.9862 25.3954C43.9849 25.3946 43.9823 25.3933 43.9761 25.3857C43.9689 25.3769 43.9516 25.3529 43.9312 25.302L42.3742 25.9247ZM44.1969 27.0999C44.6534 27.0965 45.358 27.1399 45.9472 27.093L45.8142 25.4214C45.2852 25.4635 44.8544 25.418 44.1842 25.423L44.1969 27.0999ZM45.9445 27.0932C46.1731 27.0758 46.4967 27.1885 46.7783 27.4679C47.0544 27.7418 47.1945 28.0828 47.1766 28.3872L48.8506 28.4861C48.9025 27.6065 48.5036 26.8175 47.9595 26.2776C47.4209 25.7432 46.6431 25.3582 45.8169 25.4212L45.9445 27.0932ZM47.1766 28.3869C47.0967 29.7292 47.162 31.1419 47.1539 32.3962L48.8308 32.4069C48.8397 31.0179 48.7736 29.7789 48.8505 28.4864L47.1766 28.3869ZM47.1539 32.3955C47.1524 32.6018 47.0591 32.849 46.8741 33.0596C46.6895 33.2697 46.4654 33.3852 46.2692 33.4064L46.4496 35.0736C47.1345 34.9995 47.7237 34.6332 48.1337 34.1665C48.5433 33.7004 48.826 33.0761 48.8308 32.4077L47.1539 32.3955ZM46.2685 33.4065C45.6379 33.4752 44.9937 33.4777 44.2945 33.4863L44.3153 35.1631C44.9843 35.1548 45.7212 35.153 46.4503 35.0735L46.2685 33.4065ZM44.2921 33.4864C43.9606 33.4914 43.5559 33.5356 43.1788 33.7373C42.7704 33.9558 42.4804 34.3115 42.3145 34.7752L43.8935 35.3399C43.9173 35.2733 43.9386 35.2442 43.9467 35.2345C43.9534 35.2264 43.9589 35.2218 43.9697 35.216C44.0024 35.1985 44.0943 35.1665 44.3177 35.1631L44.2921 33.4864ZM42.3146 34.775C42.2291 35.0139 42.1267 35.2289 41.9973 35.5292C41.8779 35.8063 41.7448 36.1374 41.6675 36.5017L43.3079 36.8497C43.3492 36.6549 43.4268 36.4491 43.5372 36.1929C43.6376 35.96 43.7841 35.6455 43.8934 35.3401L42.3146 34.775ZM41.6675 36.5017C41.5905 36.8644 41.6768 37.2093 41.7622 37.4409C41.8542 37.6901 41.9893 37.9264 42.1351 38.1154L43.463 37.0914C43.416 37.0305 43.3658 36.9427 43.3354 36.8604C43.3209 36.8211 43.3158 36.796 43.3144 36.7865C43.3128 36.7751 43.3184 36.7999 43.3079 36.8497L41.6675 36.5017ZM42.1363 38.1171C42.3467 38.3885 42.5812 38.6227 42.7885 38.8232C43.0081 39.0356 43.1863 39.2006 43.3549 39.3841L44.5899 38.2499C44.3772 38.0182 44.1404 37.7978 43.9544 37.6179C43.756 37.426 43.5944 37.261 43.4617 37.0897L42.1363 38.1171ZM43.3555 39.3849C43.6567 39.7121 43.788 40.0367 43.8068 40.3089C43.8248 40.5683 43.7466 40.8457 43.5015 41.1225L44.7568 42.2343C45.2826 41.6406 45.5306 40.9268 45.4797 40.1929C45.4297 39.4717 45.0972 38.8009 44.5893 38.2492L43.3555 39.3849ZM43.5016 41.1223C42.584 42.1578 41.597 43.1425 40.5559 44.0496L41.6575 45.3139C42.7556 44.3572 43.7935 43.3213 44.7566 42.2345L43.5016 41.1223ZM40.5563 44.0493C40.2423 44.3226 39.9635 44.4016 39.73 44.3916C39.4873 44.3812 39.1855 44.2694 38.8494 43.9661L37.7259 45.2111C38.2794 45.7105 38.9381 46.0361 39.6581 46.067C40.3872 46.0982 41.0732 45.8225 41.6572 45.3143L40.5563 44.0493ZM38.8498 43.9665C38.1758 43.3574 37.5544 42.6896 36.8887 41.9915L35.6752 43.1488C36.3183 43.8232 36.9932 44.5489 37.7255 45.2107L38.8498 43.9665Z" fill="white" mask="url(#path-4-inside-1_1586_7850)"/>
<path d="M22.9292 24.1346C23.6881 23.5515 24.4533 22.9431 25.3053 22.5221C26.8771 21.7447 28.5677 21.4812 30.3268 21.6749C32.8239 21.9478 34.9081 23.0346 36.5555 24.9036C38.2926 26.8737 39.0927 29.2013 38.9612 31.8354C38.8214 34.3732 37.7563 36.4844 35.9806 38.2518" stroke="white" stroke-width="0.923077" stroke-miterlimit="10" stroke-linecap="round"/>
</svg>
