<svg width="44" height="44" viewBox="0 0 44 44" fill="none" xmlns="http://www.w3.org/2000/svg">
<path d="M35.5856 17.027L37.4489 18.25L37.9999 16.0868" stroke="white" stroke-width="1.2" stroke-miterlimit="10" stroke-linecap="round" stroke-linejoin="round"/>
<path d="M6.56061 25.7728C8.26864 32.7363 14.5332 37.9009 22 37.9009" stroke="white" stroke-width="1.2" stroke-miterlimit="10" stroke-linecap="round" stroke-linejoin="round"/>
<path d="M8.41438 26.9729L6.55102 25.7499L6 27.9131" stroke="white" stroke-width="1.2" stroke-miterlimit="10" stroke-linecap="round" stroke-linejoin="round"/>
<path d="M25.7724 37.4397C32.7358 35.7317 37.9004 29.4671 37.9004 22.0003" stroke="white" stroke-width="1.2" stroke-miterlimit="10" stroke-linecap="round" stroke-linejoin="round"/>
<path d="M26.9728 35.5856L25.7499 37.449L27.9131 38" stroke="white" stroke-width="1.2" stroke-miterlimit="10" stroke-linecap="round" stroke-linejoin="round"/>
<path d="M18.2277 6.56064C11.2643 8.26868 6.09967 14.5333 6.09967 22" stroke="white" stroke-width="1.2" stroke-miterlimit="10" stroke-linecap="round" stroke-linejoin="round"/>
<path d="M37.423 18.2096C35.715 11.2462 29.4504 6.08154 21.9837 6.08154" stroke="white" stroke-width="1.2" stroke-miterlimit="10" stroke-linecap="round" stroke-linejoin="round"/>
<path d="M17.0272 8.41431L18.2502 6.55096L16.087 5.99993" stroke="white" stroke-width="1.2" stroke-miterlimit="10" stroke-linecap="round" stroke-linejoin="round"/>
<path d="M21.478 13.2945L14.7002 17.2077C14.3775 17.3939 14.1788 17.7382 14.1788 18.1107V25.9371C14.1788 26.3096 14.3775 26.6539 14.7002 26.8402L21.478 30.7534C21.8006 30.9396 22.1982 30.9396 22.5208 30.7534L29.2987 26.8402C29.6213 26.6539 29.82 26.3096 29.82 25.9371V18.1107C29.82 17.7382 29.6213 17.3939 29.2987 17.2077L22.5208 13.2945C22.1982 13.1082 21.8006 13.1082 21.478 13.2945Z" stroke="#A787FF" stroke-width="1.2" stroke-miterlimit="10" stroke-linecap="round" stroke-linejoin="round"/>
<path d="M14.4902 17.6883L21.9993 22.0237L27.6364 18.7691" stroke="#A787FF" stroke-width="1.2" stroke-miterlimit="10" stroke-linecap="round" stroke-linejoin="round"/>
<path d="M21.9995 30.8867V22.0234" stroke="#A787FF" stroke-width="1.2" stroke-miterlimit="10" stroke-linecap="round" stroke-linejoin="round"/>
<path d="M25.9166 15.2605L18.1163 19.7668V22.561" stroke="#A787FF" stroke-width="1.2" stroke-miterlimit="10" stroke-linecap="round" stroke-linejoin="round"/>
</svg>
