<svg width="60" height="60" viewBox="0 0 60 60" fill="none" xmlns="http://www.w3.org/2000/svg">
<path d="M31.5151 11.75C20.3715 11.75 22.1659 11.7501 11.0224 11.7501C10.4601 11.7501 10 12.1936 10 12.7357V35.75H50V28.7225" stroke="white" stroke-miterlimit="10" stroke-linecap="round" stroke-linejoin="round"/>
<path d="M49.8804 35.9954V39.5353C49.8804 40.0942 49.4231 40.5516 48.8641 40.5516H11.1358C10.5768 40.5516 10.1195 40.0942 10.1195 39.5353V35.9954H49.8804Z" stroke="white" stroke-miterlimit="10" stroke-linecap="round" stroke-linejoin="round"/>
<path d="M36.4321 48.25H23.6951L26.2103 40.5519H33.9253L36.4321 48.25Z" stroke="white" stroke-miterlimit="10" stroke-linecap="round" stroke-linejoin="round"/>
<path d="M54 19.6616C54 21.462 52.6637 22.9426 50.93 23.1866V27.9904C50.93 28.5457 50.4733 29 49.9151 29H44.976C45.069 28.6887 45.1113 28.3522 45.1113 28.0073C45.1113 26.0386 43.5044 24.4402 41.5254 24.4402C39.5463 24.4402 37.9394 26.0386 37.9394 28.0073C37.9394 28.3522 37.9902 28.6803 38.0748 29H33.161C32.6028 29 32.1461 28.5457 32.1461 27.9904V23.195C30.3701 22.9847 29 21.4788 29 19.6616C29 17.8444 30.3701 16.3384 32.1461 16.1197V11.3243C32.1461 10.769 32.6028 10.3147 33.161 10.3147H37.9648C38.0917 8.46386 39.6478 7 41.5423 7C43.4367 7 44.9844 8.46386 45.1198 10.3147H49.9235C50.4817 10.3147 50.9384 10.769 50.9384 11.3243V16.1281C52.6637 16.3721 54 17.8612 54 19.6616Z" stroke="#A787FF" stroke-width="1.11213" stroke-miterlimit="10" stroke-linecap="round" stroke-linejoin="round"/>
</svg>
