<svg width="45" height="44" viewBox="0 0 45 44" fill="none" xmlns="http://www.w3.org/2000/svg">
<path d="M22.2836 12.116V5.5" stroke="#A787FF" stroke-width="1.1" stroke-miterlimit="10" stroke-linecap="round" stroke-linejoin="round"/>
<path d="M22.2836 5.49998H29.1037L27.9126 7.47386L29.1037 9.44971H22.2836V5.49998Z" stroke="#A787FF" stroke-width="1.1" stroke-miterlimit="10" stroke-linecap="round" stroke-linejoin="round"/>
<path d="M7.73636 38.5H37.8619C38.3783 38.5 38.8 38.0783 38.8 37.5619V36.85C38.8 36.3354 38.3783 35.912 37.8619 35.912H7.73636C7.22165 35.912 6.79999 36.3354 6.79999 36.85V37.5619C6.79999 38.0783 7.22165 38.5 7.73636 38.5Z" stroke="white" stroke-width="1.1" stroke-miterlimit="10" stroke-linecap="round" stroke-linejoin="round"/>
<path d="M14.3306 18.8456H9.76772C9.25302 18.8456 8.83148 19.2671 8.83148 19.7837V20.8076H36.7686V19.7837C36.7686 19.2671 36.347 18.8456 35.8305 18.8456H31.2677" stroke="white" stroke-width="1.1" stroke-miterlimit="10" stroke-linecap="round" stroke-linejoin="round"/>
<path d="M7.73636 24.644H37.8619C38.3783 24.644 38.8 24.2224 38.8 23.7059V21.7439C38.8 21.2292 38.3783 20.8076 37.8619 20.8076H7.73636C7.22165 20.8076 6.79999 21.2292 6.79999 21.7439V23.7059C6.79999 24.2224 7.22165 24.644 7.73636 24.644Z" stroke="white" stroke-width="1.1" stroke-miterlimit="10" stroke-linecap="round" stroke-linejoin="round"/>
<path d="M18.008 13.5564C19.3805 12.6456 21.0286 12.1164 22.799 12.1164C27.599 12.1164 31.4902 16.0076 31.4902 20.8076H14.1077C14.1077 18.5645 14.9582 16.5204 16.3527 14.98" stroke="white" stroke-width="1.1" stroke-miterlimit="10" stroke-linecap="round" stroke-linejoin="round"/>
<path d="M7.73645 29.1842V24.6433H37.862V35.9116H7.73645V31.3706" stroke="white" stroke-width="1.1" stroke-miterlimit="10" stroke-linecap="round" stroke-linejoin="round"/>
<path d="M21.5214 35.5V29.3827C21.5214 28.3469 20.6704 27.5 19.6312 27.5C18.5903 27.5 17.7393 28.3469 17.7393 29.3827V35.5H21.5214ZM28.2608 35.5V29.3827C28.2608 28.3469 27.4097 27.5 26.3688 27.5C25.3296 27.5 24.4786 28.3469 24.4786 29.3827V35.5H28.2608ZM35 35.5V29.3827C35 28.3469 34.1489 27.5 33.108 27.5C32.0688 27.5 31.2161 28.3469 31.2161 29.3827V35.5H35ZM14.784 35.5V29.3827C14.784 28.3469 13.9311 27.5 12.892 27.5C11.851 27.5 11 28.3469 11 29.3827V35.5H14.784Z" stroke="white" stroke-width="1.1" stroke-miterlimit="10" stroke-linecap="round" stroke-linejoin="round"/>
</svg>
