<svg width="56" height="46" viewBox="0 0 56 46" fill="none" xmlns="http://www.w3.org/2000/svg">
<path d="M0.933333 35.6017C1.4488 35.6017 1.86667 35.1898 1.86667 34.6817C1.86667 34.1736 1.4488 33.7617 0.933333 33.7617C0.417868 33.7617 0 34.1736 0 34.6817C0 35.1898 0.417868 35.6017 0.933333 35.6017Z" fill="white"/>
<path d="M28 0C14.4265 0 0 3.22454 0 9.19984V31.0375C0 31.2815 0.0983331 31.5155 0.273367 31.688C0.448401 31.8606 0.685798 31.9575 0.933333 31.9575C1.18087 31.9575 1.41827 31.8606 1.5933 31.688C1.76833 31.5155 1.86667 31.2815 1.86667 31.0375V12.6682C3.83227 14.3692 7.31173 15.8007 12.1333 16.8421L12.1417 44.1592C5.8996 42.7563 1.86667 40.4949 1.86667 38.3974C1.86667 38.1534 1.76833 37.9194 1.5933 37.7468C1.41827 37.5743 1.18087 37.4774 0.933333 37.4774C0.685798 37.4774 0.448401 37.5743 0.273367 37.7468C0.0983331 37.9194 0 38.1534 0 38.3974C0 41.5704 4.16453 44.2512 11.7273 45.9532C11.863 45.9835 12.0017 45.9989 12.1408 45.9992C12.6346 45.9972 13.1075 45.8025 13.4559 45.4577C13.8044 45.1128 14 44.6459 14 44.1592V32.4948C14.8839 32.3273 15.8181 32.1728 16.8 32.0348V33.2013C16.7999 33.6971 16.9353 34.1838 17.192 34.6102C17.4487 35.0367 17.8172 35.387 18.2588 35.6245L26.6588 40.1407C27.0699 40.3628 27.5312 40.4792 28 40.4792C28.4688 40.4792 28.9301 40.3628 29.3412 40.1407L37.7412 35.6245C38.1825 35.3872 38.5508 35.0371 38.8075 34.611C39.0642 34.185 39.1998 33.6987 39.2 33.2031V32.0366C40.1819 32.1728 41.1161 32.3273 42 32.4966V44.1592C41.9999 44.4349 42.0626 44.7071 42.1836 44.9557C42.3045 45.2043 42.4806 45.4229 42.6987 45.5954C42.9169 45.7679 43.1716 45.8898 43.4441 45.9522C43.7165 46.0146 43.9997 46.0159 44.2727 45.956C51.8355 44.2512 56 41.5704 56 38.3974V9.19984C56 3.22454 41.5735 0 28 0ZM28 26.2941L19.6831 21.8239L27.5529 17.5919C27.6898 17.5175 27.8437 17.4785 28 17.4785C28.1563 17.4785 28.3102 17.5175 28.4471 17.5919L36.3169 21.8239L28 26.2941ZM19.1529 34.0109C19.0057 33.9317 18.8829 33.8149 18.7973 33.6728C18.7118 33.5306 18.6666 33.3684 18.6667 33.2031V23.3731L27.0667 27.8884V38.2658L19.1529 34.0109ZM36.8471 34.0109L28.9333 38.2658V27.8884L37.3333 23.3731V33.2031C37.3334 33.3684 37.2882 33.5306 37.2027 33.6728C37.1171 33.8149 36.9943 33.9317 36.8471 34.0109ZM54.1333 38.3974C54.1333 40.4949 50.1004 42.7563 43.8667 44.1565L43.8751 16.8431C48.6864 15.8026 52.1668 14.3738 54.1333 12.6746V38.3974ZM43.4747 15.0463C43.059 15.1371 42.6869 15.3641 42.419 15.6903C42.1512 16.0164 42.0034 16.4225 42 16.8421V30.6198C41.1133 30.4579 40.1744 30.3125 39.2 30.181V22.9131C39.2001 22.4173 39.0647 21.9306 38.808 21.5042C38.5513 21.0778 38.1828 20.7274 37.7412 20.4899L29.3412 15.9737C28.9301 15.7514 28.4688 15.6349 28 15.6349C27.5312 15.6349 27.0699 15.7514 26.6588 15.9737L18.2588 20.4899C17.8168 20.7276 17.448 21.0784 17.1913 21.5054C16.9346 21.9323 16.7994 22.4196 16.8 22.9159V30.1837C15.8256 30.3153 14.8867 30.4597 14 30.6226V16.8421C13.9966 16.4225 13.8488 16.0164 13.581 15.6903C13.3131 15.3641 12.941 15.1371 12.5253 15.0463C6.04987 13.6452 1.86667 11.3498 1.86667 9.19984C1.86667 5.71862 12.6 1.83997 28 1.83997C43.4 1.83997 54.1333 5.71862 54.1333 9.19984C54.1333 11.3498 49.9501 13.6452 43.4747 15.0463Z" fill="white"/>
<path d="M45.7338 7.66493C45.9583 7.66588 46.1756 7.58706 46.3459 7.44294C46.5161 7.29882 46.628 7.09903 46.661 6.8802C46.694 6.66137 46.6459 6.43815 46.5255 6.25144C46.4051 6.06473 46.2205 5.92704 46.0055 5.8636C43.2068 5.05925 40.343 4.49413 37.4458 4.17451C37.3227 4.15696 37.1973 4.16385 37.0769 4.19476C36.9565 4.22568 36.8436 4.28 36.7449 4.35454C36.6461 4.42909 36.5634 4.52234 36.5017 4.62882C36.4401 4.7353 36.4006 4.85286 36.3857 4.9746C36.3707 5.09633 36.3806 5.21977 36.4148 5.33768C36.449 5.45558 36.5067 5.56557 36.5846 5.66116C36.6625 5.75676 36.759 5.83604 36.8684 5.89435C36.9779 5.95265 37.098 5.98881 37.2218 6.00068C40.0104 6.31087 42.7671 6.85408 45.4622 7.62445C45.5503 7.65078 45.6418 7.66441 45.7338 7.66493Z" fill="#53DBEE"/>
<path d="M18.5573 4.17451C15.6602 4.49413 12.7964 5.05925 9.99774 5.8636C9.78272 5.92704 9.5981 6.06473 9.47769 6.25144C9.35729 6.43815 9.30918 6.66137 9.34217 6.8802C9.37517 7.09903 9.48706 7.29882 9.65735 7.44294C9.82763 7.58706 10.0449 7.66588 10.2693 7.66493C10.3614 7.66441 10.4529 7.65078 10.5409 7.62445C13.2361 6.85408 15.9928 6.31087 18.7813 6.00068C18.9052 5.98881 19.0253 5.95265 19.1348 5.89435C19.2442 5.83604 19.3407 5.75676 19.4186 5.66116C19.4965 5.56557 19.5542 5.45558 19.5884 5.33768C19.6226 5.21977 19.6325 5.09633 19.6175 4.9746C19.6026 4.85286 19.5631 4.7353 19.5015 4.62882C19.4398 4.52234 19.3571 4.42909 19.2583 4.35454C19.1596 4.28 19.0467 4.22568 18.9263 4.19476C18.8059 4.16385 18.6805 4.15696 18.5573 4.17451Z" fill="#53DBEE"/>
<path d="M46.0374 9.72953C44.1637 9.11108 42.2448 8.63468 40.2974 8.30447C40.0548 8.26311 39.8053 8.31797 39.6035 8.4571C39.4017 8.59624 39.2638 8.80836 39.22 9.04724C39.1761 9.28612 39.2299 9.53241 39.3695 9.73241C39.509 9.93242 39.7232 10.0699 39.9652 10.115C41.817 10.4305 43.6422 10.8829 45.4252 11.4683C45.5237 11.5019 45.6271 11.5193 45.7313 11.5198C45.9526 11.5207 46.1669 11.444 46.3362 11.3035C46.5054 11.163 46.6185 10.9678 46.6553 10.7527C46.692 10.5377 46.6501 10.3167 46.5369 10.1293C46.4238 9.94191 46.2467 9.80022 46.0374 9.72953Z" fill="#53DBEE"/>
<path d="M15.7027 8.30456C13.7583 8.639 11.8416 9.1147 9.96833 9.72778C9.75811 9.79734 9.57989 9.93841 9.46558 10.1257C9.35128 10.313 9.30836 10.5343 9.34453 10.75C9.38069 10.9656 9.49357 11.1615 9.66295 11.3026C9.83232 11.4437 10.0471 11.5207 10.2689 11.5199C10.3711 11.5195 10.4726 11.5027 10.5694 11.4702C12.3547 10.8858 14.1816 10.4328 16.035 10.1151C16.1564 10.0944 16.2724 10.0502 16.3764 9.98515C16.4803 9.92005 16.5702 9.83532 16.6408 9.73582C16.7114 9.63633 16.7613 9.52404 16.7877 9.40544C16.8141 9.28684 16.8163 9.16427 16.7944 9.0448C16.7725 8.92532 16.7268 8.81131 16.6599 8.70932C16.5931 8.60734 16.5064 8.51941 16.405 8.4506C16.3035 8.38179 16.1892 8.33345 16.0687 8.30839C15.9481 8.28333 15.8238 8.28203 15.7027 8.30456Z" fill="#53DBEE"/>
</svg>
