<svg width="120" height="120" viewBox="0 0 120 120" fill="none" xmlns="http://www.w3.org/2000/svg">
<circle cx="77" cy="59" r="18" fill="#A787FF"/>
<circle cx="25.5" cy="36.5" r="3.5" fill="#FFBD70"/>
<circle cx="53.5" cy="10.5" r="2.5" fill="#F685A1"/>
<path d="M42.3548 53.3438C42.6442 53.5412 43.0002 53.6155 43.3444 53.5505C43.6886 53.4855 43.9929 53.2865 44.1905 52.9972C44.2008 52.9822 47.7756 47.8843 44.1952 42.8852L44.1699 42.8496C41.6498 39.3682 44.1834 35.7522 44.1905 35.742C44.3775 35.4524 44.444 35.1013 44.3758 34.7635C44.3076 34.4256 44.11 34.1278 43.8253 33.9335C43.5406 33.7392 43.1913 33.6639 42.8518 33.7235C42.5124 33.7832 42.2096 33.9731 42.0082 34.2529C41.998 34.2679 38.4232 39.3658 42.0035 44.3648L42.0288 44.4005C44.5489 47.8819 42.0154 51.4978 42.0082 51.5081C41.8109 51.7975 41.7365 52.1535 41.8015 52.4977C41.8665 52.8419 42.0655 53.1463 42.3548 53.3438Z" fill="white"/>
<path d="M78.6378 82.7643C80.1903 83.3325 81.8456 83.5652 83.4946 83.4471C85.1435 83.3289 86.7488 82.8627 88.2044 82.079C89.6601 81.2953 90.9331 80.212 91.9396 78.9005C92.9461 77.589 93.6633 76.0791 94.0437 74.4703C94.4242 72.8614 94.4594 71.1902 94.147 69.5668C93.8345 67.9434 93.1816 66.4046 92.2312 65.0519C91.2808 63.6992 90.0545 62.5633 88.6331 61.7191C87.2117 60.8748 85.6275 60.3414 83.9849 60.154V59.0985C83.9845 58.6533 83.8075 58.2265 83.4927 57.9117C83.1779 57.5969 82.7511 57.4199 82.3059 57.4195H27.679C27.2338 57.4199 26.807 57.5969 26.4922 57.9117C26.1774 58.2265 26.0004 58.6533 26 59.0985V66.0463C26.002 69.8472 26.7545 73.6102 28.2143 77.1196C29.6741 80.629 31.8124 83.8156 34.5066 86.4966C36.9358 88.9269 39.7751 90.909 42.8937 92.3517H33.0349C32.6837 92.3517 32.3469 92.4912 32.0986 92.7396C31.8503 92.9879 31.7107 93.3247 31.7107 93.6759C31.7107 94.0271 31.8503 94.3638 32.0986 94.6122C32.3469 94.8605 32.6837 95 33.0349 95H77.0126C77.3638 95 77.7006 94.8605 77.9489 94.6122C78.1972 94.3638 78.3367 94.0271 78.3367 93.6759C78.3367 93.3247 78.1972 92.9879 77.9489 92.7396C77.7006 92.4912 77.3638 92.3517 77.0126 92.3517H67.0881C71.7078 90.2128 75.6895 86.9057 78.6402 82.7572L78.6378 82.7643ZM83.9849 66.0463V62.8244C85.1898 63.0034 86.3462 63.4237 87.3849 64.0602C88.4235 64.6966 89.323 65.5361 90.0296 66.5284C90.7362 67.5207 91.2352 68.6453 91.497 69.835C91.7587 71.0247 91.7776 72.2549 91.5527 73.4521C91.3277 74.6493 90.8635 75.7888 90.1879 76.8023C89.5122 77.8159 88.6389 78.6827 87.6204 79.3508C86.6019 80.0189 85.459 80.4747 84.2602 80.6907C83.0614 80.9068 81.8313 80.8787 80.6436 80.6082C80.4653 80.5676 80.288 80.5214 80.1119 80.4697C82.6521 76.0876 83.9883 71.1115 83.9849 66.0463Z" fill="white"/>
<path d="M66.141 50.9701C66.4304 51.1674 66.7863 51.2418 67.1305 51.1768C67.4748 51.1118 67.7791 50.9128 67.9766 50.6235C67.9869 50.6085 71.5617 45.5106 67.9814 40.5115L67.9561 40.4759C65.436 36.9945 67.9695 33.3785 67.9766 33.3682C68.1741 33.0789 68.2485 32.7229 68.1835 32.3786C68.1185 32.0344 67.9194 31.73 67.6301 31.5326C67.3407 31.3351 66.9847 31.2607 66.6405 31.3257C66.2962 31.3907 65.9919 31.5898 65.7944 31.8791C65.7841 31.8942 62.2093 36.9921 65.7897 41.9911L65.815 42.0267C68.3351 45.5082 65.8015 49.1241 65.7944 49.1344C65.597 49.4238 65.5227 49.7798 65.5877 50.124C65.6527 50.4682 65.8517 50.7725 66.141 50.9701Z" fill="white"/>
<path d="M54.2479 44.6402C54.5373 44.8376 54.8932 44.9119 55.2375 44.8469C55.5817 44.7819 55.886 44.5829 56.0836 44.2936C56.0938 44.2786 59.6686 39.1807 56.0883 34.1816L56.063 34.146C53.5429 30.6646 56.0764 27.0487 56.0836 27.0384C56.2706 26.7488 56.3371 26.3977 56.2689 26.0599C56.2006 25.722 56.0031 25.4242 55.7184 25.2299C55.4337 25.0356 55.0844 24.9603 54.7449 25.02C54.4054 25.0796 54.1027 25.2696 53.9013 25.5493C53.891 25.5643 50.3162 30.6622 53.8966 35.6613L53.9219 35.6969C56.4412 39.1783 53.9084 42.7942 53.9013 42.8045C53.704 43.0939 53.6296 43.4499 53.6946 43.7941C53.7596 44.1383 53.9586 44.4427 54.2479 44.6402Z" fill="white"/>
</svg>
