<svg width="24" height="24" viewBox="0 0 24 24" fill="none" xmlns="http://www.w3.org/2000/svg">
<path fill-rule="evenodd" clip-rule="evenodd" d="M12 2C6.47715 2 2 6.47715 2 12C2 17.5228 6.47715 22 12 22C17.5228 22 22 17.5228 22 12C22 6.47715 17.5228 2 12 2ZM9.55383 9.40963V17H7.14226V9.40963H9.55383ZM9.71277 7.06147C9.71277 7.78983 9.18931 8.37269 8.34836 8.37269H8.33264C7.52332 8.37269 7 7.78987 7 7.06147C7 6.31668 7.53942 5.75 8.36433 5.75C9.18934 5.75 9.6971 6.31667 9.71277 7.06147ZM13.3002 17H10.8886L10.8887 16.9999C10.8887 16.9999 10.9203 10.1217 10.8887 9.40951H13.3002V10.4842C13.6207 9.96702 14.1944 9.23145 15.4736 9.23145C17.0603 9.23145 18.25 10.3163 18.25 12.6477V17H15.8386V12.9393C15.8386 11.9189 15.4895 11.2228 14.6168 11.2228C13.9507 11.2228 13.5539 11.6923 13.3795 12.1455C13.3159 12.3077 13.3002 12.5343 13.3002 12.7612V17Z" fill="white"/>
</svg>
