<svg width="86" height="25" viewBox="0 0 86 25" fill="none" xmlns="http://www.w3.org/2000/svg">
<path fill-rule="evenodd" clip-rule="evenodd" d="M45.518 0.750078C45.4544 0.75012 45.3918 0.766736 45.3366 0.79829C45.2817 0.830421 45.2361 0.876302 45.2043 0.931415C45.1725 0.986528 45.1556 1.04897 45.1553 1.11259V10.3588C45.1553 10.4496 45.1131 10.5309 45.0345 10.5764C44.996 10.5988 44.9522 10.6107 44.9076 10.6107C44.863 10.6107 44.8192 10.5988 44.7807 10.5764L43.2698 9.70622C43.1596 9.64245 43.0346 9.60888 42.9072 9.60888C42.7799 9.60888 42.6549 9.64245 42.5447 9.70622L36.5135 13.187C36.288 13.3172 36.151 13.5674 36.151 13.8277V20.7896C36.151 21.0496 36.2882 21.2878 36.5135 21.418L42.5447 24.899C42.6548 24.9629 42.7799 24.9966 42.9072 24.9966C43.0346 24.9966 43.1597 24.9629 43.2698 24.899L49.301 21.418C49.4114 21.3544 49.5031 21.2629 49.5668 21.1525C49.6305 21.0422 49.6639 20.917 49.6637 20.7896V3.43331C49.6635 3.30292 49.6288 3.17491 49.563 3.06235C49.4971 2.94979 49.4026 2.85671 49.2891 2.79261L45.6992 0.786195C45.643 0.754782 45.5805 0.749238 45.518 0.750078ZM6.72009 9.4403C6.60519 9.44483 6.497 9.46499 6.39386 9.52479L0.362515 13.0058C0.252034 13.0693 0.160306 13.1608 0.0966396 13.2712C0.0329732 13.3816 -0.000366554 13.5068 3.03977e-06 13.6342L0.012098 22.9774C0.012098 23.1072 0.0791241 23.228 0.193354 23.2915C0.248119 23.3244 0.310805 23.3418 0.374694 23.3418C0.438584 23.3418 0.50127 23.3244 0.556035 23.2915L4.13362 21.2369C4.36023 21.1022 4.50823 20.868 4.50823 20.6083V16.245C4.50823 15.9847 4.64513 15.7458 4.87091 15.6164L6.39369 14.7342C6.5038 14.6702 6.62902 14.6368 6.75637 14.6374C6.88068 14.6374 7.00835 14.6685 7.11889 14.7342L8.64184 15.6164C8.75243 15.6799 8.84424 15.7714 8.90795 15.8818C8.97165 15.9923 9.00497 16.1176 9.00452 16.245V20.6081C9.00452 20.8678 9.15403 21.1037 9.37913 21.2367L12.9567 23.2915C13.0115 23.3244 13.0742 23.3418 13.1381 23.3418C13.2019 23.3418 13.2646 23.3244 13.3194 23.2915C13.3745 23.2596 13.4203 23.2138 13.4521 23.1586C13.484 23.1035 13.5008 23.0409 13.5008 22.9772L13.5126 13.6342C13.5133 13.5067 13.4801 13.3814 13.4164 13.2709C13.3527 13.1605 13.2608 13.069 13.1501 13.0058L7.11889 9.52479C7.01692 9.46499 6.9084 9.445 6.79266 9.4403H6.72009ZM60.9162 9.52479C60.7902 9.52479 60.6667 9.55671 60.5537 9.62155L54.5225 13.1025C54.4121 13.1661 54.3204 13.2576 54.2567 13.368C54.193 13.4783 54.1596 13.6036 54.1598 13.731V20.6928C54.1598 20.9547 54.3073 21.1919 54.5344 21.3214L60.5174 24.7298C60.7383 24.8558 61.0081 24.8654 61.2305 24.7416L64.8565 22.7232C64.9715 22.6594 65.0493 22.5401 65.0498 22.4091C65.0504 22.3453 65.034 22.2825 65.0021 22.2272C64.9702 22.1719 64.9241 22.1262 64.8686 22.0948L58.8011 18.6138C58.6875 18.549 58.6077 18.4178 58.6077 18.2874V16.112C58.6077 15.9818 58.6884 15.8625 58.8011 15.7977L60.6866 14.7098C60.7417 14.6779 60.8042 14.6611 60.8679 14.6611C60.9316 14.6611 60.9941 14.6779 61.0492 14.7098L62.9345 15.7977C62.9898 15.8294 63.0356 15.8752 63.0675 15.9304C63.0994 15.9855 63.1161 16.0481 63.116 16.1118V17.8281C63.1158 17.8918 63.1325 17.9544 63.1643 18.0096C63.1961 18.0648 63.242 18.1105 63.2972 18.1423C63.4103 18.2076 63.547 18.2078 63.6597 18.1423L67.2738 16.0396C67.384 15.9758 67.4756 15.8842 67.5392 15.7738C67.6029 15.6635 67.6364 15.5384 67.6365 15.411V13.7311C67.6365 13.4716 67.4987 13.2329 67.2738 13.1025L61.2789 9.62155C61.1687 9.55781 61.0435 9.5243 60.9162 9.52479ZM42.883 14.7221C42.9146 14.7221 42.9515 14.7298 42.9797 14.7461L45.0466 15.9427C45.1027 15.9751 45.1434 16.0351 45.1434 16.0997V18.4929C45.1434 18.5579 45.1031 18.6177 45.0466 18.6501L42.9797 19.8467C42.9521 19.8624 42.9209 19.8707 42.8891 19.8707C42.8573 19.8707 42.8261 19.8624 42.7985 19.8467L40.7318 18.6501C40.6755 18.6175 40.635 18.5579 40.635 18.4929V16.0997C40.635 16.0349 40.6756 15.9754 40.7318 15.9427L42.7985 14.7463C42.8239 14.7305 42.8532 14.7222 42.8831 14.7223L42.883 14.7221ZM78.3937 9.50069C78.5736 9.39889 78.7769 9.35572 78.9858 9.35572L78.986 9.35588C79.1952 9.35588 79.3998 9.39906 79.5782 9.50102L85.271 12.7885C85.6394 13.0013 85.8632 13.4015 85.8632 13.8278V20.391C85.8632 20.8172 85.6394 21.2162 85.271 21.4303L79.5782 24.7059C79.3983 24.81 79.1939 24.8642 78.986 24.8629C78.7781 24.8638 78.5737 24.8096 78.3937 24.7057L76.484 23.5819C76.2008 23.4231 76.3424 23.3726 76.4357 23.34C76.8143 23.2086 76.8902 23.1821 77.2939 22.9533C77.3161 22.9412 77.3411 22.9349 77.3664 22.9349C77.3917 22.9349 77.4166 22.9412 77.4389 22.9533L78.9013 23.8235C78.9546 23.8525 79.0218 23.8525 79.0705 23.8235L84.7634 20.5481C84.8164 20.5178 84.848 20.4537 84.848 20.391V13.828C84.848 13.7637 84.8054 13.7033 84.7513 13.6708L79.0705 10.3954C79.0448 10.3804 79.0157 10.3725 78.9859 10.3725C78.9562 10.3725 78.927 10.3804 78.9013 10.3954L73.2207 13.6706C73.1655 13.7022 73.124 13.7655 73.124 13.8277V20.3908C73.124 20.4535 73.166 20.5061 73.2207 20.5358L74.7679 21.4423C75.6129 21.8647 76.1336 21.362 76.1336 20.8622V14.3837C76.1336 14.2921 76.2114 14.2266 76.3028 14.2266H77.0159C77.1058 14.2266 77.185 14.2921 77.185 14.3837V20.8622C77.185 21.9899 76.5744 22.6388 75.505 22.6388L75.4901 22.6388C75.1681 22.6389 74.8991 22.639 74.1877 22.2884L72.701 21.4302C72.3326 21.2173 72.1087 20.817 72.1087 20.3908V13.8278C72.1087 13.4013 72.3326 13.0005 72.701 12.7882L78.3937 9.50069ZM77.9225 15.8827C77.9225 14.7353 78.8879 14.0454 80.5089 14.0454C82.3307 14.0454 83.2352 14.6834 83.3494 16.0397C83.3538 16.0866 83.3319 16.1257 83.301 16.1605C83.2696 16.1931 83.2256 16.221 83.1803 16.221H82.4428C82.3664 16.221 82.3012 16.162 82.2857 16.0881C82.1088 15.3004 81.6771 15.0484 80.5089 15.0484C79.2014 15.0484 79.0586 15.505 79.0586 15.8464C79.0586 16.2598 79.2269 16.3742 80.9924 16.6079C82.7398 16.8388 83.579 17.1686 83.579 18.3966C83.579 19.6355 82.5401 20.3425 80.7388 20.3425C78.2502 20.3425 77.7291 19.2096 77.7291 18.2516C77.7291 18.1605 77.8076 18.0823 77.8983 18.0823H78.6356C78.7177 18.0823 78.7797 18.1471 78.7928 18.2274C78.9035 18.9758 79.2341 19.3514 80.7388 19.3514C81.9362 19.3514 82.4428 19.0804 82.4428 18.4449C82.4428 18.0786 82.2978 17.8053 80.4365 17.623C78.8807 17.4691 77.9225 17.1271 77.9225 15.8827ZM24.4765 9.58535C24.589 9.52051 24.7134 9.48859 24.839 9.48859C24.9663 9.4883 25.0914 9.52168 25.2017 9.58535L31.2329 13.0542C31.4583 13.1841 31.5954 13.4344 31.5954 13.6948V20.6566C31.5956 20.784 31.5623 20.9092 31.4986 21.0196C31.4349 21.13 31.3433 21.2216 31.2329 21.2852L25.2017 24.766C25.0916 24.83 24.9665 24.8637 24.8391 24.8637C24.7117 24.8637 24.5866 24.83 24.4765 24.766L18.4453 21.2852C18.2199 21.1548 18.0826 20.917 18.0826 20.6566V13.6948C18.0826 13.4347 18.2197 13.1841 18.4453 13.0542L24.4765 9.58535ZM60.8329 15.7133C60.8546 15.7012 60.8813 15.7012 60.9053 15.7012L60.9088 15.7012C60.9309 15.7012 60.9453 15.7011 60.9658 15.7131L62.126 16.3901C62.1476 16.4022 62.1656 16.4197 62.1783 16.4409C62.1911 16.462 62.1981 16.4862 62.1986 16.5109V17.8405C62.1981 17.8652 62.1911 17.8893 62.1783 17.9105C62.1656 17.9317 62.1476 17.9492 62.126 17.9613L60.9658 18.6262C60.9228 18.6514 60.8764 18.6514 60.8329 18.6262L59.6726 17.9614C59.6289 17.9364 59.6 17.8905 59.6 17.8405V16.5111C59.6005 16.4863 59.6074 16.4621 59.6201 16.4409C59.6329 16.4196 59.651 16.4021 59.6726 16.3901L60.8329 15.7133Z" fill="white"/>
</svg>
