<svg width="120" height="120" viewBox="0 0 120 120" fill="none" xmlns="http://www.w3.org/2000/svg">
<circle cx="88" cy="29" r="18" fill="#A787FF"/>
<circle cx="19.5" cy="63.5" r="3.5" fill="#FFBD70"/>
<circle cx="65.5" cy="95.5" r="2.5" fill="#F685A1"/>
<path d="M28 80.2035C28 63.7937 28 47.3839 28 30.9742C28.0656 30.7157 28.1436 30.4593 28.1969 30.1988C28.8266 27.2163 30.5866 25.2595 33.5075 24.3651C33.9875 24.2174 34.4839 24.121 34.9742 24C51.3839 24 67.7937 24 84.2035 24C84.4292 24.0636 84.6527 24.1415 84.8804 24.1867C88.0106 24.7979 89.99 26.6584 90.8762 29.7045C90.9972 30.1229 91.0772 30.5516 91.1756 30.9762C91.1756 52.6515 91.1756 74.3247 91.1756 96C90.9459 95.8585 90.6854 95.7477 90.4905 95.5672C85.4199 90.8391 80.3554 86.1049 75.2889 81.3707C75.0817 81.1779 74.8725 80.985 74.4541 80.5933C75.1002 82.9173 75.6684 84.9583 76.2489 87.0403C75.9576 87.0751 75.8222 87.1059 75.6889 87.1059C62.2575 87.1079 48.8281 87.1346 35.3967 87.0895C31.9219 87.0772 29.1425 84.7737 28.2995 81.4876C28.1928 81.0609 28.1005 80.6302 28 80.2035ZM67.4696 68.2182C68.1548 69.0674 68.6778 69.8346 69.328 70.4766C69.6686 70.813 70.2347 71.1207 70.6901 71.1084C74.493 71.0058 77.7299 69.572 80.259 66.7085C80.6365 66.2819 80.8929 65.566 80.8723 64.9958C80.6221 58.1139 78.9524 51.5787 75.9002 45.4004C75.7833 45.1625 75.6356 44.902 75.4304 44.7502C72.6592 42.6743 69.5557 41.4498 66.0871 41.218C65.7897 41.1975 65.48 41.3923 65.1764 41.4867C66.1507 42.0508 67.0943 42.3441 67.9968 42.7256C68.9076 43.1092 69.7998 43.5441 70.6634 44.024C71.4921 44.4835 72.2736 45.0291 73.0777 45.5378C63.9292 41.6528 54.8649 41.5051 45.7533 45.5809C47.0887 44.6907 48.4281 43.8169 49.8578 43.1338C51.2937 42.4467 52.8219 41.9482 54.309 41.3677C54.2967 41.2816 54.2844 41.1975 54.2721 41.1113C53.9582 41.0949 53.6403 41.0334 53.3306 41.0662C50.1081 41.4067 47.1543 42.4774 44.537 44.4076C44.1985 44.6579 43.9072 45.0332 43.7185 45.4127C40.6314 51.6546 38.9864 58.2595 38.7874 65.2193C38.7771 65.5886 38.9248 66.0398 39.1566 66.3249C41.7227 69.4633 45.0375 71.1269 49.1009 71.2417C49.3799 71.2499 49.7635 71.1781 49.9276 70.9915C50.6578 70.1546 51.3286 69.2644 52.0321 68.3741C48.1348 66.5075 47.2528 65.9065 46.1574 64.2676C55.4002 69.209 64.4667 69.3382 73.5228 64.3291C71.9844 66.3229 69.9557 67.5003 67.4696 68.2182Z" fill="white"/>
<path d="M56.7382 58.3203C56.7095 60.5807 54.9003 62.3715 52.685 62.3366C50.4635 62.2997 48.6749 60.4392 48.722 58.2157C48.7672 55.9921 50.5989 54.2732 52.8778 54.3163C55.1711 54.3573 56.7669 56.0127 56.7382 58.3203Z" fill="white"/>
<path d="M69.8644 58.3159C69.8562 60.5271 68.1742 62.3302 66.1558 62.2932C64.1702 62.2543 62.5395 60.4738 62.517 58.3221C62.4964 56.1273 64.1579 54.3242 66.203 54.3242C68.2706 54.3242 69.8726 56.0719 69.8644 58.3159Z" fill="white"/>
</svg>
