<svg width="24" height="24" viewBox="0 0 24 24" fill="none" xmlns="http://www.w3.org/2000/svg">
<path fill-rule="evenodd" clip-rule="evenodd" d="M12 2C6.47715 2 2 6.47715 2 12C2 17.5228 6.47715 22 12 22C17.5228 22 22 17.5228 22 12C22 6.47715 17.5228 2 12 2ZM16.9244 8.58126C17.3912 8.52023 17.8361 8.38457 18.2499 8.18377C17.9405 8.69005 17.5492 9.13462 17.0984 9.49048C17.1028 9.59882 17.105 9.70766 17.105 9.81711C17.105 13.1533 14.7834 17 10.5381 17C9.23465 17 8.02145 16.5821 7 15.8657C7.18056 15.889 7.36428 15.901 7.55058 15.901C8.63198 15.901 9.62716 15.4974 10.4171 14.8203C9.40705 14.8 8.5547 14.0701 8.26096 13.0672C8.40192 13.0966 8.54648 13.1125 8.69521 13.1125C8.9057 13.1125 9.1096 13.0816 9.30327 13.0239C8.2474 12.7919 7.4518 11.7716 7.4518 10.5485C7.4518 10.5378 7.4518 10.5272 7.45206 10.5167C7.76324 10.7058 8.11913 10.8194 8.49747 10.8325C7.87816 10.3798 7.47068 9.60707 7.47068 8.7312C7.47068 8.26853 7.58453 7.8349 7.78321 7.46205C8.9216 8.98942 10.6223 9.99449 12.5405 10.0998C12.5011 9.915 12.4807 9.72231 12.4807 9.52444C12.4807 8.13028 13.5142 7 14.7888 7C15.4527 7 16.0525 7.30652 16.4735 7.79718C16.9993 7.68397 17.4932 7.47393 17.9392 7.18458C17.7669 7.77411 17.4009 8.26883 16.9244 8.58126ZM18.2499 8.18377C18.25 8.18376 18.25 8.18375 18.25 8.18374H18.25C18.25 8.18375 18.25 8.18376 18.2499 8.18377Z" fill="white"/>
</svg>
