<svg width="25" height="25" viewBox="0 0 25 25" fill="none" xmlns="http://www.w3.org/2000/svg">
<path fill-rule="evenodd" clip-rule="evenodd" d="M12.5 0C5.59644 0 0 5.59644 0 12.5C0 19.4036 5.59644 25 12.5 25C19.4036 25 25 19.4036 25 12.5C25 5.59644 19.4036 0 12.5 0ZM5 9.91873C5 7.89255 6.39477 6.25 8.11531 6.25H16.8847C18.6052 6.25 20 7.89255 20 9.91873V15.0813C20 17.1075 18.6052 18.75 16.8847 18.75H8.11531C6.39477 18.75 5 17.1075 5 15.0813V9.91873ZM10.6761 15.055L14.7778 12.7512C14.9012 12.6819 14.9033 12.4759 14.7814 12.4032L10.6797 9.95537C10.5701 9.89 10.4406 9.98372 10.4406 10.1283V14.8799C10.4406 15.0225 10.5668 15.1164 10.6761 15.055Z" fill="#A3A8B8"/>
</svg>
