<svg width="740" height="580" fill="none" xmlns="http://www.w3.org/2000/svg">
    <g filter="url(#a)">
        <path d="M60 112a8 8 0 0 1 8-8h604a8 8 0 0 1 8 8v333a8 8 0 0 1-8 8H68a8 8 0 0 1-8-8V112Z" fill="#22273C"/>
        <path d="M68 104.5h604c4.1 0 7.5 3.4 7.5 7.5v333c0 4.1-3.4 7.5-7.5 7.5H68a7.5 7.5 0 0 1-7.5-7.5V112c0-4.1 3.4-7.5 7.5-7.5Z" stroke="#373D57"/>
    </g>
    <path d="M320.3 125.4v4.4l-3-4.4h-.7v5.6h.7v-4.4l3 4.4h.7v-5.6h-.7Zm1.7 3.4c0 1.4.9 2.3 2 2.3.8 0 1.4-.4 1.7-1v.9h.7v-4.4h-.7v.8c-.3-.4-.8-.9-1.7-.9-1.1 0-2 1-2 2.3Zm3.7 0c0 1-.7 1.6-1.5 1.6s-1.5-.6-1.5-1.6.7-1.6 1.5-1.6 1.5.6 1.5 1.6Zm8.3 2.2h.7v-2.6c0-1.2-.8-1.9-1.8-1.9-.7 0-1.3.4-1.5 1-.3-.6-1-1-1.6-1-.6 0-1.1.3-1.4.7v-.6h-.8v4.4h.8v-2.4c0-1 .5-1.4 1.2-1.4s1.2.4 1.2 1.3v2.5h.7v-2.4c0-1 .5-1.4 1.3-1.4.7 0 1.2.4 1.2 1.3v2.5Zm3.8-3.8c.7 0 1.3.4 1.3 1.3h-2.7c0-.9.6-1.3 1.4-1.3Zm2 2.4h-.8c-.1.5-.6.9-1.2.9-.8 0-1.4-.5-1.4-1.4h3.5v-.5a2 2 0 0 0-2.1-2c-1.3 0-2.2.8-2.2 2.2 0 1.4 1 2.3 2.2 2.3 1 0 1.8-.7 2-1.5Z" fill="#868A9E"/>
    <path d="M500 142H320a4 4 0 0 0-4 4v16a4 4 0 0 0 4 4h180a4 4 0 0 0 4-4v-16a4 4 0 0 0-4-4Z" fill="#15192C" stroke="#2C3249"/>
    <path d="M325.4 154.8c0 1.8 1.2 2.6 2.6 2.6 1.5 0 2.7-.8 2.7-2.6v-4.4h-1v4.4c0 1.3-.6 1.8-1.7 1.8-1 0-1.7-.5-1.7-1.8v-4.4h-.9v4.4Zm10.7 1c0-1.9-3.2-1.2-3.2-2.5 0-.4.4-.7 1-.7.8 0 1.2.4 1.3.9h.9c0-1-.9-1.7-2.1-1.7-1.2 0-2 .7-2 1.5 0 2 3.2 1.3 3.2 2.6 0 .4-.4.8-1 .8-.9 0-1.3-.4-1.4-1h-1c.1 1 1 1.7 2.3 1.7 1.2 0 2-.6 2-1.5Zm3.6-3.2c1 0 1.8.5 1.8 1.6H338c.1-1 .8-1.6 1.7-1.6Zm2.6 3h-1c-.2.7-.7 1-1.5 1-1 0-1.7-.5-1.8-1.6h4.4v-.6c0-1.5-1-2.6-2.6-2.6s-2.7 1-2.7 2.8c0 1.7 1.1 2.8 2.7 2.8 1.3 0 2.2-.7 2.5-1.7Zm2.2-1.2c0-1.3.7-1.7 1.5-1.7h.3v-1c-.9 0-1.5.5-1.8 1v-.8h-.9v5.5h1v-3Z" fill="#53DBEE"/>
    <path d="M318.4 186.4h-1.8v5.6h1.8c1.8 0 3-1 3-2.8 0-1.7-1.2-2.8-3-2.8Zm-1 5V187h1c1.4 0 2.2.9 2.2 2.2 0 1.4-.8 2.2-2.2 2.2h-1Zm4.9.6h.7v-4.4h-.7v4.4Zm.3-5.1c.3 0 .5-.2.5-.5s-.2-.5-.5-.5c-.2 0-.4.2-.4.5s.2.5.4.5Zm4.8 4c0-1.7-2.6-1-2.6-2.1 0-.4.3-.6.9-.6.6 0 .9.3 1 .7h.7c0-.8-.7-1.4-1.7-1.4s-1.6.6-1.6 1.3c0 1.6 2.6 1 2.6 2 0 .4-.3.7-1 .7-.5 0-1-.4-1-.8h-.7c0 .8.8 1.4 1.8 1.4s1.6-.6 1.6-1.3Zm1.7-2.5v-.8h-.7v6.5h.7v-3c.3.5.9 1 1.7 1 1.2 0 2-1 2-2.3 0-1.4-.8-2.3-2-2.3-.8 0-1.4.5-1.7 1Zm3 1.4c0 1-.7 1.6-1.5 1.6s-1.5-.6-1.5-1.6.7-1.6 1.5-1.6 1.5.6 1.5 1.6Zm1.7 2.2h.8v-6h-.8v6Zm1.7-2.2c0 1.4 1 2.3 2.1 2.3.8 0 1.4-.4 1.6-1v.9h.8v-4.4h-.8v.8c-.2-.4-.8-.9-1.6-.9-1.2 0-2 1-2 2.3Zm3.7 0c0 1-.7 1.6-1.5 1.6s-1.4-.6-1.4-1.6.6-1.6 1.4-1.6c.8 0 1.5.6 1.5 1.6Zm3.7 1.4-1.4-3.6h-.8l1.8 4.4-1 2h.8l2.7-6.4h-.8l-1.3 3.6Zm8.6-4.8v4.4l-3-4.4h-.7v5.6h.8v-4.4l2.9 4.4h.7v-5.6h-.7Zm1.7 3.4c0 1.4.9 2.3 2 2.3.9 0 1.4-.4 1.7-1v.9h.7v-4.4h-.7v.8c-.2-.4-.8-.9-1.6-.9-1.2 0-2.1 1-2.1 2.3Zm3.7 0c0 1-.7 1.6-1.5 1.6s-1.5-.6-1.5-1.6.7-1.6 1.5-1.6 1.5.6 1.5 1.6Zm8.3 2.2h.7v-2.6c0-1.2-.8-1.9-1.8-1.9-.6 0-1.3.4-1.5 1-.3-.6-.9-1-1.6-1-.6 0-1.1.3-1.4.7v-.6h-.7v4.4h.7v-2.4c0-1 .5-1.4 1.2-1.4.8 0 1.2.4 1.2 1.3v2.5h.8v-2.4c0-1 .5-1.4 1.2-1.4s1.2.4 1.2 1.3v2.5Zm3.8-3.8c.7 0 1.4.4 1.4 1.3h-2.8c0-.9.7-1.3 1.4-1.3Zm2 2.4h-.8c-.1.5-.5.9-1.2.9s-1.4-.5-1.4-1.4h3.5v-.5a2 2 0 0 0-2-2c-1.4 0-2.3.8-2.3 2.2 0 1.4 1 2.3 2.2 2.3 1.1 0 1.8-.7 2-1.5Z" fill="#868A9E"/>
    <path d="M500 203H320a4 4 0 0 0-4 4v16a4 4 0 0 0 4 4h180a4 4 0 0 0 4-4v-16a4 4 0 0 0-4-4Z" fill="#15192C" stroke="#2C3249"/>
    <path d="M325.4 215.8c0 1.8 1.2 2.6 2.6 2.6 1.5 0 2.7-.8 2.7-2.6v-4.4h-1v4.4c0 1.3-.6 1.8-1.7 1.8-1 0-1.7-.5-1.7-1.8v-4.4h-.9v4.4Zm10.7 1c0-1.9-3.2-1.2-3.2-2.5 0-.4.4-.7 1-.7.8 0 1.2.4 1.3.9h.9c0-1-.9-1.7-2.1-1.7-1.2 0-2 .7-2 1.5 0 2 3.2 1.3 3.2 2.6 0 .4-.4.8-1 .8-.9 0-1.3-.4-1.4-1h-1c.1 1 1 1.7 2.3 1.7 1.2 0 2-.6 2-1.5Zm3.6-3.2c1 0 1.8.5 1.8 1.6H338c.1-1 .8-1.6 1.7-1.6Zm2.6 3h-1c-.2.7-.7 1-1.5 1-1 0-1.7-.5-1.8-1.6h4.4v-.6c0-1.5-1-2.6-2.6-2.6s-2.7 1-2.7 2.8c0 1.7 1.1 2.8 2.7 2.8 1.3 0 2.2-.7 2.5-1.7Zm2.2-1.2c0-1.3.7-1.7 1.5-1.7h.3v-1c-.9 0-1.5.5-1.8 1v-.8h-.9v5.5h1v-3Z" fill="#fff"/>
    <path d="M660 264H320a4 4 0 0 0-4 4v56a4 4 0 0 0 4 4h340a4 4 0 0 0 4-4v-56a4 4 0 0 0-4-4Z" fill="#15192C" stroke="#2C3249"/>
    <path d="M324.3 276.8h2v6.2h.9v-6.2h1.9v-.8h-4.8v.8Zm5.9 6.2h.9v-3c0-1.2.6-1.8 1.6-1.8.9 0 1.5.6 1.5 1.7v3.1h.9v-3.2c0-1.6-1-2.4-2.2-2.4-.8 0-1.4.3-1.8 1v-2.8h-1v7.4Zm6.4 0h.9v-5.5h-1v5.5Zm.4-6.4c.4 0 .6-.2.6-.6 0-.3-.2-.6-.6-.6-.3 0-.6.3-.6.6 0 .4.3.6.6.6Zm6 5c0-2-3.2-1.3-3.2-2.6 0-.5.4-.8 1-.8.8 0 1.2.4 1.2 1h1c-.1-1.1-1-1.8-2.1-1.8-1.3 0-2 .7-2 1.6 0 2 3.2 1.3 3.2 2.5 0 .5-.4.8-1.1.8-.8 0-1.3-.4-1.3-1h-1c.1 1 1 1.8 2.3 1.8 1.2 0 2-.7 2-1.6Zm4 1.4h.8v-5.5h-.9v5.5Zm.4-6.4c.3 0 .6-.2.6-.6 0-.3-.3-.6-.6-.6-.4 0-.6.3-.6.6 0 .4.2.6.6.6Zm6 5c-.1-2-3.3-1.3-3.3-2.6 0-.5.4-.8 1-.8.8 0 1.2.4 1.3 1h.9c0-1.1-.9-1.8-2-1.8-1.3 0-2.1.7-2.1 1.6 0 2 3.2 1.3 3.2 2.5 0 .5-.4.8-1 .8-.9 0-1.3-.4-1.4-1h-1c.1 1 1 1.8 2.3 1.8 1.2 0 2-.7 2-1.6Zm3.5-1.4c0 1.7 1.2 2.9 2.6 2.9 1 0 1.8-.5 2-1.1v1h1v-5.5h-1v1c-.2-.6-1-1-2-1-1.4 0-2.6 1-2.6 2.7Zm4.7 0c0 1.3-.9 2-1.9 2-1 0-1.8-.7-1.8-2s.8-2 1.8-2 1.9.8 1.9 2Zm4.8 0c0 1.7 1 2.9 2.6 2.9 1 0 1.7-.5 2-1.1v1h1v-7.4h-1v2.9c-.4-.6-1.2-1-2-1-1.5 0-2.6 1-2.6 2.7Zm4.6 0c0 1.3-.9 2-1.9 2-1 0-1.8-.7-1.8-2s.8-2 1.8-2 1.9.8 1.9 2Zm4.8-2c1 0 1.7.6 1.7 1.7h-3.4c0-1.1.8-1.7 1.7-1.7Zm2.6 3.1h-1c-.2.6-.7 1-1.6 1-.9 0-1.7-.6-1.7-1.7h4.3v-.6c0-1.4-1-2.6-2.6-2.6s-2.7 1.1-2.7 2.9c0 1.7 1.2 2.8 2.7 2.8 1.4 0 2.3-.8 2.6-1.8Zm5.2.2c0-2-3.2-1.2-3.2-2.5 0-.5.4-.8 1-.8.8 0 1.2.4 1.2 1h1c-.1-1.1-1-1.8-2.1-1.8-1.2 0-2 .7-2 1.6 0 2 3.2 1.3 3.2 2.5 0 .5-.4.8-1.1.8-.8 0-1.2-.4-1.3-1h-1c.1 1 1 1.8 2.3 1.8 1.2 0 2-.7 2-1.6Zm1-1.3c0 1.8 1 2.9 2.6 2.9 1.4 0 2.3-.8 2.5-1.9h-1c-.1.7-.7 1.1-1.5 1.1-1 0-1.7-.7-1.7-2 0-1.4.7-2.1 1.7-2.1.8 0 1.4.4 1.6 1h1c-.3-1-1.2-1.8-2.6-1.8-1.5 0-2.7 1.1-2.7 2.9Zm7.3-.2c0-1.3.6-1.6 1.5-1.6h.2v-1c-.8 0-1.4.4-1.7 1v-.9h-1v5.5h1v-3Zm2.8 3h.9v-5.5h-1v5.5Zm.5-6.4c.3 0 .6-.2.6-.6 0-.3-.3-.6-.6-.6-.4 0-.7.3-.7.6 0 .4.3.6.7.6Zm2.9 2v-1h-1v8h1V282c.3.6 1 1 2 1 1.5 0 2.6-1 2.6-2.8 0-1.7-1.1-2.8-2.6-2.8-1 0-1.7.6-2 1.1Zm3.7 1.6c0 1.3-.9 2-1.9 2-1 0-1.8-.7-1.8-2 0-1.2.8-2 1.8-2s1.9.8 1.9 2Zm2.3 1.3c0 1.1.6 1.5 1.5 1.5h.9v-.8h-.7c-.6 0-.8-.2-.8-.7v-3.2h1.5v-.8H405v-1.4h-.9v1.4h-.7v.8h.7v3.2Zm3.5 1.5h.9v-5.5h-1v5.5Zm.4-6.4c.4 0 .6-.2.6-.6 0-.3-.2-.6-.6-.6-.3 0-.6.3-.6.6 0 .4.3.6.6.6Zm7.2 3.6c0-1.7-1.2-2.8-2.8-2.8-1.5 0-2.7 1.1-2.7 2.9 0 1.7 1.2 2.8 2.7 2.8 1.6 0 2.8-1.1 2.8-2.9Zm-4.6 0c0-1.3.9-2 1.8-2 1 0 1.9.7 1.9 2 0 1.4-1 2-1.9 2-1 0-1.8-.6-1.8-2Zm9.8 2.8h1v-3.2c0-1.6-1-2.4-2.3-2.4a2 2 0 0 0-1.8.9v-.8h-.9v5.5h1v-3c0-1.2.6-1.8 1.5-1.8 1 0 1.5.6 1.5 1.7v3.1Zm10.3-2.8c0-1.7-1.2-2.8-2.8-2.8-1.5 0-2.8 1.1-2.8 2.9 0 1.7 1.2 2.8 2.8 2.8 1.5 0 2.8-1.1 2.8-2.9Zm-4.6 0c0-1.3.8-2 1.8-2s1.8.7 1.8 2c0 1.4-.9 2-1.8 2-1 0-1.8-.6-1.8-2Zm6 2.8h.8v-4.7h1.2v-.8h-1.2v-.4c0-.7.3-1 1.1-1v-.7c-1.4 0-2 .5-2 1.7v.4h-.7v.8h.7v4.7Zm6-1.5c0 1.1.5 1.5 1.4 1.5h.9v-.8h-.7c-.6 0-.8-.2-.8-.7v-3.2h1.5v-.8h-1.5v-1.4h-.9v1.4h-.7v.8h.7v3.2Zm3.4 1.5h.9v-3c0-1.2.6-1.8 1.5-1.8 1 0 1.6.6 1.6 1.7v3.1h.9v-3.2c0-1.6-1-2.4-2.2-2.4-.8 0-1.5.3-1.8 1v-2.8h-1v7.4Zm8.7-4.8c1 0 1.7.6 1.7 1.7h-3.4c0-1.1.8-1.7 1.7-1.7Zm2.6 3.1h-1c-.2.6-.7 1-1.6 1-.9 0-1.7-.6-1.7-1.7h4.3v-.6c0-1.4-1-2.6-2.6-2.6s-2.7 1.1-2.7 2.9c0 1.7 1.2 2.8 2.7 2.8 1.4 0 2.3-.8 2.6-1.8Zm4 1.7h.8v-5.5h-.9v5.5Zm.4-6.4c.3 0 .6-.2.6-.6 0-.3-.3-.6-.6-.6s-.6.3-.6.6c0 .4.3.6.6.6Zm2.2 4.9c0 1.1.5 1.5 1.5 1.5h.8v-.8h-.6c-.6 0-.8-.2-.8-.7v-3.2h1.4v-.8h-1.4v-1.4h-1v1.4h-.6v.8h.7v3.2Zm5.8-3.3c1 0 1.7.6 1.7 1.7h-3.5c.1-1.1.9-1.7 1.8-1.7Zm2.5 3.1h-1c-.2.6-.7 1-1.5 1-1 0-1.7-.6-1.8-1.7h4.4v-.6c0-1.4-1-2.6-2.6-2.6s-2.7 1.1-2.7 2.9c0 1.7 1.1 2.8 2.7 2.8 1.4 0 2.2-.8 2.5-1.8Zm9.2 1.7h1v-3.2c0-1.6-1-2.4-2.3-2.4a2 2 0 0 0-2 1.2c-.3-.8-1-1.2-2-1.2a2 2 0 0 0-1.7 1v-.9h-.9v5.5h1v-3c0-1.2.6-1.8 1.5-1.8s1.5.6 1.5 1.7v3.1h.9v-3c0-1.2.6-1.8 1.5-1.8 1 0 1.5.6 1.5 1.7v3.1Zm3.3-.6c0-.3-.2-.6-.6-.6-.3 0-.6.3-.6.6a.6.6 0 1 0 1.2 0Zm4 .6h.8v-7h-.9v7Zm2.6-1.5c0 1.1.5 1.5 1.5 1.5h.8v-.8h-.7c-.5 0-.7-.2-.7-.7v-3.2h1.4v-.8h-1.4v-1.4h-1v1.4h-.6v.8h.7v3.2Zm5.7-1.3c0 1.8 1.1 2.9 2.7 2.9 1.4 0 2.3-.8 2.5-1.9h-1c-.1.7-.7 1.1-1.5 1.1-1 0-1.7-.7-1.7-2 0-1.4.7-2.1 1.7-2.1.8 0 1.4.4 1.6 1h1c-.3-1-1.2-1.8-2.6-1.8-1.6 0-2.7 1.1-2.7 2.9Zm6.1 0c0 1.7 1.1 2.9 2.6 2.9 1 0 1.7-.5 2-1.1v1h1v-5.5h-1v1c-.3-.6-1-1-2-1-1.5 0-2.6 1-2.6 2.7Zm4.6 0c0 1.3-.8 2-1.8 2s-1.9-.7-1.9-2 .9-2 1.9-2c1 0 1.9.8 1.9 2Zm6.5 2.8h1v-3.2c0-1.6-1-2.4-2.3-2.4a2 2 0 0 0-1.8.9v-.8h-.9v5.5h1v-3c0-1.2.6-1.8 1.5-1.8 1 0 1.5.6 1.5 1.7v3.1Zm5 0h1v-3c0-1.2.6-1.8 1.5-1.8 1 0 1.6.6 1.6 1.7v3.1h.9v-3.2c0-1.6-1-2.4-2.2-2.4-.8 0-1.5.3-1.8 1v-2.8h-1v7.4Zm11.7-2.8c0-1.7-1.2-2.8-2.8-2.8-1.6 0-2.8 1.1-2.8 2.9 0 1.7 1.2 2.8 2.8 2.8 1.5 0 2.8-1.1 2.8-2.9Zm-4.6 0c0-1.3.8-2 1.8-2s1.8.7 1.8 2c0 1.4-.9 2-1.8 2-1 0-1.8-.6-1.8-2Zm5.8 2.8h.9v-7.4h-1v7.4Zm2-2.8c0 1.7 1.2 2.9 2.7 2.9 1 0 1.7-.5 2-1.1v1h1v-7.4h-1v2.9c-.4-.6-1.1-1-2-1-1.5 0-2.6 1-2.6 2.7Zm4.7 0c0 1.3-.8 2-1.8 2s-1.9-.7-1.9-2 .9-2 1.9-2c1 0 1.8.8 1.8 2Zm13 2.8h1v-3.2c0-1.6-1-2.4-2.3-2.4a2 2 0 0 0-1.9 1.2c-.4-.8-1.1-1.2-2-1.2a2 2 0 0 0-1.7 1v-.9h-1v5.5h1v-3c0-1.2.6-1.8 1.5-1.8 1 0 1.5.6 1.5 1.7v3.1h1v-3c0-1.2.5-1.8 1.5-1.8.9 0 1.5.6 1.5 1.7v3.1Zm7.3-5.5h-.9v3c0 1.2-.6 1.8-1.6 1.8-.9 0-1.5-.6-1.5-1.7v-3h-.9v3.1c0 1.6 1 2.4 2.3 2.4a2 2 0 0 0 1.7-1v.9h1v-5.5Zm1.5 5.5h1v-7.4h-1v7.4Zm2.7-1.5c0 1.1.6 1.5 1.5 1.5h.8v-.8h-.6c-.6 0-.8-.2-.8-.7v-3.2h1.4v-.8h-1.4v-1.4h-.9v1.4h-.7v.8h.7v3.2Zm3.5 1.5h.9v-5.5h-1v5.5Zm.4-6.4c.3 0 .6-.2.6-.6 0-.3-.3-.6-.6-.6s-.6.3-.6.6c0 .4.3.6.6.6Zm3 2v-1h-1v8h1V282c.3.6 1 1 2 1 1.4 0 2.6-1 2.6-2.8 0-1.7-1.2-2.8-2.6-2.8-1 0-1.7.6-2 1.1Zm3.6 1.6c0 1.3-.8 2-1.8 2s-1.9-.7-1.9-2c0-1.2.9-2 1.9-2 1 0 1.8.8 1.8 2Zm2.2 2.8h.9v-7.4h-1v7.4Zm4.8-4.8c.9 0 1.7.6 1.7 1.7h-3.5c.1-1.1.9-1.7 1.8-1.7Zm2.5 3.1h-1c-.2.6-.7 1-1.5 1-1 0-1.7-.6-1.8-1.7h4.4v-.6c0-1.4-1-2.6-2.6-2.6s-2.7 1.1-2.7 2.9c0 1.7 1.1 2.8 2.7 2.8 1.4 0 2.2-.8 2.5-1.8Zm4 1.7h1v-7.4h-1v7.4Zm2.5 0h.9v-5.5h-1v5.5Zm.4-6.4c.4 0 .6-.2.6-.6 0-.3-.2-.6-.6-.6-.3 0-.6.3-.6.6 0 .4.3.6.6.6Zm6 6.4h1v-3.2c0-1.6-1-2.4-2.3-2.4a2 2 0 0 0-1.8.9v-.8h-.9v5.5h1v-3c0-1.2.6-1.8 1.5-1.8 1 0 1.5.6 1.5 1.7v3.1Zm4.7-4.8c1 0 1.8.6 1.8 1.7h-3.5c.1-1.1.9-1.7 1.7-1.7Zm2.6 3.1h-1c-.2.6-.7 1-1.5 1-1 0-1.7-.6-1.8-1.7h4.4v-.6c0-1.4-1-2.6-2.6-2.6s-2.7 1.1-2.7 2.9c0 1.7 1.1 2.8 2.7 2.8 1.3 0 2.2-.8 2.5-1.8Zm5.3.2c0-2-3.3-1.2-3.3-2.5 0-.5.4-.8 1.1-.8.7 0 1.2.4 1.2 1h1c-.2-1.1-1-1.8-2.2-1.8-1.2 0-2 .7-2 1.6 0 2 3.3 1.3 3.3 2.5 0 .5-.4.8-1.2.8-.7 0-1.2-.4-1.2-1h-1c0 1 1 1.8 2.3 1.8 1.2 0 2-.7 2-1.6Zm2.1 1c0-.4-.2-.7-.6-.7-.3 0-.6.3-.6.6a.6.6 0 1 0 1.2 0ZM318.4 247.4h-1.8v5.6h1.8c1.8 0 3-1 3-2.8 0-1.7-1.2-2.8-3-2.8Zm-1 5V248h1c1.4 0 2.2.9 2.2 2.2 0 1.4-.8 2.2-2.2 2.2h-1Zm6.7-3.2c.8 0 1.4.4 1.4 1.3h-2.7c0-.9.6-1.3 1.3-1.3Zm2 2.4h-.7c-.2.5-.6.9-1.2.9-.8 0-1.4-.5-1.5-1.4h3.5v-.5a2 2 0 0 0-2-2c-1.3 0-2.2.8-2.2 2.2 0 1.4 1 2.3 2.2 2.3 1 0 1.8-.7 2-1.5Zm4.3.2c0-1.6-2.6-1-2.6-2 0-.4.3-.6.9-.6.5 0 .9.3 1 .7h.6c0-.8-.6-1.4-1.6-1.4s-1.6.6-1.6 1.3c0 1.6 2.6 1 2.6 2 0 .4-.3.7-1 .7-.5 0-1-.4-1-.8h-.7c0 .8.8 1.4 1.8 1.4s1.6-.6 1.6-1.3Zm.7-1c0 1.4 1 2.3 2.2 2.3 1 0 1.8-.6 2-1.5h-.8c-.1.5-.6.9-1.2.9-.8 0-1.4-.6-1.4-1.7 0-1 .6-1.6 1.4-1.6.6 0 1 .3 1.2.8h.8c-.2-.9-1-1.5-2-1.5-1.3 0-2.2 1-2.2 2.3Zm5.9-.2c0-1 .5-1.3 1.2-1.3h.2v-.8c-.7 0-1.2.3-1.4.8v-.7h-.7v4.4h.7v-2.4Zm2.3 2.4h.7v-4.4h-.7v4.4Zm.3-5.1c.3 0 .5-.2.5-.5s-.2-.5-.5-.5c-.2 0-.5.2-.5.5s.3.5.5.5Zm2.4 1.5v-.8h-.8v6.5h.8v-3c.2.5.8 1 1.6 1 1.2 0 2-1 2-2.3 0-1.4-.8-2.3-2-2.3-.8 0-1.4.5-1.6 1Zm3 1.4c0 1-.8 1.6-1.6 1.6s-1.4-.6-1.4-1.6.6-1.6 1.4-1.6c.8 0 1.5.6 1.5 1.6Zm1.8 1c0 .9.4 1.2 1.2 1.2h.7v-.6h-.6c-.4 0-.6-.2-.6-.6v-2.6h1.2v-.6h-1.2v-1h-.7v1h-.6v.6h.6v2.6Zm2.7 1.2h.8v-4.4h-.8v4.4Zm.4-5.1c.3 0 .5-.2.5-.5s-.2-.5-.5-.5-.5.2-.5.5.2.5.5.5Zm5.8 2.9c0-1.4-1-2.3-2.2-2.3-1.3 0-2.3 1-2.3 2.3 0 1.4 1 2.3 2.2 2.3 1.3 0 2.3-1 2.3-2.3Zm-3.7 0c0-1.1.7-1.6 1.4-1.6.8 0 1.5.5 1.5 1.6s-.7 1.6-1.5 1.6c-.7 0-1.4-.5-1.4-1.6Zm7.8 2.2h.8v-2.6c0-1.2-.8-1.9-1.8-1.9-.6 0-1.2.3-1.4.7v-.6h-.8v4.4h.8v-2.4c0-1 .5-1.4 1.2-1.4.8 0 1.2.4 1.2 1.3v2.5Z" fill="#868A9E"/>
    <path d="m652 317.5 2-2m0-3-5 5" stroke="#fff" stroke-opacity=".5"/>
    <g filter="url(#b)">
        <path d="M292 72H68a8 8 0 0 0-8 8v420a8 8 0 0 0 8 8h224a8 8 0 0 0 8-8V80a8 8 0 0 0-8-8Z" fill="#22273C"/>
        <path d="M287.8 88H72.2a4 4 0 0 0-4 4v24a4 4 0 0 0 4 4h215.6a4 4 0 0 0 4-4V92a4 4 0 0 0-4-4Z" fill="#15192C" stroke="#373D57"/>
        <path fill-rule="evenodd" clip-rule="evenodd" d="M79.5 103.3a3.8 3.8 0 1 1 7.6 0 3.8 3.8 0 0 1-7.6 0Zm3.8-5.3a5.3 5.3 0 1 0 3.1 9.5l2 2a.7.7 0 1 0 1-1.1l-1.9-2c.7-.8 1-2 1-3.1 0-3-2.3-5.3-5.2-5.3Z" fill="#A3A8B8"/>
        <path d="M103.3 106.1c0-2.6-3.7-1.5-3.7-3.3 0-.7.5-1.1 1.3-1 .8 0 1.3.5 1.3 1h1c0-1.1-1-1.9-2.3-1.9-1.3 0-2.3.8-2.3 2 0 2.6 3.8 1.4 3.8 3.2 0 .7-.5 1.2-1.4 1.2-1 0-1.4-.6-1.4-1.2h-1c0 1.2 1 2 2.4 2 1.5 0 2.3-1 2.3-2Zm3.7-2.9c1 0 1.7.6 1.7 1.7h-3.4c0-1.1.8-1.7 1.7-1.7Zm2.5 3.1h-1c-.1.6-.7 1-1.5 1-1 0-1.7-.6-1.8-1.7h4.4v-.5c0-1.5-1-2.7-2.6-2.7s-2.7 1.1-2.7 2.8c0 1.8 1.2 2.9 2.7 2.9 1.4 0 2.3-.8 2.5-1.8Zm1-1c0 1.6 1.1 2.8 2.6 2.8 1 0 1.7-.5 2-1.1v1h1v-5.5h-1v1c-.3-.5-1-1-2-1-1.5 0-2.6 1-2.6 2.7Zm4.7 0c0 1.2-.9 2-1.9 2-1 0-1.9-.8-1.9-2 0-1.3.9-2 1.9-2 1 0 1.9.7 1.9 2Zm3.3-.3c0-1.3.7-1.6 1.6-1.6h.2v-1c-.9 0-1.5.4-1.8 1v-.9h-.9v5.5h1v-3Zm2.5.3c0 1.7 1.1 2.8 2.7 2.8 1.3 0 2.2-.8 2.5-1.9h-1c-.2.7-.7 1.1-1.5 1.1-1 0-1.8-.7-1.8-2 0-1.4.8-2.1 1.8-2.1.8 0 1.3.4 1.5 1h1c-.3-1-1.2-1.8-2.5-1.8-1.6 0-2.7 1.1-2.7 2.8Zm6.4 2.7h1v-3c0-1.2.6-1.8 1.5-1.8 1 0 1.5.6 1.5 1.7v3.1h1v-3.2c0-1.6-1-2.4-2.3-2.4-.7 0-1.4.3-1.8 1v-2.8h-.9v7.4Z" fill="#A3A8B8"/>
        <path d="M88.7 143.3h-9.4c-.7 0-1.3.6-1.3 1.4v4.6c0 .8.6 1.4 1.3 1.4h9.4c.7 0 1.3-.6 1.3-1.4v-4.6c0-.8-.6-1.4-1.3-1.4ZM80.7 143.3v-2.6a3.3 3.3 0 1 1 6.6 0v2.6" stroke="#fff" stroke-linecap="round" stroke-linejoin="round"/>
        <path d="M105.4 142.1c0 1-.5 1.6-1.8 1.6H102v-3.2h1.6c1.3 0 1.8.6 1.8 1.6Zm-4.5-2.5v8.4h1.1v-3.4h1.3l2 3.4h1.3l-2-3.5c1.3-.3 2-1.3 2-2.4 0-1.4-1-2.5-3-2.5H101Zm13.6 5.1c0-2-1.5-3.4-3.4-3.4a3.2 3.2 0 0 0-3.3 3.4c0 2 1.4 3.4 3.3 3.4s3.4-1.3 3.4-3.4Zm-5.6 0c0-1.7 1-2.4 2.2-2.4 1.2 0 2.2.7 2.2 2.4s-1 2.4-2.2 2.4c-1.1 0-2.2-.7-2.2-2.4Zm7 3.3h1v-8.9h-1v8.9Zm5.8-5.8c1 0 2 .7 2 2h-4.1c0-1.3 1-2 2-2Zm3 3.8h-1.2c-.2.7-.8 1.2-1.8 1.2-1.1 0-2-.7-2.1-2h5.2v-.7a3 3 0 0 0-3.1-3.2c-2 0-3.3 1.3-3.3 3.4 0 2 1.4 3.4 3.3 3.4 1.6 0 2.7-1 3-2.1Zm6.3.2c0-2.3-3.8-1.5-3.8-3 0-.6.4-1 1.2-1 1 0 1.4.5 1.5 1.2h1c0-1.3-1-2-2.4-2-1.5 0-2.4.7-2.4 1.8 0 2.4 3.9 1.5 3.9 3 0 .6-.5 1-1.4 1-1 0-1.5-.5-1.5-1.1h-1.2c.1 1.2 1.2 2 2.7 2 1.5 0 2.4-.8 2.4-1.9Z" fill="#fff"/>
        <path d="m151.3 142-3.3 3.3-3.3-3.3" stroke="#fff" stroke-linecap="round" stroke-linejoin="round"/>
        <path d="M263 136a4 4 0 0 1 4-4h16a4 4 0 0 1 4 4v16a4 4 0 0 1-4 4h-16a4 4 0 0 1-4-4v-16Z" fill="#7950ED"/>
        <path d="M275 139.3v9.4M270.3 144h9.4" stroke="#fff" stroke-width="2" stroke-linecap="round" stroke-linejoin="round"/>
        <path d="M68 172a8 8 0 0 1 8-8h208a8 8 0 0 1 8 8v16a8 8 0 0 1-8 8H76a8 8 0 0 1-8-8v-16Z" fill="#373D57"/>
        <path d="M92.9 181c0 2 1.4 3 3.1 3 1.8 0 3.2-1 3.2-3v-5.4h-1v5.3c0 1.6-1 2.2-2.1 2.2-1.3 0-2.1-.6-2.1-2.2v-5.3h-1.1v5.3Zm12.8 1.2c0-2.3-3.8-1.5-3.8-3 0-.6.5-1 1.3-1s1.3.5 1.4 1.2h1c0-1.3-1-2-2.4-2-1.5 0-2.4.7-2.4 1.8 0 2.4 3.9 1.5 3.9 3 0 .6-.5 1-1.4 1-.9 0-1.5-.5-1.5-1.1h-1.1c0 1.2 1.1 2 2.6 2s2.5-.8 2.5-1.9Zm4.4-4c1.1 0 2 .7 2 2h-4c0-1.3 1-2 2-2Zm3 3.8H112c-.3.7-.9 1.2-1.9 1.2-1 0-2-.7-2.1-2h5.3v-.7a3 3 0 0 0-3.2-3.2c-1.9 0-3.2 1.3-3.2 3.4 0 2 1.4 3.4 3.2 3.4 1.7 0 2.7-1 3-2.1Zm2.7-1.6c0-1.5.8-2 1.9-2h.2v-1.1c-1 0-1.7.5-2 1.2v-1h-1.2v6.5h1.1v-3.6Z" fill="#fff"/>
        <path d="M98.5 220h1.2l-3-8.3h-1.3l-3 8.3h1.1l.7-1.9H98l.6 1.9Zm-1-2.7h-3L96 213l1.6 4.3Zm3.1-.6c0 2 1.4 3.4 3.1 3.4 1.2 0 2-.6 2.5-1.3v1.2h1v-8.9h-1v3.5a2.9 2.9 0 0 0-2.5-1.3c-1.7 0-3.1 1.3-3.1 3.4Zm5.6 0c0 1.5-1 2.4-2.3 2.4-1.2 0-2.2-.9-2.2-2.4 0-1.6 1-2.4 2.2-2.4 1.2 0 2.3.9 2.3 2.4Zm12.4 3.3h1v-3.9c0-1.9-1-2.8-2.6-2.8-1 0-2 .5-2.3 1.5-.4-1-1.3-1.5-2.4-1.5-.9 0-1.7.4-2 1v-.9H109v6.6h1.1v-3.6c0-1.4.8-2.1 1.9-2.1 1 0 1.8.6 1.8 2v3.7h1v-3.6c0-1.4.8-2.1 2-2.1 1 0 1.7.6 1.7 2v3.7Zm2.9 0h1v-6.6h-1v6.6Zm.5-7.6c.4 0 .8-.4.8-.8s-.4-.7-.8-.7-.7.3-.7.7c0 .4.3.8.7.8Zm7.2 7.6h1.1v-3.9c0-1.9-1.1-2.8-2.7-2.8-.8 0-1.6.4-2 1v-.9h-1.2v6.6h1.1v-3.6c0-1.5.8-2.1 2-2.1 1 0 1.7.6 1.7 2v3.7ZM93 256h1v-6.2l2.8 6.2h.8l2.7-6.2v6.2h1.1v-8.3h-1.2l-3 6.9-3.1-6.9h-1.2v8.3Zm9.9-3.3c0 2 1.3 3.4 3 3.4 1.3 0 2.1-.6 2.5-1.3v1.2h1.1v-6.6h-1v1.2a2.7 2.7 0 0 0-2.5-1.3c-1.8 0-3.1 1.3-3.1 3.4Zm5.5 0c0 1.5-1 2.4-2.2 2.4-1.2 0-2.2-.9-2.2-2.4 0-1.6 1-2.4 2.2-2.4 1.2 0 2.2.9 2.2 2.4Zm7.8 3.3h1v-3.9c0-1.9-1.1-2.8-2.6-2.8-1 0-1.7.4-2.1 1v-.9h-1.1v6.6h1v-3.6c0-1.5.8-2.1 2-2.1 1 0 1.8.6 1.8 2v3.7Zm2.4-3.3c0 2 1.4 3.4 3.1 3.4 1.3 0 2.1-.6 2.5-1.3v1.2h1.1v-6.6h-1v1.2a2.7 2.7 0 0 0-2.5-1.3c-1.8 0-3.2 1.3-3.2 3.4Zm5.6 0c0 1.5-1 2.4-2.2 2.4-1.2 0-2.2-.9-2.2-2.4 0-1.6 1-2.4 2.2-2.4 1.2 0 2.2.9 2.2 2.4Zm2.5 0c0 2 1.4 3.4 3.2 3.4 1.2 0 2-.6 2.4-1.3v1.3c0 1.4-.9 2.2-2 2.2s-1.9-.5-2.1-1.3H127c.2 1.4 1.4 2.2 3.2 2.2 2 0 3.1-1.2 3.1-3v-6.8h-1v1.2a2.7 2.7 0 0 0-2.5-1.3c-1.8 0-3.2 1.3-3.2 3.4Zm5.6 0c0 1.5-1 2.4-2.2 2.4-1.2 0-2.2-.9-2.2-2.4 0-1.6 1-2.4 2.2-2.4 1.2 0 2.2.9 2.2 2.4Zm5.8-2.5c1 0 2 .7 2 2H136c.1-1.3 1-2 2-2Zm3 3.8H140c-.3.7-1 1.2-1.9 1.2-1.1 0-2-.7-2.1-2h5.2v-.7a3 3 0 0 0-3-3.2c-2 0-3.3 1.3-3.3 3.4 0 2 1.3 3.4 3.2 3.4 1.6 0 2.7-1 3-2.1Zm2.7-1.6c0-1.5.8-2 1.8-2h.3v-1.1c-1 0-1.7.5-2.1 1.2v-1h-1v6.5h1v-3.6Z" fill="#A3A8B8"/>
        <path d="M68 280a8 8 0 0 1 8-8h208a8 8 0 0 1 8 8v16a8 8 0 0 1-8 8H76a8 8 0 0 1-8-8v-16Z" fill="#22273C"/>
        <path d="M90.5 292h1.2l-3-8.3h-1.3l-3 8.3h1.1l.7-1.9H90l.6 1.9Zm-1-2.7h-3L88 285l1.6 4.3Zm3.1-.6c0 2 1.4 3.4 3.1 3.4 1.2 0 2-.6 2.5-1.3v1.2h1v-8.9h-1v3.5a2.9 2.9 0 0 0-2.5-1.3c-1.7 0-3.1 1.3-3.1 3.4Zm5.6 0c0 1.5-1 2.4-2.3 2.4-1.2 0-2.2-.9-2.2-2.4 0-1.6 1-2.4 2.2-2.4 1.2 0 2.3.9 2.3 2.4Zm2.5 0c0 2 1.4 3.4 3.1 3.4 1.2 0 2-.6 2.5-1.3v1.2h1v-8.9h-1v3.5a2.9 2.9 0 0 0-2.5-1.3c-1.7 0-3 1.3-3 3.4Zm5.6 0c0 1.5-1 2.4-2.3 2.4-1.2 0-2.2-.9-2.2-2.4 0-1.6 1-2.4 2.2-2.4 1.2 0 2.3.9 2.3 2.4Zm7.2-.3c0-1.5.8-2 1.9-2h.2v-1.1c-1 0-1.7.5-2 1.2v-1h-1.2v6.5h1.1v-3.6Zm9.6.3c0-2-1.4-3.4-3.3-3.4a3.2 3.2 0 0 0-3.3 3.4c0 2 1.4 3.4 3.3 3.4 1.8 0 3.3-1.3 3.3-3.4Zm-5.5 0c0-1.7 1-2.4 2.2-2.4 1.1 0 2.2.7 2.2 2.4s-1 2.4-2.2 2.4c-1.2 0-2.2-.7-2.2-2.4Zm7 3.3h1v-8.9h-1v8.9Zm5.7-5.8c1.2 0 2.1.7 2.1 2h-4.1c0-1.3 1-2 2-2Zm3.1 3.8h-1.2c-.2.7-.8 1.2-1.8 1.2-1.1 0-2-.7-2.2-2h5.3v-.7a3 3 0 0 0-3.1-3.2c-2 0-3.3 1.3-3.3 3.4 0 2 1.4 3.4 3.3 3.4 1.6 0 2.7-1 3-2.1Zm9.6 2h1v-3.9c0-1.9-1.1-2.8-2.6-2.8-1 0-1.7.4-2.1 1v-.9h-1.1v6.6h1v-3.6c0-1.5.8-2.1 2-2.1 1 0 1.8.6 1.8 2v3.7Zm2.4-3.3c0 2 1.4 3.4 3.2 3.4 1.2 0 2-.6 2.4-1.3v1.2h1.1v-6.6h-1v1.2a2.7 2.7 0 0 0-2.5-1.3c-1.8 0-3.2 1.3-3.2 3.4Zm5.6 0c0 1.5-1 2.4-2.2 2.4-1.2 0-2.2-.9-2.2-2.4 0-1.6 1-2.4 2.2-2.4 1.2 0 2.2.9 2.2 2.4Zm12.5 3.3h1v-3.9c0-1.9-1.1-2.8-2.6-2.8-1 0-2 .5-2.4 1.5-.4-1-1.3-1.5-2.4-1.5-.8 0-1.6.4-2 1v-.9H154v6.6h1v-3.6c0-1.4.8-2.1 2-2.1 1 0 1.7.6 1.7 2v3.7h1v-3.6c0-1.4.8-2.1 2-2.1 1 0 1.8.6 1.8 2v3.7Zm5.6-5.8c1.1 0 2.1.7 2 2h-4c0-1.3 1-2 2-2Zm3 3.8h-1c-.3.7-1 1.2-2 1.2s-2-.7-2-2h5.2v-.7a3 3 0 0 0-3.1-3.2c-2 0-3.3 1.3-3.3 3.4 0 2 1.4 3.4 3.3 3.4 1.6 0 2.7-1 3-2.1Z" fill="#686F8C"/>
        <path d="M76 303.5c-1 0-2-.2-2.9-.6l-.4 1c1 .4 2.1.6 3.3.6v-1Zm-7-4.6c-.3-1-.5-1.9-.5-2.9h-1c0 1.2.2 2.3.6 3.3l1-.4Zm-.5-2.9v-2h-1v2h1Zm0-6v-4h-1v4h1Zm0-8v-2h-1v2h1Zm0-2c0-1 .2-2 .6-2.9l-1-.4c-.4 1-.6 2.1-.6 3.3h1Zm4.6-7c1-.3 1.9-.5 2.9-.5v-1c-1.2 0-2.3.2-3.3.6l.4 1Zm2.9-.5h2.5v-1H76v1Zm7.4 0h5v-1h-5v1Zm10 0h4.9v-1h-5v1Zm9.8 0h5v-1h-5v1Zm10 0h4.9v-1h-5v1Zm9.8 0h5v-1h-5v1Zm10 0h5v-1h-5v1Zm9.9 0h5v-1h-5v1Zm9.9 0h5v-1h-5v1Zm9.9 0h5v-1h-5v1Zm9.9 0h5v-1h-5v1Zm9.9 0h5v-1h-5v1Zm9.9 0h5v-1h-5v1Zm9.9 0h5v-1h-5v1Zm9.9 0h5v-1h-5v1Zm9.9 0h5v-1h-5v1Zm9.9 0h5v-1h-5v1Zm10 0h4.9v-1h-5v1Zm9.8 0h5v-1h-5v1Zm10 0h4.9v-1h-5v1Zm9.8 0h5v-1h-5v1Zm10 0h2.4v-1h-2.5v1Zm2.4 0c1 0 2 .2 2.9.6l.4-1c-1-.4-2.1-.6-3.3-.6v1Zm7 4.6c.3 1 .5 1.9.5 2.9h1c0-1.2-.2-2.3-.6-3.3l-1 .4Zm.5 2.9v2h1v-2h-1Zm0 6v4h1v-4h-1Zm0 8v2h1v-2h-1Zm0 2c0 1-.2 2-.6 2.9l1 .4c.4-1 .6-2.1.6-3.3h-1Zm-4.6 7c-1 .3-1.9.5-2.9.5v1c1.2 0 2.3-.2 3.3-.6l-.4-1Zm-2.9.5h-2.5v1h2.5v-1Zm-7.4 0h-5v1h5v-1Zm-10 0h-4.9v1h5v-1Zm-9.8 0h-5v1h5v-1Zm-10 0H242v1h5v-1Zm-9.8 0h-5v1h5v-1Zm-10 0h-5v1h5v-1Zm-9.9 0h-5v1h5v-1Zm-9.9 0h-5v1h5v-1Zm-9.9 0h-5v1h5v-1Zm-9.9 0h-5v1h5v-1Zm-9.9 0h-5v1h5v-1Zm-9.9 0h-5v1h5v-1Zm-9.9 0h-5v1h5v-1Zm-9.9 0h-5v1h5v-1Zm-9.9 0h-5v1h5v-1Zm-9.9 0h-5v1h5v-1Zm-10 0h-4.9v1h5v-1Zm-9.8 0h-5v1h5v-1Zm-10 0h-4.9v1h5v-1Zm-9.8 0h-5v1h5v-1Zm-10 0H76v1h2.5v-1ZM76 303a7 7 0 0 1-2.7-.5l-.7 1.8a9 9 0 0 0 3.4.7v-2Zm-6.5-4.3a7 7 0 0 1-.5-2.7h-2a9 9 0 0 0 .7 3.4l1.8-.7ZM69 296v-2h-2v2h2Zm0-6v-4h-2v4h2Zm0-8v-2h-2v2h2Zm0-2c0-1 .2-1.9.5-2.7l-1.8-.7a9 9 0 0 0-.7 3.4h2Zm4.3-6.5a7 7 0 0 1 2.7-.5v-2a9 9 0 0 0-3.4.7l.7 1.8Zm2.7-.5h2.5v-2H76v2Zm7.4 0h5v-2h-5v2Zm10 0h4.9v-2h-5v2Zm9.8 0h5v-2h-5v2Zm10 0h4.9v-2h-5v2Zm9.8 0h5v-2h-5v2Zm10 0h5v-2h-5v2Zm9.9 0h5v-2h-5v2Zm9.9 0h5v-2h-5v2Zm9.9 0h5v-2h-5v2Zm9.9 0h5v-2h-5v2Zm9.9 0h5v-2h-5v2Zm9.9 0h5v-2h-5v2Zm9.9 0h5v-2h-5v2Zm9.9 0h5v-2h-5v2Zm9.9 0h5v-2h-5v2Zm9.9 0h5v-2h-5v2Zm10 0h4.9v-2h-5v2Zm9.8 0h5v-2h-5v2Zm10 0h4.9v-2h-5v2Zm9.8 0h5v-2h-5v2Zm10 0h2.4v-2h-2.5v2Zm2.4 0c1 0 1.9.2 2.7.5l.7-1.8a9 9 0 0 0-3.4-.7v2Zm6.5 4.3c.3.8.5 1.7.5 2.7h2a9 9 0 0 0-.7-3.4l-1.8.7Zm.5 2.7v2h2v-2h-2Zm0 6v4h2v-4h-2Zm0 8v2h2v-2h-2Zm0 2a7 7 0 0 1-.5 2.7l1.8.7a9 9 0 0 0 .7-3.4h-2Zm-4.3 6.5a7 7 0 0 1-2.7.5v2a9 9 0 0 0 3.4-.7l-.7-1.8Zm-2.7.5h-2.5v2h2.5v-2Zm-7.4 0h-5v2h5v-2Zm-10 0h-4.9v2h5v-2Zm-9.8 0h-5v2h5v-2Zm-10 0H242v2h5v-2Zm-9.8 0h-5v2h5v-2Zm-10 0h-5v2h5v-2Zm-9.9 0h-5v2h5v-2Zm-9.9 0h-5v2h5v-2Zm-9.9 0h-5v2h5v-2Zm-9.9 0h-5v2h5v-2Zm-9.9 0h-5v2h5v-2Zm-9.9 0h-5v2h5v-2Zm-9.9 0h-5v2h5v-2Zm-9.9 0h-5v2h5v-2Zm-9.9 0h-5v2h5v-2Zm-9.9 0h-5v2h5v-2Zm-10 0h-4.9v2h5v-2Zm-9.8 0h-5v2h5v-2Zm-10 0h-4.9v2h5v-2Zm-9.8 0h-5v2h5v-2Zm-10 0H76v2h2.5v-2Z" fill="#444B66"/>
        <path d="M292 72.5H68a7.5 7.5 0 0 0-7.5 7.5v420c0 4.1 3.4 7.5 7.5 7.5h224c4.1 0 7.5-3.4 7.5-7.5V80c0-4.1-3.4-7.5-7.5-7.5Z" stroke="#373D57"/>
    </g>
    <defs>
        <filter id="a" x="40" y="86" width="660" height="389" filterUnits="userSpaceOnUse" color-interpolation-filters="sRGB">
            <feFlood flood-opacity="0" result="BackgroundImageFix"/>
            <feColorMatrix in="SourceAlpha" values="0 0 0 0 0 0 0 0 0 0 0 0 0 0 0 0 0 0 127 0" result="hardAlpha"/>
            <feOffset dy="2"/>
            <feGaussianBlur stdDeviation="10"/>
            <feColorMatrix values="0 0 0 0 0.0438865 0 0 0 0 0.0438865 0 0 0 0 0.0868652 0 0 0 0.18 0"/>
            <feBlend in2="BackgroundImageFix" result="effect1_dropShadow_1101_145"/>
            <feBlend in="SourceGraphic" in2="effect1_dropShadow_1101_145" result="shape"/>
        </filter>
        <filter id="b" x="40" y="52" width="280" height="476" filterUnits="userSpaceOnUse" color-interpolation-filters="sRGB">
            <feFlood flood-opacity="0" result="BackgroundImageFix"/>
            <feColorMatrix in="SourceAlpha" values="0 0 0 0 0 0 0 0 0 0 0 0 0 0 0 0 0 0 127 0" result="hardAlpha"/>
            <feOffset/>
            <feGaussianBlur stdDeviation="10"/>
            <feColorMatrix values="0 0 0 0 0.0479859 0 0 0 0 0.05982 0 0 0 0 0.116032 0 0 0 0.24 0"/>
            <feBlend in2="BackgroundImageFix" result="effect1_dropShadow_1101_145"/>
            <feBlend in="SourceGraphic" in2="effect1_dropShadow_1101_145" result="shape"/>
        </filter>
    </defs>
</svg>