<svg width="563" height="417" viewBox="0 0 563 417" fill="none" xmlns="http://www.w3.org/2000/svg">
<g clip-path="url(#clip0_844_7034)">
<rect width="508" height="366" rx="14" fill="#15192C"/>
<path d="M471.5 248.5C471.5 355.086 384.2 441.5 276.5 441.5C168.8 441.5 81.5 355.086 81.5 248.5C81.5 141.914 168.8 55.5 276.5 55.5C384.2 55.5 471.5 141.914 471.5 248.5Z" stroke="#7950ED"/>
<g filter="url(#filter0_f_844_7034)">
<circle cx="168" cy="89" r="41" fill="#7950ED"/>
</g>
<g filter="url(#filter1_bd_844_7034)">
<circle cx="168" cy="89" r="41" fill="#7950ED"/>
<circle cx="168" cy="89" r="40.5" stroke="url(#paint0_linear_844_7034)"/>
</g>
<path d="M185.263 108.421V104.105C185.263 101.816 184.354 99.6205 182.735 98.0018C181.116 96.383 178.921 95.4736 176.632 95.4736H159.368C157.079 95.4736 154.884 96.383 153.265 98.0018C151.646 99.6205 150.737 101.816 150.737 104.105V108.421" stroke="white" stroke-linecap="round" stroke-linejoin="round"/>
<path d="M168 89C172.767 89 176.632 85.1355 176.632 80.3684C176.632 75.6013 172.767 71.7368 168 71.7368C163.233 71.7368 159.368 75.6013 159.368 80.3684C159.368 85.1355 163.233 89 168 89Z" stroke="white" stroke-linecap="round" stroke-linejoin="round"/>
<circle cx="96" cy="325" r="23" fill="#40486D"/>
<path d="M105.684 335.895V333.474C105.684 332.189 105.174 330.958 104.266 330.05C103.358 329.142 102.126 328.632 100.842 328.632H91.1578C89.8736 328.632 88.642 329.142 87.7339 330.05C86.8258 330.958 86.3157 332.189 86.3157 333.474V335.895" stroke="#767EA0" stroke-linecap="round" stroke-linejoin="round"/>
<path d="M96.0001 325C98.6743 325 100.842 322.832 100.842 320.158C100.842 317.484 98.6743 315.316 96.0001 315.316C93.3258 315.316 91.158 317.484 91.158 320.158C91.158 322.832 93.3258 325 96.0001 325Z" stroke="#767EA0" stroke-linecap="round" stroke-linejoin="round"/>
<circle cx="88" cy="193" r="23" fill="#2A3152"/>
<path d="M97.6841 203.895V201.474C97.6841 200.189 97.1739 198.958 96.2659 198.05C95.3578 197.142 94.1262 196.632 92.842 196.632H83.1578C81.8736 196.632 80.642 197.142 79.7339 198.05C78.8258 198.958 78.3157 200.189 78.3157 201.474V203.895" stroke="#767EA0" stroke-linecap="round" stroke-linejoin="round"/>
<path d="M88.0001 193C90.6743 193 92.8422 190.832 92.8422 188.158C92.8422 185.484 90.6743 183.316 88.0001 183.316C85.3258 183.316 83.158 185.484 83.158 188.158C83.158 190.832 85.3258 193 88.0001 193Z" stroke="#767EA0" stroke-linecap="round" stroke-linejoin="round"/>
<circle cx="312" cy="59" r="23" fill="#2A3152"/>
<path d="M321.684 69.8947V67.4737C321.684 66.1895 321.174 64.9579 320.266 64.0498C319.358 63.1417 318.126 62.6316 316.842 62.6316H307.158C305.874 62.6316 304.642 63.1417 303.734 64.0498C302.826 64.9579 302.316 66.1895 302.316 67.4737V69.8947" stroke="#767EA0" stroke-linecap="round" stroke-linejoin="round"/>
<path d="M312 58.9999C314.674 58.9999 316.842 56.832 316.842 54.1578C316.842 51.4836 314.674 49.3157 312 49.3157C309.326 49.3157 307.158 51.4836 307.158 54.1578C307.158 56.832 309.326 58.9999 312 58.9999Z" stroke="#767EA0" stroke-linecap="round" stroke-linejoin="round"/>
<path d="M177 19C177 16.2386 179.239 14 182 14H224C226.761 14 229 16.2386 229 19V32C229 34.7614 226.761 37 224 37H203H190H183.5H183.34C181.446 37 179.715 38.07 178.868 39.7639L177 43.5V19Z" fill="#8E95B6"/>
<circle cx="188.5" cy="26.5" r="2.5" fill="#555D84"/>
<circle cx="196.5" cy="26.5" r="2.5" fill="#555D84"/>
<circle cx="204.5" cy="26.5" r="2.5" fill="#555D84"/>
</g>
<rect x="0.5" y="0.5" width="507" height="365" rx="13.5" stroke="#373D57"/>
<g opacity="0.35" clip-path="url(#clip1_844_7034)">
<g opacity="0.7" filter="url(#filter2_f_844_7034)">
<rect x="203" y="139" width="360" height="278" rx="10.0686" fill="#8059EE"/>
</g>
</g>
<g filter="url(#filter3_b_844_7034)">
<rect x="203" y="139" width="360" height="278" rx="10.0686" fill="#D8CBFF" fill-opacity="0.1"/>
<rect x="203.629" y="139.629" width="358.741" height="276.741" rx="9.43929" stroke="#586184" stroke-width="1.25857"/>
</g>
<rect x="238.961" y="203" width="304.039" height="13.1854" rx="6.59268" fill="#D8CBFF" fill-opacity="0.2"/>
<rect x="225" y="203" width="6.20488" height="13.1854" rx="3.10244" fill="#D8CBFF" fill-opacity="0.2"/>
<rect x="238.961" y="231.697" width="102.38" height="13.1854" rx="6.59268" fill="#D8CBFF" fill-opacity="0.2"/>
<rect x="225" y="231.697" width="6.20488" height="13.1854" rx="3.10244" fill="#D8CBFF" fill-opacity="0.2"/>
<rect x="238.961" y="260.396" width="217.171" height="13.1854" rx="6.59268" fill="#D8CBFF" fill-opacity="0.2"/>
<rect x="225" y="260.396" width="6.20488" height="13.1854" rx="3.10244" fill="#D8CBFF" fill-opacity="0.2"/>
<rect x="238.961" y="289.094" width="238.888" height="13.1854" rx="6.59268" fill="#D8CBFF" fill-opacity="0.2"/>
<rect x="225" y="289.094" width="6.20488" height="13.1854" rx="3.10244" fill="#D8CBFF" fill-opacity="0.2"/>
<rect x="238.961" y="317.789" width="113.239" height="13.1854" rx="6.59268" fill="#D8CBFF" fill-opacity="0.2"/>
<rect x="225" y="317.789" width="6.20488" height="13.1854" rx="3.10244" fill="#D8CBFF" fill-opacity="0.2"/>
<rect x="238.961" y="375.185" width="304.039" height="13.1854" rx="6.59268" fill="#D8CBFF" fill-opacity="0.2"/>
<rect x="225" y="375.185" width="6.20488" height="13.1854" rx="3.10244" fill="#D8CBFF" fill-opacity="0.2"/>
<g filter="url(#filter4_b_844_7034)">
<path d="M204.058 150.059C204.058 144.536 208.535 140.059 214.058 140.059H551.759C557.282 140.059 561.759 144.536 561.759 150.059V170.749H204.058V150.059Z" fill="#D8CBFF" fill-opacity="0.2"/>
</g>
<circle cx="231.044" cy="155.403" r="5.82058" fill="#D8CBFF" fill-opacity="0.2"/>
<circle cx="250.094" cy="155.403" r="5.82058" fill="#D8CBFF" fill-opacity="0.2"/>
<circle cx="269.143" cy="155.403" r="5.82058" fill="#D8CBFF" fill-opacity="0.2"/>
<defs>
<filter id="filter0_f_844_7034" x="-294" y="-373" width="924" height="924" filterUnits="userSpaceOnUse" color-interpolation-filters="sRGB">
<feFlood flood-opacity="0" result="BackgroundImageFix"/>
<feBlend mode="normal" in="SourceGraphic" in2="BackgroundImageFix" result="shape"/>
<feGaussianBlur stdDeviation="210.5" result="effect1_foregroundBlur_844_7034"/>
</filter>
<filter id="filter1_bd_844_7034" x="79" y="17" width="178" height="178" filterUnits="userSpaceOnUse" color-interpolation-filters="sRGB">
<feFlood flood-opacity="0" result="BackgroundImageFix"/>
<feGaussianBlur in="BackgroundImageFix" stdDeviation="3.5"/>
<feComposite in2="SourceAlpha" operator="in" result="effect1_backgroundBlur_844_7034"/>
<feColorMatrix in="SourceAlpha" type="matrix" values="0 0 0 0 0 0 0 0 0 0 0 0 0 0 0 0 0 0 127 0" result="hardAlpha"/>
<feOffset dy="17"/>
<feGaussianBlur stdDeviation="24"/>
<feComposite in2="hardAlpha" operator="out"/>
<feColorMatrix type="matrix" values="0 0 0 0 0.474378 0 0 0 0 0.313594 0 0 0 0 0.929167 0 0 0 0.45 0"/>
<feBlend mode="normal" in2="effect1_backgroundBlur_844_7034" result="effect2_dropShadow_844_7034"/>
<feBlend mode="normal" in="SourceGraphic" in2="effect2_dropShadow_844_7034" result="shape"/>
</filter>
<filter id="filter2_f_844_7034" x="-47" y="-111" width="860" height="778" filterUnits="userSpaceOnUse" color-interpolation-filters="sRGB">
<feFlood flood-opacity="0" result="BackgroundImageFix"/>
<feBlend mode="normal" in="SourceGraphic" in2="BackgroundImageFix" result="shape"/>
<feGaussianBlur stdDeviation="125" result="effect1_foregroundBlur_844_7034"/>
</filter>
<filter id="filter3_b_844_7034" x="188" y="124" width="390" height="308" filterUnits="userSpaceOnUse" color-interpolation-filters="sRGB">
<feFlood flood-opacity="0" result="BackgroundImageFix"/>
<feGaussianBlur in="BackgroundImageFix" stdDeviation="7.5"/>
<feComposite in2="SourceAlpha" operator="in" result="effect1_backgroundBlur_844_7034"/>
<feBlend mode="normal" in="SourceGraphic" in2="effect1_backgroundBlur_844_7034" result="shape"/>
</filter>
<filter id="filter4_b_844_7034" x="194.058" y="130.059" width="377.701" height="50.6904" filterUnits="userSpaceOnUse" color-interpolation-filters="sRGB">
<feFlood flood-opacity="0" result="BackgroundImageFix"/>
<feGaussianBlur in="BackgroundImageFix" stdDeviation="5"/>
<feComposite in2="SourceAlpha" operator="in" result="effect1_backgroundBlur_844_7034"/>
<feBlend mode="normal" in="SourceGraphic" in2="effect1_backgroundBlur_844_7034" result="shape"/>
</filter>
<linearGradient id="paint0_linear_844_7034" x1="156.286" y1="49.7826" x2="191.429" y2="121.851" gradientUnits="userSpaceOnUse">
<stop stop-color="#7950ED" stop-opacity="0.5"/>
<stop offset="1" stop-color="#8963F4" stop-opacity="0.5"/>
</linearGradient>
<clipPath id="clip0_844_7034">
<rect width="508" height="366" rx="14" fill="white"/>
</clipPath>
<clipPath id="clip1_844_7034">
<rect width="508" height="366" fill="white" transform="translate(0 0.160156)"/>
</clipPath>
</defs>
</svg>
