<svg width="156" height="80" viewBox="0 0 156 80" fill="none" xmlns="http://www.w3.org/2000/svg">
<path d="M44.9042 31.458C48.6263 31.458 50.4321 33.2922 50.4321 36.2377C50.4321 38.4477 49.4314 39.7925 47.3761 40.2945C50.0722 40.7397 51.4045 42.2108 51.4045 44.7933C51.4045 47.7104 49.4314 49.7119 45.3493 49.7119H37.8198V31.458H44.9042ZM40.3202 33.8479V39.2906H44.5695C46.931 39.2906 47.9034 38.2077 47.9034 36.4493C47.9034 34.6908 46.8489 33.8384 44.5695 33.8384L40.3202 33.8479ZM40.3202 41.5163V47.1989H45.4314C47.8213 47.1989 48.9041 46.3371 48.9041 44.5028C48.9041 42.5581 47.8749 41.5037 45.3777 41.5037L40.3202 41.5163Z" fill="white"/>
<path d="M55.4897 30.4854C55.7127 30.4695 55.9366 30.5016 56.146 30.5798C56.3555 30.6579 56.5457 30.7801 56.7038 30.9382C56.8619 31.0963 56.9842 31.2866 57.0623 31.496C57.1404 31.7055 57.1726 31.9293 57.1566 32.1523C57.1566 32.5944 56.981 33.0184 56.6684 33.331C56.3558 33.6436 55.9318 33.8192 55.4897 33.8192C55.0476 33.8192 54.6237 33.6436 54.3111 33.331C53.9984 33.0184 53.8228 32.5944 53.8228 32.1523C53.8069 31.9293 53.839 31.7055 53.9172 31.496C53.9953 31.2866 54.1175 31.0963 54.2756 30.9382C54.4337 30.7801 54.624 30.6579 54.8334 30.5798C55.0429 30.5016 55.2667 30.4695 55.4897 30.4854ZM54.268 35.8208H56.6578V49.7117H54.268V35.8208Z" fill="white"/>
<path d="M65.7813 47.3759C66.2864 47.3608 66.7888 47.2953 67.2809 47.1802V49.4848C66.7574 49.6344 66.2152 49.7088 65.6708 49.7058C62.6969 49.7058 61.251 47.9568 61.251 45.3712V38.0406H59V35.8307H61.251V32.8726H63.5714V35.8181H67.2651V38.028H63.5714V45.3207C63.5714 46.5425 64.2943 47.3759 65.7813 47.3759Z" fill="white"/>
<path d="M77.131 49.9867C75.1042 49.9867 73.5478 49.0712 72.7112 47.2653V49.7089H70.3213V30.0122H72.7269V38.3183C73.6172 36.4841 75.2841 35.5402 77.4214 35.5402C81.1151 35.5402 82.9778 38.6782 82.9778 42.7634C82.9652 46.6813 81.0204 49.9867 77.131 49.9867ZM76.7679 37.7627C74.6212 37.7627 72.7269 39.1234 72.7269 42.2078V43.3191C72.7269 46.4035 74.4759 47.7641 76.5154 47.7641C79.2115 47.7641 80.6006 45.9867 80.6006 42.7634C80.5753 39.4296 79.243 37.7627 76.7679 37.7627Z" fill="white"/>
<path d="M85.4658 35.8179H87.8557V44.2187C87.8557 46.7191 88.8565 47.8303 91.1327 47.8303C93.3426 47.8303 94.8832 46.3592 94.8832 43.5526V35.8179H97.2731V49.7088H94.8832V47.4294C94.4577 48.218 93.823 48.874 93.0487 49.3252C92.2745 49.7763 91.3908 50.0052 90.495 49.9866C87.3 49.9866 85.4658 47.7767 85.4658 43.9567V35.8179Z" fill="white"/>
<path d="M110.69 49.3487C109.857 49.7939 108.578 49.9801 107.3 49.9801C102.356 49.9801 100.039 46.981 100.039 42.719C100.039 38.5233 102.343 35.5241 107.3 35.5241C108.442 35.4907 109.576 35.7242 110.611 36.2061V38.416C109.624 37.9554 108.543 37.7317 107.454 37.7625C103.843 37.7625 102.372 40.0387 102.372 42.7348C102.372 45.4309 103.871 47.7071 107.511 47.7071C108.585 47.7356 109.655 47.5665 110.668 47.2083L110.69 49.3487Z" fill="white"/>
<path d="M113.415 49.7089V30.0122H115.804V42.3246L121.778 35.8243H124.89L118.358 42.6403L125.165 49.7089H121.913L115.801 43.2086V49.7089H113.415Z" fill="white"/>
<path d="M133.083 49.9868C127.887 49.9868 125.61 46.9876 125.61 42.7256C125.61 38.5299 127.943 35.5308 132.167 35.5308C136.445 35.5308 138.166 38.5047 138.166 42.7256V43.8085H128.025C128.36 46.1699 129.888 47.6979 133.165 47.6979C134.606 47.6976 136.036 47.4444 137.389 46.9497V49.1596C136.25 49.7658 134.501 49.9868 133.083 49.9868ZM128 41.7785H135.751C135.612 39.1961 134.444 37.7217 132.057 37.7217C129.525 37.7091 128.25 39.3476 128 41.7627V41.7785Z" fill="white"/>
<path d="M146.5 47.3759C147.005 47.3608 147.508 47.2953 148 47.1802V49.4848C147.476 49.6344 146.934 49.7088 146.39 49.7058C143.416 49.7058 141.97 47.9568 141.97 45.3712V38.0406H139.719V35.8307H141.97V32.8726H144.303V35.8181H147.996V38.028H144.303V45.3207C144.306 46.5425 145.023 47.3759 146.5 47.3759Z" fill="white"/>
<path d="M8.63955 31.9883C8.5474 31.9871 8.45611 32.0061 8.37209 32.044C8.28806 32.0818 8.21334 32.1376 8.15317 32.2074C8.093 32.2772 8.04884 32.3593 8.02378 32.448C7.99873 32.5367 7.99339 32.6298 8.00814 32.7208L10.6885 48.9921C10.7219 49.1912 10.8243 49.3722 10.9779 49.5032C11.1315 49.6343 11.3263 49.707 11.5282 49.7087H24.3868C24.5381 49.7107 24.6851 49.6582 24.801 49.5608C24.9169 49.4635 24.994 49.3277 25.0182 49.1783L27.6985 32.7239C27.7132 32.633 27.7079 32.5399 27.6829 32.4512C27.6578 32.3625 27.6136 32.2804 27.5535 32.2106C27.4933 32.1408 27.4186 32.085 27.3345 32.0471C27.2505 32.0093 27.1592 31.9903 27.0671 31.9915L8.63955 31.9883ZM19.9259 43.7482H15.8218L14.7105 37.9425H20.9204L19.9259 43.7482Z" fill="white"/>
<path d="M26.8464 37.9429H20.9207L19.9262 43.7486H15.8221L10.9761 49.5007C11.1297 49.6335 11.3255 49.7074 11.5286 49.7091H24.3903C24.5416 49.711 24.6886 49.6586 24.8045 49.5612C24.9204 49.4639 24.9975 49.3281 25.0217 49.1787L26.8464 37.9429Z" fill="url(#paint0_linear_1002_11875)"/>
<defs>
<linearGradient id="paint0_linear_1002_11875" x1="28.2166" y1="39.5687" x2="18.4235" y2="47.2119" gradientUnits="userSpaceOnUse">
<stop stop-color="#D3D4DC"/>
<stop offset="1" stop-color="white"/>
</linearGradient>
</defs>
</svg>
