<svg width="156" height="80" viewBox="0 0 156 80" fill="none" xmlns="http://www.w3.org/2000/svg">
<path d="M42.5401 30.8481C46.5281 30.8481 48.4629 32.8134 48.4629 35.9693C48.4629 38.3371 47.3906 39.778 45.1886 40.3158C48.0773 40.7928 49.5047 42.369 49.5047 45.1359C49.5047 48.2614 47.3906 50.4059 43.017 50.4059H34.9497V30.8481H42.5401ZM37.6287 33.4087V39.2402H42.1815C44.7117 39.2402 45.7535 38.08 45.7535 36.1959C45.7535 34.3118 44.6237 33.3986 42.1815 33.3986L37.6287 33.4087ZM37.6287 41.6249V47.7134H43.105C45.6655 47.7134 46.8257 46.79 46.8257 44.8247C46.8257 42.7411 45.723 41.6113 43.0475 41.6113L37.6287 41.6249Z" fill="white"/>
<path d="M53.882 29.806C54.121 29.7889 54.3608 29.8234 54.5852 29.9071C54.8097 29.9908 55.0135 30.1218 55.1829 30.2912C55.3522 30.4606 55.4832 30.6644 55.5669 30.8888C55.6506 31.1133 55.6851 31.3531 55.668 31.592C55.668 32.0657 55.4798 32.5199 55.1449 32.8549C54.81 33.1898 54.3557 33.378 53.882 33.378C53.4084 33.378 52.9541 33.1898 52.6192 32.8549C52.2842 32.5199 52.0961 32.0657 52.0961 31.592C52.079 31.3531 52.1134 31.1133 52.1971 30.8888C52.2808 30.6644 52.4118 30.4606 52.5812 30.2912C52.7506 30.1218 52.9544 29.9908 53.1789 29.9071C53.4033 29.8234 53.6431 29.7889 53.882 29.806ZM52.573 35.5225H55.1336V50.4056H52.573V35.5225Z" fill="white"/>
<path d="M64.9087 47.9026C65.4499 47.8864 65.9882 47.8162 66.5154 47.6929V50.1621C65.9545 50.3224 65.3737 50.4022 64.7903 50.3989C61.604 50.3989 60.0548 48.525 60.0548 45.7547V37.9005H57.6431V35.5327H60.0548V32.3633H62.541V35.5192H66.4985V37.8869H62.541V45.7006C62.541 47.0096 63.3156 47.9026 64.9087 47.9026Z" fill="white"/>
<path d="M77.0691 50.7001C74.8975 50.7001 73.2299 49.7191 72.3335 47.7843V50.4024H69.7729V29.2988H72.3504V38.1982C73.3043 36.233 75.0903 35.2216 77.3802 35.2216C81.3378 35.2216 83.3335 38.5839 83.3335 42.9608C83.32 47.1586 81.2363 50.7001 77.0691 50.7001ZM76.6801 37.6029C74.3799 37.6029 72.3504 39.0608 72.3504 42.3655V43.5562C72.3504 46.8609 74.2243 48.3188 76.4095 48.3188C79.2981 48.3188 80.7864 46.4144 80.7864 42.9608C80.7594 39.3889 79.332 37.6029 76.6801 37.6029Z" fill="white"/>
<path d="M85.999 35.519H88.5596V44.5199C88.5596 47.1989 89.6318 48.3895 92.0706 48.3895C94.4384 48.3895 96.0891 46.8133 96.0891 43.8062V35.519H98.6497V50.4022H96.0891V47.96C95.6332 48.8049 94.9531 49.5078 94.1236 49.9911C93.2941 50.4745 92.3473 50.7198 91.3874 50.6998C87.9643 50.6998 85.999 48.332 85.999 44.2392V35.519Z" fill="white"/>
<path d="M113.025 50.0166C112.132 50.4935 110.763 50.6931 109.393 50.6931C104.096 50.6931 101.613 47.4797 101.613 42.9133C101.613 38.4179 104.082 35.2045 109.393 35.2045C110.616 35.1688 111.831 35.4189 112.941 35.9352V38.3029C111.883 37.8095 110.725 37.5697 109.558 37.6027C105.689 37.6027 104.112 40.0415 104.112 42.9302C104.112 45.8189 105.719 48.2577 109.619 48.2577C110.77 48.2882 111.916 48.1071 113.002 47.7233L113.025 50.0166Z" fill="white"/>
<path d="M115.944 50.4024V29.2988H118.505V42.4907L124.905 35.5261H128.24L121.241 42.8289L128.534 50.4024H125.05L118.502 43.4378V50.4024H115.944Z" fill="white"/>
<path d="M137.018 50.7C131.45 50.7 129.011 47.4866 129.011 42.9202C129.011 38.4248 131.511 35.2114 136.037 35.2114C140.62 35.2114 142.464 38.3978 142.464 42.9202V44.0804H131.599C131.957 46.6105 133.595 48.2477 137.106 48.2477C138.65 48.2474 140.181 47.976 141.631 47.446V49.8138C140.41 50.4632 138.536 50.7 137.018 50.7ZM131.572 41.9054H139.876C139.727 39.1385 138.476 37.5589 135.918 37.5589C133.206 37.5454 131.839 39.3009 131.572 41.8885V41.9054Z" fill="white"/>
<path d="M151.393 47.9026C151.934 47.8864 152.473 47.8162 153 47.6929V50.1621C152.439 50.3224 151.858 50.4022 151.275 50.3989C148.088 50.3989 146.539 48.525 146.539 45.7547V37.9005H144.127V35.5327H146.539V32.3633H149.039V35.5192H152.996V37.8869H149.039V45.7006C149.042 47.0096 149.81 47.9026 151.393 47.9026Z" fill="white"/>
<path d="M3.68523 31.4161C3.5865 31.4148 3.48869 31.4352 3.39867 31.4757C3.30864 31.5163 3.22858 31.576 3.16411 31.6508C3.09964 31.7256 3.05233 31.8136 3.02548 31.9086C2.99864 32.0036 2.99292 32.1034 3.00872 32.2008L5.88049 49.6343C5.91627 49.8477 6.02608 50.0416 6.19062 50.182C6.35517 50.3224 6.56393 50.4004 6.78024 50.4022H20.5573C20.7194 50.4043 20.8769 50.348 21.0011 50.2437C21.1253 50.1394 21.2078 49.994 21.2338 49.8339L24.1055 32.2042C24.1213 32.1067 24.1156 32.007 24.0888 31.912C24.0619 31.817 24.0146 31.729 23.9501 31.6542C23.8857 31.5794 23.8056 31.5196 23.7156 31.4791C23.6256 31.4385 23.5278 31.4182 23.429 31.4195L3.68523 31.4161ZM15.7778 44.016H11.3805L10.1898 37.7955H16.8433L15.7778 44.016Z" fill="white"/>
<path d="M23.1924 37.7959H16.8434L15.7779 44.0164H11.3807L6.18848 50.1793C6.35305 50.3216 6.56286 50.4008 6.78042 50.4026H20.5608C20.723 50.4047 20.8805 50.3484 21.0047 50.2441C21.1288 50.1398 21.2114 49.9944 21.2373 49.8343L23.1924 37.7959Z" fill="url(#paint0_linear_1002_11875)"/>
<defs>
<linearGradient id="paint0_linear_1002_11875" x1="24.6604" y1="39.5379" x2="14.1679" y2="47.727" gradientUnits="userSpaceOnUse">
<stop stop-color="#D3D4DC"/>
<stop offset="1" stop-color="white"/>
</linearGradient>
</defs>
</svg>
