<svg width="156" height="80" viewBox="0 0 156 80" fill="none" xmlns="http://www.w3.org/2000/svg">
<path d="M55.9645 35.7324C55.7378 34.0629 54.819 32.6147 53.1503 31.3042L52.1902 30.6573L51.5475 31.6297C50.7275 32.8818 50.3155 34.6222 50.4515 36.2875C50.5133 36.8718 50.7028 37.9236 51.2961 38.8418C50.7028 39.1673 49.5326 39.6139 47.9752 39.5805H18.1688L18.1111 39.9269C17.8309 41.6006 17.835 46.826 21.1848 50.841C23.7312 53.892 27.5466 55.4404 32.524 55.4404C43.3192 55.4404 51.3085 50.407 55.0497 41.2542C56.5207 41.2834 59.6892 41.2625 61.3167 38.1156C61.3579 38.0446 61.4568 37.8526 61.7411 37.2558L61.8977 36.9303L60.983 36.3126C59.9941 35.6406 57.7197 35.3944 55.9686 35.7324H55.9645ZM42.0007 24.5596H37.4683V28.7332H42.0007V24.5596ZM42.0007 29.5679H37.4683V33.7416H42.0007V29.5679ZM36.6443 29.5679H32.1119V33.7416H36.6443V29.5679ZM31.2879 29.5679H26.7555V33.7416H31.2879V29.5679ZM25.9315 34.5763H21.3991V38.75H25.9315V34.5763ZM31.2879 34.5763H26.7555V38.75H31.2879V34.5763ZM36.6443 34.5763H32.1119V38.75H36.6443V34.5763ZM42.0007 34.5763H37.4683V38.75H42.0007V34.5763ZM47.3571 34.5763H42.8248V38.75H47.3571V34.5763ZM74.9014 33.6414C74.5677 33.6414 74.2958 33.7541 74.0774 33.9753C73.859 34.1965 73.7519 34.4803 73.7519 34.8184V40.4653C72.6311 39.5388 71.3374 39.0714 69.8664 39.0714C68.1565 39.0714 66.6938 39.689 65.4824 40.9286C64.271 42.164 63.6694 43.6582 63.6694 45.4111C63.6694 47.164 64.2751 48.654 65.4824 49.8936C66.6938 51.129 68.1524 51.7509 69.8664 51.7509C71.5805 51.7509 73.0226 51.1332 74.2504 49.8936C75.4618 48.6707 76.0634 47.1766 76.0634 45.4111V34.8184C76.0634 34.4803 75.9521 34.1965 75.7255 33.9753C75.4989 33.7541 75.2269 33.6414 74.9014 33.6414ZM73.447 46.947C73.2451 47.427 72.969 47.8485 72.6188 48.2075C72.2686 48.5706 71.8565 48.8544 71.3868 49.0672C70.913 49.2801 70.4103 49.3844 69.8705 49.3844C69.3308 49.3844 68.8157 49.2801 68.3419 49.0672C67.8681 48.8544 67.4601 48.5706 67.114 48.2116C66.7679 47.8527 66.4919 47.4312 66.29 46.9512C66.0881 46.467 65.9851 45.9537 65.9851 45.4111C65.9851 44.8685 66.0881 44.3552 66.29 43.871C66.4919 43.3869 66.7679 42.9695 67.114 42.6106C67.4601 42.2517 67.8722 41.9679 68.3419 41.755C68.8157 41.5421 69.3225 41.4378 69.8705 41.4378C70.4185 41.4378 70.913 41.5421 71.3868 41.755C71.8606 41.9679 72.2686 42.2517 72.6188 42.6148C72.969 42.9779 73.2451 43.3994 73.447 43.8752C73.6489 44.3552 73.7519 44.8644 73.7519 45.4069C73.7519 45.9495 73.6489 46.4629 73.447 46.9387V46.947ZM125.557 40.9328C124.333 39.6974 122.87 39.0755 121.173 39.0755C119.475 39.0755 118 39.6932 116.789 40.9328C115.577 42.1682 114.976 43.6624 114.976 45.4153C114.976 47.1682 115.581 48.6582 116.789 49.8978C118 51.1332 119.459 51.755 121.173 51.755C122.73 51.755 124.077 51.2417 125.223 50.215C125.445 49.9812 125.557 49.6974 125.557 49.3677C125.557 49.038 125.45 48.7459 125.231 48.5246C125.013 48.3034 124.737 48.1908 124.407 48.1908C124.119 48.1991 123.863 48.2951 123.645 48.4871C123.299 48.7876 122.924 49.0171 122.516 49.1674C122.108 49.3176 121.663 49.3928 121.177 49.3928C120.748 49.3928 120.336 49.326 119.945 49.1883C119.553 49.0505 119.187 48.8627 118.861 48.6165C118.531 48.3702 118.247 48.0781 118.004 47.7317C117.761 47.3894 117.576 47.0096 117.452 46.5923H126.216C126.541 46.5923 126.813 46.4796 127.04 46.2584C127.267 46.0372 127.378 45.7534 127.378 45.4153C127.378 44.5388 127.225 43.725 126.925 42.9779C126.624 42.2266 126.166 41.5463 125.565 40.937L125.557 40.9328ZM117.444 44.2383C117.563 43.8251 117.744 43.4453 117.988 43.0989C118.231 42.7567 118.519 42.4603 118.849 42.2141C119.183 41.9679 119.545 41.78 119.945 41.6423C120.344 41.5046 120.752 41.4378 121.173 41.4378C121.593 41.4378 122.001 41.5046 122.396 41.6423C122.792 41.78 123.155 41.9679 123.48 42.2141C123.81 42.4603 124.098 42.7525 124.341 43.0989C124.588 43.4412 124.774 43.821 124.902 44.2383H117.444ZM137.695 39.8685C137.489 39.664 137.229 39.5054 136.916 39.3885C136.603 39.2717 136.261 39.1924 135.886 39.1465C135.515 39.1006 135.165 39.0797 134.84 39.0797C134.102 39.0797 133.41 39.2007 132.759 39.4428C132.108 39.6849 131.506 40.0313 130.954 40.482V40.2567C130.954 39.9311 130.843 39.6557 130.616 39.4261C130.39 39.1966 130.122 39.0797 129.805 39.0797C129.487 39.0797 129.207 39.1966 128.981 39.4261C128.754 39.6557 128.643 39.9353 128.643 40.2567V50.5781C128.643 50.9036 128.754 51.1791 128.981 51.4086C129.207 51.6382 129.479 51.755 129.805 51.755C130.13 51.755 130.394 51.6382 130.616 51.4086C130.843 51.1791 130.954 50.8994 130.954 50.5781V45.4153C130.954 44.8644 131.057 44.3468 131.259 43.8627C131.461 43.3785 131.737 42.9612 132.087 42.6023C132.438 42.2433 132.85 41.9595 133.319 41.755C133.793 41.5463 134.296 41.442 134.836 41.442C135.375 41.442 135.886 41.538 136.352 41.7258C136.537 41.8093 136.698 41.851 136.838 41.851C136.999 41.851 137.151 41.8218 137.291 41.7592C137.431 41.6966 137.555 41.6131 137.658 41.5046C137.761 41.3961 137.843 41.2709 137.905 41.1248C137.967 40.9829 138 40.8285 138 40.6615C138 40.336 137.897 40.073 137.691 39.8685H137.695ZM87.9587 40.9328C86.735 39.6974 85.2723 39.0755 83.5747 39.0755C81.8771 39.0755 80.4021 39.6932 79.1907 40.9328C77.9793 42.1682 77.3778 43.6624 77.3778 45.4153C77.3778 47.1682 77.9834 48.6582 79.1907 49.8978C80.4021 51.1332 81.8607 51.755 83.5747 51.755C85.2888 51.755 86.7309 51.1373 87.9587 49.8978C89.1701 48.6749 89.7717 47.1807 89.7717 45.4153C89.7634 44.5388 89.611 43.7291 89.3143 42.9821C89.0135 42.235 88.5644 41.5505 87.9587 40.9328ZM87.1553 46.947C86.9534 47.427 86.6773 47.8485 86.3271 48.2075C85.9769 48.5706 85.5648 48.8544 85.0951 49.0672C84.6254 49.2801 84.1186 49.3844 83.5788 49.3844C83.0391 49.3844 82.524 49.2801 82.0502 49.0672C81.5764 48.8544 81.1684 48.5706 80.8223 48.2116C80.4762 47.8527 80.2002 47.4312 79.9983 46.9512C79.7964 46.467 79.6934 45.9537 79.6934 45.4111C79.6934 44.8685 79.7964 44.3552 79.9983 43.871C80.2002 43.3869 80.4762 42.9695 80.8223 42.6106C81.1684 42.2517 81.5805 41.9679 82.0502 41.755C82.524 41.5421 83.0308 41.4378 83.5788 41.4378C84.1268 41.4378 84.6213 41.5421 85.0951 41.755C85.5689 41.9679 85.9769 42.2517 86.3271 42.6148C86.6773 42.9779 86.9534 43.3994 87.1553 43.8752C87.3572 44.3552 87.4602 44.8644 87.4602 45.4069C87.4602 45.9495 87.3572 46.4629 87.1553 46.9387V46.947ZM113.723 40.2525C113.723 40.0939 113.69 39.9436 113.628 39.8017C113.567 39.6598 113.484 39.5305 113.381 39.4219C113.278 39.3134 113.154 39.2258 113.014 39.1673C112.874 39.1089 112.722 39.0755 112.561 39.0755C112.33 39.0755 112.124 39.134 111.943 39.255L105.326 43.6582V34.8268C105.326 34.4928 105.215 34.2132 104.988 33.9836C104.761 33.7541 104.494 33.6372 104.176 33.6372C103.859 33.6372 103.579 33.7541 103.352 33.9836C103.126 34.2132 103.014 34.4928 103.014 34.8268V50.5614C103.014 50.8869 103.126 51.1666 103.352 51.4003C103.579 51.634 103.851 51.7509 104.176 51.7509C104.502 51.7509 104.766 51.634 104.988 51.4003C105.215 51.1666 105.326 50.8869 105.326 50.5614V46.4754L106.677 45.5697L111.791 51.442C111.997 51.6465 112.256 51.7467 112.565 51.7467C112.726 51.7467 112.878 51.7175 113.019 51.6549C113.159 51.5964 113.282 51.5088 113.385 51.4003C113.488 51.2918 113.571 51.1666 113.632 51.0205C113.694 50.8786 113.727 50.7242 113.727 50.5697C113.727 50.2609 113.62 49.9854 113.406 49.7434L108.647 44.2634L113.282 41.1832C113.579 40.9787 113.723 40.6657 113.723 40.2441V40.2525ZM94.51 42.6023C94.8644 42.2433 95.2764 41.9595 95.7503 41.755C96.2241 41.5463 96.7268 41.442 97.2665 41.442C97.7527 41.442 98.2018 41.5255 98.618 41.6924C99.03 41.8593 99.4256 42.1056 99.8005 42.427C100.023 42.6064 100.274 42.6982 100.554 42.6982C100.888 42.6982 101.16 42.5856 101.379 42.3602C101.597 42.1348 101.704 41.851 101.704 41.5129C101.704 41.1749 101.572 40.8618 101.304 40.6198C100.167 39.5931 98.8199 39.0797 97.2665 39.0797C95.5566 39.0797 94.0939 39.6974 92.8825 40.937C91.6711 42.1724 91.0696 43.6665 91.0696 45.4195C91.0696 47.1724 91.6753 48.6624 92.8825 49.9019C94.0939 51.1373 95.5525 51.7592 97.2665 51.7592C98.8158 51.7592 100.163 51.2459 101.304 50.2191C101.548 49.9687 101.671 49.6807 101.671 49.3469C101.671 49.013 101.564 48.725 101.346 48.5038C101.127 48.2826 100.851 48.1699 100.522 48.1699C100.241 48.1782 99.9983 48.2617 99.7923 48.4203C99.4215 48.7459 99.0342 48.9879 98.618 49.1507C98.206 49.3135 97.7569 49.3928 97.2665 49.3928C96.7268 49.3928 96.2241 49.2884 95.7503 49.0797C95.2764 48.8711 94.8644 48.5873 94.51 48.2325C94.1557 47.8777 93.8755 47.452 93.6736 46.9721C93.4717 46.4879 93.3687 45.9704 93.3687 45.4195C93.3687 44.8685 93.4717 44.351 93.6736 43.8669C93.8755 43.3827 94.1557 42.9654 94.51 42.6064V42.6023Z" fill="white"/>
</svg>
