<svg width="156" height="80" viewBox="0 0 156 80" fill="none" xmlns="http://www.w3.org/2000/svg">
<path d="M37.2441 34.3705L46.191 29.2066C46.301 29.1432 46.4258 29.1099 46.5528 29.1099C46.6798 29.1099 46.8045 29.1432 46.9146 29.2066L55.8614 34.3705C55.9715 34.434 56.0628 34.5253 56.1264 34.6353C56.19 34.7453 56.2236 34.87 56.2237 34.9971V45.3268C56.2236 45.4538 56.19 45.5786 56.1264 45.6885C56.0628 45.7985 55.9715 45.8898 55.8614 45.9534L46.9146 51.1172C46.8045 51.1806 46.6798 51.214 46.5528 51.214C46.4258 51.214 46.301 51.1806 46.191 51.1172L37.2441 45.9534C37.1341 45.8898 37.0427 45.7985 36.9791 45.6885C36.9155 45.5786 36.882 45.4538 36.8818 45.3268V34.9971C36.882 34.87 36.9155 34.7453 36.9791 34.6353C37.0427 34.5253 37.1341 34.434 37.2441 34.3705Z" fill="white"/>
<path d="M69.8132 39.0749L59.1141 20.479C58.7263 19.8055 58.0089 19.3105 57.2323 19.3105H35.8524C35.0768 19.3105 34.3584 19.8065 33.9695 20.479L23.2908 39.0341C23.1002 39.3683 23 39.7464 23 40.1312C23 40.5159 23.1002 40.894 23.2908 41.2282L33.9787 59.6731C34.3665 60.3466 35.085 60.6895 35.8616 60.6895H57.2415C58.017 60.6895 58.7355 60.3558 59.1233 59.6833L69.8132 41.2088C70.201 40.5353 70.201 39.7495 69.8132 39.0657M60.951 48.0086C60.951 48.2821 60.7878 48.5351 60.549 48.6719L46.9332 56.5278C46.8159 56.595 46.6831 56.6303 46.5479 56.6303C46.4128 56.6303 46.28 56.595 46.1627 56.5278L32.5357 48.6719C32.417 48.6056 32.3176 48.5096 32.2471 48.3933C32.1766 48.277 32.1375 48.1445 32.1336 48.0086V32.3048C32.1336 32.0313 32.2969 31.7782 32.5337 31.6415L46.1494 23.7855C46.2666 23.7186 46.3992 23.6834 46.5342 23.6834C46.6691 23.6834 46.8017 23.7186 46.9189 23.7855L60.5571 31.6313C60.6762 31.6973 60.776 31.7932 60.8469 31.9095C60.9177 32.0258 60.9571 32.1585 60.9612 32.2946L60.951 48.0086Z" fill="#D3D4DC"/>
<path d="M75.479 47.592V32.9414H83.9218V34.5049H77.3333V39.0972H82.8951V40.6831H77.3333V45.9898H84.1453V47.5757L75.479 47.592ZM91.3215 47.8614C90.301 47.8614 89.3485 47.6675 88.4641 47.2797C87.5796 46.8919 86.8204 46.3633 86.1863 45.6938L87.3027 44.3978C87.8239 44.942 88.4345 45.3887 89.1346 45.7377C89.8489 46.0643 90.5861 46.2276 91.346 46.2276C92.3142 46.2276 93.0625 46.0115 93.5912 45.5795C94.1273 45.1325 94.3953 44.5519 94.3953 43.8375C94.3953 43.4654 94.3283 43.1524 94.1943 42.8986C94.0752 42.6306 93.9041 42.4071 93.681 42.2281C93.4728 42.0342 93.2197 41.8631 92.9217 41.7148C92.6237 41.5651 92.304 41.4087 91.9624 41.2454L89.8632 40.33C89.521 40.1803 89.1706 40.0017 88.8121 39.7942C88.4549 39.586 88.1351 39.3329 87.8528 39.0349C87.5698 38.7369 87.3391 38.3866 87.1609 37.9838C86.982 37.5668 86.8925 37.0905 86.8925 36.5551C86.8925 36.0108 87.0041 35.5005 87.2272 35.0243C87.4653 34.5481 87.7851 34.1385 88.1865 33.7956C88.6036 33.4384 89.0876 33.1663 89.6387 32.9792C90.2048 32.7853 90.8228 32.6883 91.493 32.6883C92.3774 32.6883 93.1891 32.8594 93.9279 33.2017C94.6722 33.5282 95.305 33.9602 95.8261 34.4977L94.8321 35.7131C94.3851 35.2811 93.8864 34.9461 93.336 34.7079C92.7999 34.4548 92.1893 34.3283 91.5042 34.3283C90.6851 34.3283 90.0224 34.5222 89.5162 34.91C89.025 35.2822 88.7794 35.8033 88.7794 36.4734C88.7794 36.8306 88.8464 37.1358 88.9805 37.3888C89.1301 37.627 89.324 37.843 89.5622 38.0369C89.8003 38.2158 90.0609 38.3791 90.3439 38.5267C90.6269 38.6607 90.9174 38.7873 91.2154 38.9064L93.2922 39.7993C93.7092 39.9782 94.1038 40.1868 94.476 40.4249C94.8481 40.648 95.1679 40.9161 95.4353 41.2291C95.7033 41.527 95.9118 41.8842 96.0608 42.3006C96.2241 42.7088 96.3058 43.1782 96.3058 43.7089C96.3058 44.2899 96.1867 44.8335 95.9486 45.3397C95.7254 45.8459 95.3978 46.2925 94.9658 46.6796C94.5338 47.0518 94.0126 47.3494 93.4024 47.5726C92.7921 47.7808 92.0999 47.8849 91.3256 47.8849L91.3215 47.8614ZM99.1663 47.592V32.9414H101.021V46.0071H107.429V47.593L99.1663 47.592ZM109.851 47.592V36.7388H111.683V47.592H109.851ZM110.79 34.5038C110.433 34.5038 110.128 34.3923 109.875 34.1691C109.636 33.946 109.517 33.6629 109.517 33.32C109.517 32.9629 109.636 32.6798 109.875 32.471C110.128 32.2478 110.433 32.1362 110.79 32.1362C111.147 32.1362 111.445 32.2478 111.683 32.471C111.936 32.6791 112.063 32.9622 112.063 33.32C112.063 33.6622 111.936 33.9453 111.683 34.1691C111.445 34.3923 111.147 34.5038 110.79 34.5038ZM115.347 47.592V36.7388H116.875L117.031 38.3022H117.099C117.62 37.7811 118.164 37.349 118.73 37.0061C119.311 36.649 119.981 36.4704 120.74 36.4704C121.886 36.4704 122.72 36.8276 123.24 37.5419C123.776 38.2563 124.044 39.3135 124.044 40.7137V47.592H122.213V40.9586C122.213 39.9381 122.049 39.2009 121.723 38.7472C121.396 38.2859 120.875 38.0552 120.159 38.0552C119.593 38.0552 119.095 38.1968 118.663 38.4798C118.231 38.7628 117.74 39.1799 117.19 39.7309V47.593L115.347 47.592ZM130.979 47.8614C130.398 47.8614 129.907 47.7719 129.505 47.593C129.117 47.4141 128.798 47.1685 128.546 46.8562C128.308 46.5432 128.137 46.1636 128.033 45.7173C127.929 45.2703 127.877 44.7791 127.877 44.2437V38.2226H126.268V36.8378L127.965 36.7357L128.19 33.6976H129.721V36.7357H132.646V38.2318H129.721V44.2528C129.721 44.923 129.84 45.4441 130.078 45.8163C130.331 46.1735 130.773 46.3521 131.404 46.3521C131.598 46.3521 131.807 46.3221 132.03 46.2623C132.253 46.2024 132.457 46.1354 132.642 46.0612L133 47.4461C132.702 47.5501 132.374 47.6396 132.017 47.7145C131.675 47.8029 131.332 47.8471 130.989 47.8471L130.979 47.8614Z" fill="white"/>
</svg>
