<svg width="156" height="80" viewBox="0 0 156 80" fill="none" xmlns="http://www.w3.org/2000/svg">
<path d="M33.5393 33.8585L43.2995 28.2252C43.4196 28.156 43.5557 28.1196 43.6942 28.1196C43.8327 28.1196 43.9688 28.156 44.0889 28.2252L53.8491 33.8585C53.9691 33.9278 54.0688 34.0274 54.1382 34.1474C54.2076 34.2674 54.2442 34.4035 54.2443 34.542V45.8108C54.2442 45.9494 54.2076 46.0855 54.1382 46.2055C54.0688 46.3255 53.9691 46.4251 53.8491 46.4944L44.0889 52.1277C43.9688 52.1968 43.8327 52.2333 43.6942 52.2333C43.5557 52.2333 43.4196 52.1968 43.2995 52.1277L33.5393 46.4944C33.4192 46.4251 33.3196 46.3255 33.2502 46.2055C33.1808 46.0855 33.1442 45.9494 33.144 45.8108V34.542C33.1442 34.4035 33.1808 34.2674 33.2502 34.1474C33.3196 34.0274 33.4192 33.9278 33.5393 33.8585Z" fill="white"/>
<path d="M69.0691 38.9909L57.3973 18.7044C56.9743 17.9696 56.1916 17.4297 55.3444 17.4297H32.0208C31.1747 17.4297 30.391 17.9707 29.9668 18.7044L18.3173 38.9464C18.1093 39.311 18 39.7234 18 40.1432C18 40.5629 18.1093 40.9754 18.3173 41.34L29.9768 61.4617C30.3999 62.1964 31.1836 62.5705 32.0309 62.5705H55.3544C56.2005 62.5705 56.9843 62.2065 57.4073 61.4728L69.0691 41.3188C69.4922 40.584 69.4922 39.7268 69.0691 38.9809M59.4012 48.7367C59.4012 49.0351 59.2231 49.3112 58.9626 49.4603L44.109 58.0305C43.9811 58.1037 43.8362 58.1422 43.6887 58.1422C43.5413 58.1422 43.3964 58.1037 43.2685 58.0305L28.4026 49.4603C28.2732 49.388 28.1647 49.2832 28.0878 49.1564C28.0109 49.0296 27.9683 48.885 27.964 48.7367V31.6053C27.964 31.3069 28.1421 31.0308 28.4004 30.8816L43.254 22.3115C43.3818 22.2385 43.5265 22.2001 43.6737 22.2001C43.8209 22.2001 43.9656 22.2385 44.0934 22.3115L58.9715 30.8705C59.1014 30.9426 59.2103 31.0472 59.2876 31.1741C59.3649 31.3009 59.4079 31.4457 59.4124 31.5942L59.4012 48.7367Z" fill="#D3D4DC"/>
<path d="M75.25 48.2823V32.2998H84.4603V34.0053H77.2729V39.0152H83.3403V40.7452H77.2729V46.5344H84.7041V48.2644L75.25 48.2823ZM92.5328 48.5762C91.4195 48.5762 90.3804 48.3646 89.4156 47.9416C88.4507 47.5185 87.6224 46.9419 86.9307 46.2115L88.1487 44.7976C88.7172 45.3914 89.3833 45.8787 90.147 46.2594C90.9263 46.6157 91.7305 46.7938 92.5595 46.7938C93.6157 46.7938 94.4321 46.5581 95.0088 46.0868C95.5936 45.5992 95.8861 44.9658 95.8861 44.1864C95.8861 43.7805 95.813 43.439 95.6667 43.1622C95.5369 42.8698 95.3502 42.626 95.1068 42.4308C94.8796 42.2192 94.6035 42.0326 94.2785 41.8708C93.9534 41.7075 93.6046 41.5368 93.232 41.3587L90.9419 40.36C90.5686 40.1968 90.1864 40.0019 89.7952 39.7756C89.4056 39.5484 89.0567 39.2724 88.7487 38.9473C88.44 38.6222 88.1884 38.24 87.9939 37.8006C87.7987 37.3456 87.7011 36.8261 87.7011 36.242C87.7011 35.6482 87.8228 35.0916 88.0663 34.572C88.326 34.0525 88.6749 33.6057 89.1128 33.2316C89.5677 32.842 90.0958 32.5451 90.697 32.341C91.3145 32.1294 91.9888 32.0237 92.7198 32.0237C93.6847 32.0237 94.5701 32.2103 95.3762 32.5837C96.1881 32.9399 96.8784 33.4112 97.4469 33.9976L96.3626 35.3235C95.8749 34.8522 95.3309 34.4867 94.7305 34.2269C94.1456 33.9508 93.4795 33.8127 92.7321 33.8127C91.8385 33.8127 91.1156 34.0243 90.5634 34.4473C90.0275 34.8533 89.7596 35.4218 89.7596 36.1529C89.7596 36.5425 89.8327 36.8754 89.9789 37.1515C90.1422 37.4113 90.3537 37.6469 90.6135 37.8585C90.8733 38.0537 91.1575 38.2318 91.4663 38.3928C91.775 38.5391 92.0919 38.6771 92.417 38.807L94.6826 39.7811C95.1376 39.9763 95.568 40.2038 95.974 40.4636C96.38 40.707 96.7288 40.9994 97.0205 41.3409C97.3129 41.6659 97.5404 42.0556 97.703 42.5098C97.8811 42.9551 97.9702 43.4673 97.9702 44.0462C97.9702 44.68 97.8403 45.273 97.5805 45.8252C97.3371 46.3774 96.9797 46.8647 96.5084 47.287C96.0371 47.693 95.4686 48.0177 94.8028 48.2611C94.1371 48.4882 93.3819 48.6018 92.5373 48.6018L92.5328 48.5762ZM101.091 48.2823V32.2998H103.114V46.5533H110.105V48.2834L101.091 48.2823ZM112.747 48.2823V36.4424H114.745V48.2823H112.747ZM113.771 34.0042C113.382 34.0042 113.049 33.8825 112.773 33.6391C112.513 33.3956 112.383 33.0869 112.383 32.7128C112.383 32.3232 112.513 32.0144 112.773 31.7865C113.049 31.5431 113.382 31.4214 113.771 31.4214C114.161 31.4214 114.486 31.5431 114.745 31.7865C115.021 32.0137 115.159 32.3224 115.159 32.7128C115.159 33.0861 115.021 33.3949 114.745 33.6391C114.486 33.8825 114.161 34.0042 113.771 34.0042ZM118.742 48.2823V36.4424H120.41L120.58 38.1479H120.654C121.222 37.5794 121.815 37.1081 122.433 36.734C123.066 36.3444 123.798 36.1496 124.626 36.1496C125.876 36.1496 126.786 36.5392 127.353 37.3185C127.938 38.0978 128.231 39.2512 128.231 40.7786V48.2823H126.232V41.0458C126.232 39.9325 126.054 39.1284 125.698 38.6333C125.342 38.1301 124.773 37.8785 123.992 37.8785C123.375 37.8785 122.831 38.0329 122.36 38.3416C121.889 38.6504 121.353 39.1054 120.753 39.7065V48.2834L118.742 48.2823ZM135.796 48.5762C135.162 48.5762 134.626 48.4786 134.188 48.2834C133.765 48.0882 133.416 47.8202 133.141 47.4796C132.882 47.1382 132.695 46.724 132.581 46.2371C132.468 45.7495 132.411 45.2136 132.411 44.6295V38.0611H130.657V36.5503L132.508 36.439L132.753 33.1247H134.423V36.439H137.615V38.0711H134.423V44.6396C134.423 45.3706 134.553 45.9391 134.812 46.3451C135.089 46.7348 135.571 46.9296 136.26 46.9296C136.471 46.9296 136.699 46.8969 136.942 46.8316C137.186 46.7663 137.408 46.6932 137.61 46.6123L138 48.1231C137.675 48.2366 137.317 48.3342 136.928 48.4159C136.554 48.5123 136.181 48.5606 135.807 48.5606L135.796 48.5762Z" fill="white"/>
</svg>
