<svg width="156" height="80" viewBox="0 0 156 80" fill="none" xmlns="http://www.w3.org/2000/svg">
<g clip-path="url(#clip0_1002_11860)">
<path d="M43.901 37.8394H34.5785C34.3383 37.8394 34.1443 38.0334 34.1443 38.2736V42.8317C34.1443 43.0719 34.3383 43.269 34.5785 43.269H38.2157V48.9327C38.2157 48.9327 37.3996 49.2099 35.1421 49.2099C32.4781 49.2099 28.7577 48.2367 28.7577 40.0568C28.7577 31.877 32.6321 30.7991 36.2693 30.7991C39.4168 30.7991 40.775 31.3534 41.6373 31.6213C41.9083 31.7045 42.1578 31.4335 42.1578 31.1933L43.1988 26.7892C43.1988 26.6752 43.1618 26.5397 43.0325 26.4504C42.6814 26.201 40.544 25.0029 35.1421 25.0029C28.921 24.9999 22.5366 27.6485 22.5366 40.374C22.5366 53.0996 29.8449 54.9968 36.0044 54.9968C41.1045 54.9968 44.1966 52.8163 44.1966 52.8163C44.3229 52.7455 44.3383 52.5668 44.3383 52.4868V38.2736C44.3383 38.0334 44.1443 37.8394 43.904 37.8394H43.901Z" fill="white"/>
<path d="M91.9423 26.5242C91.9423 26.2809 91.7514 26.0869 91.5112 26.0869H86.2632C86.023 26.0869 85.829 26.284 85.829 26.5242V36.6659H77.6491V26.5242C77.6491 26.2809 77.4551 26.0869 77.2149 26.0869H71.967C71.7267 26.0869 71.5327 26.284 71.5327 26.5242V53.9896C71.5327 54.2329 71.7267 54.43 71.967 54.43H77.2149C77.4551 54.43 77.6491 54.2329 77.6491 53.9896V42.2434H85.829L85.8136 53.9896C85.8136 54.2329 86.0076 54.43 86.2478 54.43H91.5081C91.7483 54.43 91.9392 54.2329 91.9423 53.9896V26.5242Z" fill="white"/>
<path d="M53.8055 30.128C53.8055 28.237 52.2902 26.7095 50.4208 26.7095C48.5514 26.7095 47.0361 28.237 47.0361 30.128C47.0361 32.019 48.5514 33.5466 50.4208 33.5466C52.2902 33.5466 53.8055 32.0159 53.8055 30.128Z" fill="white"/>
<path d="M53.4297 48.1971V35.5208C53.4297 35.2806 53.2357 35.0835 52.9955 35.0835H47.7629C47.5227 35.0835 47.3071 35.3299 47.3071 35.5732V53.7376C47.3071 54.2704 47.6397 54.4306 48.0709 54.4306H52.786C53.3034 54.4306 53.4297 54.178 53.4297 53.7284V48.2002V48.1971Z" fill="white"/>
<path d="M111.887 35.123H106.679C106.439 35.123 106.244 35.3202 106.244 35.5635V49.0313C106.244 49.0313 104.92 49.9983 103.045 49.9983C101.169 49.9983 100.667 49.1452 100.667 47.3066V35.5635C100.667 35.3202 100.473 35.123 100.233 35.123H94.9479C94.7108 35.123 94.5137 35.3202 94.5137 35.5635V48.1967C94.5137 53.6571 97.5565 54.9937 101.745 54.9937C105.179 54.9937 107.951 53.0966 107.951 53.0966C107.951 53.0966 108.083 54.0975 108.142 54.2145C108.2 54.3315 108.357 54.4517 108.524 54.4517L111.887 54.4363C112.124 54.4363 112.321 54.2392 112.321 53.9989V35.5635C112.321 35.3202 112.124 35.123 111.884 35.123H111.887Z" fill="white"/>
<path d="M126.125 34.5039C123.165 34.5039 121.154 35.8251 121.154 35.8251V26.5242C121.154 26.2809 120.96 26.0869 120.72 26.0869H115.456C115.216 26.0869 115.022 26.284 115.022 26.5242V53.9896C115.022 54.2329 115.216 54.43 115.456 54.43H119.109C119.272 54.43 119.398 54.3438 119.491 54.1959C119.58 54.0481 119.712 52.9302 119.712 52.9302C119.712 52.9302 121.865 54.969 125.94 54.969C130.723 54.969 133.467 52.5421 133.467 44.0758C133.467 35.6095 129.084 34.5039 126.125 34.5039ZM124.07 49.9797C122.263 49.9243 121.04 49.1051 121.04 49.1051V40.4078C121.04 40.4078 122.247 39.6656 123.732 39.5332C125.607 39.3638 127.415 39.9305 127.415 44.4054C127.415 49.1236 126.599 50.0537 124.073 49.9797H124.07Z" fill="white"/>
<path d="M68.5144 35.077H64.5785C64.5785 35.077 64.5723 29.8783 64.5723 29.8752C64.5723 29.6781 64.4707 29.5796 64.2428 29.5796H58.8778C58.6684 29.5796 58.5575 29.672 58.5575 29.8722V35.2464C58.5575 35.2464 55.8689 35.8962 55.6872 35.9485C55.5055 36.0009 55.373 36.1672 55.373 36.3674V39.7459C55.373 39.9892 55.5671 40.1832 55.8073 40.1832H58.5575V48.3076C58.5575 54.344 62.7922 54.9353 65.6471 54.9353C66.953 54.9353 68.5144 54.5165 68.7731 54.421C68.9302 54.3625 69.0195 54.2023 69.0195 54.0268V50.3126C69.0226 50.0693 68.8193 49.8752 68.5883 49.8752C68.3573 49.8752 67.7722 49.9676 67.1685 49.9676C65.2345 49.9676 64.5785 49.0683 64.5785 47.9042C64.5785 46.74 64.5785 40.1832 64.5785 40.1832H68.5144C68.7546 40.1832 68.9487 39.9861 68.9487 39.7459V35.5143C68.9487 35.271 68.7546 35.077 68.5144 35.077Z" fill="white"/>
</g>
<defs>
<clipPath id="clip0_1002_11860">
<rect width="110.927" height="30" fill="white" transform="translate(22.5366 25)"/>
</clipPath>
</defs>
</svg>
