<svg width="156" height="80" viewBox="0 0 156 80" fill="none" xmlns="http://www.w3.org/2000/svg">
<g clip-path="url(#clip0_1002_11860)">
<path d="M47.2598 38.0525H38.8557C38.6391 38.0525 38.4642 38.2274 38.4642 38.4439V42.553C38.4642 42.7695 38.6391 42.9472 38.8557 42.9472H42.1346V48.053C42.1346 48.053 41.3989 48.3029 39.3638 48.3029C36.9622 48.3029 33.6083 47.4256 33.6083 40.0515C33.6083 32.6774 37.101 31.7056 40.3799 31.7056C43.2174 31.7056 44.4418 32.2054 45.2192 32.4469C45.4635 32.5219 45.6884 32.2776 45.6884 32.061L46.6268 28.0908C46.6268 27.9881 46.5935 27.8659 46.4769 27.7854C46.1604 27.5605 44.2336 26.4805 39.3638 26.4805C33.7555 26.4777 28 28.8654 28 40.3374C28 51.8095 34.5884 53.5197 40.1412 53.5197C44.7389 53.5197 47.5263 51.554 47.5263 51.554C47.6402 51.4902 47.6541 51.3292 47.6541 51.257V38.4439C47.6541 38.2274 47.4791 38.0525 47.2626 38.0525H47.2598Z" fill="white"/>
<path d="M90.5686 27.8518C90.5686 27.6324 90.3964 27.4575 90.1799 27.4575H85.4489C85.2324 27.4575 85.0574 27.6352 85.0574 27.8518V36.9944H77.6833V27.8518C77.6833 27.6324 77.5084 27.4575 77.2919 27.4575H72.5609C72.3443 27.4575 72.1694 27.6352 72.1694 27.8518V52.6116C72.1694 52.8309 72.3443 53.0086 72.5609 53.0086H77.2919C77.5084 53.0086 77.6833 52.8309 77.6833 52.6116V42.0225H85.0574L85.0436 52.6116C85.0436 52.8309 85.2185 53.0086 85.435 53.0086H90.1771C90.3937 53.0086 90.5658 52.8309 90.5686 52.6116V27.8518Z" fill="white"/>
<path d="M56.1884 31.1003C56.1884 29.3956 54.8225 28.0186 53.1372 28.0186C51.4519 28.0186 50.0859 29.3956 50.0859 31.1003C50.0859 32.805 51.4519 34.1821 53.1372 34.1821C54.8225 34.1821 56.1884 32.8023 56.1884 31.1003Z" fill="white"/>
<path d="M55.8495 47.3892V35.9616C55.8495 35.7451 55.6746 35.5674 55.4581 35.5674H50.741C50.5244 35.5674 50.3301 35.7895 50.3301 36.0088V52.384C50.3301 52.8643 50.6299 53.0087 51.0186 53.0087H55.2693C55.7357 53.0087 55.8495 52.781 55.8495 52.3756V47.392V47.3892Z" fill="white"/>
<path d="M108.549 35.6035H103.854C103.637 35.6035 103.462 35.7812 103.462 36.0005V48.1417C103.462 48.1417 102.269 49.0135 100.578 49.0135C98.887 49.0135 98.4344 48.2444 98.4344 46.5869V36.0005C98.4344 35.7812 98.2595 35.6035 98.043 35.6035H93.2787C93.0649 35.6035 92.8872 35.7812 92.8872 36.0005V47.3893C92.8872 52.3118 95.6303 53.5168 99.4062 53.5168C102.502 53.5168 105.001 51.8065 105.001 51.8065C105.001 51.8065 105.12 52.7089 105.173 52.8144C105.225 52.9199 105.367 53.0281 105.517 53.0281L108.549 53.0143C108.763 53.0143 108.94 52.8366 108.94 52.62V36.0005C108.94 35.7812 108.763 35.6035 108.546 35.6035H108.549Z" fill="white"/>
<path d="M121.384 35.0454C118.716 35.0454 116.903 36.2365 116.903 36.2365V27.8518C116.903 27.6324 116.728 27.4575 116.511 27.4575H111.766C111.55 27.4575 111.375 27.6352 111.375 27.8518V52.6116C111.375 52.8309 111.55 53.0086 111.766 53.0086H115.059C115.206 53.0086 115.32 52.9309 115.404 52.7976C115.484 52.6644 115.603 51.6565 115.603 51.6565C115.603 51.6565 117.544 53.4945 121.217 53.4945C125.529 53.4945 128.003 51.3067 128.003 43.6744C128.003 36.0421 124.052 35.0454 121.384 35.0454ZM119.532 48.9968C117.902 48.9468 116.8 48.2083 116.8 48.2083V40.3677C116.8 40.3677 117.888 39.6986 119.227 39.5792C120.917 39.4265 122.547 39.9374 122.547 43.9715C122.547 48.2249 121.811 49.0634 119.535 48.9968H119.532Z" fill="white"/>
<path d="M69.4489 35.5618H65.9007C65.9007 35.5618 65.8951 30.8753 65.8951 30.8725C65.8951 30.6948 65.8035 30.606 65.5981 30.606H60.7616C60.5728 30.606 60.4728 30.6892 60.4728 30.8697V35.7145C60.4728 35.7145 58.049 36.3003 57.8852 36.3475C57.7214 36.3947 57.6021 36.5447 57.6021 36.7251V39.7708C57.6021 39.9902 57.777 40.1651 57.9935 40.1651H60.4728V47.4892C60.4728 52.9309 64.2904 53.464 66.8641 53.464C68.0413 53.464 69.4489 53.0864 69.6821 53.0003C69.8237 52.9476 69.9042 52.8032 69.9042 52.6449V49.2966C69.907 49.0773 69.7238 48.9024 69.5155 48.9024C69.3073 48.9024 68.7798 48.9857 68.2356 48.9857C66.492 48.9857 65.9007 48.175 65.9007 47.1255C65.9007 46.076 65.9007 40.1651 65.9007 40.1651H69.4489C69.6655 40.1651 69.8404 39.9874 69.8404 39.7708V35.9561C69.8404 35.7367 69.6655 35.5618 69.4489 35.5618Z" fill="white"/>
</g>
<defs>
<clipPath id="clip0_1002_11860">
<rect width="100" height="27.0448" fill="white" transform="translate(28 26.4775)"/>
</clipPath>
</defs>
</svg>
