<svg width="156" height="80" viewBox="0 0 156 80" fill="none" xmlns="http://www.w3.org/2000/svg">
<path d="M44.4942 37.2969L44.4578 37.2L40.7908 27.6346C40.7166 27.4468 40.5845 27.2875 40.4137 27.1797C40.2863 27.0981 40.1415 27.0475 39.991 27.032C39.8405 27.0164 39.6884 27.0364 39.547 27.0902C39.4056 27.144 39.2787 27.2302 39.1766 27.3418C39.0745 27.4535 39 27.5876 38.959 27.7332L36.4838 35.3112H26.46L23.9847 27.7332C23.9434 27.5878 23.8687 27.454 23.7666 27.3425C23.6644 27.2311 23.5376 27.145 23.3963 27.0913C23.255 27.0375 23.1031 27.0175 22.9527 27.0329C22.8023 27.0482 22.6575 27.0985 22.53 27.1797C22.3592 27.2875 22.2272 27.4468 22.1529 27.6346L18.4876 37.2018L18.4496 37.2969C17.9219 38.676 17.8569 40.1893 18.2643 41.6086C18.6718 43.0279 19.5297 44.2763 20.7086 45.1654L20.7224 45.1758L20.7536 45.2L26.332 49.3808L30.7808 52.7434C30.9781 52.8924 31.2186 52.973 31.4658 52.973C31.713 52.973 31.9535 52.8924 32.1508 52.7434L36.5997 49.3808L42.2178 45.1758L42.2334 45.1637C43.4122 44.2749 44.2702 43.0269 44.678 41.608C45.0858 40.189 45.0212 38.676 44.4942 37.2969Z" fill="white"/>
<path d="M66.4479 36.8022H70.3882C69.7309 32.6128 66.1037 29.6947 61.3833 29.6947C55.798 29.6947 51.6068 33.8011 51.6068 40.6785C51.6068 47.4331 55.6094 51.6225 61.4974 51.6225C66.7817 51.6225 70.5647 48.2236 70.5647 42.7213V40.1579H61.9039V43.1797H66.8233C66.761 46.224 64.7286 48.151 61.5182 48.151C57.9445 48.151 55.4952 45.4733 55.4952 40.637C55.4952 35.8318 57.9861 33.1646 61.4351 33.1646C64.009 33.1646 65.7699 34.5397 66.4479 36.8022Z" fill="white"/>
<path d="M73.1696 51.3302H76.9422V35.3302H73.1696V51.3302ZM75.0724 32.7875C76.2711 32.7875 77.2501 31.869 77.2501 30.7447C77.2501 29.6203 76.2711 28.6915 75.0724 28.6915C73.8736 28.6915 72.8842 29.6082 72.8842 30.7447C72.8842 31.8811 73.8563 32.7875 75.0654 32.7875H75.0724Z" fill="white"/>
<path d="M88.2391 35.3302H85.0806V31.4867H81.308V35.3302H79.0369V38.2482H81.308V47.1495C81.2873 50.1609 83.4771 51.6468 86.3104 51.5585C87.0652 51.5435 87.8136 51.417 88.5314 51.1832L87.8948 48.2323C87.5343 48.3258 87.1637 48.3752 86.7913 48.3793C85.8417 48.3793 85.0806 48.0455 85.0806 46.5233V38.2396H88.2391V35.3302Z" fill="white"/>
<path d="M91.1589 51.3302H104.426V48.0887H95.0265V29.9853H91.1589V51.3302Z" fill="white"/>
<path d="M111.653 51.6537C114.164 51.6537 115.664 50.4757 116.352 49.1317H116.477V51.3302H120.109V40.6163C120.109 36.3853 116.66 35.114 113.606 35.114C110.24 35.114 107.655 36.6137 106.822 39.5317L110.345 40.0333C110.719 38.9384 111.782 38.0009 113.632 38.0009C115.384 38.0009 116.342 38.8969 116.342 40.471V40.5332C116.342 41.616 115.206 41.6697 112.381 41.9706C109.276 42.3045 106.306 43.2316 106.306 46.8381C106.296 49.9862 108.598 51.6537 111.653 51.6537ZM112.893 48.8861C111.319 48.8861 110.193 48.1665 110.193 46.781C110.193 45.3315 111.454 44.7278 113.133 44.4874C114.125 44.3525 116.105 44.1017 116.593 43.7073V45.5927C116.603 47.3691 115.164 48.8809 112.893 48.8809V48.8861Z" fill="white"/>
<path d="M122.887 51.3302H126.598V48.8083H126.816C127.411 49.9758 128.651 51.6122 131.403 51.6122C135.175 51.6122 138 48.6197 138 43.3475C138 38.0113 135.092 35.114 131.392 35.114C128.568 35.114 127.39 36.8126 126.816 37.9698H126.656V29.9853H122.887V51.3302ZM126.587 43.3267C126.587 40.2132 127.921 38.2085 130.349 38.2085C132.861 38.2085 134.155 40.3447 134.155 43.3267C134.155 46.3088 132.842 48.5159 130.349 48.5159C127.942 48.5159 126.587 46.4316 126.587 43.3267Z" fill="white"/>
</svg>
