<svg width="156" height="80" viewBox="0 0 156 80" fill="none" xmlns="http://www.w3.org/2000/svg">
<path d="M61.738 30.442C61.0043 30.442 60.3348 30.5397 59.7295 30.735C59.1426 30.9148 58.6281 31.2174 58.1861 31.643C57.7615 32.0511 57.4185 32.5821 57.1571 33.236C56.9122 33.8889 56.7733 34.6685 56.7403 35.5746C56.6889 37.0447 56.6889 38.5148 56.7403 39.9849C56.7733 40.8992 56.9122 41.6787 57.1571 42.3235C57.4185 42.9764 57.7615 43.5157 58.1861 43.9412C58.6263 44.3493 59.1408 44.652 59.7295 44.8491C60.3348 45.0289 61.0043 45.1188 61.738 45.1188C62.4588 45.1188 63.1283 45.0211 63.7464 44.8258C64.3645 44.613 64.8955 44.3039 65.3394 43.8986C65.798 43.4739 66.1584 42.9347 66.4207 42.2808C66.682 41.6278 66.8127 40.8602 66.8127 39.978V38.7289H62.5441C62.1846 38.7289 62.0049 38.5455 62.0049 38.1786V37.8347C62.0049 37.4679 62.1846 37.2845 62.5441 37.2845H67.7853C68.1521 37.2845 68.3356 37.4679 68.3356 37.8347V39.9904C68.3356 40.9717 68.1888 41.8704 67.8954 42.6866C67.6019 43.4872 67.169 44.1824 66.5968 44.7721C66.0419 45.359 65.3467 45.8162 64.5113 46.1436C63.6859 46.4536 62.755 46.6086 61.7187 46.6086C60.6567 46.6086 59.7259 46.4536 58.9262 46.1436C58.1255 45.8171 57.4478 45.3678 56.893 44.7955C56.3537 44.2241 55.9374 43.5464 55.6439 42.7623C55.366 41.9617 55.211 41.0794 55.1789 40.1156C55.1459 39.3819 55.1294 38.606 55.1294 37.788C55.1294 36.9626 55.1459 36.1867 55.1789 35.4604C55.2119 34.4974 55.3752 33.6234 55.6687 32.8384C55.9621 32.0378 56.3785 31.3518 56.9177 30.7804C57.4726 30.2091 58.1503 29.768 58.9509 29.4571C59.7516 29.1306 60.6741 28.9674 61.7187 28.9674C62.8467 28.9674 63.8106 29.1388 64.6103 29.4818C65.4109 29.8248 66.0644 30.2375 66.5706 30.7199C67.0769 31.1941 67.4529 31.6925 67.6986 32.2152C67.9435 32.738 68.0742 33.1709 68.0907 33.5138C68.1072 33.6606 68.0659 33.783 67.9669 33.8811C67.8688 33.9637 67.7381 34.005 67.5748 34.005H67.0356C66.8888 34.005 66.7825 33.9729 66.7164 33.9087C66.6522 33.8261 66.5871 33.6954 66.5211 33.5166C66.3909 33.1498 66.2074 32.7829 65.9708 32.4161C65.7416 32.0492 65.4325 31.7228 65.0436 31.4366C64.652 31.1432 64.1866 30.9061 63.6474 30.7254C63.1081 30.5457 62.4707 30.4558 61.7352 30.4558L61.738 30.442ZM73.3044 35.3159C73.8913 34.1879 75.0019 33.6239 76.6362 33.6239H77.5441C77.9036 33.6239 78.0834 33.8036 78.0834 34.1631V34.5071C78.0834 34.8666 77.9036 35.0463 77.5441 35.0463H76.4904C75.5091 35.0463 74.7332 35.332 74.1628 35.9033C73.5914 36.4747 73.3058 37.2505 73.3058 38.2309V45.8245C73.3058 45.9877 73.2484 46.1184 73.1338 46.2165C73.0357 46.3147 72.905 46.3637 72.7417 46.3637H72.3497C71.9902 46.3637 71.8104 46.184 71.8104 45.8245V34.1865C71.8104 34.0233 71.8595 33.8926 71.9576 33.7945C72.0558 33.6798 72.1864 33.6225 72.3497 33.6225H72.7417C72.905 33.6225 73.0357 33.6798 73.1338 33.7945C73.2484 33.8926 73.3058 34.0233 73.3058 34.1865V35.3146L73.3044 35.3159ZM88.4364 46.3706C88.0769 46.3706 87.8972 46.1908 87.8972 45.8313V44.6799C87.7505 44.9092 87.5546 45.1385 87.3098 45.3678C87.0805 45.597 86.7948 45.8011 86.4528 45.9799C86.1098 46.1597 85.6971 46.3064 85.2147 46.4201C84.7405 46.5503 84.1857 46.6155 83.5502 46.6155C82.9632 46.6155 82.3992 46.5256 81.8581 46.3458C81.3354 46.1505 80.8699 45.8891 80.4618 45.5617C80.0702 45.2352 79.752 44.8514 79.5071 44.4103C79.2779 43.9701 79.1632 43.4886 79.1632 42.9659C79.1632 42.411 79.2779 41.9126 79.5071 41.4706C79.752 41.0304 80.0868 40.6466 80.5114 40.3191C80.936 39.9762 81.4422 39.6987 82.0301 39.4869C82.6354 39.2576 83.297 39.0944 84.0151 38.9972L87.8862 38.4579V37.6009C87.8862 36.7186 87.6166 36.0326 87.0773 35.5429C86.5546 35.0532 85.7136 34.8083 84.5544 34.8083C83.64 34.8083 82.9293 34.9881 82.4221 35.3476C81.9324 35.6906 81.6233 36.0666 81.4949 36.4756C81.4308 36.6709 81.3491 36.8099 81.2501 36.8924C81.1675 36.9566 81.0529 36.9887 80.9062 36.9887H80.5623C80.4155 36.9887 80.2848 36.9397 80.1702 36.8415C80.0721 36.7269 80.023 36.5962 80.023 36.4495C80.023 36.2202 80.1046 35.9345 80.2679 35.5924C80.4311 35.2494 80.6925 34.9147 81.052 34.5882C81.4188 34.2617 81.8925 33.9843 82.473 33.756C83.0444 33.5111 83.7395 33.3887 84.5585 33.3887C85.5215 33.3887 86.3138 33.5193 86.9356 33.7807C87.5721 34.0421 88.0705 34.3851 88.4309 34.8097C88.7904 35.2178 89.0353 35.675 89.1655 36.1812C89.3123 36.6875 89.3856 37.1859 89.3856 37.6765V45.8341C89.3856 46.1936 89.2059 46.3734 88.8464 46.3734H88.4296L88.4364 46.3706ZM83.806 45.1944C84.3609 45.1944 84.8836 45.1045 85.3743 44.9248C85.8805 44.7295 86.3216 44.4438 86.6976 44.0678C87.0645 43.7009 87.3579 43.2273 87.578 42.6467C87.7908 42.0754 87.8972 41.4059 87.8972 40.6383V39.806L84.7373 40.2462C82.0264 40.6131 80.6709 41.4788 80.6709 42.8435C80.6709 43.2516 80.7608 43.6028 80.9406 43.8972C81.1359 44.1907 81.3808 44.4355 81.6752 44.6318C81.9686 44.8271 82.3034 44.9739 82.6794 45.072C83.0462 45.1545 83.4222 45.1958 83.8074 45.1958L83.806 45.1944ZM98.8776 46.6155C97.8486 46.6155 97.0076 46.432 96.3546 46.0652C95.7017 45.6984 95.1707 45.2412 94.7616 44.6937V50.4989C94.7616 50.8584 94.5819 51.0382 94.2224 51.0382H93.8056C93.4461 51.0382 93.2663 50.8584 93.2663 50.4989V34.1631C93.2663 33.8036 93.4461 33.6239 93.8056 33.6239H94.2224C94.5819 33.6239 94.7616 33.8036 94.7616 34.1631V35.3146C95.1697 34.7597 95.7007 34.3025 96.3546 33.943C97.0076 33.5762 97.8486 33.3928 98.8776 33.3928C99.8249 33.3928 100.625 33.5643 101.278 33.9073C101.948 34.2338 102.487 34.6749 102.896 35.2306C103.304 35.7699 103.597 36.3908 103.776 37.0933C103.972 37.7793 104.086 38.4817 104.12 39.2008C104.137 39.4456 104.145 39.7152 104.145 40.0096C104.145 40.3031 104.137 40.5727 104.12 40.8185C104.087 41.5393 103.972 42.2501 103.776 42.9508C103.596 43.6367 103.303 44.2576 102.896 44.8134C102.488 45.3526 101.948 45.7937 101.278 46.1367C100.625 46.4632 99.8249 46.6265 98.8776 46.6265V46.6155ZM94.7616 39.1182C94.7451 39.3631 94.7369 39.6813 94.7369 40.0729C94.7369 40.4645 94.7451 40.7827 94.7616 41.0276C94.7781 41.5173 94.8598 42.0158 95.0065 42.5229C95.1698 43.0127 95.4146 43.4538 95.7411 43.8463C96.0676 44.2379 96.4803 44.5644 96.9792 44.8258C97.4689 45.0706 98.0568 45.193 98.7428 45.193C99.4636 45.193 100.06 45.0706 100.531 44.8258C101.021 44.5809 101.413 44.2544 101.707 43.8463C102.017 43.4217 102.237 42.9402 102.368 42.4019C102.514 41.847 102.604 41.2752 102.637 40.6864C102.654 40.2279 102.654 39.7707 102.637 39.3149C102.604 38.728 102.514 38.164 102.368 37.6229C102.237 37.0836 102.017 36.61 101.707 36.2019C101.414 35.7772 101.022 35.4425 100.531 35.1976C100.057 34.9363 99.4608 34.8056 98.7428 34.8056C98.0403 34.8056 97.4441 34.9363 96.9544 35.1976C96.4647 35.459 96.052 35.802 95.7163 36.2266C95.4064 36.6347 95.1693 37.0919 95.0051 37.5981C94.8584 38.1044 94.7768 38.6106 94.7603 39.1168L94.7616 39.1182ZM108.976 35.3159C109.416 34.7446 109.947 34.2792 110.569 33.9197C111.187 33.5602 112.028 33.3804 113.092 33.3804C113.925 33.3804 114.652 33.5193 115.272 33.7972C115.891 34.0751 116.405 34.4589 116.816 34.9486C117.241 35.4384 117.559 36.0184 117.771 36.6888C117.983 37.3583 118.09 38.0851 118.09 38.8692V45.8272C118.09 46.1867 117.91 46.3665 117.551 46.3665H117.138C116.778 46.3665 116.599 46.1867 116.599 45.8272V38.9903C116.599 37.6834 116.28 36.6627 115.644 35.9281C115.007 35.1761 114.077 34.8001 112.851 34.8001C111.676 34.8001 110.737 35.1669 110.034 35.9006C109.332 36.6343 108.98 37.6646 108.98 38.9917V45.8286C108.98 46.1881 108.801 46.3678 108.441 46.3678H108.024C107.665 46.3678 107.485 46.1881 107.485 45.8286V29.5066C107.485 29.1471 107.665 28.9674 108.024 28.9674H108.441C108.801 28.9674 108.98 29.1471 108.98 29.5066V35.3118L108.976 35.3159ZM128.084 28.9715C129.031 28.9715 129.897 29.1104 130.681 29.3883C131.465 29.6662 132.135 30.0908 132.689 30.6621C133.261 31.217 133.702 31.9195 134.013 32.7696C134.339 33.6023 134.519 34.5905 134.552 35.7341C134.585 36.4678 134.602 37.1538 134.602 37.7921C134.602 38.4286 134.585 39.1145 134.552 39.8501C134.47 42.1859 133.873 43.9009 132.764 44.995L134.332 47.2001C134.348 47.2331 134.365 47.2652 134.382 47.2964C134.398 47.3294 134.406 47.3867 134.406 47.4684C134.406 47.5986 134.357 47.7132 134.259 47.8123C134.161 47.9104 134.046 47.9595 133.915 47.9595H133.376C133.196 47.9595 133.041 47.8861 132.911 47.7394C132.781 47.6091 132.674 47.4945 132.592 47.3954L131.511 45.9001C130.529 46.3743 129.386 46.6113 128.08 46.6113C126.038 46.6113 124.462 46.0643 123.352 44.9702C122.258 43.8761 121.677 42.1694 121.611 39.8501C121.578 39.1164 121.562 38.4304 121.562 37.7921C121.562 37.1556 121.578 36.4696 121.611 35.7341C121.644 34.5905 121.816 33.6023 122.126 32.7696C122.452 31.9204 122.894 31.2179 123.449 30.6621C124.021 30.0908 124.69 29.6662 125.458 29.3883C126.242 29.1104 127.116 28.9715 128.08 28.9715H128.084ZM128.084 30.4434C127.398 30.4434 126.76 30.5498 126.172 30.7626C125.585 30.9579 125.07 31.2761 124.628 31.7173C124.188 32.1575 123.837 32.7215 123.574 33.4093C123.33 34.0953 123.191 34.9115 123.158 35.8579C123.141 36.2248 123.125 36.5678 123.108 36.8869C123.108 37.1969 123.108 37.4995 123.108 37.7948C123.108 38.0883 123.108 38.3974 123.108 38.722C123.125 39.032 123.141 39.3667 123.158 39.7262C123.191 40.6892 123.33 41.5146 123.574 42.2024C123.836 42.8719 124.179 43.4267 124.603 43.8669C125.044 44.3071 125.558 44.6336 126.147 44.8464C126.734 45.0417 127.378 45.1394 128.078 45.1394C128.781 45.1394 129.425 45.0417 130.01 44.8464C130.597 44.6336 131.103 44.3071 131.528 43.8669C131.969 43.4267 132.312 42.8719 132.557 42.2024C132.819 41.5164 132.966 40.691 132.998 39.7262C133.014 39.3667 133.022 39.032 133.022 38.722C133.022 38.3955 133.022 38.0865 133.022 37.7948C133.022 37.5014 133.022 37.1987 133.022 36.8869C133.022 36.5769 133.014 36.2339 132.998 35.8579C132.965 34.9106 132.818 34.0944 132.557 33.4093C132.313 32.7233 131.97 32.1593 131.528 31.7173C131.088 31.2771 130.574 30.9588 129.985 30.7626C129.398 30.5498 128.761 30.4434 128.073 30.4434H128.084ZM140.042 44.8959H148.494C148.861 44.8959 149.044 45.0793 149.044 45.4462V45.8135C149.044 46.173 148.861 46.3527 148.494 46.3527H139.038C138.679 46.3527 138.499 46.173 138.499 45.8135V29.7542C138.499 29.3947 138.679 29.215 139.038 29.215H139.503C139.863 29.215 140.042 29.3947 140.042 29.7542V44.8959ZM10.5957 51.792L8.94497 50.8373L27.3483 18.9637L28.9991 19.9184L10.5957 51.792Z" fill="white"/>
<path d="M8.56942 48.2924H45.3761V50.2004H8.56942V48.2924Z" fill="white"/>
<path d="M27.7087 59.9936L9.29714 49.364L10.2518 47.7132L28.662 58.3401L27.7087 59.9936ZM43.7019 32.2881L25.2917 21.6599L26.2464 20.0092L44.6566 30.6388L43.7019 32.2881Z" fill="white"/>
<path d="M10.256 32.2826L9.30126 30.6319L27.7266 20.0147L28.6813 21.6654L10.256 32.2826Z" fill="white"/>
<path d="M43.3622 51.792L24.9574 19.9184L26.6082 18.9637L45.0116 50.8373L43.3622 51.792ZM10.029 29.3663H11.9342V50.6255H10.029V29.3663ZM42.0209 29.3663H43.9289V50.6255H42.0195L42.0209 29.3663Z" fill="white"/>
<path d="M27.3827 59.1861L26.5491 57.7417L42.5615 48.4973L43.3952 49.9418L27.3827 59.1861Z" fill="white"/>
<path d="M46.4574 51.2459C45.9247 52.1671 45.0484 52.8394 44.0206 53.1151C42.9928 53.3908 41.8976 53.2474 40.9754 52.7164C40.0542 52.1838 39.3819 51.3074 39.1062 50.2797C38.8305 49.2519 38.9739 48.1567 39.5049 47.2345C40.0375 46.3133 40.9139 45.641 41.9416 45.3653C42.9694 45.0896 44.0646 45.2329 44.9868 45.7639C46.9182 46.8645 47.5716 49.3406 46.4574 51.2459ZM14.4434 32.7572C13.9108 33.6785 13.0344 34.3508 12.0066 34.6265C10.9788 34.9022 9.88366 34.7588 8.96148 34.2278C8.04023 33.6952 7.36797 32.8188 7.09226 31.791C6.81655 30.7632 6.95993 29.668 7.49092 28.7459C8.02352 27.8246 8.89991 27.1524 9.9277 26.8766C10.9555 26.6009 12.0507 26.7443 12.9729 27.2753C14.8919 28.3758 15.5453 30.852 14.4448 32.7572M7.5033 51.2459C6.40004 49.3269 7.05484 46.8796 8.97524 45.7639C10.8943 44.6607 13.3415 45.3155 14.4572 47.2359C15.5604 49.1549 14.9056 51.6022 12.9852 52.7178C11.0538 53.8211 8.60656 53.1663 7.5033 51.2459ZM39.5186 32.7572C38.4153 30.8382 39.0702 28.391 40.9905 27.2753C42.9096 26.172 45.3568 26.8269 46.4725 28.7472C47.5757 30.6663 46.9209 33.1135 45.0005 34.2292C44.0784 34.7602 42.9832 34.9036 41.9554 34.6278C40.9276 34.3521 40.0512 33.6785 39.5186 32.7572ZM26.9769 62.5C24.7594 62.5 22.9669 60.7075 22.9669 58.49C22.9669 56.2725 24.7635 54.48 26.9769 54.48C29.1903 54.48 30.9869 56.2725 30.9869 58.49C30.9851 59.553 30.562 60.5719 29.8104 61.3235C29.0587 62.0751 28.0398 62.4982 26.9769 62.5ZM26.9769 25.52C24.7594 25.52 22.9669 23.7275 22.9669 21.51C22.9669 19.2925 24.7635 17.5 26.9769 17.5C29.1903 17.5 30.9869 19.2925 30.9869 21.51C30.9878 22.0369 30.8847 22.5587 30.6835 23.0456C30.4823 23.5325 30.1869 23.975 29.8144 24.3475C29.4419 24.7201 28.9994 25.0154 28.5125 25.2166C28.0256 25.4178 27.5037 25.5209 26.9769 25.52Z" fill="white"/>
</svg>
