<svg width="156" height="80" viewBox="0 0 156 80" fill="none" xmlns="http://www.w3.org/2000/svg">
<path d="M61.9773 30.5828C61.2544 30.5828 60.5948 30.679 59.9984 30.8715C59.4201 31.0486 58.9132 31.3468 58.4777 31.7661C58.0593 32.1682 57.7213 32.6914 57.4638 33.3356C57.2225 33.979 57.0857 34.7471 57.0531 35.6398C57.0025 37.0883 57.0025 38.5368 57.0531 39.9853C57.0857 40.8862 57.2225 41.6542 57.4638 42.2895C57.7213 42.9329 58.0593 43.4642 58.4777 43.8835C58.9114 44.2856 59.4183 44.5838 59.9984 44.778C60.5948 44.9551 61.2544 45.0437 61.9773 45.0437C62.6876 45.0437 63.3472 44.9475 63.9562 44.755C64.5653 44.5454 65.0885 44.2408 65.5258 43.8414C65.9776 43.4231 66.3327 42.8917 66.5912 42.2475C66.8487 41.6041 66.9775 40.8478 66.9775 39.9785V38.7478H62.7716C62.4174 38.7478 62.2403 38.5671 62.2403 38.2056V37.8668C62.2403 37.5053 62.4174 37.3246 62.7716 37.3246H67.9357C68.2972 37.3246 68.4779 37.5053 68.4779 37.8668V39.9907C68.4779 40.9576 68.3333 41.8431 68.0442 42.6473C67.755 43.4362 67.3285 44.1211 66.7647 44.7021C66.218 45.2804 65.533 45.7309 64.7098 46.0535C63.8966 46.3589 62.9794 46.5116 61.9584 46.5116C60.912 46.5116 59.9948 46.3589 59.2069 46.0535C58.418 45.7318 57.7503 45.289 57.2036 44.7252C56.6722 44.1622 56.262 43.4945 55.9729 42.7219C55.6991 41.933 55.5463 41.0637 55.5147 40.1141C55.4822 39.3912 55.4659 38.6267 55.4659 37.8207C55.4659 37.0074 55.4822 36.243 55.5147 35.5273C55.5472 34.5785 55.7081 33.7174 55.9973 32.9439C56.2864 32.1551 56.6966 31.4792 57.228 30.9162C57.7746 30.3533 58.4424 29.9186 59.2313 29.6123C60.0201 29.2906 60.9291 29.1298 61.9584 29.1298C63.0698 29.1298 64.0195 29.2988 64.8074 29.6367C65.5963 29.9747 66.2401 30.3813 66.7389 30.8566C67.2377 31.3237 67.6082 31.8149 67.8503 32.3299C68.0916 32.845 68.2204 33.2715 68.2366 33.6094C68.2529 33.754 68.2122 33.8746 68.1146 33.9713C68.018 34.0526 67.8892 34.0933 67.7284 34.0933H67.197C67.0525 34.0933 66.9476 34.0617 66.8826 33.9984C66.8193 33.9171 66.7552 33.7883 66.6901 33.6121C66.5618 33.2507 66.3811 32.8892 66.1479 32.5278C65.922 32.1664 65.6175 31.8447 65.2344 31.5627C64.8486 31.2736 64.39 31.04 63.8586 30.862C63.3273 30.6849 62.6993 30.5963 61.9746 30.5963L61.9773 30.5828ZM73.3737 35.385C73.952 34.2736 75.0462 33.7179 76.6565 33.7179H77.551C77.9053 33.7179 78.0824 33.895 78.0824 34.2492V34.588C78.0824 34.9422 77.9053 35.1194 77.551 35.1194H76.5128C75.5459 35.1194 74.7815 35.4008 74.2194 35.9638C73.6565 36.5267 73.375 37.2912 73.375 38.2571V45.739C73.375 45.8999 73.3185 46.0286 73.2056 46.1253C73.1089 46.222 72.9801 46.2703 72.8193 46.2703H72.433C72.0788 46.2703 71.9017 46.0932 71.9017 45.739V34.2722C71.9017 34.1114 71.95 33.9826 72.0467 33.8859C72.1434 33.773 72.2722 33.7165 72.433 33.7165H72.8193C72.9801 33.7165 73.1089 33.773 73.2056 33.8859C73.3185 33.9826 73.375 34.1114 73.375 34.2722V35.3837L73.3737 35.385ZM88.2832 46.2771C87.929 46.2771 87.7519 46.1 87.7519 45.7458V44.6113C87.6073 44.8372 87.4144 45.0631 87.1731 45.289C86.9472 45.5149 86.6657 45.716 86.3287 45.8922C85.9907 46.0693 85.5841 46.2139 85.1088 46.3259C84.6417 46.4542 84.095 46.5184 83.4688 46.5184C82.8905 46.5184 82.3347 46.4298 81.8016 46.2527C81.2866 46.0603 80.828 45.8027 80.4259 45.4801C80.04 45.1585 79.7265 44.7803 79.4852 44.3457C79.2593 43.9119 79.1464 43.4375 79.1464 42.9225C79.1464 42.3758 79.2593 41.8847 79.4852 41.4491C79.7265 41.0154 80.0563 40.6372 80.4747 40.3147C80.893 39.9767 81.3918 39.7034 81.971 39.4946C82.5674 39.2687 83.2194 39.1079 83.9269 39.0121L87.741 38.4808V37.6364C87.741 36.7671 87.4754 36.0912 86.9441 35.6087C86.429 35.1261 85.6004 34.8849 84.4582 34.8849C83.5573 34.8849 82.857 35.062 82.3573 35.4162C81.8748 35.7541 81.5703 36.1246 81.4438 36.5276C81.3805 36.7201 81.3001 36.857 81.2025 36.9383C81.1212 37.0016 81.0082 37.0332 80.8637 37.0332H80.5248C80.3802 37.0332 80.2515 36.9849 80.1385 36.8882C80.0418 36.7752 79.9935 36.6465 79.9935 36.5019C79.9935 36.276 80.0739 35.9945 80.2348 35.6575C80.3956 35.3195 80.6531 34.9897 81.0073 34.668C81.3688 34.3463 81.8355 34.073 82.4075 33.848C82.9704 33.6067 83.6554 33.4861 84.4623 33.4861C85.4111 33.4861 86.1918 33.6148 86.8044 33.8724C87.4315 34.1299 87.9227 34.4678 88.2778 34.8862C88.632 35.2883 88.8733 35.7388 89.0016 36.2376C89.1461 36.7364 89.2184 37.2275 89.2184 37.7109V45.7485C89.2184 46.1027 89.0413 46.2798 88.6871 46.2798H88.2764L88.2832 46.2771ZM83.7209 45.1182C84.2676 45.1182 84.7826 45.0297 85.266 44.8526C85.7648 44.6601 86.1995 44.3786 86.57 44.0082C86.9314 43.6467 87.2206 43.18 87.4374 42.608C87.6471 42.0451 87.7519 41.3854 87.7519 40.6291V39.8091L84.6385 40.2428C81.9674 40.6043 80.6319 41.4573 80.6319 42.8018C80.6319 43.2039 80.7204 43.55 80.8976 43.8401C81.09 44.1292 81.3313 44.3705 81.6213 44.5639C81.9105 44.7563 82.2403 44.9009 82.6108 44.9976C82.9722 45.0789 83.3427 45.1196 83.7222 45.1196L83.7209 45.1182ZM98.5708 46.5184C97.5569 46.5184 96.7283 46.3377 96.085 45.9762C95.4416 45.6148 94.9184 45.1643 94.5154 44.6249V50.3447C94.5154 50.6989 94.3383 50.876 93.9841 50.876H93.5734C93.2192 50.876 93.0421 50.6989 93.0421 50.3447V34.2492C93.0421 33.895 93.2192 33.7179 93.5734 33.7179H93.9841C94.3383 33.7179 94.5154 33.895 94.5154 34.2492V35.3837C94.9175 34.837 95.4407 34.3865 96.085 34.0323C96.7283 33.6709 97.5569 33.4901 98.5708 33.4901C99.5042 33.4901 100.293 33.6591 100.936 33.9971C101.596 34.3188 102.127 34.7534 102.53 35.301C102.932 35.8323 103.221 36.444 103.397 37.1362C103.59 37.8121 103.703 38.5043 103.736 39.2127C103.753 39.454 103.761 39.7196 103.761 40.0097C103.761 40.2988 103.753 40.5645 103.736 40.8067C103.704 41.5169 103.591 42.2172 103.397 42.9076C103.22 43.5835 102.931 44.1952 102.53 44.7428C102.128 45.2741 101.597 45.7087 100.936 46.0467C100.293 46.3684 99.5042 46.5292 98.5708 46.5292V46.5184ZM94.5154 39.1314C94.4991 39.3726 94.491 39.6862 94.491 40.072C94.491 40.4579 94.4991 40.7714 94.5154 41.0127C94.5317 41.4952 94.6121 41.9863 94.7567 42.486C94.9175 42.9686 95.1588 43.4032 95.4804 43.7899C95.8021 44.1758 96.2088 44.4975 96.7003 44.755C97.1828 44.9963 97.7621 45.1169 98.438 45.1169C99.1482 45.1169 99.7355 44.9963 100.2 44.755C100.683 44.5137 101.069 44.192 101.359 43.7899C101.664 43.3716 101.881 42.8972 102.009 42.3667C102.154 41.8201 102.243 41.2567 102.275 40.6766C102.291 40.2247 102.291 39.7743 102.275 39.3252C102.243 38.7469 102.154 38.1912 102.009 37.658C101.881 37.1267 101.664 36.66 101.359 36.2579C101.07 35.8395 100.683 35.5097 100.2 35.2684C99.7328 35.0109 99.1455 34.8822 98.438 34.8822C97.7458 34.8822 97.1584 35.0109 96.6759 35.2684C96.1934 35.526 95.7868 35.8639 95.456 36.2823C95.1506 36.6844 94.917 37.1349 94.7553 37.6336C94.6107 38.1324 94.5303 38.6312 94.514 39.13L94.5154 39.1314ZM108.521 35.385C108.955 34.8221 109.478 34.3635 110.09 34.0093C110.699 33.6551 111.528 33.4779 112.576 33.4779C113.397 33.4779 114.113 33.6148 114.725 33.8886C115.334 34.1624 115.841 34.5406 116.245 35.0231C116.664 35.5056 116.977 36.0772 117.186 36.7377C117.396 37.3974 117.5 38.1135 117.5 38.886V45.7417C117.5 46.0959 117.323 46.273 116.969 46.273H116.563C116.208 46.273 116.031 46.0959 116.031 45.7417V39.0053C116.031 37.7177 115.718 36.712 115.091 35.9882C114.463 35.2472 113.546 34.8767 112.339 34.8767C111.181 34.8767 110.255 35.2382 109.563 35.9611C108.871 36.684 108.525 37.6992 108.525 39.0067V45.7431C108.525 46.0973 108.348 46.2744 107.994 46.2744H107.583C107.229 46.2744 107.052 46.0973 107.052 45.7431V29.6611C107.052 29.3069 107.229 29.1298 107.583 29.1298H107.994C108.348 29.1298 108.525 29.3069 108.525 29.6611V35.3809L108.521 35.385ZM127.348 29.1338C128.281 29.1338 129.134 29.2707 129.907 29.5445C130.679 29.8183 131.339 30.2367 131.885 30.7996C132.448 31.3463 132.883 32.0385 133.189 32.8761C133.511 33.6966 133.688 34.6703 133.721 35.7971C133.753 36.5199 133.77 37.1958 133.77 37.8248C133.77 38.4519 133.753 39.1278 133.721 39.8525C133.639 42.1539 133.052 43.8437 131.959 44.9217L133.504 47.0944C133.52 47.127 133.536 47.1586 133.553 47.1893C133.569 47.2218 133.577 47.2783 133.577 47.3587C133.577 47.487 133.529 47.6 133.432 47.6976C133.335 47.7943 133.222 47.8426 133.093 47.8426H132.562C132.385 47.8426 132.232 47.7703 132.104 47.6258C131.975 47.4974 131.871 47.3845 131.789 47.2869L130.724 45.8136C129.757 46.2807 128.63 46.5143 127.344 46.5143C125.332 46.5143 123.779 45.9753 122.685 44.8973C121.607 43.8193 121.035 42.1377 120.97 39.8525C120.938 39.1296 120.922 38.4537 120.922 37.8248C120.922 37.1977 120.938 36.5218 120.97 35.7971C121.003 34.6703 121.172 33.6966 121.477 32.8761C121.799 32.0394 122.234 31.3472 122.781 30.7996C123.344 30.2367 124.004 29.8183 124.76 29.5445C125.533 29.2707 126.394 29.1338 127.344 29.1338H127.348ZM127.348 30.5841C126.672 30.5841 126.044 30.689 125.464 30.8986C124.885 31.0911 124.378 31.4046 123.943 31.8393C123.509 32.273 123.163 32.8287 122.905 33.5064C122.663 34.1823 122.526 34.9865 122.494 35.919C122.478 36.2805 122.461 36.6184 122.445 36.9329C122.445 37.2383 122.445 37.5365 122.445 37.8275C122.445 38.1166 122.445 38.4211 122.445 38.741C122.461 39.0464 122.478 39.3763 122.494 39.7305C122.526 40.6793 122.663 41.4925 122.905 42.1702C123.162 42.8299 123.5 43.3765 123.918 43.8103C124.352 44.244 124.859 44.5657 125.439 44.7753C126.017 44.9678 126.652 45.064 127.342 45.064C128.034 45.064 128.669 44.9678 129.245 44.7753C129.823 44.5657 130.322 44.244 130.742 43.8103C131.175 43.3765 131.513 42.8299 131.755 42.1702C132.013 41.4943 132.157 40.6811 132.189 39.7305C132.205 39.3763 132.213 39.0464 132.213 38.741C132.213 38.4193 132.213 38.1148 132.213 37.8275C132.213 37.5383 132.213 37.2401 132.213 36.9329C132.213 36.6275 132.205 36.2895 132.189 35.919C132.157 34.9856 132.012 34.1814 131.755 33.5064C131.514 32.8305 131.176 32.2748 130.742 31.8393C130.308 31.4055 129.801 31.092 129.221 30.8986C128.642 30.689 128.014 30.5841 127.337 30.5841H127.348ZM139.13 44.8241H147.458C147.819 44.8241 148 45.0048 148 45.3663V45.7282C148 46.0824 147.819 46.2595 147.458 46.2595H138.141C137.787 46.2595 137.609 46.0824 137.609 45.7282V29.9051C137.609 29.5509 137.787 29.3738 138.141 29.3738H138.599C138.953 29.3738 139.13 29.5509 139.13 29.9051V44.8241ZM11.5871 51.6188L9.96063 50.6781L28.0934 19.2732L29.7199 20.2139L11.5871 51.6188Z" fill="white"/>
<path d="M9.59061 48.1706H45.856V50.0506H9.59061V48.1706Z" fill="white"/>
<path d="M28.4485 59.6998L10.3076 49.2265L11.2483 47.6L29.3878 58.0706L28.4485 59.6998ZM44.2065 32.4017L26.067 21.9298L27.0077 20.3033L45.1472 30.7766L44.2065 32.4017Z" fill="white"/>
<path d="M11.2523 32.3963L10.3117 30.7698L28.4661 20.3088L29.4067 21.9352L11.2523 32.3963Z" fill="white"/>
<path d="M43.8717 51.6188L25.7376 20.2139L27.3641 19.2732L45.4969 50.6781L43.8717 51.6188ZM11.0287 29.5229H12.9059V50.4694H11.0287V29.5229ZM42.5502 29.5229H44.4302V50.4694H42.5488L42.5502 29.5229Z" fill="white"/>
<path d="M28.1272 58.9041L27.3059 57.481L43.0829 48.3726L43.9043 49.7958L28.1272 58.9041Z" fill="white"/>
<path d="M46.9214 51.0807C46.3966 51.9884 45.5331 52.6508 44.5205 52.9224C43.5078 53.1941 42.4287 53.0528 41.5201 52.5296C40.6124 52.0049 39.95 51.1414 39.6783 50.1287C39.4067 49.116 39.548 48.0369 40.0711 47.1283C40.5959 46.2206 41.4594 45.5582 42.4721 45.2866C43.4848 45.0149 44.5639 45.1562 45.4725 45.6794C47.3755 46.7637 48.0193 49.2035 46.9214 51.0807ZM15.3782 32.8639C14.8534 33.7716 13.9899 34.434 12.9773 34.7057C11.9646 34.9773 10.8855 34.8361 9.9769 34.3129C9.0692 33.7881 8.40682 32.9246 8.13516 31.9119C7.86351 30.8993 8.00478 29.8202 8.52796 28.9116C9.05273 28.0039 9.91624 27.3415 10.9289 27.0698C11.9416 26.7982 13.0207 26.9394 13.9293 27.4626C15.8201 28.547 16.4639 30.9867 15.3796 32.8639M8.54016 51.0807C7.45312 49.1899 8.0983 46.7786 9.99045 45.6794C11.8813 44.5923 14.2925 45.2375 15.3918 47.1297C16.4788 49.0205 15.8336 51.4318 13.9415 52.531C12.0385 53.618 9.6272 52.9729 8.54016 51.0807ZM40.0847 32.8639C38.9977 30.9731 39.6428 28.5619 41.535 27.4626C43.4258 26.3756 45.8371 27.0208 46.9363 28.9129C48.0234 30.8037 47.3782 33.215 45.486 34.3142C44.5774 34.8374 43.4983 34.9787 42.4856 34.707C41.473 34.4354 40.6095 33.7716 40.0847 32.8639ZM27.7274 62.1693C25.5425 62.1693 23.7764 60.4032 23.7764 58.2183C23.7764 56.0334 25.5465 54.2673 27.7274 54.2673C29.9083 54.2673 31.6784 56.0334 31.6784 58.2183C31.6766 59.2656 31.2598 60.2696 30.5192 61.0101C29.7786 61.7507 28.7747 62.1676 27.7274 62.1693ZM27.7274 25.7331C25.5425 25.7331 23.7764 23.967 23.7764 21.7821C23.7764 19.5972 25.5465 17.8311 27.7274 17.8311C29.9083 17.8311 31.6784 19.5972 31.6784 21.7821C31.6793 22.3012 31.5777 22.8154 31.3795 23.2951C31.1812 23.7749 30.8902 24.2108 30.5232 24.5779C30.1561 24.9449 29.7202 25.2359 29.2404 25.4342C28.7607 25.6324 28.2465 25.734 27.7274 25.7331Z" fill="white"/>
</svg>
