<svg width="156" height="80" viewBox="0 0 156 80" fill="none" xmlns="http://www.w3.org/2000/svg">
<path fill-rule="evenodd" clip-rule="evenodd" d="M29.421 32.403C29.8404 32.6267 30.176 32.9903 30.3159 33.4377L32.4413 42.5825C32.4972 43.0579 32.3853 43.5333 32.1057 43.9248L26.2049 51.2239C25.8973 51.6434 25.4219 51.8671 24.9185 51.8111H15.522C15.0466 51.7832 14.5712 51.5595 14.2356 51.2239L8.33487 43.9248C8.05521 43.5333 7.94335 43.0579 8.02725 42.5825L10.1247 33.3818C10.2365 32.9064 10.5442 32.5428 10.9636 32.3471L19.4932 28.2361C19.7169 28.1802 19.9686 28.1802 20.1923 28.1802C20.416 28.1802 20.6677 28.2081 20.8914 28.32L29.421 32.403ZM28.9456 42.191C28.9456 42.2189 28.9736 42.2189 29.0015 42.2189C29.2532 42.2749 29.4769 42.4986 29.5049 42.8062C29.421 43.0299 29.1973 43.1977 28.9456 43.1977C28.8897 43.1977 28.8617 43.1977 28.8058 43.1698C28.7778 43.1418 28.7778 43.1418 28.7498 43.1418C28.7171 43.1418 28.6939 43.1322 28.6747 43.1242C28.6611 43.1186 28.6495 43.1138 28.638 43.1138C28.555 43.0931 28.4874 43.057 28.4124 43.0169C28.3863 43.0029 28.3592 42.9884 28.3303 42.974C28.2744 42.974 28.2185 42.946 28.1625 42.9181H28.1346C27.8549 42.8062 27.5473 42.7223 27.2397 42.6664H27.2117C27.1278 42.6664 27.0439 42.6943 26.988 42.7503C26.988 42.7503 26.988 42.7782 26.96 42.7782L26.7363 42.7503C26.2329 44.3443 25.1423 45.6867 23.716 46.5536L23.7999 46.7773C23.7999 46.7773 23.7719 46.7773 23.7719 46.8053C23.716 46.8892 23.716 47.001 23.744 47.0849C23.8558 47.3646 23.9957 47.6443 24.1914 47.8959V47.9519C24.2474 48.0078 24.2753 48.0358 24.3033 48.0917C24.3872 48.1756 24.4431 48.2595 24.499 48.3714C24.527 48.3993 24.555 48.4273 24.555 48.4553C24.555 48.4553 24.5829 48.4553 24.5829 48.4832C24.6389 48.6231 24.6389 48.7629 24.6109 48.9027C24.5829 49.0425 24.4711 49.1544 24.3592 49.2103C24.3417 49.2162 24.3254 49.222 24.3098 49.2276C24.2508 49.2488 24.2019 49.2663 24.1355 49.2663C23.9118 49.2663 23.716 49.1264 23.6041 48.9307C23.5762 48.9307 23.5762 48.9027 23.5762 48.9027C23.5622 48.8887 23.5552 48.8747 23.5482 48.8608C23.5412 48.8468 23.5342 48.8328 23.5203 48.8188C23.4643 48.7349 23.4364 48.6231 23.4084 48.5112L23.3525 48.3434V48.3154C23.2686 48.0078 23.1287 47.7282 22.9889 47.4485C22.933 47.3646 22.8491 47.3087 22.7652 47.2807C22.7652 47.2527 22.7652 47.2527 22.7372 47.2527L22.6253 47.057C22.5542 47.0783 22.4812 47.1015 22.4069 47.1251C22.1891 47.1942 21.9598 47.267 21.7304 47.3087C21.2271 47.4485 20.7237 47.5044 20.2203 47.5044C19.3813 47.5044 18.5703 47.3646 17.7873 47.057L17.6754 47.2807C17.6754 47.2947 17.6754 47.3017 17.6719 47.3052C17.6684 47.3087 17.6614 47.3087 17.6475 47.3087C17.5636 47.3366 17.4797 47.3926 17.4237 47.4765C17.2839 47.7561 17.1441 48.0358 17.0602 48.3434L17.0043 48.5112C16.9903 48.5671 16.9693 48.6161 16.9483 48.665C16.9273 48.7139 16.9064 48.7629 16.8924 48.8188C16.8644 48.8468 16.8365 48.8747 16.8365 48.9027C16.8085 48.9027 16.8085 48.9307 16.8085 48.9307C16.6966 49.1264 16.5009 49.2663 16.2771 49.2663C16.2212 49.2663 16.1373 49.2383 16.0814 49.2103C15.8297 49.0705 15.7178 48.7349 15.8577 48.4553C15.8856 48.4553 15.8856 48.4273 15.8856 48.4273C15.8996 48.4133 15.9066 48.3993 15.9136 48.3853C15.9206 48.3714 15.9276 48.3574 15.9416 48.3434C15.9783 48.2944 16.0098 48.2453 16.0381 48.201C16.0745 48.1442 16.1059 48.0952 16.1373 48.0637C16.1933 48.0078 16.2212 47.9798 16.2492 47.9239V47.8959C16.417 47.6443 16.5848 47.3646 16.6966 47.0849C16.7246 47.001 16.7246 46.8892 16.6687 46.8053C16.6687 46.8053 16.6407 46.8053 16.6407 46.7773L16.7805 46.5816C16.5009 46.4417 16.2771 46.2739 16.0255 46.0782C14.9348 45.2392 14.1518 44.0926 13.7323 42.8062L13.4806 42.8342C13.4806 42.8342 13.4806 42.8062 13.4526 42.8062C13.3967 42.7503 13.3128 42.7223 13.2289 42.7223H13.2009C12.8653 42.7782 12.5857 42.8621 12.2781 42.974H12.2501C12.1942 42.974 12.1382 43.002 12.0823 43.0299C12.0511 43.0403 12.016 43.0546 11.9784 43.0699C11.9151 43.0957 11.8449 43.1242 11.7747 43.1418C11.7662 43.1418 11.7526 43.1392 11.7378 43.1364C11.7036 43.13 11.6628 43.1223 11.6628 43.1418C11.6628 43.1698 11.6628 43.1698 11.6349 43.1698C11.5789 43.1977 11.551 43.1977 11.495 43.1977C11.2433 43.2257 10.9916 43.0579 10.9357 42.8062C10.8798 42.4986 11.0755 42.2189 11.3832 42.163C11.4111 42.135 11.4111 42.135 11.4391 42.135C11.4719 42.135 11.495 42.1254 11.5142 42.1175C11.5278 42.1119 11.5394 42.1071 11.551 42.1071C11.6069 42.1071 11.6628 42.1001 11.7187 42.0931C11.7747 42.0861 11.8306 42.0791 11.8865 42.0791C11.9425 42.0511 11.9984 42.0511 12.0543 42.0511C12.3899 42.0232 12.6975 41.9672 13.0052 41.8833C13.0891 41.8274 13.173 41.7715 13.2009 41.6876C13.2009 41.6876 13.2289 41.6876 13.2289 41.6596L13.4526 41.6037C13.2009 40.0096 13.5645 38.3876 14.4314 37.0173C14.4454 36.9893 14.4594 36.9684 14.4734 36.9474C14.4873 36.9264 14.5013 36.9055 14.5153 36.8775L14.353 36.7151C14.3657 36.6347 14.3147 36.537 14.2636 36.486C14.0399 36.2622 13.7602 36.0944 13.4806 35.9267L13.3128 35.8428C13.2009 35.7868 13.0891 35.7309 13.0052 35.675C12.9772 35.675 12.9213 35.619 12.9213 35.619C12.9213 35.619 12.9213 35.5911 12.8933 35.5911C12.6696 35.3953 12.6136 35.0597 12.7814 34.808C12.8653 34.6682 13.0052 34.6123 13.173 34.6123C13.3128 34.6123 13.4526 34.6682 13.5645 34.7521L13.5924 34.7801C13.6064 34.794 13.6204 34.801 13.6344 34.808C13.6484 34.815 13.6624 34.822 13.6763 34.836C13.7183 34.8779 13.7532 34.9199 13.7882 34.9618C13.8232 35.0038 13.8581 35.0457 13.9001 35.0877C13.9085 35.0962 13.9196 35.1046 13.9316 35.1139C13.9593 35.1351 13.9924 35.1605 14.0119 35.1995C14.2077 35.4233 14.4594 35.647 14.7111 35.8428C14.767 35.8707 14.8229 35.8987 14.8789 35.8987C14.9116 35.8987 14.9348 35.8891 14.954 35.8811C14.9676 35.8755 14.9791 35.8707 14.9907 35.8707H15.0187L15.1865 35.9826C16.1094 35.0038 17.3119 34.3046 18.6263 34.025C18.6747 34.0169 18.7226 34.0088 18.7699 34.0008C19.0507 33.9535 19.3139 33.9091 19.5771 33.8852L19.6051 33.6614V33.6055C19.689 33.5496 19.7169 33.4657 19.7449 33.3818C19.7449 33.0462 19.7449 32.7386 19.689 32.4309V32.403C19.689 32.347 19.689 32.2911 19.661 32.2352C19.633 32.1233 19.6051 32.0115 19.6051 31.8996V31.7598C19.6051 31.6199 19.661 31.4801 19.7729 31.3683C19.9127 31.2284 20.0805 31.1445 20.2483 31.1725C20.5279 31.2005 20.7517 31.4801 20.7237 31.7598V31.9276C20.7097 31.9835 20.7027 32.0394 20.6957 32.0954C20.6887 32.1513 20.6817 32.2072 20.6678 32.2632C20.6678 32.2911 20.6608 32.3191 20.6538 32.347C20.6468 32.375 20.6398 32.403 20.6398 32.4309V32.4589C20.5839 32.7945 20.5839 33.1021 20.5839 33.4097C20.6118 33.4936 20.6398 33.5775 20.7237 33.6335V33.6055L20.7517 33.8292C22.066 33.9691 23.3525 34.4724 24.3872 35.2834C24.499 35.3953 24.6179 35.5072 24.7367 35.619C24.8556 35.7309 24.9745 35.8428 25.0863 35.9546L25.3101 35.8148H25.338C25.366 35.8428 25.4219 35.8428 25.4499 35.8428C25.5058 35.8428 25.5617 35.8148 25.6177 35.7868C25.8694 35.619 26.1211 35.3953 26.3168 35.1716C26.3253 35.1631 26.3363 35.1546 26.3484 35.1454C26.3761 35.1241 26.4092 35.0987 26.4287 35.0597C26.4846 34.9758 26.5685 34.8919 26.6524 34.808C26.6804 34.808 26.7083 34.7801 26.7363 34.7521L26.7643 34.7241C26.8761 34.6402 27.016 34.5843 27.1558 34.5843C27.2956 34.5843 27.4634 34.6682 27.5473 34.7801C27.7431 35.0318 27.6871 35.3673 27.4354 35.5631C27.4354 35.5738 27.4395 35.5804 27.443 35.586C27.4486 35.5951 27.4527 35.6017 27.4354 35.619C27.4215 35.633 27.4075 35.64 27.3935 35.647C27.3795 35.654 27.3655 35.661 27.3515 35.675C27.2956 35.7029 27.2467 35.7309 27.1977 35.7589C27.1488 35.7868 27.0999 35.8148 27.0439 35.8428L26.8761 35.9267C26.5965 36.0944 26.3448 36.2622 26.0931 36.486C26.0372 36.5419 26.0092 36.6538 26.0092 36.7377V36.7656L25.8414 36.9334C26.2888 37.6326 26.6244 38.4156 26.8202 39.2266C26.988 40.0376 27.0439 40.8766 26.9321 41.6876L27.1558 41.7435C27.1837 41.8274 27.2676 41.9113 27.3515 41.9393C27.6592 42.0232 27.9948 42.0791 28.3024 42.1071H28.3303C28.3863 42.135 28.4422 42.135 28.4981 42.135C28.61 42.135 28.7219 42.135 28.8337 42.163C28.8897 42.163 28.9456 42.163 28.9456 42.191ZM14.353 36.7151L14.3475 36.7097V36.7377C14.35 36.7303 14.3518 36.7228 14.353 36.7151ZM20.1644 41.7155L20.9194 41.352L21.1152 40.541L20.5839 39.8698H19.7449L19.2135 40.541L19.4093 41.352L20.1644 41.7155ZM25.5897 41.2961C25.6456 40.7088 25.6177 40.1215 25.4778 39.5342C25.338 38.9469 25.1143 38.3876 24.8067 37.8842L22.7092 39.7859C22.6533 39.8418 22.6253 39.8978 22.5974 39.9817C22.5415 40.2334 22.6813 40.4851 22.933 40.541L25.5897 41.2961ZM21.6745 38.4715L23.9677 36.8495C23.1287 36.0105 22.0381 35.4792 20.8076 35.3394L20.9754 38.1639C20.9754 38.2478 21.0033 38.3037 21.0593 38.3597C21.1991 38.5554 21.4788 38.5834 21.6745 38.4715ZM19.4652 35.3114L18.9059 35.4233C17.9271 35.647 17.0322 36.1504 16.3051 36.8495L18.6263 38.4995C18.6438 38.5053 18.6601 38.5112 18.6756 38.5167C18.7347 38.5379 18.7836 38.5554 18.85 38.5554C19.1017 38.5554 19.3254 38.3597 19.3254 38.108L19.4652 35.3114ZM17.5636 39.73L15.4941 37.8842C14.8789 38.919 14.5992 40.1215 14.6831 41.2961L17.3958 40.513C17.5076 40.4851 17.5636 40.4571 17.6195 40.3732C17.7873 40.1774 17.7593 39.8978 17.5636 39.73ZM17.7873 42.135L15.0187 42.6104C15.4102 43.7291 16.1933 44.7079 17.172 45.3511L18.2347 42.7782C18.2907 42.6943 18.2907 42.5825 18.2627 42.4986C18.2347 42.2749 18.011 42.135 17.7873 42.135ZM20.1644 46.218C20.5839 46.218 20.9754 46.1621 21.3669 46.0782C21.5626 46.0223 21.7304 45.9943 21.8982 45.9663L20.5559 43.5333C20.472 43.4494 20.4161 43.3935 20.3322 43.3375C20.1364 43.2257 19.9127 43.2816 19.7729 43.4494L18.4025 45.9384C18.9619 46.1061 19.5771 46.218 20.1644 46.218ZM23.1008 45.3231C23.7719 44.9036 24.3592 44.3163 24.7787 43.6452C25.0024 43.3375 25.1702 42.974 25.3101 42.5825L22.5135 42.1071C22.4296 42.1071 22.3457 42.135 22.2618 42.163C22.066 42.2469 21.9542 42.4706 22.0101 42.6943L23.1008 45.3231Z" fill="white"/>
<path d="M143.493 45.6587C143.884 45.6867 144.304 45.6308 144.667 45.4909C144.891 45.3791 145.031 45.1274 145.003 44.8757C144.975 44.596 144.807 44.3443 144.556 44.2604C144.136 44.0087 143.661 43.785 143.185 43.6452C142.71 43.4774 142.29 43.2816 141.899 43.0859C141.535 42.9181 141.228 42.6944 140.92 42.4147C140.64 42.135 140.445 41.8274 140.305 41.4639C140.137 41.0444 140.081 40.5969 140.081 40.1495C140.053 39.2266 140.473 38.3317 141.2 37.7724C141.955 37.1851 142.962 36.9055 144.248 36.9055C144.863 36.9055 145.506 36.9614 146.122 37.1012C146.597 37.1851 147.072 37.297 147.548 37.4648L147.017 39.8419C146.625 39.702 146.261 39.6181 145.87 39.5063C145.422 39.3944 144.947 39.3664 144.5 39.3664C143.549 39.3664 143.073 39.6181 143.073 40.1495C143.073 40.2613 143.101 40.3732 143.129 40.4851C143.185 40.5969 143.269 40.6808 143.381 40.7647C143.493 40.8486 143.661 40.9325 143.856 41.0444C144.052 41.1562 144.332 41.2681 144.667 41.38C145.227 41.5757 145.786 41.8274 146.289 42.1071C146.681 42.3028 147.017 42.5545 147.296 42.8901C147.548 43.1418 147.716 43.4494 147.828 43.813C147.939 44.2045 147.995 44.596 147.995 44.9875C148.051 45.9384 147.604 46.8612 146.793 47.3926C146.01 47.9239 144.891 48.2036 143.437 48.2036C142.626 48.2316 141.843 48.1477 141.06 47.9519C140.612 47.84 140.193 47.7002 139.773 47.5604L140.277 45.0994C140.78 45.2952 141.312 45.463 141.843 45.5748C142.402 45.6028 142.934 45.6587 143.493 45.6587ZM128.084 42.5825C128.056 41.7435 128.224 40.9046 128.503 40.1215C128.755 39.4503 129.146 38.8631 129.65 38.3317C130.125 37.8563 130.657 37.4927 131.272 37.269C131.887 37.0173 132.53 36.9055 133.174 36.9055C134.684 36.9055 135.886 37.3809 136.753 38.3038C137.62 39.2266 138.068 40.5969 138.068 42.3867C138.068 42.5545 138.068 42.7503 138.04 42.974C138.04 43.1977 138.012 43.3655 138.012 43.5333H131.188C131.244 44.1206 131.552 44.6799 132.055 45.0155C132.67 45.407 133.397 45.6028 134.124 45.5748C134.656 45.5748 135.215 45.5189 135.746 45.435C136.194 45.3511 136.641 45.2113 137.061 45.0155L137.48 47.4765C137.284 47.5883 137.061 47.6443 136.837 47.7282C136.529 47.8121 136.222 47.896 135.914 47.9239C135.579 47.9799 135.243 48.0358 134.851 48.0917C134.488 48.1197 134.096 48.1477 133.705 48.1477C132.838 48.1756 131.999 48.0358 131.188 47.7282C130.517 47.4765 129.93 47.085 129.426 46.5816C128.951 46.0782 128.615 45.463 128.391 44.8197C128.196 44.0647 128.084 43.3096 128.084 42.5825ZM135.159 41.4359C135.159 41.1842 135.103 40.9325 135.019 40.6808C134.963 40.4291 134.824 40.2334 134.684 40.0376C134.516 39.8419 134.32 39.6741 134.096 39.5622C133.817 39.4224 133.537 39.3664 133.229 39.3664C132.922 39.3664 132.642 39.4224 132.363 39.5622C132.139 39.6741 131.915 39.8139 131.747 40.0097C131.579 40.2054 131.44 40.4291 131.356 40.6808C131.272 40.9325 131.216 41.1842 131.188 41.4359H135.159ZM119.89 34.5004L122.91 34.025V37.1572H126.546V39.6741H122.91V43.4215C122.882 43.9528 122.994 44.4842 123.246 44.9316C123.469 45.2952 123.917 45.4909 124.616 45.4909C124.952 45.4909 125.287 45.463 125.595 45.407C125.93 45.3511 126.238 45.2672 126.546 45.1553L126.965 47.5044C126.574 47.6722 126.154 47.7841 125.735 47.896C125.203 48.0078 124.644 48.0638 124.085 48.0638C123.386 48.0917 122.686 47.9799 122.043 47.7282C121.54 47.5324 121.092 47.1968 120.757 46.8053C120.421 46.3858 120.197 45.8824 120.058 45.3511C119.918 44.7359 119.862 44.0926 119.89 43.4774V34.5004ZM107.669 42.5825C107.641 41.7435 107.809 40.9046 108.088 40.1215C108.34 39.4503 108.732 38.8631 109.235 38.3317C109.71 37.8563 110.242 37.4927 110.857 37.269C111.472 37.0173 112.115 36.9055 112.759 36.9055C114.269 36.9055 115.471 37.3809 116.338 38.3038C117.205 39.2266 117.653 40.5969 117.653 42.3867C117.653 42.5545 117.653 42.7503 117.625 42.974C117.597 43.1977 117.597 43.3655 117.597 43.5333H110.745C110.801 44.1206 111.109 44.6799 111.612 45.0155C112.227 45.407 112.954 45.6028 113.681 45.5748C114.213 45.5748 114.772 45.5189 115.303 45.435C115.751 45.3511 116.198 45.2113 116.646 45.0155L117.065 47.4765C116.87 47.5883 116.646 47.6443 116.422 47.7282C116.114 47.8121 115.807 47.896 115.499 47.9239C115.164 47.9799 114.828 48.0358 114.437 48.0917C114.073 48.1197 113.681 48.1477 113.29 48.1477C112.423 48.1756 111.584 48.0358 110.773 47.7282C110.102 47.4765 109.515 47.085 109.011 46.5816C108.536 46.0782 108.2 45.463 107.976 44.8197C107.753 44.0647 107.641 43.3096 107.669 42.5825ZM114.744 41.4359C114.744 41.1842 114.688 40.9325 114.604 40.6808C114.548 40.4291 114.409 40.2334 114.269 40.0376C114.101 39.8419 113.905 39.6741 113.681 39.5622C113.402 39.4224 113.122 39.3664 112.815 39.3664C112.507 39.3664 112.227 39.4224 111.948 39.5622C111.724 39.6741 111.528 39.8139 111.36 40.0097C111.193 40.2054 111.053 40.4291 110.969 40.6808C110.885 40.9325 110.829 41.1842 110.801 41.4359H114.744ZM96.2029 37.5207C96.8461 37.3529 97.5173 37.2131 98.1885 37.1012C99.0275 36.9614 99.8944 36.9055 100.733 36.9055C101.488 36.8775 102.244 37.0173 102.971 37.269C103.53 37.4648 104.033 37.8004 104.397 38.2478C104.76 38.6953 105.012 39.2266 105.152 39.7859C105.32 40.4291 105.376 41.1003 105.376 41.7715V47.7841H102.383V42.163C102.383 41.1842 102.244 40.513 101.992 40.0936C101.74 39.702 101.265 39.4783 100.566 39.4783C100.342 39.4783 100.118 39.4783 99.8664 39.5063C99.6147 39.5063 99.419 39.5342 99.2232 39.5622V47.7841H96.2029V37.5207ZM94.0776 39.8419C93.7979 39.7859 93.4903 39.702 93.1267 39.6461C92.7352 39.5622 92.3437 39.5342 91.9522 39.5342C91.7284 39.5342 91.5047 39.5622 91.253 39.5902C91.0573 39.6181 90.8615 39.6461 90.6657 39.702V47.84H87.6455V37.7165C88.2607 37.4927 88.9039 37.325 89.5471 37.1851C90.3581 36.9894 91.1971 36.9055 92.0081 36.9334C92.2038 36.9334 92.3996 36.9614 92.5954 36.9614C92.8191 36.9614 93.0428 36.9894 93.2945 37.0453C93.5182 37.0733 93.742 37.1012 93.9937 37.1572C94.1894 37.1851 94.3852 37.2411 94.5809 37.325L94.0776 39.8419ZM75.3126 42.5825C75.2846 41.7435 75.4524 40.9046 75.7321 40.1215C75.9838 39.4503 76.3753 38.8631 76.8787 38.3317C77.3541 37.8563 77.8854 37.4927 78.5007 37.269C79.1159 37.0173 79.7591 36.9055 80.4024 36.9055C81.9125 36.9055 83.115 37.3809 83.982 38.3038C84.8489 39.2266 85.2963 40.5969 85.2963 42.3588C85.2963 42.5266 85.2963 42.7223 85.2684 42.946C85.2404 43.1698 85.2404 43.3376 85.2404 43.5054H78.3888C78.4448 44.0926 78.7524 44.652 79.2558 44.9875C79.871 45.3791 80.5981 45.5748 81.3252 45.5469C81.8566 45.5469 82.4159 45.4909 82.9472 45.407C83.3947 45.3231 83.8421 45.1833 84.2616 45.0155L84.6811 47.4765C84.4853 47.5883 84.2616 47.6443 84.0379 47.7282C83.7303 47.8121 83.4226 47.896 83.115 47.9239C82.7794 47.9799 82.4438 48.0358 82.0523 48.0917C81.6888 48.1197 81.2973 48.1477 80.9057 48.1477C80.0388 48.1756 79.1998 48.0358 78.3888 47.7282C77.7177 47.4765 77.1304 47.085 76.627 46.5816C76.1516 46.0782 75.816 45.463 75.5923 44.8197C75.4245 44.0647 75.3126 43.3376 75.3126 42.5825ZM82.4159 41.4359C82.4159 41.1842 82.36 40.9325 82.2761 40.6808C82.2201 40.4291 82.0803 40.2334 81.9405 40.0376C81.7727 39.8419 81.5769 39.6741 81.3532 39.5622C81.0735 39.4224 80.7939 39.3664 80.4863 39.3664C80.1786 39.3664 79.899 39.4224 79.6193 39.5622C79.3956 39.6741 79.1719 39.8139 79.0041 40.0097C78.8363 40.2054 78.6964 40.4291 78.6126 40.6808C78.5287 40.9325 78.4727 41.1842 78.4448 41.4359H82.4159ZM70.4186 42.4147C70.4186 40.4571 69.6915 39.5063 68.2653 39.5063C67.9576 39.5063 67.65 39.5342 67.3424 39.6181C67.0907 39.6741 66.839 39.7859 66.6153 39.9258V45.407C66.7551 45.435 66.9509 45.463 67.1746 45.4909C67.3983 45.5189 67.65 45.5189 67.9297 45.5189C68.6568 45.5748 69.3559 45.2672 69.8034 44.6799C70.2229 44.0087 70.4466 43.2257 70.4186 42.4147ZM73.4948 42.5266C73.4948 43.3096 73.383 44.0926 73.1033 44.8477C72.8796 45.5189 72.516 46.1062 72.0406 46.6095C71.5372 47.1129 70.95 47.5044 70.3068 47.7561C69.5517 48.0358 68.7686 48.1477 67.9576 48.1477C67.5941 48.1477 67.2026 48.1197 66.8111 48.0917C66.4195 48.0638 66.028 48.0078 65.6365 47.9799C65.2729 47.9239 64.9094 47.868 64.5458 47.7841C64.1823 47.7282 63.8747 47.6443 63.623 47.5324V32.5708L66.6433 32.0954V37.4089C66.9788 37.269 67.3424 37.1572 67.7059 37.0733C68.0975 36.9894 68.489 36.9614 68.8805 36.9614C69.5796 36.9614 70.2508 37.0733 70.894 37.3809C71.4533 37.6326 71.9567 38.0241 72.3482 38.4995C72.7677 39.0309 73.0754 39.6181 73.2431 40.2613C73.4109 40.9605 73.4948 41.7435 73.4948 42.5266ZM60.7425 47.4485C60.0993 47.6163 59.4281 47.7561 58.7569 47.84C57.918 47.9799 57.051 48.0358 56.2121 48.0358C55.429 48.0638 54.674 47.9239 53.9469 47.6722C53.3875 47.4485 52.9121 47.1129 52.5206 46.6655C52.1571 46.1901 51.9054 45.6587 51.7655 45.0714C51.5977 44.4282 51.5418 43.7291 51.5418 43.0579V37.1572H54.5621V42.7223C54.5621 43.7011 54.7019 44.4003 54.9536 44.8197C55.2053 45.2392 55.6807 45.463 56.3799 45.463C56.6036 45.463 56.8273 45.463 57.079 45.435C57.3307 45.407 57.5265 45.407 57.7222 45.3511V37.1572H60.7425V47.4485ZM43.1242 41.0164C43.4318 40.6808 43.7114 40.3452 44.047 40.0097C44.3546 39.6461 44.6623 39.3105 44.9699 38.9749C45.2775 38.6114 45.5572 38.3038 45.8089 37.9961C46.0605 37.6885 46.3122 37.4089 46.508 37.1851H50.0876C49.3605 37.9961 48.6613 38.8071 47.9902 39.5622C47.291 40.3173 46.5639 41.1003 45.7529 41.8834C46.2004 42.3028 46.6199 42.7223 47.0114 43.1977C47.4309 43.7011 47.8503 44.2045 48.2698 44.7638C48.6613 45.2952 49.0529 45.8545 49.3885 46.3858C49.724 46.9172 50.0037 47.4206 50.2274 47.868H46.7597C46.536 47.5044 46.2843 47.1409 46.0046 46.7214C45.725 46.3019 45.4173 45.8824 45.1377 45.435C44.8301 45.0155 44.4945 44.596 44.1309 44.2045C43.8233 43.8409 43.4877 43.5054 43.1242 43.2257V47.896H40.1039V32.5708L43.1242 32.0954V41.0164Z" fill="white"/>
</svg>
