<svg width="156" height="80" viewBox="0 0 156 80" fill="none" xmlns="http://www.w3.org/2000/svg">
<path d="M37.7325 20.9161C37.228 20.4 36.5271 20.083 35.7467 20.083C35.3789 20.0815 35.0145 20.1546 34.6757 20.2977C34.3368 20.4409 34.0305 20.6513 33.7752 20.9161H33.7618C33.4985 21.1813 33.2902 21.496 33.1487 21.842C33.0073 22.188 32.9356 22.5584 32.9377 22.9322C32.9325 23.684 33.2257 24.4071 33.7529 24.943L33.7663 24.9573C34.0227 25.2201 34.3294 25.4285 34.6681 25.5701C35.0069 25.7117 35.3706 25.7836 35.7378 25.7814C36.5182 25.7814 37.2182 25.4689 37.7236 24.9573L37.7289 24.943C38.2343 24.4358 38.5325 23.726 38.5325 22.9322C38.5374 22.1795 38.2451 21.4553 37.7191 20.917H37.7236L37.7325 20.9161ZM35.7467 59.9175C36.5271 59.9175 37.2271 59.5942 37.7325 59.0871L37.7378 59.0728C38.2432 58.5674 38.5414 57.8531 38.5414 57.0683C38.5414 56.2647 38.2334 55.5628 37.7378 55.0485H37.7325C37.228 54.528 36.5271 54.2128 35.7467 54.2128C35.3785 54.2106 35.0137 54.2836 34.6748 54.4273C34.3358 54.571 34.0297 54.7824 33.7752 55.0485H33.7618C33.2357 55.5888 32.943 56.3142 32.9466 57.0683C32.9431 57.8178 33.2361 58.5384 33.7618 59.0728L33.7752 59.0871C34.0321 59.3496 34.3388 59.5582 34.6773 59.7006C35.0158 59.8431 35.3794 59.9174 35.7467 59.9175ZM51.0008 51.2859C51.3592 51.1908 51.6949 51.0247 51.9878 50.7974C52.2808 50.5701 52.5251 50.2862 52.7062 49.9626L52.758 49.8626C53.0887 49.2271 53.1678 48.4904 52.9795 47.7992C52.7955 47.0884 52.3544 46.458 51.6741 46.067L51.6348 46.0402C51.0012 45.6828 50.2519 45.591 49.5508 45.7848C48.8543 45.9616 48.2293 46.4339 47.8471 47.1125C47.4757 47.7703 47.3745 48.5468 47.565 49.2778C47.7575 50.0036 48.2255 50.6256 48.8695 51.0118H48.874C49.5436 51.4047 50.2999 51.4734 51.0017 51.2796L51.0008 51.2859ZM38.6102 37.089C37.8754 36.3434 36.8601 35.8746 35.7387 35.8746C35.2042 35.8756 34.6752 35.9835 34.183 36.1919C33.6908 36.4002 33.2452 36.705 32.8725 37.0881C32.1403 37.8327 31.6903 38.8605 31.6903 40.0034C31.6873 41.0961 32.1115 42.1468 32.8725 42.9311C33.6047 43.6722 34.6172 44.1365 35.7297 44.1365C36.8423 44.1365 37.8664 43.6722 38.6013 42.9311C39.3631 42.1469 39.788 41.0958 39.7852 40.0025C39.7903 38.9126 39.3648 37.8649 38.6013 37.0872L38.6102 37.089ZM37.003 32.2334C38.6061 32.5051 40.0811 33.2804 41.2139 34.4469H41.2228C41.4029 34.6308 41.5736 34.8236 41.7344 35.0246L44.5292 33.379C44.1615 32.2465 44.1298 31.0317 44.4381 29.8816C44.8363 28.3637 45.8042 27.0065 47.2525 26.1555L47.2998 26.1252C47.9784 25.7309 48.7287 25.4756 49.5069 25.3739C50.2852 25.2723 51.0759 25.3264 51.833 25.5332C52.6018 25.7437 53.3213 26.1046 53.9497 26.5951C54.578 27.0855 55.1029 27.6958 55.4938 28.3904V28.3949C56.326 29.8592 56.4939 31.5397 56.0983 33.0522C55.7019 34.5701 54.7322 35.9362 53.2839 36.7827L52.9018 37.0122H52.8634C51.5677 37.6391 50.0892 37.777 48.6998 37.4006C47.5678 37.0897 46.5509 36.4555 45.7738 35.5755L42.9827 37.2158C43.3144 38.1045 43.4832 39.0458 43.4809 39.9944C43.4809 40.973 43.3041 41.9177 42.9827 42.7856L45.7738 44.4223C46.5712 43.5133 47.59 42.9044 48.6998 42.5963C50.191 42.182 51.841 42.3579 53.2839 43.2142L53.3768 43.2588V43.2633C54.7268 44.0938 55.7023 45.4153 56.0983 46.95C56.5116 48.5204 56.2946 50.1902 55.4938 51.6029L55.4438 51.7056H55.4376C54.6393 53.0638 53.3457 54.0597 51.8285 54.4842C50.3374 54.8842 48.6856 54.7137 47.2435 53.8699V53.8583C45.8485 53.0377 44.8363 51.6969 44.4292 50.1305C44.1204 48.9822 44.1521 47.769 44.5202 46.6384L41.7255 44.9973C41.5644 45.1951 41.3936 45.385 41.2139 45.5661L41.2049 45.575C40.087 46.7179 38.6156 47.5126 36.9941 47.776V51.0618C38.1411 51.3092 39.1898 51.889 40.0094 52.7288L40.0138 52.7377C41.1058 53.8431 41.7817 55.3843 41.7817 57.0772C41.7846 58.697 41.1495 60.2527 40.0138 61.4077L40.0094 61.4255C38.9111 62.5274 37.4021 63.2149 35.7387 63.2149C34.0833 63.2149 32.5707 62.5274 31.4742 61.4157H31.4698V61.3979C30.3329 60.2431 29.6968 58.6869 29.6992 57.0665C29.6992 55.3727 30.3778 53.8324 31.4698 52.727V52.7181H31.4742C32.2894 51.874 33.3387 51.2934 34.4868 51.0511V47.7652C32.8573 47.5009 31.3974 46.7072 30.2903 45.5643L30.2787 45.5553C28.819 44.0727 28.0007 42.0758 28 39.9953C28 37.8256 28.8732 35.863 30.2679 34.4389H30.2795C31.4104 33.2722 32.884 32.4968 34.4859 32.2254V28.953C33.3416 28.6979 32.2954 28.1174 31.4733 27.2815H31.4689V27.2725C30.3315 26.1145 29.6955 24.5554 29.6983 22.9322C29.6966 21.3095 30.3325 19.7511 31.4689 18.5928L31.4823 18.5883C32.0351 18.0183 32.6966 17.5651 33.4277 17.2553C34.1588 16.9455 34.9446 16.7854 35.7387 16.7847C37.403 16.7847 38.9111 17.4722 40.0103 18.5883V18.5928H40.0147C41.1067 19.7044 41.7826 21.2473 41.7826 22.9322C41.784 24.5543 41.1493 26.1123 40.0147 27.2716L40.0103 27.2806C39.1959 28.1056 38.1566 28.6958 36.995 28.9521V32.2245L37.003 32.2334ZM52.7045 30.0503L52.6812 30.0146C52.3108 29.3811 51.7075 28.9174 50.9999 28.7226C50.6437 28.6246 50.2714 28.5992 49.9051 28.6478C49.5388 28.6964 49.1861 28.8181 48.8677 29.0056H48.8722C48.2007 29.3932 47.7516 30.028 47.5632 30.7378C47.3708 31.4687 47.4721 32.2459 47.8454 32.9031L47.8579 32.921C48.2445 33.5906 48.8606 34.0415 49.5481 34.2228C50.2383 34.421 51.0089 34.3371 51.6714 33.9442L51.7071 33.9264C52.3589 33.5299 52.7964 32.9031 52.9768 32.2156C53.1616 31.5057 53.0884 30.7298 52.7045 30.0503ZM65.1085 31.012H68.2273V40.7016L72.7257 35.6389H76.4758L71.0453 41.5052L76.4803 48.9287H72.9087L68.2193 42.2874V48.9287H65.0995V31.003M80.0804 42.3365C80.0804 43.9865 81.2465 46.3848 84.0565 46.3848C85.7949 46.3848 86.9387 45.4634 87.5325 44.2553C87.8432 43.6687 87.9861 43.041 88.0343 42.3802C88.058 41.7375 87.9353 41.0979 87.6753 40.5096C87.1289 39.2533 85.9146 38.164 84.0341 38.164C81.5117 38.164 80.0813 40.2444 80.0813 42.3052V42.3275L80.0804 42.3365ZM91.1273 48.9287H88.0066V47.0152C87.1762 48.5626 85.4369 49.3394 83.6029 49.3394C79.4126 49.3394 76.9598 46.0179 76.9598 42.2659C76.9598 38.0756 79.9358 35.2175 83.6029 35.2175C85.9833 35.2175 87.4352 36.5014 88.0066 37.5684V35.6282H91.1273V48.9287ZM94.6604 38.0765H93.0532V35.63H94.6604V34.88C94.6604 30.928 97.6132 30.6896 99.8526 30.6637V33.1067C99.065 33.1067 97.7811 33.1067 97.7811 34.9764V35.6282H99.8526V38.0747H97.7811V48.9287H94.6604V38.0765ZM101.982 31.003H105.1V40.6927L109.6 35.63H113.35L107.92 41.4963L113.36 48.9287H109.789L105.099 42.2874V48.9287H101.981L101.982 31.003ZM116.964 42.3365C116.964 43.9865 118.129 46.3848 120.94 46.3848C122.676 46.3848 123.82 45.4634 124.422 44.2553C124.735 43.6687 124.869 43.041 124.924 42.3802C124.945 41.749 124.828 41.0927 124.564 40.5096C124.028 39.2533 122.805 38.164 120.924 38.164C118.401 38.164 116.971 40.2444 116.971 42.3052V42.3275L116.964 42.3365ZM128 48.9287H124.88V47.0152C124.047 48.5626 122.309 49.3394 120.477 49.3394C116.286 49.3394 113.836 46.0179 113.836 42.2659C113.836 38.0756 116.809 35.2175 120.477 35.2175C122.856 35.2175 124.309 36.5014 124.88 37.5684V35.6282H128V48.9287Z" fill="white"/>
</svg>
