<svg width="156" height="80" viewBox="0 0 156 80" fill="none" xmlns="http://www.w3.org/2000/svg">
<path d="M32.902 18.627C32.337 18.049 31.552 17.694 30.678 17.694C30.266 17.6923 29.8579 17.7741 29.4785 17.9345C29.099 18.0949 28.7559 18.3304 28.47 18.627H28.455C28.1601 18.9241 27.9267 19.2765 27.7683 19.664C27.6099 20.0515 27.5296 20.4664 27.532 20.885C27.5262 21.7269 27.8545 22.5368 28.445 23.137L28.46 23.153C28.7471 23.4473 29.0906 23.6807 29.47 23.8393C29.8493 23.9979 30.2568 24.0784 30.668 24.076C31.542 24.076 32.326 23.726 32.892 23.153L32.898 23.137C33.464 22.569 33.798 21.774 33.798 20.885C33.8034 20.042 33.476 19.231 32.887 18.628H32.892L32.902 18.627ZM30.678 62.307C31.552 62.307 32.336 61.945 32.902 61.377L32.908 61.361C33.474 60.795 33.808 59.995 33.808 59.116C33.808 58.216 33.463 57.43 32.908 56.854H32.902C32.337 56.271 31.552 55.918 30.678 55.918C30.2656 55.9156 29.8571 55.9973 29.4774 56.1583C29.0977 56.3192 28.7549 56.5559 28.47 56.854H28.455C27.8657 57.4591 27.5379 58.2714 27.542 59.116C27.538 59.9555 27.8662 60.7625 28.455 61.361L28.47 61.377C28.7576 61.671 29.1011 61.9046 29.4803 62.0642C29.8594 62.2237 30.2666 62.3069 30.678 62.307ZM47.762 52.64C48.1634 52.5335 48.5393 52.3474 48.8674 52.0929C49.1955 51.8383 49.4691 51.5204 49.672 51.158L49.73 51.046C50.1003 50.3343 50.1889 49.5091 49.978 48.735C49.772 47.939 49.278 47.233 48.516 46.795L48.472 46.765C47.7624 46.3647 46.9232 46.2619 46.138 46.479C45.358 46.677 44.658 47.206 44.23 47.966C43.8139 48.7027 43.7006 49.5723 43.914 50.391C44.1296 51.2038 44.6537 51.9005 45.375 52.333H45.38C46.13 52.773 46.977 52.85 47.763 52.633L47.762 52.64ZM33.885 36.74C33.062 35.905 31.925 35.38 30.669 35.38C30.0703 35.3811 29.478 35.5019 28.9267 35.7353C28.3754 35.9687 27.8764 36.3099 27.459 36.739C26.639 37.573 26.135 38.724 26.135 40.004C26.1315 41.2279 26.6067 42.4046 27.459 43.283C28.279 44.113 29.413 44.633 30.659 44.633C31.905 44.633 33.052 44.113 33.875 43.283C34.7282 42.4047 35.2041 41.2275 35.201 40.003C35.2066 38.7824 34.73 37.609 33.875 36.738L33.885 36.74ZM32.085 31.302C33.8804 31.6063 35.5323 32.4746 36.801 33.781H36.811C37.0127 33.9869 37.2039 34.2029 37.384 34.428L40.514 32.585C40.1021 31.3166 40.0667 29.9561 40.412 28.668C40.858 26.968 41.942 25.448 43.564 24.495L43.617 24.461C44.377 24.0195 45.2173 23.7335 46.0889 23.6196C46.9605 23.5058 47.846 23.5664 48.694 23.798C49.555 24.0338 50.3608 24.438 51.0645 24.9873C51.7683 25.5365 52.3561 26.22 52.794 26.998V27.003C53.726 28.643 53.914 30.525 53.471 32.219C53.027 33.919 51.941 35.449 50.319 36.397L49.891 36.654H49.848C48.3968 37.3561 46.7409 37.5106 45.185 37.089C43.9171 36.7408 42.7783 36.0305 41.908 35.045L38.782 36.882C39.1535 37.8774 39.3425 38.9316 39.34 39.994C39.34 41.09 39.142 42.148 38.782 43.12L41.908 44.953C42.801 43.935 43.942 43.253 45.185 42.908C46.855 42.444 48.703 42.641 50.319 43.6L50.423 43.65V43.655C51.9349 44.5851 53.0275 46.0651 53.471 47.784C53.9338 49.5428 53.6908 51.4128 52.794 52.995L52.738 53.11H52.731C51.8369 54.6311 50.3881 55.7466 48.689 56.222C47.019 56.67 45.169 56.479 43.554 55.534V55.521C41.9916 54.602 40.8579 53.1003 40.402 51.346C40.0562 50.06 40.0916 48.7012 40.504 47.435L37.374 45.597C37.1935 45.8186 37.0023 46.0312 36.801 46.234L36.791 46.244C35.539 47.524 33.891 48.414 32.075 48.709V52.389C33.3596 52.6661 34.5341 53.3155 35.452 54.256L35.457 54.266C36.68 55.504 37.437 57.23 37.437 59.126C37.4402 60.9401 36.7289 62.6825 35.457 63.976L35.452 63.996C34.222 65.23 32.532 66 30.669 66C28.815 66 27.121 65.23 25.893 63.985H25.888V63.965C24.6147 62.6717 23.9023 60.9289 23.905 59.114C23.905 57.217 24.665 55.492 25.888 54.254V54.244H25.893C26.8059 53.2987 27.9811 52.6484 29.267 52.377V48.697C27.442 48.401 25.807 47.512 24.567 46.232L24.554 46.222C22.9193 44.5615 22.0027 42.3251 22.002 39.995C22.002 37.565 22.98 35.367 24.542 33.772H24.555C25.8215 32.4654 27.4718 31.597 29.266 31.293V27.628C27.9843 27.3423 26.8126 26.6922 25.892 25.756H25.887V25.746C24.6131 24.449 23.9008 22.7029 23.904 20.885C23.9021 19.0677 24.6143 17.3223 25.887 16.025L25.902 16.02C26.5211 15.3817 27.262 14.874 28.0808 14.527C28.8996 14.1801 29.7797 14.0009 30.669 14C32.533 14 34.222 14.77 35.453 16.02V16.025H35.458C36.681 17.27 37.438 18.998 37.438 20.885C37.4395 22.7017 36.7286 24.4466 35.458 25.745L35.453 25.755C34.541 26.679 33.377 27.34 32.076 27.627V31.292L32.085 31.302ZM49.67 28.857L49.644 28.817C49.2291 28.1075 48.5534 27.5882 47.761 27.37C47.362 27.2602 46.945 27.2318 46.5348 27.2862C46.1246 27.3407 45.7295 27.477 45.373 27.687H45.378C44.626 28.121 44.123 28.832 43.912 29.627C43.6965 30.4456 43.8099 31.316 44.228 32.052L44.242 32.072C44.675 32.822 45.365 33.327 46.135 33.53C46.908 33.752 47.771 33.658 48.513 33.218L48.553 33.198C49.283 32.754 49.773 32.052 49.975 31.282C50.182 30.487 50.1 29.618 49.67 28.857ZM63.562 29.934H67.055V40.786L72.093 35.116H76.293L70.211 41.686L76.298 50H72.298L67.046 42.562V50H63.552V29.924M80.33 42.617C80.33 44.465 81.636 47.151 84.783 47.151C86.7299 47.151 88.011 46.119 88.676 44.766C89.024 44.109 89.184 43.406 89.238 42.666C89.2645 41.9462 89.1271 41.2298 88.836 40.571C88.224 39.164 86.864 37.944 84.7579 37.944C81.9329 37.944 80.331 40.274 80.331 42.582V42.607L80.33 42.617ZM92.702 50H89.207V47.857C88.277 49.59 86.329 50.46 84.275 50.46C79.582 50.46 76.835 46.74 76.835 42.538C76.835 37.845 80.168 34.644 84.275 34.644C86.941 34.644 88.567 36.082 89.207 37.277V35.104H92.702V50ZM96.659 37.846H94.859V35.106H96.659V34.266C96.659 29.84 99.966 29.573 102.474 29.544V32.28C101.592 32.28 100.154 32.28 100.154 34.374V35.104H102.474V37.844H100.154V50H96.659V37.846ZM104.859 29.924H108.351V40.776L113.391 35.106H117.591L111.509 41.676L117.602 50H113.602L108.35 42.562V50H104.858L104.859 29.924ZM121.638 42.617C121.638 44.465 122.943 47.151 126.091 47.151C128.035 47.151 129.317 46.119 129.991 44.766C130.341 44.109 130.491 43.406 130.553 42.666C130.577 41.959 130.446 41.224 130.15 40.571C129.55 39.164 128.18 37.944 126.073 37.944C123.247 37.944 121.646 40.274 121.646 42.582V42.607L121.638 42.617ZM133.998 50H130.504V47.857C129.571 49.59 127.624 50.46 125.572 50.46C120.879 50.46 118.135 46.74 118.135 42.538C118.135 37.845 121.465 34.644 125.572 34.644C128.237 34.644 129.864 36.082 130.504 37.277V35.104H133.998V50Z" fill="white"/>
</svg>
