<svg width="156" height="80" viewBox="0 0 156 80" fill="none" xmlns="http://www.w3.org/2000/svg">
<path d="M34.1465 19.668L35.2365 21.718C35.4738 22.0878 35.75 22.4311 36.0605 22.742C36.9735 23.655 37.8425 24.612 38.6205 25.637C40.4685 28.064 41.7155 30.759 42.6065 33.677C43.1405 35.459 43.4305 37.285 43.4525 39.133C43.5425 44.656 41.6485 49.399 37.8185 53.341C37.1979 53.9658 36.5277 54.5394 35.8145 55.056C35.4345 55.056 35.2575 54.756 35.1015 54.499C34.8015 53.999 34.6335 53.452 34.5445 52.896C34.4105 52.228 34.3215 51.56 34.3665 50.869V50.557C34.3445 50.49 34.0105 19.825 34.1435 19.669L34.1465 19.668Z" fill="#D3D4DC"/>
<path d="M34.1465 19.6024C34.1015 19.5124 34.0565 19.5804 34.0125 19.6244C34.0345 20.0694 33.8785 20.4704 33.6325 20.8494C33.3655 21.2294 33.0085 21.5174 32.6525 21.8294C30.6705 23.5444 29.1125 25.6154 27.8645 27.9314C26.2165 31.0494 25.3485 34.3894 25.1045 37.9084C24.9945 39.1784 25.5045 43.6544 25.9065 44.9454C26.9965 48.3754 28.9565 51.2474 31.5065 53.7414C32.1305 54.3414 32.7985 54.8994 33.4885 55.4334C33.6885 55.4334 33.7115 55.2554 33.7555 55.1214C33.8433 54.837 33.9101 54.5465 33.9555 54.2524C34.1555 53.1394 34.2675 52.0254 34.4005 50.9124L34.1555 19.6024H34.1465Z" fill="white"/>
<path d="M35.2395 56.4141C35.2845 55.9021 35.5395 55.4791 35.7965 55.0561C35.5295 54.9461 35.3285 54.7221 35.1725 54.4761C35.0385 54.2531 34.9275 53.9761 34.8385 53.7411C34.5265 52.8061 34.4585 51.8261 34.3705 50.8681V50.2881C34.2605 50.3781 34.2365 51.1341 34.2365 51.2461C34.1695 52.2701 34.0365 53.2731 33.8365 54.2521C33.7695 54.6521 33.7265 55.0541 33.4805 55.4101C33.4805 55.4551 33.4805 55.5001 33.5025 55.5661C33.9025 56.7461 34.0145 57.9491 34.0825 59.1741V59.6191C34.0825 60.1531 34.0605 60.0421 34.5055 60.2191C34.6835 60.2861 34.8855 60.3091 35.0625 60.4421C35.1965 60.4421 35.2185 60.3321 35.2185 60.2421L35.1515 59.5071V57.4571C35.1295 57.1011 35.1965 56.7441 35.2415 56.4101L35.2395 56.4141Z" fill="#C2BFBF"/>
<path d="M52.1502 47.1004V49.2213C52.1478 49.3052 52.1526 49.3893 52.1645 49.4724C52.1921 49.7236 52.3463 49.8768 52.573 49.9473C52.7845 50.003 52.9993 50.0449 53.2163 50.0729C53.3419 50.0872 53.3837 50.1423 53.398 50.2771C53.4123 50.7519 53.3705 50.8081 52.9099 50.7795C51.8357 50.7233 50.7605 50.7101 49.6862 50.7795H49.5841C49.2492 50.7938 49.2216 50.7652 49.2216 50.4303C49.2216 50.3741 49.2359 50.3047 49.2359 50.2485C49.2359 50.1464 49.3054 50.0953 49.4034 50.0953C49.628 50.0678 49.8363 50.0116 50.0467 49.9697C50.3398 49.9003 50.5062 49.7185 50.5348 49.4255C50.5756 49.1048 50.5756 48.7699 50.5756 48.4483L50.5899 44.7089C50.5945 44.6004 50.5682 44.4929 50.5139 44.3989C50.4597 44.3049 50.3798 44.2282 50.2836 44.1779C50.0311 44.0376 49.764 43.9253 49.4871 43.843C49.4034 43.8154 49.3197 43.8021 49.2502 43.7593C49.046 43.6612 49.0409 43.4805 49.2359 43.3682C49.3054 43.3273 49.3891 43.2987 49.4728 43.2844C50.3197 43.1595 51.1517 42.9491 51.9562 42.6564C52.1237 42.6003 52.1655 42.6156 52.1808 42.782C52.1951 42.8842 52.1808 43.0067 52.1665 43.1027C52.139 43.2844 52.139 43.4652 52.139 43.6337C52.139 43.7031 52.1533 43.7736 52.2227 43.8154C52.2921 43.8573 52.3626 43.8154 52.4269 43.7746C52.72 43.5499 53.0131 43.3416 53.3337 43.1619C53.7932 42.9107 54.2833 42.6871 54.8143 42.6176C55.4576 42.5339 56.0141 42.7014 56.5033 43.12C56.7055 43.301 56.8836 43.5073 57.0332 43.7337C57.1731 43.938 57.1864 43.9431 57.3682 43.8032C57.8991 43.4121 58.4567 43.0639 59.0571 42.8127C59.6851 42.5472 60.3274 42.5063 60.9686 42.7289C61.6242 42.9658 62.0715 43.4264 62.3369 44.0544C62.5616 44.5568 62.6576 45.0755 62.6576 45.6167V49.356C62.6576 49.6072 62.7597 49.7645 63.0068 49.887C63.2723 49.9891 63.5654 50.0402 63.8441 50.0964C64.0259 50.1372 64.0259 50.1372 64.0259 50.321C63.9983 50.7805 63.9564 50.8091 63.5092 50.7805C62.3892 50.7177 61.2666 50.7177 60.1466 50.7805C59.922 50.7948 59.922 50.7948 59.9097 50.5712V50.5017C59.8954 50.1239 59.8954 50.1239 60.259 50.0422L60.6215 49.9442C60.7443 49.9153 60.8538 49.8459 60.9323 49.7472C61.0109 49.6484 61.0539 49.5261 61.0544 49.3999L61.0953 48.3533L61.0677 45.6187C61.057 45.3746 61.0052 45.134 60.9145 44.907C60.5653 44.0554 59.7984 43.749 59.0581 43.8328C58.4996 43.8889 58.0115 44.1115 57.5509 44.4332C57.4529 44.5026 57.3835 44.5864 57.3978 44.7263C57.5234 45.6197 57.4386 46.5132 57.4539 47.4057V49.3458C57.4539 49.6951 57.5938 49.8625 57.9288 49.9463L58.5721 50.0861C58.6701 50.1004 58.7252 50.1423 58.7252 50.2536V50.3557C58.7109 50.7468 58.6844 50.7642 58.2923 50.7601C57.1762 50.7039 56.0591 50.7192 54.9573 50.7601C54.5795 50.7744 54.5488 50.7325 54.5662 50.3516C54.5805 50.127 54.607 50.1147 54.8174 50.0729L55.2769 49.9891C55.6853 49.9054 55.8355 49.7522 55.863 49.3193L55.9039 48.3839L55.8763 45.5789C55.8487 45.2297 55.7742 44.8948 55.5832 44.5741C55.3045 44.0574 54.8684 43.793 54.2711 43.7644C53.6707 43.7235 53.1407 43.9461 52.6373 44.2239C52.2881 44.4281 52.1349 44.6701 52.1625 45.0755V47.1126L52.1502 47.1004ZM78.4411 47.1851V49.1528C78.4433 49.2928 78.4525 49.4325 78.4687 49.5715C78.4746 49.6642 78.5105 49.7524 78.5709 49.8229C78.6313 49.8934 78.713 49.9424 78.8036 49.9626C79.0444 50.0328 79.2924 50.0749 79.5429 50.0882C79.6828 50.1025 79.7104 50.1576 79.7246 50.2699V50.368C79.7104 50.8561 79.6552 50.9122 79.1804 50.8847C78.1184 50.8152 77.0595 50.8285 75.9986 50.8847L75.5901 50.899C75.5064 50.899 75.488 50.8581 75.4645 50.8009C75.4237 50.6077 75.4237 50.4081 75.4645 50.2148C75.4788 50.1311 75.534 50.1127 75.6177 50.0892C75.8219 50.0616 75.9955 50.0198 76.1895 49.9871C76.5387 49.9034 76.6643 49.7624 76.6776 49.401L76.7185 48.2287V44.7957C76.7185 44.5445 76.6204 44.3913 76.3978 44.279C76.1466 44.1391 75.8811 44.0421 75.6013 43.9441C75.5176 43.9165 75.4339 43.8879 75.3644 43.8461C75.1827 43.7205 75.1602 43.5397 75.3369 43.3998C75.4161 43.3347 75.5134 43.2955 75.6156 43.2875C76.5091 43.1476 77.374 42.9526 78.2113 42.6176C78.3094 42.5768 78.3512 42.6033 78.3931 42.6871C78.435 42.7708 78.4493 42.8688 78.4339 42.9658L78.3931 43.6214C78.3931 43.7051 78.3523 43.8256 78.4207 43.8583C78.5044 43.9145 78.5606 43.7889 78.63 43.7562C79.042 43.4106 79.4972 43.1198 79.984 42.8913C80.417 42.6871 80.8622 42.5564 81.3656 42.585C82.3009 42.6411 82.9708 43.116 83.4027 43.939C83.6274 44.3719 83.7234 44.8457 83.7652 45.3349L83.8061 46.356L83.8204 49.4398C83.8347 49.6767 83.9184 49.8309 84.1553 49.9146C84.4009 49.9964 84.653 50.0572 84.9089 50.0964C85.1335 50.1239 85.1458 50.1658 85.1601 50.3751V50.4446C85.1325 50.9194 85.1039 50.9327 84.6291 50.9041C83.588 50.8482 82.5446 50.8482 81.5034 50.9041C81.3635 50.9184 81.2247 50.9041 81.095 50.9184C81.0113 50.9184 80.9551 50.9041 80.9418 50.8203C80.9143 50.6386 80.8857 50.4578 80.9275 50.2618C80.9418 50.178 80.9837 50.1362 81.0807 50.1219L81.724 50.0198C81.9487 49.9636 82.0732 49.8155 82.1018 49.6113L82.1294 49.2202L82.1151 46.3039C82.1151 45.969 82.1008 45.634 82.0314 45.2991C81.8639 44.5843 81.3196 44.0738 80.5814 44.0023C79.9381 43.9329 79.356 44.1003 78.823 44.4485C78.5575 44.616 78.4452 44.8529 78.4452 45.1459V47.2535C78.4452 47.2127 78.4452 47.2127 78.4595 47.2127L78.4411 47.1851Z" fill="#D3D4DC"/>
<path d="M119.312 43.2356C119.159 42.2165 118.781 41.3098 118.126 40.5143C117.555 39.8116 116.815 39.2644 115.976 38.9234C115.098 38.5609 114.162 38.4486 113.213 38.421C112.822 38.4067 107.492 38.4904 107.101 38.421C107.003 38.4067 106.933 38.4353 106.876 38.519C106.807 38.6211 106.736 38.7284 106.694 38.8397C106.527 39.2175 106.527 39.1889 106.931 39.244C107.266 39.3002 107.587 39.3278 107.908 39.4258C108.202 39.5238 108.411 39.6913 108.48 40.0119C108.508 40.1651 108.536 45.0767 108.536 47.366L108.48 48.9998C108.466 49.1254 108.453 49.251 108.411 49.3623C108.355 49.5298 108.258 49.6687 108.09 49.7402C107.906 49.8269 107.707 49.8788 107.504 49.8933C107.126 49.9342 107.071 49.9495 106.946 50.3681L106.905 50.5213C106.877 50.7031 106.89 50.7307 107.072 50.7307L111.244 50.7715L112.878 50.7439L114.009 50.604C115.292 50.3671 116.437 49.8361 117.413 48.9856C117.971 48.493 118.426 47.8956 118.753 47.2272C119.144 46.446 119.311 45.5934 119.353 44.7295C119.423 44.2414 119.394 43.739 119.312 43.2366V43.2356ZM117.288 45.2166C117.232 46.1101 117.052 46.975 116.591 47.7561C116.005 48.7752 115.168 49.4869 114.01 49.7371C113.507 49.8392 113.005 49.8903 112.478 49.8208C112.1 49.78 111.739 49.7371 111.389 49.6115C110.761 49.3869 110.538 48.9988 110.525 48.3861L110.51 39.9721C110.51 39.4697 110.735 39.3594 111.096 39.3441C111.641 39.3033 112.199 39.3165 112.743 39.3717C113.323 39.4277 113.891 39.5652 114.432 39.7801C114.834 39.9476 115.207 40.1786 115.535 40.4643C116.289 41.1076 116.791 41.9143 117.067 42.8639C117.292 43.6318 117.332 44.413 117.292 45.1941L117.288 45.2166ZM130.91 46.5849C130.91 46.5012 130.91 46.4317 130.896 46.348C130.77 45.5801 130.365 44.994 129.738 44.5477C129.334 44.2547 128.873 44.0596 128.398 43.9198C128.315 43.8922 128.245 43.8636 128.161 43.8503C128.176 43.7809 128.218 43.7666 128.259 43.7523C128.538 43.6124 128.804 43.4592 129.041 43.2499C129.474 42.8874 129.755 42.4401 129.906 41.8959C129.989 41.6028 129.989 41.3098 129.962 41.0024C129.939 40.6428 129.835 40.293 129.659 39.9789C129.483 39.6648 129.238 39.3944 128.943 39.1879C128.299 38.713 127.547 38.518 126.766 38.5037C125.258 38.4761 123.738 38.5037 122.232 38.5037C121.799 38.5037 121.367 38.5313 120.92 38.4629C120.836 38.4486 120.715 38.422 120.654 38.519C120.552 38.7008 120.429 38.8815 120.389 39.0909C120.374 39.1889 120.403 39.244 120.514 39.2583L121.477 39.3982C121.855 39.4544 122.12 39.6637 122.147 39.9986C122.174 40.2301 122.188 40.463 122.188 40.6961L122.16 43.305L122.146 48.4678C122.146 48.7742 122.105 49.0683 122.048 49.3746C122.034 49.4719 121.993 49.5631 121.928 49.6373C121.864 49.7116 121.78 49.7657 121.685 49.7933C121.407 49.877 121.141 49.9607 120.848 49.9607C120.77 49.9533 120.691 49.9727 120.625 50.0157C120.56 50.0588 120.51 50.1229 120.486 50.1976C120.429 50.3232 120.384 50.4631 120.36 50.5887C120.332 50.7562 120.374 50.8134 120.542 50.7929C120.667 50.7786 125.273 50.891 126.138 50.8072C126.654 50.7511 127.159 50.6816 127.672 50.5285C128.55 50.2497 129.361 49.8443 130.003 49.1602C130.533 48.6016 130.84 47.9318 130.867 47.1506C130.908 46.9688 130.908 46.7881 130.908 46.592L130.91 46.5849ZM124.142 40.8666L124.183 39.7505C124.183 39.5412 124.267 39.4442 124.476 39.4013C124.811 39.3318 125.146 39.3604 125.481 39.3737C125.816 39.4013 126.137 39.4431 126.471 39.5412C127.084 39.7229 127.56 40.0722 127.84 40.6573C127.967 40.9233 128.033 41.2141 128.035 41.5089C128.049 41.9 128.021 42.2768 127.867 42.6525C127.63 43.1692 127.255 43.5042 126.709 43.6022C126.164 43.7002 124.616 43.6583 124.379 43.6583C124.17 43.6583 124.155 43.6308 124.155 43.4214V42.1073C124.122 41.6986 124.117 41.2882 124.14 40.8788L124.142 40.8666ZM128.676 48.3739C128.439 49.0019 128.006 49.4359 127.393 49.6707C127.058 49.7963 126.723 49.8749 126.371 49.8525C125.938 49.8382 125.507 49.8525 125.075 49.7688C124.488 49.6432 124.223 49.0846 124.181 48.6802C124.112 47.9685 124.154 47.2425 124.14 46.7125V44.8704C124.14 44.6458 124.168 44.5774 124.406 44.5774L125.718 44.5917L126.611 44.6938C127.239 44.8337 127.811 45.0716 128.258 45.5587C128.621 45.9497 128.817 46.4235 128.859 46.9402C128.9 47.4283 128.873 47.9032 128.691 48.3637L128.676 48.3739Z" fill="#C2BFBF"/>
<path d="M93.2199 44.17L93.5824 44.2262C93.9735 44.2405 94.434 44.1006 94.5729 43.5563C94.6495 43.2963 94.6495 43.0198 94.5729 42.7598C94.4892 42.7598 94.4473 42.8293 94.4054 42.8579C94.1961 43.0253 93.9592 43.1234 93.708 43.1509C93.2056 43.2071 92.7032 43.1785 92.2151 42.9978L91.531 42.7609C91.0538 42.6046 90.5516 42.5388 90.0503 42.5668C89.3386 42.623 88.6687 42.8599 88.0408 43.1948C87.3709 43.5573 86.8971 44.1016 86.6724 44.8419C86.5469 45.2749 86.5326 45.7201 86.5887 46.1673C86.7286 47.1864 87.2586 47.8981 88.2072 48.2749C88.2634 48.2892 88.3052 48.3158 88.3604 48.3311C88.486 48.4005 88.5003 48.471 88.3879 48.568L88.0387 48.8049L87.2014 49.3216C86.9921 49.4472 86.9645 49.5462 87.0339 49.7678C87.117 50.0285 87.2716 50.2606 87.4802 50.4377C87.6716 50.602 87.8886 50.7341 88.1224 50.8288C88.2756 50.8982 88.2756 50.9309 88.1367 51.0534L87.3403 51.6252C87.0748 51.8295 86.8093 52.0337 86.5867 52.2951C86.4319 52.4608 86.3203 52.662 86.2619 52.8811C86.2035 53.1002 86.2 53.3303 86.2517 53.5511C86.3555 54.0355 86.6092 54.4749 86.9767 54.8071C87.3396 55.1431 87.7809 55.3828 88.2603 55.5045C89.0415 55.7291 89.8512 55.7414 90.6467 55.5882C91.7903 55.3789 92.791 54.8734 93.5773 54.0116C94.1215 53.4398 94.4422 52.7699 94.4708 51.9694C94.5012 51.5064 94.3665 51.0476 94.0905 50.6746C93.8146 50.3016 93.4152 50.0385 92.9636 49.9322L92.21 49.7923L89.9074 49.5881C89.6562 49.5738 89.405 49.5319 89.1956 49.4063C88.9302 49.2389 88.8607 48.9182 89.0282 48.7089C89.1538 48.5557 89.3069 48.4577 89.503 48.4434L89.9492 48.4026C90.8317 48.3128 91.6602 47.9353 92.307 47.3283C92.6524 47.0087 92.8993 46.597 93.0187 46.1418C93.1862 45.5414 93.1862 44.9165 93.0463 44.3038C93.0055 44.1506 93.0187 44.1363 93.2138 44.1639L93.2199 44.17ZM89.7991 51.1208C89.8829 51.1351 89.9666 51.1208 90.0503 51.1208C90.6365 51.1484 91.2369 51.1902 91.8087 51.3454C91.9954 51.4006 92.1774 51.4706 92.353 51.5548C92.9115 51.8611 93.1208 52.3921 93.0504 52.9639C92.9667 53.5919 92.6174 54.0382 92.0732 54.3322C91.7107 54.5365 91.3053 54.6253 90.8866 54.6672C90.7335 54.6815 90.5936 54.6672 90.4404 54.6672C89.9523 54.6815 89.4775 54.6263 89.0169 54.4303C88.6963 54.3047 88.4308 54.1239 88.1939 53.8717C87.7058 53.3836 87.4791 52.4901 88.2082 51.7641C88.6544 51.3557 89.1579 51.0667 89.7991 51.1208ZM91.39 46.7667C91.097 47.506 90.4547 47.7297 89.8134 47.6316C89.2273 47.5479 88.7943 47.2273 88.5166 46.6963C88.1541 45.9845 88.0571 45.2463 88.2654 44.4774C88.4186 43.9055 88.7678 43.4726 89.3815 43.3746C90.1627 43.2347 90.9132 43.5144 91.3073 44.2956C91.5116 44.6734 91.6004 45.1329 91.6004 45.7885C91.5861 46.054 91.531 46.4165 91.3911 46.7657L91.39 46.7667ZM73.8083 45.8171C73.6827 45.0635 73.404 44.3793 72.8873 43.8075C72.1194 42.9559 71.1432 42.5822 70.0404 42.5791C69.0775 42.5648 68.1717 42.8446 67.361 43.347C66.5639 43.824 65.9797 44.588 65.7282 45.4822C65.4913 46.2919 65.5035 47.116 65.6873 47.938C66.1754 50.1436 67.8787 51.0912 69.9148 50.9523C70.5152 50.9115 71.087 50.7154 71.6303 50.4499C72.44 50.0721 73.0261 49.4727 73.4305 48.6773C73.7511 48.0217 73.89 47.3232 73.8767 46.5278L73.8073 45.8161L73.8083 45.8171ZM71.8273 48.9152C71.7275 49.2292 71.5384 49.5072 71.2831 49.7154C71.0277 49.9236 70.7172 50.0529 70.3896 50.0874C69.7769 50.1712 69.2031 50.018 68.6874 49.6545C68.3151 49.3806 68.0137 49.0218 67.8082 48.6078C67.2364 47.4356 67.1383 46.2082 67.4304 44.9522C67.5244 44.5635 67.7278 44.2098 68.0165 43.9331C68.5332 43.4583 69.1326 43.347 69.8035 43.4869C70.4468 43.6268 70.9339 43.975 71.3352 44.506C71.7365 45.0369 71.9213 45.6496 72.0326 46.2929C72.0888 46.6136 72.0888 46.9485 72.102 47.1578C72.102 47.8277 72.0459 48.3832 71.8365 48.9162L71.8273 48.9152ZM104.299 45.9294C104.197 45.1197 103.895 44.3804 103.322 43.7667C102.568 42.9436 101.591 42.5944 100.504 42.5801C99.5682 42.5658 98.7033 42.8313 97.9079 43.2918C97.0144 43.8228 96.4007 44.5754 96.1638 45.5945C95.8809 46.7063 95.9995 47.8823 96.4987 48.9152C96.9582 49.8924 97.7404 50.5204 98.7738 50.7991C99.9174 51.1055 101.007 50.9666 102.067 50.4499C102.988 50.0037 103.644 49.3063 104.02 48.3566C104.245 47.7981 104.327 47.1987 104.341 46.5002C104.355 46.3746 104.327 46.151 104.3 45.9284L104.299 45.9294ZM102.373 48.7344C102.149 49.488 101.676 49.9761 100.88 50.0884C100.294 50.1722 99.7367 50.0323 99.2333 49.6974C98.8003 49.4043 98.494 49.0132 98.2704 48.5537C98.0192 48.0656 97.8793 47.5489 97.8241 47.0189C97.7404 46.3634 97.7404 45.7221 97.8936 45.0655C97.9228 44.9361 97.9649 44.8098 98.0192 44.6887C98.4103 43.7115 99.2752 43.2653 100.294 43.4889C100.978 43.6421 101.494 44.0199 101.885 44.5917C102.263 45.1503 102.444 45.764 102.528 46.4298C102.569 46.6952 102.585 46.974 102.569 47.2109C102.569 47.7552 102.528 48.2576 102.365 48.7457L102.373 48.7344Z" fill="#D3D4DC"/>
</svg>
