<svg width="156" height="80" viewBox="0 0 156 80" fill="none" xmlns="http://www.w3.org/2000/svg">
<path d="M28.2707 16.9434L29.5068 19.268C29.7759 19.6874 30.0891 20.0767 30.4412 20.4292C31.4765 21.4646 32.4619 22.5498 33.3442 23.7122C35.4398 26.4644 36.8539 29.5205 37.8643 32.8294C38.4698 34.8502 38.7987 36.9209 38.8236 39.0165C38.9257 45.2795 36.7779 50.6581 32.4347 55.1282C31.731 55.8368 30.971 56.4872 30.1622 57.073C29.7313 57.073 29.5306 56.7328 29.3537 56.4414C29.0135 55.8744 28.823 55.2541 28.722 54.6236C28.5701 53.8661 28.4692 53.1086 28.5202 52.325V51.9712C28.4952 51.8952 28.1165 17.1214 28.2673 16.9445L28.2707 16.9434Z" fill="#D3D4DC"/>
<path d="M28.2708 16.869C28.2197 16.767 28.1687 16.8441 28.1188 16.894C28.1438 17.3986 27.9669 17.8533 27.6879 18.2831C27.3851 18.714 26.9803 19.0406 26.5766 19.3944C24.329 21.3392 22.5623 23.6877 21.147 26.3141C19.2782 29.8498 18.2939 33.6374 18.0172 37.6279C17.8925 39.068 18.4708 44.1438 18.9267 45.6078C20.1627 49.4974 22.3854 52.7542 25.277 55.5824C25.9846 56.2628 26.7422 56.8955 27.5246 57.5011C27.7514 57.5011 27.7775 57.2992 27.8274 57.1473C27.9269 56.8248 28.0027 56.4954 28.0542 56.1618C28.281 54.8997 28.408 53.6364 28.5588 52.3743L28.281 16.869H28.2708Z" fill="white"/>
<path d="M29.5103 58.6133C29.5613 58.0327 29.8505 57.5531 30.1419 57.0734C29.8392 56.9486 29.6112 56.6946 29.4343 56.4157C29.2824 56.1628 29.1565 55.8487 29.0556 55.5822C28.7018 54.5219 28.6247 53.4106 28.5249 52.3242V51.6665C28.4001 51.7686 28.3729 52.6259 28.3729 52.7529C28.2969 53.9141 28.1461 55.0515 27.9193 56.1616C27.8433 56.6152 27.7946 57.0711 27.5156 57.4748C27.5156 57.5258 27.5156 57.5769 27.5406 57.6517C27.9942 58.9898 28.1212 60.354 28.1983 61.7432V62.2478C28.1983 62.8533 28.1733 62.7275 28.678 62.9282C28.8798 63.0042 29.1089 63.0302 29.3096 63.1811C29.4616 63.1811 29.4865 63.0563 29.4865 62.9543L29.4105 62.1208V59.7961C29.3856 59.3924 29.4616 58.9876 29.5126 58.6088L29.5103 58.6133Z" fill="#C2BFBF"/>
<path d="M48.6868 48.0516V50.4567C48.6841 50.5519 48.6895 50.6472 48.703 50.7415C48.7342 51.0264 48.9091 51.2001 49.1662 51.28C49.406 51.3431 49.6497 51.3907 49.8957 51.4224C50.0381 51.4386 50.0856 51.5012 50.1018 51.654C50.118 52.1924 50.0705 52.2561 49.5483 52.2237C48.3301 52.16 47.1108 52.145 45.8926 52.2237H45.7769C45.397 52.2399 45.3658 52.2075 45.3658 51.8277C45.3658 51.764 45.382 51.6853 45.382 51.6216C45.382 51.5058 45.4607 51.4479 45.5719 51.4479C45.8266 51.4166 46.0629 51.3529 46.3014 51.3055C46.6337 51.2267 46.8225 51.0206 46.8549 50.6883C46.9012 50.3247 46.9012 49.9449 46.9012 49.5801L46.9174 45.3397C46.9227 45.2167 46.8928 45.0948 46.8312 44.9882C46.7697 44.8815 46.6791 44.7946 46.57 44.7376C46.2837 44.5785 45.9808 44.4512 45.6669 44.3578C45.5719 44.3265 45.4769 44.3115 45.3982 44.2628C45.1666 44.1517 45.1608 43.9467 45.382 43.8193C45.4607 43.773 45.5557 43.7406 45.6506 43.7244C46.611 43.5827 47.5545 43.3441 48.4668 43.0123C48.6567 42.9486 48.7041 42.9659 48.7215 43.1547C48.7377 43.2705 48.7215 43.4094 48.7053 43.5183C48.674 43.7244 48.674 43.9293 48.674 44.1204C48.674 44.1991 48.6902 44.279 48.769 44.3265C48.8477 44.374 48.9276 44.3265 49.0006 44.2802C49.3329 44.0255 49.6652 43.7892 50.0288 43.5854C50.5499 43.3006 51.1057 43.047 51.7079 42.9682C52.4374 42.8733 53.0684 43.0632 53.6231 43.538C53.8524 43.7432 54.0544 43.9771 54.2241 44.2339C54.3827 44.4655 54.3978 44.4713 54.6039 44.3126C55.206 43.8691 55.8382 43.4743 56.5191 43.1894C57.2313 42.8884 57.9596 42.842 58.6868 43.0945C59.4302 43.3631 59.9374 43.8853 60.2384 44.5975C60.4932 45.1672 60.602 45.7554 60.602 46.3691V50.6095C60.602 50.8944 60.7178 51.0727 60.998 51.2117C61.2991 51.3275 61.6314 51.3854 61.9476 51.449C62.1537 51.4954 62.1537 51.4954 62.1537 51.7038C62.1224 52.2249 62.0749 52.2573 61.5678 52.2249C60.2977 52.1537 59.0247 52.1537 57.7546 52.2249C57.4999 52.2411 57.4999 52.2411 57.486 51.9875V51.9087C57.4698 51.4803 57.4698 51.4803 57.882 51.3877L58.2931 51.2765C58.4324 51.2437 58.5565 51.165 58.6456 51.0531C58.7347 50.9411 58.7834 50.8024 58.7841 50.6593L58.8304 49.4724L58.7991 46.3715C58.787 46.0946 58.7282 45.8217 58.6254 45.5644C58.2294 44.5986 57.3598 44.2513 56.5203 44.3462C55.8869 44.4099 55.3334 44.6623 54.8111 45.0271C54.7 45.1058 54.6212 45.2008 54.6375 45.3594C54.7799 46.3726 54.6838 47.3858 54.7011 48.3979V50.598C54.7011 50.994 54.8598 51.1839 55.2396 51.2788L55.9691 51.4375C56.0803 51.4537 56.1428 51.5011 56.1428 51.6274V51.7432C56.1266 52.1867 56.0965 52.2063 55.6518 52.2017C54.3862 52.138 53.1194 52.1554 51.87 52.2017C51.4415 52.2179 51.4068 52.1704 51.4265 51.7385C51.4427 51.4838 51.4728 51.4699 51.7113 51.4224L52.2324 51.3275C52.6956 51.2325 52.8658 51.0588 52.8971 50.5678L52.9434 49.5072L52.9121 46.3263C52.8809 45.9303 52.7963 45.5505 52.5798 45.1869C52.2637 44.601 51.7692 44.301 51.0918 44.2686C50.411 44.2223 49.81 44.4747 49.2391 44.7897C48.8431 45.0213 48.6694 45.2957 48.7007 45.7554V48.0655L48.6868 48.0516ZM78.5004 48.1477V50.3791C78.5029 50.5378 78.5134 50.6962 78.5317 50.8539C78.5384 50.9589 78.5791 51.059 78.6476 51.1389C78.7161 51.2189 78.8087 51.2745 78.9115 51.2974C79.1845 51.3769 79.4658 51.4247 79.7498 51.4398C79.9085 51.456 79.9397 51.5185 79.9559 51.6459V51.7571C79.9397 52.3106 79.8772 52.3742 79.3387 52.343C78.1345 52.2642 76.9337 52.2793 75.7306 52.343L75.2674 52.3592C75.1725 52.3592 75.1516 52.3129 75.125 52.248C75.0787 52.0289 75.0787 51.8025 75.125 51.5834C75.1412 51.4884 75.2037 51.4676 75.2987 51.4409C75.5303 51.4097 75.7271 51.3622 75.9471 51.3251C76.3431 51.2302 76.4856 51.0704 76.5006 50.6605L76.5469 49.3312V45.4381C76.5469 45.1533 76.4358 44.9796 76.1833 44.8522C75.8985 44.6936 75.5974 44.5836 75.2801 44.4724C75.1852 44.4412 75.0902 44.4087 75.0115 44.3613C74.8054 44.2188 74.7799 44.0139 74.9802 43.8552C75.0701 43.7814 75.1804 43.7369 75.2964 43.7279C76.3096 43.5692 77.2903 43.3481 78.2399 42.9682C78.351 42.9219 78.3985 42.952 78.446 43.047C78.4934 43.1419 78.5097 43.2531 78.4923 43.3631L78.446 44.1065C78.446 44.2015 78.3997 44.3381 78.4772 44.3752C78.5722 44.4388 78.6359 44.2964 78.7146 44.2594C79.1819 43.8674 79.698 43.5377 80.2501 43.2786C80.741 43.047 81.2459 42.8988 81.8168 42.9312C82.8774 42.9949 83.637 43.5333 84.1269 44.4666C84.3816 44.9576 84.4905 45.4949 84.5379 46.0495L84.5842 47.2075L84.6005 50.7045C84.6167 50.9731 84.7116 51.148 84.9803 51.2429C85.2588 51.3357 85.5446 51.4047 85.8348 51.449C86.0896 51.4803 86.1035 51.5278 86.1197 51.7652V51.8439C86.0884 52.3823 86.056 52.3974 85.5176 52.365C84.3369 52.3017 83.1537 52.3017 81.9731 52.365C81.8144 52.3812 81.657 52.365 81.5099 52.3812C81.4149 52.3812 81.3513 52.365 81.3362 52.27C81.3049 52.0639 81.2725 51.859 81.32 51.6366C81.3362 51.5417 81.3837 51.4942 81.4937 51.478L82.2232 51.3622C82.4779 51.2985 82.6192 51.1306 82.6516 50.899L82.6829 50.4555L82.6667 47.1484C82.6667 46.7686 82.6505 46.3888 82.5717 46.009C82.3818 45.1985 81.7646 44.6195 80.9274 44.5384C80.1979 44.4597 79.5379 44.6496 78.9335 45.0444C78.6324 45.2343 78.505 45.503 78.505 45.8353V48.2253C78.505 48.179 78.505 48.179 78.5212 48.179L78.5004 48.1477Z" fill="#D3D4DC"/>
<path d="M124.848 43.6688C124.675 42.5132 124.246 41.4849 123.503 40.5829C122.855 39.786 122.017 39.1655 121.065 38.7788C120.069 38.3677 119.008 38.2403 117.932 38.2091C117.488 38.1929 111.444 38.2878 111 38.2091C110.889 38.1929 110.81 38.2253 110.746 38.3202C110.667 38.436 110.587 38.5576 110.54 38.6838C110.35 39.1123 110.35 39.0798 110.808 39.1424C111.188 39.2061 111.552 39.2373 111.916 39.3485C112.249 39.4597 112.486 39.6496 112.565 40.0131C112.596 40.1868 112.628 45.7566 112.628 48.3527L112.565 50.2054C112.549 50.3478 112.534 50.4902 112.486 50.6165C112.422 50.8064 112.312 50.9638 112.122 51.0449C111.913 51.1432 111.688 51.2021 111.458 51.2186C111.029 51.2649 110.967 51.2823 110.824 51.757L110.778 51.9307C110.747 52.1368 110.762 52.1681 110.968 52.1681L115.699 52.2144L117.552 52.1832L118.834 52.0245C120.289 51.7559 121.587 51.1537 122.694 50.1892C123.327 49.6307 123.843 48.9531 124.214 48.1952C124.657 47.3094 124.847 46.3425 124.895 45.3629C124.973 44.8094 124.941 44.2397 124.848 43.6699V43.6688ZM122.553 45.9152C122.49 46.9284 122.285 47.9092 121.762 48.795C121.098 49.9506 120.148 50.7577 118.835 51.0414C118.265 51.1572 117.696 51.2151 117.098 51.1364C116.67 51.0901 116.26 51.0414 115.864 50.899C115.152 50.6442 114.898 50.2042 114.883 49.5095L114.867 39.968C114.867 39.3983 115.122 39.2732 115.531 39.2559C116.149 39.2095 116.782 39.2246 117.399 39.2871C118.056 39.3507 118.701 39.5066 119.314 39.7503C119.77 39.9402 120.192 40.2022 120.565 40.5261C121.42 41.2556 121.989 42.1704 122.302 43.2473C122.557 44.1181 122.603 45.0039 122.557 45.8897L122.553 45.9152ZM138 47.4668C138 47.3719 138 47.2932 137.984 47.1982C137.842 46.3274 137.382 45.6628 136.671 45.1567C136.212 44.8244 135.69 44.6032 135.152 44.4446C135.057 44.4133 134.978 44.3809 134.883 44.3659C134.899 44.2871 134.947 44.2709 134.994 44.2547C135.31 44.0961 135.611 43.9224 135.88 43.685C136.371 43.2739 136.691 42.7667 136.861 42.1496C136.956 41.8172 136.956 41.4849 136.924 41.1364C136.899 40.7286 136.781 40.3319 136.581 39.9757C136.381 39.6195 136.104 39.3129 135.769 39.0787C135.039 38.5402 134.186 38.3191 133.3 38.3029C131.591 38.2716 129.867 38.3029 128.159 38.3029C127.668 38.3029 127.178 38.3341 126.671 38.2565C126.576 38.2403 126.439 38.2102 126.37 38.3202C126.254 38.5263 126.115 38.7313 126.069 38.9687C126.053 39.0798 126.085 39.1424 126.211 39.1586L127.303 39.3172C127.732 39.3809 128.033 39.6183 128.063 39.9981C128.094 40.2606 128.109 40.5247 128.109 40.789L128.078 43.7475L128.062 49.6021C128.062 49.9495 128.015 50.283 127.95 50.6303C127.935 50.7406 127.888 50.8441 127.815 50.9283C127.742 51.0125 127.646 51.0739 127.539 51.1051C127.223 51.2001 126.922 51.295 126.59 51.295C126.501 51.2866 126.412 51.3086 126.337 51.3574C126.263 51.4062 126.207 51.4789 126.179 51.5637C126.115 51.7061 126.063 51.8647 126.036 52.0072C126.005 52.1971 126.053 52.2619 126.242 52.2387C126.385 52.2225 131.607 52.3499 132.588 52.2549C133.174 52.1913 133.746 52.1125 134.328 51.9388C135.324 51.6227 136.244 51.163 136.971 50.3872C137.573 49.7538 137.92 48.9942 137.952 48.1083C137.998 47.9022 137.998 47.6973 137.998 47.475L138 47.4668ZM130.325 40.9823L130.372 39.7167C130.372 39.4793 130.467 39.3693 130.704 39.3207C131.084 39.242 131.464 39.2744 131.843 39.2894C132.223 39.3207 132.587 39.3682 132.967 39.4793C133.661 39.6854 134.201 40.0815 134.518 40.745C134.662 41.0467 134.738 41.3764 134.739 41.7107C134.756 42.1542 134.723 42.5815 134.55 43.0076C134.281 43.5935 133.855 43.9733 133.236 44.0845C132.618 44.1956 130.863 44.1482 130.594 44.1482C130.357 44.1482 130.339 44.1169 130.339 43.8795V42.3893C130.302 41.9258 130.297 41.4604 130.323 40.9962L130.325 40.9823ZM135.467 49.4956C135.198 50.2077 134.707 50.6998 134.011 50.9662C133.631 51.1086 133.251 51.1977 132.853 51.1723C132.362 51.1561 131.872 51.1723 131.383 51.0773C130.718 50.9349 130.417 50.3015 130.369 49.8429C130.291 49.0359 130.338 48.2126 130.323 47.6116V45.5227C130.323 45.2679 130.354 45.1903 130.624 45.1903L132.112 45.2065L133.125 45.3223C133.837 45.481 134.486 45.7508 134.993 46.3031C135.404 46.7466 135.626 47.2839 135.674 47.8698C135.72 48.4233 135.69 48.9618 135.484 49.484L135.467 49.4956Z" fill="#C2BFBF"/>
<path d="M95.2595 44.7289L95.6705 44.7926C96.114 44.8088 96.6363 44.6502 96.7938 44.033C96.8806 43.7382 96.8806 43.4246 96.7938 43.1298C96.6988 43.1298 96.6513 43.2085 96.6038 43.241C96.3665 43.4309 96.0978 43.542 95.813 43.5733C95.2433 43.637 94.6736 43.6046 94.1201 43.3996L93.3442 43.131C92.8031 42.9538 92.2337 42.8791 91.6652 42.911C90.8581 42.9746 90.0985 43.2433 89.3864 43.6231C88.6268 44.0342 88.0895 44.6513 87.8347 45.4909C87.6923 45.9818 87.6761 46.4867 87.7398 46.9939C87.8984 48.1495 88.4994 48.9566 89.5751 49.3839C89.6388 49.4001 89.6863 49.4302 89.7488 49.4476C89.8912 49.5263 89.9075 49.6062 89.7801 49.7162L89.3841 49.9848L88.4345 50.5708C88.1972 50.7132 88.1659 50.8255 88.2446 51.0768C88.3388 51.3724 88.5142 51.6356 88.7507 51.8364C88.9678 52.0227 89.2138 52.1725 89.479 52.2799C89.6527 52.3586 89.6527 52.3957 89.4952 52.5346L88.592 53.1831C88.291 53.4147 87.9899 53.6463 87.7375 53.9427C87.5619 54.1306 87.4354 54.3588 87.3691 54.6073C87.3029 54.8557 87.2989 55.1166 87.3577 55.367C87.4753 55.9163 87.763 56.4146 88.1798 56.7912C88.5913 57.1723 89.0917 57.4442 89.6353 57.5821C90.5212 57.8369 91.4394 57.8508 92.3415 57.6771C93.6384 57.4397 94.7731 56.8665 95.6648 55.8892C96.2819 55.2408 96.6455 54.4811 96.678 53.5733C96.7125 53.0483 96.5597 52.528 96.2468 52.105C95.9338 51.682 95.481 51.3838 94.9688 51.2632L94.1143 51.1046L91.5031 50.873C91.2182 50.8568 90.9334 50.8093 90.696 50.6669C90.3949 50.477 90.3162 50.1134 90.5061 49.876C90.6485 49.7023 90.8222 49.5911 91.0445 49.5749L91.5506 49.5286C92.5513 49.4268 93.4908 48.9988 94.2243 48.3105C94.6159 47.9479 94.8959 47.4811 95.0314 46.9649C95.2213 46.284 95.2213 45.5754 95.0626 44.8806C95.0163 44.7069 95.0314 44.6907 95.2525 44.722L95.2595 44.7289ZM91.3804 52.6111C91.4753 52.6273 91.5703 52.6111 91.6652 52.6111C92.3299 52.6423 93.0107 52.6898 93.6592 52.8658C93.8709 52.9284 94.0773 53.0078 94.2764 53.1032C94.9098 53.4506 95.1471 54.0527 95.0673 54.7012C94.9723 55.4133 94.5763 55.9193 93.9591 56.2528C93.548 56.4844 93.0883 56.5851 92.6136 56.6326C92.4399 56.6488 92.2812 56.6326 92.1075 56.6326C91.554 56.6488 91.0156 56.5863 90.4934 56.364C90.1298 56.2215 89.8287 56.0166 89.5601 55.7306C89.0066 55.1771 88.7495 54.1639 89.5763 53.3406C90.0823 52.8774 90.6532 52.5497 91.3804 52.6111ZM93.1844 47.6736C92.8521 48.5119 92.1238 48.7655 91.3966 48.6544C90.7319 48.5594 90.2409 48.1958 89.926 47.5937C89.5149 46.7866 89.4049 45.9494 89.6411 45.0775C89.8148 44.429 90.2108 43.938 90.9068 43.8269C91.7926 43.6682 92.6437 43.9855 93.0906 44.8714C93.3222 45.2998 93.423 45.8209 93.423 46.5643C93.4068 46.8653 93.3442 47.2764 93.1856 47.6724L93.1844 47.6736ZM73.2469 46.5967C73.1045 45.7421 72.7884 44.9663 72.2025 44.3179C71.3317 43.3521 70.2247 42.9283 68.9741 42.9248C67.8822 42.9086 66.8551 43.2259 65.9357 43.7956C65.0318 44.3365 64.3693 45.2029 64.0841 46.2169C63.8155 47.1351 63.8294 48.0696 64.0378 49.0017C64.5913 51.5029 66.5227 52.5775 68.8317 52.42C69.5126 52.3737 70.161 52.1514 70.777 51.8503C71.6953 51.4219 72.3599 50.7421 72.8185 49.8401C73.1821 49.0967 73.3396 48.3047 73.3245 47.4026L73.2458 46.5955L73.2469 46.5967ZM71.0005 50.1099C70.8873 50.4659 70.6729 50.7813 70.3833 51.0174C70.0938 51.2535 69.7417 51.4001 69.3701 51.4392C68.6754 51.5342 68.0246 51.3605 67.4398 50.9483C67.0177 50.6377 66.6758 50.2308 66.4428 49.7614C65.7944 48.432 65.6832 47.0402 66.0144 45.6159C66.121 45.1751 66.3517 44.7741 66.6791 44.4603C67.265 43.9218 67.9447 43.7956 68.7055 43.9543C69.435 44.1129 69.9873 44.5078 70.4424 45.1099C70.8975 45.712 71.107 46.4068 71.2333 47.1363C71.2969 47.4999 71.2969 47.8797 71.312 48.1171C71.312 48.8767 71.2483 49.5066 71.0109 50.1111L71.0005 50.1099ZM107.823 46.7241C107.707 45.8058 107.365 44.9675 106.715 44.2715C105.86 43.3382 104.752 42.9422 103.519 42.926C102.458 42.9098 101.478 43.2109 100.576 43.7331C99.5624 44.3352 98.8665 45.1886 98.5978 46.3443C98.277 47.605 98.4115 48.9386 98.9776 50.1099C99.4987 51.2181 100.386 51.9302 101.558 52.2463C102.854 52.5937 104.09 52.4362 105.292 51.8503C106.336 51.3443 107.08 50.5534 107.507 49.4765C107.762 48.8431 107.854 48.1634 107.871 47.3714C107.887 47.2289 107.854 46.9753 107.824 46.7229L107.823 46.7241ZM105.639 49.9049C105.385 50.7595 104.848 51.313 103.946 51.4404C103.282 51.5353 102.649 51.3767 102.079 50.9969C101.588 50.6646 101.24 50.2211 100.987 49.7C100.702 49.1465 100.543 48.5606 100.481 47.9596C100.386 47.2162 100.386 46.489 100.559 45.7444C100.593 45.5976 100.64 45.4545 100.702 45.3172C101.145 44.209 102.126 43.703 103.282 43.9566C104.058 44.1303 104.642 44.5587 105.086 45.2072C105.514 45.8406 105.719 46.5365 105.815 47.2915C105.862 47.5925 105.879 47.9086 105.862 48.1773C105.862 48.7945 105.815 49.3642 105.63 49.9177L105.639 49.9049Z" fill="#D3D4DC"/>
</svg>
