<svg width="156" height="80" viewBox="0 0 156 80" fill="none" xmlns="http://www.w3.org/2000/svg">
<path d="M68.951 31.6023C67.3736 40.1878 65.3047 46.4201 62.7187 50.2991C60.7068 53.2989 58.5035 54.7988 56.0986 54.7988C55.4598 54.7988 54.6711 54.6056 53.7349 54.2221V52.1533C54.1927 52.2205 54.728 52.2562 55.346 52.2562C56.4658 52.2562 57.3683 51.9459 58.0613 51.3279C58.8837 50.5727 59.2949 49.7245 59.2949 48.7858C59.2949 48.1445 58.9742 46.8256 58.3354 44.8292L54.0944 31.5888H57.8958L60.9473 41.4933C61.6326 43.7405 61.9197 45.3206 61.8033 46.1998C63.4713 41.726 64.6479 36.8643 65.2944 31.5888H68.9665M52.1575 48.7082H48.2785C48.1422 42.1656 47.7638 35.9851 47.1484 30.2183H47.1142L41.2181 48.7082H38.2701L32.3998 30.2183H32.3652C31.9307 35.7523 31.6566 41.9329 31.5428 48.7082H28C28.2281 40.4589 28.7991 32.7267 29.7119 25.5117H34.5219L40.1077 42.5535H40.1421L45.7537 25.5117H50.3568C51.3628 33.968 51.9576 41.7001 52.1386 48.7082" fill="white"/>
<path d="M120.671 48.7214H109.681V25.5249H113.379V45.8768H120.671V48.7214ZM93.0008 44.0925C92.0647 42.5796 91.594 40.1617 91.594 36.7999C91.594 30.9555 93.3654 28.0333 96.8953 28.0333C98.7469 28.0333 100.102 28.7316 100.981 30.128C101.917 31.6408 102.388 34.0587 102.388 37.343C102.388 43.2391 100.617 46.1871 97.0867 46.1871C95.2351 46.1871 93.8801 45.4889 93.0008 44.0899M106.784 49.2878L102.543 47.1853C102.921 46.875 103.283 46.5388 103.606 46.1483C105.411 44.0201 106.321 40.8729 106.321 36.7094C106.321 29.029 103.322 25.2017 97.2962 25.2017C94.3481 25.2017 92.0466 26.174 90.4174 28.1239C88.6098 30.2547 87.7021 33.3993 87.7021 37.5369C87.7021 41.6228 88.5012 44.5967 90.1019 46.5104C91.5604 48.2275 93.774 49.0886 96.7221 49.0886C97.8237 49.0886 98.8323 48.9526 99.7477 48.68L105.282 51.9126L106.792 49.3007M86.1039 42.3185C86.1039 44.2864 85.3824 45.913 83.9446 47.1543C82.5068 48.4137 80.5828 49.0421 78.1519 49.0421C75.8892 49.0421 73.704 48.3154 71.5576 46.875L72.5506 44.8812C74.379 45.7966 76.0418 46.2544 77.5158 46.2544C78.9096 46.2544 80.0009 45.944 80.8 45.3286C81.5862 44.7105 82.0594 43.8468 82.0594 42.7529C82.0594 41.3746 81.1 40.1979 79.3441 39.2101C77.7201 38.3179 74.4824 36.443 74.4824 36.443C72.7239 35.1578 71.8447 33.7795 71.8447 31.5038C71.8447 29.6237 72.5015 28.1161 73.8152 26.9524C75.1315 25.7939 76.815 25.2146 78.9096 25.2146C81.0586 25.2146 83.0214 25.7887 84.7799 26.9343L83.8851 28.9255C82.3801 28.2868 80.8854 27.9635 79.4372 27.9635C78.2502 27.9635 77.3348 28.2506 76.696 28.8247C76.0547 29.3936 75.659 30.128 75.659 31.0228C75.659 32.3959 76.6391 33.5881 78.4519 34.5915C80.094 35.4862 83.4171 37.3844 83.4171 37.3844C85.2247 38.667 86.1324 40.0479 86.1324 42.2978" fill="#D3D4DC"/>
<path d="M122.74 48.7214H123.353V46.3604H124.154V45.8794H121.905V46.3604H122.737L122.74 48.7214ZM127.421 48.7214H128V45.8768H127.131L126.422 47.8137L125.652 45.8768H124.814V48.7214H125.362V46.5569H125.393L126.2 48.7214H126.616L127.423 46.5569V48.7214" fill="#D3D4DC"/>
</svg>
