<svg width="156" height="80" viewBox="0 0 156 80" fill="none" xmlns="http://www.w3.org/2000/svg">
<path fill-rule="evenodd" clip-rule="evenodd" d="M45.4417 16.7959C45.1058 16.7959 44.7874 16.8701 44.5038 16.9704C45.1145 17.3804 45.4547 17.9213 45.6249 18.5407C45.638 18.628 45.6598 18.6847 45.6685 18.7675C45.6772 18.8504 45.6947 18.9115 45.6947 18.9856C45.7383 20.0456 45.4198 20.1765 45.1887 20.8046C45.0247 21.1841 44.9546 21.5974 44.9842 22.0097C45.0138 22.422 45.1423 22.8211 45.3588 23.1732C45.3973 23.2667 45.4455 23.3559 45.5027 23.4393C45.0447 20.3946 47.5834 19.9366 48.0545 18.99C48.0894 18.1176 47.4002 17.6072 46.8637 17.219C46.438 16.9506 45.9449 16.8084 45.4417 16.809V16.7959ZM49.2672 17.4807C49.2236 17.7555 49.2541 17.6858 49.241 17.8297L49.2148 18.1438L49.1276 18.4317C49.101 18.5294 49.069 18.6255 49.0316 18.7196L48.9008 18.9944C48.8659 19.038 48.8397 19.0903 48.8048 19.1383L48.7306 19.2474L48.5562 19.4873C48.482 19.5614 48.4253 19.6443 48.3381 19.7054C48.2508 19.7665 48.1941 19.8493 48.1112 19.9104C47.8582 20.1023 47.5703 20.2463 47.3043 20.4338C47.217 20.4949 47.1298 20.5429 47.0643 20.6083C46.9989 20.6738 46.9073 20.7305 46.8375 20.8003C46.7677 20.8701 46.6936 20.9442 46.6194 21.0271C46.5453 21.11 46.4886 21.1841 46.4449 21.267L46.2704 21.52L46.1396 21.7948L46.0436 22.0696L45.9564 22.375C45.9433 22.4186 45.9433 22.484 45.9302 22.532C45.9171 22.58 45.9171 22.628 45.904 22.6759L45.891 22.9813C45.8892 23.0542 45.8936 23.1272 45.904 23.1994C45.904 23.2954 45.9171 23.3913 45.9389 23.5047C45.9607 23.6181 45.9738 23.6967 46 23.7926L46.096 24.0805C46.1221 24.1416 46.157 24.2027 46.1832 24.255L43.4177 23.1819L42.0218 22.8199L41.2628 22.6454C40.5387 22.5017 39.8079 22.394 39.0731 22.3226C38.3372 22.2415 37.5975 22.2007 36.8571 22.2005L35.2868 22.2615C34.5487 22.3146 33.8135 22.4034 33.084 22.5276L32.5431 22.6236L31.4613 22.8635L30.9204 23.0075L30.3969 23.2343L30.0044 23.4088L29.6118 23.6007C29.5769 23.6138 29.5507 23.6269 29.5245 23.6356L29.1494 23.8275C29.0622 23.8624 28.9749 23.9148 28.9095 23.9497C28.8746 23.9758 28.8222 23.9933 28.8004 24.0107L28.4864 24.1852C28.3773 24.2463 28.2814 24.3073 28.1985 24.3597L27.9586 24.5342L27.6968 24.7261L27.4918 24.9006C27.361 24.9966 27.2999 25.0576 27.2388 25.1056L26.9771 25.3586L26.7372 25.5854L26.5322 25.8035C26.506 25.8297 26.4711 25.8472 26.4449 25.8777C26.3839 25.9518 26.3141 26.0216 26.2399 26.0958L25.9171 26.4448L25.2628 27.0685C25.0501 27.2583 24.8257 27.4345 24.5911 27.5963L23.867 28.0543C23.6211 28.1895 23.3677 28.3103 23.108 28.4164C22.855 28.5255 22.5845 28.6214 22.3228 28.7043C21.8168 28.8133 21.3021 29.0184 20.8528 29.0533C20.7568 29.0533 20.6478 29.0794 20.5474 29.0882L20.2421 29.1623L19.9542 29.2714C19.8582 29.3063 19.7623 29.3586 19.6663 29.4022C19.5703 29.4458 19.4918 29.5113 19.4046 29.5767C19.3192 29.6385 19.239 29.7071 19.1647 29.7817C19.0774 29.8428 18.9902 29.9257 18.9248 29.9998L18.7197 30.2397C18.6587 30.3357 18.5889 30.4142 18.5453 30.5145C18.5016 30.6149 18.4231 30.689 18.3708 30.7894L18.2399 31.1034L18.1309 31.4175L18.0698 31.7054C18.0349 31.8493 18.0349 31.9933 18.0262 32.0674C18.0174 32.1416 18 32.2245 18 32.3073C18 32.351 18 32.4164 18.0131 32.4644C18.0262 32.5516 18.0393 32.6214 18.0567 32.6912L18.1439 32.9093C18.1788 32.9966 18.2312 33.0663 18.2748 33.1361L18.4318 33.3542L18.6369 33.5462C18.711 33.6203 18.7808 33.677 18.8637 33.7381C19.1516 33.9911 19.2257 34.074 19.5965 34.2615C19.6576 34.2964 19.7186 34.3226 19.7884 34.3575C19.8495 34.532 19.8757 34.6192 19.8975 34.7196C19.9193 34.8199 19.9586 34.9246 19.9935 35.0075L20.0894 35.2256L20.2639 35.5484L20.4384 35.8014L20.6434 36.0282C20.7176 36.1023 20.7874 36.159 20.8702 36.2332L21.1101 36.4077C21.1945 36.4671 21.2835 36.5196 21.3762 36.5647C21.4635 36.6083 21.5507 36.6607 21.651 36.6956C21.7252 36.7305 21.8081 36.7566 21.8909 36.7828C21.9738 36.809 22.048 36.8264 22.096 36.8439C22.0611 37.4982 22.0523 38.1525 22.1396 38.327C22.2486 38.5669 22.7764 37.8341 23.3086 36.9922C23.2345 37.8646 23.1865 38.7981 23.3086 39.086C23.4308 39.3739 24.1636 38.4491 24.7917 37.4109C33.3239 35.4393 41.1058 41.3368 41.9346 49.6596C41.7775 48.3597 40.1767 47.64 39.4482 47.8188C39.0862 48.7087 38.4755 49.8515 37.4853 50.5669C37.5709 49.7628 37.5297 48.9503 37.3631 48.159C37.1014 49.267 36.578 50.2964 35.8713 51.1907C35.3202 51.2282 34.7684 51.1291 34.2647 50.9024C33.761 50.6757 33.321 50.3282 32.9836 49.8908C32.94 49.8559 32.9226 49.7817 32.8877 49.7337L32.7612 49.4371C32.7263 49.3499 32.7001 49.2626 32.687 49.1841C32.6739 49.1056 32.6739 49.0096 32.6739 48.9224V48.7479C32.687 48.6607 32.7088 48.5734 32.735 48.4949L32.8222 48.2419C32.8659 48.1547 32.9095 48.0674 32.9662 47.9889C33.1712 47.4131 33.1712 46.942 32.7917 46.6672C32.7176 46.6236 32.6478 46.58 32.5649 46.5451C32.5213 46.532 32.4558 46.5102 32.4079 46.5015L32.3119 46.4666L32.0589 46.4055C31.9766 46.3821 31.8914 46.3704 31.8059 46.3706C31.7179 46.3558 31.629 46.3471 31.5398 46.3444C31.4787 46.3444 31.4177 46.3575 31.3653 46.3575C31.2694 46.3575 31.1908 46.3706 31.1036 46.3924L30.8506 46.436L30.5976 46.5233L30.3577 46.6323L30.1309 46.7545C27.3261 48.5865 28.9967 52.8613 30.916 54.1089C30.1919 54.2397 29.4591 54.3968 29.2585 54.5538C29.7514 54.8897 30.2923 55.1558 30.8593 55.4262L32.8092 56.002C33.8046 56.2155 34.8246 56.2918 35.8408 56.2288C41.1712 55.8537 45.542 51.8014 46.3359 46.4578L46.41 46.7719L46.5191 47.4437C46.5453 47.5658 46.554 47.6705 46.5627 47.7665L46.5889 48.1285L46.615 48.5211V48.713C46.615 48.7741 46.6281 48.8439 46.6281 48.905C46.6281 48.966 46.615 49.0489 46.615 49.1231V49.2975C46.615 49.3848 46.602 49.4546 46.602 49.5374C46.602 49.5811 46.602 49.6334 46.5889 49.6945L46.5758 49.9562C46.5627 49.9911 46.5627 50.0304 46.5627 50.0653L46.5278 50.3401C46.5278 50.375 46.5278 50.4142 46.5147 50.4491L46.4711 50.7981V50.8199L46.397 51.1558L46.3228 51.5178L46.1309 52.2594L46.0087 52.6432L45.747 53.3412L45.6031 53.6901L45.4286 54.026C45.4155 54.0609 45.4024 54.0871 45.3937 54.1132C44.5916 55.7198 43.4249 57.1164 41.9869 58.1918C41.8909 58.2528 41.795 58.3226 41.699 58.3968C41.6728 58.4229 41.638 58.4317 41.6118 58.4578L41.3501 58.6323L41.385 58.7065H41.398L41.904 58.6323H41.9171L42.855 58.4578C42.9422 58.4448 43.0294 58.4229 43.1167 58.3968L43.2912 58.3619L43.5442 58.3183L43.7623 58.2572C44.9547 57.9664 46.1217 57.5798 47.2519 57.1012C45.3186 59.7358 42.7474 61.8357 39.7797 63.2038C41.1691 63.1117 42.545 62.8734 43.8844 62.4927C48.735 61.062 52.8135 57.7992 55.2563 53.4066C54.7634 56.1852 53.6554 58.833 52.0196 61.1449C53.1887 60.3728 54.2574 59.4873 55.2345 58.4753C57.9302 55.6574 59.7012 52.0849 60.2944 48.2463C60.7045 50.1481 60.8179 52.1111 60.6434 54.0478C69.3326 41.93 61.3675 29.3673 58.0262 26.0565C57.9826 26.1438 57.9651 26.2834 57.9564 26.4317L57.8342 27.2386L57.6292 28.0325L57.3413 28.8046L56.9793 29.5374L56.5431 30.2223L56.0502 30.8766C55.8757 31.0947 55.675 31.2866 55.4831 31.4786L55.1341 31.7839L54.8593 32.0238C54.6452 32.1944 54.4209 32.3517 54.1876 32.4949L53.4766 32.905L52.7176 33.2408C52.4615 33.3377 52.201 33.4222 51.9368 33.4938L51.1298 33.6683C50.855 33.7119 50.5758 33.7425 50.3097 33.7643L49.7339 33.7904C49.4591 33.7904 49.1799 33.7643 48.9139 33.7468C48.6381 33.7264 48.3641 33.6871 48.0938 33.6291C47.819 33.5854 47.5529 33.5069 47.2868 33.424H47.2737L48.0676 33.3281L48.8746 33.1536L49.6598 32.9006C49.9215 32.8046 50.1832 32.6825 50.4188 32.5647C50.6665 32.4443 50.9081 32.3118 51.1429 32.1678L51.8146 31.7316C52.0307 31.5642 52.2361 31.3835 52.4297 31.1907C52.6308 31.0064 52.8202 30.8097 52.9967 30.6018L53.5027 29.9475C53.5289 29.9126 53.5463 29.8602 53.5769 29.8253L53.9258 29.2496L54.2879 28.5167L54.5758 27.7446C54.663 27.4916 54.7197 27.2212 54.7808 26.9595L54.9029 26.1525L54.9466 25.3324L54.9248 24.7566L54.8288 23.9497L54.6543 23.1427L54.3926 22.3706C54.2966 22.1176 54.1745 21.8646 54.0567 21.629L53.6467 20.918L53.2105 20.255L52.6565 19.6443L52.3424 19.339L50.6718 18.1612C50.5845 18.1176 50.5147 18.074 50.4318 18.0391C50.0393 17.7861 49.6598 17.6552 49.289 17.5331L49.2672 17.4807Z" fill="white"/>
<path d="M73.3544 48.1547C73.6337 48.0219 73.9281 47.9238 74.2312 47.8624C74.9073 47.7534 75.2912 47.6618 75.4002 47.5876C75.5834 47.4786 75.7056 47.3259 75.7666 47.1863C75.8408 46.9246 75.8757 46.4011 75.8757 45.5593V43.9671L75.8931 42.6672L75.8364 40.7261V39.5789C75.8364 38.8112 75.7797 38.1699 75.6532 37.6945C75.6183 37.5113 75.4526 37.3281 75.1952 37.1449C74.8462 36.8831 74.3228 36.652 73.4591 36.412L73.4417 35.5396L73.8604 35.4524C73.9913 35.4349 74.4842 35.3041 75.3435 35.086L76.6434 34.5756L76.9487 34.4099C77.1048 34.277 77.2695 34.1546 77.4417 34.0434C77.9346 33.655 78.3771 33.2066 78.759 32.7087L79.7274 32.6345L79.6925 34.7021C79.675 34.9028 79.675 35.0685 79.675 35.195L79.6925 36.0369C80.7176 35.1645 81.6336 34.5538 82.4755 34.2048C83.4519 33.7736 84.5052 33.5436 85.5725 33.5287C86.6474 33.5071 87.7044 33.8062 88.6085 34.388C89.4635 34.9551 90.048 35.6094 90.3533 36.351C90.6587 37.0925 90.7546 38.6192 90.7546 40.8701L90.6805 46.8722C90.6764 47.1117 90.7271 47.3489 90.8288 47.5658C91.1527 47.7141 91.4992 47.807 91.8539 47.8406L92.7525 48.0064C92.8668 48.1794 92.9247 48.3836 92.9182 48.5909L92.9008 49.1928L89.2977 48.9311L88.2377 48.966H87.3959L84.9618 49.1492H84.3381C84.3206 48.9835 84.3206 48.8744 84.3206 48.7828L84.3555 48.0674C84.5213 48.0325 84.9575 47.9802 85.638 47.8842C85.8212 47.8668 86.0218 47.8101 86.2617 47.7534C86.5016 47.6661 86.6456 47.5527 86.6805 47.4611C86.7677 47.243 86.8288 46.8591 86.8288 46.2703L86.7939 43.893L86.8113 41.7686C86.8113 39.1689 86.663 37.5593 86.3751 36.9398C85.9389 36.0064 85.2061 35.544 84.2726 35.544C83.5338 35.5613 82.8081 35.7431 82.1483 36.0762C81.3093 36.4867 80.5384 37.0236 79.8626 37.6683L79.8277 37.9737L79.8626 39.1252L79.8452 40.3466L79.9193 43.291L79.8844 43.749C79.8844 45.7425 79.9586 46.8766 80.1243 47.134C80.2901 47.3913 80.892 47.6661 81.9564 47.9758L82.0131 48.4339C82.0131 48.5822 81.9564 48.8003 81.8822 49.11L80.9138 49.1274C80.5093 49.1151 80.1058 49.0786 79.7056 49.0184L77.6903 49.0009L73.446 49.1318C73.3952 49.0103 73.37 48.8796 73.3719 48.7479L73.3893 48.1634L73.3544 48.1547ZM94.964 39.4044C95.2912 38.3575 95.566 37.6683 95.8233 37.3368C96.4995 36.3335 97.2323 35.592 98.0044 34.9813C98.7765 34.3706 99.4875 34.0478 100.107 33.8646C100.746 33.6582 101.411 33.5408 102.083 33.5156C103.018 33.4903 103.953 33.5826 104.866 33.7904C105.505 33.9254 106.114 34.18 106.659 34.5407C107.261 34.9568 107.813 35.4413 108.303 35.9846C108.734 36.5028 109.074 37.0896 109.311 37.7207C109.603 38.4859 109.758 39.2965 109.769 40.1154L107.719 40.0805C106.48 40.0521 105.243 39.9968 104.007 39.9148L102.541 39.8406L100.565 39.8581H98.9727L98.9378 40.2943C98.9378 40.9486 99.0251 41.629 99.1778 42.3619C99.3304 43.0947 99.5791 43.6967 99.8931 44.2463C100.204 44.7776 100.607 45.2489 101.084 45.6378C101.52 46.0391 102.052 46.3139 102.55 46.4971L103.61 46.8461L105.511 46.7588C106.036 46.6517 106.55 46.4985 107.047 46.3008C107.62 46.0266 108.165 45.6964 108.674 45.315L109.791 46.1874C108.713 47.3564 107.575 48.2376 106.423 48.8046C105.272 49.3717 103.972 49.5898 102.497 49.5898C101.529 49.5898 100.739 49.5156 100.12 49.3281C99.3297 49.1218 98.5804 48.7825 97.904 48.3248C97.2418 47.8536 96.6537 47.2861 96.1592 46.641C95.6358 45.9867 95.3173 45.267 95.0818 44.556C94.7895 43.6225 94.6238 42.8722 94.6238 42.3226C94.6142 41.3523 94.7019 40.3834 94.8855 39.4306L94.964 39.4044ZM105.651 38.6192C105.634 37.9213 105.503 37.2844 105.25 36.6432C104.997 36.002 104.595 35.544 104.041 35.2038C103.563 34.8703 102.997 34.6852 102.414 34.6716C101.542 34.6716 100.857 35.038 100.181 35.749C99.5049 36.46 99.156 37.4938 99.0644 38.6934L103.252 38.7108L104.386 38.6541L105.154 38.5974L105.647 38.6149L105.651 38.6192ZM112.63 43.9497C112.896 43.8894 113.166 43.8529 113.437 43.8406L113.821 43.8581L113.987 44.0413L115.304 46.1656C115.723 46.6585 116.146 47.0642 116.613 47.3739C116.888 47.5571 117.328 47.7752 117.93 47.9758C118.347 48.1238 118.787 48.1976 119.23 48.1939C119.958 48.2126 120.666 47.9502 121.206 47.4611C121.756 46.9508 122.079 46.4142 122.079 45.8341C122.079 45.4502 121.969 45.1187 121.773 44.8482C121.577 44.5778 121.149 44.2986 120.53 43.9758C120.225 43.845 119.453 43.6269 118.205 43.3215L116.076 42.7196C115.513 42.5095 114.993 42.1991 114.541 41.8035C114.111 41.4334 113.763 40.9791 113.516 40.4687C113.21 39.7708 113.08 39.1689 113.08 38.7239C113.08 37.7904 113.228 37.0402 113.481 36.4382C113.759 35.8436 114.15 35.3087 114.633 34.8635C114.981 34.5145 115.505 34.2092 116.225 33.93C116.96 33.6493 117.741 33.5074 118.528 33.5113C119.558 33.4975 120.587 33.5778 121.603 33.7512C122.378 33.882 123.13 34.1229 123.836 34.4666C123.924 34.7414 124.02 35.4 124.164 36.4077L124.364 38.2179C124.364 38.3052 124.347 38.4011 124.308 38.4927C124.046 38.5773 123.775 38.6271 123.501 38.641C123.391 38.641 123.208 38.6236 122.968 38.6062C122.812 38.3567 122.666 38.1005 122.532 37.8384C121.948 36.7392 121.341 35.9715 120.722 35.5353C120.103 35.0991 119.405 34.8591 118.541 34.8591C117.677 34.8591 116.984 35.1209 116.417 35.592C116.209 35.7736 116.045 35.9997 115.937 36.2535C115.829 36.5072 115.78 36.7821 115.793 37.0576C115.793 37.4589 116.011 37.8646 116.447 38.279C116.883 38.6934 117.616 39.0293 118.68 39.2474C120.294 39.5963 121.481 39.9627 122.231 40.3074C123.33 40.8177 124.116 41.4415 124.556 42.1394C124.997 42.8373 125.232 43.64 125.232 44.556C125.232 45.9824 124.683 47.1732 123.605 48.1241C122.528 49.0751 120.988 49.5331 118.92 49.5331C118.217 49.4998 117.516 49.4387 116.818 49.3499C116.308 49.2932 115.701 49.1667 115.008 48.9835C114.549 48.8258 114.098 48.6483 113.655 48.4513C113.541 48.3851 113.442 48.296 113.363 48.1896C113.328 48.0805 113.232 47.5658 113.123 46.6541L112.818 43.9627L112.63 43.9497ZM127.706 35.1645C129.145 34.5625 130.192 33.9562 130.833 33.4197C131.474 32.8831 132.168 31.8624 132.901 30.5407H133.948C134.058 30.8653 134.114 31.2057 134.113 31.5484L134.096 33.0489L134.039 34.1263L134.057 34.5451L134.475 34.5625L136.194 34.4884L137.568 34.4535C137.641 34.7405 137.683 35.0344 137.695 35.3303C137.695 35.6225 137.638 35.954 137.546 36.3161C137.243 36.3613 136.937 36.386 136.63 36.3902C136.543 36.3902 136.338 36.3902 136.046 36.3553H135.095L134.763 36.3379L133.891 36.3728L133.856 43.3521L133.93 45.8951C134.008 46.2451 134.158 46.5749 134.371 46.8635C134.663 46.9985 134.982 47.067 135.304 47.0642C135.631 47.0642 135.871 47.0293 136.037 46.9769C136.203 46.9246 136.473 46.737 136.844 46.4448C136.918 46.3706 137.045 46.2964 137.193 46.183C137.467 46.381 137.713 46.6142 137.926 46.8766L138 47.0947C137.55 47.7843 136.917 48.3355 136.172 48.6869C135.405 49.0707 134.58 49.2539 133.703 49.2539C132.552 49.2539 131.636 48.8875 130.92 48.1765C130.205 47.4655 129.86 46.327 129.86 44.809L129.935 41.5898V36.351L129.368 36.3335L128.033 36.351L127.793 36.2943C127.725 36.2066 127.687 36.0997 127.684 35.9889L127.719 35.1165L127.706 35.1645Z" fill="white"/>
</svg>
