<svg width="156" height="80" viewBox="0 0 156 80" fill="none" xmlns="http://www.w3.org/2000/svg">
<path fill-rule="evenodd" clip-rule="evenodd" d="M78.723 21.1637C78.626 21.1648 78.5279 21.188 78.4413 21.2388C78.2684 21.3403 78.1596 21.5266 78.1596 21.727V36.0932C78.1596 36.2344 78.0939 36.3605 77.9718 36.4313C77.8494 36.5023 77.7001 36.5023 77.5774 36.4313L75.23 35.0792C74.8803 34.8775 74.4531 34.8776 74.1033 35.0792L64.7324 40.4876C64.382 40.6897 64.169 41.0785 64.169 41.4829V52.2998C64.169 52.7039 64.3823 53.0739 64.7324 53.2763L74.1033 58.6848C74.4536 58.8869 74.8797 58.8869 75.23 58.6848L84.6009 53.2763C84.951 53.0739 85.1643 52.7039 85.1643 52.2998V25.3327C85.1643 24.9225 84.9404 24.5375 84.5821 24.3374L79.0047 21.22C78.9171 21.1711 78.82 21.1626 78.723 21.1637ZM18.4413 34.666C18.2626 34.6732 18.0947 34.7044 17.9343 34.7975L8.56338 40.2059C8.2142 40.4078 8 40.7754 8 41.1824L8.01874 55.6988C8.01874 55.9007 8.12291 56.0882 8.30043 56.1872C8.47443 56.2913 8.6904 56.2913 8.86381 56.1872L14.4225 52.9946C14.7746 52.7854 15.0047 52.4216 15.0047 52.0181V45.2388C15.0047 44.8344 15.2174 44.4633 15.568 44.2622L17.9342 42.8914C18.1108 42.7893 18.3004 42.7412 18.4976 42.7412C18.6907 42.7412 18.8893 42.7892 19.061 42.8914L21.4272 44.2622C21.7778 44.4633 21.9906 44.8344 21.9906 45.2388V52.0181C21.9906 52.4216 22.2229 52.7878 22.5727 52.9946L28.1314 56.1872C28.306 56.2913 28.5216 56.2913 28.6948 56.1872C28.8673 56.0882 28.9765 55.9007 28.9765 55.6988L28.9952 41.1824C28.9952 40.7754 28.7834 40.4078 28.4318 40.2059L19.061 34.7975C18.9025 34.7044 18.7338 34.6733 18.5539 34.666H18.4413ZM102.648 34.7975C102.452 34.7972 102.26 34.8467 102.084 34.9477L92.7136 40.3561C92.3635 40.5583 92.1502 40.9283 92.1502 41.3327V52.1496C92.1502 52.5563 92.3793 52.9251 92.7324 53.1261L102.028 58.4219C102.371 58.6179 102.791 58.6326 103.136 58.4405L108.77 55.3043C108.949 55.2052 109.07 55.02 109.07 54.8161C109.072 54.6121 108.965 54.4293 108.789 54.3278L99.3615 48.9193C99.185 48.8187 99.061 48.6147 99.061 48.4123V45.032C99.061 44.8299 99.1865 44.6447 99.3615 44.5438L102.291 42.8536C102.465 42.7527 102.679 42.7527 102.854 42.8536L105.784 44.5438C105.959 44.6447 106.066 44.8299 106.066 45.032V47.6987C106.066 47.9011 106.172 48.086 106.347 48.1869C106.523 48.2881 106.736 48.2885 106.911 48.1869L112.526 44.9194C112.874 44.7169 113.089 44.3459 113.089 43.9428V41.3325C113.089 40.9293 112.875 40.5584 112.526 40.356L103.211 34.9475C103.036 34.8458 102.844 34.7977 102.648 34.7975ZM74.6291 42.8726C74.6779 42.8726 74.7355 42.8846 74.7793 42.9098L77.9906 44.769C78.0777 44.8195 78.1408 44.9125 78.1408 45.0131V48.7314C78.1408 48.8324 78.0783 48.9254 77.9906 48.9756L74.7793 50.8347C74.6919 50.8846 74.5851 50.8846 74.4976 50.8347L71.2864 48.9756C71.1989 48.9251 71.1361 48.8324 71.1361 48.7314V45.0131C71.1361 44.9125 71.1992 44.8197 71.2864 44.769L74.4976 42.9101C74.5415 42.8849 74.5802 42.8729 74.6291 42.8729V42.8726Z" fill="white"/>
<path fill-rule="evenodd" clip-rule="evenodd" d="M130.723 34.5345C130.398 34.5345 130.082 34.6017 129.803 34.7599L120.958 39.8679C120.385 40.1974 120.038 40.8204 120.038 41.4829V51.6801C120.038 52.3423 120.385 52.9645 120.958 53.2951L123.268 54.6284C124.39 55.1815 124.804 55.173 125.315 55.173C126.976 55.173 127.925 54.1648 127.925 52.4125V42.3467C127.925 42.2044 127.802 42.1026 127.662 42.1026H126.554C126.412 42.1026 126.291 42.2044 126.291 42.3467V52.4125C126.291 53.1892 125.482 53.9703 124.169 53.3139L121.765 51.9055C121.68 51.8592 121.615 51.7775 121.615 51.6801V41.4829C121.615 41.3861 121.68 41.2878 121.765 41.2388L130.592 36.1496C130.674 36.1021 130.773 36.1021 130.854 36.1496L139.681 41.2388C139.765 41.2893 139.831 41.3831 139.831 41.4829V51.6801C139.831 51.7775 139.782 51.8773 139.699 51.9242L130.854 57.0134C130.779 57.0585 130.674 57.0585 130.592 57.0134L128.319 55.6613C128.252 55.6217 128.159 55.6247 128.094 55.6613C127.467 56.0169 127.349 56.0583 126.761 56.2623C126.616 56.3128 126.395 56.3913 126.836 56.6379L129.803 58.3843C130.085 58.5478 130.4 58.6284 130.723 58.6284C131.05 58.6284 131.361 58.5478 131.643 58.3843L140.488 53.2951C141.061 52.9622 141.408 52.3423 141.408 51.6801V41.4829C141.408 40.8204 141.061 40.1988 140.488 39.8679L131.643 34.7599C131.366 34.6017 131.048 34.5345 130.723 34.5345ZM46.5915 34.7411C46.3963 34.7411 46.203 34.7904 46.0282 34.8913L36.6573 40.281C36.3069 40.4829 36.0939 40.8723 36.0939 41.2763V52.0932C36.0939 52.4977 36.3071 52.8674 36.6573 53.0697L46.0282 58.4782C46.3785 58.6805 46.8046 58.6805 47.1549 58.4782L56.5258 53.0697C56.8755 52.8674 57.0892 52.4977 57.0892 52.0932V41.2763C57.0892 40.8717 56.8761 40.4829 56.5258 40.281L47.1549 34.8913C46.98 34.7904 46.7868 34.7411 46.5915 34.7411ZM143.85 34.7976V35.0605H144.582V36.9947H144.883V35.0605H145.634V34.7976H143.85ZM145.897 34.7976V36.9947H146.178V35.699C146.178 35.6461 146.181 35.5643 146.178 35.4549C146.175 35.3434 146.178 35.2462 146.178 35.1919V35.1354L146.798 36.9946H147.099L147.737 35.1354C147.737 35.2537 147.721 35.3679 147.718 35.4735C147.717 35.5762 147.718 35.6534 147.718 35.6988V36.9946H148V34.7974H147.587L146.948 36.6566L146.329 34.7974L145.897 34.7976ZM133.089 41.8211C130.57 41.8211 129.07 42.893 129.07 44.6755C129.07 46.6093 130.559 47.1406 132.976 47.3797C135.869 47.6628 136.094 48.0875 136.094 48.6567C136.094 49.6441 135.307 50.0652 133.446 50.0652C131.108 50.0652 130.595 49.4816 130.423 48.3187C130.402 48.194 130.306 48.0933 130.178 48.0933H129.033C128.892 48.0933 128.77 48.2148 128.77 48.3563C128.77 49.8448 129.58 51.6051 133.446 51.6051C136.245 51.6051 137.859 50.5065 137.859 48.5816C137.859 46.6734 136.555 46.1612 133.84 45.8023C131.097 45.4393 130.836 45.2617 130.836 44.6192C130.836 44.0889 131.057 43.3797 133.089 43.3797C134.904 43.3797 135.575 43.7711 135.85 44.9948C135.874 45.1098 135.975 45.2013 136.094 45.2013H137.239C137.31 45.2013 137.378 45.1581 137.427 45.1074C137.475 45.0533 137.509 44.9924 137.502 44.9197C137.325 42.8122 135.92 41.8211 133.089 41.8211ZM102.629 44.3938C102.592 44.3938 102.55 44.3939 102.516 44.4125L100.714 45.4641C100.646 45.5026 100.601 45.5742 100.601 45.6519V47.7176C100.601 47.7954 100.646 47.8667 100.714 47.9054L102.516 48.9383C102.584 48.9773 102.656 48.9773 102.723 48.9383L104.526 47.9054C104.593 47.867 104.638 47.7954 104.638 47.7176V45.6519C104.638 45.5742 104.593 45.5028 104.526 45.4641L102.723 44.4125C102.69 44.3926 102.667 44.3938 102.629 44.3938Z" fill="#D3D4DC"/>
</svg>
