<svg width="156" height="80" viewBox="0 0 156 80" fill="none" xmlns="http://www.w3.org/2000/svg">
<path d="M68.1786 37.9063C68.1786 38.7249 67.9855 39.4972 67.5994 40.2231C67.2132 40.9491 66.5954 41.5437 65.7459 42.0071C64.8964 42.455 63.8075 42.6789 62.4792 42.6789H59.5601V49.2123H56.9189V33.1106H62.4792C63.7149 33.1106 64.7574 33.3268 65.6069 33.7593C66.4719 34.1763 67.1128 34.7478 67.5299 35.4737C67.9623 36.1996 68.1786 37.0105 68.1786 37.9063ZM62.4792 40.5243C63.4832 40.5243 64.2323 40.3004 64.7265 39.8525C65.2208 39.3891 65.4679 38.7404 65.4679 37.9063C65.4679 36.1456 64.4717 35.2652 62.4792 35.2652H59.5601V40.5243H62.4792Z" fill="white"/>
<path d="M73.3387 38.3002C73.7248 37.6515 74.2345 37.1495 74.8678 36.7943C75.5165 36.4236 76.281 36.2382 77.1614 36.2382V38.9721H76.4895C75.4547 38.9721 74.667 39.2346 74.1264 39.7598C73.6013 40.2849 73.3387 41.1962 73.3387 42.4936V49.2123H70.6975V36.4468H73.3387V38.3002Z" fill="white"/>
<path d="M91.289 42.5168C91.289 42.9956 91.2581 43.428 91.1963 43.8142H81.4426C81.5198 44.8336 81.8982 45.6522 82.5778 46.27C83.2574 46.8878 84.0915 47.1967 85.08 47.1967C86.5009 47.1967 87.5049 46.6021 88.0918 45.4128H90.9415C90.5553 46.5866 89.8526 47.5519 88.8332 48.3088C87.8292 49.0501 86.5782 49.4208 85.08 49.4208C83.8598 49.4208 82.7632 49.1505 81.7901 48.61C80.8325 48.0539 80.0757 47.2817 79.5197 46.2932C78.9791 45.2892 78.7088 44.1308 78.7088 42.818C78.7088 41.5051 78.9713 40.3544 79.4965 39.3659C80.0371 38.362 80.7862 37.5897 81.7438 37.0491C82.7168 36.5085 83.8289 36.2382 85.08 36.2382C86.2847 36.2382 87.3582 36.5008 88.3003 37.026C89.2425 37.5511 89.9761 38.2925 90.5013 39.2501C91.0264 40.1923 91.289 41.2811 91.289 42.5168ZM88.532 41.6827C88.5166 40.7097 88.169 39.9297 87.4894 39.3428C86.8098 38.7558 85.9681 38.4624 84.9641 38.4624C84.0529 38.4624 83.2729 38.7558 82.6242 39.3428C81.9755 39.9142 81.5893 40.6942 81.4658 41.6827H88.532Z" fill="white"/>
<path d="M96.9695 38.6014V45.6676C96.9695 46.1464 97.0776 46.4939 97.2938 46.7102C97.5255 46.911 97.9117 47.0114 98.4522 47.0114H100.074V49.2123H97.9889C96.7996 49.2123 95.8883 48.9343 95.2551 48.3783C94.6218 47.8222 94.3052 46.9187 94.3052 45.6676V38.6014H92.7993V36.4468H94.3052V33.2727H96.9695V36.4468H100.074V38.6014H96.9695Z" fill="white"/>
<path d="M105.59 38.6014V45.6676C105.59 46.1464 105.698 46.4939 105.914 46.7102C106.146 46.911 106.532 47.0114 107.072 47.0114H108.694V49.2123H106.609C105.42 49.2123 104.508 48.9343 103.875 48.3783C103.242 47.8222 102.925 46.9187 102.925 45.6676V38.6014H101.419V36.4468H102.925V33.2727H105.59V36.4468H108.694V38.6014H105.59Z" fill="white"/>
<path d="M112.472 34.7555C111.993 34.7555 111.592 34.5933 111.267 34.269C110.943 33.9446 110.781 33.543 110.781 33.0642C110.781 32.5854 110.943 32.1838 111.267 31.8595C111.592 31.5351 111.993 31.373 112.472 31.373C112.935 31.373 113.329 31.5351 113.654 31.8595C113.978 32.1838 114.14 32.5854 114.14 33.0642C114.14 33.543 113.978 33.9446 113.654 34.269C113.329 34.5933 112.935 34.7555 112.472 34.7555ZM113.77 36.4468V49.2123H111.128V36.4468H113.77Z" fill="white"/>
<path d="M128.937 42.5168C128.937 42.9956 128.906 43.428 128.844 43.8142H119.091C119.168 44.8336 119.546 45.6522 120.226 46.27C120.905 46.8878 121.739 47.1967 122.728 47.1967C124.149 47.1967 125.153 46.6021 125.74 45.4128H128.589C128.203 46.5866 127.501 47.5519 126.481 48.3088C125.477 49.0501 124.226 49.4208 122.728 49.4208C121.508 49.4208 120.411 49.1505 119.438 48.61C118.48 48.0539 117.724 47.2817 117.168 46.2932C116.627 45.2892 116.357 44.1308 116.357 42.818C116.357 41.5051 116.619 40.3544 117.144 39.3659C117.685 38.362 118.434 37.5897 119.392 37.0491C120.365 36.5085 121.477 36.2382 122.728 36.2382C123.933 36.2382 125.006 36.5008 125.948 37.026C126.89 37.5511 127.624 38.2925 128.149 39.2501C128.674 40.1923 128.937 41.2811 128.937 42.5168ZM126.18 41.6827C126.165 40.7097 125.817 39.9297 125.137 39.3428C124.458 38.7558 123.616 38.4624 122.612 38.4624C121.701 38.4624 120.921 38.7558 120.272 39.3428C119.623 39.9142 119.237 40.6942 119.114 41.6827H126.18Z" fill="white"/>
<path d="M134.177 38.3002C134.563 37.6515 135.073 37.1495 135.706 36.7943C136.355 36.4236 137.12 36.2382 138 36.2382V38.9721H137.328C136.293 38.9721 135.506 39.2346 134.965 39.7598C134.44 40.2849 134.177 41.1962 134.177 42.4936V49.2123H131.536V36.4468H134.177V38.3002Z" fill="white"/>
<path d="M43.6214 29.9613H41.7995C41.4496 29.9613 41.166 30.2449 41.166 30.5947V30.8723C41.166 31.2221 41.4496 31.5057 41.7995 31.5057H43.6214C43.9712 31.5057 44.2548 31.2221 44.2548 30.8723V30.5947C44.2548 30.2449 43.9712 29.9613 43.6214 29.9613Z" fill="white"/>
<path d="M26.633 54.6717H18.6334C18.2836 54.6717 18 54.9553 18 55.3052V55.5827C18 55.9325 18.2836 56.2161 18.6334 56.2161H26.633C26.9828 56.2161 27.2664 55.9325 27.2664 55.5827V55.3052C27.2664 54.9553 26.9828 54.6717 26.633 54.6717Z" fill="white"/>
<path d="M42.077 42.3165H37.1663C36.8164 42.3165 36.5328 42.6001 36.5328 42.95V43.2275C36.5328 43.5773 36.8164 43.8609 37.1663 43.8609H42.077C42.4268 43.8609 42.7104 43.5773 42.7104 43.2275V42.95C42.7104 42.6001 42.4268 42.3165 42.077 42.3165Z" fill="white"/>
<path d="M34.355 42.3165H27.8999C27.55 42.3165 27.2664 42.6001 27.2664 42.95V43.2275C27.2664 43.5773 27.55 43.8609 27.8999 43.8609H34.355C34.7048 43.8609 34.9884 43.5773 34.9884 43.2275V42.95C34.9884 42.6001 34.7048 42.3165 34.355 42.3165Z" fill="white"/>
<path d="M25.0886 42.3165H18.6334C18.2836 42.3165 18 42.6001 18 42.95V43.2275C18 43.5773 18.2836 43.8609 18.6334 43.8609H25.0886C25.4384 43.8609 25.722 43.5773 25.722 43.2275V42.95C25.722 42.6001 25.4384 42.3165 25.0886 42.3165Z" fill="white"/>
<path d="M26.633 48.4941H18.6334C18.2836 48.4941 18 48.7777 18 49.1276V49.4051C18 49.7549 18.2836 50.0385 18.6334 50.0385H26.633C26.9828 50.0385 27.2664 49.7549 27.2664 49.4051V49.1276C27.2664 48.7777 26.9828 48.4941 26.633 48.4941Z" fill="white"/>
<path d="M26.633 36.1389H18.6334C18.2836 36.1389 18 36.4225 18 36.7724V37.0499C18 37.3997 18.2836 37.6833 18.6334 37.6833H26.633C26.9828 37.6833 27.2664 37.3997 27.2664 37.0499V36.7724C27.2664 36.4225 26.9828 36.1389 26.633 36.1389Z" fill="white"/>
<path d="M42.077 26.8725H26.3555C26.0056 26.8725 25.722 27.1561 25.722 27.5059V27.7835C25.722 28.1333 26.0056 28.4169 26.3555 28.4169H42.077C42.4268 28.4169 42.7104 28.1333 42.7104 27.7835V27.5059C42.7104 27.1561 42.4268 26.8725 42.077 26.8725Z" fill="white"/>
<path d="M23.5442 26.8725H18.6334C18.2836 26.8725 18 27.1561 18 27.5059V27.7835C18 28.1333 18.2836 28.4169 18.6334 28.4169H23.5442C23.894 28.4169 24.1776 28.1333 24.1776 27.7835V27.5059C24.1776 27.1561 23.894 26.8725 23.5442 26.8725Z" fill="white"/>
<path d="M26.633 51.5829H24.8111C24.4612 51.5829 24.1776 51.8665 24.1776 52.2164V52.4939C24.1776 52.8437 24.4612 53.1273 24.8111 53.1273H26.633C26.9828 53.1273 27.2664 52.8437 27.2664 52.4939V52.2164C27.2664 51.8665 26.9828 51.5829 26.633 51.5829Z" fill="white"/>
<path d="M26.633 33.0501H24.8111C24.4612 33.0501 24.1776 33.3337 24.1776 33.6835V33.9611C24.1776 34.3109 24.4612 34.5945 24.8111 34.5945H26.633C26.9828 34.5945 27.2664 34.3109 27.2664 33.9611V33.6835C27.2664 33.3337 26.9828 33.0501 26.633 33.0501Z" fill="white"/>
<path d="M21.9998 51.5829H18.6334C18.2836 51.5829 18 51.8665 18 52.2164V52.4939C18 52.8437 18.2836 53.1273 18.6334 53.1273H21.9998C22.3496 53.1273 22.6332 52.8437 22.6332 52.4939V52.2164C22.6332 51.8665 22.3496 51.5829 21.9998 51.5829Z" fill="white"/>
<path d="M21.9998 33.0501H18.6334C18.2836 33.0501 18 33.3337 18 33.6835V33.9611C18 34.3109 18.2836 34.5945 18.6334 34.5945H21.9998C22.3496 34.5945 22.6332 34.3109 22.6332 33.9611V33.6835C22.6332 33.3337 22.3496 33.0501 21.9998 33.0501Z" fill="white"/>
<path d="M40.5326 51.5829H38.7107C38.3608 51.5829 38.0772 51.8665 38.0772 52.2164V52.4939C38.0772 52.8437 38.3608 53.1273 38.7107 53.1273H40.5326C40.8824 53.1273 41.166 52.8437 41.166 52.4939V52.2164C41.166 51.8665 40.8824 51.5829 40.5326 51.5829Z" fill="#B7BAC7"/>
<path d="M35.8994 51.5829H29.4443C29.0944 51.5829 28.8108 51.8665 28.8108 52.2164V52.4939C28.8108 52.8437 29.0944 53.1273 29.4443 53.1273H35.8994C36.2492 53.1273 36.5328 52.8437 36.5328 52.4939V52.2164C36.5328 51.8665 36.2492 51.5829 35.8994 51.5829Z" fill="#B7BAC7"/>
<path d="M49.799 51.5829H43.3439C42.994 51.5829 42.7104 51.8665 42.7104 52.2164V52.4939C42.7104 52.8437 42.994 53.1273 43.3439 53.1273H49.799C50.1488 53.1273 50.4324 52.8437 50.4324 52.4939V52.2164C50.4324 51.8665 50.1488 51.5829 49.799 51.5829Z" fill="#B7BAC7"/>
<path d="M43.6214 39.2277H30.9887C30.6388 39.2277 30.3552 39.5113 30.3552 39.8612V40.1387C30.3552 40.4885 30.6388 40.7721 30.9887 40.7721H43.6214C43.9712 40.7721 44.2548 40.4885 44.2548 40.1387V39.8612C44.2548 39.5113 43.9712 39.2277 43.6214 39.2277Z" fill="white"/>
<path d="M28.1774 39.2277H23.2667C22.9168 39.2277 22.6332 39.5113 22.6332 39.8612V40.1387C22.6332 40.4885 22.9168 40.7721 23.2667 40.7721H28.1774C28.5272 40.7721 28.8108 40.4885 28.8108 40.1387V39.8612C28.8108 39.5113 28.5272 39.2277 28.1774 39.2277Z" fill="white"/>
<path d="M20.4554 39.2277H18.6334C18.2836 39.2277 18 39.5113 18 39.8612V40.1387C18 40.4885 18.2836 40.7721 18.6334 40.7721H20.4554C20.8052 40.7721 21.0888 40.4885 21.0888 40.1387V39.8612C21.0888 39.5113 20.8052 39.2277 20.4554 39.2277Z" fill="white"/>
<path d="M38.9882 29.9613H32.5331C32.1832 29.9613 31.8996 30.2449 31.8996 30.5947V30.8723C31.8996 31.2221 32.1832 31.5057 32.5331 31.5057H38.9882C39.338 31.5057 39.6216 31.2221 39.6216 30.8723V30.5947C39.6216 30.2449 39.338 29.9613 38.9882 29.9613Z" fill="white"/>
<path d="M29.7218 29.9613H18.6334C18.2836 29.9613 18 30.2449 18 30.5947V30.8723C18 31.2221 18.2836 31.5057 18.6334 31.5057H29.7218C30.0716 31.5057 30.3552 31.2221 30.3552 30.8723V30.5947C30.3552 30.2449 30.0716 29.9613 29.7218 29.9613Z" fill="white"/>
<path d="M37.4438 45.4053H23.2667C22.9168 45.4053 22.6332 45.6889 22.6332 46.0388V46.3163C22.6332 46.6661 22.9168 46.9497 23.2667 46.9497H37.4438C37.7936 46.9497 38.0772 46.6661 38.0772 46.3163V46.0388C38.0772 45.6889 37.7936 45.4053 37.4438 45.4053Z" fill="white"/>
<path d="M20.4554 45.4053H18.6334C18.2836 45.4053 18 45.6889 18 46.0388V46.3163C18 46.6661 18.2836 46.9497 18.6334 46.9497H20.4554C20.8052 46.9497 21.0888 46.6661 21.0888 46.3163V46.0388C21.0888 45.6889 20.8052 45.4053 20.4554 45.4053Z" fill="white"/>
<path d="M45.1658 33.0501H37.1663C36.8164 33.0501 36.5328 33.3337 36.5328 33.6835V33.9611C36.5328 34.3109 36.8164 34.5945 37.1663 34.5945H45.1658C45.5156 34.5945 45.7992 34.3109 45.7992 33.9611V33.6835C45.7992 33.3337 45.5156 33.0501 45.1658 33.0501Z" fill="white"/>
<path d="M45.1658 36.1389H37.1663C36.8164 36.1389 36.5328 36.4225 36.5328 36.7724V37.0499C36.5328 37.3997 36.8164 37.6833 37.1663 37.6833H45.1658C45.5156 37.6833 45.7992 37.3997 45.7992 37.0499V36.7724C45.7992 36.4225 45.5156 36.1389 45.1658 36.1389Z" fill="white"/>
<path d="M37.4438 23.7837H18.6334C18.2836 23.7837 18 24.0673 18 24.4171V24.6946C18 25.0445 18.2836 25.3281 18.6334 25.3281H37.4438C37.7936 25.3281 38.0772 25.0445 38.0772 24.6946V24.4171C38.0772 24.0673 37.7936 23.7837 37.4438 23.7837Z" fill="white"/>
<path d="M49.799 23.7837H40.2551C39.9052 23.7837 39.6216 24.0673 39.6216 24.4171V24.6946C39.6216 25.0445 39.9052 25.3281 40.2551 25.3281H49.799C50.1488 25.3281 50.4324 25.0445 50.4324 24.6946V24.4171C50.4324 24.0673 50.1488 23.7837 49.799 23.7837Z" fill="#B7BAC7"/>
<path d="M43.6214 45.4053H40.2551C39.9052 45.4053 39.6216 45.6889 39.6216 46.0388V46.3163C39.6216 46.6661 39.9052 46.9497 40.2551 46.9497H43.6214C43.9712 46.9497 44.2548 46.6661 44.2548 46.3163V46.0388C44.2548 45.6889 43.9712 45.4053 43.6214 45.4053Z" fill="#B7BAC7"/>
<path d="M49.799 45.4053H46.4327C46.0828 45.4053 45.7992 45.6889 45.7992 46.0388V46.3163C45.7992 46.6661 46.0828 46.9497 46.4327 46.9497H49.799C50.1488 46.9497 50.4324 46.6661 50.4324 46.3163V46.0388C50.4324 45.6889 50.1488 45.4053 49.799 45.4053Z" fill="#B7BAC7"/>
<path d="M49.799 42.3165H44.8883C44.5384 42.3165 44.2548 42.6001 44.2548 42.95V43.2275C44.2548 43.5773 44.5384 43.8609 44.8883 43.8609H49.799C50.1488 43.8609 50.4324 43.5773 50.4324 43.2275V42.95C50.4324 42.6001 50.1488 42.3165 49.799 42.3165Z" fill="#B7BAC7"/>
<path d="M49.799 26.8725H44.8883C44.5384 26.8725 44.2548 27.1561 44.2548 27.5059V27.7835C44.2548 28.1333 44.5384 28.4169 44.8883 28.4169H49.799C50.1488 28.4169 50.4324 28.1333 50.4324 27.7835V27.5059C50.4324 27.1561 50.1488 26.8725 49.799 26.8725Z" fill="#B7BAC7"/>
<path d="M49.799 39.2277H46.4327C46.0828 39.2277 45.7992 39.5113 45.7992 39.8612V40.1387C45.7992 40.4885 46.0828 40.7721 46.4327 40.7721H49.799C50.1488 40.7721 50.4324 40.4885 50.4324 40.1387V39.8612C50.4324 39.5113 50.1488 39.2277 49.799 39.2277Z" fill="#B7BAC7"/>
<path d="M49.799 29.9613H46.4327C46.0828 29.9613 45.7992 30.2449 45.7992 30.5947V30.8723C45.7992 31.2221 46.0828 31.5057 46.4327 31.5057H49.799C50.1488 31.5057 50.4324 31.2221 50.4324 30.8723V30.5947C50.4324 30.2449 50.1488 29.9613 49.799 29.9613Z" fill="#B7BAC7"/>
<path d="M49.799 33.0501H47.9771C47.6272 33.0501 47.3436 33.3337 47.3436 33.6835V33.9611C47.3436 34.3109 47.6272 34.5945 47.9771 34.5945H49.799C50.1488 34.5945 50.4324 34.3109 50.4324 33.9611V33.6835C50.4324 33.3337 50.1488 33.0501 49.799 33.0501Z" fill="#B7BAC7"/>
<path d="M49.799 36.1389H47.9771C47.6272 36.1389 47.3436 36.4225 47.3436 36.7724V37.0499C47.3436 37.3997 47.6272 37.6833 47.9771 37.6833H49.799C50.1488 37.6833 50.4324 37.3997 50.4324 37.0499V36.7724C50.4324 36.4225 50.1488 36.1389 49.799 36.1389Z" fill="#B7BAC7"/>
<path d="M49.799 48.4941H35.6219C35.272 48.4941 34.9884 48.7777 34.9884 49.1276V49.4051C34.9884 49.7549 35.272 50.0385 35.6219 50.0385H49.799C50.1488 50.0385 50.4324 49.7549 50.4324 49.4051V49.1276C50.4324 48.7777 50.1488 48.4941 49.799 48.4941Z" fill="#B7BAC7"/>
<path d="M32.8106 48.4941H29.4443C29.0944 48.4941 28.8108 48.7777 28.8108 49.1276V49.4051C28.8108 49.7549 29.0944 50.0385 29.4443 50.0385H32.8106C33.1604 50.0385 33.444 49.7549 33.444 49.4051V49.1276C33.444 48.7777 33.1604 48.4941 32.8106 48.4941Z" fill="#B7BAC7"/>
<path d="M49.799 54.6717H41.7995C41.4496 54.6717 41.166 54.9553 41.166 55.3052V55.5827C41.166 55.9325 41.4496 56.2161 41.7995 56.2161H49.799C50.1488 56.2161 50.4324 55.9325 50.4324 55.5827V55.3052C50.4324 54.9553 50.1488 54.6717 49.799 54.6717Z" fill="#B7BAC7"/>
<path d="M38.9882 54.6717H29.4443C29.0944 54.6717 28.8108 54.9553 28.8108 55.3052V55.5827C28.8108 55.9325 29.0944 56.2161 29.4443 56.2161H38.9882C39.338 56.2161 39.6216 55.9325 39.6216 55.5827V55.3052C39.6216 54.9553 39.338 54.6717 38.9882 54.6717Z" fill="#B7BAC7"/>
<path d="M34.355 33.0501H29.4443C29.0944 33.0501 28.8108 33.3337 28.8108 33.6835V33.9611C28.8108 34.3109 29.0944 34.5945 29.4443 34.5945H34.355C34.7048 34.5945 34.9884 34.3109 34.9884 33.9611V33.6835C34.9884 33.3337 34.7048 33.0501 34.355 33.0501Z" fill="#B7BAC7"/>
<path d="M34.355 36.1389H29.4443C29.0944 36.1389 28.8108 36.4225 28.8108 36.7724V37.0499C28.8108 37.3997 29.0944 37.6833 29.4443 37.6833H34.355C34.7048 37.6833 34.9884 37.3997 34.9884 37.0499V36.7724C34.9884 36.4225 34.7048 36.1389 34.355 36.1389Z" fill="#B7BAC7"/>
</svg>
