<svg width="156" height="80" viewBox="0 0 156 80" fill="none" xmlns="http://www.w3.org/2000/svg">
<path d="M32.7793 21.9576C33.771 21.5939 34.8784 22.0567 35.3247 23.0319C39.4899 31.8747 43.622 40.7009 47.7542 49.5602C48.2665 50.6511 47.6219 52.0891 46.4484 52.3866C40.118 54.2709 33.771 56.1551 27.424 58.0394C26.6637 58.3204 25.8042 58.122 25.2092 57.56C24.8621 57.1303 24.5481 56.6675 24.2671 56.1882C22.3002 53.1304 20.3333 50.0561 18.3664 46.9818C17.9036 46.3041 17.8705 45.4116 18.3168 44.7174C22.763 37.4613 27.2257 30.2053 31.6884 22.9493C31.9529 22.5526 32.2834 22.1228 32.7793 21.9576ZM33.6553 26.7839C31.7215 36.0564 29.8042 45.3289 27.8868 54.618C27.6554 55.1965 28.3496 55.7089 28.8786 55.4279C34.2173 53.8411 39.5725 52.2709 44.9112 50.6511C45.3245 50.5685 45.5724 50.1553 45.4897 49.7586C45.4732 49.6759 45.4402 49.6098 45.4071 49.5437C41.8535 41.8249 38.1841 34.1556 34.6305 26.4368C34.2834 26.2715 33.7049 26.3046 33.6553 26.7839Z" fill="white"/>
<path d="M82.8442 50.023H86.5962V36.2382H82.8442V50.023ZM82.679 32.6846C82.679 31.4615 83.3566 30.8499 84.7285 30.8499C86.1004 30.8499 86.778 31.4615 86.778 32.6846C86.778 33.2631 86.6127 33.7259 86.2656 34.0399C85.9185 34.354 85.4062 34.5193 84.7285 34.5358C83.3732 34.5193 82.6955 33.9077 82.679 32.6846ZM134.248 43.6265L132.794 43.6761C131.703 43.7091 130.893 43.9075 130.347 44.2711C129.818 44.6347 129.554 45.1802 129.554 45.9239C129.554 46.9818 130.165 47.5107 131.372 47.5107C132.248 47.5107 132.942 47.2628 133.455 46.7669C133.984 46.271 134.231 45.5934 134.231 44.7669L134.248 43.6265ZM135.355 50.023L134.628 48.1553H134.529C133.901 48.9487 133.24 49.5106 132.579 49.8082C131.918 50.1057 131.041 50.271 129.967 50.271C128.645 50.271 127.604 49.8908 126.843 49.1305C126.083 48.3702 125.703 47.2958 125.703 45.9074C125.703 44.4529 126.215 43.362 127.24 42.6678C128.265 41.9736 129.802 41.5935 131.868 41.5108L134.265 41.4282V40.8332C134.265 39.4448 133.554 38.734 132.116 38.734C131.008 38.734 129.719 39.0646 128.232 39.7257L126.992 37.1803C128.628 36.3374 130.43 35.9076 132.265 35.9407C134.116 35.9407 135.537 36.3374 136.512 37.1473C137.504 37.9572 138 39.1803 138 40.8166V50.0065H135.355V50.023ZM114.728 50.023H110.976V41.9736C110.976 40.9819 110.811 40.2381 110.48 39.7423C110.149 39.2464 109.62 38.9985 108.91 38.9985C107.951 38.9985 107.257 39.3456 106.811 40.0563C106.381 40.767 106.149 41.924 106.149 43.5438V50.023H102.381V36.2382H105.273L105.769 38.0068H105.984C106.364 37.3622 106.926 36.8498 107.587 36.5192C108.331 36.1556 109.158 35.9738 109.984 35.9903C112.05 35.9903 113.439 36.668 114.166 38.0068H114.496C114.877 37.3622 115.455 36.8332 116.133 36.5192C116.893 36.1556 117.719 35.9738 118.562 35.9903C120.116 35.9903 121.306 36.387 122.1 37.1969C122.893 38.0068 123.306 39.2795 123.306 41.048V50.023H119.538V41.9736C119.538 40.9819 119.372 40.2381 119.042 39.7423C118.711 39.2464 118.182 38.9985 117.472 38.9985C116.546 38.9985 115.868 39.3291 115.405 39.9902C114.943 40.6513 114.728 41.6926 114.728 43.1141V50.023ZM98.3645 49.1635C99.3397 48.4198 99.8356 47.3454 99.8356 45.9405C99.8521 45.3289 99.7364 44.7339 99.4885 44.1719C99.224 43.6595 98.8439 43.2133 98.3811 42.8662C97.8852 42.486 97.0918 42.0893 96.0175 41.6431C94.8109 41.1637 94.0175 40.8001 93.6704 40.5522C93.3068 40.3042 93.1415 40.0067 93.1415 39.6762C93.1415 39.0811 93.7035 38.7836 94.8109 38.7836C95.439 38.7836 96.0505 38.8828 96.6456 39.0646C97.2406 39.2464 97.8852 39.4943 98.5794 39.7919L99.7199 37.0812C98.1993 36.3704 96.5464 36.0068 94.877 35.9903C93.1415 35.9903 91.7862 36.3209 90.8441 36.9985C89.9019 37.6762 89.4226 38.6183 89.4226 39.8414C89.4061 40.4695 89.5218 41.0811 89.7697 41.6431C90.0176 42.1554 90.3978 42.6017 90.8606 42.9488C91.3564 43.329 92.1333 43.7422 93.1911 44.1884C93.9349 44.5025 94.5134 44.7835 94.9597 45.0149C95.3068 45.1802 95.6208 45.395 95.9018 45.643C96.0836 45.8413 96.1828 46.0892 96.1663 46.3702C96.1663 47.1636 95.4886 47.5603 94.1167 47.5603C93.3399 47.5437 92.563 47.428 91.8027 47.2297C90.9928 47.0314 90.1994 46.7504 89.4391 46.4033V49.5106C90.0837 49.7751 90.7449 49.9734 91.4226 50.1057C92.2655 50.2544 93.125 50.3205 93.9845 50.304C95.9183 50.271 97.3894 49.8908 98.3645 49.1635ZM80.8443 36.106C80.4311 36.0233 80.0013 35.9903 79.5716 35.9903C78.7286 35.9903 77.9187 36.2382 77.2245 36.701C76.4973 37.1638 75.9022 37.8084 75.489 38.5687H75.3072L74.7452 36.2547H71.9023V50.023H75.6543V43.0149C75.6543 41.9075 75.9849 41.048 76.6626 40.4199C77.3402 39.8084 78.2658 39.4943 79.4724 39.4943C79.8526 39.4943 80.2162 39.5274 80.5798 39.61L80.8443 36.106ZM60.8282 40.4861H62.0844C63.2579 40.4861 64.1339 40.2547 64.729 39.7919C65.3075 39.3291 65.605 38.6514 65.605 37.7588C65.605 36.8663 65.357 36.2052 64.8777 35.7754C64.3984 35.3457 63.6215 35.1308 62.5802 35.1308H60.8447V40.4861H60.8282ZM69.4561 37.6266C69.4561 39.5605 68.8446 41.048 67.638 42.0728C66.4314 43.0976 64.6959 43.61 62.4645 43.61H60.8282V50.023H57.0101V32.0069H62.7621C64.9438 32.0069 66.6132 32.4697 67.7537 33.4118C68.8941 34.354 69.4561 35.7589 69.4561 37.6266Z" fill="white"/>
</svg>
