<svg width="156" height="80" viewBox="0 0 156 80" fill="none" xmlns="http://www.w3.org/2000/svg">
<path d="M65.5069 44.6369C65.4865 45.09 64.8875 45.5974 63.6555 46.2405C61.1185 47.5608 47.9822 52.9724 45.1873 54.4216C44.1878 55.1327 42.9405 55.5586 41.5965 55.5586C40.5087 55.5586 39.4871 55.2803 38.5962 54.7916L38.6285 54.8085C36.4156 53.753 22.441 48.1055 19.9227 46.9023C18.6652 46.3084 18.0238 45.7942 18.0017 45.3191V50.1215C18.0017 50.6 18.6635 51.1108 19.9227 51.7048C22.441 52.9079 36.4207 58.5555 38.6285 59.611C39.4837 60.0811 40.5036 60.3577 41.588 60.3577C42.9371 60.3577 44.1861 59.93 45.2059 59.202L45.1873 59.2156C47.9822 57.7579 61.1185 52.3581 63.6555 51.0345C64.9452 50.3625 65.5154 49.8466 65.5154 49.368C65.5154 48.8895 65.5154 44.6318 65.5154 44.6318L65.5069 44.6369Z" fill="white"/>
<path d="M65.5035 36.807C65.4814 37.2601 64.8841 37.7658 63.6538 38.409C61.1168 39.7292 47.9805 45.1409 45.1856 46.5901C44.1844 47.3045 42.9354 47.7305 41.5863 47.7305C40.5019 47.7305 39.482 47.4538 38.5945 46.9685L38.6268 46.9855C36.4139 45.9215 22.4393 40.2739 19.921 39.0708C18.6635 38.4768 18.0221 37.9627 18 37.4875V42.2899C18 42.7685 18.6618 43.2793 19.921 43.8732C22.4393 45.0764 36.4173 50.7239 38.6268 51.7794C39.4854 52.2512 40.507 52.5295 41.5948 52.5295C42.9405 52.5295 44.1861 52.1036 45.2059 51.3807L45.1873 51.3942C47.9822 49.9365 61.1185 44.5334 63.6555 43.2131C64.9452 42.5394 65.5154 42.0252 65.5154 41.5433C65.5154 41.0613 65.5154 36.807 65.5154 36.807H65.5035Z" fill="white"/>
<path d="M65.5035 28.6853C65.5272 28.2016 64.896 27.7791 63.6249 27.3107C61.1626 26.4062 48.0942 21.2084 45.5962 20.292C44.7002 19.8814 43.6549 19.6421 42.5519 19.6421C41.3063 19.6421 40.132 19.9475 39.0985 20.4872L39.1392 20.4668C36.2018 21.5223 22.2984 26.9747 19.8259 27.942C18.5889 28.429 17.983 28.8787 18.0051 29.3573V34.1597C18.0051 34.6383 18.6669 35.1491 19.9261 35.743C22.4444 36.9462 36.4224 42.5954 38.6318 43.6509C39.4871 44.121 40.507 44.3959 41.5914 44.3959C42.9405 44.3959 44.1895 43.9683 45.211 43.242L45.1924 43.2555C47.9873 41.7978 61.1236 36.3946 63.6606 35.0744C64.9503 34.4007 65.5205 33.8865 65.5205 33.4046C65.5205 32.9226 65.5205 28.6683 65.5205 28.6683H65.5052L65.5035 28.6853ZM35.0139 33.24L46.0239 31.5498L42.6978 36.4269L35.0139 33.24ZM59.3672 28.8482L52.15 31.6991L45.6421 29.1146L52.8474 26.2654L59.3604 28.8397L59.3672 28.8482ZM40.2508 24.1221L39.1851 22.1587L42.5077 23.4569L45.6404 22.4319L44.7936 24.4615L47.9856 25.6494L43.8687 26.077L42.9473 28.3018L41.4556 25.8293L36.7041 25.4016L40.2525 24.1221H40.2508ZM32.0595 26.8916C35.3109 26.8916 37.9429 27.9132 37.9429 29.1723C37.9429 30.4315 35.2973 31.4531 32.0595 31.4531C28.8216 31.4531 26.1642 30.4298 26.1642 29.1723C26.1642 27.9149 28.7996 26.8916 32.0595 26.8916Z" fill="white"/>
<path d="M80.8308 33.0737C81.3942 32.459 82.0866 31.9766 82.8585 31.6611C83.6105 31.3387 84.4166 31.1609 85.2345 31.1371C85.5271 31.1105 85.822 31.1432 86.1016 31.2332C86.3813 31.3233 86.6399 31.4688 86.8619 31.6611C87.0266 31.8204 87.1557 32.0125 87.241 32.2251C87.3262 32.4377 87.3657 32.6659 87.3567 32.8947C87.3599 33.3549 87.1823 33.7979 86.8619 34.1283C86.7073 34.3011 86.5168 34.4381 86.3037 34.5297C86.0907 34.6213 85.8602 34.6654 85.6284 34.6588C83.5974 34.8378 80.7787 36.8623 80.7787 39.6127V45.8554C80.7655 46.3188 80.5753 46.7596 80.2472 47.0871C79.9191 47.4146 79.478 47.604 79.0146 47.6163C78.7774 47.6247 78.5414 47.5802 78.3236 47.4862C78.1058 47.3922 77.9115 47.251 77.7549 47.0727C77.59 46.9121 77.4585 46.7204 77.368 46.5086C77.2775 46.2969 77.2298 46.0694 77.2277 45.8391V32.8198C77.2296 32.5896 77.2772 32.362 77.3677 32.1502C77.4582 31.9385 77.5899 31.7468 77.7549 31.5863C78.1413 31.3075 78.6034 31.1531 79.0797 31.1436C79.5432 31.1527 79.9854 31.3408 80.3135 31.6683C80.6417 31.9959 80.8305 32.4376 80.8405 32.9012L80.8308 33.0737Z" fill="white"/>
<path d="M102.218 38.8022C102.22 39.2276 102.064 39.6384 101.779 39.9544C101.441 40.2678 101.005 40.4541 100.545 40.4817H90.1298C90.2282 41.3089 90.6308 42.07 91.2592 42.6169C92.0644 43.4827 93.1659 44.0137 94.3448 44.1043C94.9418 44.2058 95.5529 44.1878 96.1429 44.0515C96.7328 43.9152 97.2899 43.6632 97.7819 43.3102C97.9547 43.1359 98.1615 42.999 98.3893 42.9077C98.6171 42.8165 98.8613 42.7729 99.1066 42.7796C99.3174 42.7697 99.5279 42.8039 99.7246 42.8802C99.9214 42.9564 100.1 43.0729 100.249 43.2223C100.388 43.3499 100.501 43.5038 100.58 43.675C100.66 43.8463 100.705 44.0315 100.713 44.2202C100.721 44.4089 100.691 44.5973 100.626 44.7745C100.561 44.9518 100.462 45.1145 100.334 45.2533C100.308 45.2826 100.278 45.3086 100.249 45.3379C99.4805 46.0494 98.5793 46.6024 97.5969 46.9654C96.6146 47.3284 95.5703 47.4943 94.5238 47.4535C93.4494 47.4769 92.3825 47.2686 91.3957 46.8429C90.4089 46.4172 89.5253 45.784 88.8051 44.9864C87.3123 43.4098 86.4646 41.3311 86.4291 39.1602C86.4065 38.0793 86.6057 37.0053 87.0144 36.0044C87.423 35.0034 88.0325 34.0969 88.8051 33.3406C89.5093 32.5734 90.3685 31.9645 91.3258 31.5544C92.2831 31.1442 93.3165 30.9421 94.3578 30.9613C95.3704 30.9227 96.3797 31.0994 97.319 31.4798C98.2582 31.8602 99.1061 32.4357 99.8064 33.1681C101.3 34.5994 102.187 36.55 102.283 38.6167V38.7892L102.218 38.8022ZM94.3741 34.1315C93.2787 34.1502 92.2255 34.5574 91.4024 35.2805C90.7013 35.8699 90.2074 36.6683 89.9931 37.5589H99.2466C98.9872 36.664 98.4259 35.8865 97.6582 35.3586C96.7316 34.6116 95.5921 34.1775 94.4034 34.1185" fill="white"/>
<path d="M118.802 45.6764C118.789 46.1398 118.6 46.581 118.272 46.9091C117.945 47.2372 117.504 47.4274 117.041 47.4405C116.634 47.4243 116.244 47.2784 115.926 47.0243C115.609 46.7701 115.381 46.4209 115.277 46.0279C113.965 46.9669 112.388 47.4618 110.775 47.4405C109.722 47.4524 108.678 47.2472 107.707 46.8379C106.737 46.4286 105.861 45.8238 105.135 45.0612C104.374 44.3 103.778 43.3907 103.383 42.3896C102.988 41.3886 102.803 40.3171 102.84 39.2416C102.826 37.0794 103.648 34.9955 105.135 33.4252C105.856 32.6493 106.729 32.0293 107.699 31.6033C108.669 31.1773 109.716 30.9544 110.775 30.9483C112.358 30.9274 113.904 31.4233 115.179 32.3609V26.1995C115.173 25.9678 115.217 25.7374 115.309 25.5244C115.4 25.3115 115.537 25.1209 115.709 24.966C115.872 24.7986 116.066 24.6655 116.281 24.5744C116.495 24.4832 116.726 24.436 116.959 24.4354C117.191 24.4293 117.421 24.4735 117.634 24.5651C117.847 24.6567 118.038 24.7935 118.193 24.966C118.358 25.1263 118.491 25.3179 118.582 25.5297C118.673 25.7414 118.721 25.9691 118.723 26.1995V45.6764H118.802ZM110.876 43.9123C111.462 43.9244 112.044 43.8043 112.578 43.5608C113.111 43.3174 113.583 42.957 113.958 42.5062C114.802 41.6325 115.273 40.4656 115.273 39.2514C115.273 38.0371 114.802 36.8703 113.958 35.9966C113.571 35.5589 113.097 35.2063 112.567 34.9609C112.036 34.7156 111.46 34.5828 110.876 34.5709C110.287 34.5506 109.702 34.6676 109.166 34.9128C108.631 35.158 108.16 35.5246 107.79 35.9835C106.947 36.8572 106.476 38.0241 106.476 39.2384C106.476 40.4526 106.947 41.6195 107.79 42.4932C108.173 42.9358 108.647 43.2906 109.18 43.5333C109.712 43.776 110.291 43.9008 110.876 43.8993" fill="white"/>
<path d="M124.012 26.2486V26.9582C124.02 27.2072 123.976 27.4551 123.882 27.686C123.789 27.9169 123.648 28.1258 123.469 28.2992C123.309 28.4603 123.116 28.5835 122.902 28.6595C122.689 28.7356 122.461 28.7626 122.235 28.7386C122.004 28.7464 121.775 28.7035 121.562 28.613C121.349 28.5224 121.159 28.3864 121.005 28.2145C120.83 28.043 120.692 27.837 120.601 27.6095C120.51 27.382 120.467 27.1381 120.474 26.8931V26.2421C120.476 26.0114 120.523 25.7833 120.614 25.5714C120.705 25.3594 120.838 25.168 121.005 25.0085C121.165 24.843 121.356 24.7108 121.567 24.6197C121.778 24.5286 122.005 24.4805 122.235 24.478C122.467 24.4744 122.697 24.5205 122.91 24.6131C123.123 24.7057 123.313 24.8428 123.469 25.015C123.643 25.1688 123.782 25.3589 123.876 25.572C123.969 25.7851 124.015 26.016 124.009 26.2486M121.038 31.6289C121.197 31.4621 121.388 31.3293 121.6 31.2381C121.812 31.147 122.04 31.0994 122.271 31.0983C122.503 31.0906 122.734 31.1342 122.947 31.2259C123.16 31.3176 123.351 31.4552 123.505 31.6289C123.672 31.8008 123.803 32.0047 123.89 32.2284C123.976 32.4521 124.017 32.691 124.009 32.9308V45.8231C124.023 46.0568 123.981 46.2905 123.887 46.5049C123.793 46.7193 123.65 46.9084 123.469 47.0567C123.309 47.2223 123.118 47.3545 122.907 47.4456C122.696 47.5366 122.469 47.5848 122.239 47.5873C122.007 47.5938 121.776 47.5498 121.563 47.4582C121.35 47.3665 121.16 47.2295 121.005 47.0567C120.838 46.8972 120.705 46.7058 120.614 46.4939C120.523 46.282 120.476 46.0538 120.474 45.8231V32.9438C120.468 32.7019 120.512 32.4614 120.604 32.2374C120.695 32.0133 120.832 31.8106 121.005 31.6419" fill="white"/>
<path d="M136.514 32.8133C136.875 33.0621 137.128 33.4393 137.221 33.8679C137.292 34.3161 137.231 34.7753 137.045 35.1894C136.792 35.5474 136.415 35.7981 135.987 35.8924C135.528 35.9771 135.054 35.8827 134.662 35.6288C133.429 34.8378 132.465 34.3984 131.668 34.3984C130.964 34.3531 130.267 34.5712 129.715 35.0103C129.363 35.2772 129.188 35.453 129.188 35.6288C129.163 35.7821 129.194 35.9391 129.276 36.0714C129.376 36.1799 129.495 36.2692 129.627 36.3351C130.346 36.7868 131.163 37.0581 132.01 37.126C133.106 37.3067 134.172 37.6351 135.18 38.1024C136.068 38.4737 136.811 39.1252 137.295 39.9577C137.61 40.4428 137.825 40.9853 137.929 41.554C138.033 42.1227 138.023 42.7063 137.9 43.2712C137.777 43.8361 137.544 44.371 137.213 44.8453C136.883 45.3195 136.461 45.7237 135.974 46.0344C134.741 46.9157 133.258 47.3788 131.743 47.3559C129.715 47.3559 127.778 46.565 125.926 45.0775C125.59 44.7808 125.37 44.3732 125.308 43.9286C125.277 43.5988 125.344 43.2674 125.5 42.9753C125.656 42.6832 125.895 42.4433 126.186 42.2853C126.477 42.1274 126.808 42.0582 127.138 42.0865C127.468 42.1147 127.782 42.2392 128.042 42.4444C129.015 43.3697 130.312 43.8758 131.655 43.8537C132.436 43.8803 133.205 43.6642 133.858 43.2353C134.21 42.8838 134.477 42.6201 134.477 42.3532C134.477 42.0863 134.477 42.0017 134.389 41.9138C134.389 41.8227 134.21 41.6502 133.946 41.5623C133.142 41.0648 132.239 40.7473 131.3 40.6314C130.253 40.4805 129.24 40.1502 128.306 39.655C127.45 39.2375 126.72 38.6007 126.19 37.8095C125.843 37.1903 125.662 36.4916 125.666 35.7817C125.665 35.0659 125.841 34.3608 126.179 33.7297C126.517 33.0987 127.006 32.5612 127.603 32.1656C128.796 31.3518 130.21 30.9215 131.655 30.932C133.139 31.0232 134.74 31.6351 136.501 32.784" fill="white"/>
</svg>
