<svg width="156" height="80" viewBox="0 0 156 80" fill="none" xmlns="http://www.w3.org/2000/svg">
<path d="M24.16 41.2226H20.7405V48.8485H16.4482V28.0167H24.1886C26.6496 28.0167 28.5477 28.5652 29.883 29.6622C31.2184 30.7586 31.8861 32.3091 31.8861 34.3118C31.8861 35.7329 31.5761 36.9208 30.9561 37.8744C30.3456 38.819 29.4157 39.5724 28.1662 40.1351L32.673 48.6483V48.8485H28.066L24.16 41.2226ZM20.7405 37.7457H24.2029C25.2808 37.7457 26.1154 37.4741 26.7068 36.9303C27.2981 36.3771 27.5938 35.619 27.5938 34.6554C27.5938 33.673 27.3125 32.9001 26.7497 32.3374C26.1965 31.7748 25.3428 31.4931 24.1886 31.4931H20.7405V37.7457Z" fill="white"/>
<path d="M47.6957 39.8204H39.4545V45.4004H49.1265V48.8485H35.1623V28.0167H49.0978V31.4931H39.4545V36.458H47.6957V39.8204Z" fill="white"/>
<path d="M62.447 43.383C62.447 42.5724 62.1609 41.9525 61.5886 41.5232C61.0163 41.0846 59.9861 40.6264 58.4982 40.1493C57.0101 39.6628 55.8322 39.1864 54.9642 38.7187C52.5987 37.4405 51.4159 35.7188 51.4159 33.5538C51.4159 32.4284 51.7307 31.4265 52.3602 30.5491C52.9993 29.6623 53.9102 28.9703 55.0929 28.4744C56.2852 27.9784 57.6206 27.7305 59.099 27.7305C60.5871 27.7305 61.9129 28.0027 63.0766 28.5458C64.2402 29.0802 65.1418 29.8389 65.7806 30.8213C66.4295 31.8032 66.7536 32.9197 66.7536 34.169H62.4614C62.4614 33.2149 62.1609 32.4757 61.56 31.9514C60.959 31.417 60.1149 31.1502 59.0275 31.1502C57.9783 31.1502 57.1628 31.3745 56.5809 31.8227C55.9991 32.2613 55.7082 32.8429 55.7082 33.5679C55.7082 34.2451 56.0468 34.8125 56.724 35.2707C57.4108 35.7283 58.4171 36.1575 59.7429 36.5584C62.1847 37.2929 63.9639 38.2039 65.0798 39.2909C66.1957 40.3784 66.7536 41.7328 66.7536 43.3547C66.7536 45.1573 66.0717 46.5737 64.7078 47.6039C63.3436 48.6242 61.5075 49.1349 59.1992 49.1349C57.5968 49.1349 56.1374 48.8438 54.8211 48.2617C53.5048 47.6707 52.4985 46.8647 51.8022 45.8439C51.1155 44.8231 50.7721 43.6405 50.7721 42.2955H55.0787C55.0787 44.5946 56.4521 45.7435 59.1992 45.7435C60.2198 45.7435 61.0163 45.5387 61.5886 45.1283C62.1609 44.7091 62.447 44.127 62.447 43.383Z" fill="white"/>
<path d="M85.3535 31.4931H78.9723V48.8485H74.6799V31.4931H68.3843V28.0167H85.3535V31.4931Z" fill="white"/>
<path d="M87.743 46.8167C87.743 46.1584 87.962 45.6247 88.4007 45.2143C88.8494 44.804 89.4074 44.5991 90.0752 44.5991C90.7524 44.5991 91.3103 44.804 91.749 45.2143C92.1971 45.6247 92.4215 46.1584 92.4215 46.8167C92.4215 47.465 92.2018 47.9946 91.7632 48.4049C91.3245 48.8052 90.7618 49.006 90.0752 49.006C89.3979 49.006 88.84 48.8052 88.4007 48.4049C87.962 47.9946 87.743 47.465 87.743 46.8167ZM87.743 35.0987C87.743 34.4404 87.962 33.9066 88.4007 33.4963C88.8494 33.0859 89.4074 32.8811 90.0752 32.8811C90.7524 32.8811 91.3103 33.0859 91.749 33.4963C92.1971 33.9066 92.4215 34.4404 92.4215 35.0987C92.4215 35.7475 92.2018 36.2766 91.7632 36.6869C91.3245 37.0878 90.7618 37.2879 90.0752 37.2879C89.3979 37.2879 88.84 37.0878 88.4007 36.6869C87.962 36.2766 87.743 35.7475 87.743 35.0987Z" fill="white"/>
<path d="M107.845 44.5561H100.319L98.8886 48.8485H94.3247L102.079 28.0167H106.057L113.855 48.8485H109.29L107.845 44.5561ZM101.478 41.0798H106.686L104.068 33.2821L101.478 41.0798Z" fill="white"/>
<path d="M120.092 41.5084V48.8485H115.8V28.0167H123.927C125.491 28.0167 126.865 28.3031 128.048 28.8752C129.24 29.4473 130.155 30.2627 130.795 31.3219C131.434 32.3711 131.753 33.5679 131.753 34.9128C131.753 36.9539 131.052 38.5663 129.65 39.7489C128.257 40.9221 126.326 41.5084 123.856 41.5084H120.092ZM120.092 38.032H123.927C125.062 38.032 125.925 37.7651 126.517 37.2308C127.118 36.6965 127.418 35.9337 127.418 34.9418C127.418 33.9209 127.118 33.0961 126.517 32.4661C125.916 31.8367 125.086 31.5126 124.027 31.4931H120.092V38.032Z" fill="white"/>
<path d="M139.279 48.8485H134.986V28.0167H139.279V48.8485Z" fill="white"/>
<path d="M13.301 54C9.86717 53.0364 8.15026 50.8188 8.15026 47.3472V44.4996C8.15026 42.4868 7.30135 41.4808 5.60352 41.4808V38.5192C7.26319 38.5192 8.11211 37.5698 8.15026 35.6716V32.6387C8.15026 30.8739 8.57949 29.448 9.43795 28.3605C10.2964 27.2735 11.5841 26.4865 13.301 26L14.1022 28.3038C13.3773 28.5707 12.8288 29.0377 12.4569 29.7055C12.0848 30.3638 11.8893 31.2795 11.8702 32.4527V35.4573C11.8702 37.6129 11.0165 39.125 9.30918 39.9929C11.0165 40.8703 11.8702 42.3918 11.8702 44.5568V47.5898C11.9179 49.8222 12.6619 51.1861 14.1022 51.682L13.301 54Z" fill="#D3D4DC"/>
<path d="M141.898 51.682C143.347 51.1672 144.091 49.7838 144.13 47.5331V44.4996C144.13 42.344 145.002 40.8467 146.748 40.0071C145.002 39.1675 144.13 37.6466 144.13 35.4432V32.4527C144.091 30.2303 143.347 28.847 141.898 28.3038L142.699 26C144.406 26.4771 145.689 27.2588 146.547 28.3463C147.406 29.4244 147.84 30.8408 147.849 32.5956V35.6716C147.888 37.5698 148.737 38.5192 150.396 38.5192V41.4808C148.698 41.4808 147.849 42.4774 147.849 44.4712V47.5757C147.773 50.9145 146.056 53.0553 142.699 54L141.898 51.682Z" fill="#D3D4DC"/>
</svg>
