<svg width="156" height="80" viewBox="0 0 156 80" fill="none" xmlns="http://www.w3.org/2000/svg">
<path d="M65.2113 35.9001H61.5293V33.7021H71.3893V35.9001H67.7073V46.9002H65.2123L65.2113 35.9001ZM73.6613 45.1041C74.6613 45.0991 75.6553 44.9461 76.6113 44.6491L76.9913 46.4692C75.8563 46.8851 74.6571 47.099 73.4483 47.1012C70.4163 47.1012 69.3683 45.7011 69.3683 43.3811V40.8551C69.3683 38.8151 70.2683 37.0551 73.3663 37.0551C76.4643 37.0551 77.1663 38.8551 77.1663 40.9331V42.9931H71.7963V43.4861C71.7963 44.6421 72.1963 45.0861 73.6723 45.0861L73.6613 45.1041ZM71.7663 41.0441H74.8363V40.5701C74.8363 39.6701 74.5583 39.0301 73.3713 39.0301C72.1843 39.0301 71.7673 39.6621 71.7673 40.5701L71.7663 41.0441Z" fill="white"/>
<path d="M83.6043 39.258C82.7273 39.662 81.8823 40.133 81.0783 40.668V46.883H78.6343V37.238H80.6743L80.8323 38.305C81.6154 37.7752 82.4646 37.3506 83.3583 37.042L83.6043 39.258Z" fill="white"/>
<path d="M89.5037 39.258C88.6267 39.662 87.7817 40.133 86.9777 40.668V46.883H84.5337V37.238H86.5737L86.7317 38.305C87.5148 37.7752 88.364 37.3506 89.2577 37.042L89.5037 39.258Z" fill="white"/>
<path d="M97.5763 46.8748H95.5993L95.4223 46.2428C94.5683 46.7972 93.5725 47.0934 92.5543 47.0958C90.7923 47.0958 90.0283 45.8898 90.0283 44.2278C90.0283 42.2698 90.8813 41.5278 92.8283 41.5278H95.1463V40.5278C95.1463 39.4608 94.8493 39.0818 93.3083 39.0818C92.41 39.0915 91.5149 39.191 90.6363 39.3788L90.3393 37.5408C91.4153 37.2433 92.526 37.0903 93.6423 37.0858C96.6743 37.0858 97.5643 38.1528 97.5643 40.5728L97.5763 46.8748ZM95.1633 43.2308H93.3833C92.5833 43.2308 92.3833 43.4458 92.3833 44.1778C92.3833 44.9098 92.5983 45.1508 93.3563 45.1508C93.9945 45.1423 94.6202 44.9727 95.1753 44.6578L95.1633 43.2308ZM105.003 35.0308C104.549 34.9333 104.085 34.8804 103.62 34.8728C102.673 34.8728 102.534 35.2898 102.534 36.0228V37.2288H104.984L104.844 39.1238H102.526V46.8418H100.113V39.1598H98.5663V37.2648H100.106V35.8948C100.106 33.8928 101.034 32.9068 103.176 32.9068C103.878 32.9037 104.578 32.9972 105.254 33.1848L105.003 35.0308ZM109.715 47.0668C106.412 47.0668 105.521 45.2468 105.521 43.2668V40.8498C105.521 38.8728 106.421 37.0498 109.715 37.0498C113.009 37.0498 113.915 38.8698 113.915 40.8498V43.2878C113.909 45.2518 113.018 47.0878 109.715 47.0878V47.0668ZM109.715 39.0898C108.452 39.0898 107.935 39.6648 107.935 40.7498V43.3458C107.935 44.4318 108.428 45.0058 109.715 45.0058C111.002 45.0058 111.495 44.4308 111.495 43.3458V40.7598C111.495 39.6668 110.995 39.0928 109.715 39.0928V39.0898ZM120.115 39.2478C119.238 39.6516 118.393 40.1231 117.589 40.6578V46.8728H115.149V37.2278H117.189L117.347 38.2948C118.13 37.7651 118.98 37.3404 119.873 37.0318L120.115 39.2478ZM126.755 46.8748V40.1478C126.755 39.6358 126.54 39.3778 125.985 39.3778C125.097 39.4778 124.237 39.7538 123.459 40.1928V46.8928H121.059V37.2478H122.897L123.137 38.0628C124.339 37.4606 125.654 37.1166 126.997 37.0528C127.369 37.0182 127.743 37.0984 128.068 37.2825C128.394 37.4667 128.655 37.7459 128.816 38.0828C130.02 37.4668 131.343 37.1158 132.694 37.0528C134.298 37.0528 134.874 38.1828 134.874 39.9028V46.8888H132.461V40.1618C132.461 39.6498 132.246 39.3918 131.691 39.3918C130.802 39.4837 129.941 39.7613 129.165 40.2068V46.9068L126.755 46.8748Z" fill="white"/>
<path fill-rule="evenodd" clip-rule="evenodd" d="M45.6612 47.9342V47.8462L34.0312 41.1298V54.5571L45.6612 61.2735V47.9342ZM45.6612 32.9405V46.3732L34.0312 39.6569V26.2241L45.6612 32.9405Z" fill="white"/>
<path fill-rule="evenodd" clip-rule="evenodd" d="M46.936 46.3732L58.5715 39.6569V26.2241L46.936 32.9405V46.3732Z" fill="#B7BAC7"/>
<path fill-rule="evenodd" clip-rule="evenodd" d="M21.126 32.1598L32.756 38.8762V25.4434L21.126 18.7271V32.1598Z" fill="white"/>
</svg>
