<svg width="156" height="80" viewBox="0 0 156 80" fill="none" xmlns="http://www.w3.org/2000/svg">
<path d="M64.5084 35.6748H60.624V33.356H71.0259V35.6748H67.1416V47.2793H64.5094L64.5084 35.6748ZM73.4228 45.3846C74.4778 45.3793 75.5264 45.2179 76.5349 44.9046L76.9358 46.8246C75.7384 47.2635 74.4734 47.4891 73.1981 47.4914C69.9995 47.4914 68.8939 46.0144 68.8939 43.5669V40.9021C68.8939 38.75 69.8433 36.8932 73.1116 36.8932C76.3799 36.8932 77.1204 38.7922 77.1204 40.9844V43.1576H71.4553V43.6777C71.4553 44.8972 71.8773 45.3656 73.4344 45.3656L73.4228 45.3846ZM71.4237 41.1015H74.6624V40.6014C74.6624 39.652 74.3691 38.9768 73.1169 38.9768C71.8646 38.9768 71.4247 39.6435 71.4247 40.6014L71.4237 41.1015Z" fill="white"/>
<path d="M83.9121 39.2172C82.9869 39.6434 82.0955 40.1403 81.2473 40.7047V47.2613H78.6689V37.0862H80.8211L80.9878 38.2118C81.8139 37.6529 82.7098 37.205 83.6526 36.8794L83.9121 39.2172Z" fill="white"/>
<path d="M90.1357 39.2172C89.2105 39.6434 88.3191 40.1403 87.4709 40.7047V47.2613H84.8926V37.0862H87.0447L87.2114 38.2118C88.0375 37.6529 88.9334 37.205 89.8762 36.8794L90.1357 39.2172Z" fill="white"/>
<path d="M98.6523 47.2524H96.5666L96.3799 46.5856C95.479 47.1705 94.4284 47.483 93.3543 47.4855C91.4954 47.4855 90.6895 46.2132 90.6895 44.4599C90.6895 42.3943 91.5893 41.6115 93.6433 41.6115H96.0887V40.5565C96.0887 39.4309 95.7754 39.0311 94.1497 39.0311C93.202 39.0412 92.2577 39.1462 91.3309 39.3444L91.0175 37.4054C92.1526 37.0915 93.3244 36.9301 94.5021 36.9254C97.7007 36.9254 98.6396 38.051 98.6396 40.604L98.6523 47.2524ZM96.1067 43.4081H94.2288C93.3849 43.4081 93.1739 43.6349 93.1739 44.4071C93.1739 45.1794 93.4007 45.4336 94.2004 45.4336C94.8736 45.4246 95.5337 45.2457 96.1193 44.9135L96.1067 43.4081ZM106.487 34.7574C106.008 34.6545 105.519 34.5987 105.028 34.5907C104.029 34.5907 103.883 35.0307 103.883 35.8039V37.0762H106.467L106.32 39.0754H103.874V47.2176H101.329V39.1133H99.6967V37.1142H101.321V35.6689C101.321 33.5569 102.3 32.5167 104.56 32.5167C105.301 32.5134 106.038 32.6121 106.752 32.81L106.487 34.7574ZM111.458 47.4549C107.974 47.4549 107.034 45.5349 107.034 43.4461V40.8962C107.034 38.8106 107.983 36.8874 111.458 36.8874C114.934 36.8874 115.889 38.8074 115.889 40.8962V43.4682C115.883 45.5402 114.943 47.4771 111.458 47.4771V47.4549ZM111.458 39.0395C110.126 39.0395 109.581 39.6461 109.581 40.7907V43.5294C109.581 44.6751 110.101 45.2806 111.458 45.2806C112.816 45.2806 113.336 44.674 113.336 43.5294V40.8013C113.336 39.6482 112.809 39.0427 111.458 39.0427V39.0395ZM122.43 39.2062C121.505 39.6322 120.614 40.1295 119.765 40.6937V47.2503H117.191V37.0752H119.343L119.51 38.2008C120.336 37.6419 121.232 37.194 122.175 36.8684L122.43 39.2062ZM129.435 47.2524V40.1557C129.435 39.6155 129.208 39.3433 128.623 39.3433C127.686 39.4488 126.779 39.74 125.958 40.2031V47.2714H123.426V37.0963H125.365L125.618 37.9561C126.886 37.3208 128.273 36.9579 129.69 36.8905C130.083 36.8541 130.477 36.9386 130.82 37.1329C131.163 37.3271 131.439 37.6218 131.609 37.9772C132.879 37.3273 134.275 36.957 135.7 36.8905C137.393 36.8905 138 38.0827 138 39.8972V47.2671H135.455V40.1704C135.455 39.6303 135.228 39.3581 134.642 39.3581C133.704 39.455 132.796 39.7479 131.977 40.2179V47.2861L129.435 47.2524Z" fill="white"/>
<path fill-rule="evenodd" clip-rule="evenodd" d="M43.8839 48.37V48.2772L31.6147 41.1917V55.357L43.8839 62.4425V48.37ZM43.8839 32.5523V46.7233L31.6147 39.6378V25.4668L43.8839 32.5523Z" fill="white"/>
<path fill-rule="evenodd" clip-rule="evenodd" d="M45.2285 46.7233L57.5035 39.6378V25.4668L45.2285 32.5523V46.7233Z" fill="#B7BAC7"/>
<path fill-rule="evenodd" clip-rule="evenodd" d="M18 31.7286L30.2692 38.8141V24.6431L18 17.5576V31.7286Z" fill="white"/>
</svg>
