<svg width="896" height="600" viewBox="0 0 896 600" fill="none" xmlns="http://www.w3.org/2000/svg">
<circle opacity="0.2" cx="275" cy="275" r="274.5" transform="matrix(0.866044 0.499967 -0.866044 0.499967 448 25.0181)" stroke="#22273C"/>
<circle opacity="0.5" cx="247.917" cy="247.917" r="247.417" transform="matrix(0.866044 0.499967 -0.866044 0.499967 448 52.0181)" stroke="#22273C"/>
<circle opacity="0.8" cx="220.486" cy="220.486" r="219.986" transform="matrix(0.866044 0.499967 -0.866044 0.499967 448 80.0181)" stroke="#22273C"/>
<circle cx="194.444" cy="194.444" r="194.444" transform="matrix(0.866044 0.499967 -0.866044 0.499967 448 106.018)" fill="#22273C"/>
<path d="M584.994 345.06L529.754 317.44V262.19L584.994 289.821V345.06Z" fill="#44BACA"/>
<path d="M584.994 345.06L640.234 317.44V262.19L584.994 289.821V345.06Z" fill="#41C9DC"/>
<path d="M584.994 289.821L529.754 262.201L584.994 234.571L640.235 262.201L584.994 289.821Z" fill="#53DBEE"/>
<path d="M453.007 151.544L397.767 123.924V68.6738L453.007 96.3046V151.544Z" fill="#6D49D1"/>
<path d="M453.007 151.544L508.247 123.924V68.6738L453.007 96.3046V151.544Z" fill="#8C6AEF"/>
<path d="M453.007 96.3045L397.767 68.685L453.007 41.0542L508.247 68.685L453.007 96.3045Z" fill="#7950ED"/>
<path d="M519.001 183.422L463.76 155.802V100.552L519.001 128.183V183.422Z" fill="#44BACA"/>
<path d="M519 183.422L574.241 155.802V100.552L519 128.183V183.422Z" fill="#41C9DC"/>
<path d="M519.001 128.183L463.76 100.563L519.001 72.9324L574.241 100.563L519.001 128.183Z" fill="#53DBEE"/>
<path d="M584.994 280.191L529.754 252.56V197.321L584.994 224.941V280.191Z" fill="#6D49D1"/>
<path d="M584.994 280.191L640.234 252.56V197.321L584.994 224.941V280.191Z" fill="#8C6AEF"/>
<path d="M584.994 224.952L529.754 197.321L584.994 169.702L640.235 197.321L584.994 224.952Z" fill="#7950ED"/>
<path d="M583 216.8L528 189.125V133.8L583 161.462V216.8Z" fill="#6D49D1"/>
<path d="M583 216.8L638 189.125V133.8L583 160.842V216.8Z" fill="#8C6AEF"/>
<path d="M583 162.8L528 134.294L583 105.8L638 134.294L583 162.8Z" fill="#7950ED"/>
<path d="M388.126 183.995L332.885 156.364V101.114L388.126 128.745V183.995Z" fill="#6D49D1"/>
<path d="M388.125 183.995L443.366 156.364V101.114L388.125 128.745V183.995Z" fill="#8C6AEF"/>
<path d="M388.126 128.744L332.885 101.125L388.126 73.4941L443.366 101.125L388.126 128.744Z" fill="#7950ED"/>
<path d="M323.256 346.184L268.016 318.553V263.314L323.256 290.933V346.184Z" fill="#6D49D1"/>
<path d="M323.256 346.184L378.496 318.553V263.314L323.256 290.933V346.184Z" fill="#8C6AEF"/>
<path d="M323.256 290.945L268.016 263.314L323.256 235.694L378.496 263.314L323.256 290.945Z" fill="#7950ED"/>
<path d="M388.126 378.624L332.885 351.004V295.754L388.126 323.385V378.624Z" fill="#6D49D1"/>
<path d="M388.125 378.624L443.366 351.004V295.754L388.125 323.385V378.624Z" fill="#8C6AEF"/>
<path d="M388.126 323.385L332.885 295.765L388.126 268.134L443.366 295.765L388.126 323.385Z" fill="#7950ED"/>
<path d="M453.007 216.435L397.767 188.804V133.565L453.007 161.184V216.435Z" fill="#44BACA"/>
<path d="M453.007 216.435L508.247 188.804V133.565L453.007 161.184V216.435Z" fill="#41C9DC"/>
<path d="M453.007 161.196L397.767 133.565L453.007 105.945L508.247 133.565L453.007 161.196Z" fill="#53DBEE"/>
<path d="M519.001 378.062L463.76 350.442V295.192L519.001 322.823V378.062Z" fill="#44BACA"/>
<path d="M519 378.062L574.241 350.442V295.192L519 322.823V378.062Z" fill="#41C9DC"/>
<path d="M519.001 322.823L463.76 295.203L519.001 267.573L574.241 295.203L519.001 322.823Z" fill="#53DBEE"/>
<path d="M519.001 313.193L463.76 285.562V230.323L519.001 257.943V313.193Z" fill="#6D49D1"/>
<path d="M519 313.193L574.241 285.562V230.323L519 257.943V313.193Z" fill="#8C6AEF"/>
<path d="M519.001 257.954L463.76 230.323L519.001 202.704L574.241 230.323L519.001 257.954Z" fill="#7950ED"/>
<path d="M323.256 281.304L268.016 253.684V198.434L323.256 226.065V281.304Z" fill="#44BACA"/>
<path d="M323.256 281.304L378.496 253.684V198.434L323.256 226.065V281.304Z" fill="#41C9DC"/>
<path d="M323.256 226.065L268.016 198.445L323.256 170.814L378.496 198.445L323.256 226.065Z" fill="#53DBEE"/>
<path d="M388.126 313.755L332.885 286.124V230.885L388.126 258.505V313.755Z" fill="#6D49D1"/>
<path d="M388.125 313.755L443.366 286.124V230.885L388.125 258.505V313.755Z" fill="#8C6AEF"/>
<path d="M388.126 258.516L332.885 230.885L388.126 203.266L443.366 230.885L388.126 258.516Z" fill="#7950ED"/>
<path d="M517.877 248.875L462.637 221.255V166.005L517.877 193.636V248.875Z" fill="#44BACA"/>
<path d="M517.877 248.875L573.117 221.255V166.005L517.877 193.636V248.875Z" fill="#41C9DC"/>
<path d="M517.877 193.636L462.637 166.016L517.877 138.385L573.117 166.016L517.877 193.636Z" fill="#53DBEE"/>
<path d="M323.256 216.435L268.016 188.804V133.565L323.256 161.184V216.435Z" fill="#44BACA"/>
<path d="M323.256 216.435L378.496 188.804V133.565L323.256 161.184V216.435Z" fill="#41C9DC"/>
<path d="M323.256 161.196L268.016 133.565L323.256 105.945L378.496 133.565L323.256 161.196Z" fill="#53DBEE"/>
<path d="M388.126 248.875L332.885 221.255V166.005L388.126 193.636V248.875Z" fill="#6D49D1"/>
<path d="M388.125 248.875L443.366 221.255V166.005L388.125 193.636V248.875Z" fill="#8C6AEF"/>
<path d="M388.126 193.636L332.885 166.016L388.126 138.385L443.366 166.016L388.126 193.636Z" fill="#7950ED"/>
<path d="M453.007 411.075L397.767 383.444V328.205L453.007 355.825V411.075Z" fill="#6D49D1"/>
<path d="M453.007 411.075L508.247 383.444V328.205L453.007 355.825V411.075Z" fill="#8C6AEF"/>
<path d="M453.007 355.836L397.767 328.205L453.007 300.586L508.247 328.205L453.007 355.836Z" fill="#7950ED"/>
<path d="M453.007 346.195L397.767 318.575V263.325L453.007 290.956V346.195Z" fill="#44BACA"/>
<path d="M453.007 346.195L508.247 318.575V263.325L453.007 290.956V346.195Z" fill="#53DBEE"/>
<path d="M453.007 290.956L397.767 263.336L453.007 235.706L508.247 263.336L453.007 290.956Z" fill="#53DBEE"/>
<path d="M453.007 281.326L397.767 253.695V198.456L453.007 226.076V281.326Z" fill="#44BACA"/>
<path d="M453.007 281.326L508.247 253.695V198.456L453.007 226.076V281.326Z" fill="#41C9DC"/>
<path d="M453.007 226.087L397.767 198.456L453.007 170.825L508.247 198.456L453.007 226.087Z" fill="#53DBEE"/>
<path style="mix-blend-mode:multiply" opacity="0.5" d="M392.991 441.054L208 348.532L268.016 318.553L453.007 411.075L392.991 441.054Z" fill="url(#paint0_linear_987_1271)"/>
<path style="mix-blend-mode:multiply" d="M353.106 511.929L275 472.87L304.217 458.275L382.323 497.334L353.106 511.929Z" fill="url(#paint1_linear_987_1271)"/>
<g opacity="0.5" filter="url(#filter0_f_987_1271)">
<path d="M432.499 461.048L373.824 431.704C365.159 427.372 358.135 416.836 358.135 408.171V349.496C358.135 340.83 365.159 337.324 373.824 341.656L432.499 371C441.164 375.332 448.188 385.868 448.188 394.533V453.208C448.188 461.874 441.164 465.38 432.499 461.048Z" fill="#15192C"/>
</g>
<path d="M433.116 375.399L374.44 346.05C370.048 343.857 366.087 343.682 363.237 345.164C363.237 345.159 297.231 378.189 297.231 378.189C296.985 378.298 296.75 378.413 296.52 378.545C293.873 380.071 292.27 383.008 292.27 387.133V445.808C292.27 454.473 299.294 465.009 307.953 469.342L366.629 498.685C371.005 500.873 374.955 501.054 377.799 499.593C377.799 499.599 443.843 466.552 443.843 466.552C444.084 466.443 444.319 466.328 444.549 466.196C447.186 464.692 448.799 461.749 448.799 457.608V398.933C448.799 390.268 441.775 379.732 433.11 375.399H433.116Z" fill="url(#paint2_linear_987_1271)"/>
<path d="M366.634 498.685L307.959 469.342C299.294 465.009 292.27 454.473 292.27 445.808V387.133C292.27 378.468 299.294 374.961 307.959 379.294L366.634 408.637C375.299 412.969 382.323 423.505 382.323 432.17V490.846C382.323 499.511 375.299 503.017 366.634 498.685Z" fill="#373D57"/>
<path d="M441.305 410.327C441.305 408.921 440.162 408.347 438.756 409.052C437.35 409.758 436.207 411.47 436.207 412.876C436.207 414.282 437.35 414.856 438.756 414.151C440.162 413.445 441.305 411.733 441.305 410.327ZM441.305 418.861C441.305 417.455 440.162 416.881 438.756 417.586C437.35 418.292 436.207 420.004 436.207 421.41C436.207 422.816 437.35 423.39 438.756 422.685C440.162 421.979 441.305 420.267 441.305 418.861ZM441.305 427.395C441.305 425.989 440.162 425.414 438.756 426.12C437.35 426.826 436.207 428.538 436.207 429.944C436.207 431.35 437.35 431.924 438.756 431.218C440.162 430.513 441.305 428.8 441.305 427.395ZM441.305 435.928C441.305 434.522 440.162 433.948 438.756 434.654C437.35 435.359 436.207 437.072 436.207 438.478C436.207 439.883 437.35 440.458 438.756 439.752C440.162 439.047 441.305 437.334 441.305 435.928Z" fill="white"/>
<path d="M335.639 418.117C335.475 418.117 335.305 418.079 335.152 418.002L306.974 403.91C306.433 403.642 306.214 402.98 306.487 402.444C306.755 401.903 307.412 401.684 307.953 401.957L336.131 416.049C336.673 416.317 336.892 416.979 336.618 417.515C336.427 417.898 336.038 418.122 335.639 418.122V418.117Z" fill="white"/>
<path d="M355.529 428.068C355.365 428.068 355.196 428.029 355.042 427.953L339.293 420.075C338.752 419.807 338.533 419.145 338.806 418.609C339.074 418.068 339.731 417.849 340.272 418.123L356.022 426C356.563 426.268 356.782 426.93 356.509 427.466C356.317 427.849 355.929 428.073 355.529 428.073V428.068Z" fill="#F85B6E"/>
<path d="M367.132 433.866C366.968 433.866 366.798 433.828 366.645 433.752L359.189 430.021C358.647 429.753 358.429 429.091 358.702 428.555C358.97 428.013 359.627 427.794 360.168 428.068L367.624 431.799C368.166 432.067 368.385 432.729 368.111 433.265C367.92 433.648 367.531 433.872 367.132 433.872V433.866Z" fill="#F85B6E"/>
<path d="M327.351 422.263C327.187 422.263 327.018 422.225 326.864 422.149L311.115 414.271C310.574 414.003 310.355 413.341 310.628 412.805C310.896 412.264 311.553 412.045 312.094 412.318L327.844 420.196C328.385 420.464 328.604 421.126 328.331 421.662C328.139 422.045 327.751 422.269 327.351 422.269V422.263Z" fill="#53DBEE"/>
<path d="M352.214 434.698C352.05 434.698 351.881 434.66 351.727 434.583L331.006 424.222C330.464 423.954 330.245 423.292 330.519 422.756C330.787 422.215 331.443 421.996 331.985 422.269L352.707 432.63C353.248 432.898 353.467 433.56 353.194 434.096C353.002 434.479 352.614 434.703 352.214 434.703V434.698Z" fill="#F85B6E"/>
<path d="M367.132 442.154C366.968 442.154 366.798 442.116 366.645 442.039L355.874 436.651C355.332 436.383 355.113 435.721 355.387 435.185C355.655 434.643 356.311 434.424 356.853 434.698L367.624 440.086C368.166 440.354 368.385 441.016 368.111 441.552C367.92 441.935 367.531 442.16 367.132 442.16V442.154Z" fill="#F85B6E"/>
<path d="M340.612 437.181C340.448 437.181 340.278 437.143 340.125 437.067L307.8 420.902C307.259 420.634 307.04 419.972 307.313 419.436C307.581 418.894 308.238 418.675 308.78 418.949L341.104 435.114C341.646 435.382 341.864 436.044 341.591 436.58C341.399 436.963 341.011 437.187 340.612 437.187V437.181Z" fill="white"/>
<path d="M352.214 442.985C352.05 442.985 351.881 442.947 351.727 442.87L344.271 439.14C343.73 438.872 343.511 438.21 343.784 437.674C344.052 437.132 344.709 436.913 345.25 437.187L352.707 440.918C353.248 441.186 353.467 441.848 353.193 442.384C353.002 442.767 352.614 442.991 352.214 442.991V442.985Z" fill="#53DBEE"/>
<path d="M359.676 446.716C359.512 446.716 359.342 446.678 359.189 446.601L355.874 444.944C355.332 444.676 355.113 444.014 355.387 443.478C355.655 442.936 356.311 442.717 356.853 442.991L360.168 444.648C360.71 444.916 360.928 445.578 360.655 446.114C360.463 446.497 360.075 446.721 359.676 446.721V446.716Z" fill="#F85B6E"/>
<path d="M324.036 437.181C323.872 437.181 323.703 437.143 323.549 437.066L311.947 431.262C311.405 430.994 311.186 430.332 311.46 429.796C311.728 429.255 312.384 429.036 312.926 429.309L324.529 435.113C325.07 435.381 325.289 436.043 325.016 436.579C324.824 436.962 324.436 437.187 324.036 437.187V437.181Z" fill="white"/>
<path d="M352.214 451.273C352.05 451.273 351.88 451.235 351.727 451.158L327.69 439.14C327.149 438.872 326.93 438.21 327.204 437.674C327.472 437.132 328.128 436.913 328.67 437.187L352.707 449.205C353.248 449.473 353.467 450.135 353.193 450.671C353.002 451.054 352.613 451.278 352.214 451.278V451.273Z" fill="#53DBEE"/>
<path d="M335.639 451.273C335.475 451.273 335.305 451.235 335.152 451.158L311.947 439.555C311.405 439.287 311.186 438.625 311.46 438.089C311.728 437.548 312.384 437.329 312.926 437.603L336.131 449.205C336.673 449.473 336.892 450.135 336.618 450.671C336.427 451.054 336.038 451.278 335.639 451.278V451.273Z" fill="#53DBEE"/>
<path d="M347.242 457.077C347.077 457.077 346.908 457.039 346.755 456.962L339.299 453.231C338.757 452.963 338.538 452.301 338.812 451.765C339.08 451.224 339.736 451.005 340.278 451.278L347.734 455.009C348.275 455.277 348.494 455.939 348.221 456.475C348.029 456.858 347.641 457.082 347.242 457.082V457.077Z" fill="#F85B6E"/>
<path d="M367.132 467.022C366.968 467.022 366.798 466.984 366.645 466.907L350.896 459.03C350.354 458.762 350.135 458.1 350.409 457.564C350.677 457.022 351.333 456.804 351.875 457.077L367.624 464.954C368.166 465.223 368.385 465.884 368.111 466.421C367.92 466.803 367.531 467.028 367.132 467.028V467.022Z" fill="#F85B6E"/>
<path d="M315.749 449.615C315.585 449.615 315.415 449.577 315.262 449.501L307.806 445.77C307.264 445.502 307.045 444.84 307.319 444.304C307.587 443.762 308.243 443.543 308.785 443.817L316.241 447.548C316.783 447.816 317.001 448.478 316.728 449.014C316.536 449.397 316.148 449.621 315.749 449.621V449.615Z" fill="white"/>
<path d="M352.214 467.854C352.05 467.854 351.88 467.816 351.727 467.739L319.403 451.574C318.861 451.306 318.642 450.644 318.916 450.108C319.184 449.566 319.84 449.348 320.382 449.621L352.707 465.786C353.248 466.054 353.467 466.716 353.193 467.252C353.002 467.635 352.614 467.859 352.214 467.859V467.854Z" fill="#53DBEE"/>
<path d="M363.817 473.658C363.653 473.658 363.483 473.62 363.33 473.543L355.874 469.812C355.332 469.544 355.113 468.882 355.387 468.346C355.655 467.805 356.311 467.586 356.853 467.859L364.309 471.59C364.851 471.858 365.07 472.52 364.796 473.056C364.605 473.439 364.216 473.663 363.817 473.663V473.658Z" fill="#F85B6E"/>
<path d="M319.89 459.976C319.726 459.976 319.556 459.938 319.403 459.861L307.8 454.057C307.259 453.789 307.04 453.127 307.313 452.591C307.581 452.05 308.238 451.831 308.78 452.104L320.382 457.909C320.924 458.177 321.143 458.838 320.869 459.375C320.678 459.758 320.289 459.982 319.89 459.982V459.976Z" fill="white"/>
<path d="M352.214 476.141C352.05 476.141 351.88 476.103 351.727 476.027L323.549 461.935C323.008 461.667 322.789 461.005 323.062 460.469C323.331 459.927 323.987 459.708 324.529 459.982L352.706 474.074C353.248 474.342 353.467 475.004 353.193 475.54C353.002 475.923 352.613 476.147 352.214 476.147V476.141Z" fill="#53DBEE"/>
<defs>
<filter id="filter0_f_987_1271" x="298.135" y="279.8" width="210.053" height="243.105" filterUnits="userSpaceOnUse" color-interpolation-filters="sRGB">
<feFlood flood-opacity="0" result="BackgroundImageFix"/>
<feBlend mode="normal" in="SourceGraphic" in2="BackgroundImageFix" result="shape"/>
<feGaussianBlur stdDeviation="30" result="effect1_foregroundBlur_987_1271"/>
</filter>
<linearGradient id="paint0_linear_987_1271" x1="320.031" y1="400.333" x2="342.875" y2="355.543" gradientUnits="userSpaceOnUse">
<stop stop-color="white"/>
<stop offset="1" stop-color="#CCBFF2"/>
</linearGradient>
<linearGradient id="paint1_linear_987_1271" x1="324.074" y1="494.093" x2="334.079" y2="474.475" gradientUnits="userSpaceOnUse">
<stop stop-color="white"/>
<stop offset="1" stop-color="#CCBFF2"/>
</linearGradient>
<linearGradient id="paint2_linear_987_1271" x1="405.178" y1="489.489" x2="339.545" y2="362.325" gradientUnits="userSpaceOnUse">
<stop stop-color="#7950ED"/>
<stop offset="0.4" stop-color="#7950ED"/>
<stop offset="0.6" stop-color="#9068FF"/>
<stop offset="1" stop-color="#7950ED"/>
</linearGradient>
</defs>
</svg>
