<svg width="72" height="38" viewBox="0 0 72 38" fill="none" xmlns="http://www.w3.org/2000/svg">
<path d="M66.7716 0H31.2165C28.3334 0 25.9878 2.36761 25.9878 5.27778V32.7222C25.9878 35.6324 28.3334 38 31.2165 38H66.7716C69.6547 38 72.0003 35.6324 72.0003 32.7222V5.27778C72.0003 2.36761 69.6547 0 66.7716 0ZM31.2165 2.11111H66.7716C68.5013 2.11111 69.9088 3.53189 69.9088 5.27778V8.44444H28.0793V5.27778C28.0793 3.53189 29.4868 2.11111 31.2165 2.11111ZM66.7716 35.8889H31.2165C29.4868 35.8889 28.0793 34.4681 28.0793 32.7222V10.5556H69.9088V32.7222C69.9088 34.4681 68.5013 35.8889 66.7716 35.8889Z" fill="white"/>
<path d="M31.2165 6.33333C31.794 6.33333 32.2622 5.86074 32.2622 5.27778C32.2622 4.69481 31.794 4.22222 31.2165 4.22222C30.6389 4.22222 30.1707 4.69481 30.1707 5.27778C30.1707 5.86074 30.6389 6.33333 31.2165 6.33333Z" fill="white"/>
<path d="M35.3994 6.33333C35.977 6.33333 36.4452 5.86074 36.4452 5.27778C36.4452 4.69481 35.977 4.22222 35.3994 4.22222C34.8219 4.22222 34.3537 4.69481 34.3537 5.27778C34.3537 5.86074 34.8219 6.33333 35.3994 6.33333Z" fill="white"/>
<path d="M39.5824 6.33333C40.1599 6.33333 40.6281 5.86074 40.6281 5.27778C40.6281 4.69481 40.1599 4.22222 39.5824 4.22222C39.0049 4.22222 38.5367 4.69481 38.5367 5.27778C38.5367 5.86074 39.0049 6.33333 39.5824 6.33333Z" fill="white"/>
<path d="M43.3354 18.3926C43.0294 18.0978 42.5349 18.0978 42.2289 18.3926L38.3159 22.1624C38.0099 22.4572 38.0099 22.9337 38.3159 23.2285L42.2289 26.9982C42.3815 27.1453 42.5818 27.2191 42.7822 27.2191C42.9825 27.2191 43.1828 27.1453 43.3354 26.9982C43.6414 26.7034 43.6414 26.2269 43.3354 25.9321L39.9758 22.6954L43.3354 19.4587C43.6414 19.1639 43.6414 18.6874 43.3354 18.3926Z" fill="#53DBEE"/>
<path d="M55.8569 18.3926C55.5509 18.0978 55.0563 18.0978 54.7503 18.3926C54.4443 18.6874 54.4443 19.1639 54.7503 19.4587L58.1099 22.6954L54.7503 25.9321C54.4443 26.2269 54.4443 26.7034 54.7503 26.9982C54.9029 27.1453 55.1032 27.2191 55.3036 27.2191C55.5039 27.2191 55.7043 27.1453 55.8569 26.9982L59.7698 23.2285C60.0758 22.9337 60.0758 22.4572 59.7698 22.1624L55.8569 18.3926Z" fill="#53DBEE"/>
<path d="M51.7403 17.4969C51.3545 17.3099 50.8842 17.4614 50.6901 17.8339L45.9946 26.8813C45.8013 27.2538 45.9578 27.7069 46.3444 27.8931C46.4571 27.9467 46.576 27.9723 46.6934 27.9723C46.9806 27.9723 47.2569 27.82 47.3946 27.5554L52.0902 18.5079C52.2835 18.1355 52.1269 17.6831 51.7403 17.4969Z" fill="#53DBEE"/>
<path d="M3.13722 28.289C3.13722 28.8719 3.60541 29.3445 4.18295 29.3445H17.7776C18.3551 29.3445 18.8233 28.8719 18.8233 28.289C18.8233 27.706 18.3551 27.2334 17.7776 27.2334H4.18295C3.60541 27.2334 3.13722 27.706 3.13722 28.289Z" fill="white"/>
<path d="M6.27443 9.28895C6.27443 9.87192 6.74262 10.3445 7.32017 10.3445H20.9148C21.4923 10.3445 21.9605 9.87192 21.9605 9.28895C21.9605 8.70599 21.4923 8.2334 20.9148 8.2334H7.32017C6.74262 8.2334 6.27443 8.70599 6.27443 9.28895Z" fill="white"/>
<path d="M0 21.9556C0 22.5386 0.468194 23.0112 1.04574 23.0112H14.6403C15.2179 23.0112 15.6861 22.5386 15.6861 21.9556C15.6861 21.3727 15.2179 20.9001 14.6403 20.9001H1.04574C0.468193 20.9001 0 21.3727 0 21.9556Z" fill="white"/>
<path d="M16.7318 21.9556C16.7318 22.5386 17.2 23.0112 17.7776 23.0112C18.3551 23.0112 18.8233 22.5386 18.8233 21.9556C18.8233 21.3727 18.3551 20.9001 17.7776 20.9001C17.2 20.9001 16.7318 21.3727 16.7318 21.9556Z" fill="white"/>
<path d="M3.13722 15.6223C3.13722 16.2053 3.60541 16.6778 4.18295 16.6778H17.7776C18.3551 16.6778 18.8233 16.2053 18.8233 15.6223C18.8233 15.0393 18.3551 14.5667 17.7776 14.5667H4.18295C3.60541 14.5667 3.13722 15.0393 3.13722 15.6223Z" fill="white"/>
<path d="M19.869 15.6223C19.869 16.2053 20.3372 16.6778 20.9148 16.6778C21.4923 16.6778 21.9605 16.2053 21.9605 15.6223C21.9605 15.0393 21.4923 14.5667 20.9148 14.5667C20.3372 14.5667 19.869 15.0393 19.869 15.6223Z" fill="white"/>
</svg>
