<svg width="56" height="56" viewBox="0 0 56 56" fill="none" xmlns="http://www.w3.org/2000/svg">
<circle cx="3" cy="3" r="3" transform="matrix(1 0 0 -1 8 48)" fill="#53DBEE"/>
<circle cx="3" cy="3" r="3" transform="matrix(1 0 0 -1 42 14)" fill="#53DBEE"/>
<path d="M28.0002 18.7667C26.1741 18.7667 24.3889 19.3082 22.8704 20.3228C21.352 21.3374 20.1686 22.7794 19.4697 24.4666C18.7709 26.1537 18.588 28.0102 18.9443 29.8013C19.3005 31.5924 20.1799 33.2376 21.4713 34.5289C22.7626 35.8202 24.4078 36.6996 26.1989 37.0559C27.99 37.4122 29.8465 37.2293 31.5337 36.5305C33.2209 35.8316 34.6629 34.6482 35.6775 33.1298C36.6921 31.6113 37.2336 29.8262 37.2336 28C37.2309 25.552 36.2572 23.2051 34.5262 21.4741C32.7952 19.7431 30.4482 18.7694 28.0002 18.7667ZM28.0002 35.701C26.4771 35.701 24.9882 35.2493 23.7218 34.4031C22.4553 33.5569 21.4683 32.3542 20.8854 30.947C20.3025 29.5399 20.15 27.9915 20.4472 26.4976C20.7443 25.0038 21.4778 23.6316 22.5548 22.5546C23.6318 21.4776 25.004 20.7441 26.4978 20.447C27.9917 20.1498 29.5401 20.3024 30.9473 20.8852C32.3545 21.4681 33.5572 22.4551 34.4034 23.7216C35.2496 24.988 35.7013 26.4769 35.7013 28C35.6992 30.0418 34.8872 31.9994 33.4434 33.4431C31.9996 34.8869 30.042 35.6989 28.0002 35.701ZM28.0002 18.7667C26.1741 18.7667 24.3889 19.3082 22.8704 20.3228C21.352 21.3374 20.1686 22.7794 19.4697 24.4666C18.7709 26.1537 18.588 28.0102 18.9443 29.8013C19.3005 31.5924 20.1799 33.2376 21.4713 34.5289C22.7626 35.8202 24.4078 36.6996 26.1989 37.0559C27.99 37.4122 29.8465 37.2293 31.5337 36.5305C33.2209 35.8316 34.6629 34.6482 35.6775 33.1298C36.6921 31.6113 37.2336 29.8262 37.2336 28C37.2309 25.552 36.2572 23.2051 34.5262 21.4741C32.7952 19.7431 30.4482 18.7694 28.0002 18.7667ZM28.0002 35.701C26.4771 35.701 24.9882 35.2493 23.7218 34.4031C22.4553 33.5569 21.4683 32.3542 20.8854 30.947C20.3025 29.5399 20.15 27.9915 20.4472 26.4976C20.7443 25.0038 21.4778 23.6316 22.5548 22.5546C23.6318 21.4776 25.004 20.7441 26.4978 20.447C27.9917 20.1498 29.5401 20.3024 30.9473 20.8852C32.3545 21.4681 33.5572 22.4551 34.4034 23.7216C35.2496 24.988 35.7013 26.4769 35.7013 28C35.6992 30.0418 34.8872 31.9994 33.4434 33.4431C31.9996 34.8869 30.042 35.6989 28.0002 35.701ZM28.0002 18.7667C26.1741 18.7667 24.3889 19.3082 22.8704 20.3228C21.352 21.3374 20.1686 22.7794 19.4697 24.4666C18.7709 26.1537 18.588 28.0102 18.9443 29.8013C19.3005 31.5924 20.1799 33.2376 21.4713 34.5289C22.7626 35.8202 24.4078 36.6996 26.1989 37.0559C27.99 37.4122 29.8465 37.2293 31.5337 36.5305C33.2209 35.8316 34.6629 34.6482 35.6775 33.1298C36.6921 31.6113 37.2336 29.8262 37.2336 28C37.2309 25.552 36.2572 23.2051 34.5262 21.4741C32.7952 19.7431 30.4482 18.7694 28.0002 18.7667ZM28.0002 35.701C26.4771 35.701 24.9882 35.2493 23.7218 34.4031C22.4553 33.5569 21.4683 32.3542 20.8854 30.947C20.3025 29.5399 20.15 27.9915 20.4472 26.4976C20.7443 25.0038 21.4778 23.6316 22.5548 22.5546C23.6318 21.4776 25.004 20.7441 26.4978 20.447C27.9917 20.1498 29.5401 20.3024 30.9473 20.8852C32.3545 21.4681 33.5572 22.4551 34.4034 23.7216C35.2496 24.988 35.7013 26.4769 35.7013 28C35.6992 30.0418 34.8872 31.9994 33.4434 33.4431C31.9996 34.8869 30.042 35.6989 28.0002 35.701ZM28.0002 18.7667C26.1741 18.7667 24.3889 19.3082 22.8704 20.3228C21.352 21.3374 20.1686 22.7794 19.4697 24.4666C18.7709 26.1537 18.588 28.0102 18.9443 29.8013C19.3005 31.5924 20.1799 33.2376 21.4713 34.5289C22.7626 35.8202 24.4078 36.6996 26.1989 37.0559C27.99 37.4122 29.8465 37.2293 31.5337 36.5305C33.2209 35.8316 34.6629 34.6482 35.6775 33.1298C36.6921 31.6113 37.2336 29.8262 37.2336 28C37.2309 25.552 36.2572 23.2051 34.5262 21.4741C32.7952 19.7431 30.4482 18.7694 28.0002 18.7667ZM28.0002 35.701C26.4771 35.701 24.9882 35.2493 23.7218 34.4031C22.4553 33.5569 21.4683 32.3542 20.8854 30.947C20.3025 29.5399 20.15 27.9915 20.4472 26.4976C20.7443 25.0038 21.4778 23.6316 22.5548 22.5546C23.6318 21.4776 25.004 20.7441 26.4978 20.447C27.9917 20.1498 29.5401 20.3024 30.9473 20.8852C32.3545 21.4681 33.5572 22.4551 34.4034 23.7216C35.2496 24.988 35.7013 26.4769 35.7013 28C35.6992 30.0418 34.8872 31.9994 33.4434 33.4431C31.9996 34.8869 30.042 35.6989 28.0002 35.701ZM28.0002 18.7667C26.1741 18.7667 24.3889 19.3082 22.8704 20.3228C21.352 21.3374 20.1686 22.7794 19.4697 24.4666C18.7709 26.1537 18.588 28.0102 18.9443 29.8013C19.3005 31.5924 20.1799 33.2376 21.4713 34.5289C22.7626 35.8202 24.4078 36.6996 26.1989 37.0559C27.99 37.4122 29.8465 37.2293 31.5337 36.5305C33.2209 35.8316 34.6629 34.6482 35.6775 33.1298C36.6921 31.6113 37.2336 29.8262 37.2336 28C37.2309 25.552 36.2572 23.2051 34.5262 21.4741C32.7952 19.7431 30.4482 18.7694 28.0002 18.7667ZM28.0002 35.701C26.4771 35.701 24.9882 35.2493 23.7218 34.4031C22.4553 33.5569 21.4683 32.3542 20.8854 30.947C20.3025 29.5399 20.15 27.9915 20.4472 26.4976C20.7443 25.0038 21.4778 23.6316 22.5548 22.5546C23.6318 21.4776 25.004 20.7441 26.4978 20.447C27.9917 20.1498 29.5401 20.3024 30.9473 20.8852C32.3545 21.4681 33.5572 22.4551 34.4034 23.7216C35.2496 24.988 35.7013 26.4769 35.7013 28C35.6992 30.0418 34.8872 31.9994 33.4434 33.4431C31.9996 34.8869 30.042 35.6989 28.0002 35.701ZM28.0002 18.7667C26.1741 18.7667 24.3889 19.3082 22.8704 20.3228C21.352 21.3374 20.1686 22.7794 19.4697 24.4666C18.7709 26.1537 18.588 28.0102 18.9443 29.8013C19.3005 31.5924 20.1799 33.2376 21.4713 34.5289C22.7626 35.8202 24.4078 36.6996 26.1989 37.0559C27.99 37.4122 29.8465 37.2293 31.5337 36.5305C33.2209 35.8316 34.6629 34.6482 35.6775 33.1298C36.6921 31.6113 37.2336 29.8262 37.2336 28C37.2309 25.552 36.2572 23.2051 34.5262 21.4741C32.7952 19.7431 30.4482 18.7694 28.0002 18.7667ZM28.0002 35.701C26.4771 35.701 24.9882 35.2493 23.7218 34.4031C22.4553 33.5569 21.4683 32.3542 20.8854 30.947C20.3025 29.5399 20.15 27.9915 20.4472 26.4976C20.7443 25.0038 21.4778 23.6316 22.5548 22.5546C23.6318 21.4776 25.004 20.7441 26.4978 20.447C27.9917 20.1498 29.5401 20.3024 30.9473 20.8852C32.3545 21.4681 33.5572 22.4551 34.4034 23.7216C35.2496 24.988 35.7013 26.4769 35.7013 28C35.6992 30.0418 34.8872 31.9994 33.4434 33.4431C31.9996 34.8869 30.042 35.6989 28.0002 35.701ZM28.0002 18.7667C26.1741 18.7667 24.3889 19.3082 22.8704 20.3228C21.352 21.3374 20.1686 22.7794 19.4697 24.4666C18.7709 26.1537 18.588 28.0102 18.9443 29.8013C19.3005 31.5924 20.1799 33.2376 21.4713 34.5289C22.7626 35.8202 24.4078 36.6996 26.1989 37.0559C27.99 37.4122 29.8465 37.2293 31.5337 36.5305C33.2209 35.8316 34.6629 34.6482 35.6775 33.1298C36.6921 31.6113 37.2336 29.8262 37.2336 28C37.2309 25.552 36.2572 23.2051 34.5262 21.4741C32.7952 19.7431 30.4482 18.7694 28.0002 18.7667ZM28.0002 35.701C26.4771 35.701 24.9882 35.2493 23.7218 34.4031C22.4553 33.5569 21.4683 32.3542 20.8854 30.947C20.3025 29.5399 20.15 27.9915 20.4472 26.4976C20.7443 25.0038 21.4778 23.6316 22.5548 22.5546C23.6318 21.4776 25.004 20.7441 26.4978 20.447C27.9917 20.1498 29.5401 20.3024 30.9473 20.8852C32.3545 21.4681 33.5572 22.4551 34.4034 23.7216C35.2496 24.988 35.7013 26.4769 35.7013 28C35.6992 30.0418 34.8872 31.9994 33.4434 33.4431C31.9996 34.8869 30.042 35.6989 28.0002 35.701ZM52.1676 24.1676C51.2844 24.1687 50.4287 24.4744 49.7447 25.0331C49.0607 25.5918 48.5903 26.3692 48.4128 27.2344H43.8836C43.8499 26.5289 43.7703 25.8263 43.6452 25.1311C43.6193 24.9896 43.5541 24.8581 43.457 24.7519C43.3599 24.6457 43.2348 24.569 43.0961 24.5307L40.3814 23.7793C40.2017 23.25 39.9876 22.733 39.7405 22.2316L41.1274 19.7828C41.1981 19.6575 41.2322 19.5148 41.2256 19.3711C41.219 19.2274 41.1721 19.0884 41.0902 18.9701C40.6876 18.3888 40.2474 17.8346 39.7722 17.3109L42.9747 14.1085C43.4733 14.4382 44.0421 14.6468 44.6356 14.7175C45.2292 14.7882 45.8311 14.7191 46.3932 14.5157C46.9553 14.3124 47.462 13.9804 47.873 13.5463C48.2839 13.1122 48.5876 12.588 48.7598 12.0156C48.932 11.4432 48.968 10.8384 48.8648 10.2496C48.7617 9.66084 48.5222 9.10435 48.1657 8.62459C47.8091 8.14483 47.3453 7.75512 46.8112 7.48657C46.2772 7.21803 45.6877 7.07809 45.09 7.07796H45.0878C44.3954 7.07838 43.716 7.26633 43.1218 7.62184C42.5276 7.97735 42.0408 8.48715 41.713 9.09709C41.3853 9.70704 41.2289 10.3944 41.2603 11.0861C41.2918 11.7778 41.5101 12.448 41.8919 13.0257L38.6894 16.2281C38.1671 15.7538 37.6139 15.3146 37.0335 14.9135C36.9152 14.8315 36.7762 14.7846 36.6325 14.778C36.4888 14.7714 36.3461 14.8055 36.2208 14.8763L33.7697 16.261C33.2687 16.0147 32.7525 15.8006 32.2243 15.62L31.4696 12.9065C31.431 12.7685 31.3545 12.644 31.2488 12.5474C31.143 12.4507 31.0122 12.3856 30.8713 12.3596C30.1758 12.2313 29.4724 12.1506 28.7659 12.1179V7.58764C29.6965 7.39789 30.5236 6.86931 31.0867 6.10439C31.6497 5.33947 31.9087 4.39271 31.8134 3.44769C31.718 2.50268 31.2751 1.62674 30.5706 0.98972C29.8661 0.352703 28.9501 0 28.0002 0C27.0504 0 26.1344 0.352703 25.4299 0.98972C24.7254 1.62674 24.2825 2.50268 24.1871 3.44769C24.0918 4.39271 24.3507 5.33947 24.9138 6.10439C25.4769 6.86931 26.3039 7.39789 27.2346 7.58764V12.1179C26.5281 12.1505 25.8247 12.2313 25.1292 12.3596C24.988 12.3855 24.857 12.4506 24.7512 12.5475C24.6454 12.6444 24.569 12.7692 24.5309 12.9076L23.7795 15.62C23.2508 15.8003 22.7342 16.0144 22.2329 16.261L19.7829 14.8763C19.6579 14.8056 19.5155 14.7714 19.372 14.7778C19.2285 14.7842 19.0897 14.8308 18.9714 14.9124C18.3896 15.3139 17.8349 15.7534 17.3111 16.2281L14.1097 13.0257C14.4914 12.4478 14.7095 11.7774 14.7408 11.0856C14.7721 10.3938 14.6155 9.70637 14.2875 9.09642C13.9595 8.48647 13.4725 7.97673 12.8781 7.62134C12.2837 7.26595 11.6041 7.07817 10.9116 7.07796H10.9083C10.3112 7.07912 9.72266 7.21979 9.18958 7.48876C8.65651 7.75773 8.19366 8.14755 7.83797 8.62713C7.48227 9.10671 7.24357 9.66277 7.1409 10.251C7.03823 10.8392 7.07444 11.4432 7.24663 12.0149C7.41882 12.5866 7.72224 13.1102 8.13267 13.5439C8.54311 13.9775 9.0492 14.3093 9.61059 14.5126C10.172 14.716 10.7731 14.7854 11.3661 14.7152C11.959 14.645 12.5274 14.4373 13.0258 14.1085L16.2283 17.3109C15.7536 17.8348 15.314 18.3894 14.9125 18.9712C14.831 19.0895 14.7843 19.2283 14.7779 19.3718C14.7716 19.5153 14.8057 19.6577 14.8764 19.7828L16.2611 22.2327C16.0143 22.7339 15.8002 23.2505 15.6202 23.7793L12.9077 24.5307C12.769 24.569 12.6439 24.6457 12.5468 24.7519C12.4497 24.8581 12.3844 24.9896 12.3586 25.1311C12.2323 25.8262 12.1519 26.5288 12.118 27.2344H7.5877C7.39795 26.3037 6.86937 25.4767 6.10444 24.9136C5.33952 24.3505 4.39275 24.0916 3.44772 24.1869C2.5027 24.2823 1.62675 24.7252 0.989728 25.4297C0.352706 26.1342 0 27.0502 0 28C0 28.9498 0.352706 29.8658 0.989728 30.5703C1.62675 31.2749 2.5027 31.7177 3.44772 31.8131C4.39275 31.9084 5.33952 31.6495 6.10444 31.0864C6.86937 30.5233 7.39795 29.6963 7.5877 28.7656H12.118C12.1519 29.4712 12.2323 30.1738 12.3586 30.8689C12.3844 31.0104 12.4497 31.1419 12.5468 31.2481C12.6439 31.3543 12.769 31.431 12.9077 31.4693L15.6202 32.2207C15.8002 32.7495 16.0143 33.2661 16.2611 33.7673L14.8764 36.2172C14.8057 36.3423 14.7716 36.4847 14.7779 36.6282C14.7843 36.7717 14.831 36.9105 14.9125 37.0288C15.314 37.6106 15.7536 38.1653 16.2283 38.6891L13.0269 41.8926C12.4002 41.4761 11.6641 41.2546 10.9116 41.2561H10.9083C9.89173 41.2561 8.91678 41.6599 8.19795 42.3787C7.47912 43.0975 7.07528 44.0725 7.07528 45.0891C7.07528 46.1056 7.47912 47.0806 8.19795 47.7994C8.91678 48.5182 9.89173 48.9221 10.9083 48.9221H10.9116C11.6039 48.9219 12.2833 48.7343 12.8775 48.3791C13.4718 48.0238 13.9588 47.5143 14.2867 46.9046C14.6147 46.2949 14.7714 45.6078 14.7402 44.9161C14.7091 44.2245 14.4912 43.5542 14.1097 42.9765L17.3122 39.7719C17.8354 40.2468 18.3897 40.6864 18.9714 41.0876C19.0897 41.1692 19.2285 41.2158 19.372 41.2222C19.5155 41.2286 19.6579 41.1944 19.7829 41.1237L22.2329 39.7391C22.7342 39.9856 23.2508 40.1997 23.7795 40.38L24.5309 43.0924C24.569 43.2308 24.6454 43.3556 24.7512 43.4525C24.857 43.5494 24.988 43.6145 25.1292 43.6404C25.8247 43.769 26.5281 43.8502 27.2346 43.8832V48.4124C26.3039 48.6021 25.4769 49.1307 24.9138 49.8956C24.3507 50.6605 24.0918 51.6073 24.1871 52.5523C24.2825 53.4973 24.7254 54.3733 25.4299 55.0103C26.1344 55.6473 27.0504 56 28.0002 56C28.9501 56 29.8661 55.6473 30.5706 55.0103C31.2751 54.3733 31.718 53.4973 31.8134 52.5523C31.9087 51.6073 31.6497 50.6605 31.0867 49.8956C30.5236 49.1307 29.6965 48.6021 28.7659 48.4124V43.8832C29.4724 43.8502 30.1758 43.769 30.8713 43.6404C31.0122 43.6144 31.143 43.5493 31.2488 43.4526C31.3545 43.356 31.431 43.2315 31.4696 43.0935L32.2243 40.38C32.7525 40.1994 33.2687 39.9853 33.7697 39.7391L36.2208 41.1237C36.3461 41.1944 36.4886 41.2285 36.6323 41.2222C36.776 41.2158 36.915 41.1692 37.0335 41.0876C37.6137 40.6858 38.1669 40.2463 38.6894 39.7719L41.893 42.9754C41.5118 43.553 41.2941 44.223 41.2628 44.9144C41.2316 45.6057 41.3881 46.2926 41.7156 46.9022C42.0431 47.5119 42.5295 48.0215 43.1232 48.3771C43.7169 48.7327 44.3958 48.921 45.0878 48.9221H45.09C45.5938 48.9233 46.0929 48.8245 46.5583 48.6315C47.0238 48.4385 47.4463 48.1551 47.8014 47.7977C48.1582 47.443 48.4412 47.0209 48.6338 46.5561C48.8264 46.0912 48.9249 45.5928 48.9236 45.0896C48.9232 44.073 48.5191 43.0982 47.8003 42.3793C47.0814 41.6605 46.1066 41.2565 45.09 41.2561H45.0878C44.3363 41.2548 43.6014 41.4763 42.9758 41.8926L39.7722 38.6891C40.2474 38.1654 40.6876 37.6112 41.0902 37.0299C41.1721 36.9116 41.219 36.7726 41.2256 36.6289C41.2322 36.4852 41.1981 36.3425 41.1274 36.2172L39.7405 33.7684C39.9876 33.267 40.2017 32.75 40.3814 32.2207L43.0961 31.4693C43.2348 31.431 43.3599 31.3543 43.457 31.2481C43.5541 31.1419 43.6193 31.0104 43.6452 30.8689C43.7703 30.1737 43.8499 29.4711 43.8836 28.7656H48.4128C48.5577 29.4761 48.9012 30.131 49.4035 30.654C49.9057 31.1771 50.5461 31.5469 51.2501 31.7205C51.9542 31.8942 52.6931 31.8645 53.3809 31.6349C54.0688 31.4054 54.6774 30.9854 55.136 30.4237C55.5947 29.862 55.8846 29.1818 55.972 28.4619C56.0595 27.742 55.9409 27.0121 55.63 26.357C55.3192 25.7019 54.8288 25.1484 54.2159 24.7608C53.603 24.3732 52.8928 24.1675 52.1676 24.1676ZM43.4647 9.28402C43.6774 9.06986 43.9305 8.89997 44.2093 8.78414C44.4881 8.66831 44.787 8.60885 45.0889 8.60919C45.6226 8.6081 46.1413 8.79219 46.5545 9.13006C46.9676 9.46793 47.2508 9.93866 47.3557 10.462C47.4605 10.9853 47.3806 11.5288 47.1296 11.9998C46.8785 12.4708 46.4719 12.8401 45.9789 13.0447C45.486 13.2494 44.9374 13.2767 44.4265 13.1221C43.9157 12.9674 43.4743 12.6404 43.1777 12.1967C42.8811 11.753 42.7475 11.2201 42.7999 10.689C42.8522 10.1578 43.0872 9.66129 43.4647 9.28402ZM12.5402 12.539C12.3267 12.7534 12.073 12.9235 11.7936 13.0398C11.5143 13.156 11.2147 13.216 10.9122 13.2163C10.6096 13.2167 10.3099 13.1573 10.0303 13.0417C9.75072 12.9261 9.49665 12.7565 9.28267 12.5426C9.06868 12.3287 8.89898 12.0747 8.78328 11.7951C8.66758 11.5155 8.60814 11.2159 8.60838 10.9133C8.60861 10.6108 8.66851 10.3112 8.78465 10.0318C8.90078 9.75244 9.07088 9.49869 9.28519 9.28511L9.28629 9.28402C9.49888 9.06995 9.75177 8.9001 10.0304 8.78428C10.3089 8.66845 10.6077 8.60894 10.9094 8.60919H10.9116C11.3668 8.60943 11.8117 8.74456 12.1901 8.99752C12.5685 9.25047 12.8635 9.6099 13.0378 10.0304C13.2121 10.4509 13.2578 10.9136 13.1692 11.3601C13.0807 11.8066 12.8618 12.2168 12.5402 12.539ZM3.83288 30.3001C3.37796 30.3001 2.93325 30.1652 2.55499 29.9125C2.17673 29.6597 1.88192 29.3005 1.70783 28.8802C1.53373 28.4599 1.48818 27.9974 1.57693 27.5513C1.66569 27.1051 1.88475 26.6952 2.20643 26.3736C2.52811 26.0519 2.93796 25.8328 3.38415 25.7441C3.83033 25.6553 4.29281 25.7009 4.71311 25.875C5.1334 26.0491 5.49264 26.3439 5.74538 26.7221C5.99812 27.1004 6.13302 27.5451 6.13302 28C6.13247 28.6099 5.88996 29.1946 5.45872 29.6258C5.02748 30.0571 4.44275 30.2996 3.83288 30.3001ZM12.5402 46.7149C12.3268 46.9295 12.073 47.0998 11.7935 47.2158C11.514 47.3318 11.2142 47.3913 10.9116 47.3908H10.9094C10.6077 47.3911 10.3089 47.3316 10.0304 47.2157C9.75177 47.0999 9.49888 46.9301 9.28629 46.716L9.28519 46.7149C8.9642 46.3931 8.74566 45.9836 8.65715 45.5378C8.56863 45.092 8.61411 44.63 8.78783 44.21C8.96156 43.79 9.25575 43.4309 9.63332 43.1779C10.0109 42.9249 10.4549 42.7894 10.9094 42.7884H10.9116C11.3666 42.7882 11.8114 42.923 12.1898 43.1756C12.5682 43.4282 12.8632 43.7874 13.0375 44.2076C13.2118 44.6279 13.2576 45.0904 13.1691 45.5367C13.0806 45.983 12.8617 46.393 12.5402 46.7149ZM43.4647 43.4632C43.6771 43.2486 43.9301 43.0785 44.209 42.9626C44.4878 42.8468 44.7869 42.7875 45.0889 42.7884C45.6992 42.7884 46.2856 43.0308 46.7172 43.4624C47.1488 43.894 47.3912 44.4793 47.3912 45.0896C47.3912 45.6999 47.1488 46.2852 46.7172 46.7168C46.2856 47.1484 45.7003 47.3908 45.09 47.3908C44.6349 47.391 44.1888 47.2561 43.8104 47.0032C43.432 46.7503 43.1371 46.3908 42.9632 45.9702C42.7893 45.5496 42.7441 45.0869 42.8334 44.6406C42.9226 44.1943 43.1424 43.7845 43.4647 43.4632ZM25.7001 3.83285C25.7001 3.37793 25.835 2.93322 26.0877 2.55497C26.3405 2.17671 26.6997 1.8819 27.12 1.70781C27.5403 1.53372 28.0028 1.48817 28.449 1.57692C28.8952 1.66567 29.305 1.88474 29.6267 2.20641C29.9484 2.52809 30.1674 2.93794 30.2562 3.38412C30.3449 3.8303 30.2994 4.29277 30.1253 4.71307C29.9512 5.13336 29.6564 5.49259 29.2781 5.74533C28.8999 5.99807 28.4552 6.13297 28.0002 6.13297C27.3904 6.13242 26.8056 5.88991 26.3744 5.45867C25.9432 5.02744 25.7007 4.44271 25.7001 3.83285ZM30.3004 52.1672C30.3004 52.6221 30.1655 53.0668 29.9127 53.445C29.66 53.8233 29.3008 54.1181 28.8805 54.2922C28.4602 54.4663 27.9977 54.5118 27.5515 54.4231C27.1053 54.3343 26.6955 54.1153 26.3738 53.7936C26.0521 53.4719 25.833 53.0621 25.7443 52.6159C25.6555 52.1697 25.7011 51.7072 25.8752 51.2869C26.0493 50.8666 26.3441 50.5074 26.7224 50.2547C27.1006 50.0019 27.5453 49.867 28.0002 49.867C28.6101 49.8676 29.1948 50.1101 29.6261 50.5413C30.0573 50.9726 30.2998 51.5573 30.3004 52.1672ZM42.2156 30.124L39.5742 30.8557C39.4499 30.8901 39.3362 30.9553 39.2439 31.0454C39.1515 31.1355 39.0834 31.2474 39.046 31.3709C38.8309 32.0811 38.5462 32.7684 38.1961 33.4227C38.1346 33.5365 38.103 33.6641 38.1044 33.7934C38.1057 33.9227 38.1399 34.0496 38.2038 34.1621L39.5535 36.5464C38.7059 37.6906 37.6934 38.7027 36.5489 39.5498L34.1657 38.2035C34.0537 38.1401 33.9275 38.106 33.7989 38.1043C33.6702 38.1025 33.5432 38.1333 33.4296 38.1936C32.7731 38.5428 32.0845 38.8282 31.3734 39.0456C31.2503 39.0832 31.1386 39.1512 31.0488 39.2434C30.9589 39.3355 30.8938 39.4488 30.8593 39.5728L30.1243 42.2131C28.716 42.422 27.2845 42.422 25.8762 42.2131L25.1445 39.5739C25.1099 39.4496 25.0446 39.3361 24.9546 39.2438C24.8646 39.1514 24.7527 39.0833 24.6293 39.0456C23.9184 38.8285 23.2302 38.5432 22.5742 38.1936C22.4605 38.1333 22.3335 38.1025 22.2049 38.1043C22.0762 38.106 21.9501 38.1401 21.8381 38.2035L19.4537 39.5509C18.3085 38.7043 17.2959 37.6917 16.4492 36.5464L17.7967 34.1621C17.8602 34.0499 17.8943 33.9235 17.8958 33.7946C17.8974 33.6658 17.8663 33.5386 17.8055 33.4249C17.4559 32.7695 17.1709 32.0815 16.9545 31.3709C16.9169 31.2475 16.8487 31.1357 16.7564 31.0456C16.6641 30.9556 16.5505 30.8903 16.4262 30.8557L13.7881 30.124C13.5767 28.7159 13.5767 27.2841 13.7881 25.876L16.4262 25.1443C16.5505 25.1097 16.6641 25.0444 16.7564 24.9544C16.8487 24.8643 16.9169 24.7525 16.9545 24.6291C17.1707 23.9184 17.4557 23.2305 17.8055 22.5751C17.8663 22.4614 17.8974 22.3343 17.8958 22.2054C17.8943 22.0765 17.8602 21.9501 17.7967 21.8379L16.4492 19.4536C17.2959 18.3083 18.3085 17.2957 19.4537 16.4491L21.8381 17.7966C21.9501 17.8599 22.0762 17.894 22.2049 17.8958C22.3335 17.8975 22.4605 17.8667 22.5742 17.8064C23.23 17.4565 23.9183 17.1711 24.6293 16.9544C24.7528 16.9169 24.8647 16.8488 24.9548 16.7565C25.0449 16.6641 25.1101 16.5505 25.1445 16.4261L25.8762 13.7869C27.2846 13.5786 28.7159 13.5786 30.1243 13.7869L30.8593 16.4272C30.8938 16.5512 30.9589 16.6645 31.0488 16.7566C31.1386 16.8488 31.2503 16.9168 31.3734 16.9544C32.0845 17.1716 32.7731 17.457 33.4296 17.8064C33.5432 17.8667 33.6702 17.8975 33.7989 17.8958C33.9275 17.894 34.0537 17.8599 34.1657 17.7966L36.5489 16.4502C37.6934 17.2973 38.7059 18.3094 39.5535 19.4536L38.2038 21.8379C38.1399 21.9504 38.1057 22.0773 38.1044 22.2066C38.103 22.3359 38.1346 22.4635 38.1961 22.5773C38.5462 23.2316 38.8309 23.9189 39.046 24.6291C39.0834 24.7526 39.1515 24.8645 39.2439 24.9546C39.3362 25.0447 39.4499 25.1099 39.5742 25.1443L42.2156 25.876C42.4227 27.2844 42.4227 28.7156 42.2156 30.124ZM52.1676 30.3001C51.7127 30.3001 51.268 30.1652 50.8897 29.9125C50.5115 29.6597 50.2166 29.3005 50.0426 28.8802C49.8685 28.4599 49.8229 27.9974 49.9117 27.5513C50.0004 27.1051 50.2195 26.6952 50.5412 26.3736C50.8628 26.0519 51.2727 25.8328 51.7189 25.7441C52.1651 25.6553 52.6275 25.7009 53.0478 25.875C53.4681 26.0491 53.8274 26.3439 54.0801 26.7221C54.3328 27.1004 54.4677 27.5451 54.4677 28C54.4672 28.6099 54.2247 29.1946 53.7934 29.6258C53.3622 30.0571 52.7775 30.2996 52.1676 30.3001ZM28.0002 18.7667C26.1741 18.7667 24.3889 19.3082 22.8704 20.3228C21.352 21.3374 20.1686 22.7794 19.4697 24.4666C18.7709 26.1537 18.588 28.0102 18.9443 29.8013C19.3005 31.5924 20.1799 33.2376 21.4713 34.5289C22.7626 35.8202 24.4078 36.6996 26.1989 37.0559C27.99 37.4122 29.8465 37.2293 31.5337 36.5305C33.2209 35.8316 34.6629 34.6482 35.6775 33.1298C36.6921 31.6113 37.2336 29.8262 37.2336 28C37.2309 25.552 36.2572 23.2051 34.5262 21.4741C32.7952 19.7431 30.4482 18.7694 28.0002 18.7667ZM28.0002 35.701C26.4771 35.701 24.9882 35.2493 23.7218 34.4031C22.4553 33.5569 21.4683 32.3542 20.8854 30.947C20.3025 29.5399 20.15 27.9915 20.4472 26.4976C20.7443 25.0038 21.4778 23.6316 22.5548 22.5546C23.6318 21.4776 25.004 20.7441 26.4978 20.447C27.9917 20.1498 29.5401 20.3024 30.9473 20.8852C32.3545 21.4681 33.5572 22.4551 34.4034 23.7216C35.2496 24.988 35.7013 26.4769 35.7013 28C35.6992 30.0418 34.8872 31.9994 33.4434 33.4431C31.9996 34.8869 30.042 35.6989 28.0002 35.701ZM28.0002 18.7667C26.1741 18.7667 24.3889 19.3082 22.8704 20.3228C21.352 21.3374 20.1686 22.7794 19.4697 24.4666C18.7709 26.1537 18.588 28.0102 18.9443 29.8013C19.3005 31.5924 20.1799 33.2376 21.4713 34.5289C22.7626 35.8202 24.4078 36.6996 26.1989 37.0559C27.99 37.4122 29.8465 37.2293 31.5337 36.5305C33.2209 35.8316 34.6629 34.6482 35.6775 33.1298C36.6921 31.6113 37.2336 29.8262 37.2336 28C37.2309 25.552 36.2572 23.2051 34.5262 21.4741C32.7952 19.7431 30.4482 18.7694 28.0002 18.7667ZM28.0002 35.701C26.4771 35.701 24.9882 35.2493 23.7218 34.4031C22.4553 33.5569 21.4683 32.3542 20.8854 30.947C20.3025 29.5399 20.15 27.9915 20.4472 26.4976C20.7443 25.0038 21.4778 23.6316 22.5548 22.5546C23.6318 21.4776 25.004 20.7441 26.4978 20.447C27.9917 20.1498 29.5401 20.3024 30.9473 20.8852C32.3545 21.4681 33.5572 22.4551 34.4034 23.7216C35.2496 24.988 35.7013 26.4769 35.7013 28C35.6992 30.0418 34.8872 31.9994 33.4434 33.4431C31.9996 34.8869 30.042 35.6989 28.0002 35.701ZM28.0002 18.7667C26.1741 18.7667 24.3889 19.3082 22.8704 20.3228C21.352 21.3374 20.1686 22.7794 19.4697 24.4666C18.7709 26.1537 18.588 28.0102 18.9443 29.8013C19.3005 31.5924 20.1799 33.2376 21.4713 34.5289C22.7626 35.8202 24.4078 36.6996 26.1989 37.0559C27.99 37.4122 29.8465 37.2293 31.5337 36.5305C33.2209 35.8316 34.6629 34.6482 35.6775 33.1298C36.6921 31.6113 37.2336 29.8262 37.2336 28C37.2309 25.552 36.2572 23.2051 34.5262 21.4741C32.7952 19.7431 30.4482 18.7694 28.0002 18.7667ZM28.0002 35.701C26.4771 35.701 24.9882 35.2493 23.7218 34.4031C22.4553 33.5569 21.4683 32.3542 20.8854 30.947C20.3025 29.5399 20.15 27.9915 20.4472 26.4976C20.7443 25.0038 21.4778 23.6316 22.5548 22.5546C23.6318 21.4776 25.004 20.7441 26.4978 20.447C27.9917 20.1498 29.5401 20.3024 30.9473 20.8852C32.3545 21.4681 33.5572 22.4551 34.4034 23.7216C35.2496 24.988 35.7013 26.4769 35.7013 28C35.6992 30.0418 34.8872 31.9994 33.4434 33.4431C31.9996 34.8869 30.042 35.6989 28.0002 35.701ZM28.0002 18.7667C26.1741 18.7667 24.3889 19.3082 22.8704 20.3228C21.352 21.3374 20.1686 22.7794 19.4697 24.4666C18.7709 26.1537 18.588 28.0102 18.9443 29.8013C19.3005 31.5924 20.1799 33.2376 21.4713 34.5289C22.7626 35.8202 24.4078 36.6996 26.1989 37.0559C27.99 37.4122 29.8465 37.2293 31.5337 36.5305C33.2209 35.8316 34.6629 34.6482 35.6775 33.1298C36.6921 31.6113 37.2336 29.8262 37.2336 28C37.2309 25.552 36.2572 23.2051 34.5262 21.4741C32.7952 19.7431 30.4482 18.7694 28.0002 18.7667ZM28.0002 35.701C26.4771 35.701 24.9882 35.2493 23.7218 34.4031C22.4553 33.5569 21.4683 32.3542 20.8854 30.947C20.3025 29.5399 20.15 27.9915 20.4472 26.4976C20.7443 25.0038 21.4778 23.6316 22.5548 22.5546C23.6318 21.4776 25.004 20.7441 26.4978 20.447C27.9917 20.1498 29.5401 20.3024 30.9473 20.8852C32.3545 21.4681 33.5572 22.4551 34.4034 23.7216C35.2496 24.988 35.7013 26.4769 35.7013 28C35.6992 30.0418 34.8872 31.9994 33.4434 33.4431C31.9996 34.8869 30.042 35.6989 28.0002 35.701ZM28.0002 18.7667C26.1741 18.7667 24.3889 19.3082 22.8704 20.3228C21.352 21.3374 20.1686 22.7794 19.4697 24.4666C18.7709 26.1537 18.588 28.0102 18.9443 29.8013C19.3005 31.5924 20.1799 33.2376 21.4713 34.5289C22.7626 35.8202 24.4078 36.6996 26.1989 37.0559C27.99 37.4122 29.8465 37.2293 31.5337 36.5305C33.2209 35.8316 34.6629 34.6482 35.6775 33.1298C36.6921 31.6113 37.2336 29.8262 37.2336 28C37.2309 25.552 36.2572 23.2051 34.5262 21.4741C32.7952 19.7431 30.4482 18.7694 28.0002 18.7667ZM28.0002 35.701C26.4771 35.701 24.9882 35.2493 23.7218 34.4031C22.4553 33.5569 21.4683 32.3542 20.8854 30.947C20.3025 29.5399 20.15 27.9915 20.4472 26.4976C20.7443 25.0038 21.4778 23.6316 22.5548 22.5546C23.6318 21.4776 25.004 20.7441 26.4978 20.447C27.9917 20.1498 29.5401 20.3024 30.9473 20.8852C32.3545 21.4681 33.5572 22.4551 34.4034 23.7216C35.2496 24.988 35.7013 26.4769 35.7013 28C35.6992 30.0418 34.8872 31.9994 33.4434 33.4431C31.9996 34.8869 30.042 35.6989 28.0002 35.701ZM28.0002 18.7667C26.1741 18.7667 24.3889 19.3082 22.8704 20.3228C21.352 21.3374 20.1686 22.7794 19.4697 24.4666C18.7709 26.1537 18.588 28.0102 18.9443 29.8013C19.3005 31.5924 20.1799 33.2376 21.4713 34.5289C22.7626 35.8202 24.4078 36.6996 26.1989 37.0559C27.99 37.4122 29.8465 37.2293 31.5337 36.5305C33.2209 35.8316 34.6629 34.6482 35.6775 33.1298C36.6921 31.6113 37.2336 29.8262 37.2336 28C37.2309 25.552 36.2572 23.2051 34.5262 21.4741C32.7952 19.7431 30.4482 18.7694 28.0002 18.7667ZM28.0002 35.701C26.4771 35.701 24.9882 35.2493 23.7218 34.4031C22.4553 33.5569 21.4683 32.3542 20.8854 30.947C20.3025 29.5399 20.15 27.9915 20.4472 26.4976C20.7443 25.0038 21.4778 23.6316 22.5548 22.5546C23.6318 21.4776 25.004 20.7441 26.4978 20.447C27.9917 20.1498 29.5401 20.3024 30.9473 20.8852C32.3545 21.4681 33.5572 22.4551 34.4034 23.7216C35.2496 24.988 35.7013 26.4769 35.7013 28C35.6992 30.0418 34.8872 31.9994 33.4434 33.4431C31.9996 34.8869 30.042 35.6989 28.0002 35.701Z" fill="white"/>
<path d="M31.8149 28L31.8149 27.9991C31.8137 26.9879 31.4115 26.0185 30.6965 25.3035C29.9815 24.5885 29.0121 24.1863 28.0009 24.1851H28C27.2455 24.1851 26.5079 24.4088 25.8805 24.828C25.2532 25.2472 24.7642 25.843 24.4755 26.5401C24.1867 27.2372 24.1112 28.0042 24.2584 28.7442C24.4056 29.4843 24.7689 30.164 25.3024 30.6975C25.836 31.2311 26.5157 31.5944 27.2557 31.7416C27.9958 31.8888 28.7628 31.8133 29.4599 31.5245C30.157 31.2358 30.7528 30.7468 31.172 30.1194C31.5912 29.4921 31.8149 28.7545 31.8149 28Z" stroke="#53DBEE" stroke-width="1.5"/>
</svg>
