<svg width="54" height="44" viewBox="0 0 54 44" fill="none" xmlns="http://www.w3.org/2000/svg">
<path d="M52.1505 40.8682H3.41472V1.56539C3.41472 1.15022 3.24979 0.75206 2.95622 0.458492C2.66266 0.164925 2.26449 0 1.84933 0C1.43416 0 1.036 0.164925 0.742428 0.458492C0.44886 0.75206 0.283936 1.15022 0.283936 1.56539L0.283936 42.4346C0.283936 42.8498 0.44886 43.2479 0.742428 43.5415C1.036 43.8351 1.43416 44 1.84933 44H52.1505C52.5657 44 52.9639 43.8351 53.2574 43.5415C53.551 43.2479 53.7159 42.8498 53.7159 42.4346C53.7159 42.0194 53.551 41.6213 53.2574 41.3277C52.9639 41.0341 52.5657 40.8692 52.1505 40.8692V40.8682Z" fill="white"/>
<path d="M8.84151 35.8788C9.01269 35.9931 9.20472 36.0725 9.40662 36.1125C9.60852 36.1524 9.81633 36.1522 10.0181 36.1118C10.22 36.0714 10.4118 35.9916 10.5827 35.8769C10.7537 35.7622 10.9003 35.615 11.0143 35.4436L22.8257 17.7317L31.02 21.8299C31.3406 21.9906 31.7067 22.0363 32.057 21.9593C32.4073 21.8824 32.7205 21.6875 32.9444 21.4073L42.7239 9.1753V12.5691C42.7239 12.9842 42.8888 13.3824 43.1824 13.676C43.4759 13.9695 43.8741 14.1345 44.2893 14.1345C44.7044 14.1345 45.1026 13.9695 45.3962 13.676C45.6897 13.3824 45.8547 12.9842 45.8547 12.5691V4.70976C45.8552 4.7063 45.8552 4.70279 45.8547 4.69933C45.8547 4.66802 45.8547 4.63776 45.8547 4.60749C45.8547 4.57723 45.8547 4.56366 45.8547 4.54175C45.8547 4.51983 45.8484 4.49896 45.8453 4.47704C45.8211 4.31637 45.7721 4.16042 45.7002 4.01473C45.6499 3.91249 45.5883 3.81622 45.5165 3.72774L45.5061 3.71313C45.4894 3.6933 45.4706 3.67452 45.4529 3.65469L45.4017 3.59834L45.3569 3.55868C45.3329 3.53676 45.3089 3.51381 45.2838 3.49398L45.2765 3.48667L45.2379 3.45954C45.2118 3.43971 45.1857 3.41988 45.1586 3.40214C45.1314 3.3844 45.121 3.37918 45.1022 3.3677C45.0834 3.35622 45.0521 3.33744 45.026 3.32387L44.9603 3.29256L44.8872 3.25917L44.8152 3.23308C44.7912 3.22473 44.7683 3.21638 44.7432 3.20908L44.665 3.1882L44.595 3.17255L44.5074 3.15898L44.4437 3.15063H44.3446H44.2976H36.431C36.2254 3.15063 36.0219 3.19112 35.832 3.26979C35.642 3.34846 35.4695 3.46377 35.3241 3.60913C35.1787 3.75449 35.0634 3.92705 34.9848 4.11698C34.9061 4.3069 34.8656 4.51046 34.8656 4.71603C34.8656 4.9216 34.9061 5.12515 34.9848 5.31507C35.0634 5.505 35.1787 5.67756 35.3241 5.82292C35.4695 5.96828 35.642 6.08359 35.832 6.16226C36.0219 6.24093 36.2254 6.28142 36.431 6.28142H41.0322L31.284 18.4612L22.9853 14.3119C22.6439 14.141 22.2518 14.1007 21.8828 14.1987C21.5137 14.2968 21.1932 14.5263 20.9816 14.8441L8.40633 33.7081C8.29237 33.8792 8.21323 34.0711 8.17342 34.2728C8.13362 34.4745 8.13393 34.682 8.17434 34.8836C8.21475 35.0851 8.29447 35.2768 8.40894 35.4475C8.52342 35.6183 8.6704 35.7648 8.84151 35.8788Z" fill="#53DBEE"/>
</svg>
