<svg width="58" height="54" viewBox="0 0 58 54" fill="none" xmlns="http://www.w3.org/2000/svg">
<path d="M43.087 54C42.932 54 42.777 53.9695 42.6315 53.9085C42.0727 53.6713 29 48.0225 29 36.4759V26.6643C29 26.1595 29.3217 25.7134 29.7983 25.5514L42.7113 21.1915C42.9555 21.1093 43.2208 21.1093 43.4626 21.1915L56.3757 25.5514C56.8523 25.7111 57.1739 26.1595 57.1739 26.6643V36.4759C57.1739 48.0225 44.1012 53.6713 43.5424 53.9085C43.3969 53.9695 43.2419 54 43.087 54ZM31.3478 27.5095V36.4759C31.3478 45.36 40.8683 50.4642 43.087 51.5325C45.3033 50.4619 54.8261 45.3366 54.8261 36.4759V27.5095L43.087 23.544L31.3478 27.5095Z" fill="white"/>
<path d="M41.9134 42.2609C41.8922 42.2609 41.8688 42.2609 41.85 42.2585C41.5142 42.2397 41.2067 42.0824 40.9977 41.8195L36.3021 35.9499C35.8982 35.4428 35.9781 34.7056 36.4852 34.2994C36.9947 33.9003 37.7295 33.9801 38.1357 34.4825L42.0096 39.3261L49.2996 32.0384C49.7575 31.5806 50.5017 31.5806 50.9595 32.0384C51.4174 32.4963 51.4174 33.2405 50.9595 33.6984L42.7422 41.9157C42.5238 42.1364 42.2233 42.2609 41.9134 42.2609Z" fill="#53DBEE"/>
<path d="M44.261 16.4348H9.04356C4.51226 16.4348 0.826172 12.7487 0.826172 8.21739C0.826172 3.68609 4.51226 0 9.04356 0H44.261C48.7923 0 52.4783 3.68609 52.4783 8.21739C52.4783 12.7487 48.7923 16.4348 44.261 16.4348ZM9.04356 2.34783C5.80591 2.34783 3.174 4.97974 3.174 8.21739C3.174 11.455 5.80591 14.087 9.04356 14.087H44.261C47.4986 14.087 50.1305 11.455 50.1305 8.21739C50.1305 4.97974 47.4986 2.34783 44.261 2.34783H9.04356Z" fill="white"/>
<path d="M11.3914 11.739C9.44972 11.739 7.86963 10.1589 7.86963 8.2173C7.86963 6.27564 9.44972 4.69556 11.3914 4.69556C13.333 4.69556 14.9131 6.27564 14.9131 8.2173C14.9131 10.1589 13.333 11.739 11.3914 11.739ZM11.3914 7.04338C10.7457 7.04338 10.2175 7.57164 10.2175 8.2173C10.2175 8.86295 10.7457 9.39121 11.3914 9.39121C12.037 9.39121 12.5653 8.86295 12.5653 8.2173C12.5653 7.57164 12.037 7.04338 11.3914 7.04338Z" fill="#53DBEE"/>
<path d="M23.1306 11.739C21.189 11.739 19.6089 10.1589 19.6089 8.2173C19.6089 6.27564 21.189 4.69556 23.1306 4.69556C25.0723 4.69556 26.6524 6.27564 26.6524 8.2173C26.6524 10.1589 25.0723 11.739 23.1306 11.739ZM23.1306 7.04338C22.485 7.04338 21.9567 7.57164 21.9567 8.2173C21.9567 8.86295 22.485 9.39121 23.1306 9.39121C23.7763 9.39121 24.3045 8.86295 24.3045 8.2173C24.3045 7.57164 23.7763 7.04338 23.1306 7.04338Z" fill="#53DBEE"/>
<path d="M23.1305 30.5217H9.04356C4.51226 30.5217 0.826172 26.8356 0.826172 22.3043C0.826172 20.1114 1.68078 18.05 3.23504 16.4958C4.7893 14.9415 6.85069 14.0869 9.04356 14.0869H44.261C46.097 14.0869 47.8273 14.6762 49.2571 15.7914C49.769 16.1906 49.8605 16.9278 49.4614 17.4396C49.0623 17.9491 48.325 18.0407 47.8132 17.6439C46.799 16.8527 45.571 16.4347 44.261 16.4347H9.04356C7.47991 16.4347 6.00548 17.0475 4.89495 18.1557C3.78443 19.2639 3.174 20.7407 3.174 22.3043C3.174 25.542 5.80591 28.1739 9.04356 28.1739H23.1305C23.7785 28.1739 24.3044 28.6998 24.3044 29.3478C24.3044 29.9958 23.7785 30.5217 23.1305 30.5217Z" fill="white"/>
<path d="M11.3914 25.8262C9.44972 25.8262 7.86963 24.2461 7.86963 22.3045C7.86963 20.3628 9.44972 18.7827 11.3914 18.7827C13.333 18.7827 14.9131 20.3628 14.9131 22.3045C14.9131 24.2461 13.333 25.8262 11.3914 25.8262ZM11.3914 21.1305C10.7457 21.1305 10.2175 21.6588 10.2175 22.3045C10.2175 22.9501 10.7457 23.4784 11.3914 23.4784C12.037 23.4784 12.5653 22.9501 12.5653 22.3045C12.5653 21.6588 12.037 21.1305 11.3914 21.1305Z" fill="#53DBEE"/>
<path d="M23.1306 25.8262C21.189 25.8262 19.6089 24.2461 19.6089 22.3045C19.6089 20.3628 21.189 18.7827 23.1306 18.7827C25.0723 18.7827 26.6524 20.3628 26.6524 22.3045C26.6524 24.2461 25.0723 25.8262 23.1306 25.8262ZM23.1306 21.1305C22.485 21.1305 21.9567 21.6588 21.9567 22.3045C21.9567 22.9501 22.485 23.4784 23.1306 23.4784C23.7763 23.4784 24.3045 22.9501 24.3045 22.3045C24.3045 21.6588 23.7763 21.1305 23.1306 21.1305Z" fill="#53DBEE"/>
<path d="M23.1305 44.6086H9.04356C4.51226 44.6086 0.826172 40.9225 0.826172 36.3912C0.826172 34.1984 1.68078 32.137 3.23504 30.5827C4.7893 29.0284 6.85069 28.1738 9.04356 28.1738H23.1305C23.7785 28.1738 24.3044 28.6997 24.3044 29.3477C24.3044 29.9957 23.7785 30.5217 23.1305 30.5217H9.04356C7.47991 30.5217 6.00548 31.1344 4.89495 32.2426C3.78443 33.3508 3.174 34.8276 3.174 36.3912C3.174 39.6289 5.80591 42.2608 9.04356 42.2608H23.1305C23.7785 42.2608 24.3044 42.7867 24.3044 43.4347C24.3044 44.0827 23.7785 44.6086 23.1305 44.6086Z" fill="white"/>
<path d="M11.3914 39.913C9.44972 39.913 7.86963 38.3329 7.86963 36.3912C7.86963 34.4496 9.44972 32.8695 11.3914 32.8695C13.333 32.8695 14.9131 34.4496 14.9131 36.3912C14.9131 38.3329 13.333 39.913 11.3914 39.913ZM11.3914 35.2173C10.7457 35.2173 10.2175 35.7456 10.2175 36.3912C10.2175 37.0369 10.7457 37.5652 11.3914 37.5652C12.037 37.5652 12.5653 37.0369 12.5653 36.3912C12.5653 35.7456 12.037 35.2173 11.3914 35.2173Z" fill="#53DBEE"/>
<path d="M23.1306 39.913C21.189 39.913 19.6089 38.3329 19.6089 36.3912C19.6089 34.4496 21.189 32.8695 23.1306 32.8695C25.0723 32.8695 26.6524 34.4496 26.6524 36.3912C26.6524 38.3329 25.0723 39.913 23.1306 39.913ZM23.1306 35.2173C22.485 35.2173 21.9567 35.7456 21.9567 36.3912C21.9567 37.0369 22.485 37.5652 23.1306 37.5652C23.7763 37.5652 24.3045 37.0369 24.3045 36.3912C24.3045 35.7456 23.7763 35.2173 23.1306 35.2173Z" fill="#53DBEE"/>
</svg>
