<svg width="50" height="52" viewBox="0 0 50 52" fill="none" xmlns="http://www.w3.org/2000/svg">
<path d="M26.4878 26.7329C20.6238 21.1505 11.9959 20.3271 7.19554 24.8952C2.3952 29.4634 3.26799 37.6982 9.13205 43.2805C14.9961 48.8628 23.624 49.695 28.4153 45.1268C33.2065 40.5587 32.3428 32.3239 26.4878 26.7329ZM25.8423 42.6737C22.4785 45.881 16.1326 45.0575 11.6959 40.8361C7.25919 36.6146 6.40458 30.5556 9.76846 27.3483C13.1323 24.1411 19.4873 24.9646 23.9149 29.186C28.3425 33.4074 29.2062 39.4578 25.8423 42.6737Z" fill="#373D57"/>
<path d="M20.5238 45.4884C22.7405 45.546 24.8885 44.7521 26.4852 43.285C30.2073 39.7353 29.3427 33.1371 24.5569 28.5741C19.7711 24.0112 12.8487 23.1868 9.12756 26.7356C5.40639 30.2844 6.27099 36.8826 11.0568 41.4456C13.5373 43.9207 16.9354 45.3718 20.5238 45.4884ZM10.4131 27.9613C11.6705 26.813 13.3596 26.1954 15.0998 26.2476C18.2044 26.3754 21.135 27.65 23.2713 29.8016C27.3471 33.6884 28.2135 39.1875 25.1996 42.061C22.1858 44.9345 16.419 44.1067 12.3414 40.2207C8.26386 36.3348 7.40108 30.8339 10.4131 27.9613Z" fill="white"/>
<path d="M0.0969746 33.8547C-0.186805 36.25 0.154546 38.675 1.09068 40.9141C1.20575 41.2066 1.47702 41.4175 1.80072 41.466C2.12443 41.5145 2.45047 41.3932 2.65415 41.1485C2.85782 40.9037 2.9076 40.5734 2.78444 40.2839C1.95919 38.3137 1.65569 36.18 1.90074 34.0714C2.03035 33.0397 2.32981 32.034 2.78808 31.0913C2.97348 30.7161 3.1893 30.3553 3.43358 30.0121C3.18679 31.2587 3.13014 32.5328 3.26538 33.7949C3.73657 37.634 5.58005 41.2013 8.48576 43.8968C11.3129 46.6672 15.0544 48.4249 19.0811 48.8741C19.5775 48.9209 20.0672 48.9443 20.5503 48.9443C21.3879 48.9448 22.2238 48.8702 23.0468 48.7216C18.4574 51.5639 11.4778 50.4257 6.55744 45.7354C6.2007 45.4069 5.63366 45.4116 5.28297 45.7459C4.93227 46.0803 4.92735 46.6209 5.27189 46.961C8.43777 50.0841 12.7659 51.8933 17.32 51.9973C20.4954 52.064 23.566 50.9129 25.8434 48.8022L29.0572 45.738C31.6175 43.2111 32.8295 39.7089 32.3493 36.2255C31.8791 32.3863 30.0354 28.819 27.1289 26.1244C24.3026 23.3534 20.5611 21.5957 16.5345 21.1471C12.8811 20.689 9.20792 21.8442 6.55744 24.285L3.34175 27.3483C2.44369 28.2311 1.70077 29.2462 1.14159 30.3545C0.60249 31.4616 0.249949 32.6428 0.0969746 33.8547ZM15.0699 22.8088C15.4977 22.8089 15.9252 22.8294 16.3509 22.8703C19.9609 23.2783 23.3132 24.8597 25.8434 27.3483C28.4525 29.7604 30.111 32.9554 30.5401 36.3962C30.9614 39.3618 29.9423 42.3488 27.7717 44.5105C25.5048 46.5802 22.3721 47.5519 19.262 47.15C15.6531 46.7404 12.3019 45.1592 9.77131 42.672C7.16263 40.2593 5.50422 37.0641 5.0746 33.6233C4.65313 30.6577 5.67223 27.6706 7.84298 25.509C9.77372 23.7199 12.3783 22.7467 15.0699 22.8088Z" fill="white"/>
<path d="M3.63246 44.5438C3.13035 44.5462 2.72127 44.1601 2.71876 43.6813C2.71625 43.2026 3.12126 42.8126 3.62337 42.8102H3.63246C4.13458 42.8102 4.54162 43.1983 4.54162 43.677C4.54162 44.1557 4.13458 44.5438 3.63246 44.5438Z" fill="white"/>
<path d="M8.14908 3.69691C5.84073 3.16468 3.85422 3.55388 2.55504 4.79344C1.25585 6.03299 0.847641 7.92613 1.40495 10.127C2.05269 12.3852 3.3287 14.4344 5.09795 16.0578C7.65722 18.4988 10.6874 19.8181 13.224 19.8172C14.5923 19.8651 15.9228 19.3836 16.9133 18.4823C19.5117 16.0032 18.3953 11.0554 14.3677 7.21794C12.6661 5.53069 10.5172 4.314 8.14908 3.69691ZM15.6278 17.2566C13.8095 18.9859 9.57918 17.8781 6.38349 14.8295C4.85008 13.4313 3.74098 11.6644 3.17326 9.71525C2.76869 8.12376 3.00689 6.80966 3.84058 6.01479C4.4887 5.44932 5.34804 5.15601 6.2253 5.20084C6.73024 5.20537 7.23285 5.26676 7.72268 5.38374C9.76718 5.92523 11.6204 6.98299 13.0867 8.44535C16.2787 11.4888 17.4434 15.5256 15.6278 17.2566Z" fill="white"/>
<path d="M48.2688 7.70439L45.5413 5.10392C42.2965 2.00764 35.777 3.38068 30.6993 8.22275C28.455 10.28 26.8359 12.8777 26.0135 15.7407C25.318 18.4868 25.819 20.8411 27.4245 22.3727H27.4291L30.1566 24.9732C31.3843 26.088 33.0327 26.682 34.7269 26.6202C37.918 26.6202 41.7519 24.9437 45.0003 21.8526C50.0725 17.0114 51.5126 10.7963 48.2688 7.70439ZM27.7809 16.1472C28.5251 13.5946 29.9774 11.2804 31.9849 9.44843C34.8233 6.74222 38.2999 5.21054 41.0128 5.21054C42.2066 5.15331 43.3745 5.55592 44.2539 6.32787C45.3922 7.41574 45.7222 9.18839 45.1813 11.3242C44.4388 13.8773 42.9877 16.1921 40.981 18.0248C36.767 22.0416 31.1494 23.4701 28.7074 21.1453C27.57 20.0592 27.2391 18.2839 27.7809 16.1472ZM31.7749 24.011C31.8476 24.011 31.9194 24.0188 31.994 24.0188C35.186 24.0188 39.0199 22.3424 42.2674 19.247C44.5109 17.1895 46.1296 14.5923 46.9523 11.7299C47.1638 10.9092 47.261 10.0654 47.2414 9.22046C49.2907 11.6753 47.7587 16.7618 43.7121 20.6252C39.6772 24.4739 34.3614 25.9397 31.7749 24.011Z" fill="white"/>
<path d="M22.0744 0C21.5723 0 21.1653 0.388089 21.1653 0.866821V3.46729C21.1653 3.94602 21.5723 4.33411 22.0744 4.33411C22.5766 4.33411 22.9836 3.94602 22.9836 3.46729V0.866821C22.9836 0.388089 22.5766 0 22.0744 0Z" fill="#53DBEE"/>
<path d="M21.1653 9.53516C21.1653 10.0139 21.5723 10.402 22.0744 10.402C22.5766 10.402 22.9836 10.0139 22.9836 9.53516V6.93469C22.9836 6.45596 22.5766 6.06787 22.0744 6.06787C21.5723 6.06787 21.1653 6.45596 21.1653 6.93469V9.53516Z" fill="#53DBEE"/>
<path d="M26.621 4.33411H23.8935C23.3914 4.33411 22.9844 4.7222 22.9844 5.20093C22.9844 5.67966 23.3914 6.06775 23.8935 6.06775H26.621C27.1231 6.06775 27.5302 5.67966 27.5302 5.20093C27.5302 4.7222 27.1231 4.33411 26.621 4.33411Z" fill="#53DBEE"/>
<path d="M20.258 4.33411H17.5305C17.0284 4.33411 16.6213 4.7222 16.6213 5.20093C16.6213 5.67966 17.0284 6.06775 17.5305 6.06775H20.258C20.7601 6.06775 21.1671 5.67966 21.1671 5.20093C21.1671 4.7222 20.7601 4.33411 20.258 4.33411Z" fill="#53DBEE"/>
<path d="M43.3504 31.4596C42.9954 31.1212 42.4199 31.1212 42.0649 31.4596L40.2466 33.1932C40.0102 33.4109 39.9154 33.7332 39.9986 34.0362C40.0818 34.3393 40.3301 34.576 40.648 34.6553C40.9658 34.7346 41.3039 34.6443 41.5321 34.4189L43.3504 32.6853C43.7054 32.3468 43.7054 31.7981 43.3504 31.4596Z" fill="#53DBEE"/>
<path d="M37.5192 35.7929L35.7009 37.5265C35.4646 37.7442 35.3698 38.0665 35.453 38.3695C35.5362 38.6726 35.7844 38.9093 36.1023 38.9886C36.4202 39.0679 36.7582 38.9776 36.9865 38.7522L38.8048 37.0186C39.1493 36.6785 39.1444 36.1378 38.7937 35.8034C38.443 35.4691 37.876 35.4644 37.5192 35.7929Z" fill="#53DBEE"/>
<path d="M41.5322 35.7929C41.1755 35.4644 40.6084 35.4691 40.2577 35.8034C39.907 36.1378 39.9021 36.6785 40.2467 37.0186L42.065 38.7522C42.4217 39.0807 42.9888 39.076 43.3395 38.7417C43.6901 38.4073 43.6951 37.8667 43.3505 37.5265L41.5322 35.7929Z" fill="#53DBEE"/>
<path d="M38.8063 33.1933L36.988 31.4596C36.6313 31.1311 36.0642 31.1358 35.7136 31.4702C35.3629 31.8046 35.3579 32.3452 35.7025 32.6853L37.5208 34.419C37.8775 34.7475 38.4446 34.7428 38.7953 34.4084C39.146 34.074 39.1509 33.5334 38.8063 33.1933Z" fill="#53DBEE"/>
<path d="M14.1178 37.1868C14.3336 37.2896 14.5834 37.3065 14.8122 37.2337C15.0411 37.1608 15.2302 37.0042 15.3379 36.7984L18.9745 29.8639C19.1989 29.4354 19.0166 28.9146 18.5672 28.7006C18.1178 28.4866 17.5715 28.6604 17.3471 29.0889L13.7105 36.0235C13.6026 36.2292 13.5849 36.4674 13.6613 36.6856C13.7377 36.9038 13.9019 37.0841 14.1178 37.1868Z" fill="#53DBEE"/>
<path d="M17.7547 39.7875C17.9705 39.8903 18.2203 39.9072 18.4492 39.8344C18.678 39.7615 18.8671 39.605 18.9748 39.3991L20.7931 35.9318C21.0176 35.5034 20.8352 34.9826 20.3858 34.7686C19.9364 34.5546 19.3902 34.7284 19.1657 35.1569L17.3474 38.6242C17.2395 38.8299 17.2219 39.0681 17.2982 39.2863C17.3746 39.5045 17.5389 39.6848 17.7547 39.7875Z" fill="#53DBEE"/>
<path d="M32.8071 13.721C32.9051 13.7212 33.0025 13.706 33.0953 13.6759L40.8095 11.2245C41.2865 11.073 41.5444 10.5815 41.3855 10.1267C41.2265 9.67191 40.711 9.42605 40.234 9.57757L32.5198 12.0315C32.0964 12.1657 31.8376 12.5729 31.909 12.9929C31.9804 13.4128 32.3609 13.7213 32.8071 13.721Z" fill="#53DBEE"/>
<path d="M37.0193 15.0957L33.1617 16.3223C32.8531 16.4203 32.6229 16.6678 32.5576 16.9716C32.4923 17.2754 32.602 17.5893 32.8453 17.7951C33.0887 18.0009 33.4286 18.0673 33.7372 17.9693L37.5938 16.7436C38.0709 16.5921 38.3287 16.1005 38.1698 15.6457C38.0109 15.1909 37.4954 14.9451 37.0183 15.0966L37.0193 15.0957Z" fill="#53DBEE"/>
</svg>
