<svg width="60" height="60" viewBox="0 0 60 60" fill="none" xmlns="http://www.w3.org/2000/svg">
    <path d="M30.6503 21.7798V38.9845C25.9142 38.9669 22.0832 35.1271 22.0832 30.3822C22.0832 25.6373 25.9142 21.7974 30.6503 21.7798Z" stroke="white" stroke-miterlimit="10" stroke-linecap="round" stroke-linejoin="round"/>
    <path d="M33.6817 28.7831V12.2814" stroke="white" stroke-miterlimit="10" stroke-linecap="round" stroke-linejoin="round"/>
    <path d="M47.7494 20.7168C44.7794 15.9368 39.6304 12.6593 33.6817 12.2814V28.8534L47.7494 20.7168Z" stroke="#A787FF" stroke-miterlimit="10" stroke-linecap="round" stroke-linejoin="round"/>
    <path d="M22.083 30.3823C22.083 35.1272 25.9141 38.967 30.6502 38.9846V47.9384C29.5431 47.8242 28.4711 47.6045 27.4342 47.297L26.6346 44.3094L23.6647 43.0968L21.837 44.4852L20.106 45.7944L15.4314 41.1198L16.9164 38.8879L17.9093 37.3854L16.7582 34.8548L15.159 34.4242L12.2505 33.6422V27.219L15.0008 26.5512L16.3189 26.2261L17.5842 23.59L16.5649 22.0523L15.2117 20.0226L20.1587 15.0756L24.0601 17.6062L26.6434 16.5606L27.5221 12.0002H30.6502V21.7712C25.9141 21.7975 22.083 25.6374 22.083 30.3823Z" stroke="white" stroke-miterlimit="10" stroke-linecap="round" stroke-linejoin="round"/>
    <path d="M16.5559 22.0611C16.5559 22.0696 16.5474 22.0696 16.5474 22.0782" stroke="white" stroke-miterlimit="10" stroke-linecap="round" stroke-linejoin="round"/>
    <path d="M42.3476 43.3866C40.1246 45.926 36.9701 47.6307 33.429 47.9822C33.1654 47.991 32.893 47.9997 32.6294 47.9997C31.9967 47.9997 31.3641 47.9646 30.749 47.9031V33.9759L30.9072 33.8881L33.7805 36.2781L35.3885 37.6137L42.3476 43.3866Z" stroke="white" stroke-miterlimit="10" stroke-linecap="round" stroke-linejoin="round"/>
</svg>