<svg width="60" height="60" viewBox="0 0 60 60" fill="none" xmlns="http://www.w3.org/2000/svg">
    <path d="M26.9966 42.6586C35.4627 42.6586 42.3259 35.7954 42.3259 27.3293C42.3259 18.8632 35.4627 12 26.9966 12C18.5305 12 11.6673 18.8632 11.6673 27.3293C11.6673 35.7954 18.5305 42.6586 26.9966 42.6586Z" stroke="white" stroke-miterlimit="10" stroke-linecap="round" stroke-linejoin="round"/>
    <path d="M19.199 21.1799C19.9733 21.1799 20.6009 20.5522 20.6009 19.7779C20.6009 19.0036 19.9733 18.376 19.199 18.376C18.4247 18.376 17.7971 19.0036 17.7971 19.7779C17.7971 20.5522 18.4247 21.1799 19.199 21.1799Z" stroke="white" stroke-miterlimit="10" stroke-linecap="round" stroke-linejoin="round"/>
    <path d="M35.4287 21.2411H23.9368C23.2615 21.2411 22.7089 20.6885 22.7089 20.0132V19.5424C22.7089 18.867 23.2615 18.3145 23.9368 18.3145H35.4185C36.0938 18.3145 36.6464 18.867 36.6464 19.5424V20.0132C36.6567 20.6885 36.1041 21.2411 35.4287 21.2411Z" stroke="white" stroke-miterlimit="10" stroke-linecap="round" stroke-linejoin="round"/>
    <path d="M19.199 28.3366C19.9733 28.3366 20.6009 27.7089 20.6009 26.9347C20.6009 26.1604 19.9733 25.5327 19.199 25.5327C18.4247 25.5327 17.7971 26.1604 17.7971 26.9347C17.7971 27.7089 18.4247 28.3366 19.199 28.3366Z" stroke="white" stroke-miterlimit="10" stroke-linecap="round" stroke-linejoin="round"/>
    <path d="M35.4287 28.3991H23.9368C23.2615 28.3991 22.7089 27.8465 22.7089 27.1711V26.7004C22.7089 26.025 23.2615 25.4724 23.9368 25.4724H35.4185C36.0938 25.4724 36.6464 26.025 36.6464 26.7004V27.1711C36.6567 27.8465 36.1041 28.3991 35.4287 28.3991Z" stroke="white" stroke-miterlimit="10" stroke-linecap="round" stroke-linejoin="round"/>
    <path d="M19.199 35.5546C19.9733 35.5546 20.6009 34.9269 20.6009 34.1527C20.6009 33.3784 19.9733 32.7507 19.199 32.7507C18.4247 32.7507 17.7971 33.3784 17.7971 34.1527C17.7971 34.9269 18.4247 35.5546 19.199 35.5546Z" stroke="white" stroke-miterlimit="10" stroke-linecap="round" stroke-linejoin="round"/>
    <path d="M35.4284 35.6159H23.9366C23.2612 35.6159 22.7086 35.0633 22.7086 34.3879V33.9172C22.7086 33.2418 23.2612 32.6892 23.9366 32.6892H35.4182C36.0936 32.6892 36.6462 33.2418 36.6462 33.9172V34.3879C36.6564 35.0633 36.1038 35.6159 35.4284 35.6159Z" stroke="white" stroke-miterlimit="10" stroke-linecap="round" stroke-linejoin="round"/>
    <path d="M47.1049 47.9998H31.7449C31.0695 47.9998 30.5169 47.4472 30.5169 46.7718V31.4118C30.5169 30.7364 31.0695 30.1838 31.7449 30.1838H47.1049C47.7803 30.1838 48.3328 30.7364 48.3328 31.4118V46.7718C48.3328 47.4472 47.7803 47.9998 47.1049 47.9998Z" fill="#22273C" stroke="#A787FF" stroke-miterlimit="10" stroke-linecap="round" stroke-linejoin="round"/>
    <path d="M34.436 41.7881L37.1785 44.4897L44.7919 34.3281" stroke="#A787FF" stroke-miterlimit="10" stroke-linecap="round" stroke-linejoin="round"/>
</svg>