
<svg width="60" height="60" viewBox="0 0 60 60" fill="none" xmlns="http://www.w3.org/2000/svg">
    <path d="M12.4939 48.5L47.5062 48.5C47.987 48.5 48.3737 48.1874 48.3737 47.7989L48.3737 42.6121L11.6264 42.6121L11.6264 47.7989C11.6264 48.1874 12.0236 48.5 12.4939 48.5Z" stroke="white" stroke-miterlimit="10" stroke-linecap="round" stroke-linejoin="round"/>
    <path d="M45.7057 23.267C45.7057 31.947 38.6714 38.9921 29.9806 38.9921C22.5913 38.9921 16.3959 33.8938 14.7072 27.0208H40.6827C41.8981 26.2356 42.8231 24.9019 42.8231 22.7077C42.8231 22.7077 38.0475 22.8153 35.4231 20.1908C35.4231 20.1908 37.4775 17.7708 41.2313 19.5778C41.1775 19.4917 38.6391 15.5443 40.9193 13.0059C41.0807 12.8231 41.242 12.651 41.4034 12.4896C44.0816 15.2862 45.7057 19.083 45.7057 23.267Z" stroke="white" stroke-miterlimit="10" stroke-linecap="round" stroke-linejoin="round"/>
    <path d="M41.4142 12.4677C41.2636 12.629 41.1023 12.8011 40.9302 12.9839C38.6392 15.5223 41.1776 19.4697 41.2421 19.5558C37.4883 17.7595 35.4339 20.1689 35.4339 20.1689C38.0584 22.7933 42.834 22.6857 42.834 22.6857C42.834 24.8907 41.909 26.2137 40.6936 26.9989H14.7181" stroke="white" stroke-miterlimit="10" stroke-linecap="round" stroke-linejoin="round"/>
    <path d="M31.6049 24.1911H28.5179C28.2168 24.1911 27.9801 23.9545 27.9801 23.6533V20.5664C27.9801 20.2652 28.2168 20.0286 28.5179 20.0286H31.6049C31.906 20.0286 32.1427 20.2652 32.1427 20.5664V23.6533C32.1427 23.9437 31.906 24.1911 31.6049 24.1911Z" stroke="#A787FF" stroke-miterlimit="10" stroke-linecap="round" stroke-linejoin="round"/>
    <path d="M25.3449 24.1911H22.2579C21.9568 24.1911 21.7201 23.9545 21.7201 23.6533V20.5664C21.7201 20.2652 21.9568 20.0286 22.2579 20.0286H25.3449C25.646 20.0286 25.8827 20.2652 25.8827 20.5664V23.6533C25.8827 23.9437 25.6353 24.1911 25.3449 24.1911Z" stroke="#A787FF" stroke-miterlimit="10" stroke-linecap="round" stroke-linejoin="round"/>
    <path d="M31.6049 17.813H28.5179C28.2168 17.813 27.9801 17.5764 27.9801 17.2752V14.1883C27.9801 13.8871 28.2168 13.6505 28.5179 13.6505H31.6049C31.906 13.6505 32.1427 13.8871 32.1427 14.1883V17.2752C32.1427 17.5764 31.906 17.813 31.6049 17.813Z" stroke="#A787FF" stroke-miterlimit="10" stroke-linecap="round" stroke-linejoin="round"/>
    <path d="M25.3449 17.813H22.2579C21.9568 17.813 21.7201 17.5764 21.7201 17.2752V14.1883C21.7201 13.8871 21.9568 13.6505 22.2579 13.6505H25.3449C25.646 13.6505 25.8827 13.8871 25.8827 14.1883V17.2752C25.8827 17.5764 25.6353 17.813 25.3449 17.813Z" stroke="#A787FF" stroke-miterlimit="10" stroke-linecap="round" stroke-linejoin="round"/>
    <path d="M18.8161 24.1911H15.7291C15.428 24.1911 15.1913 23.9545 15.1913 23.6533V20.5664C15.1913 20.2652 15.428 20.0286 15.7291 20.0286H18.8161C19.1172 20.0286 19.3539 20.2652 19.3539 20.5664V23.6533C19.3539 23.9437 19.1065 24.1911 18.8161 24.1911Z" stroke="#A787FF" stroke-miterlimit="10" stroke-linecap="round" stroke-linejoin="round"/>
    <path d="M25.6139 31.5052C26.1901 31.5052 26.6573 31.0381 26.6573 30.4619C26.6573 29.8857 26.1901 29.4186 25.6139 29.4186C25.0377 29.4186 24.5706 29.8857 24.5706 30.4619C24.5706 31.0381 25.0377 31.5052 25.6139 31.5052Z" stroke="white" stroke-miterlimit="10" stroke-linecap="round" stroke-linejoin="round"/>
</svg>