<svg width="120" height="120" viewBox="0 0 120 120" fill="none" xmlns="http://www.w3.org/2000/svg">
<path d="M29.9856 55.4167V49.6396" stroke="#A787FF" stroke-width="1.5" stroke-miterlimit="10" stroke-linecap="round" stroke-linejoin="round"/>
<path d="M48.7988 55.4167V49.6396" stroke="#A787FF" stroke-width="1.5" stroke-miterlimit="10" stroke-linecap="round" stroke-linejoin="round"/>
<path d="M69.2971 55.4167V49.6396" stroke="#A787FF" stroke-width="1.5" stroke-miterlimit="10" stroke-linecap="round" stroke-linejoin="round"/>
<path d="M88.1096 55.4167V49.6396" stroke="#A787FF" stroke-width="1.5" stroke-miterlimit="10" stroke-linecap="round" stroke-linejoin="round"/>
<path d="M61.0473 96.2071C60.997 96.4081 60.8964 96.5839 60.7455 96.7346L57.8531 99.6231C57.3501 100.125 56.5704 100.125 56.0674 99.6231L53.2002 96.7346C53.0493 96.5839 52.9486 96.4081 52.8983 96.2071C52.7726 95.7801 52.8732 95.3029 53.2002 94.9512L56.0925 92.0627C56.3692 91.7864 56.7213 91.6608 57.0986 91.711C57.3752 91.7362 57.6519 91.8617 57.8783 92.0627L60.7706 94.9512C61.0976 95.3029 61.1982 95.7801 61.0473 96.2071Z" stroke="white" stroke-width="1.5" stroke-miterlimit="10" stroke-linecap="round" stroke-linejoin="round"/>
<path d="M57.0737 91.7119V85.0557" stroke="white" stroke-width="1.5" stroke-miterlimit="10" stroke-linecap="round" stroke-linejoin="round"/>
<path d="M82.3249 96.208H61.0471" stroke="white" stroke-width="1.5" stroke-miterlimit="10" stroke-linecap="round" stroke-linejoin="round"/>
<path d="M52.8982 96.208H31.6204" stroke="white" stroke-width="1.5" stroke-miterlimit="10" stroke-linecap="round" stroke-linejoin="round"/>
<path d="M66.606 25.9027V29.6201C66.606 30.3234 67.1593 30.876 67.8635 30.876H93.7943V46.6248C93.7943 48.2826 92.4361 49.639 90.7762 49.639H27.0181C25.3582 49.639 24 48.2826 24 46.6248V23.0141C24 21.3564 25.3582 20 27.0181 20H90.8013C92.4613 20 93.8195 21.3564 93.8195 23.0141V24.6468H67.8635C67.1844 24.6468 66.606 25.1994 66.606 25.9027Z" stroke="white" stroke-width="1.5" stroke-miterlimit="10" stroke-linecap="round" stroke-linejoin="round"/>
<path d="M93.8198 38.9893H67.3105" stroke="white" stroke-width="1.5" stroke-miterlimit="10" stroke-linecap="round" stroke-linejoin="round"/>
<path d="M93.8192 24.6465V30.8757H67.8633C67.159 30.8757 66.6057 30.3231 66.6057 29.6198V25.9024C66.6057 25.1991 67.159 24.6465 67.8633 24.6465H93.8192Z" stroke="white" stroke-width="1.5" stroke-miterlimit="10" stroke-linecap="round" stroke-linejoin="round"/>
<path d="M31.5452 40.4961H40.0714" stroke="#A787FF" stroke-width="1.5" stroke-miterlimit="10" stroke-linecap="round" stroke-linejoin="round"/>
<path d="M31.5452 36.377H40.0714" stroke="#A787FF" stroke-width="1.5" stroke-miterlimit="10" stroke-linecap="round" stroke-linejoin="round"/>
<path d="M31.5452 32.2324H40.0714" stroke="#A787FF" stroke-width="1.5" stroke-miterlimit="10" stroke-linecap="round" stroke-linejoin="round"/>
<path d="M31.5452 28.1123H40.0714" stroke="#A787FF" stroke-width="1.5" stroke-miterlimit="10" stroke-linecap="round" stroke-linejoin="round"/>
<path d="M66.606 61.3187V65.0361C66.606 65.7394 67.1593 66.292 67.8635 66.292H93.7943V82.0409C93.7943 83.6986 92.4361 85.055 90.7762 85.055H27.0181C25.3582 85.055 24 83.6986 24 82.0409V58.4301C24 56.7724 25.3582 55.416 27.0181 55.416H90.8013C92.4613 55.416 93.8195 56.7724 93.8195 58.4301V60.0628H67.8635C67.1844 60.0628 66.606 60.6154 66.606 61.3187Z" stroke="white" stroke-width="1.5" stroke-miterlimit="10" stroke-linecap="round" stroke-linejoin="round"/>
<path d="M93.8198 74.4053H67.3105" stroke="white" stroke-width="1.5" stroke-miterlimit="10" stroke-linecap="round" stroke-linejoin="round"/>
<path d="M93.8192 60.0625V66.2917H67.8633C67.159 66.2917 66.6057 65.7391 66.6057 65.0358V61.3184C66.6057 60.6151 67.159 60.0625 67.8633 60.0625H93.8192Z" stroke="white" stroke-width="1.5" stroke-miterlimit="10" stroke-linecap="round" stroke-linejoin="round"/>
<path d="M31.5452 75.9121H40.0714" stroke="#A787FF" stroke-width="1.5" stroke-miterlimit="10" stroke-linecap="round" stroke-linejoin="round"/>
<path d="M31.5452 71.793H40.0714" stroke="#A787FF" stroke-width="1.5" stroke-miterlimit="10" stroke-linecap="round" stroke-linejoin="round"/>
<path d="M31.5452 67.6738H40.0714" stroke="#A787FF" stroke-width="1.5" stroke-miterlimit="10" stroke-linecap="round" stroke-linejoin="round"/>
<path d="M31.5452 63.5537H40.0714" stroke="#A787FF" stroke-width="1.5" stroke-miterlimit="10" stroke-linecap="round" stroke-linejoin="round"/>
<g filter="url(#filter0_d_271_2243)">
<ellipse cx="92.1219" cy="63.1229" rx="3.55549" ry="3.55549" fill="#A787FF"/>
</g>
<path d="M94 63H118" stroke="url(#paint0_linear_271_2243)" stroke-width="1.5" stroke-linecap="round"/>
<defs>
<filter id="filter0_d_271_2243" x="79.5664" y="50.5674" width="25.1111" height="25.1113" filterUnits="userSpaceOnUse" color-interpolation-filters="sRGB">
<feFlood flood-opacity="0" result="BackgroundImageFix"/>
<feColorMatrix in="SourceAlpha" type="matrix" values="0 0 0 0 0 0 0 0 0 0 0 0 0 0 0 0 0 0 127 0" result="hardAlpha"/>
<feMorphology radius="5" operator="dilate" in="SourceAlpha" result="effect1_dropShadow_271_2243"/>
<feOffset/>
<feGaussianBlur stdDeviation="2"/>
<feComposite in2="hardAlpha" operator="out"/>
<feColorMatrix type="matrix" values="0 0 0 0 0.654902 0 0 0 0 0.529412 0 0 0 0 1 0 0 0 0.281931 0"/>
<feBlend mode="normal" in2="BackgroundImageFix" result="effect1_dropShadow_271_2243"/>
<feBlend mode="normal" in="SourceGraphic" in2="effect1_dropShadow_271_2243" result="shape"/>
</filter>
<linearGradient id="paint0_linear_271_2243" x1="91.7674" y1="63.5" x2="118.558" y2="63.5" gradientUnits="userSpaceOnUse">
<stop stop-color="#A787FF"/>
<stop offset="0.718069" stop-color="#A787FF" stop-opacity="0.281931"/>
<stop offset="1" stop-color="#A787FF" stop-opacity="0"/>
</linearGradient>
</defs>
</svg>
