<svg width="120" height="120" viewBox="0 0 120 120" fill="none" xmlns="http://www.w3.org/2000/svg">
<path d="M92.2647 93.9991H27.8164C26.8225 93.9991 26 93.1766 26 92.1827V27.7344C26 26.7405 26.8225 25.918 27.8164 25.918H92.2819C93.2757 25.918 94.0983 26.7405 94.0983 27.7344V92.1998C94.0811 93.1766 93.2586 93.9991 92.2647 93.9991Z" stroke="white" stroke-width="1.5" stroke-miterlimit="10" stroke-linecap="round" stroke-linejoin="round"/>
<path d="M26 35.4287H43.3416H94.0811" stroke="white" stroke-width="1.5" stroke-miterlimit="10" stroke-linecap="round" stroke-linejoin="round"/>
<path d="M43.3416 93.9994V35.4287" stroke="white" stroke-width="1.5" stroke-miterlimit="10" stroke-linecap="round" stroke-linejoin="round"/>
<path d="M48.7224 55.4619H77.5794" stroke="white" stroke-width="1.5" stroke-miterlimit="10" stroke-linecap="round" stroke-linejoin="round"/>
<path d="M48.7224 61.5615H56.0737" stroke="white" stroke-width="1.5" stroke-miterlimit="10" stroke-linecap="round" stroke-linejoin="round"/>
<path d="M54.0003 48.5897L48.7224 43.9802L54.1716 39.9189" stroke="#A787FF" stroke-width="1.5" stroke-miterlimit="10" stroke-linecap="round" stroke-linejoin="round"/>
<path d="M65.2244 48.5897L70.4851 43.9802L65.0359 39.9189" stroke="#A787FF" stroke-width="1.5" stroke-miterlimit="10" stroke-linecap="round" stroke-linejoin="round"/>
<path d="M57.4104 47.8865L61.7972 40.5352" stroke="#A787FF" stroke-width="1.5" stroke-miterlimit="10" stroke-linecap="round" stroke-linejoin="round"/>
<path d="M31.6721 55.4619H37.6183" stroke="white" stroke-width="1.5" stroke-miterlimit="10" stroke-linecap="round" stroke-linejoin="round"/>
<path d="M31.6721 61.5615H37.6183" stroke="white" stroke-width="1.5" stroke-miterlimit="10" stroke-linecap="round" stroke-linejoin="round"/>
<path d="M31.6721 68.0557H37.6183" stroke="white" stroke-width="1.5" stroke-miterlimit="10" stroke-linecap="round" stroke-linejoin="round"/>
<path d="M31.6721 74.0186H37.6183" stroke="white" stroke-width="1.5" stroke-miterlimit="10" stroke-linecap="round" stroke-linejoin="round"/>
<g filter="url(#filter0_d_271_2253)">
<circle cx="34.9356" cy="44.1259" r="2.97855" transform="rotate(-90 34.9356 44.1259)" fill="#A787FF"/>
</g>
<path d="M35.0195 41.9639L35.0195 13.9997" stroke="url(#paint0_linear_271_2253)" stroke-width="1.5" stroke-linecap="round"/>
<path d="M68.2635 88.0595C68.1314 88.0595 67.9924 88.0248 67.8742 87.9554L66.6369 87.227C66.4492 87.123 66.5395 87.0883 66.6021 87.0675C66.8454 86.9843 66.901 86.9634 67.1582 86.8108C67.186 86.797 67.2208 86.8039 67.2486 86.8178L68.2009 87.3797C68.2357 87.4005 68.2844 87.4005 68.3191 87.3797L72.0243 85.2501C72.059 85.2293 72.0799 85.1876 72.0799 85.153V80.8868C72.0799 80.8452 72.059 80.8036 72.0243 80.7828L68.3261 78.6532C68.2913 78.6324 68.2496 78.6324 68.2148 78.6532L64.5166 80.7828C64.4819 80.8036 64.461 80.8452 64.461 80.8868V85.153C64.461 85.1946 64.4819 85.2293 64.5166 85.2501L65.5316 85.8328C66.0807 86.1102 66.4214 85.7842 66.4214 85.4582V81.2476C66.4214 81.1851 66.47 81.1435 66.5256 81.1435H66.9914C67.047 81.1435 67.0957 81.1921 67.0957 81.2476V85.4582C67.0957 86.1935 66.6925 86.6097 65.9973 86.6097C65.7818 86.6097 65.615 86.6097 65.1423 86.3808L64.1691 85.8189C63.9258 85.6801 63.7798 85.4235 63.7798 85.146V80.8799C63.7798 80.6024 63.9258 80.3458 64.1691 80.207L67.8742 78.0705C68.1106 77.9387 68.4234 77.9387 68.6528 78.0705L72.3579 80.207C72.5943 80.3458 72.7472 80.6024 72.7472 80.8799V85.146C72.7472 85.4235 72.6012 85.6801 72.3579 85.8189L68.6528 87.9554C68.5346 88.0248 68.4025 88.0595 68.2635 88.0595Z" fill="white"/>
<path d="M69.4105 85.1251C67.7908 85.1251 67.4502 84.3829 67.4502 83.7586C67.4502 83.6961 67.4989 83.6545 67.5545 83.6545H68.0341C68.0897 83.6545 68.1314 83.6961 68.1384 83.7447C68.2079 84.2303 68.4234 84.4731 69.4036 84.4731C70.1821 84.4731 70.5158 84.2996 70.5158 83.8834C70.5158 83.6476 70.4185 83.4672 69.2089 83.3493C68.194 83.2522 67.5684 83.0233 67.5684 82.2186C67.5684 81.4764 68.201 81.0324 69.2576 81.0324C70.4463 81.0324 71.0302 81.4417 71.1067 82.3227C71.1067 82.3504 71.0997 82.3851 71.0789 82.4059C71.058 82.4267 71.0302 82.4406 71.0024 82.4406H70.5228C70.4741 82.4406 70.4324 82.4059 70.4185 82.3574C70.3003 81.844 70.0223 81.6845 69.2645 81.6845C68.4095 81.6845 68.3122 81.9828 68.3122 82.2047C68.3122 82.4753 68.4304 82.5516 69.5774 82.7042C70.7174 82.8568 71.2527 83.0649 71.2527 83.8626C71.2527 84.6673 70.5784 85.1251 69.4105 85.1251ZM73.9151 80.6093H74.0402C74.1445 80.6093 74.1584 80.5399 74.1584 80.4983C74.1584 80.3873 74.0819 80.3873 74.0402 80.3873H73.9151V80.6093ZM73.7622 80.2555H74.0402C74.1375 80.2555 74.3183 80.2555 74.3183 80.4636C74.3183 80.6093 74.221 80.644 74.1654 80.6578C74.2766 80.6648 74.2835 80.7341 74.2974 80.8382C74.3044 80.9006 74.3183 81.0116 74.3391 81.0463H74.1723C74.1654 81.0116 74.1445 80.8035 74.1445 80.7966C74.1306 80.748 74.1167 80.7272 74.0611 80.7272H73.9221V81.0463H73.7691V80.2555H73.7622ZM73.4354 80.6578C73.4354 80.9908 73.7066 81.2544 74.0333 81.2544C74.3669 81.2544 74.6311 80.9839 74.6311 80.6578C74.6311 80.3249 74.36 80.0613 74.0333 80.0613C73.7066 80.0613 73.4285 80.3179 73.4354 80.6578ZM74.7423 80.6578C74.7423 81.0532 74.4226 81.3723 74.0263 81.3723C73.637 81.3723 73.3103 81.0532 73.3103 80.6578C73.3103 80.2555 73.644 79.9434 74.0263 79.9434C74.4156 79.9434 74.7423 80.2555 74.7423 80.6578Z" fill="white"/>
<path fill-rule="evenodd" clip-rule="evenodd" d="M56.8006 71.3761C56.8006 71.2027 56.7102 71.0501 56.5643 70.9669L52.6367 68.7124C52.5671 68.6708 52.4976 68.65 52.4212 68.65H52.3795C52.303 68.65 52.2265 68.6708 52.164 68.7124L48.2364 70.9669C48.0904 71.0501 48 71.2096 48 71.3761L48.007 77.4458C48.007 77.529 48.0487 77.6053 48.1251 77.647C48.1946 77.6886 48.285 77.6886 48.3615 77.647L50.6972 76.322C50.8432 76.2319 50.9335 76.0792 50.9335 75.9128V73.0756C50.9335 72.9092 51.0239 72.7496 51.1699 72.6664L52.164 72.0976C52.2404 72.0559 52.3169 72.0351 52.4003 72.0351C52.4837 72.0351 52.5671 72.0559 52.6367 72.0976L53.6307 72.6664C53.7767 72.7496 53.8671 72.9092 53.8671 73.0756V75.9128C53.8671 76.0792 53.9574 76.2388 54.1034 76.322L56.4391 77.6539C56.5156 77.6955 56.606 77.6955 56.6755 77.6539C56.745 77.6123 56.7937 77.536 56.7937 77.4527L56.8006 71.3761ZM75.3264 74.5393C75.3264 74.5809 75.3055 74.6225 75.2638 74.6433L73.9152 75.4203C73.8805 75.4411 73.8318 75.4411 73.7971 75.4203L72.4485 74.6433C72.4137 74.6225 72.3859 74.5809 72.3859 74.5393V72.9855C72.3859 72.9438 72.4067 72.9022 72.4415 72.8814L73.7901 72.1045C73.8249 72.0837 73.8735 72.0837 73.9083 72.1045L75.2569 72.8814C75.2916 72.9022 75.3194 72.9438 75.3194 72.9855L75.3264 74.5393ZM75.6879 63.0312C75.6114 62.9896 75.528 62.9896 75.4515 63.0312C75.382 63.0728 75.3333 63.1491 75.3333 63.2324V69.2465C75.3333 69.309 75.2986 69.3575 75.2499 69.3922C75.2013 69.42 75.1387 69.42 75.0831 69.3922L74.1029 68.8303C73.9569 68.7471 73.7762 68.7471 73.6302 68.8303L69.7026 71.0917C69.5566 71.175 69.4663 71.3345 69.4663 71.501V76.0238C69.4663 76.1902 69.5566 76.3498 69.7026 76.433L73.6302 78.6944C73.7762 78.7776 73.9569 78.7776 74.1029 78.6944L78.0305 76.433C78.1765 76.3498 78.2669 76.1902 78.2669 76.0238V64.7515C78.2669 64.5781 78.1765 64.4186 78.0236 64.3353L75.6879 63.0312ZM88.7637 72.9438C88.9096 72.8606 89 72.701 89 72.5346V71.4386C89 71.2721 88.9096 71.1125 88.7637 71.0293L84.8639 68.7679C84.7179 68.6847 84.5371 68.6847 84.3912 68.7679L80.4636 71.0293C80.3176 71.1125 80.2272 71.2721 80.2272 71.4386V75.9613C80.2272 76.1347 80.3176 76.2874 80.4636 76.3706L84.3633 78.5904C84.5093 78.6736 84.6831 78.6736 84.8291 78.5904L87.1857 77.2793C87.2621 77.2377 87.3038 77.1614 87.3038 77.0712C87.3038 76.988 87.2552 76.9047 87.1857 76.8631L83.2442 74.6156C83.1677 74.574 83.126 74.4977 83.126 74.4144V72.9924C83.126 72.9092 83.1677 72.8328 83.2442 72.7843L84.4746 72.0767C84.551 72.0351 84.6345 72.0351 84.7109 72.0767L85.9413 72.7843C86.0178 72.8259 86.0595 72.9022 86.0595 72.9855V74.1023C86.0595 74.1855 86.1082 74.2618 86.1777 74.3104C86.2542 74.352 86.3445 74.352 86.414 74.3104L88.7637 72.9438Z" fill="white"/>
<path fill-rule="evenodd" clip-rule="evenodd" d="M84.565 72.736C84.5929 72.7221 84.6276 72.7221 84.6554 72.736L85.4062 73.173C85.434 73.1869 85.4548 73.2216 85.4548 73.2493V74.1164C85.4548 74.1511 85.4409 74.1788 85.4062 74.1927L84.6554 74.6297C84.6276 74.6436 84.5929 74.6436 84.565 74.6297L83.8143 74.1927C83.7865 74.1788 83.7656 74.1442 83.7656 74.1164V73.2493C83.7656 73.2146 83.7795 73.1869 83.8143 73.173L84.565 72.736Z" fill="white"/>
<path d="M67.3114 70.9603L63.4046 68.7128C63.3282 68.6712 63.2517 68.6504 63.1683 68.6504C63.0849 68.6504 63.0084 68.6712 62.9319 68.7128L59.0252 70.9603C58.8792 71.0436 58.7888 71.2031 58.7888 71.3696V75.8716C58.7888 76.038 58.8792 76.1976 59.0252 76.2808L62.9319 78.5283C63.0779 78.6116 63.2586 78.6116 63.4046 78.5283L67.3114 76.2808C67.4573 76.1976 67.5477 76.038 67.5477 75.8716V71.3696C67.5477 71.2031 67.4573 71.0505 67.3114 70.9603Z" fill="white"/>
<defs>
<filter id="filter0_d_271_2253" x="22.957" y="32.1475" width="23.957" height="23.957" filterUnits="userSpaceOnUse" color-interpolation-filters="sRGB">
<feFlood flood-opacity="0" result="BackgroundImageFix"/>
<feColorMatrix in="SourceAlpha" type="matrix" values="0 0 0 0 0 0 0 0 0 0 0 0 0 0 0 0 0 0 127 0" result="hardAlpha"/>
<feMorphology radius="5" operator="dilate" in="SourceAlpha" result="effect1_dropShadow_271_2253"/>
<feOffset/>
<feGaussianBlur stdDeviation="2"/>
<feComposite in2="hardAlpha" operator="out"/>
<feColorMatrix type="matrix" values="0 0 0 0 0.654902 0 0 0 0 0.529412 0 0 0 0 1 0 0 0 0.281931 0"/>
<feBlend mode="normal" in2="BackgroundImageFix" result="effect1_dropShadow_271_2253"/>
<feBlend mode="normal" in="SourceGraphic" in2="effect1_dropShadow_271_2253" result="shape"/>
</filter>
<linearGradient id="paint0_linear_271_2253" x1="35.5195" y1="44.5652" x2="35.5195" y2="13.3494" gradientUnits="userSpaceOnUse">
<stop stop-color="#A787FF"/>
<stop offset="0.718069" stop-color="#A787FF" stop-opacity="0.281931"/>
<stop offset="1" stop-color="#A787FF" stop-opacity="0"/>
</linearGradient>
</defs>
</svg>
