<svg width="60" height="60" viewBox="0 0 60 60" fill="none" xmlns="http://www.w3.org/2000/svg">
    <path d="M35.0619 24.4689V16.3101" stroke="#A787FF" stroke-miterlimit="10" stroke-linecap="round" stroke-linejoin="round"/>
    <path d="M21.7023 31.0517H12.6945V10.5001H29.3868" stroke="#A787FF" stroke-miterlimit="10" stroke-linecap="round" stroke-linejoin="round"/>
    <path d="M35.0619 15.86V16.3105H29.3867V10.5001H29.702L35.0619 15.86Z" stroke="#A787FF" stroke-miterlimit="10" stroke-linecap="round" stroke-linejoin="round"/>
    <path d="M26.4565 19.4408C26.4565 20.9812 25.7359 22.3595 24.6099 23.2423L21.4299 19.4408H26.4565Z" stroke="#A787FF" stroke-miterlimit="10" stroke-linecap="round" stroke-linejoin="round"/>
    <path d="M24.601 23.2416C23.7812 23.8902 22.7362 24.2775 21.6102 24.2775C18.9347 24.2775 16.7728 22.1066 16.7728 19.4401C16.7728 16.8277 18.8447 14.7018 21.43 14.6027V19.4401L24.601 23.2416Z" stroke="#A787FF" stroke-miterlimit="10" stroke-linecap="round" stroke-linejoin="round"/>
    <path d="M26.4565 19.4401H21.4299V14.6027C21.493 14.6027 21.547 14.6027 21.6101 14.6027C24.2856 14.5937 26.4565 16.7647 26.4565 19.4401Z" stroke="#A787FF" stroke-miterlimit="10" stroke-linecap="round" stroke-linejoin="round"/>
    <path d="M47.3055 38.5335C47.3055 40.6477 45.7422 42.3866 43.7139 42.6731V48.3143C43.7139 48.9664 43.1796 49.4999 42.5266 49.4999H36.7483C36.8572 49.1343 36.9066 48.7391 36.9066 48.3341C36.9066 46.0222 35.0267 44.1451 32.7115 44.1451C30.3962 44.1451 28.5163 46.0222 28.5163 48.3341C28.5163 48.7391 28.5757 49.1244 28.6746 49.4999H22.926C22.273 49.4999 21.7387 48.9664 21.7387 48.3143V42.6829C19.6609 42.4359 18.058 40.6675 18.058 38.5335C18.058 36.3995 19.6609 34.6311 21.7387 34.3742V28.7428C21.7387 28.0907 22.273 27.5572 22.926 27.5572H28.546C28.6944 25.3837 30.5149 23.6647 32.7313 23.6647C34.9476 23.6647 36.7582 25.3837 36.9165 27.5572H42.5365C43.1895 27.5572 43.7238 28.0907 43.7238 28.7428V34.3841C45.7422 34.6706 47.3055 36.4193 47.3055 38.5335Z" stroke="white" stroke-miterlimit="10" stroke-linecap="round" stroke-linejoin="round"/>
</svg>