<svg width="120" height="120" viewBox="0 0 120 120" fill="none" xmlns="http://www.w3.org/2000/svg">
<path d="M53.1023 26.9584H24.4064C23.0829 26.9584 22 28.0413 22 29.3648V22.4064C22 21.0829 23.0829 20 24.4064 20H45.2616C46.6051 22.0254 49.0917 24.9331 53.1023 26.9584Z" stroke="white" stroke-width="1.5" stroke-miterlimit="10" stroke-linecap="round" stroke-linejoin="round"/>
<path d="M94.4919 29.3644V39.8521C94.4919 38.5286 93.409 37.4458 92.0855 37.4458H88.4759V33.7159C88.4759 32.5127 87.4933 31.5301 86.2902 31.5301H31.084C29.8809 31.5301 28.8983 32.5127 28.8983 33.7159V37.4458H24.4064C23.0829 37.4458 22 38.5286 22 39.8521V29.3644C22 28.0409 23.0829 26.958 24.4064 26.958H92.0654C93.409 26.958 94.4919 28.0409 94.4919 29.3644Z" stroke="white" stroke-width="1.5" stroke-miterlimit="10" stroke-linecap="round" stroke-linejoin="round"/>
<path d="M88.4759 33.7161V37.4459H28.8982V33.7161C28.8982 32.5129 29.8808 31.5303 31.084 31.5303H86.2901C87.4933 31.5303 88.4759 32.5129 88.4759 33.7161Z" stroke="white" stroke-width="1.5" stroke-miterlimit="10" stroke-linecap="round" stroke-linejoin="round"/>
<path d="M94.4919 39.8517V83.1062C94.4919 84.4297 93.409 85.5125 92.0855 85.5125H74.499C76.1834 83.788 77.6072 81.7827 78.69 79.5969C79.3919 78.153 79.9534 76.629 80.3344 75.0248C80.7355 73.3403 80.956 71.5957 80.956 69.7709C80.956 69.1893 80.936 68.6278 80.8959 68.0664C80.0336 56.4556 70.3279 47.3315 58.5166 47.3315C46.6853 47.3315 36.9997 56.4757 36.1374 68.0664C36.0973 68.6278 36.0773 69.2094 36.0773 69.7709C36.0773 71.5756 36.2978 73.3403 36.6989 75.0248C37.0799 76.629 37.6414 78.153 38.3433 79.5969C39.4061 81.8027 40.8298 83.788 42.5343 85.5125H24.4064C23.0829 85.5125 22 84.4297 22 83.1062V39.8517C22 38.5282 23.0829 37.4453 24.4064 37.4453H92.0654C93.409 37.4453 94.4919 38.5282 94.4919 39.8517Z" stroke="white" stroke-width="1.5" stroke-miterlimit="10" stroke-linecap="round" stroke-linejoin="round"/>
<path d="M80.9357 69.7919C80.9357 71.5967 80.7151 73.3614 80.3141 75.0458C79.9331 76.6501 79.3716 78.1741 78.6697 79.6179C77.6069 81.8238 76.1832 83.809 74.4786 85.5336C70.4079 89.6846 64.7328 92.2514 58.4763 92.2514C52.2197 92.2514 46.5447 89.6846 42.4739 85.5336C40.7694 83.809 39.3657 81.8037 38.2828 79.6179C37.581 78.1741 37.0195 76.6501 36.6385 75.0458C36.2374 73.3614 36.0168 71.6168 36.0168 69.7919C36.0168 69.2104 36.0369 68.6489 36.077 68.0874C36.9393 56.4767 46.645 47.3525 58.4562 47.3525C70.2875 47.3525 79.9732 56.4967 80.8355 68.0874C80.9157 68.6489 80.9357 69.2104 80.9357 69.7919Z" stroke="#A787FF" stroke-width="1.5" stroke-miterlimit="10" stroke-linecap="round" stroke-linejoin="round"/>
<path d="M63.635 84.5869C63.625 83.9259 63.635 83.265 63.635 82.604C63.635 81.6727 63.645 80.7514 63.645 79.8201C63.645 79.3995 63.6551 78.9789 63.625 78.5583C63.5748 77.8573 63.4144 77.1863 63.0835 76.5554C62.9331 76.265 62.7526 76.0046 62.532 75.7743C62.4919 75.7242 62.4417 75.6841 62.3916 75.6341C62.4417 75.554 62.5219 75.564 62.5821 75.554C63.3843 75.4638 64.1865 75.3136 64.9687 75.1033C65.8712 74.863 66.7335 74.5225 67.5257 74.0318C69.0298 73.1105 70.0426 71.8086 70.6343 70.1562C70.9351 69.315 71.1156 68.4438 71.1958 67.5525C71.2459 66.9817 71.276 66.4209 71.276 65.8501C71.276 64.6584 71.0253 63.5168 70.5039 62.4452C70.2231 61.8744 69.8722 61.3436 69.451 60.863C69.4009 60.8029 69.3407 60.7428 69.2805 60.6727C69.3006 60.6026 69.3106 60.5325 69.3307 60.4624C69.6516 59.501 69.7117 58.5196 69.6014 57.5282C69.5312 56.8973 69.3608 56.2864 69.1502 55.6856C69.08 55.4953 68.9797 55.4352 68.7892 55.4252C68.368 55.4052 67.9669 55.4753 67.5658 55.5654C67.0143 55.6956 66.4929 55.8959 65.9915 56.1362C65.2695 56.4767 64.5676 56.8773 63.9058 57.3179C63.7453 57.4281 63.615 57.4581 63.4244 57.408C62.2311 57.0876 61.0178 56.9073 59.7844 56.8372C57.8591 56.7271 55.9639 56.9173 54.0988 57.408C53.9283 57.4481 53.808 57.4281 53.6676 57.3379C52.8754 56.8072 52.0532 56.3465 51.1808 55.976C50.5891 55.7256 49.9774 55.5253 49.3357 55.4452C49.1251 55.4052 48.9145 55.4152 48.7039 55.4152C48.5636 55.4152 48.4733 55.4753 48.4232 55.6155C48.1925 56.2464 48.0321 56.8973 47.9519 57.5683C47.8717 58.2592 47.8817 58.9402 48.0221 59.6212C48.0822 59.9216 48.1825 60.222 48.2627 60.5225C48.2728 60.5525 48.2828 60.5926 48.2928 60.6326C48.2427 60.6927 48.2026 60.7528 48.1524 60.8029C47.1697 61.9245 46.5781 63.2263 46.3675 64.6884C46.3174 65.0189 46.2973 65.3694 46.2873 65.6999C46.2572 67.0718 46.3876 68.4338 46.7987 69.7557C47.1196 70.8172 47.621 71.7786 48.353 72.6198C48.9246 73.2707 49.5964 73.7914 50.3485 74.212C51.3312 74.7528 52.3841 75.0933 53.4871 75.3136C53.9684 75.4138 54.4698 75.4738 54.9612 75.5439C55.0213 75.554 55.0815 75.574 55.1717 75.594C54.9511 75.8544 54.7305 76.0847 54.5701 76.3551C54.4096 76.6355 54.2693 76.9259 54.179 77.2364C54.0888 77.5468 54.0186 77.8573 53.9283 78.1977C53.9183 78.2078 53.8782 78.2378 53.8381 78.2478C53.1863 78.5282 52.5144 78.6985 51.8025 78.7085C50.5089 78.7285 49.466 78.2178 48.6638 77.2063C48.5034 77.006 48.363 76.7857 48.2226 76.5754C47.8717 76.0346 47.4605 75.564 46.9391 75.1834C46.5781 74.9231 46.187 74.7228 45.7458 74.6326C45.4149 74.5625 45.084 74.5726 44.7531 74.6226C44.6428 74.6427 44.5224 74.6927 44.4222 74.7428C44.3119 74.8029 44.2818 74.913 44.3219 75.0332C44.352 75.1233 44.4121 75.2135 44.4723 75.2936C44.6227 75.4939 44.8233 75.6441 45.0439 75.7643C45.5252 76.0246 45.8862 76.4152 46.1971 76.8458C46.6383 77.4467 47.0093 78.0876 47.2901 78.7886C47.6912 79.81 48.4432 80.471 49.466 80.8315C50.2081 81.1019 50.9902 81.172 51.7724 81.162C52.4041 81.152 53.0359 81.0718 53.6676 80.9717C53.7077 80.9617 53.7578 80.9617 53.818 80.9517C53.818 81.0418 53.828 81.1219 53.828 81.202C53.8381 82.2836 53.8481 83.3651 53.8481 84.4567" stroke="#A787FF" stroke-width="1.5" stroke-miterlimit="10" stroke-linecap="round" stroke-linejoin="round"/>
<circle cx="66.8724" cy="88.991" r="11.0086" fill="#15192C" stroke="#A787FF" stroke-width="1.5"/>
<g filter="url(#filter0_d_276_2296)">
<circle cx="66.6667" cy="88.6667" r="4.66667" fill="#A787FF"/>
</g>
<path d="M70.053 88.7979H113.866" stroke="url(#paint0_linear_276_2296)" stroke-width="1.5" stroke-linecap="round"/>
<defs>
<filter id="filter0_d_276_2296" x="53" y="75" width="27.3333" height="27.333" filterUnits="userSpaceOnUse" color-interpolation-filters="sRGB">
<feFlood flood-opacity="0" result="BackgroundImageFix"/>
<feColorMatrix in="SourceAlpha" type="matrix" values="0 0 0 0 0 0 0 0 0 0 0 0 0 0 0 0 0 0 127 0" result="hardAlpha"/>
<feMorphology radius="5" operator="dilate" in="SourceAlpha" result="effect1_dropShadow_276_2296"/>
<feOffset/>
<feGaussianBlur stdDeviation="2"/>
<feComposite in2="hardAlpha" operator="out"/>
<feColorMatrix type="matrix" values="0 0 0 0 0.654902 0 0 0 0 0.529412 0 0 0 0 1 0 0 0 0.281931 0"/>
<feBlend mode="normal" in2="BackgroundImageFix" result="effect1_dropShadow_276_2296"/>
<feBlend mode="normal" in="SourceGraphic" in2="effect1_dropShadow_276_2296" result="shape"/>
</filter>
<linearGradient id="paint0_linear_276_2296" x1="65.9773" y1="89.2979" x2="114.885" y2="89.2978" gradientUnits="userSpaceOnUse">
<stop stop-color="#A787FF"/>
<stop offset="0.718069" stop-color="#A787FF" stop-opacity="0.281931"/>
<stop offset="1" stop-color="#7950ED" stop-opacity="0"/>
<stop offset="1" stop-color="#A787FF" stop-opacity="0"/>
</linearGradient>
</defs>
</svg>
