<svg width="60" height="60" viewBox="0 0 60 60" fill="none" xmlns="http://www.w3.org/2000/svg">
    <path d="M27.3659 32.1875H28.1944L26.0281 26.2064H25.1219L22.947 32.1875H23.7755L24.2588 30.8497H26.8826L27.3659 32.1875ZM26.6582 30.211H24.4832L25.5707 27.173L26.6582 30.211Z" fill="white"/>
    <path d="M30.3592 29.0286V26.8192H31.5157C32.4133 26.8192 32.7931 27.2334 32.7931 27.9325C32.7931 28.6057 32.4133 29.0286 31.5157 29.0286H30.3592ZM33.5957 27.9325C33.5957 26.9486 32.9312 26.1719 31.5157 26.1719H29.5738V32.1875H30.3592V29.6759H31.5157C33.0089 29.6759 33.5957 28.8474 33.5957 27.9325Z" fill="white"/>
    <path d="M35.0034 32.1875H35.7888V26.1719H35.0034V32.1875Z" fill="white"/>
    <path d="M47.5 26.5V33.5C47.5 33.9844 47.1094 34.375 46.625 34.375H44.2188C43.9453 35.2656 43.5859 36.1328 43.1406 36.9609L44.8438 38.6641C45.1875 39.0078 45.1875 39.5625 44.8438 39.8984L39.8906 44.8516C39.5469 45.1953 38.9922 45.1953 38.6562 44.8516L36.9531 43.1484C36.125 43.5859 35.2578 43.9453 34.3672 44.2188V46.625C34.3672 47.1094 33.9766 47.5 33.4922 47.5H26.4922C26.0078 47.5 25.6172 47.1094 25.6172 46.625V44.2188C25.0703 44.0547 24.5313 43.8516 24.0078 43.6172L27.3906 40.2344C28.2266 40.4453 29.0937 40.5547 29.9922 40.5547C35.8281 40.5547 40.5547 35.8281 40.5547 29.9922C40.5547 24.1562 35.8281 19.4297 29.9922 19.4297C24.1641 19.4297 19.4297 24.1562 19.4297 29.9922C19.4297 30.8828 19.5391 31.75 19.75 32.5703L16.3672 35.9531C16.1406 35.4297 15.9375 34.8984 15.7734 34.3594H13.375C12.8906 34.375 12.5 33.9844 12.5 33.5V26.5C12.5 26.0156 12.8906 25.625 13.375 25.625H15.7812C16.0547 24.7344 16.4141 23.8672 16.8594 23.0391L15.1562 21.3359C14.8125 20.9922 14.8125 20.4375 15.1562 20.1016L20.1094 15.1484C20.4531 14.8047 21.0078 14.8047 21.3437 15.1484L23.0469 16.8516C23.875 16.4141 24.7422 16.0547 25.6328 15.7812V13.375C25.625 12.8906 26.0156 12.5 26.5 12.5H33.5C33.9844 12.5 34.375 12.8906 34.375 13.375V15.7812C35.2656 16.0547 36.1328 16.4141 36.9609 16.8594L38.6641 15.1562C39.0078 14.8125 39.5625 14.8125 39.8984 15.1562L44.8516 20.1094C45.1953 20.4531 45.1953 21.0078 44.8516 21.3437L43.1484 23.0469C43.5859 23.875 43.9453 24.7422 44.2188 25.6328H46.625C47.1094 25.625 47.5 26.0156 47.5 26.5Z" stroke="white" stroke-miterlimit="10" stroke-linecap="round" stroke-linejoin="round"/>
    <path d="M12.9374 47.2037L25.1796 34.9694" stroke="#A787FF" stroke-miterlimit="10" stroke-linecap="round" stroke-linejoin="round"/>
    <path d="M21.3907 34.375H25.8282V38.8125" stroke="#A787FF" stroke-miterlimit="10" stroke-linecap="round" stroke-linejoin="round"/>
</svg>