<svg width="60" height="60" viewBox="0 0 60 60" fill="none" xmlns="http://www.w3.org/2000/svg">
    <path d="M27.3659 15.0634H12.6707C11.993 15.0634 11.4384 15.6179 11.4384 16.2957V12.7323C11.4384 12.0545 11.993 11.5 12.6707 11.5H23.3507C24.0387 12.5372 25.3121 14.0262 27.3659 15.0634Z" stroke="white" stroke-miterlimit="10" stroke-linecap="round" stroke-linejoin="round"/>
    <path d="M48.5616 16.2954V21.6662C48.5616 20.9884 48.007 20.4339 47.3293 20.4339H45.4808V18.5238C45.4808 17.9077 44.9776 17.4045 44.3615 17.4045H16.0904C15.4742 17.4045 14.971 17.9077 14.971 18.5238V20.4339H12.6707C11.993 20.4339 11.4384 20.9884 11.4384 21.6662V16.2954C11.4384 15.6176 11.993 15.0631 12.6707 15.0631H47.319C48.007 15.0631 48.5616 15.6176 48.5616 16.2954Z" stroke="white" stroke-miterlimit="10" stroke-linecap="round" stroke-linejoin="round"/>
    <path d="M45.4805 18.5238V20.4338H14.9707V18.5238C14.9707 17.9076 15.4739 17.4044 16.09 17.4044H44.3611C44.9773 17.4044 45.4805 17.9076 45.4805 18.5238Z" stroke="white" stroke-miterlimit="10" stroke-linecap="round" stroke-linejoin="round"/>
    <path d="M48.5616 21.6661V43.8168C48.5616 44.4946 48.007 45.0491 47.3293 45.0491H38.3232C39.1858 44.166 39.9149 43.139 40.4694 42.0197C40.8289 41.2803 41.1164 40.4999 41.3115 39.6783C41.5169 38.8157 41.6299 37.9223 41.6299 36.9878C41.6299 36.69 41.6196 36.4024 41.5991 36.1149C41.1575 30.169 36.1872 25.4966 30.1386 25.4966C24.0798 25.4966 19.1198 30.1793 18.6782 36.1149C18.6577 36.4024 18.6474 36.7002 18.6474 36.9878C18.6474 37.912 18.7604 38.8157 18.9657 39.6783C19.1609 40.4999 19.4484 41.2803 19.8078 42.0197C20.3521 43.1493 21.0812 44.166 21.9541 45.0491H12.6707C11.993 45.0491 11.4384 44.4946 11.4384 43.8168V21.6661C11.4384 20.9884 11.993 20.4338 12.6707 20.4338H47.319C48.007 20.4338 48.5616 20.9884 48.5616 21.6661Z" stroke="white" stroke-miterlimit="10" stroke-linecap="round" stroke-linejoin="round"/>
    <path d="M41.6195 36.9984C41.6195 37.9227 41.5065 38.8264 41.3011 39.689C41.106 40.5105 40.8185 41.291 40.459 42.0303C39.9148 43.16 39.1857 44.1766 38.3128 45.0598C36.2281 47.1855 33.3219 48.4999 30.118 48.4999C26.914 48.4999 24.0078 47.1855 21.9231 45.0598C21.0503 44.1766 20.3314 43.1497 19.7769 42.0303C19.4175 41.291 19.1299 40.5105 18.9348 39.689C18.7294 38.8264 18.6165 37.9329 18.6165 36.9984C18.6165 36.7006 18.6267 36.4131 18.6473 36.1256C19.0888 30.1797 24.0591 25.5072 30.1077 25.5072C36.1665 25.5072 41.1265 30.19 41.5681 36.1256C41.6092 36.4131 41.6195 36.7006 41.6195 36.9984Z" stroke="#A787FF" stroke-miterlimit="10" stroke-linecap="round" stroke-linejoin="round"/>
    <path d="M32.7599 44.5753C32.7547 44.2368 32.7599 43.8983 32.7599 43.5599C32.7599 43.0829 32.765 42.6111 32.765 42.1342C32.765 41.9188 32.7701 41.7034 32.7547 41.488C32.729 41.129 32.6469 40.7854 32.4774 40.4624C32.4004 40.3136 32.308 40.1803 32.195 40.0623C32.1744 40.0367 32.1488 40.0162 32.1231 39.9906C32.1488 39.9495 32.1899 39.9547 32.2207 39.9495C32.6315 39.9034 33.0423 39.8264 33.4428 39.7188C33.905 39.5957 34.3466 39.4213 34.7523 39.17C35.5226 38.6982 36.0412 38.0315 36.3442 37.1854C36.4982 36.7546 36.5907 36.3084 36.6317 35.852C36.6574 35.5597 36.6728 35.2725 36.6728 34.9802C36.6728 34.3699 36.5444 33.7853 36.2774 33.2365C36.1336 32.9442 35.9539 32.6724 35.7382 32.4263C35.7126 32.3955 35.6817 32.3647 35.6509 32.3288C35.6612 32.2929 35.6663 32.257 35.6766 32.2211C35.8409 31.7288 35.8717 31.2262 35.8153 30.7185C35.7793 30.3954 35.692 30.0826 35.5842 29.7749C35.5482 29.6775 35.4969 29.6467 35.3993 29.6416C35.1836 29.6313 34.9782 29.6672 34.7728 29.7134C34.4904 29.78 34.2234 29.8826 33.9666 30.0057C33.5969 30.18 33.2374 30.3852 32.8985 30.6108C32.8163 30.6672 32.7496 30.6826 32.652 30.657C32.0409 30.4929 31.4196 30.4006 30.788 30.3647C29.802 30.3082 28.8315 30.4057 27.8763 30.657C27.789 30.6775 27.7274 30.6672 27.6555 30.6211C27.2499 30.3493 26.8288 30.1134 26.382 29.9236C26.079 29.7954 25.7658 29.6928 25.4372 29.6518C25.3293 29.6313 25.2215 29.6364 25.1136 29.6364C25.0417 29.6364 24.9955 29.6672 24.9699 29.739C24.8517 30.0621 24.7696 30.3954 24.7285 30.739C24.6874 31.0929 24.6926 31.4416 24.7645 31.7903C24.7953 31.9442 24.8466 32.098 24.8877 32.2519C24.8928 32.2673 24.898 32.2878 24.9031 32.3083C24.8774 32.3391 24.8569 32.3698 24.8312 32.3955C24.328 32.9699 24.025 33.6365 23.9172 34.3853C23.8915 34.5545 23.8812 34.734 23.8761 34.9032C23.8607 35.6058 23.9274 36.3033 24.138 36.9802C24.3023 37.5238 24.559 38.0161 24.9339 38.4469C25.2266 38.7803 25.5707 39.0469 25.9558 39.2623C26.459 39.5393 26.9982 39.7136 27.5631 39.8264C27.8096 39.8777 28.0663 39.9085 28.318 39.9444C28.3488 39.9495 28.3796 39.9598 28.4258 39.97C28.3128 40.1034 28.1999 40.2213 28.1177 40.3598C28.0355 40.5034 27.9636 40.6521 27.9174 40.8111C27.8712 40.9701 27.8353 41.129 27.789 41.3034C27.7839 41.3085 27.7634 41.3239 27.7428 41.329C27.409 41.4726 27.065 41.5598 26.7004 41.565C26.038 41.5752 25.5039 41.3137 25.0931 40.7957C25.0109 40.6931 24.939 40.5803 24.8672 40.4726C24.6874 40.1957 24.4769 39.9547 24.2099 39.7598C24.025 39.6264 23.8247 39.5239 23.5988 39.4777C23.4293 39.4418 23.2599 39.4469 23.0904 39.4726C23.0339 39.4828 22.9723 39.5085 22.9209 39.5341C22.8645 39.5649 22.849 39.6213 22.8696 39.6829C22.885 39.729 22.9158 39.7752 22.9466 39.8162C23.0236 39.9188 23.1263 39.9957 23.2393 40.0572C23.4858 40.1906 23.6707 40.3906 23.8299 40.6111C24.0558 40.9188 24.2458 41.247 24.3896 41.606C24.595 42.1291 24.9801 42.4675 25.5039 42.6522C25.8839 42.7906 26.2845 42.8265 26.685 42.8214C27.0085 42.8163 27.332 42.7752 27.6555 42.724C27.6761 42.7188 27.7017 42.7188 27.7326 42.7137C27.7326 42.7599 27.7377 42.8009 27.7377 42.8419C27.7428 43.3958 27.748 43.9496 27.748 44.5086" stroke="#A787FF" stroke-miterlimit="10" stroke-linecap="round" stroke-linejoin="round"/>
</svg>