<svg width="120" height="120" viewBox="0 0 120 120" fill="none" xmlns="http://www.w3.org/2000/svg">
<path d="M49.1023 28.9584H20.4064C19.0829 28.9584 18 30.0413 18 31.3648V24.4064C18 23.0829 19.0829 22 20.4064 22H41.2616C42.6051 24.0254 45.0917 26.9331 49.1023 28.9584Z" stroke="white" stroke-width="1.5" stroke-miterlimit="10" stroke-linecap="round" stroke-linejoin="round"/>
<path d="M90.4919 31.3644V41.8521C90.4919 40.5286 89.409 39.4458 88.0855 39.4458H84.4759V35.7159C84.4759 34.5127 83.4933 33.5301 82.2902 33.5301H27.084C25.8809 33.5301 24.8983 34.5127 24.8983 35.7159V39.4458H20.4064C19.0829 39.4458 18 40.5286 18 41.8521V31.3644C18 30.0409 19.0829 28.958 20.4064 28.958H88.0654C89.409 28.958 90.4919 30.0409 90.4919 31.3644Z" stroke="white" stroke-width="1.5" stroke-miterlimit="10" stroke-linecap="round" stroke-linejoin="round"/>
<path d="M84.4759 35.7161V39.4459H24.8982V35.7161C24.8982 34.5129 25.8808 33.5303 27.084 33.5303H82.2901C83.4933 33.5303 84.4759 34.5129 84.4759 35.7161Z" stroke="white" stroke-width="1.5" stroke-miterlimit="10" stroke-linecap="round" stroke-linejoin="round"/>
<path d="M90.4919 41.8517V85.1062C90.4919 86.4297 89.409 87.5125 88.0855 87.5125H70.499C72.1834 85.788 73.6072 83.7827 74.69 81.5969C75.3919 80.153 75.9534 78.629 76.3344 77.0248C76.7355 75.3403 76.956 73.5957 76.956 71.7709C76.956 71.1893 76.936 70.6278 76.8959 70.0664C76.0336 58.4556 66.3279 49.3315 54.5166 49.3315C42.6853 49.3315 32.9997 58.4757 32.1374 70.0664C32.0973 70.6278 32.0773 71.2094 32.0773 71.7709C32.0773 73.5756 32.2978 75.3403 32.6989 77.0248C33.0799 78.629 33.6414 80.153 34.3433 81.5969C35.4061 83.8027 36.8298 85.788 38.5343 87.5125H20.4064C19.0829 87.5125 18 86.4297 18 85.1062V41.8517C18 40.5282 19.0829 39.4453 20.4064 39.4453H88.0654C89.409 39.4453 90.4919 40.5282 90.4919 41.8517Z" stroke="white" stroke-width="1.5" stroke-miterlimit="10" stroke-linecap="round" stroke-linejoin="round"/>
<path d="M76.9357 71.7919C76.9357 73.5967 76.7151 75.3614 76.3141 77.0458C75.9331 78.6501 75.3716 80.1741 74.6697 81.6179C73.6069 83.8238 72.1832 85.809 70.4786 87.5336C66.4079 91.6846 60.7328 94.2514 54.4763 94.2514C48.2197 94.2514 42.5447 91.6846 38.4739 87.5336C36.7694 85.809 35.3657 83.8037 34.2828 81.6179C33.581 80.1741 33.0195 78.6501 32.6385 77.0458C32.2374 75.3614 32.0168 73.6168 32.0168 71.7919C32.0168 71.2104 32.0369 70.6489 32.077 70.0874C32.9393 58.4767 42.645 49.3525 54.4562 49.3525C66.2875 49.3525 75.9732 58.4967 76.8355 70.0874C76.9157 70.6489 76.9357 71.2104 76.9357 71.7919Z" stroke="#A787FF" stroke-width="1.5" stroke-miterlimit="10" stroke-linecap="round" stroke-linejoin="round"/>
<path d="M59.635 86.5869C59.625 85.9259 59.635 85.265 59.635 84.604C59.635 83.6727 59.645 82.7514 59.645 81.8201C59.645 81.3995 59.6551 80.9789 59.625 80.5583C59.5748 79.8573 59.4144 79.1863 59.0835 78.5554C58.9331 78.265 58.7526 78.0046 58.532 77.7743C58.4919 77.7242 58.4417 77.6841 58.3916 77.6341C58.4417 77.554 58.5219 77.564 58.5821 77.554C59.3843 77.4638 60.1865 77.3136 60.9687 77.1033C61.8712 76.863 62.7335 76.5225 63.5257 76.0318C65.0298 75.1105 66.0426 73.8086 66.6343 72.1562C66.9351 71.315 67.1156 70.4438 67.1958 69.5525C67.2459 68.9817 67.276 68.4209 67.276 67.8501C67.276 66.6584 67.0253 65.5168 66.5039 64.4452C66.2231 63.8744 65.8722 63.3436 65.451 62.863C65.4009 62.8029 65.3407 62.7428 65.2805 62.6727C65.3006 62.6026 65.3106 62.5325 65.3307 62.4624C65.6516 61.501 65.7117 60.5196 65.6014 59.5282C65.5312 58.8973 65.3608 58.2864 65.1502 57.6856C65.08 57.4953 64.9797 57.4352 64.7892 57.4252C64.368 57.4052 63.9669 57.4753 63.5658 57.5654C63.0143 57.6956 62.4929 57.8959 61.9915 58.1362C61.2695 58.4767 60.5676 58.8773 59.9058 59.3179C59.7453 59.4281 59.615 59.4581 59.4244 59.408C58.2311 59.0876 57.0178 58.9073 55.7844 58.8372C53.8591 58.7271 51.9639 58.9173 50.0988 59.408C49.9283 59.4481 49.808 59.4281 49.6676 59.3379C48.8754 58.8072 48.0532 58.3465 47.1808 57.976C46.5891 57.7256 45.9774 57.5253 45.3357 57.4452C45.1251 57.4052 44.9145 57.4152 44.7039 57.4152C44.5636 57.4152 44.4733 57.4753 44.4232 57.6155C44.1925 58.2464 44.0321 58.8973 43.9519 59.5683C43.8717 60.2592 43.8817 60.9402 44.0221 61.6212C44.0822 61.9216 44.1825 62.222 44.2627 62.5225C44.2728 62.5525 44.2828 62.5926 44.2928 62.6326C44.2427 62.6927 44.2026 62.7528 44.1524 62.8029C43.1697 63.9245 42.5781 65.2263 42.3675 66.6884C42.3174 67.0189 42.2973 67.3694 42.2873 67.6999C42.2572 69.0718 42.3876 70.4338 42.7987 71.7557C43.1196 72.8172 43.621 73.7786 44.353 74.6198C44.9246 75.2707 45.5964 75.7914 46.3485 76.212C47.3312 76.7528 48.3841 77.0933 49.4871 77.3136C49.9684 77.4138 50.4698 77.4738 50.9612 77.5439C51.0213 77.554 51.0815 77.574 51.1717 77.594C50.9511 77.8544 50.7305 78.0847 50.5701 78.3551C50.4096 78.6355 50.2693 78.9259 50.179 79.2364C50.0888 79.5468 50.0186 79.8573 49.9283 80.1977C49.9183 80.2078 49.8782 80.2378 49.8381 80.2478C49.1863 80.5282 48.5144 80.6985 47.8025 80.7085C46.5089 80.7285 45.466 80.2178 44.6638 79.2063C44.5034 79.006 44.363 78.7857 44.2226 78.5754C43.8717 78.0346 43.4605 77.564 42.9391 77.1834C42.5781 76.9231 42.187 76.7228 41.7458 76.6326C41.4149 76.5625 41.084 76.5726 40.7531 76.6226C40.6428 76.6427 40.5224 76.6927 40.4222 76.7428C40.3119 76.8029 40.2818 76.913 40.3219 77.0332C40.352 77.1233 40.4121 77.2135 40.4723 77.2936C40.6227 77.4939 40.8233 77.6441 41.0439 77.7643C41.5252 78.0246 41.8862 78.4152 42.1971 78.8458C42.6383 79.4467 43.0093 80.0876 43.2901 80.7886C43.6912 81.81 44.4432 82.471 45.466 82.8315C46.2081 83.1019 46.9902 83.172 47.7724 83.162C48.4041 83.152 49.0359 83.0718 49.6676 82.9717C49.7077 82.9617 49.7578 82.9617 49.818 82.9517C49.818 83.0418 49.828 83.1219 49.828 83.202C49.8381 84.2836 49.8481 85.3651 49.8481 86.4567" stroke="#A787FF" stroke-width="1.5" stroke-miterlimit="10" stroke-linecap="round" stroke-linejoin="round"/>
<g filter="url(#filter0_d_271_2255)">
<circle cx="54.6667" cy="93.6667" r="4.66667" fill="#A787FF"/>
</g>
<path d="M58.053 93.7979H101.866" stroke="url(#paint0_linear_271_2255)" stroke-width="1.5" stroke-linecap="round"/>
<defs>
<filter id="filter0_d_271_2255" x="41" y="80" width="27.3333" height="27.333" filterUnits="userSpaceOnUse" color-interpolation-filters="sRGB">
<feFlood flood-opacity="0" result="BackgroundImageFix"/>
<feColorMatrix in="SourceAlpha" type="matrix" values="0 0 0 0 0 0 0 0 0 0 0 0 0 0 0 0 0 0 127 0" result="hardAlpha"/>
<feMorphology radius="5" operator="dilate" in="SourceAlpha" result="effect1_dropShadow_271_2255"/>
<feOffset/>
<feGaussianBlur stdDeviation="2"/>
<feComposite in2="hardAlpha" operator="out"/>
<feColorMatrix type="matrix" values="0 0 0 0 0.654902 0 0 0 0 0.529412 0 0 0 0 1 0 0 0 0.281931 0"/>
<feBlend mode="normal" in2="BackgroundImageFix" result="effect1_dropShadow_271_2255"/>
<feBlend mode="normal" in="SourceGraphic" in2="effect1_dropShadow_271_2255" result="shape"/>
</filter>
<linearGradient id="paint0_linear_271_2255" x1="53.9773" y1="94.2979" x2="102.885" y2="94.2978" gradientUnits="userSpaceOnUse">
<stop stop-color="#A787FF"/>
<stop offset="0.718069" stop-color="#A787FF" stop-opacity="0.281931"/>
<stop offset="1" stop-color="#A787FF" stop-opacity="0"/>
</linearGradient>
</defs>
</svg>
