<svg width="60" height="60" viewBox="0 0 60 60" fill="none" xmlns="http://www.w3.org/2000/svg">
    <path d="M17.3456 27.995V25.4675" stroke="#A787FF" stroke-miterlimit="10" stroke-linecap="round" stroke-linejoin="round"/>
    <path d="M25.5765 27.995V25.4675" stroke="#A787FF" stroke-miterlimit="10" stroke-linecap="round" stroke-linejoin="round"/>
    <path d="M34.5445 27.995V25.4675" stroke="#A787FF" stroke-miterlimit="10" stroke-linecap="round" stroke-linejoin="round"/>
    <path d="M42.775 27.995V25.4675" stroke="#A787FF" stroke-miterlimit="10" stroke-linecap="round" stroke-linejoin="round"/>
    <path d="M30.9352 45.8407C30.9132 45.9286 30.8691 46.0055 30.8031 46.0715L29.5377 47.3352C29.3176 47.555 28.9765 47.555 28.7564 47.3352L27.502 46.0715C27.436 46.0055 27.392 45.9286 27.37 45.8407C27.315 45.6539 27.359 45.4451 27.502 45.2912L28.7674 44.0275C28.8885 43.9066 29.0425 43.8517 29.2076 43.8736C29.3286 43.8846 29.4497 43.9396 29.5487 44.0275L30.8141 45.2912C30.9572 45.4451 31.0012 45.6539 30.9352 45.8407Z" stroke="white" stroke-miterlimit="10" stroke-linecap="round" stroke-linejoin="round"/>
    <path d="M29.1967 43.8741V40.962" stroke="white" stroke-miterlimit="10" stroke-linecap="round" stroke-linejoin="round"/>
    <path d="M40.2441 45.8412H30.935" stroke="white" stroke-miterlimit="10" stroke-linecap="round" stroke-linejoin="round"/>
    <path d="M27.3698 45.8412H18.0607" stroke="white" stroke-miterlimit="10" stroke-linecap="round" stroke-linejoin="round"/>
    <path d="M33.3671 15.0824V16.7088C33.3671 17.0165 33.6092 17.2583 33.9173 17.2583H45.2621V24.1484C45.2621 24.8737 44.6679 25.4671 43.9416 25.4671H16.0473C15.3211 25.4671 14.7269 24.8737 14.7269 24.1484V13.8187C14.7269 13.0934 15.3211 12.5 16.0473 12.5H43.9526C44.6789 12.5 45.2731 13.0934 45.2731 13.8187V14.533H33.9173C33.6202 14.533 33.3671 14.7747 33.3671 15.0824Z" stroke="white" stroke-miterlimit="10" stroke-linecap="round" stroke-linejoin="round"/>
    <path d="M45.2733 20.8079H33.6754" stroke="white" stroke-miterlimit="10" stroke-linecap="round" stroke-linejoin="round"/>
    <path d="M45.273 14.5331V17.2584H33.9172C33.6091 17.2584 33.3671 17.0166 33.3671 16.7089V15.0825C33.3671 14.7748 33.6091 14.5331 33.9172 14.5331H45.273Z" stroke="white" stroke-miterlimit="10" stroke-linecap="round" stroke-linejoin="round"/>
    <path d="M18.0279 21.4673H21.7581" stroke="#A787FF" stroke-miterlimit="10" stroke-linecap="round" stroke-linejoin="round"/>
    <path d="M18.0279 19.6644H21.7581" stroke="#A787FF" stroke-miterlimit="10" stroke-linecap="round" stroke-linejoin="round"/>
    <path d="M18.0279 17.8523H21.7581" stroke="#A787FF" stroke-miterlimit="10" stroke-linecap="round" stroke-linejoin="round"/>
    <path d="M18.0279 16.0493H21.7581" stroke="#A787FF" stroke-miterlimit="10" stroke-linecap="round" stroke-linejoin="round"/>
    <path d="M33.3671 30.5776V32.2039C33.3671 32.5116 33.6092 32.7534 33.9173 32.7534H45.2621V39.6436C45.2621 40.3688 44.6679 40.9622 43.9416 40.9622H16.0473C15.3211 40.9622 14.7269 40.3688 14.7269 39.6436V29.3138C14.7269 28.5885 15.3211 27.9951 16.0473 27.9951H43.9526C44.6789 27.9951 45.2731 28.5885 45.2731 29.3138V30.0281H33.9173C33.6202 30.0281 33.3671 30.2699 33.3671 30.5776Z" stroke="white" stroke-miterlimit="10" stroke-linecap="round" stroke-linejoin="round"/>
    <path d="M45.2733 36.3019H33.6754" stroke="white" stroke-miterlimit="10" stroke-linecap="round" stroke-linejoin="round"/>
    <path d="M45.273 30.0267V32.752H33.9172C33.6091 32.752 33.3671 32.5103 33.3671 32.2026V30.5762C33.3671 30.2685 33.6091 30.0267 33.9172 30.0267H45.273Z" stroke="white" stroke-miterlimit="10" stroke-linecap="round" stroke-linejoin="round"/>
    <path d="M18.0279 36.9619H21.7581" stroke="#A787FF" stroke-miterlimit="10" stroke-linecap="round" stroke-linejoin="round"/>
    <path d="M18.0279 35.1591H21.7581" stroke="#A787FF" stroke-miterlimit="10" stroke-linecap="round" stroke-linejoin="round"/>
    <path d="M18.0279 33.3575H21.7581" stroke="#A787FF" stroke-miterlimit="10" stroke-linecap="round" stroke-linejoin="round"/>
    <path d="M18.0279 31.5547H21.7581" stroke="#A787FF" stroke-miterlimit="10" stroke-linecap="round" stroke-linejoin="round"/>
</svg>