<svg width="60" height="60" viewBox="0 0 60 60" fill="none" xmlns="http://www.w3.org/2000/svg">
    <path d="M38.5265 12.3899V17.8669C38.5265 18.0804 38.3501 18.2568 38.1366 18.2568H21.9468C21.7333 18.2568 21.5569 18.0804 21.5569 17.8669V12.3899C21.5569 12.1764 21.7333 12 21.9468 12H38.1459C38.3594 12 38.5265 12.1764 38.5265 12.3899Z" stroke="#A787FF" stroke-miterlimit="10" stroke-linecap="round" stroke-linejoin="round"/>
    <path d="M19.5983 32.3394V37.4265C19.5983 37.6865 19.394 37.8907 19.1341 37.8907H9.55394C9.29401 37.8907 9.08978 37.6865 9.08978 37.4265V32.3394C9.08978 32.0795 9.29401 31.8752 9.55394 31.8752H19.1341C19.394 31.8752 19.5983 32.0795 19.5983 32.3394Z" stroke="white" stroke-miterlimit="10" stroke-linecap="round" stroke-linejoin="round"/>
    <path d="M50.9102 32.339V37.4262C50.9102 37.6861 50.706 37.8903 50.4461 37.8903H40.8659C40.606 37.8903 40.4018 37.6861 40.4018 37.4262V32.339C40.4018 32.0791 40.606 31.8749 40.8659 31.8749H50.4461C50.706 31.8749 50.9102 32.0791 50.9102 32.339Z" stroke="white" stroke-miterlimit="10" stroke-linecap="round" stroke-linejoin="round"/>
    <path d="M35.2961 42.4487V47.5358C35.2961 47.7957 35.0918 48 34.8319 48H25.2518C24.9918 48 24.7876 47.7957 24.7876 47.5358V42.4487C24.7876 42.1887 24.9918 41.9845 25.2518 41.9845H34.8319C35.0918 41.9845 35.2961 42.1887 35.2961 42.4487Z" stroke="white" stroke-miterlimit="10" stroke-linecap="round" stroke-linejoin="round"/>
    <path d="M30.0418 22.416V18.2572" stroke="#A787FF" stroke-miterlimit="10" stroke-linecap="round" stroke-linejoin="round"/>
    <path d="M30.0418 41.9846V33.537" stroke="white" stroke-miterlimit="10" stroke-linecap="round" stroke-linejoin="round"/>
    <path d="M35.5189 27.7352H45.721V31.8755" stroke="white" stroke-miterlimit="10" stroke-linecap="round" stroke-linejoin="round"/>
    <path d="M14.3625 31.8755V27.7352H24.5647" stroke="white" stroke-miterlimit="10" stroke-linecap="round" stroke-linejoin="round"/>
    <path d="M35.4816 28.2547L30.3109 33.4254C30.2367 33.4997 30.1345 33.5368 30.0324 33.5368C29.9303 33.5368 29.8282 33.4997 29.7539 33.4254L24.5832 28.2547C24.444 28.1155 24.4347 27.8927 24.5554 27.7349C24.5647 27.7256 24.574 27.7163 24.5832 27.6977L29.7539 22.527C29.8282 22.4528 29.9303 22.4156 30.0324 22.4156C30.1345 22.4156 30.2274 22.4528 30.3109 22.527L35.4816 27.6977C35.4909 27.707 35.5002 27.7163 35.5095 27.7349C35.6394 27.8834 35.6301 28.1062 35.4816 28.2547Z" stroke="#A787FF" stroke-miterlimit="10" stroke-linecap="round" stroke-linejoin="round"/>
</svg>