<svg width="121" height="120" viewBox="0 0 121 120" fill="none" xmlns="http://www.w3.org/2000/svg">
<path d="M54.1412 53.8007H18.0478C16.638 53.8007 15.5 52.6627 15.5 51.2529V40.5693C15.5 39.1595 16.638 38.0215 18.0478 38.0215H54.1242C55.534 38.0215 56.672 39.1595 56.672 40.5693V51.2529C56.689 52.6627 55.534 53.8007 54.1412 53.8007Z" stroke="white" stroke-width="1.5" stroke-miterlimit="10" stroke-linecap="round" stroke-linejoin="round"/>
<path d="M23.2283 47.2267C23.5285 47.2267 23.7719 46.9834 23.7719 46.6832C23.7719 46.383 23.5285 46.1396 23.2283 46.1396C22.9282 46.1396 22.6848 46.383 22.6848 46.6832C22.6848 46.9834 22.9282 47.2267 23.2283 47.2267Z" stroke="white" stroke-width="1.5" stroke-miterlimit="10" stroke-linecap="round" stroke-linejoin="round"/>
<path d="M29.3428 47.2267C29.643 47.2267 29.8864 46.9834 29.8864 46.6832C29.8864 46.383 29.643 46.1396 29.3428 46.1396C29.0427 46.1396 28.7993 46.383 28.7993 46.6832C28.7993 46.9834 29.0427 47.2267 29.3428 47.2267Z" stroke="white" stroke-width="1.5" stroke-miterlimit="10" stroke-linecap="round" stroke-linejoin="round"/>
<path d="M39.1943 46.666H48.4852" stroke="white" stroke-width="1.5" stroke-miterlimit="10" stroke-linecap="round" stroke-linejoin="round"/>
<path d="M54.1412 69.7675H18.0478C16.638 69.7675 15.5 68.6295 15.5 67.2197V56.5361C15.5 55.1263 16.638 53.9883 18.0478 53.9883H54.1242C55.534 53.9883 56.672 55.1263 56.672 56.5361V67.2197C56.689 68.6295 55.534 69.7675 54.1412 69.7675Z" stroke="white" stroke-width="1.5" stroke-miterlimit="10" stroke-linecap="round" stroke-linejoin="round"/>
<path d="M23.2283 63.1935C23.5285 63.1935 23.7719 62.9502 23.7719 62.65C23.7719 62.3498 23.5285 62.1064 23.2283 62.1064C22.9282 62.1064 22.6848 62.3498 22.6848 62.65C22.6848 62.9502 22.9282 63.1935 23.2283 63.1935Z" stroke="white" stroke-width="1.5" stroke-miterlimit="10" stroke-linecap="round" stroke-linejoin="round"/>
<path d="M29.3428 63.1935C29.643 63.1935 29.8864 62.9502 29.8864 62.65C29.8864 62.3498 29.643 62.1064 29.3428 62.1064C29.0427 62.1064 28.7993 62.3498 28.7993 62.65C28.7993 62.9502 29.0427 63.1935 29.3428 63.1935Z" stroke="white" stroke-width="1.5" stroke-miterlimit="10" stroke-linecap="round" stroke-linejoin="round"/>
<path d="M39.1943 62.6328H48.4852" stroke="white" stroke-width="1.5" stroke-miterlimit="10" stroke-linecap="round" stroke-linejoin="round"/>
<path d="M54.1412 85.7323H18.0478C16.638 85.7323 15.5 84.5943 15.5 83.1846V72.5009C15.5 71.0911 16.638 69.9531 18.0478 69.9531H54.1242C55.534 69.9531 56.672 71.0911 56.672 72.5009V83.1846C56.689 84.5943 55.534 85.7323 54.1412 85.7323Z" stroke="white" stroke-width="1.5" stroke-miterlimit="10" stroke-linecap="round" stroke-linejoin="round"/>
<path d="M23.2283 79.1583C23.5285 79.1583 23.7719 78.915 23.7719 78.6148C23.7719 78.3146 23.5285 78.0713 23.2283 78.0713C22.9282 78.0713 22.6848 78.3146 22.6848 78.6148C22.6848 78.915 22.9282 79.1583 23.2283 79.1583Z" stroke="white" stroke-width="1.5" stroke-miterlimit="10" stroke-linecap="round" stroke-linejoin="round"/>
<path d="M29.3428 79.1583C29.643 79.1583 29.8864 78.915 29.8864 78.6148C29.8864 78.3146 29.643 78.0713 29.3428 78.0713C29.0427 78.0713 28.7993 78.3146 28.7993 78.6148C28.7993 78.915 29.0427 79.1583 29.3428 79.1583Z" stroke="white" stroke-width="1.5" stroke-miterlimit="10" stroke-linecap="round" stroke-linejoin="round"/>
<path d="M39.1943 78.5977H48.4852" stroke="white" stroke-width="1.5" stroke-miterlimit="10" stroke-linecap="round" stroke-linejoin="round"/>
<path d="M72.0435 61.8682H63.2282H57.8269" stroke="white" stroke-width="1.5" stroke-miterlimit="10" stroke-linecap="round" stroke-linejoin="round"/>
<path d="M72.0434 93.1546H65.2833C64.1623 93.1546 63.2451 92.2374 63.2451 91.1164V61.868V31.3966C63.2451 30.2756 64.1623 29.3584 65.2833 29.3584H72.0434" stroke="white" stroke-width="1.5" stroke-miterlimit="10" stroke-linecap="round" stroke-linejoin="round"/>
<path d="M93.9543 26.0978V37.6477C93.9543 38.7687 93.0371 39.6859 91.9161 39.6859H74.0817C72.9607 39.6859 72.0435 38.7687 72.0435 37.6477V26.0978C72.0435 24.9768 72.9607 24.0596 74.0817 24.0596H91.9331C93.0371 24.0596 93.9543 24.9768 93.9543 26.0978Z" stroke="#A787FF" stroke-width="1.5" stroke-miterlimit="10" stroke-linecap="round" stroke-linejoin="round"/>
<path d="M93.9714 22.0382V26.7941C93.9714 26.879 93.9714 26.9639 93.9545 27.0488V26.0977C93.9545 24.9767 93.0373 24.0595 91.9162 24.0595H85.1392L85.4619 23.6688C86.0903 22.9384 86.6339 22.1231 87.0245 21.2399C87.3302 20.5096 88.0606 20 88.8929 20H91.9332C93.0542 20 93.9714 20.9172 93.9714 22.0382Z" stroke="#A787FF" stroke-width="1.5" stroke-miterlimit="10" stroke-linecap="round" stroke-linejoin="round"/>
<path d="M93.9543 56.5187V68.0686C93.9543 69.1896 93.0371 70.1068 91.9161 70.1068H74.0817C72.9607 70.1068 72.0435 69.1896 72.0435 68.0686V56.5187C72.0435 55.3977 72.9607 54.4805 74.0817 54.4805H91.9331C93.0371 54.4805 93.9543 55.3977 93.9543 56.5187Z" stroke="#A787FF" stroke-width="1.5" stroke-miterlimit="10" stroke-linecap="round" stroke-linejoin="round"/>
<path d="M93.9714 52.4591V57.215C93.9714 57.2999 93.9714 57.3848 93.9545 57.4697V56.5186C93.9545 55.3975 93.0373 54.4803 91.9162 54.4803H85.1392L85.4619 54.0897C86.0903 53.3593 86.6339 52.544 87.0245 51.6608C87.3302 50.9305 88.0606 50.4209 88.9099 50.4209H91.9502C93.0542 50.4209 93.9714 51.3381 93.9714 52.4591Z" stroke="#A787FF" stroke-width="1.5" stroke-miterlimit="10" stroke-linecap="round" stroke-linejoin="round"/>
<path d="M93.9543 86.4122V97.9621C93.9543 99.0832 93.0371 100 91.9161 100H74.0817C72.9607 100 72.0435 99.0832 72.0435 97.9621V86.4122C72.0435 85.2912 72.9607 84.374 74.0817 84.374H91.9331C93.0371 84.374 93.9543 85.2912 93.9543 86.4122Z" stroke="#A787FF" stroke-width="1.5" stroke-miterlimit="10" stroke-linecap="round" stroke-linejoin="round"/>
<path d="M93.9714 82.3517V87.1075C93.9714 87.1925 93.9714 87.2774 93.9545 87.3623V86.4111C93.9545 85.2901 93.0373 84.3729 91.9162 84.3729H85.1392L85.4619 83.9823C86.0903 83.2519 86.6339 82.4366 87.0245 81.5534C87.3302 80.823 88.0606 80.3135 88.9099 80.3135H91.9502C93.0542 80.3135 93.9714 81.2307 93.9714 82.3517Z" stroke="#A787FF" stroke-width="1.5" stroke-miterlimit="10" stroke-linecap="round" stroke-linejoin="round"/>
<g filter="url(#filter0_d_276_2298)">
<circle cx="92.1667" cy="61.9538" r="4.66667" fill="#A787FF"/>
</g>
<path d="M96 62H119" stroke="url(#paint0_linear_276_2298)" stroke-width="1.5" stroke-linecap="round"/>
<defs>
<filter id="filter0_d_276_2298" x="78.5" y="48.2871" width="27.3333" height="27.333" filterUnits="userSpaceOnUse" color-interpolation-filters="sRGB">
<feFlood flood-opacity="0" result="BackgroundImageFix"/>
<feColorMatrix in="SourceAlpha" type="matrix" values="0 0 0 0 0 0 0 0 0 0 0 0 0 0 0 0 0 0 127 0" result="hardAlpha"/>
<feMorphology radius="5" operator="dilate" in="SourceAlpha" result="effect1_dropShadow_276_2298"/>
<feOffset/>
<feGaussianBlur stdDeviation="2"/>
<feComposite in2="hardAlpha" operator="out"/>
<feColorMatrix type="matrix" values="0 0 0 0 0.654902 0 0 0 0 0.529412 0 0 0 0 1 0 0 0 0.281931 0"/>
<feBlend mode="normal" in2="BackgroundImageFix" result="effect1_dropShadow_276_2298"/>
<feBlend mode="normal" in="SourceGraphic" in2="effect1_dropShadow_276_2298" result="shape"/>
</filter>
<linearGradient id="paint0_linear_276_2298" x1="93.8605" y1="62.5" x2="119.535" y2="62.5" gradientUnits="userSpaceOnUse">
<stop stop-color="#A787FF"/>
<stop offset="0.718069" stop-color="#A787FF" stop-opacity="0.281931"/>
<stop offset="1" stop-color="#7950ED" stop-opacity="0"/>
<stop offset="1" stop-color="#A787FF" stop-opacity="0"/>
</linearGradient>
</defs>
</svg>
