<svg width="60" height="60" viewBox="0 0 60 60" fill="none" xmlns="http://www.w3.org/2000/svg">
    <path d="M49.1837 14.6006V17.4712C45.8227 15.3063 41.2896 15.6891 38.3472 18.6314C36.0746 20.904 35.3331 24.1214 36.0986 27.016C36.4813 28.4393 37.2348 29.7789 38.3472 30.9032C39.4237 31.9797 40.7154 32.7213 42.079 33.104C44.4472 33.7858 47.0547 33.4389 49.1837 32.0634V41.4646C49.1837 42.0627 48.6933 42.565 48.0833 42.565H27.6662V42.5531H30.2497L31.1468 41.668V39.0127H33.838L34.6393 38.2113V35.3885H37.5219L38.6343 34.2762L34.6154 30.2573L22.5709 42.3139V42.5531H7.93083C7.33279 42.5531 6.83044 42.0627 6.83044 41.4527V14.6006C6.83044 14.0026 7.32083 13.5002 7.93083 13.5002H48.0953C48.6933 13.5002 49.1837 13.9906 49.1837 14.6006Z" stroke="white" stroke-miterlimit="10" stroke-linecap="round" stroke-linejoin="round"/>
    <path d="M48.4301 20.7365C48.8966 21.191 49.1478 21.7891 49.1956 22.3871V22.8177C49.1478 23.4157 48.8966 24.0018 48.4301 24.4683C47.4015 25.4969 45.727 25.4969 44.6983 24.4683C43.6697 23.4396 43.6697 21.7651 44.6983 20.7365C45.727 19.6959 47.3895 19.6959 48.4301 20.7365Z" stroke="white" stroke-miterlimit="10" stroke-linecap="round" stroke-linejoin="round"/>
    <path d="M23.9703 18.0932V29.2766C23.9703 29.8746 23.4799 30.3769 22.8699 30.3769H21.1834V28.4991C21.1834 27.0638 20.3461 25.8079 19.1261 25.2099C19.8199 24.6597 20.2624 23.8105 20.2624 22.8656C20.2624 21.215 18.9228 19.8754 17.2722 19.8754C15.6216 19.8754 14.282 21.215 14.282 22.8656C14.282 23.8224 14.7246 24.6716 15.4183 25.2099C14.1983 25.8079 13.361 27.0638 13.361 28.4991V30.3769H11.6985C11.1004 30.3769 10.5981 29.8866 10.5981 29.2766V18.0932C10.5981 17.4952 11.0885 16.9928 11.6985 16.9928H22.8818C23.4799 17.0048 23.9703 17.4952 23.9703 18.0932Z" stroke="#A787FF" stroke-miterlimit="10" stroke-linecap="round" stroke-linejoin="round"/>
    <path d="M21.1834 28.4997V30.3775H13.373V28.4997C13.373 27.0644 14.2102 25.8085 15.4302 25.2104C15.9445 25.6052 16.5785 25.8444 17.2722 25.8444C17.9659 25.8444 18.6118 25.6052 19.1142 25.2104C20.3461 25.8085 21.1834 27.0524 21.1834 28.4997Z" stroke="#A787FF" stroke-miterlimit="10" stroke-linecap="round" stroke-linejoin="round"/>
    <path d="M10.4186 33.1522H24.0061" stroke="#A787FF" stroke-miterlimit="10" stroke-linecap="round" stroke-linejoin="round"/>
    <path d="M20.2744 22.8536C20.2744 23.8105 19.8318 24.6597 19.1381 25.1979C18.6357 25.6046 17.9899 25.8319 17.2961 25.8319C16.6024 25.8319 15.9565 25.5926 15.4542 25.1979C14.7604 24.6477 14.3179 23.7985 14.3179 22.8536C14.3179 21.203 15.6575 19.8634 17.3081 19.8634C18.9587 19.8634 20.2744 21.203 20.2744 22.8536Z" stroke="#A787FF" stroke-miterlimit="10" stroke-linecap="round" stroke-linejoin="round"/>
    <path d="M50.6309 18.6319C50.1883 18.1894 49.6979 17.7947 49.1956 17.4717C45.8346 15.3068 41.3014 15.6896 38.3591 18.6319C36.0865 20.9045 35.345 24.1219 36.1104 27.0165C36.4932 28.4398 37.2467 29.7794 38.3591 30.9037C39.4356 31.9802 40.7273 32.7218 42.0909 33.1045C44.4591 33.7863 47.0666 33.4394 49.1956 32.0639C49.6979 31.741 50.1883 31.3463 50.6309 30.9037C54.0158 27.5069 54.0158 22.0168 50.6309 18.6319ZM49.1836 22.8182C49.1358 23.4163 48.8846 24.0023 48.4181 24.4688C47.3895 25.4974 45.715 25.4974 44.6864 24.4688C43.6577 23.4402 43.6577 21.7657 44.6864 20.737C45.715 19.7084 47.3895 19.7084 48.4181 20.737C48.8846 21.1915 49.1358 21.7896 49.1836 22.3876C49.2075 22.5312 49.2075 22.6747 49.1836 22.8182Z" stroke="white" stroke-miterlimit="10" stroke-linecap="round" stroke-linejoin="round"/>
    <path d="M49.1837 22.8179C49.1359 23.4159 48.8847 24.002 48.4182 24.4685C47.3896 25.4971 45.7151 25.4971 44.6864 24.4685C43.6578 23.4398 43.6578 21.7653 44.6864 20.7367C45.7151 19.7081 47.3896 19.7081 48.4182 20.7367C48.8847 21.1912 49.1359 21.7892 49.1837 22.3873C49.2076 22.5308 49.2076 22.6743 49.1837 22.8179Z" stroke="white" stroke-miterlimit="10" stroke-linecap="round" stroke-linejoin="round"/>
    <path d="M41.6364 34.803C41.3015 35.1379 40.847 35.3053 40.4045 35.3053C39.9619 35.3053 39.5074 35.1379 39.1725 34.803L38.6343 34.2647L34.2327 29.8631C33.5509 29.1814 33.5509 28.069 34.2327 27.3992C34.5676 27.0643 35.0221 26.8969 35.4647 26.8969C35.68 26.8969 35.8952 26.9327 36.0986 27.0165C36.4813 28.4398 37.2349 29.7794 38.3472 30.9037C39.4237 31.9802 40.7155 32.7218 42.079 33.1045C42.2464 33.6906 42.1029 34.3484 41.6364 34.803Z" stroke="white" stroke-miterlimit="10" stroke-linecap="round" stroke-linejoin="round"/>
    <path d="M37.5338 35.3762H34.6392V38.1989L33.8379 39.0123H31.1467V41.6556L30.2496 42.5527H27.6661V45.3156L26.47 46.4997H22.5708V42.3135L34.6273 30.257L38.6461 34.2758L37.5338 35.3762Z" stroke="white" stroke-miterlimit="10" stroke-linecap="round" stroke-linejoin="round"/>
    <path d="M38.6462 34.2758L34.6274 30.257L38.6462 34.2758Z" stroke="white" stroke-miterlimit="10" stroke-linecap="round" stroke-linejoin="round"/>
</svg>