
<svg width="60" height="60" viewBox="0 0 60 60" fill="none" xmlns="http://www.w3.org/2000/svg">
    <path d="M29.7176 27.0555H12.5733C11.9036 27.0555 11.3631 26.515 11.3631 25.8453V20.7706C11.3631 20.101 11.9036 19.5604 12.5733 19.5604H29.7095C30.3792 19.5604 30.9197 20.101 30.9197 20.7706V25.8453C30.9278 26.515 30.3792 27.0555 29.7176 27.0555Z" stroke="white" stroke-miterlimit="10" stroke-linecap="round" stroke-linejoin="round"/>
    <path d="M15.0339 23.932C15.1765 23.932 15.292 23.8164 15.292 23.6738C15.292 23.5312 15.1765 23.4156 15.0339 23.4156C14.8913 23.4156 14.7757 23.5312 14.7757 23.6738C14.7757 23.8164 14.8913 23.932 15.0339 23.932Z" stroke="white" stroke-miterlimit="10" stroke-linecap="round" stroke-linejoin="round"/>
    <path d="M17.9386 23.932C18.0812 23.932 18.1968 23.8164 18.1968 23.6738C18.1968 23.5312 18.0812 23.4156 17.9386 23.4156C17.796 23.4156 17.6804 23.5312 17.6804 23.6738C17.6804 23.8164 17.796 23.932 17.9386 23.932Z" stroke="white" stroke-miterlimit="10" stroke-linecap="round" stroke-linejoin="round"/>
    <path d="M22.618 23.6661H27.0311" stroke="white" stroke-miterlimit="10" stroke-linecap="round" stroke-linejoin="round"/>
    <path d="M29.7176 34.6391H12.5733C11.9036 34.6391 11.3631 34.0985 11.3631 33.4289V28.3542C11.3631 27.6845 11.9036 27.144 12.5733 27.144H29.7095C30.3792 27.144 30.9197 27.6845 30.9197 28.3542V33.4289C30.9278 34.0985 30.3792 34.6391 29.7176 34.6391Z" stroke="white" stroke-miterlimit="10" stroke-linecap="round" stroke-linejoin="round"/>
    <path d="M15.0339 31.5169C15.1765 31.5169 15.292 31.4013 15.292 31.2587C15.292 31.1161 15.1765 31.0005 15.0339 31.0005C14.8913 31.0005 14.7757 31.1161 14.7757 31.2587C14.7757 31.4013 14.8913 31.5169 15.0339 31.5169Z" stroke="white" stroke-miterlimit="10" stroke-linecap="round" stroke-linejoin="round"/>
    <path d="M17.9386 31.5169C18.0812 31.5169 18.1968 31.4013 18.1968 31.2587C18.1968 31.1161 18.0812 31.0005 17.9386 31.0005C17.796 31.0005 17.6804 31.1161 17.6804 31.2587C17.6804 31.4013 17.796 31.5169 17.9386 31.5169Z" stroke="white" stroke-miterlimit="10" stroke-linecap="round" stroke-linejoin="round"/>
    <path d="M22.618 31.251H27.0311" stroke="white" stroke-miterlimit="10" stroke-linecap="round" stroke-linejoin="round"/>
    <path d="M29.7176 42.2234H12.5733C11.9036 42.2234 11.3631 41.6828 11.3631 41.0132V35.9385C11.3631 35.2688 11.9036 34.7283 12.5733 34.7283H29.7095C30.3792 34.7283 30.9197 35.2688 30.9197 35.9385V41.0132C30.9278 41.6828 30.3792 42.2234 29.7176 42.2234Z" stroke="white" stroke-miterlimit="10" stroke-linecap="round" stroke-linejoin="round"/>
    <path d="M15.0339 39.0996C15.1765 39.0996 15.292 38.984 15.292 38.8414C15.292 38.6988 15.1765 38.5833 15.0339 38.5833C14.8913 38.5833 14.7757 38.6988 14.7757 38.8414C14.7757 38.984 14.8913 39.0996 15.0339 39.0996Z" stroke="white" stroke-miterlimit="10" stroke-linecap="round" stroke-linejoin="round"/>
    <path d="M17.9386 39.0996C18.0812 39.0996 18.1968 38.984 18.1968 38.8414C18.1968 38.6988 18.0812 38.5833 17.9386 38.5833C17.796 38.5833 17.6804 38.6988 17.6804 38.8414C17.6804 38.984 17.796 39.0996 17.9386 39.0996Z" stroke="white" stroke-miterlimit="10" stroke-linecap="round" stroke-linejoin="round"/>
    <path d="M22.618 38.8334H27.0311" stroke="white" stroke-miterlimit="10" stroke-linecap="round" stroke-linejoin="round"/>
    <path d="M38.2209 30.8881H34.0336H31.468" stroke="white" stroke-miterlimit="10" stroke-linecap="round" stroke-linejoin="round"/>
    <path d="M38.221 45.7483H35.01C34.4775 45.7483 34.0419 45.3127 34.0419 44.7802V30.8872V16.4134C34.0419 15.8809 34.4775 15.4453 35.01 15.4453H38.221" stroke="white" stroke-miterlimit="10" stroke-linecap="round" stroke-linejoin="round"/>
    <path d="M48.6289 13.8964V19.3826C48.6289 19.9151 48.1932 20.3508 47.6607 20.3508H39.1894C38.6569 20.3508 38.2213 19.9151 38.2213 19.3826V13.8964C38.2213 13.364 38.6569 12.9283 39.1894 12.9283H47.6688C48.1932 12.9283 48.6289 13.364 48.6289 13.8964Z" stroke="#A787FF" stroke-miterlimit="10" stroke-linecap="round" stroke-linejoin="round"/>
    <path d="M48.637 11.9681V14.2272C48.637 14.2675 48.637 14.3078 48.629 14.3482V13.8964C48.629 13.3639 48.1933 12.9282 47.6608 12.9282H44.4417L44.595 12.7427C44.8935 12.3957 45.1517 12.0085 45.3373 11.589C45.4825 11.242 45.8294 11 46.2247 11H47.6689C48.2014 11 48.637 11.4357 48.637 11.9681Z" stroke="#A787FF" stroke-miterlimit="10" stroke-linecap="round" stroke-linejoin="round"/>
    <path d="M48.6289 28.3458V33.832C48.6289 34.3645 48.1932 34.8002 47.6607 34.8002H39.1894C38.6569 34.8002 38.2213 34.3645 38.2213 33.832V28.3458C38.2213 27.8134 38.6569 27.3777 39.1894 27.3777H47.6688C48.1932 27.3777 48.6289 27.8134 48.6289 28.3458Z" stroke="#A787FF" stroke-miterlimit="10" stroke-linecap="round" stroke-linejoin="round"/>
    <path d="M48.637 26.4191V28.6781C48.637 28.7184 48.637 28.7588 48.629 28.7991V28.3473C48.629 27.8148 48.1933 27.3792 47.6608 27.3792H44.4417L44.595 27.1936C44.8935 26.8467 45.1517 26.4594 45.3373 26.0399C45.4825 25.693 45.8294 25.4509 46.2328 25.4509H47.6769C48.2014 25.4509 48.637 25.8866 48.637 26.4191Z" stroke="#A787FF" stroke-miterlimit="10" stroke-linecap="round" stroke-linejoin="round"/>
    <path d="M48.6289 42.5457V48.0318C48.6289 48.5643 48.1932 49 47.6607 49H39.1894C38.6569 49 38.2213 48.5643 38.2213 48.0318V42.5457C38.2213 42.0132 38.6569 41.5775 39.1894 41.5775H47.6688C48.1932 41.5775 48.6289 42.0132 48.6289 42.5457Z" stroke="#A787FF" stroke-miterlimit="10" stroke-linecap="round" stroke-linejoin="round"/>
    <path d="M48.637 40.6169V42.8759C48.637 42.9162 48.637 42.9566 48.629 42.9969V42.5451C48.629 42.0126 48.1933 41.577 47.6608 41.577H44.4417L44.595 41.3914C44.8935 41.0445 45.1517 40.6572 45.3373 40.2377C45.4825 39.8908 45.8294 39.6487 46.2328 39.6487H47.6769C48.2014 39.6487 48.637 40.0844 48.637 40.6169Z" stroke="#A787FF" stroke-miterlimit="10" stroke-linecap="round" stroke-linejoin="round"/>
</svg>