<svg width="120" height="120" viewBox="0 0 120 120" fill="none" xmlns="http://www.w3.org/2000/svg">
<path d="M43.06 64.8361L47.617 52.6644C47.7025 52.4342 47.8011 52.2534 47.9129 52.1219C48.0642 51.9575 48.2516 51.8753 48.4752 51.8753C48.6987 51.8753 48.8861 51.9575 49.0374 52.1219C49.1492 52.26 49.2478 52.4408 49.3333 52.6644L53.8903 64.8361C53.9429 64.9873 53.9791 65.1123 53.9988 65.2109C54.0251 65.3095 54.0251 65.418 53.9988 65.5364C53.9725 65.6548 53.9133 65.76 53.8212 65.852C53.67 66.0033 53.4859 66.0789 53.2689 66.0789C53.1308 66.0789 53.0026 66.0362 52.8842 65.9507C52.7527 65.8455 52.631 65.6449 52.5192 65.349L51.5921 62.8239H45.3484L44.4212 65.349C44.3094 65.6449 44.1878 65.8455 44.0562 65.9507C43.9379 66.0362 43.8097 66.0789 43.6716 66.0789C43.4546 66.0789 43.2704 66.0033 43.1192 65.852C43.0271 65.76 42.968 65.6548 42.9417 65.5364C42.9219 65.4115 42.9219 65.303 42.9417 65.2109C42.968 65.1123 43.0074 64.9873 43.06 64.8361ZM48.4752 54.2919L45.8218 61.5219H51.1186L48.4752 54.2919ZM57.5266 52.8715C57.5266 52.5361 57.5956 52.2994 57.7337 52.1613C57.8718 52.0232 58.1085 51.9542 58.4439 51.9542H62.774C64.0629 51.9542 65.1117 52.3323 65.9205 53.0885C66.7294 53.8381 67.1338 54.8344 67.1338 56.0772C67.1338 57.32 66.7294 58.3228 65.9205 59.0856C65.1117 59.8418 64.0629 60.2199 62.774 60.2199H59.0456V65.0531C59.0456 65.3819 58.9996 65.6186 58.9075 65.7633C58.776 65.9737 58.5688 66.0789 58.2861 66.0789C58.0033 66.0789 57.7962 65.9737 57.6647 65.7633C57.5726 65.6186 57.5266 65.3819 57.5266 65.0531V52.8715ZM62.6557 53.2956H59.0456V58.8785H62.6557C63.5566 58.8785 64.2733 58.6384 64.8059 58.1584C65.3386 57.6784 65.6049 56.9846 65.6049 56.0772C65.6049 55.1763 65.3386 54.4891 64.8059 54.0157C64.2799 53.5357 63.5631 53.2956 62.6557 53.2956ZM72.5156 52.9011V65.0531C72.5156 65.3819 72.4696 65.6186 72.3775 65.7633C72.246 65.9737 72.0389 66.0789 71.7561 66.0789C71.4734 66.0789 71.2662 65.9737 71.1347 65.7633C71.0426 65.6186 70.9966 65.3819 70.9966 65.0531V52.9011C70.9966 52.5723 71.0426 52.3356 71.1347 52.1909C71.2662 51.9805 71.4734 51.8753 71.7561 51.8753C72.0389 51.8753 72.246 51.9805 72.3775 52.1909C72.4696 52.3356 72.5156 52.5723 72.5156 52.9011Z" fill="white"/>
<path d="M99 52V68C99 69.1071 98.1071 70 97 70H91.5C90.875 72.0357 90.0536 74.0179 89.0357 75.9107L92.9286 79.8036C93.7143 80.5893 93.7143 81.8571 92.9286 82.625L81.6071 93.9464C80.8214 94.7321 79.5536 94.7321 78.7857 93.9464L74.8929 90.0536C73 91.0536 71.0179 91.875 68.9821 92.5V98C68.9821 99.1071 68.0893 100 66.9821 100H50.9821C49.875 100 48.9821 99.1071 48.9821 98V92.5C47.7321 92.125 46.5 91.6607 45.3036 91.125L53.0357 83.3929C54.9464 83.875 56.9286 84.125 58.9821 84.125C72.3214 84.125 83.125 73.3214 83.125 59.9821C83.125 46.6429 72.3214 35.8393 58.9821 35.8393C45.6607 35.8393 34.8393 46.6429 34.8393 59.9821C34.8393 62.0179 35.0893 64 35.5714 65.875L27.8393 73.6071C27.3214 72.4107 26.8571 71.1964 26.4821 69.9643H21C19.8929 70 19 69.1071 19 68V52C19 50.8929 19.8929 50 21 50H26.5C27.125 47.9643 27.9464 45.9821 28.9643 44.0893L25.0714 40.1964C24.2857 39.4107 24.2857 38.1429 25.0714 37.375L36.3929 26.0536C37.1786 25.2679 38.4464 25.2679 39.2143 26.0536L43.1071 29.9464C45 28.9464 46.9821 28.125 49.0179 27.5V22C49 20.8929 49.8929 20 51 20H67C68.1071 20 69 20.8929 69 22V27.5C71.0357 28.125 73.0179 28.9464 74.9107 29.9643L78.8036 26.0714C79.5893 25.2857 80.8571 25.2857 81.625 26.0714L92.9464 37.3929C93.7321 38.1786 93.7321 39.4464 92.9464 40.2143L89.0536 44.1071C90.0536 46 90.875 47.9821 91.5 50.0179H97C98.1071 50 99 50.8929 99 52Z" stroke="white" stroke-width="1.5" stroke-miterlimit="10" stroke-linecap="round" stroke-linejoin="round"/>
<path d="M19.9998 99.3217L47.9819 71.3574" stroke="#A787FF" stroke-width="1.5" stroke-miterlimit="10" stroke-linecap="round" stroke-linejoin="round"/>
<path d="M39.3213 70H49.4641V80.1429" stroke="#A787FF" stroke-width="1.5" stroke-miterlimit="10" stroke-linecap="round" stroke-linejoin="round"/>
<g filter="url(#filter0_d_271_2242)">
<ellipse cx="76.0282" cy="43.5127" rx="3.55549" ry="3.55549" transform="rotate(-45 76.0282 43.5127)" fill="#A787FF"/>
</g>
<path d="M77.3518 42.1455L98.0051 21.4922" stroke="url(#paint0_linear_271_2242)" stroke-width="1.5" stroke-linecap="round"/>
<defs>
<filter id="filter0_d_271_2242" x="63.4727" y="30.957" width="25.1111" height="25.1113" filterUnits="userSpaceOnUse" color-interpolation-filters="sRGB">
<feFlood flood-opacity="0" result="BackgroundImageFix"/>
<feColorMatrix in="SourceAlpha" type="matrix" values="0 0 0 0 0 0 0 0 0 0 0 0 0 0 0 0 0 0 127 0" result="hardAlpha"/>
<feMorphology radius="5" operator="dilate" in="SourceAlpha" result="effect1_dropShadow_271_2242"/>
<feOffset/>
<feGaussianBlur stdDeviation="2"/>
<feComposite in2="hardAlpha" operator="out"/>
<feColorMatrix type="matrix" values="0 0 0 0 0.654902 0 0 0 0 0.529412 0 0 0 0 1 0 0 0 0.281931 0"/>
<feBlend mode="normal" in2="BackgroundImageFix" result="effect1_dropShadow_271_2242"/>
<feBlend mode="normal" in="SourceGraphic" in2="effect1_dropShadow_271_2242" result="shape"/>
</filter>
<linearGradient id="paint0_linear_271_2242" x1="75.7841" y1="44.4203" x2="98.8389" y2="21.3655" gradientUnits="userSpaceOnUse">
<stop stop-color="#A787FF"/>
<stop offset="0.718069" stop-color="#A787FF" stop-opacity="0.281931"/>
<stop offset="1" stop-color="#A787FF" stop-opacity="0"/>
</linearGradient>
</defs>
</svg>
