<svg width="60" height="60" viewBox="0 0 60 60" fill="none" xmlns="http://www.w3.org/2000/svg">
    <path d="M41.3736 41.9483V45.5604C41.3736 46.0797 41.0165 46.5 40.5701 46.5H8.03916C7.59277 46.5 7.23566 46.0797 7.23566 45.5604V14.5C7.23566 13.9477 7.68337 13.5 8.23566 13.5H40.3736C40.9259 13.5 41.3736 13.9477 41.3736 14.5V17.625" stroke="white" stroke-miterlimit="10" stroke-linecap="square" stroke-linejoin="round"/>
    <path d="M51.6994 41.6234H20.0522C19.4592 41.6234 18.9872 41.1393 18.9872 40.5584V32.3168C18.9872 31.7238 19.4713 31.2518 20.0522 31.2518H51.6994C52.2924 31.2518 52.7644 31.7359 52.7644 32.3168V40.5584C52.7644 41.1393 52.2924 41.6234 51.6994 41.6234Z" stroke="#A787FF" stroke-miterlimit="10" stroke-linecap="round" stroke-linejoin="round"/>
    <path d="M51.6994 28.3359H20.0522C19.4592 28.3359 18.9872 27.8518 18.9872 27.2709V19.0293C18.9872 18.4363 19.4713 17.9644 20.0522 17.9644H51.6994C52.2924 17.9644 52.7644 18.4484 52.7644 19.0293V27.2709C52.7644 27.8518 52.2924 28.3359 51.6994 28.3359Z" stroke="#A787FF" stroke-miterlimit="10" stroke-linecap="round" stroke-linejoin="round"/>
    <path d="M11.193 19.8522H13.9039" stroke="white" stroke-miterlimit="10" stroke-linecap="round" stroke-linejoin="round"/>
    <path d="M11.193 23.1071H13.9039" stroke="white" stroke-miterlimit="10" stroke-linecap="round" stroke-linejoin="round"/>
    <path d="M22.678 21.6417H25.3889" stroke="#A787FF" stroke-miterlimit="10" stroke-linecap="round" stroke-linejoin="round"/>
    <path d="M22.678 24.8619H25.3889" stroke="white" stroke-miterlimit="10" stroke-linecap="round" stroke-linejoin="round"/>
    <path d="M22.678 24.8619H25.3889" stroke="#A787FF" stroke-miterlimit="10" stroke-linecap="round" stroke-linejoin="round"/>
    <path d="M27.265 24.8619H29.9758" stroke="#A787FF" stroke-miterlimit="10" stroke-linecap="round" stroke-linejoin="round"/>
    <path d="M31.295 24.8619H49.2788" stroke="#A787FF" stroke-miterlimit="10" stroke-linecap="round" stroke-linejoin="round"/>
    <path d="M27.4709 21.6417H49.279" stroke="#A787FF" stroke-miterlimit="10" stroke-linecap="round" stroke-linejoin="round"/>
    <path d="M11.193 26.3508H13.9039" stroke="white" stroke-miterlimit="10" stroke-linecap="round" stroke-linejoin="round"/>
    <path d="M25.122 38.0336L22.9929 36.1679L25.1988 34.5217" stroke="#A787FF" stroke-miterlimit="10" stroke-linecap="round" stroke-linejoin="round"/>
    <path d="M29.6871 38.0336L31.8161 36.1679L29.6102 34.5217" stroke="#A787FF" stroke-miterlimit="10" stroke-linecap="round" stroke-linejoin="round"/>
    <path d="M26.6033 38.8898L28.0191 34.0061" stroke="#A787FF" stroke-miterlimit="10" stroke-linecap="round" stroke-linejoin="round"/>
</svg>