<svg width="120" height="120" viewBox="0 0 120 120" fill="none" xmlns="http://www.w3.org/2000/svg">
<path d="M28.5441 98.8535L92.4175 98.8535C93.2945 98.8535 94 98.2833 94 97.5744L94 88.1121L26.9615 88.1121L26.9615 97.5744C26.9615 98.2833 27.6861 98.8535 28.5441 98.8535Z" stroke="white" stroke-width="1.5" stroke-miterlimit="10" stroke-linecap="round" stroke-linejoin="round"/>
<path d="M89.1331 52.8205C89.1331 68.6555 76.3003 81.508 60.4456 81.508C46.9653 81.508 35.6629 72.2071 32.5823 59.6686H79.9696C82.1869 58.2362 83.8744 55.8031 83.8744 51.8002C83.8744 51.8002 75.1622 51.9964 70.3744 47.2086C70.3744 47.2086 74.1222 42.7936 80.9703 46.0901C80.8722 45.9332 76.2414 38.7318 80.4013 34.101C80.6956 33.7675 80.9899 33.4535 81.2843 33.1592C86.1702 38.2609 89.1331 45.1875 89.1331 52.8205Z" stroke="white" stroke-width="1.5" stroke-miterlimit="10" stroke-linecap="round" stroke-linejoin="round"/>
<path d="M81.3038 33.1191C81.0291 33.4135 80.7348 33.7274 80.4208 34.061C76.2413 38.6918 80.8721 45.8931 80.9898 46.0501C74.1417 42.7732 70.3939 47.1685 70.3939 47.1685C75.1817 51.9563 83.8939 51.7601 83.8939 51.7601C83.8939 55.7826 82.2064 58.1962 79.9891 59.6286H32.6018" stroke="white" stroke-width="1.5" stroke-miterlimit="10" stroke-linecap="round" stroke-linejoin="round"/>
<path d="M63.4085 54.5078H57.777C57.2276 54.5078 56.7959 54.0761 56.7959 53.5267V47.8952C56.7959 47.3457 57.2276 46.9141 57.777 46.9141H63.4085C63.958 46.9141 64.3896 47.3457 64.3896 47.8952V53.5267C64.3896 54.0565 63.958 54.5078 63.4085 54.5078Z" stroke="#A787FF" stroke-width="1.5" stroke-miterlimit="10" stroke-linecap="round" stroke-linejoin="round"/>
<path d="M51.9884 54.5078H46.3568C45.8074 54.5078 45.3757 54.0761 45.3757 53.5267V47.8952C45.3757 47.3457 45.8074 46.9141 46.3568 46.9141H51.9884C52.5378 46.9141 52.9695 47.3457 52.9695 47.8952V53.5267C52.9695 54.0565 52.5182 54.5078 51.9884 54.5078Z" stroke="#A787FF" stroke-width="1.5" stroke-miterlimit="10" stroke-linecap="round" stroke-linejoin="round"/>
<path d="M63.4085 42.8711H57.777C57.2276 42.8711 56.7959 42.4394 56.7959 41.89V36.2584C56.7959 35.709 57.2276 35.2773 57.777 35.2773H63.4085C63.958 35.2773 64.3896 35.709 64.3896 36.2584V41.89C64.3896 42.4394 63.958 42.8711 63.4085 42.8711Z" stroke="#A787FF" stroke-width="1.5" stroke-miterlimit="10" stroke-linecap="round" stroke-linejoin="round"/>
<path d="M51.9884 42.8711H46.3568C45.8074 42.8711 45.3757 42.4394 45.3757 41.89V36.2584C45.3757 35.709 45.8074 35.2773 46.3568 35.2773H51.9884C52.5378 35.2773 52.9695 35.709 52.9695 36.2584V41.89C52.9695 42.4394 52.5182 42.8711 51.9884 42.8711Z" stroke="#A787FF" stroke-width="1.5" stroke-miterlimit="10" stroke-linecap="round" stroke-linejoin="round"/>
<path d="M40.078 54.5078H34.4464C33.897 54.5078 33.4653 54.0761 33.4653 53.5267V47.8952C33.4653 47.3457 33.897 46.9141 34.4464 46.9141H40.078C40.6274 46.9141 41.0591 47.3457 41.0591 47.8952V53.5267C41.0591 54.0565 40.6078 54.5078 40.078 54.5078Z" stroke="#A787FF" stroke-width="1.5" stroke-miterlimit="10" stroke-linecap="round" stroke-linejoin="round"/>
<path d="M52.479 67.8506C53.5302 67.8506 54.3824 66.9985 54.3824 65.9473C54.3824 64.8961 53.5302 64.0439 52.479 64.0439C51.4278 64.0439 50.5757 64.8961 50.5757 65.9473C50.5757 66.9985 51.4278 67.8506 52.479 67.8506Z" stroke="white" stroke-width="1.5" stroke-miterlimit="10" stroke-linecap="round" stroke-linejoin="round"/>
<g filter="url(#filter0_d_271_2259)">
<circle cx="36.2377" cy="39.5018" r="4.1164" transform="rotate(-90 36.2377 39.5018)" fill="#A787FF"/>
</g>
<path d="M36.3538 36.5146L36.3538 5.55548" stroke="url(#paint0_linear_271_2259)" stroke-width="1.5" stroke-linecap="round"/>
<defs>
<filter id="filter0_d_271_2259" x="23.1213" y="26.3857" width="26.2329" height="26.2324" filterUnits="userSpaceOnUse" color-interpolation-filters="sRGB">
<feFlood flood-opacity="0" result="BackgroundImageFix"/>
<feColorMatrix in="SourceAlpha" type="matrix" values="0 0 0 0 0 0 0 0 0 0 0 0 0 0 0 0 0 0 127 0" result="hardAlpha"/>
<feMorphology radius="5" operator="dilate" in="SourceAlpha" result="effect1_dropShadow_271_2259"/>
<feOffset/>
<feGaussianBlur stdDeviation="2"/>
<feComposite in2="hardAlpha" operator="out"/>
<feColorMatrix type="matrix" values="0 0 0 0 0.654902 0 0 0 0 0.529412 0 0 0 0 1 0 0 0 0.281931 0"/>
<feBlend mode="normal" in2="BackgroundImageFix" result="effect1_dropShadow_271_2259"/>
<feBlend mode="normal" in="SourceGraphic" in2="effect1_dropShadow_271_2259" result="shape"/>
</filter>
<linearGradient id="paint0_linear_271_2259" x1="36.8538" y1="39.3946" x2="36.8538" y2="4.8355" gradientUnits="userSpaceOnUse">
<stop stop-color="#A787FF"/>
<stop offset="0.718069" stop-color="#A787FF" stop-opacity="0.281931"/>
<stop offset="1" stop-color="#A787FF" stop-opacity="0"/>
</linearGradient>
</defs>
</svg>
