<svg width="60" height="60" viewBox="0 0 60 60" fill="none" xmlns="http://www.w3.org/2000/svg">
    <path d="M48.1476 10.9999H11.8521C11.3537 10.9999 10.9528 11.4008 10.9528 11.8991V18.5515H49.0469V11.8991C49.0469 11.4008 48.6352 10.9999 48.1476 10.9999ZM35.1679 16.4821C34.3336 16.4821 33.6511 15.7996 33.6511 14.9653C33.6511 14.131 34.3228 13.4485 35.1679 13.4485C36.013 13.4485 36.6847 14.1202 36.6847 14.9653C36.6847 15.7996 36.0022 16.4821 35.1679 16.4821ZM39.9134 16.4821C39.0792 16.4821 38.3966 15.7996 38.3966 14.9653C38.3966 14.131 39.0683 13.4485 39.9134 13.4485C40.7477 13.4485 41.4302 14.1202 41.4302 14.9653C41.4302 15.7996 40.7477 16.4821 39.9134 16.4821ZM44.6589 16.4821C43.8247 16.4821 43.1421 15.7996 43.1421 14.9653C43.1421 14.131 43.8138 13.4485 44.6589 13.4485C45.4932 13.4485 46.1758 14.1202 46.1758 14.9653C46.1649 15.7996 45.4932 16.4821 44.6589 16.4821Z" stroke="white" stroke-miterlimit="10" stroke-linecap="round" stroke-linejoin="round"/>
    <path d="M33.6619 14.9648C33.6619 14.1306 34.3336 13.448 35.1787 13.448C36.0238 13.448 36.6955 14.1197 36.6955 14.9648C36.6955 15.7991 36.013 16.4817 35.1787 16.4817C34.3444 16.4817 33.6619 15.7991 33.6619 14.9648Z" stroke="white" stroke-miterlimit="10" stroke-linecap="round" stroke-linejoin="round"/>
    <path d="M38.3965 14.9648C38.3965 14.1306 39.0682 13.448 39.9133 13.448C40.7476 13.448 41.4301 14.1197 41.4301 14.9648C41.4301 15.7991 40.7476 16.4817 39.9133 16.4817C39.0791 16.4817 38.3965 15.7991 38.3965 14.9648Z" stroke="white" stroke-miterlimit="10" stroke-linecap="round" stroke-linejoin="round"/>
    <path d="M43.1422 14.9648C43.1422 14.1306 43.8139 13.448 44.659 13.448C45.4932 13.448 46.1758 14.1197 46.1758 14.9648C46.1758 15.7991 45.4932 16.4817 44.659 16.4817C43.8247 16.4817 43.1422 15.7991 43.1422 14.9648Z" stroke="white" stroke-miterlimit="10" stroke-linecap="round" stroke-linejoin="round"/>
    <path d="M38.648 49.0001V32.0288M10.9531 18.4576V48.1008C10.9531 48.5992 11.3539 49.0001 11.8523 49.0001H48.1479C48.6463 49.0001 49.0472 48.5992 49.0472 48.1008V18.4576H10.9531Z" stroke="white" stroke-miterlimit="10" stroke-linecap="round" stroke-linejoin="round"/>
    <path d="M36.6848 14.9648C36.6848 15.7991 36.0022 16.4817 35.168 16.4817C34.3337 16.4817 33.6511 15.7991 33.6511 14.9648C33.6511 14.1306 34.3229 13.448 35.168 13.448C36.013 13.448 36.6848 14.1306 36.6848 14.9648Z" stroke="white" stroke-miterlimit="10" stroke-linecap="round" stroke-linejoin="round"/>
    <path d="M46.1649 14.9648C46.1649 15.7991 45.4824 16.4817 44.6481 16.4817C43.8139 16.4817 43.1313 15.7991 43.1313 14.9648C43.1313 14.1306 43.803 13.448 44.6481 13.448C45.4932 13.4588 46.1649 14.1306 46.1649 14.9648Z" stroke="white" stroke-miterlimit="10" stroke-linecap="round" stroke-linejoin="round"/>
    <path d="M41.4301 14.9648C41.4301 15.7991 40.7476 16.4817 39.9133 16.4817C39.0791 16.4817 38.3965 15.7991 38.3965 14.9648C38.3965 14.1306 39.0682 13.448 39.9133 13.448C40.7476 13.4588 41.4301 14.1306 41.4301 14.9648Z" stroke="white" stroke-miterlimit="10" stroke-linecap="round" stroke-linejoin="round"/>
    <path d="M22.9007 26.9176C22.9007 28.0779 21.9601 29.0241 20.7942 29.0241C19.6283 29.0241 18.6877 28.0779 18.6877 26.9176C18.6877 25.7573 19.6283 24.811 20.7942 24.811C21.9601 24.811 22.9007 25.7517 22.9007 26.9176Z" stroke="#A787FF" stroke-miterlimit="10" stroke-linecap="round" stroke-linejoin="round"/>
    <path d="M20.794 29.0918V37.4278V40.965" stroke="#A787FF" stroke-miterlimit="10" stroke-linecap="round" stroke-linejoin="round"/>
    <path d="M30.8424 29.677C30.8424 30.8373 29.9018 31.7835 28.7359 31.7835C27.57 31.7835 26.6293 30.8429 26.6293 29.677C26.6293 28.5111 27.57 27.5704 28.7359 27.5704C29.9018 27.5704 30.8424 28.5111 30.8424 29.677Z" stroke="#A787FF" stroke-miterlimit="10" stroke-linecap="round" stroke-linejoin="round"/>
    <path d="M22.9064 43.06C22.9064 44.2203 21.9658 45.1666 20.7998 45.1666C19.6339 45.1666 18.6933 44.2259 18.6933 43.06C18.6933 41.8941 19.6339 40.9535 20.7998 40.9535C21.9658 40.9535 22.9064 41.8997 22.9064 43.06Z" stroke="#A787FF" stroke-miterlimit="10" stroke-linecap="round" stroke-linejoin="round"/>
    <path d="M28.6964 31.824V32.866C28.6964 34.6965 27.1981 36.2004 25.362 36.2004H21.515H20.794" stroke="#A787FF" stroke-miterlimit="10" stroke-linecap="round" stroke-linejoin="round"/>
</svg>