<svg width="120" height="120" viewBox="0 0 120 120" fill="none" xmlns="http://www.w3.org/2000/svg">
<path d="M94.7086 31.9787V37.1101C88.7007 33.2402 80.5974 33.9244 75.3378 39.184C71.2755 43.2463 69.9499 48.9977 71.3183 54.1718C72.0025 56.7161 73.3494 59.1107 75.3378 61.1205C77.2621 63.0447 79.5712 64.3703 82.0086 65.0545C86.2419 66.2732 90.9029 65.6531 94.7086 63.1944V79.9995C94.7086 81.0685 93.832 81.9665 92.7416 81.9665H56.245V81.9451H60.8632L62.4667 80.363V75.6165H67.2773L68.7098 74.184V69.1382H73.8626L75.851 67.1498L68.6671 59.9659L47.1368 81.5175V81.9451H20.967C19.898 81.9451 19 81.0685 19 79.9781V31.9787C19 30.9097 19.8766 30.0117 20.967 30.0117H92.763C93.832 30.0117 94.7086 30.8883 94.7086 31.9787Z" stroke="white" stroke-width="1.5" stroke-miterlimit="10" stroke-linecap="round" stroke-linejoin="round"/>
<path d="M93.3616 42.9468C94.1954 43.7593 94.6444 44.8283 94.7299 45.8974V46.6671C94.6444 47.7361 94.1954 48.7837 93.3616 49.6176C91.5228 51.4563 88.5295 51.4563 86.6908 49.6176C84.8521 47.7789 84.8521 44.7856 86.6908 42.9468C88.5295 41.0867 91.5014 41.0867 93.3616 42.9468Z" stroke="white" stroke-width="1.5" stroke-miterlimit="10" stroke-linecap="round" stroke-linejoin="round"/>
<path d="M49.6384 38.2219V58.2127C49.6384 59.2818 48.7617 60.1798 47.6713 60.1798H44.6567V56.823C44.6567 54.2573 43.16 52.0124 40.9792 50.9433C42.2193 49.9598 43.0104 48.4418 43.0104 46.7527C43.0104 43.8022 40.6157 41.4076 37.6652 41.4076C34.7147 41.4076 32.3201 43.8022 32.3201 46.7527C32.3201 48.4632 33.1112 49.9812 34.3512 50.9433C32.1704 52.0124 30.6738 54.2573 30.6738 56.823V60.1798H27.7019C26.6328 60.1798 25.7349 59.3031 25.7349 58.2127V38.2219C25.7349 37.1529 26.6115 36.2549 27.7019 36.2549H47.6927C48.7617 36.2763 49.6384 37.1529 49.6384 38.2219Z" stroke="#A787FF" stroke-width="1.5" stroke-miterlimit="10" stroke-linecap="round" stroke-linejoin="round"/>
<path d="M44.6566 56.823V60.1798H30.6951V56.823C30.6951 54.2573 32.1917 52.0124 34.3725 50.9434C35.2919 51.6489 36.4251 52.0765 37.6651 52.0765C38.9052 52.0765 40.0598 51.6489 40.9577 50.9434C43.1599 52.0124 44.6566 54.236 44.6566 56.823Z" stroke="#A787FF" stroke-width="1.5" stroke-miterlimit="10" stroke-linecap="round" stroke-linejoin="round"/>
<path d="M25.4141 65.1406H49.7024" stroke="#A787FF" stroke-width="1.5" stroke-miterlimit="10" stroke-linecap="round" stroke-linejoin="round"/>
<path d="M43.0316 46.7309C43.0316 48.4413 42.2405 49.9594 41.0004 50.9215C40.1024 51.6484 38.9479 52.0547 37.7078 52.0547C36.4677 52.0547 35.3132 51.627 34.4152 50.9215C33.1751 49.938 32.384 48.42 32.384 46.7309C32.384 43.7804 34.7787 41.3857 37.7292 41.3857C40.6797 41.3857 43.0316 43.7804 43.0316 46.7309Z" stroke="#A787FF" stroke-width="1.5" stroke-miterlimit="10" stroke-linecap="round" stroke-linejoin="round"/>
<path d="M97.2957 39.1842C96.5046 38.3931 95.628 37.6875 94.73 37.1102C88.7221 33.2404 80.6188 33.9245 75.3592 39.1842C71.2969 43.2465 69.9713 48.9978 71.3397 54.1719C72.0239 56.7162 73.3708 59.1109 75.3592 61.1206C77.2835 63.0449 79.5926 64.3705 82.03 65.0547C86.2633 66.2734 90.9243 65.6533 94.73 63.1945C95.628 62.6173 96.5046 61.9117 97.2957 61.1206C103.346 55.0485 103.346 45.2349 97.2957 39.1842ZM94.7086 46.6674C94.6231 47.7364 94.1741 48.784 93.3403 49.6179C91.5016 51.4566 88.5083 51.4566 86.6695 49.6179C84.8308 47.7791 84.8308 44.7859 86.6695 42.9471C88.5083 41.1084 91.5016 41.1084 93.3403 42.9471C94.1741 43.7596 94.6231 44.8286 94.7086 45.8977C94.7514 46.1542 94.7514 46.4108 94.7086 46.6674Z" stroke="white" stroke-width="1.5" stroke-miterlimit="10" stroke-linecap="round" stroke-linejoin="round"/>
<path d="M94.7087 46.6676C94.6232 47.7367 94.1742 48.7843 93.3403 49.6181C91.5016 51.4569 88.5083 51.4569 86.6696 49.6181C84.8308 47.7794 84.8308 44.7861 86.6696 42.9474C88.5083 41.1087 91.5016 41.1087 93.3403 42.9474C94.1742 43.7599 94.6232 44.8289 94.7087 45.8979C94.7514 46.1545 94.7514 46.4111 94.7087 46.6676Z" stroke="white" stroke-width="1.5" stroke-miterlimit="10" stroke-linecap="round" stroke-linejoin="round"/>
<path d="M81.2174 68.0906C80.6188 68.6892 79.8063 68.9886 79.0152 68.9886C78.2242 68.9886 77.4117 68.6892 76.813 68.0906L75.8509 67.1284L67.9829 59.2604C66.7642 58.0417 66.7642 56.0533 67.9829 54.856C68.5815 54.2573 69.394 53.958 70.1851 53.958C70.5699 53.958 70.9548 54.0221 71.3182 54.1718C72.0024 56.7161 73.3494 59.1107 75.3378 61.1205C77.262 63.0448 79.5711 64.3703 82.0085 65.0545C82.3079 66.1022 82.0513 67.2781 81.2174 68.0906Z" stroke="white" stroke-width="1.5" stroke-miterlimit="10" stroke-linecap="round" stroke-linejoin="round"/>
<path d="M73.8838 69.1167H68.7097V74.1625L67.2772 75.6164H62.4666V80.3415L60.863 81.9451H56.2448V86.884L54.1068 89.0006H47.1367V81.5174L68.6883 59.9658L75.8722 67.1497L73.8838 69.1167Z" stroke="white" stroke-width="1.5" stroke-miterlimit="10" stroke-linecap="round" stroke-linejoin="round"/>
<path d="M75.8724 67.1497L68.6885 59.9658L75.8724 67.1497Z" stroke="white" stroke-width="1.5" stroke-miterlimit="10" stroke-linecap="round" stroke-linejoin="round"/>
<g filter="url(#filter0_d_271_2245)">
<circle cx="90.155" cy="42.1028" r="2.58076" transform="rotate(-90 90.155 42.1028)" fill="#A787FF"/>
</g>
<path d="M90.2278 40.2295L90.2278 16" stroke="url(#paint0_linear_271_2245)" stroke-width="1.5" stroke-linecap="round"/>
<defs>
<filter id="filter0_d_271_2245" x="78.5742" y="30.5225" width="23.1616" height="23.1611" filterUnits="userSpaceOnUse" color-interpolation-filters="sRGB">
<feFlood flood-opacity="0" result="BackgroundImageFix"/>
<feColorMatrix in="SourceAlpha" type="matrix" values="0 0 0 0 0 0 0 0 0 0 0 0 0 0 0 0 0 0 127 0" result="hardAlpha"/>
<feMorphology radius="5" operator="dilate" in="SourceAlpha" result="effect1_dropShadow_271_2245"/>
<feOffset/>
<feGaussianBlur stdDeviation="2"/>
<feComposite in2="hardAlpha" operator="out"/>
<feColorMatrix type="matrix" values="0 0 0 0 0.654902 0 0 0 0 0.529412 0 0 0 0 1 0 0 0 0.281931 0"/>
<feBlend mode="normal" in2="BackgroundImageFix" result="effect1_dropShadow_271_2245"/>
<feBlend mode="normal" in="SourceGraphic" in2="effect1_dropShadow_271_2245" result="shape"/>
</filter>
<linearGradient id="paint0_linear_271_2245" x1="90.7278" y1="42.4834" x2="90.7278" y2="15.4366" gradientUnits="userSpaceOnUse">
<stop stop-color="#A787FF"/>
<stop offset="0.718069" stop-color="#A787FF" stop-opacity="0.281931"/>
<stop offset="1" stop-color="#A787FF" stop-opacity="0"/>
</linearGradient>
</defs>
</svg>
