
<svg width="60" height="60" viewBox="0 0 60 60" fill="none" xmlns="http://www.w3.org/2000/svg">
    <path d="M48.8642 11.5001H11.1358C10.5769 11.5001 10.1196 11.9574 10.1196 12.5164V36.2459H49.8804V12.5164C49.8804 11.9574 49.4231 11.5001 48.8642 11.5001ZM29.8518 14.3541C33.0869 14.3541 35.7122 16.9794 35.7122 20.2145C35.7122 22.2724 34.6451 24.0847 33.0361 25.1348C32.367 25.5752 31.5964 25.8716 30.7749 25.9987C30.4785 26.0495 30.1651 26.0749 29.8518 26.0749C29.5385 26.0749 29.2251 26.0495 28.9287 25.9987C28.1072 25.8716 27.3366 25.5668 26.6675 25.1264C25.0585 24.0847 23.9914 22.2724 23.9914 20.206C23.9914 16.9794 26.6167 14.3541 29.8518 14.3541Z" stroke="white" stroke-miterlimit="10" stroke-linecap="round" stroke-linejoin="round"/>
    <path d="M23.9914 20.2144C23.9914 16.9793 26.6167 14.354 29.8518 14.354C33.0869 14.354 35.7122 16.9793 35.7122 20.2144C35.7122 22.2723 34.6451 24.0846 33.036 25.1348C32.367 25.5751 31.5964 25.8715 30.7749 25.9986C30.4785 26.0494 30.1651 26.0748 29.8518 26.0748C29.5384 26.0748 29.2251 26.0494 28.9287 25.9986C28.1072 25.8715 27.3366 25.5667 26.6675 25.1263C25.0585 24.0846 23.9914 22.2723 23.9914 20.2144Z" stroke="white" stroke-miterlimit="10" stroke-linecap="round" stroke-linejoin="round"/>
    <path d="M49.8804 36.2454V39.7853C49.8804 40.3442 49.4231 40.8016 48.8642 40.8016H11.1358C10.5769 40.8016 10.1196 40.3442 10.1196 39.7853V36.2454H49.8804Z" stroke="white" stroke-miterlimit="10" stroke-linecap="round" stroke-linejoin="round"/>
    <path d="M36.4321 48.5H23.6951L26.2103 40.8019H33.9254L36.4321 48.5Z" stroke="white" stroke-miterlimit="10" stroke-linecap="round" stroke-linejoin="round"/>
    <path d="M30.7749 25.9988H28.9287" stroke="white" stroke-miterlimit="10" stroke-linecap="round" stroke-linejoin="round"/>
    <path d="M26.6675 25.1352V24.4746C26.6675 23.2975 27.3535 22.2812 28.3443 21.79C28.7593 22.1203 29.2844 22.3151 29.8518 22.3151C30.4192 22.3151 30.9442 22.1203 31.3592 21.79C32.35 22.2812 33.036 23.2975 33.036 24.4746V25.1352" stroke="#A787FF" stroke-miterlimit="10" stroke-linecap="round" stroke-linejoin="round"/>
    <path d="M32.2908 19.8671C32.2908 20.6462 31.9266 21.3407 31.3592 21.781C30.9442 22.1113 30.4192 22.3061 29.8518 22.3061C29.2843 22.3061 28.7593 22.1113 28.3443 21.781C27.7769 21.3322 27.4128 20.6378 27.4128 19.8671C27.4128 18.5206 28.5052 17.4281 29.8518 17.4281C31.1983 17.4281 32.2908 18.5206 32.2908 19.8671Z" stroke="#A787FF" stroke-miterlimit="10" stroke-linecap="round" stroke-linejoin="round"/>
    <path d="M35.7122 20.2149C35.7122 22.2728 34.6451 24.0852 33.036 25.1353C32.367 25.5757 31.5964 25.8721 30.7749 25.9991C30.4785 26.0499 30.1651 26.0753 29.8518 26.0753C29.5384 26.0753 29.2251 26.0499 28.9287 25.9991C28.1072 25.8721 27.3366 25.5672 26.6675 25.1268C25.0585 24.0852 23.9914 22.2728 23.9914 20.2065C23.9914 16.9714 26.6167 14.3461 29.8518 14.3461C33.0869 14.3461 35.7122 16.9799 35.7122 20.2149Z" stroke="#A787FF" stroke-miterlimit="10" stroke-linecap="round" stroke-linejoin="round"/>
    <path d="M39.9513 32.0956H32.863" stroke="#A787FF" stroke-miterlimit="10" stroke-linecap="round" stroke-linejoin="round"/>
    <path d="M43.0933 30.4444V34.0756C43.0933 34.3242 42.907 34.5195 42.6699 34.5195H40.3833C40.1462 34.5195 39.9599 34.3242 39.9599 34.0756V30.4444C39.9599 30.1958 40.1462 30.0005 40.3833 30.0005H42.6699C42.8985 30.0005 43.0933 30.2047 43.0933 30.4444Z" stroke="#A787FF" stroke-miterlimit="10" stroke-linecap="round" stroke-linejoin="round"/>
    <path d="M16.8231 32.0956H12.9021" stroke="white" stroke-miterlimit="10" stroke-linecap="round" stroke-linejoin="round"/>
    <path d="M27.0534 32.0956H19.9565" stroke="white" stroke-miterlimit="10" stroke-linecap="round" stroke-linejoin="round"/>
    <path d="M16.8231 30.4444V34.0756C16.8231 34.3242 17.0095 34.5195 17.2466 34.5195H19.5332C19.7703 34.5195 19.9566 34.3242 19.9566 34.0756V30.4444C19.9566 30.1958 19.7703 30.0005 19.5332 30.0005H17.2466C17.0095 30.0005 16.8231 30.1958 16.8231 30.4444Z" stroke="white" stroke-miterlimit="10" stroke-linecap="round" stroke-linejoin="round"/>
</svg>