<svg width="60" height="60" viewBox="0 0 60 60" fill="none" xmlns="http://www.w3.org/2000/svg">
    <path d="M47.508 48.4996H12.4826C11.9425 48.4996 11.4955 48.0526 11.4955 47.5124V12.487C11.4955 11.9469 11.9425 11.4999 12.4826 11.4999H47.5174C48.0575 11.4999 48.5045 11.9469 48.5045 12.487V47.5218C48.4952 48.0526 48.0482 48.4996 47.508 48.4996Z" stroke="white" stroke-miterlimit="10" stroke-linecap="round" stroke-linejoin="round"/>
    <path d="M11.4955 16.6691H20.92H48.4952" stroke="white" stroke-miterlimit="10" stroke-linecap="round" stroke-linejoin="round"/>
    <path d="M20.9199 48.5002V16.6691" stroke="white" stroke-miterlimit="10" stroke-linecap="round" stroke-linejoin="round"/>
    <path d="M23.8442 27.5559H39.527" stroke="#A787FF" stroke-miterlimit="10" stroke-linecap="round" stroke-linejoin="round"/>
    <path d="M23.8444 30.8711H27.8396" stroke="#A787FF" stroke-miterlimit="10" stroke-linecap="round" stroke-linejoin="round"/>
    <path d="M14.5781 27.5559H17.8096" stroke="#A787FF" stroke-miterlimit="10" stroke-linecap="round" stroke-linejoin="round"/>
    <path d="M14.5782 30.8711H17.8097" stroke="#A787FF" stroke-miterlimit="10" stroke-linecap="round" stroke-linejoin="round"/>
    <path d="M14.5782 34.4001H17.8097" stroke="white" stroke-miterlimit="10" stroke-linecap="round" stroke-linejoin="round"/>
    <path d="M14.5782 37.6409H17.8097" stroke="white" stroke-miterlimit="10" stroke-linecap="round" stroke-linejoin="round"/>
    <path d="M31.1152 44.924C31.0653 44.924 31.0127 44.9109 30.968 44.8847L30.5 44.6092C30.429 44.5698 30.4632 44.5567 30.4869 44.5489C30.5789 44.5174 30.5999 44.5095 30.6972 44.4518C30.7077 44.4465 30.7209 44.4492 30.7314 44.4544L31.0915 44.6669C31.1047 44.6748 31.1231 44.6748 31.1362 44.6669L32.5375 43.8615C32.5506 43.8536 32.5585 43.8379 32.5585 43.8248V42.2114C32.5585 42.1956 32.5506 42.1799 32.5375 42.172L31.1389 41.3666C31.1257 41.3588 31.1099 41.3588 31.0968 41.3666L29.6982 42.172C29.685 42.1799 29.6771 42.1956 29.6771 42.2114V43.8248C29.6771 43.8405 29.685 43.8536 29.6982 43.8615L30.082 44.0819C30.2897 44.1868 30.4185 44.0635 30.4185 43.9402V42.3478C30.4185 42.3242 30.4369 42.3084 30.458 42.3084H30.6341C30.6551 42.3084 30.6735 42.3268 30.6735 42.3478V43.9402C30.6735 44.2183 30.521 44.3757 30.2581 44.3757C30.1766 44.3757 30.1136 44.3757 29.9348 44.2891L29.5667 44.0766C29.4747 44.0242 29.4195 43.9271 29.4195 43.8222V42.2088C29.4195 42.1038 29.4747 42.0068 29.5667 41.9543L30.968 41.1463C31.0574 41.0964 31.1757 41.0964 31.2624 41.1463L32.6637 41.9543C32.7531 42.0068 32.8109 42.1038 32.8109 42.2088V43.8222C32.8109 43.9271 32.7557 44.0242 32.6637 44.0766L31.2624 44.8847C31.2177 44.9109 31.1678 44.924 31.1152 44.924Z" fill="white"/>
    <path d="M31.549 43.8152C30.9364 43.8152 30.8076 43.5345 30.8076 43.2984C30.8076 43.2747 30.826 43.259 30.8471 43.259H31.0285C31.0495 43.259 31.0653 43.2747 31.0679 43.2931C31.0942 43.4767 31.1757 43.5686 31.5464 43.5686C31.8408 43.5686 31.967 43.503 31.967 43.3456C31.967 43.2564 31.9302 43.1882 31.4728 43.1436C31.0889 43.1068 30.8523 43.0203 30.8523 42.716C30.8523 42.4352 31.0915 42.2673 31.4912 42.2673C31.9407 42.2673 32.1616 42.4221 32.1905 42.7553C32.1905 42.7658 32.1878 42.7789 32.18 42.7868C32.1721 42.7947 32.1616 42.7999 32.151 42.7999H31.9696C31.9512 42.7999 31.9355 42.7868 31.9302 42.7684C31.8855 42.5743 31.7803 42.5139 31.4938 42.5139C31.1704 42.5139 31.1336 42.6268 31.1336 42.7107C31.1336 42.813 31.1783 42.8419 31.6121 42.8996C32.0433 42.9573 32.2457 43.036 32.2457 43.3377C32.2457 43.642 31.9907 43.8152 31.549 43.8152ZM33.2526 42.1073H33.2999C33.3394 42.1073 33.3446 42.0811 33.3446 42.0653C33.3446 42.0234 33.3157 42.0234 33.2999 42.0234H33.2526V42.1073ZM33.1948 41.9735H33.2999C33.3367 41.9735 33.4051 41.9735 33.4051 42.0522C33.4051 42.1073 33.3683 42.1204 33.3472 42.1257C33.3893 42.1283 33.3919 42.1545 33.3972 42.1939C33.3998 42.2175 33.4051 42.2595 33.413 42.2726H33.3499C33.3472 42.2595 33.3394 42.1808 33.3394 42.1782C33.3341 42.1598 33.3288 42.1519 33.3078 42.1519H33.2552V42.2726H33.1974V41.9735H33.1948ZM33.0712 42.1257C33.0712 42.2516 33.1737 42.3513 33.2973 42.3513C33.4235 42.3513 33.5234 42.249 33.5234 42.1257C33.5234 41.9998 33.4208 41.9001 33.2973 41.9001C33.1737 41.9001 33.0686 41.9971 33.0712 42.1257ZM33.5654 42.1257C33.5654 42.2752 33.4445 42.3959 33.2947 42.3959C33.1474 42.3959 33.0239 42.2752 33.0239 42.1257C33.0239 41.9735 33.1501 41.8555 33.2947 41.8555C33.4419 41.8555 33.5654 41.9735 33.5654 42.1257Z" fill="white"/>
    <path fill-rule="evenodd" clip-rule="evenodd" d="M26.7801 38.6147C26.7801 38.5491 26.7459 38.4914 26.6907 38.4599L25.2053 37.6073C25.179 37.5916 25.1527 37.5837 25.1238 37.5837H25.108C25.0791 37.5837 25.0502 37.5916 25.0265 37.6073L23.5411 38.4599C23.4859 38.4914 23.4518 38.5517 23.4518 38.6147L23.4544 40.9102C23.4544 40.9417 23.4702 40.9705 23.4991 40.9863C23.5254 41.002 23.5595 41.002 23.5885 40.9863L24.4718 40.4852C24.527 40.4511 24.5612 40.3934 24.5612 40.3304V39.2574C24.5612 39.1945 24.5954 39.1341 24.6506 39.1026L25.0265 38.8875C25.0554 38.8718 25.0844 38.8639 25.1159 38.8639C25.1475 38.8639 25.179 38.8718 25.2053 38.8875L25.5812 39.1026C25.6365 39.1341 25.6706 39.1945 25.6706 39.2574V40.3304C25.6706 40.3934 25.7048 40.4537 25.76 40.4852L26.6434 40.9889C26.6723 41.0046 26.7065 41.0046 26.7328 40.9889C26.759 40.9731 26.7774 40.9443 26.7774 40.9128L26.7801 38.6147ZM33.7864 39.811C33.7864 39.8267 33.7785 39.8424 33.7627 39.8503L33.2527 40.1441C33.2395 40.152 33.2211 40.152 33.208 40.1441L32.698 39.8503C32.6848 39.8424 32.6743 39.8267 32.6743 39.811V39.2233C32.6743 39.2076 32.6822 39.1918 32.6953 39.184L33.2054 38.8901C33.2185 38.8823 33.2369 38.8823 33.2501 38.8901L33.7601 39.184C33.7732 39.1918 33.7837 39.2076 33.7837 39.2233L33.7864 39.811ZM33.9231 35.4587C33.8942 35.443 33.8626 35.443 33.8337 35.4587C33.8074 35.4744 33.789 35.5033 33.789 35.5348V37.8093C33.789 37.8329 33.7759 37.8513 33.7575 37.8644C33.739 37.8749 33.7154 37.8749 33.6944 37.8644L33.3237 37.6519C33.2685 37.6204 33.2001 37.6204 33.1449 37.6519L31.6595 38.5071C31.6043 38.5386 31.5701 38.5989 31.5701 38.6619V40.3724C31.5701 40.4353 31.6043 40.4957 31.6595 40.5272L33.1449 41.3824C33.2001 41.4139 33.2685 41.4139 33.3237 41.3824L34.8091 40.5272C34.8643 40.4957 34.8984 40.4353 34.8984 40.3724V36.1093C34.8984 36.0437 34.8643 35.9834 34.8064 35.9519L33.9231 35.4587ZM38.8682 39.2076C38.9234 39.1761 38.9576 39.1158 38.9576 39.0528V38.6383C38.9576 38.5753 38.9234 38.515 38.8682 38.4835L37.3934 37.6283C37.3382 37.5968 37.2698 37.5968 37.2146 37.6283L35.7292 38.4835C35.674 38.515 35.6398 38.5753 35.6398 38.6383V40.3488C35.6398 40.4144 35.674 40.4721 35.7292 40.5036L37.2041 41.343C37.2593 41.3745 37.325 41.3745 37.3802 41.343L38.2715 40.8472C38.3004 40.8315 38.3161 40.8026 38.3161 40.7685C38.3161 40.737 38.2977 40.7056 38.2715 40.6898L36.7808 39.8398C36.7519 39.8241 36.7361 39.7952 36.7361 39.7637V39.2259C36.7361 39.1945 36.7519 39.1656 36.7808 39.1472L37.2461 38.8797C37.2751 38.8639 37.3066 38.8639 37.3355 38.8797L37.8009 39.1472C37.8298 39.163 37.8456 39.1918 37.8456 39.2233V39.6457C37.8456 39.6772 37.864 39.706 37.8902 39.7244C37.9192 39.7401 37.9533 39.7401 37.9796 39.7244L38.8682 39.2076Z" fill="white"/>
    <path fill-rule="evenodd" clip-rule="evenodd" d="M37.2804 39.1286C37.2909 39.1233 37.304 39.1233 37.3145 39.1286L37.5985 39.2938C37.609 39.2991 37.6169 39.3122 37.6169 39.3227V39.6506C37.6169 39.6637 37.6116 39.6742 37.5985 39.6795L37.3145 39.8448C37.304 39.85 37.2909 39.85 37.2804 39.8448L36.9964 39.6795C36.9859 39.6742 36.978 39.6611 36.978 39.6506V39.3227C36.978 39.3096 36.9833 39.2991 36.9964 39.2938L37.2804 39.1286Z" fill="white"/>
    <path d="M30.755 38.4575L29.2775 37.6075C29.2486 37.5917 29.2197 37.5839 29.1881 37.5839C29.1566 37.5839 29.1276 37.5917 29.0987 37.6075L27.6212 38.4575C27.566 38.4889 27.5318 38.5493 27.5318 38.6122V40.3148C27.5318 40.3778 27.566 40.4381 27.6212 40.4696L29.0987 41.3196C29.1539 41.3511 29.2223 41.3511 29.2775 41.3196L30.755 40.4696C30.8102 40.4381 30.8444 40.3778 30.8444 40.3148V38.6122C30.8444 38.5493 30.8102 38.4916 30.755 38.4575Z" fill="white"/>
</svg>