<svg width="60" height="60" viewBox="0 0 60 60" fill="none" xmlns="http://www.w3.org/2000/svg">
    <path d="M27.2948 14.6597H12.2025C11.5065 14.6597 10.9369 15.2292 10.9369 15.9253V12.2656C10.9369 11.5695 11.5065 11 12.2025 11H23.171C23.8777 12.0652 25.1855 13.5945 27.2948 14.6597Z" stroke="white" stroke-miterlimit="10" stroke-linecap="round" stroke-linejoin="round"/>
    <path d="M49.0631 15.9244V21.4402C49.0631 20.7442 48.4936 20.1747 47.7975 20.1747H45.8991V18.213C45.8991 17.5802 45.3823 17.0634 44.7495 17.0634H15.7146C15.0818 17.0634 14.565 17.5802 14.565 18.213V20.1747H12.2025C11.5065 20.1747 10.9369 20.7442 10.9369 21.4402V15.9244C10.9369 15.2283 11.5065 14.6588 12.2025 14.6588H47.7869C48.4936 14.6588 49.0631 15.2283 49.0631 15.9244Z" stroke="white" stroke-miterlimit="10" stroke-linecap="round" stroke-linejoin="round"/>
    <path d="M45.899 18.2143V20.176H14.5649V18.2143C14.5649 17.5815 15.0817 17.0648 15.7145 17.0648H44.7494C45.3822 17.0648 45.899 17.5815 45.899 18.2143Z" stroke="white" stroke-miterlimit="10" stroke-linecap="round" stroke-linejoin="round"/>
    <path d="M49.0631 21.4406V44.1898C49.0631 44.8858 48.4936 45.4554 47.7975 45.4554H38.5481C39.434 44.5484 40.1828 43.4937 40.7523 42.3441C41.1214 41.5847 41.4168 40.7832 41.6171 39.9395C41.8281 39.0536 41.9441 38.136 41.9441 37.1762C41.9441 36.8704 41.9335 36.5751 41.9124 36.2798C41.4589 30.1733 36.3544 25.3745 30.1424 25.3745C23.9199 25.3745 18.8258 30.1838 18.3723 36.2798C18.3512 36.5751 18.3407 36.8809 18.3407 37.1762C18.3407 38.1254 18.4567 39.0536 18.6676 39.9395C18.868 40.7832 19.1633 41.5847 19.5325 42.3441C20.0914 43.5042 20.8402 44.5484 21.7367 45.4554H12.2025C11.5065 45.4554 10.9369 44.8858 10.9369 44.1898V21.4406C10.9369 20.7446 11.5065 20.175 12.2025 20.175H47.7869C48.4936 20.175 49.0631 20.7446 49.0631 21.4406Z" stroke="white" stroke-miterlimit="10" stroke-linecap="round" stroke-linejoin="round"/>
    <path d="M41.9334 37.1879C41.9334 38.1371 41.8174 39.0652 41.6064 39.9512C41.406 40.7949 41.1107 41.5964 40.7416 42.3558C40.1826 43.5159 39.4338 44.56 38.5374 45.4671C36.3964 47.6502 33.4117 49.0002 30.1211 49.0002C26.8306 49.0002 23.8459 47.6502 21.7049 45.4671C20.8084 44.56 20.0702 43.5054 19.5007 42.3558C19.1315 41.5964 18.8362 40.7949 18.6358 39.9512C18.4249 39.0652 18.3089 38.1477 18.3089 37.1879C18.3089 36.8821 18.3194 36.5868 18.3405 36.2915C18.794 30.185 23.8986 25.3862 30.1106 25.3862C36.3331 25.3862 41.4271 30.1955 41.8806 36.2915C41.9228 36.5868 41.9334 36.8821 41.9334 37.1879Z" stroke="#A787FF" stroke-miterlimit="10" stroke-linecap="round" stroke-linejoin="round"/>
    <path d="M32.8343 44.9691C32.829 44.6215 32.8343 44.2739 32.8343 43.9262C32.8343 43.4364 32.8396 42.9519 32.8396 42.4621C32.8396 42.2408 32.8449 42.0196 32.829 41.7984C32.8027 41.4297 32.7183 41.0769 32.5442 40.745C32.4651 40.5923 32.3702 40.4554 32.2542 40.3342C32.2331 40.3079 32.2067 40.2868 32.1803 40.2605C32.2067 40.2184 32.2489 40.2236 32.2805 40.2184C32.7025 40.171 33.1244 40.0919 33.5357 39.9813C34.0104 39.8549 34.4639 39.6759 34.8806 39.4178C35.6716 38.9332 36.2043 38.2485 36.5155 37.3795C36.6737 36.9371 36.7686 36.4789 36.8108 36.0101C36.8372 35.7099 36.853 35.4149 36.853 35.1147C36.853 34.488 36.7211 33.8875 36.4469 33.324C36.2992 33.0238 36.1147 32.7446 35.8931 32.4918C35.8668 32.4602 35.8351 32.4286 35.8035 32.3917C35.814 32.3549 35.8193 32.318 35.8299 32.2811C35.9986 31.7755 36.0303 31.2594 35.9723 30.7379C35.9353 30.4061 35.8457 30.0848 35.7349 29.7688C35.698 29.6688 35.6453 29.6372 35.5451 29.6319C35.3236 29.6214 35.1126 29.6582 34.9017 29.7056C34.6116 29.7741 34.3374 29.8794 34.0737 30.0058C33.6939 30.1849 33.3248 30.3956 32.9767 30.6273C32.8923 30.6853 32.8238 30.7011 32.7236 30.6747C32.096 30.5062 31.4578 30.4114 30.8091 30.3745C29.7966 30.3166 28.7998 30.4167 27.8189 30.6747C27.7292 30.6958 27.6659 30.6853 27.5921 30.6379C27.1754 30.3587 26.743 30.1164 26.2842 29.9216C25.973 29.7899 25.6513 29.6846 25.3138 29.6424C25.203 29.6214 25.0923 29.6266 24.9815 29.6266C24.9077 29.6266 24.8602 29.6582 24.8338 29.732C24.7125 30.0638 24.6282 30.4061 24.586 30.759C24.5438 31.1224 24.5491 31.4806 24.6229 31.8387C24.6545 31.9967 24.7073 32.1547 24.7495 32.3127C24.7547 32.3285 24.76 32.3496 24.7653 32.3707C24.7389 32.4023 24.7178 32.4339 24.6914 32.4602C24.1746 33.0501 23.8635 33.7348 23.7527 34.5038C23.7263 34.6776 23.7158 34.8619 23.7105 35.0357C23.6947 35.7573 23.7632 36.4736 23.9795 37.1688C24.1482 37.7271 24.4119 38.2327 24.7969 38.6752C25.0975 39.0175 25.4509 39.2914 25.8464 39.5126C26.3633 39.797 26.917 39.9761 27.4971 40.0919C27.7503 40.1446 28.014 40.1762 28.2724 40.2131C28.304 40.2184 28.3357 40.2289 28.3832 40.2394C28.2671 40.3764 28.1511 40.4975 28.0667 40.6397C27.9823 40.7872 27.9085 40.9399 27.861 41.1032C27.8136 41.2665 27.7767 41.4297 27.7292 41.6088C27.7239 41.6141 27.7028 41.6299 27.6817 41.6351C27.3389 41.7826 26.9856 41.8722 26.6111 41.8774C25.9308 41.888 25.3823 41.6193 24.9604 41.0874C24.876 40.9821 24.8022 40.8662 24.7284 40.7556C24.5438 40.4712 24.3276 40.2236 24.0533 40.0235C23.8635 39.8865 23.6578 39.7812 23.4257 39.7338C23.2517 39.6969 23.0776 39.7022 22.9036 39.7285C22.8456 39.7391 22.7823 39.7654 22.7296 39.7917C22.6716 39.8233 22.6557 39.8813 22.6768 39.9445C22.6927 39.9919 22.7243 40.0393 22.7559 40.0814C22.835 40.1868 22.9405 40.2658 23.0565 40.329C23.3097 40.4659 23.4996 40.6713 23.663 40.8978C23.8951 41.2138 24.0902 41.5509 24.2379 41.9196C24.4488 42.4568 24.8444 42.8044 25.3823 42.994C25.7726 43.1362 26.184 43.1731 26.5953 43.1678C26.9276 43.1625 27.2598 43.1204 27.5921 43.0677C27.6132 43.0625 27.6395 43.0625 27.6712 43.0572C27.6712 43.1046 27.6765 43.1467 27.6765 43.1889C27.6817 43.7577 27.687 44.3265 27.687 44.9006" stroke="#A787FF" stroke-miterlimit="10" stroke-linecap="round" stroke-linejoin="round"/>
</svg>