<svg width="121" height="120" viewBox="0 0 121 120" fill="none" xmlns="http://www.w3.org/2000/svg">
<path d="M87.8219 26H22.1276C21.2256 26 20.5 26.7256 20.5 27.6276V39.6683H89.4495V27.6276C89.4495 26.7256 88.7043 26 87.8219 26ZM64.3288 35.9228C62.8189 35.9228 61.5834 34.6873 61.5834 33.1773C61.5834 31.6674 62.7992 30.4319 64.3288 30.4319C65.8584 30.4319 67.0743 31.6477 67.0743 33.1773C67.0743 34.6873 65.8388 35.9228 64.3288 35.9228ZM72.9181 35.9228C71.4081 35.9228 70.1727 34.6873 70.1727 33.1773C70.1727 31.6674 71.3885 30.4319 72.9181 30.4319C74.4281 30.4319 75.6636 31.6477 75.6636 33.1773C75.6636 34.6873 74.4281 35.9228 72.9181 35.9228ZM81.5074 35.9228C79.9974 35.9228 78.762 34.6873 78.762 33.1773C78.762 31.6674 79.9778 30.4319 81.5074 30.4319C83.0174 30.4319 84.2528 31.6477 84.2528 33.1773C84.2332 34.6873 83.0174 35.9228 81.5074 35.9228Z" stroke="white" stroke-width="1.5" stroke-miterlimit="10" stroke-linecap="round" stroke-linejoin="round"/>
<path d="M61.603 33.1771C61.603 31.6671 62.8189 30.4316 64.3485 30.4316C65.8781 30.4316 67.0939 31.6475 67.0939 33.1771C67.0939 34.6871 65.8584 35.9225 64.3485 35.9225C62.8385 35.9225 61.603 34.6871 61.603 33.1771Z" stroke="white" stroke-width="1.5" stroke-miterlimit="10" stroke-linecap="round" stroke-linejoin="round"/>
<path d="M70.1729 33.1771C70.1729 31.6671 71.3887 30.4316 72.9183 30.4316C74.4283 30.4316 75.6637 31.6475 75.6637 33.1771C75.6637 34.6871 74.4283 35.9225 72.9183 35.9225C71.4083 35.9225 70.1729 34.6871 70.1729 33.1771Z" stroke="white" stroke-width="1.5" stroke-miterlimit="10" stroke-linecap="round" stroke-linejoin="round"/>
<path d="M78.7617 33.1771C78.7617 31.6671 79.9776 30.4316 81.5071 30.4316C83.0171 30.4316 84.2526 31.6475 84.2526 33.1771C84.2526 34.6871 83.0171 35.9225 81.5071 35.9225C79.9972 35.9225 78.7617 34.6871 78.7617 33.1771Z" stroke="white" stroke-width="1.5" stroke-miterlimit="10" stroke-linecap="round" stroke-linejoin="round"/>
<path d="M70.6273 94.7793V64.0615M20.5 39.498V93.1516C20.5 94.0537 21.2256 94.7793 22.1276 94.7793H87.8219C88.724 94.7793 89.4495 94.0537 89.4495 93.1516V39.498H20.5Z" stroke="white" stroke-width="1.5" stroke-miterlimit="10" stroke-linecap="round" stroke-linejoin="round"/>
<path d="M67.0744 33.1771C67.0744 34.6871 65.8389 35.9225 64.3289 35.9225C62.8189 35.9225 61.5835 34.6871 61.5835 33.1771C61.5835 31.6671 62.7993 30.4316 64.3289 30.4316C65.8585 30.4316 67.0744 31.6671 67.0744 33.1771Z" stroke="white" stroke-width="1.5" stroke-miterlimit="10" stroke-linecap="round" stroke-linejoin="round"/>
<path d="M84.233 33.1771C84.233 34.6871 82.9976 35.9225 81.4876 35.9225C79.9776 35.9225 78.7422 34.6871 78.7422 33.1771C78.7422 31.6671 79.958 30.4316 81.4876 30.4316C83.0172 30.4513 84.233 31.6671 84.233 33.1771Z" stroke="white" stroke-width="1.5" stroke-miterlimit="10" stroke-linecap="round" stroke-linejoin="round"/>
<path d="M75.6637 33.1771C75.6637 34.6871 74.4283 35.9225 72.9183 35.9225C71.4083 35.9225 70.1729 34.6871 70.1729 33.1771C70.1729 31.6671 71.3887 30.4316 72.9183 30.4316C74.4283 30.4513 75.6637 31.6671 75.6637 33.1771Z" stroke="white" stroke-width="1.5" stroke-miterlimit="10" stroke-linecap="round" stroke-linejoin="round"/>
<g filter="url(#filter0_d_271_2249)">
<circle cx="70.5165" cy="54.0165" r="3.01654" fill="#A787FF"/>
</g>
<path d="M72.7056 54.1016H101.026" stroke="url(#paint0_linear_271_2249)" stroke-width="1.5" stroke-linecap="round"/>
<path d="M42.1256 54.8108C42.1256 56.9109 40.4231 58.6236 38.3128 58.6236C36.2025 58.6236 34.5 56.9109 34.5 54.8108C34.5 52.7107 36.2025 50.998 38.3128 50.998C40.4231 50.998 42.1256 52.7005 42.1256 54.8108Z" stroke="#A787FF" stroke-width="1.5" stroke-miterlimit="10" stroke-linecap="round" stroke-linejoin="round"/>
<path d="M38.313 58.7461V73.8341V80.2364" stroke="#A787FF" stroke-width="1.5" stroke-miterlimit="10" stroke-linecap="round" stroke-linejoin="round"/>
<path d="M56.5001 59.806C56.5001 61.906 54.7976 63.6187 52.6873 63.6187C50.577 63.6187 48.8745 61.9162 48.8745 59.806C48.8745 57.6957 50.577 55.9932 52.6873 55.9932C54.7976 55.9932 56.5001 57.6957 56.5001 59.806Z" stroke="#A787FF" stroke-width="1.5" stroke-miterlimit="10" stroke-linecap="round" stroke-linejoin="round"/>
<path d="M42.1363 84.0286C42.1363 86.1287 40.4338 87.8414 38.3235 87.8414C36.2132 87.8414 34.5107 86.1389 34.5107 84.0286C34.5107 81.9183 36.2132 80.2158 38.3235 80.2158C40.4338 80.2158 42.1363 81.9285 42.1363 84.0286Z" stroke="#A787FF" stroke-width="1.5" stroke-miterlimit="10" stroke-linecap="round" stroke-linejoin="round"/>
<path d="M52.616 63.6904V65.5764C52.616 68.8897 49.9043 71.6117 46.5808 71.6117H39.6179H38.313" stroke="#A787FF" stroke-width="1.5" stroke-miterlimit="10" stroke-linecap="round" stroke-linejoin="round"/>
<defs>
<filter id="filter0_d_271_2249" x="58.5" y="42" width="24.0332" height="24.0332" filterUnits="userSpaceOnUse" color-interpolation-filters="sRGB">
<feFlood flood-opacity="0" result="BackgroundImageFix"/>
<feColorMatrix in="SourceAlpha" type="matrix" values="0 0 0 0 0 0 0 0 0 0 0 0 0 0 0 0 0 0 127 0" result="hardAlpha"/>
<feMorphology radius="5" operator="dilate" in="SourceAlpha" result="effect1_dropShadow_271_2249"/>
<feOffset/>
<feGaussianBlur stdDeviation="2"/>
<feComposite in2="hardAlpha" operator="out"/>
<feColorMatrix type="matrix" values="0 0 0 0 0.654902 0 0 0 0 0.529412 0 0 0 0 1 0 0 0 0.281931 0"/>
<feBlend mode="normal" in2="BackgroundImageFix" result="effect1_dropShadow_271_2249"/>
<feBlend mode="normal" in="SourceGraphic" in2="effect1_dropShadow_271_2249" result="shape"/>
</filter>
<linearGradient id="paint0_linear_271_2249" x1="70.0711" y1="54.6016" x2="101.685" y2="54.6016" gradientUnits="userSpaceOnUse">
<stop stop-color="#A787FF"/>
<stop offset="0.718069" stop-color="#A787FF" stop-opacity="0.281931"/>
<stop offset="1" stop-color="#A787FF" stop-opacity="0"/>
</linearGradient>
</defs>
</svg>
