<svg width="648" height="350" viewBox="0 0 648 350" fill="none" xmlns="http://www.w3.org/2000/svg">
<path d="M214.498 80.5269V86.5289H220.5V80.5269H214.498ZM220.5 86.5289V92.531H214.498V98.533H208.496V104.535H202.494V122.541H208.496V110.537H214.498V122.541H220.5V116.539H250.511V122.541H256.513V110.537H262.515V122.541H268.517V104.535H262.515V98.533H256.513V92.531H250.511V86.5289H244.509V92.531H226.502V86.5289H220.5ZM250.511 86.5289H256.513V80.5269H250.511V86.5289ZM250.511 122.541H238.506V128.543H250.511V122.541ZM220.5 122.541V128.543H232.504V122.541H220.5ZM220.5 98.533H226.502V104.535H220.5V98.533ZM244.509 98.533H250.511V104.535H244.509V98.533Z" fill="#7950ED"/>
<path d="M391.488 80.5269V86.5289H397.49V80.5269H391.488ZM397.49 86.5289V92.531H391.488V98.533H385.485V104.535H379.483V122.541H385.485V110.537H391.488V122.541H397.49V116.539H427.5V122.541H433.502V110.537H439.504V122.541H445.506V104.535H439.504V98.533H433.502V92.531H427.5V86.5289H421.498V92.531H403.492V86.5289H397.49ZM427.5 86.5289H433.502V80.5269H427.5V86.5289ZM427.5 122.541H415.496V128.543H427.5V122.541ZM397.49 122.541V128.543H409.494V122.541H397.49ZM397.49 98.533H403.492V104.535H397.49V98.533ZM421.498 98.533H427.5V104.535H421.498V98.533Z" fill="#53DBEE"/>
<path d="M302.992 150.656V156.658H308.994V150.656H302.992ZM308.994 156.658V162.66H302.992V168.662H296.99V174.664H290.988V192.67H296.99V180.666H302.992V192.67H308.994V186.668H339.005V192.67H345.007V180.666H351.009V192.67H357.011V174.664H351.009V168.662H345.007V162.66H339.005V156.658H333.003V162.66H314.997V156.658H308.994ZM339.005 156.658H345.007V150.656H339.005V156.658ZM339.005 192.67H327.001V198.672H339.005V192.67ZM308.994 192.67V198.672H320.999V192.67H308.994ZM308.994 168.662H314.997V174.664H308.994V168.662ZM333.003 168.662H339.005V174.664H333.003V168.662Z" fill="#7950ED"/>
<path d="M302.992 221.457V227.459H308.994V221.457H302.992ZM308.994 227.459V233.461H302.992V239.463H296.99V245.465H290.988V263.471H296.99V251.467H302.992V263.471H308.994V257.469H339.005V263.471H345.007V251.467H351.009V263.471H357.011V245.465H351.009V239.463H345.007V233.461H339.005V227.459H333.003V233.461H314.997V227.459H308.994ZM339.005 227.459H345.007V221.457H339.005V227.459ZM339.005 263.471H327.001V269.473H339.005V263.471ZM308.994 263.471V269.473H320.999V263.471H308.994ZM308.994 239.463H314.997V245.465H308.994V239.463ZM333.003 239.463H339.005V245.465H333.003V239.463Z" fill="#7950ED"/>
<path d="M391.488 150.656V156.658H397.49V150.656H391.488ZM397.49 156.658V162.66H391.488V168.662H385.485V174.664H379.483V192.67H385.485V180.666H391.488V192.67H397.49V186.668H427.5V192.67H433.502V180.666H439.504V192.67H445.506V174.664H439.504V168.662H433.502V162.66H427.5V156.658H421.498V162.66H403.492V156.658H397.49ZM427.5 156.658H433.502V150.656H427.5V156.658ZM427.5 192.67H415.496V198.672H427.5V192.67ZM397.49 192.67V198.672H409.494V192.67H397.49ZM397.49 168.662H403.492V174.664H397.49V168.662ZM421.498 168.662H427.5V174.664H421.498V168.662Z" fill="#7950ED"/>
<path d="M302.992 80.5269V86.5289H308.994V80.5269H302.992ZM308.994 86.5289V92.531H302.992V98.533H296.99V104.535H290.988V122.541H296.99V110.537H302.992V122.541H308.994V116.539H339.005V122.541H345.007V110.537H351.009V122.541H357.011V104.535H351.009V98.533H345.007V92.531H339.005V86.5289H333.003V92.531H314.997V86.5289H308.994ZM339.005 86.5289H345.007V80.5269H339.005V86.5289ZM339.005 122.541H327.001V128.543H339.005V122.541ZM308.994 122.541V128.543H320.999V122.541H308.994ZM308.994 98.533H314.997V104.535H308.994V98.533ZM333.003 98.533H339.005V104.535H333.003V98.533Z" fill="#7950ED"/>
<path d="M214.498 150.656V156.658H220.5V150.656H214.498ZM220.5 156.658V162.66H214.498V168.662H208.496V174.664H202.494V192.67H208.496V180.666H214.498V192.67H220.5V186.668H250.511V192.67H256.513V180.666H262.515V192.67H268.517V174.664H262.515V168.662H256.513V162.66H250.511V156.658H244.509V162.66H226.502V156.658H220.5ZM250.511 156.658H256.513V150.656H250.511V156.658ZM250.511 192.67H238.506V198.672H250.511V192.67ZM220.5 192.67V198.672H232.504V192.67H220.5ZM220.5 168.662H226.502V174.664H220.5V168.662ZM244.509 168.662H250.511V174.664H244.509V168.662Z" fill="#53DBEE"/>
<path d="M479.982 80.5269V86.5289H485.984V80.5269H479.982ZM485.984 86.5289V92.531H479.982V98.533H473.98V104.535H467.978V122.541H473.98V110.537H479.982V122.541H485.984V116.539H515.994V122.541H521.996V110.537H527.998V122.541H534V104.535H527.998V98.533H521.996V92.531H515.994V86.5289H509.992V92.531H491.986V86.5289H485.984ZM515.994 86.5289H521.996V80.5269H515.994V86.5289ZM515.994 122.541H503.99V128.543H515.994V122.541ZM485.984 122.541V128.543H497.988V122.541H485.984ZM485.984 98.533H491.986V104.535H485.984V98.533ZM509.992 98.533H515.994V104.535H509.992V98.533Z" fill="#7950ED"/>
<path d="M126.004 80.5269V86.5289H132.006V80.5269H126.004ZM132.006 86.5289V92.531H126.004V98.533H120.002V104.535H114V122.541H120.002V110.537H126.004V122.541H132.006V116.539H162.016V122.541H168.019V110.537H174.021V122.541H180.023V104.535H174.021V98.533H168.019V92.531H162.016V86.5289H156.014V92.531H138.008V86.5289H132.006ZM162.016 86.5289H168.019V80.5269H162.016V86.5289ZM162.016 122.541H150.012V128.543H162.016V122.541ZM132.006 122.541V128.543H144.01V122.541H132.006ZM132.006 98.533H138.008V104.535H132.006V98.533ZM156.014 98.533H162.016V104.535H156.014V98.533Z" fill="#7950ED"/>
</svg>
