<svg width="648" height="350" viewBox="0 0 648 350" fill="none" xmlns="http://www.w3.org/2000/svg">
<path d="M349.714 262.892V175H342.367V262.892H335.02V175H327.673V270.216H503.999V262.892H349.714Z" fill="#444B66"/>
<path d="M290.939 262.892H283.592V270.216H290.939V262.892Z" fill="#47B1C0"/>
<path d="M276.245 262.892V255.567H261.551V270.216H283.592V262.892H276.245Z" fill="#53DBEE"/>
<path d="M254.203 262.892H246.856V270.216H254.203V262.892Z" fill="#38909C"/>
<path d="M246.858 262.892H239.511V270.216H246.858V262.892Z" fill="#47B1C0"/>
<path d="M232.164 262.892V255.567H217.47V270.216H239.511V262.892H232.164Z" fill="#53DBEE"/>
<path d="M188.082 262.892H180.735V270.216H188.082V262.892Z" fill="black"/>
<path d="M283.594 255.567H276.247V262.892H283.594V255.567Z" fill="#47B1C0"/>
<path d="M246.858 255.567H239.511V262.892H246.858V255.567Z" fill="#38909C"/>
<path d="M239.512 255.567H232.165V262.892H239.512V255.567Z" fill="#47B1C0"/>
<path d="M158.695 218.946H151.348V270.217H158.695V218.946Z" fill="black"/>
<path d="M283.594 248.243H276.247V255.567H283.594V248.243Z" fill="#AD832D"/>
<path d="M268.898 248.243H261.551V255.567H268.898V248.243Z" fill="#AD832D"/>
<path d="M239.512 248.243H232.165V255.567H239.512V248.243Z" fill="#AD832D"/>
<path d="M254.206 240.919H232.165V248.243H254.206V240.919Z" fill="black"/>
<path d="M232.162 240.919H224.815V255.568H232.162V240.919Z" fill="#D2B863"/>
<path d="M224.817 240.919H217.47V255.568H224.817V240.919Z" fill="#AD832D"/>
<path d="M217.47 240.919H202.776V233.595H180.735V248.243H210.123V255.568H188.082V262.892H217.47V240.919Z" fill="black"/>
<path d="M276.244 233.595H268.897V240.919H276.244V233.595Z" fill="#FFFBA4"/>
<path d="M239.512 233.595H232.165V240.919H239.512V233.595Z" fill="#AD832D"/>
<path d="M232.162 233.595H224.815V240.919H232.162V233.595Z" fill="#FFFBA4"/>
<path d="M224.817 233.595H217.47V240.919H224.817V233.595Z" fill="#D2B863"/>
<path d="M217.47 233.595H202.776V240.919H217.47V233.595Z" fill="#AD832D"/>
<path d="M268.898 226.27H261.551V233.594H268.898V226.27Z" fill="#FFFBA4"/>
<path d="M224.815 226.27V233.594H239.509V240.919H261.55V248.243H268.897V255.567H276.244V240.919H268.897V233.594H261.55V226.27H224.815Z" fill="#D2B863"/>
<path d="M224.817 226.27H217.47V233.594H224.817V226.27Z" fill="#FFFBA4"/>
<path d="M217.47 226.27H202.776V233.594H217.47V226.27Z" fill="#D2B863"/>
<path d="M202.779 218.946H195.432V233.595H202.779V218.946Z" fill="#5838B2"/>
<path d="M364.408 218.946H357.062V262.892H364.408V218.946Z" fill="black"/>
<path d="M261.55 218.946H246.856V226.271H261.55V218.946Z" fill="#5838B2"/>
<path d="M246.858 218.946H202.776V226.271H246.858V218.946Z" fill="#A787FF"/>
<path d="M195.429 218.946H180.735V226.271H195.429V218.946Z" fill="black"/>
<path d="M371.757 204.296H349.716V218.945H371.757V204.296Z" fill="#2C3249"/>
<path d="M327.673 218.945V204.296H276.245V211.621H268.898V204.296H261.551V211.621H202.775V204.296H188.082V211.621H180.735V204.296H144V218.945H327.673Z" fill="#2C3249"/>
<path d="M342.366 204.296H335.02V218.945H342.366V204.296Z" fill="#2C3249"/>
<path d="M276.244 204.296H268.897V211.621H276.244V204.296Z" fill="#444B66"/>
<path d="M261.552 204.296H202.776V211.621H261.552V204.296Z" fill="#444B66"/>
<path d="M188.082 204.296H180.735V211.621H188.082V204.296Z" fill="#444B66"/>
<path d="M327.673 196.973H268.897V204.297H327.673V196.973Z" fill="#515873"/>
<path d="M268.896 196.973H254.202V204.297H268.896V196.973Z" fill="#ECC3A3"/>
<path d="M254.203 196.973H246.856V204.297H254.203V196.973Z" fill="#DBC8D9"/>
<path d="M224.817 196.972V189.648H188.082V196.972H217.47V204.297H232.164V196.972H224.817Z" fill="#DBC8D9"/>
<path d="M217.47 196.973H180.735V204.297H217.47V196.973Z" fill="#D2A886"/>
<path d="M312.98 182.323H283.592V196.972H312.98V182.323Z" fill="#80869D"/>
<path d="M276.244 182.323H268.897V196.972H276.244V182.323Z" fill="#D2A886"/>
<path d="M268.898 189.648H261.551V196.972H268.898V189.648Z" fill="#A7A4AE"/>
<path d="M261.549 189.648H254.202V196.972H261.549V189.648Z" fill="#DBC8D9"/>
<path d="M239.509 189.648H232.162V182.323H224.815V196.972H232.162V204.296H239.509V189.648Z" fill="#CF8934"/>
<path d="M188.082 189.648H180.735V196.972H188.082V189.648Z" fill="#ECC3A3"/>
<path d="M180.732 189.648H173.385V196.972H180.732V189.648Z" fill="#D2A886"/>
<path d="M268.896 182.323H254.202V189.648H268.896V182.323Z" fill="#5838B2"/>
<path d="M232.165 189.648H239.512V204.296H246.859V196.972H254.206V182.323H232.165V189.648Z" fill="#A787FF"/>
<path d="M195.429 182.323H188.082V189.648H195.429V182.323Z" fill="#5838B2"/>
<path d="M188.082 182.323H180.735V189.648H188.082V182.323Z" fill="#DBC8D9"/>
<path d="M180.732 175H173.385V189.649H180.732V175Z" fill="#ECC3A3"/>
<path d="M239.508 175H210.12V182.324H239.508V175Z" fill="#22273C"/>
<path d="M180.732 182.324H195.426V189.648H224.813V182.324H210.119V175H202.772V167.676H195.426V153.027H188.079V160.351H180.732V167.676H173.385V175H180.732V182.324Z" fill="#A787FF"/>
<path d="M349.714 167.676H342.367V175H349.714V167.676Z" fill="#373D57"/>
<path d="M335.02 167.676H327.673V175H335.02V167.676Z" fill="#373D57"/>
<path d="M217.47 167.674V160.35H202.776V167.674H210.123V174.999H239.511V167.674H217.47Z" fill="#15192C"/>
<path d="M210.123 167.676H202.776V175H210.123V167.676Z" fill="#22273C"/>
<path d="M202.779 160.35H195.432V167.674H202.779V160.35Z" fill="#3B2130"/>
<path d="M202.779 153.027H195.432V160.351H202.779V153.027Z" fill="#A98262"/>
<path d="M188.082 153.026H195.429V145.702H180.735V160.351H188.082V153.026Z" fill="#15192C"/>
<path d="M232.162 145.702H224.815V153.026H232.162V145.702Z" fill="black"/>
<path d="M202.776 145.702V160.35H217.47V167.675H239.511V145.702H232.164V153.026H224.817V138.377H217.47V145.702H202.776Z" fill="black"/>
<path d="M202.779 123.729H195.432V153.027H202.779V123.729Z" fill="#D2A886"/>
<path d="M312.978 138.377H298.284V145.702H312.978V138.377Z" fill="#373D57"/>
<path d="M290.939 138.377H283.592V145.702H290.939V138.377Z" fill="#373D57"/>
<path d="M239.509 138.377H224.815V145.702H239.509V138.377Z" fill="white"/>
<path d="M298.284 131.054H290.938V138.379H298.284V131.054Z" fill="#373D57"/>
<path d="M239.509 131.054H224.815V138.379H239.509V131.054Z" fill="#334A41"/>
<path d="M224.817 131.054H217.47V138.379H224.817V131.054Z" fill="#D2A886"/>
<path d="M202.776 145.702H217.47V138.378H210.123V123.729H202.776V145.702Z" fill="#D2A886"/>
<path d="M195.429 123.729H188.082V131.054H195.429V123.729Z" fill="#D2A886"/>
<path d="M202.779 123.729H210.126V101.756H202.779V109.08H195.432V116.405H202.779V123.729Z" fill="#ECC3A3"/>
<path d="M202.779 116.403H195.432V123.728H202.779V116.403Z" fill="#D2A886"/>
<path d="M195.429 116.403H188.082V123.728H195.429V116.403Z" fill="#ECC3A3"/>
<path d="M224.817 109.082H217.47V123.73H224.817V109.082Z" fill="#15192C"/>
<path d="M239.511 101.756V182.323H327.674V167.675H335.021V182.323H342.368V167.675H349.715V182.323H357.062V101.756H239.511ZM298.286 145.702V138.377H290.939V145.702H283.592V138.377H290.939V131.053H298.286V138.377H312.98V145.702H298.286Z" fill="#A3A8B8"/>
<path d="M217.467 94.4307V101.755H210.12V138.377H217.467V131.052H239.508V101.755H261.549V94.4307H217.467ZM217.467 123.728V109.079H224.814V123.728H217.467Z" fill="#FBD9BF"/>
<path d="M217.467 94.4307H210.12V101.755H217.467V94.4307Z" fill="#ECC3A3"/>
<path d="M261.55 87.1089H224.815V94.4332H261.55V87.1089Z" fill="#22273C"/>
<path d="M195.432 87.1075V109.081H202.779V101.756H210.126V94.4319H224.819V87.1075H254.207V79.7832H202.779V87.1075H195.432Z" fill="black"/>
</svg>
