<svg width="568" height="350" viewBox="0 0 568 350" fill="none" xmlns="http://www.w3.org/2000/svg">
<path d="M258.711 133.621H249.516V211.781H258.711V133.621Z" fill="white"/>
<path d="M364.459 133.621H355.264V211.781H364.459V133.621Z" fill="white"/>
<path d="M244.922 138.219H208.141V207.184H244.922V138.219Z" fill="white"/>
<path d="M198.942 147.413H185.148V197.987H198.942V147.413Z" fill="white"/>
<path d="M175.956 165.804H152.968V179.597H175.956V165.804Z" fill="white"/>
<path d="M148.367 170.402H84V175H148.367V170.402Z" fill="white"/>
<path d="M483.999 170.402H419.632V175H483.999V170.402Z" fill="white"/>
<path d="M415.035 165.804H392.047V179.597H415.035V165.804Z" fill="white"/>
<path d="M382.85 147.413H369.057V197.987H382.85V147.413Z" fill="white"/>
<path d="M387.45 152.012H382.852V193.391H387.45V152.012Z" fill="white"/>
<path d="M185.152 152.012H180.554V193.391H185.152V152.012Z" fill="white"/>
<path d="M208.139 142.815H203.541V202.586H208.139V142.815Z" fill="white"/>
<path d="M350.666 138.219H313.885V165.805H350.666V138.219Z" fill="white"/>
<path d="M350.666 165.804H336.873V179.597H350.666V165.804Z" fill="white"/>
<path d="M350.666 179.598H313.885V207.184H350.666V179.598Z" fill="white"/>
<path d="M332.276 170.402H313.885V175H332.276V170.402Z" fill="#A787FF"/>
<path d="M309.287 188.792H281.701V193.39H309.287V188.792Z" fill="#A787FF"/>
<path d="M309.287 152.012H281.701V156.61H309.287V152.012Z" fill="#A787FF"/>
<path d="M185.152 188.792H180.554V193.39H185.152V188.792Z" fill="#D3D4DC"/>
<path d="M185.152 184.195H180.554V188.793H185.152V184.195Z" fill="#D3D4DC"/>
<path d="M175.955 174.999H171.356V179.597H175.955V174.999Z" fill="#D3D4DC"/>
<path d="M171.356 174.999H166.758V179.597H171.356V174.999Z" fill="#D3D4DC"/>
<path d="M166.757 174.999H162.159V179.597H166.757V174.999Z" fill="#D3D4DC"/>
<path d="M162.16 174.999H157.562V179.597H162.16V174.999Z" fill="#D3D4DC"/>
<path d="M157.566 174.999H152.968V179.597H157.566V174.999Z" fill="#D3D4DC"/>
<path d="M148.369 170.402H143.771V175H148.369V170.402Z" fill="#D3D4DC"/>
<path d="M143.77 170.402H139.172V175H143.77V170.402Z" fill="#D3D4DC"/>
<path d="M175.955 170.402H171.356V175H175.955V170.402Z" fill="#D3D4DC"/>
<path d="M175.955 165.804H171.356V170.402H175.955V165.804Z" fill="#D3D4DC"/>
<path d="M189.747 193.391H185.148V197.989H189.747V193.391Z" fill="#D3D4DC"/>
<path d="M189.747 188.792H185.148V193.39H189.747V188.792Z" fill="#D3D4DC"/>
<path d="M194.343 193.391H189.745V197.989H194.343V193.391Z" fill="#D3D4DC"/>
<path d="M194.343 188.792H189.745V193.39H194.343V188.792Z" fill="#D3D4DC"/>
<path d="M198.943 193.391H194.345V197.989H198.943V193.391Z" fill="#D3D4DC"/>
<path d="M198.943 188.792H194.345V193.39H198.943V188.792Z" fill="#D3D4DC"/>
<path d="M208.139 197.988H203.541V202.586H208.139V197.988Z" fill="#D3D4DC"/>
<path d="M208.139 193.391H203.541V197.989H208.139V193.391Z" fill="#D3D4DC"/>
<path d="M212.739 202.585H208.141V207.184H212.739V202.585Z" fill="#D3D4DC"/>
<path d="M212.739 197.988H208.141V202.586H212.739V197.988Z" fill="#D3D4DC"/>
<path d="M217.333 202.585H212.735V207.184H217.333V202.585Z" fill="#D3D4DC"/>
<path d="M217.333 197.988H212.735V202.586H217.333V197.988Z" fill="#D3D4DC"/>
<path d="M221.929 202.585H217.331V207.184H221.929V202.585Z" fill="#D3D4DC"/>
<path d="M221.929 197.988H217.331V202.586H221.929V197.988Z" fill="#D3D4DC"/>
<path d="M226.528 202.585H221.93V207.184H226.528V202.585Z" fill="#D3D4DC"/>
<path d="M226.528 197.988H221.93V202.586H226.528V197.988Z" fill="#D3D4DC"/>
<path d="M231.126 202.585H226.528V207.184H231.126V202.585Z" fill="#D3D4DC"/>
<path d="M231.126 197.988H226.528V202.586H231.126V197.988Z" fill="#D3D4DC"/>
<path d="M235.725 202.585H231.127V207.184H235.725V202.585Z" fill="#D3D4DC"/>
<path d="M235.725 197.988H231.127V202.586H235.725V197.988Z" fill="#D3D4DC"/>
<path d="M240.324 202.585H235.726V207.184H240.324V202.585Z" fill="#D3D4DC"/>
<path d="M240.324 197.988H235.726V202.586H240.324V197.988Z" fill="#D3D4DC"/>
<path d="M244.921 202.585H240.323V207.184H244.921V202.585Z" fill="#D3D4DC"/>
<path d="M244.921 197.988H240.323V202.586H244.921V197.988Z" fill="#D3D4DC"/>
<path d="M258.713 207.185H254.115V211.783H258.713V207.185Z" fill="#D3D4DC"/>
<path d="M258.713 202.585H254.115V207.184H258.713V202.585Z" fill="#D3D4DC"/>
<path d="M318.483 202.585H313.885V207.184H318.483V202.585Z" fill="#D3D4DC"/>
<path d="M318.483 197.988H313.885V202.586H318.483V197.988Z" fill="#D3D4DC"/>
<path d="M323.081 202.585H318.483V207.184H323.081V202.585Z" fill="#D3D4DC"/>
<path d="M323.081 197.988H318.483V202.586H323.081V197.988Z" fill="#D3D4DC"/>
<path d="M327.68 202.585H323.082V207.184H327.68V202.585Z" fill="#D3D4DC"/>
<path d="M327.68 197.988H323.082V202.586H327.68V197.988Z" fill="#D3D4DC"/>
<path d="M332.275 202.585H327.677V207.184H332.275V202.585Z" fill="#D3D4DC"/>
<path d="M332.275 197.988H327.677V202.586H332.275V197.988Z" fill="#D3D4DC"/>
<path d="M336.873 202.585H332.275V207.184H336.873V202.585Z" fill="#D3D4DC"/>
<path d="M336.873 197.988H332.275V202.586H336.873V197.988Z" fill="#D3D4DC"/>
<path d="M341.471 202.585H336.873V207.184H341.471V202.585Z" fill="#D3D4DC"/>
<path d="M341.471 197.988H336.873V202.586H341.471V197.988Z" fill="#D3D4DC"/>
<path d="M346.069 202.585H341.471V207.184H346.069V202.585Z" fill="#D3D4DC"/>
<path d="M346.069 197.988H341.471V202.586H346.069V197.988Z" fill="#D3D4DC"/>
<path d="M350.667 202.585H346.069V207.184H350.667V202.585Z" fill="#D3D4DC"/>
<path d="M350.667 197.988H346.069V202.586H350.667V197.988Z" fill="#D3D4DC"/>
<path d="M359.862 207.185H355.264V211.783H359.862V207.185Z" fill="#D3D4DC"/>
<path d="M359.862 202.585H355.264V207.184H359.862V202.585Z" fill="#D3D4DC"/>
<path d="M364.459 207.185H359.861V211.783H364.459V207.185Z" fill="#D3D4DC"/>
<path d="M364.459 202.585H359.861V207.184H364.459V202.585Z" fill="#D3D4DC"/>
<path d="M373.655 193.391H369.057V197.989H373.655V193.391Z" fill="#D3D4DC"/>
<path d="M373.655 188.792H369.057V193.39H373.655V188.792Z" fill="#D3D4DC"/>
<path d="M378.253 193.391H373.655V197.989H378.253V193.391Z" fill="#D3D4DC"/>
<path d="M378.253 188.792H373.655V193.39H378.253V188.792Z" fill="#D3D4DC"/>
<path d="M382.852 193.391H378.254V197.989H382.852V193.391Z" fill="#D3D4DC"/>
<path d="M382.852 188.792H378.254V193.39H382.852V188.792Z" fill="#D3D4DC"/>
<path d="M387.45 188.792H382.852V193.39H387.45V188.792Z" fill="#D3D4DC"/>
<path d="M387.45 184.195H382.852V188.793H387.45V184.195Z" fill="#D3D4DC"/>
<path d="M396.645 174.999H392.047V179.597H396.645V174.999Z" fill="#D3D4DC"/>
<path d="M396.645 170.402H392.047V175H396.645V170.402Z" fill="#D3D4DC"/>
<path d="M396.645 165.804H392.047V170.402H396.645V165.804Z" fill="#D3D4DC"/>
<path d="M401.241 174.999H396.643V179.597H401.241V174.999Z" fill="#D3D4DC"/>
<path d="M405.839 174.999H401.241V179.597H405.839V174.999Z" fill="#D3D4DC"/>
<path d="M410.438 174.999H405.84V179.597H410.438V174.999Z" fill="#D3D4DC"/>
<path d="M415.035 174.999H410.437V179.597H415.035V174.999Z" fill="#D3D4DC"/>
<path d="M424.23 170.402H419.632V175H424.23V170.402Z" fill="#D3D4DC"/>
<path d="M428.826 170.402H424.228V175H428.826V170.402Z" fill="#D3D4DC"/>
<path d="M254.114 207.185H249.516V211.783H254.114V207.185Z" fill="#D3D4DC"/>
<path d="M254.114 202.585H249.516V207.184H254.114V202.585Z" fill="#D3D4DC"/>
<path d="M309.288 188.792H304.689V193.39H309.288V188.792Z" fill="#7950ED"/>
<path d="M332.275 170.402H327.677V175H332.275V170.402Z" fill="#7950ED"/>
<path d="M309.288 152.012H304.689V156.61H309.288V152.012Z" fill="#7950ED"/>
<path d="M290.898 243.965H286.3V248.563H290.898V243.965Z" fill="#A787FF"/>
<path d="M290.898 248.563H286.3V253.162H290.898V248.563Z" fill="#A787FF"/>
<path d="M290.898 248.563H286.3V253.162H290.898V248.563Z" fill="#A787FF"/>
<path d="M290.898 253.161H286.3V257.759H290.898V253.161Z" fill="#A787FF"/>
<path d="M290.898 253.161H286.3V257.759H290.898V253.161Z" fill="#A787FF"/>
<path d="M290.898 257.757H286.3V262.355H290.898V257.757Z" fill="#A787FF"/>
<path d="M290.898 257.757H286.3V262.355H290.898V257.757Z" fill="#A787FF"/>
<path d="M290.898 262.356H286.3V266.955H290.898V262.356Z" fill="#A787FF"/>
<path d="M263.311 243.965H258.713V248.563H263.311V243.965Z" fill="#A787FF"/>
<path d="M263.311 248.563H258.713V253.162H263.311V248.563Z" fill="#A787FF"/>
<path d="M258.713 253.161H254.115V257.759H258.713V253.161Z" fill="#A787FF"/>
<path d="M258.713 257.757H254.115V262.355H258.713V257.757Z" fill="#A787FF"/>
<path d="M318.483 243.965H313.885V248.563H318.483V243.965Z" fill="#A787FF"/>
<path d="M318.483 248.563H313.885V253.162H318.483V248.563Z" fill="#A787FF"/>
<path d="M323.081 253.161H318.483V257.759H323.081V253.161Z" fill="#A787FF"/>
<path d="M323.081 257.757H318.483V262.355H323.081V257.757Z" fill="#A787FF"/>
<path d="M290.898 101.436H286.3V106.034H290.898V101.436Z" fill="#A787FF"/>
<path d="M290.898 96.8386H286.3V101.437H290.898V96.8386Z" fill="#A787FF"/>
<path d="M290.898 96.8386H286.3V101.437H290.898V96.8386Z" fill="#A787FF"/>
<path d="M290.898 92.241H286.3V96.839H290.898V92.241Z" fill="#A787FF"/>
<path d="M290.898 92.241H286.3V96.839H290.898V92.241Z" fill="#A787FF"/>
<path d="M290.898 87.6433H286.3V92.2414H290.898V87.6433Z" fill="#A787FF"/>
<path d="M290.898 87.6433H286.3V92.2414H290.898V87.6433Z" fill="#A787FF"/>
<path d="M290.898 83.0457H286.3V87.6437H290.898V83.0457Z" fill="#A787FF"/>
<path d="M318.483 101.436H313.885V106.034H318.483V101.436Z" fill="#A787FF"/>
<path d="M318.483 96.8386H313.885V101.437H318.483V96.8386Z" fill="#A787FF"/>
<path d="M323.081 92.241H318.483V96.839H323.081V92.241Z" fill="#A787FF"/>
<path d="M323.081 87.6433H318.483V92.2414H323.081V87.6433Z" fill="#A787FF"/>
<path d="M263.311 101.436H258.713V106.034H263.311V101.436Z" fill="#A787FF"/>
<path d="M263.311 96.8386H258.713V101.437H263.311V96.8386Z" fill="#A787FF"/>
<path d="M258.713 92.241H254.115V96.839H258.713V92.241Z" fill="#A787FF"/>
<path d="M258.713 87.6433H254.115V92.2414H258.713V87.6433Z" fill="#A787FF"/>
<path d="M152.967 174.999H148.369V179.597H152.967V174.999Z" fill="black"/>
<path d="M152.967 165.802H148.369V170.4H152.967V165.802Z" fill="black"/>
<path d="M157.566 161.206H152.968V165.804H157.566V161.206Z" fill="black"/>
<path d="M152.967 174.999H148.369V179.597H152.967V174.999Z" fill="black"/>
<path d="M148.369 165.802H143.771V170.4H148.369V165.802Z" fill="black"/>
<path d="M148.369 174.999H143.771V179.597H148.369V174.999Z" fill="black"/>
<path d="M143.77 165.802H139.172V170.4H143.77V165.802Z" fill="black"/>
<path d="M143.77 174.999H139.172V179.597H143.77V174.999Z" fill="black"/>
<path d="M139.17 165.802H134.572V170.4H139.17V165.802Z" fill="black"/>
<path d="M139.17 174.999H134.572V179.597H139.17V174.999Z" fill="black"/>
<path d="M134.574 165.802H129.976V170.4H134.574V165.802Z" fill="black"/>
<path d="M134.574 174.999H129.976V179.597H134.574V174.999Z" fill="black"/>
<path d="M129.98 165.802H125.382V170.4H129.98V165.802Z" fill="black"/>
<path d="M129.98 174.999H125.382V179.597H129.98V174.999Z" fill="black"/>
<path d="M125.38 165.802H120.782V170.4H125.38V165.802Z" fill="black"/>
<path d="M125.38 174.999H120.782V179.597H125.38V174.999Z" fill="black"/>
<path d="M120.783 165.802H116.185V170.4H120.783V165.802Z" fill="black"/>
<path d="M120.783 174.999H116.185V179.597H120.783V174.999Z" fill="black"/>
<path d="M116.184 165.802H111.586V170.4H116.184V165.802Z" fill="black"/>
<path d="M116.184 174.999H111.586V179.597H116.184V174.999Z" fill="black"/>
<path d="M111.585 165.802H106.987V170.4H111.585V165.802Z" fill="black"/>
<path d="M111.585 174.999H106.987V179.597H111.585V174.999Z" fill="black"/>
<path d="M106.989 165.802H102.391V170.4H106.989V165.802Z" fill="black"/>
<path d="M106.989 174.999H102.391V179.597H106.989V174.999Z" fill="black"/>
<path d="M102.392 165.802H97.7939V170.4H102.392V165.802Z" fill="black"/>
<path d="M102.392 174.999H97.7939V179.597H102.392V174.999Z" fill="black"/>
<path d="M97.7944 165.802H93.1963V170.4H97.7944V165.802Z" fill="black"/>
<path d="M97.7944 174.999H93.1963V179.597H97.7944V174.999Z" fill="black"/>
<path d="M93.1967 165.802H88.5986V170.4H93.1967V165.802Z" fill="black"/>
<path d="M93.1967 174.999H88.5986V179.597H93.1967V174.999Z" fill="black"/>
<path d="M88.5981 165.802H84V170.4H88.5981V165.802Z" fill="black"/>
<path d="M88.5981 174.999H84V179.597H88.5981V174.999Z" fill="black"/>
<path d="M152.967 170.401H148.369V174.999H152.967V170.401Z" fill="black"/>
<path d="M157.566 179.596H152.968V184.194H157.566V179.596Z" fill="black"/>
<path d="M162.16 161.206H157.562V165.804H162.16V161.206Z" fill="black"/>
<path d="M162.16 179.596H157.562V184.194H162.16V179.596Z" fill="black"/>
<path d="M166.757 161.206H162.159V165.804H166.757V161.206Z" fill="black"/>
<path d="M166.757 179.596H162.159V184.194H166.757V179.596Z" fill="black"/>
<path d="M171.356 161.206H166.758V165.804H171.356V161.206Z" fill="black"/>
<path d="M171.356 179.596H166.758V184.194H171.356V179.596Z" fill="black"/>
<path d="M175.955 161.206H171.356V165.804H175.955V161.206Z" fill="black"/>
<path d="M175.955 179.596H171.356V184.194H175.955V179.596Z" fill="black"/>
<path d="M180.553 184.195H175.955V188.793H180.553V184.195Z" fill="black"/>
<path d="M180.553 179.596H175.955V184.194H180.553V179.596Z" fill="black"/>
<path d="M180.553 174.999H175.955V179.597H180.553V174.999Z" fill="black"/>
<path d="M180.553 170.401H175.955V174.999H180.553V170.401Z" fill="black"/>
<path d="M180.553 165.802H175.955V170.4H180.553V165.802Z" fill="black"/>
<path d="M180.553 161.206H175.955V165.804H180.553V161.206Z" fill="black"/>
<path d="M180.553 156.608H175.955V161.206H180.553V156.608Z" fill="black"/>
<path d="M180.553 152.01H175.955V156.608H180.553V152.01Z" fill="black"/>
<path d="M185.152 147.413H180.554V152.011H185.152V147.413Z" fill="black"/>
<path d="M180.553 188.792H175.955V193.39H180.553V188.792Z" fill="black"/>
<path d="M189.747 197.987H185.148V202.585H189.747V197.987Z" fill="black"/>
<path d="M194.343 197.987H189.745V202.585H194.343V197.987Z" fill="black"/>
<path d="M198.943 197.987H194.345V202.585H198.943V197.987Z" fill="black"/>
<path d="M189.747 142.815H185.148V147.414H189.747V142.815Z" fill="black"/>
<path d="M194.343 142.815H189.745V147.414H194.343V142.815Z" fill="black"/>
<path d="M198.943 142.815H194.345V147.414H198.943V142.815Z" fill="black"/>
<path d="M185.152 193.389H180.554V197.987H185.152V193.389Z" fill="black"/>
<path d="M419.631 165.802H415.033V170.4H419.631V165.802Z" fill="black"/>
<path d="M419.631 174.999H415.033V179.597H419.631V174.999Z" fill="black"/>
<path d="M415.035 179.596H410.437V184.194H415.035V179.596Z" fill="black"/>
<path d="M419.631 165.802H415.033V170.4H419.631V165.802Z" fill="black"/>
<path d="M424.23 174.999H419.632V179.597H424.23V174.999Z" fill="black"/>
<path d="M424.23 165.802H419.632V170.4H424.23V165.802Z" fill="black"/>
<path d="M428.826 174.999H424.228V179.597H428.826V174.999Z" fill="black"/>
<path d="M428.826 165.802H424.228V170.4H428.826V165.802Z" fill="black"/>
<path d="M433.425 174.999H428.827V179.597H433.425V174.999Z" fill="black"/>
<path d="M433.425 165.802H428.827V170.4H433.425V165.802Z" fill="black"/>
<path d="M438.024 174.999H433.426V179.597H438.024V174.999Z" fill="black"/>
<path d="M438.024 165.802H433.426V170.4H438.024V165.802Z" fill="black"/>
<path d="M442.621 174.999H438.023V179.597H442.621V174.999Z" fill="black"/>
<path d="M442.621 165.802H438.023V170.4H442.621V165.802Z" fill="black"/>
<path d="M447.217 174.999H442.619V179.597H447.217V174.999Z" fill="black"/>
<path d="M447.217 165.802H442.619V170.4H447.217V165.802Z" fill="black"/>
<path d="M451.815 174.999H447.217V179.597H451.815V174.999Z" fill="black"/>
<path d="M451.815 165.802H447.217V170.4H451.815V165.802Z" fill="black"/>
<path d="M456.413 174.999H451.814V179.597H456.413V174.999Z" fill="black"/>
<path d="M456.413 165.802H451.814V170.4H456.413V165.802Z" fill="black"/>
<path d="M461.012 174.999H456.414V179.597H461.012V174.999Z" fill="black"/>
<path d="M461.012 165.802H456.414V170.4H461.012V165.802Z" fill="black"/>
<path d="M465.611 174.999H461.013V179.597H465.611V174.999Z" fill="black"/>
<path d="M465.611 165.802H461.013V170.4H465.611V165.802Z" fill="black"/>
<path d="M470.207 174.999H465.609V179.597H470.207V174.999Z" fill="black"/>
<path d="M470.207 165.802H465.609V170.4H470.207V165.802Z" fill="black"/>
<path d="M474.805 174.999H470.207V179.597H474.805V174.999Z" fill="black"/>
<path d="M474.805 165.802H470.207V170.4H474.805V165.802Z" fill="black"/>
<path d="M479.402 174.999H474.804V179.597H479.402V174.999Z" fill="black"/>
<path d="M479.402 165.802H474.804V170.4H479.402V165.802Z" fill="black"/>
<path d="M483.999 174.999H479.401V179.597H483.999V174.999Z" fill="black"/>
<path d="M483.999 165.802H479.401V170.4H483.999V165.802Z" fill="black"/>
<path d="M419.631 170.401H415.033V174.999H419.631V170.401Z" fill="black"/>
<path d="M415.035 161.206H410.437V165.804H415.035V161.206Z" fill="black"/>
<path d="M410.438 179.596H405.84V184.194H410.438V179.596Z" fill="black"/>
<path d="M410.438 161.206H405.84V165.804H410.438V161.206Z" fill="black"/>
<path d="M405.839 179.596H401.241V184.194H405.839V179.596Z" fill="black"/>
<path d="M405.839 161.206H401.241V165.804H405.839V161.206Z" fill="black"/>
<path d="M401.241 179.596H396.643V184.194H401.241V179.596Z" fill="black"/>
<path d="M401.241 161.206H396.643V165.804H401.241V161.206Z" fill="black"/>
<path d="M396.645 179.596H392.047V184.194H396.645V179.596Z" fill="black"/>
<path d="M396.645 161.206H392.047V165.804H396.645V161.206Z" fill="black"/>
<path d="M392.045 156.608H387.447V161.206H392.045V156.608Z" fill="black"/>
<path d="M392.045 161.206H387.447V165.804H392.045V161.206Z" fill="black"/>
<path d="M392.045 165.802H387.447V170.4H392.045V165.802Z" fill="black"/>
<path d="M392.045 170.401H387.447V174.999H392.045V170.401Z" fill="black"/>
<path d="M392.045 174.999H387.447V179.597H392.045V174.999Z" fill="black"/>
<path d="M392.045 179.596H387.447V184.194H392.045V179.596Z" fill="black"/>
<path d="M392.045 184.195H387.447V188.793H392.045V184.195Z" fill="black"/>
<path d="M392.045 188.792H387.447V193.39H392.045V188.792Z" fill="black"/>
<path d="M387.45 193.389H382.852V197.987H387.45V193.389Z" fill="black"/>
<path d="M392.045 152.01H387.447V156.608H392.045V152.01Z" fill="black"/>
<path d="M382.852 142.815H378.254V147.414H382.852V142.815Z" fill="black"/>
<path d="M378.253 142.815H373.655V147.414H378.253V142.815Z" fill="black"/>
<path d="M373.655 142.815H369.057V147.414H373.655V142.815Z" fill="black"/>
<path d="M382.852 197.987H378.254V202.585H382.852V197.987Z" fill="black"/>
<path d="M378.253 197.987H373.655V202.585H378.253V197.987Z" fill="black"/>
<path d="M373.655 197.987H369.057V202.585H373.655V197.987Z" fill="black"/>
<path d="M387.45 147.413H382.852V152.011H387.45V147.413Z" fill="black"/>
<path d="M203.54 193.389H198.942V197.987H203.54V193.389Z" fill="black"/>
<path d="M203.54 188.792H198.942V193.39H203.54V188.792Z" fill="black"/>
<path d="M203.54 184.195H198.942V188.793H203.54V184.195Z" fill="black"/>
<path d="M203.54 179.596H198.942V184.194H203.54V179.596Z" fill="black"/>
<path d="M203.54 174.999H198.942V179.597H203.54V174.999Z" fill="black"/>
<path d="M203.54 170.401H198.942V174.999H203.54V170.401Z" fill="black"/>
<path d="M203.54 165.802H198.942V170.4H203.54V165.802Z" fill="black"/>
<path d="M203.54 161.206H198.942V165.804H203.54V161.206Z" fill="black"/>
<path d="M203.54 156.608H198.942V161.206H203.54V156.608Z" fill="black"/>
<path d="M203.54 152.01H198.942V156.608H203.54V152.01Z" fill="black"/>
<path d="M203.54 147.413H198.942V152.011H203.54V147.413Z" fill="black"/>
<path d="M203.54 142.815H198.942V147.414H203.54V142.815Z" fill="black"/>
<path d="M208.139 138.217H203.541V142.815H208.139V138.217Z" fill="black"/>
<path d="M212.739 133.619H208.141V138.217H212.739V133.619Z" fill="black"/>
<path d="M217.333 133.619H212.735V138.217H217.333V133.619Z" fill="black"/>
<path d="M221.929 133.619H217.331V138.217H221.929V133.619Z" fill="black"/>
<path d="M226.528 133.619H221.93V138.217H226.528V133.619Z" fill="black"/>
<path d="M231.126 133.619H226.528V138.217H231.126V133.619Z" fill="black"/>
<path d="M235.725 133.619H231.127V138.217H235.725V133.619Z" fill="black"/>
<path d="M240.324 133.619H235.726V138.217H240.324V133.619Z" fill="black"/>
<path d="M244.921 133.619H240.323V138.217H244.921V133.619Z" fill="black"/>
<path d="M249.516 133.619H244.918V138.217H249.516V133.619Z" fill="black"/>
<path d="M254.114 129.022H249.516V133.621H254.114V129.022Z" fill="black"/>
<path d="M258.713 129.022H254.115V133.621H258.713V129.022Z" fill="black"/>
<path d="M263.311 133.619H258.713V138.217H263.311V133.619Z" fill="black"/>
<path d="M263.311 138.217H258.713V142.815H263.311V138.217Z" fill="black"/>
<path d="M263.311 142.815H258.713V147.414H263.311V142.815Z" fill="black"/>
<path d="M263.311 147.413H258.713V152.011H263.311V147.413Z" fill="black"/>
<path d="M263.311 152.01H258.713V156.608H263.311V152.01Z" fill="black"/>
<path d="M263.311 156.608H258.713V161.206H263.311V156.608Z" fill="black"/>
<path d="M263.311 161.206H258.713V165.804H263.311V161.206Z" fill="black"/>
<path d="M263.311 165.802H258.713V170.4H263.311V165.802Z" fill="black"/>
<path d="M263.311 170.401H258.713V174.999H263.311V170.401Z" fill="black"/>
<path d="M263.311 174.999H258.713V179.597H263.311V174.999Z" fill="black"/>
<path d="M263.311 179.596H258.713V184.194H263.311V179.596Z" fill="black"/>
<path d="M263.311 184.195H258.713V188.793H263.311V184.195Z" fill="black"/>
<path d="M263.311 188.792H258.713V193.39H263.311V188.792Z" fill="black"/>
<path d="M263.311 193.389H258.713V197.987H263.311V193.389Z" fill="black"/>
<path d="M263.311 197.987H258.713V202.585H263.311V197.987Z" fill="black"/>
<path d="M263.311 202.585H258.713V207.183H263.311V202.585Z" fill="black"/>
<path d="M263.311 207.182H258.713V211.78H263.311V207.182Z" fill="black"/>
<path d="M258.713 211.78H254.115V216.378H258.713V211.78Z" fill="black"/>
<path d="M254.114 211.78H249.516V216.378H254.114V211.78Z" fill="black"/>
<path d="M249.516 207.182H244.918V211.78H249.516V207.182Z" fill="black"/>
<path d="M249.516 202.585H244.918V207.183H249.516V202.585Z" fill="black"/>
<path d="M249.516 197.987H244.918V202.585H249.516V197.987Z" fill="black"/>
<path d="M249.516 193.389H244.918V197.987H249.516V193.389Z" fill="black"/>
<path d="M249.516 188.792H244.918V193.39H249.516V188.792Z" fill="black"/>
<path d="M249.516 184.195H244.918V188.793H249.516V184.195Z" fill="black"/>
<path d="M249.516 179.596H244.918V184.194H249.516V179.596Z" fill="black"/>
<path d="M249.516 174.999H244.918V179.597H249.516V174.999Z" fill="black"/>
<path d="M249.516 170.401H244.918V174.999H249.516V170.401Z" fill="black"/>
<path d="M249.516 165.802H244.918V170.4H249.516V165.802Z" fill="black"/>
<path d="M249.516 161.206H244.918V165.804H249.516V161.206Z" fill="black"/>
<path d="M249.516 156.608H244.918V161.206H249.516V156.608Z" fill="black"/>
<path d="M249.516 152.01H244.918V156.608H249.516V152.01Z" fill="black"/>
<path d="M249.516 147.413H244.918V152.011H249.516V147.413Z" fill="black"/>
<path d="M249.516 142.815H244.918V147.414H249.516V142.815Z" fill="black"/>
<path d="M249.516 138.217H244.918V142.815H249.516V138.217Z" fill="black"/>
<path d="M355.265 133.619H350.667V138.217H355.265V133.619Z" fill="black"/>
<path d="M359.862 129.022H355.264V133.621H359.862V129.022Z" fill="black"/>
<path d="M364.459 129.022H359.861V133.621H364.459V129.022Z" fill="black"/>
<path d="M369.057 133.619H364.459V138.217H369.057V133.619Z" fill="black"/>
<path d="M369.057 138.217H364.459V142.815H369.057V138.217Z" fill="black"/>
<path d="M369.057 142.815H364.459V147.414H369.057V142.815Z" fill="black"/>
<path d="M369.057 147.413H364.459V152.011H369.057V147.413Z" fill="black"/>
<path d="M369.057 152.01H364.459V156.608H369.057V152.01Z" fill="black"/>
<path d="M369.057 156.608H364.459V161.206H369.057V156.608Z" fill="black"/>
<path d="M369.057 161.206H364.459V165.804H369.057V161.206Z" fill="black"/>
<path d="M369.057 165.802H364.459V170.4H369.057V165.802Z" fill="black"/>
<path d="M369.057 170.401H364.459V174.999H369.057V170.401Z" fill="black"/>
<path d="M369.057 174.999H364.459V179.597H369.057V174.999Z" fill="black"/>
<path d="M369.057 179.596H364.459V184.194H369.057V179.596Z" fill="black"/>
<path d="M369.057 184.195H364.459V188.793H369.057V184.195Z" fill="black"/>
<path d="M369.057 188.792H364.459V193.39H369.057V188.792Z" fill="black"/>
<path d="M369.057 193.389H364.459V197.987H369.057V193.389Z" fill="black"/>
<path d="M369.057 197.987H364.459V202.585H369.057V197.987Z" fill="black"/>
<path d="M369.057 202.585H364.459V207.183H369.057V202.585Z" fill="black"/>
<path d="M369.057 207.182H364.459V211.78H369.057V207.182Z" fill="black"/>
<path d="M364.459 211.78H359.861V216.378H364.459V211.78Z" fill="black"/>
<path d="M359.862 211.78H355.264V216.378H359.862V211.78Z" fill="black"/>
<path d="M355.265 207.182H350.667V211.78H355.265V207.182Z" fill="black"/>
<path d="M355.265 202.585H350.667V207.183H355.265V202.585Z" fill="black"/>
<path d="M355.265 197.987H350.667V202.585H355.265V197.987Z" fill="black"/>
<path d="M355.265 193.389H350.667V197.987H355.265V193.389Z" fill="black"/>
<path d="M355.265 188.792H350.667V193.39H355.265V188.792Z" fill="black"/>
<path d="M355.265 184.195H350.667V188.793H355.265V184.195Z" fill="black"/>
<path d="M355.265 179.596H350.667V184.194H355.265V179.596Z" fill="black"/>
<path d="M355.265 174.999H350.667V179.597H355.265V174.999Z" fill="black"/>
<path d="M355.265 170.401H350.667V174.999H355.265V170.401Z" fill="black"/>
<path d="M355.265 165.802H350.667V170.4H355.265V165.802Z" fill="black"/>
<path d="M355.265 161.206H350.667V165.804H355.265V161.206Z" fill="black"/>
<path d="M355.265 156.608H350.667V161.206H355.265V156.608Z" fill="black"/>
<path d="M355.265 152.01H350.667V156.608H355.265V152.01Z" fill="black"/>
<path d="M355.265 147.413H350.667V152.011H355.265V147.413Z" fill="black"/>
<path d="M309.288 147.413H304.689V152.011H309.288V147.413Z" fill="black"/>
<path d="M304.689 147.413H300.091V152.011H304.689V147.413Z" fill="black"/>
<path d="M300.093 147.413H295.495V152.011H300.093V147.413Z" fill="black"/>
<path d="M295.496 147.413H290.897V152.011H295.496V147.413Z" fill="black"/>
<path d="M290.898 147.413H286.3V152.011H290.898V147.413Z" fill="black"/>
<path d="M286.299 147.413H281.701V152.011H286.299V147.413Z" fill="black"/>
<path d="M281.701 152.01H277.103V156.608H281.701V152.01Z" fill="black"/>
<path d="M286.299 156.608H281.701V161.206H286.299V156.608Z" fill="black"/>
<path d="M290.898 156.608H286.3V161.206H290.898V156.608Z" fill="black"/>
<path d="M295.496 156.608H290.897V161.206H295.496V156.608Z" fill="black"/>
<path d="M300.093 156.608H295.495V161.206H300.093V156.608Z" fill="black"/>
<path d="M304.689 156.608H300.091V161.206H304.689V156.608Z" fill="black"/>
<path d="M309.288 156.608H304.689V161.206H309.288V156.608Z" fill="black"/>
<path d="M309.288 184.195H304.689V188.793H309.288V184.195Z" fill="black"/>
<path d="M304.689 184.195H300.091V188.793H304.689V184.195Z" fill="black"/>
<path d="M300.093 184.195H295.495V188.793H300.093V184.195Z" fill="black"/>
<path d="M295.496 184.195H290.897V188.793H295.496V184.195Z" fill="black"/>
<path d="M290.898 184.195H286.3V188.793H290.898V184.195Z" fill="black"/>
<path d="M286.299 184.195H281.701V188.793H286.299V184.195Z" fill="black"/>
<path d="M281.701 188.792H277.103V193.39H281.701V188.792Z" fill="black"/>
<path d="M286.299 193.389H281.701V197.987H286.299V193.389Z" fill="black"/>
<path d="M290.898 193.389H286.3V197.987H290.898V193.389Z" fill="black"/>
<path d="M295.496 193.389H290.897V197.987H295.496V193.389Z" fill="black"/>
<path d="M300.093 193.389H295.495V197.987H300.093V193.389Z" fill="black"/>
<path d="M304.689 193.389H300.091V197.987H304.689V193.389Z" fill="black"/>
<path d="M309.288 193.389H304.689V197.987H309.288V193.389Z" fill="black"/>
<path d="M355.265 142.815H350.667V147.414H355.265V142.815Z" fill="black"/>
<path d="M355.265 138.217H350.667V142.815H355.265V138.217Z" fill="black"/>
<path d="M346.069 133.619H341.471V138.217H346.069V133.619Z" fill="black"/>
<path d="M341.471 133.619H336.873V138.217H341.471V133.619Z" fill="black"/>
<path d="M336.873 133.619H332.275V138.217H336.873V133.619Z" fill="black"/>
<path d="M332.275 133.619H327.677V138.217H332.275V133.619Z" fill="black"/>
<path d="M327.68 133.619H323.082V138.217H327.68V133.619Z" fill="black"/>
<path d="M323.081 133.619H318.483V138.217H323.081V133.619Z" fill="black"/>
<path d="M318.483 133.619H313.885V138.217H318.483V133.619Z" fill="black"/>
<path d="M313.886 133.619H309.288V138.217H313.886V133.619Z" fill="black"/>
<path d="M313.886 142.815H309.288V147.414H313.886V142.815Z" fill="black"/>
<path d="M313.886 138.217H309.288V142.815H313.886V138.217Z" fill="black"/>
<path d="M313.886 147.413H309.288V152.011H313.886V147.413Z" fill="black"/>
<path d="M313.886 152.01H309.288V156.608H313.886V152.01Z" fill="black"/>
<path d="M313.886 156.608H309.288V161.206H313.886V156.608Z" fill="black"/>
<path d="M313.886 161.206H309.288V165.804H313.886V161.206Z" fill="black"/>
<path d="M313.886 165.802H309.288V170.4H313.886V165.802Z" fill="black"/>
<path d="M313.886 170.401H309.288V174.999H313.886V170.401Z" fill="black"/>
<path d="M313.886 174.999H309.288V179.597H313.886V174.999Z" fill="black"/>
<path d="M318.483 165.802H313.885V170.4H318.483V165.802Z" fill="black"/>
<path d="M318.483 174.999H313.885V179.597H318.483V174.999Z" fill="black"/>
<path d="M323.081 165.802H318.483V170.4H323.081V165.802Z" fill="black"/>
<path d="M323.081 174.999H318.483V179.597H323.081V174.999Z" fill="black"/>
<path d="M327.68 165.802H323.082V170.4H327.68V165.802Z" fill="black"/>
<path d="M327.68 174.999H323.082V179.597H327.68V174.999Z" fill="black"/>
<path d="M332.275 165.802H327.677V170.4H332.275V165.802Z" fill="black"/>
<path d="M332.275 174.999H327.677V179.597H332.275V174.999Z" fill="black"/>
<path d="M336.873 165.802H332.275V170.4H336.873V165.802Z" fill="black"/>
<path d="M336.873 174.999H332.275V179.597H336.873V174.999Z" fill="black"/>
<path d="M336.873 170.401H332.275V174.999H336.873V170.401Z" fill="black"/>
<path d="M313.886 179.596H309.288V184.194H313.886V179.596Z" fill="black"/>
<path d="M313.886 184.195H309.288V188.793H313.886V184.195Z" fill="black"/>
<path d="M313.886 188.792H309.288V193.39H313.886V188.792Z" fill="black"/>
<path d="M313.886 193.389H309.288V197.987H313.886V193.389Z" fill="black"/>
<path d="M313.886 197.987H309.288V202.585H313.886V197.987Z" fill="black"/>
<path d="M313.886 202.585H309.288V207.183H313.886V202.585Z" fill="black"/>
<path d="M313.886 207.182H309.288V211.78H313.886V207.182Z" fill="black"/>
<path d="M318.483 207.182H313.885V211.78H318.483V207.182Z" fill="black"/>
<path d="M323.081 207.182H318.483V211.78H323.081V207.182Z" fill="black"/>
<path d="M327.68 207.182H323.082V211.78H327.68V207.182Z" fill="black"/>
<path d="M332.275 207.182H327.677V211.78H332.275V207.182Z" fill="black"/>
<path d="M336.873 207.182H332.275V211.78H336.873V207.182Z" fill="black"/>
<path d="M341.471 207.182H336.873V211.78H341.471V207.182Z" fill="black"/>
<path d="M346.069 207.182H341.471V211.78H346.069V207.182Z" fill="black"/>
<path d="M350.667 133.619H346.069V138.217H350.667V133.619Z" fill="black"/>
<path d="M350.667 207.182H346.069V211.78H350.667V207.182Z" fill="black"/>
<path d="M203.54 197.987H198.942V202.585H203.54V197.987Z" fill="black"/>
<path d="M212.739 207.182H208.141V211.78H212.739V207.182Z" fill="black"/>
<path d="M217.333 207.182H212.735V211.78H217.333V207.182Z" fill="black"/>
<path d="M221.929 207.182H217.331V211.78H221.929V207.182Z" fill="black"/>
<path d="M226.528 207.182H221.93V211.78H226.528V207.182Z" fill="black"/>
<path d="M231.126 207.182H226.528V211.78H231.126V207.182Z" fill="black"/>
<path d="M235.725 207.182H231.127V211.78H235.725V207.182Z" fill="black"/>
<path d="M240.324 207.182H235.726V211.78H240.324V207.182Z" fill="black"/>
<path d="M244.921 207.182H240.323V211.78H244.921V207.182Z" fill="black"/>
<path d="M208.139 202.585H203.541V207.183H208.139V202.585Z" fill="black"/>
</svg>
