<svg width="1506" height="574" viewBox="0 0 1506 574" fill="none" xmlns="http://www.w3.org/2000/svg">
<path d="M1505.76 132.902H1500.76V137.895H1505.76V132.902Z" fill="#53DBEE"/>
<path d="M1500.76 137.895H1495.78V142.888H1500.76V137.895Z" fill="#E0FFFF"/>
<path d="M1500.76 132.902H1495.78V137.895H1500.76V132.902Z" fill="#E0FFFF"/>
<path d="M1500.76 127.913H1495.78V132.902H1500.76V127.913Z" fill="#53DBEE"/>
<path d="M1495.78 132.902H1490.78V137.895H1495.78V132.902Z" fill="#53DBEE"/>
<path d="M1495.78 102.946H1490.78V107.939H1495.78V102.946Z" fill="#53DBEE"/>
<path d="M1490.78 157.866H1485.79V162.859H1490.78V157.866Z" fill="#53DBEE"/>
<path d="M1490.78 132.902H1485.79V137.895H1490.78V132.902Z" fill="#53DBEE"/>
<path d="M1490.78 107.939H1485.79V112.931H1490.78V107.939Z" fill="#53DBEE"/>
<path d="M1490.78 102.946H1485.79V107.939H1490.78V102.946Z" fill="#E0FFFF"/>
<path d="M1490.78 97.953H1485.79V102.946H1490.78V97.953Z" fill="#E0FFFF"/>
<path d="M1485.79 162.862H1480.8V167.855H1485.79V162.862Z" fill="#E0FFFF"/>
<path d="M1485.79 157.866H1480.8V162.859H1485.79V157.866Z" fill="#E0FFFF"/>
<path d="M1485.79 152.873H1480.8V157.866H1485.79V152.873Z" fill="#53DBEE"/>
<path d="M1485.79 132.902H1480.8V137.895H1485.79V132.902Z" fill="#70ACAC"/>
<path d="M1485.79 102.946H1480.8V107.939H1485.79V102.946Z" fill="#70ACAC"/>
<path d="M1480.8 157.866H1475.8V162.859H1480.8V157.866Z" fill="#53DBEE"/>
<path d="M1480.8 132.902H1475.8V137.895H1480.8V132.902Z" fill="#70ACAC"/>
<path d="M1480.8 117.927H1475.8V122.92H1480.8V117.927Z" fill="#E0FFFF"/>
<path d="M1480.8 107.939H1475.8V112.931H1480.8V107.939Z" fill="#70ACAC"/>
<path d="M1475.8 187.823H1470.81V192.815H1475.8V187.823Z" fill="#E0FFFF"/>
<path d="M1475.8 157.866H1470.81V162.859H1475.8V157.866Z" fill="#53DBEE"/>
<path d="M1475.8 152.873H1470.81V157.866H1475.8V152.873Z" fill="#70ACAC"/>
<path d="M1475.8 132.902H1470.81V137.895H1475.8V132.902Z" fill="#3D8787"/>
<path d="M1475.8 117.927H1470.81V122.92H1475.8V117.927Z" fill="#53DBEE"/>
<path d="M1475.8 107.939H1470.81V112.931H1475.8V107.939Z" fill="#3D8787"/>
<path d="M1470.81 187.823H1465.82V192.815H1470.81V187.823Z" fill="#E0FFFF"/>
<path d="M1470.81 182.83H1465.82V187.823H1470.81V182.83Z" fill="#53DBEE"/>
<path d="M1470.81 152.873H1465.82V157.866H1470.81V152.873Z" fill="#70ACAC"/>
<path d="M1470.81 137.895H1465.82V142.888H1470.81V137.895Z" fill="#3D8787"/>
<path d="M1470.81 122.92H1465.82V127.913H1470.81V122.92Z" fill="#53DBEE"/>
<path d="M1470.81 92.9603H1465.82V97.9531H1470.81V92.9603Z" fill="#E0FFFF"/>
<path d="M1465.82 187.823H1460.82V192.815H1465.82V187.823Z" fill="#53DBEE"/>
<path d="M1465.82 177.84H1460.82V182.83H1465.82V177.84Z" fill="#53DBEE"/>
<path d="M1465.82 172.848H1460.82V177.841H1465.82V172.848Z" fill="#70ACAC"/>
<path d="M1465.82 147.881H1460.82V152.873H1465.82V147.881Z" fill="#3D8787"/>
<path d="M1465.82 137.895H1460.82V142.888H1465.82V137.895Z" fill="#245050"/>
<path d="M1465.82 122.92H1460.82V127.913H1465.82V122.92Z" fill="#70ACAC"/>
<path d="M1465.82 97.953H1460.82V102.946H1465.82V97.953Z" fill="#53DBEE"/>
<path d="M1465.82 92.9603H1460.82V97.9531H1465.82V92.9603Z" fill="#E0FFFF"/>
<path d="M1465.82 87.9675H1460.82V92.9603H1465.82V87.9675Z" fill="#53DBEE"/>
<path d="M1460.82 167.855H1455.83V172.848H1460.82V167.855Z" fill="#70ACAC"/>
<path d="M1460.82 147.881H1455.83V152.873H1460.82V147.881Z" fill="#245050"/>
<path d="M1460.82 127.913H1455.83V132.902H1460.82V127.913Z" fill="#3D8787"/>
<path d="M1460.82 102.946H1455.83V107.939H1460.82V102.946Z" fill="#70ACAC"/>
<path d="M1460.82 92.9603H1455.83V97.9531H1460.82V92.9603Z" fill="#53DBEE"/>
<path d="M1455.83 162.862H1450.84V167.855H1455.83V162.862Z" fill="#3D8787"/>
<path d="M1455.83 147.881H1450.84V152.873H1455.83V147.881Z" fill="#E0FFFF"/>
<path d="M1455.83 107.939H1450.84V112.931H1455.83V107.939Z" fill="#3D8787"/>
<path d="M1450.84 202.801H1445.85V207.794H1450.84V202.801Z" fill="#E0FFFF"/>
<path d="M1450.84 157.866H1445.85V162.859H1450.84V157.866Z" fill="#245050"/>
<path d="M1450.84 142.888H1445.85V147.88H1450.84V142.888Z" fill="#70ACAC"/>
<path d="M1450.84 127.913H1445.85V132.902H1450.84V127.913Z" fill="#53DBEE"/>
<path d="M1450.84 122.92H1445.85V127.913H1450.84V122.92Z" fill="#E0FFFF"/>
<path d="M1450.84 112.935H1445.85V117.927H1450.84V112.935Z" fill="#245050"/>
<path d="M1450.84 72.9928H1445.85V77.9855H1450.84V72.9928Z" fill="#E0FFFF"/>
<path d="M1445.85 207.794H1440.86V212.786H1445.85V207.794Z" fill="#53DBEE"/>
<path d="M1445.85 202.801H1440.86V207.794H1445.85V202.801Z" fill="#E0FFFF"/>
<path d="M1445.85 197.808H1440.86V202.801H1445.85V197.808Z" fill="#53DBEE"/>
<path d="M1445.85 192.815H1440.86V197.808H1445.85V192.815Z" fill="#3D8787"/>
<path d="M1445.85 172.848H1440.86V177.841H1445.85V172.848Z" fill="#E0FFFF"/>
<path d="M1445.85 142.888H1440.86V147.88H1445.85V142.888Z" fill="#245050"/>
<path d="M1445.85 132.902H1440.86V137.895H1445.85V132.902Z" fill="#70ACAC"/>
<path d="M1445.85 102.946H1440.86V107.939H1445.85V102.946Z" fill="#E0FFFF"/>
<path d="M1445.85 82.9748H1440.86V87.9675H1445.85V82.9748Z" fill="#53DBEE"/>
<path d="M1445.85 77.9855H1440.86V82.9714H1445.85V77.9855Z" fill="#53DBEE"/>
<path d="M1445.85 72.9928H1440.86V77.9855H1445.85V72.9928Z" fill="#E0FFFF"/>
<path d="M1445.85 68H1440.86V72.9928H1445.85V68Z" fill="#53DBEE"/>
<path d="M1440.86 187.823H1435.86V192.815H1440.86V187.823Z" fill="#3D8787"/>
<path d="M1440.86 182.83H1435.86V187.823H1440.86V182.83Z" fill="#245050"/>
<path d="M1440.86 167.855H1435.86V172.848H1440.86V167.855Z" fill="#53DBEE"/>
<path d="M1440.86 132.902H1435.86V137.895H1440.86V132.902Z" fill="#3D8787"/>
<path d="M1440.86 107.939H1435.86V112.931H1440.86V107.939Z" fill="#70ACAC"/>
<path d="M1440.86 92.9603H1435.86V97.9531H1440.86V92.9603Z" fill="#245050"/>
<path d="M1440.86 87.9675H1435.86V92.9603H1440.86V87.9675Z" fill="#70ACAC"/>
<path d="M1435.86 222.775H1430.87V227.768H1435.86V222.775Z" fill="#E0FFFF"/>
<path d="M1435.86 217.783H1430.87V222.775H1435.86V217.783Z" fill="#70ACAC"/>
<path d="M1435.86 212.79H1430.87V217.783H1435.86V212.79Z" fill="#3D8787"/>
<path d="M1435.86 177.84H1430.87V182.83H1435.86V177.84Z" fill="#245050"/>
<path d="M1435.86 162.862H1430.87V167.855H1435.86V162.862Z" fill="#70ACAC"/>
<path d="M1435.86 157.866H1430.87V162.859H1435.86V157.866Z" fill="#245050"/>
<path d="M1435.86 147.881H1430.87V152.873H1435.86V147.881Z" fill="#245050"/>
<path d="M1435.86 137.895H1430.87V142.888H1435.86V137.895Z" fill="#245050"/>
<path d="M1435.86 112.935H1430.87V117.927H1435.86V112.935Z" fill="#3D8787"/>
<path d="M1430.87 137.895H1425.88V142.888H1430.87V137.895Z" fill="#245050"/>
<path d="M1430.87 132.902H1425.88V137.895H1430.87V132.902Z" fill="#70ACAC"/>
<path d="M1430.87 127.913H1425.88V132.902H1430.87V127.913Z" fill="#53DBEE"/>
<path d="M1430.87 102.946H1425.88V107.939H1430.87V102.946Z" fill="#245050"/>
<path d="M1430.87 97.953H1425.88V102.946H1430.87V97.953Z" fill="#3D8787"/>
<path d="M1430.87 92.9603H1425.88V97.9531H1430.87V92.9603Z" fill="#70ACAC"/>
<path d="M1430.87 87.9675H1425.88V92.9603H1430.87V87.9675Z" fill="#53DBEE"/>
<path d="M1425.88 187.823H1420.88V192.815H1425.88V187.823Z" fill="#3D8787"/>
<path d="M1425.88 182.83H1420.88V187.823H1425.88V182.83Z" fill="#245050"/>
<path d="M1425.88 157.866H1420.88V162.859H1425.88V157.866Z" fill="#245050"/>
<path d="M1425.88 137.895H1420.88V142.888H1425.88V137.895Z" fill="#245050"/>
<path d="M1425.88 122.92H1420.88V127.913H1425.88V122.92Z" fill="#E0FFFF"/>
<path d="M1425.88 107.939H1420.88V112.931H1425.88V107.939Z" fill="#183535"/>
<path d="M1425.88 82.9748H1420.88V87.9675H1425.88V82.9748Z" fill="#E0FFFF"/>
<path d="M1420.88 202.801H1415.89V207.794H1420.88V202.801Z" fill="#53DBEE"/>
<path d="M1420.88 197.808H1415.89V202.801H1420.88V197.808Z" fill="#53DBEE"/>
<path d="M1420.88 192.815H1415.89V197.808H1420.88V192.815Z" fill="#3D8787"/>
<path d="M1420.88 162.862H1415.89V167.855H1420.88V162.862Z" fill="#70ACAC"/>
<path d="M1420.88 147.881H1415.89V152.873H1420.88V147.881Z" fill="#E0FFFF"/>
<path d="M1420.88 142.888H1415.89V147.88H1420.88V142.888Z" fill="#70ACAC"/>
<path d="M1420.88 117.927H1415.89V122.92H1420.88V117.927Z" fill="#245050"/>
<path d="M1420.88 102.946H1415.89V107.939H1420.88V102.946Z" fill="#183535"/>
<path d="M1415.89 207.794H1410.89V212.786H1415.89V207.794Z" fill="#E0FFFF"/>
<path d="M1415.89 202.801H1410.89V207.794H1415.89V202.801Z" fill="#E0FFFF"/>
<path d="M1415.89 177.84H1410.89V182.83H1415.89V177.84Z" fill="#53DBEE"/>
<path d="M1415.89 172.848H1410.89V177.841H1415.89V172.848Z" fill="#70ACAC"/>
<path d="M1415.89 167.855H1410.89V172.848H1415.89V167.855Z" fill="#53DBEE"/>
<path d="M1415.89 112.935H1410.89V117.927H1415.89V112.935Z" fill="#70ACAC"/>
<path d="M1415.89 97.953H1410.89V102.946H1415.89V97.953Z" fill="#245050"/>
<path d="M1415.89 92.9603H1410.89V97.9531H1415.89V92.9603Z" fill="#3D8787"/>
<path d="M1415.89 87.9675H1410.89V92.9603H1415.89V87.9675Z" fill="#3D8787"/>
<path d="M1410.9 202.801H1405.9V207.794H1410.9V202.801Z" fill="#53DBEE"/>
<path d="M1410.9 177.84H1405.9V182.83H1410.9V177.84Z" fill="#E0FFFF"/>
<path d="M1410.9 137.895H1405.9V142.888H1410.9V137.895Z" fill="#245050"/>
<path d="M1410.9 112.935H1405.9V117.927H1410.9V112.935Z" fill="#53DBEE"/>
<path d="M1410.9 82.9748H1405.9V87.9675H1410.9V82.9748Z" fill="#70ACAC"/>
<path d="M1405.9 147.881H1400.91V152.873H1405.9V147.881Z" fill="#70ACAC"/>
<path d="M1405.9 132.902H1400.91V137.895H1405.9V132.902Z" fill="#70ACAC"/>
<path d="M1405.9 107.939H1400.91V112.931H1405.9V107.939Z" fill="#E0FFFF"/>
<path d="M1405.9 102.946H1400.91V107.939H1405.9V102.946Z" fill="#245050"/>
<path d="M1405.9 77.9855H1400.91V82.9714H1405.9V77.9855Z" fill="#53DBEE"/>
<path d="M1400.91 167.855H1395.92V172.848H1400.91V167.855Z" fill="#245050"/>
<path d="M1400.91 152.873H1395.92V157.866H1400.91V152.873Z" fill="#70ACAC"/>
<path d="M1400.91 132.902H1395.92V137.895H1400.91V132.902Z" fill="#53DBEE"/>
<path d="M1400.91 102.946H1395.92V107.939H1400.91V102.946Z" fill="#183535"/>
<path d="M1400.91 97.953H1395.92V102.946H1400.91V97.953Z" fill="#3D8787"/>
<path d="M1395.92 187.823H1390.93V192.815H1395.92V187.823Z" fill="#53DBEE"/>
<path d="M1395.92 177.84H1390.93V182.83H1395.92V177.84Z" fill="#3D8787"/>
<path d="M1395.92 172.848H1390.93V177.841H1395.92V172.848Z" fill="#245050"/>
<path d="M1395.92 152.873H1390.93V157.866H1395.92V152.873Z" fill="#53DBEE"/>
<path d="M1395.92 142.888H1390.93V147.88H1395.92V142.888Z" fill="#183535"/>
<path d="M1395.92 127.913H1390.93V132.902H1395.92V127.913Z" fill="#E0FFFF"/>
<path d="M1395.92 97.953H1390.93V102.946H1395.92V97.953Z" fill="#70ACAC"/>
<path d="M1395.92 92.9603H1390.93V97.9531H1395.92V92.9603Z" fill="#183535"/>
<path d="M1390.93 187.823H1385.94V192.815H1390.93V187.823Z" fill="#E0FFFF"/>
<path d="M1390.93 182.83H1385.94V187.823H1390.93V182.83Z" fill="#70ACAC"/>
<path d="M1390.93 157.866H1385.94V162.859H1390.93V157.866Z" fill="#E0FFFF"/>
<path d="M1390.93 142.888H1385.94V147.88H1390.93V142.888Z" fill="#183535"/>
<path d="M1390.93 132.902H1385.94V137.895H1390.93V132.902Z" fill="#245050"/>
<path d="M1390.93 97.953H1385.94V102.946H1390.93V97.953Z" fill="#53DBEE"/>
<path d="M1390.93 92.9603H1385.94V97.9531H1390.93V92.9603Z" fill="#E0FFFF"/>
<path d="M1390.93 87.9675H1385.94V92.9603H1390.93V87.9675Z" fill="#53DBEE"/>
<path d="M1385.94 187.823H1380.94V192.815H1385.94V187.823Z" fill="#E0FFFF"/>
<path d="M1385.94 172.848H1380.94V177.841H1385.94V172.848Z" fill="#245050"/>
<path d="M1385.94 162.862H1380.94V167.855H1385.94V162.862Z" fill="#70ACAC"/>
<path d="M1385.94 147.881H1380.94V152.873H1385.94V147.881Z" fill="#183535"/>
<path d="M1385.94 132.902H1380.94V137.895H1385.94V132.902Z" fill="#3D8787"/>
<path d="M1385.94 122.92H1380.94V127.913H1385.94V122.92Z" fill="#183535"/>
<path d="M1385.94 92.9603H1380.94V97.9531H1385.94V92.9603Z" fill="#E0FFFF"/>
<path d="M1380.94 177.84H1375.95V182.83H1380.94V177.84Z" fill="#245050"/>
<path d="M1380.94 162.862H1375.95V167.855H1380.94V162.862Z" fill="#53DBEE"/>
<path d="M1380.94 147.881H1375.95V152.873H1380.94V147.881Z" fill="#3D8787"/>
<path d="M1380.94 132.902H1375.95V137.895H1380.94V132.902Z" fill="#70ACAC"/>
<path d="M1380.94 117.927H1375.95V122.92H1380.94V117.927Z" fill="#183535"/>
<path d="M1375.95 177.84H1370.96V182.83H1375.95V177.84Z" fill="#3D8787"/>
<path d="M1375.95 167.855H1370.96V172.848H1375.95V167.855Z" fill="#E0FFFF"/>
<path d="M1375.95 152.873H1370.96V157.866H1375.95V152.873Z" fill="#70ACAC"/>
<path d="M1375.95 137.895H1370.96V142.888H1375.95V137.895Z" fill="#245050"/>
<path d="M1375.95 127.913H1370.96V132.902H1375.95V127.913Z" fill="#53DBEE"/>
<path d="M1375.95 117.927H1370.96V122.92H1375.95V117.927Z" fill="#245050"/>
<path d="M1375.95 112.935H1370.96V117.927H1375.95V112.935Z" fill="#245050"/>
<path d="M1370.96 182.83H1365.96V187.823H1370.96V182.83Z" fill="#70ACAC"/>
<path d="M1370.96 157.866H1365.96V162.859H1370.96V157.866Z" fill="#E0FFFF"/>
<path d="M1370.96 142.888H1365.96V147.88H1370.96V142.888Z" fill="#183535"/>
<path d="M1370.96 137.895H1365.96V142.888H1370.96V137.895Z" fill="#3D8787"/>
<path d="M1370.96 127.913H1365.96V132.902H1370.96V127.913Z" fill="#E0FFFF"/>
<path d="M1370.96 117.927H1365.96V122.92H1370.96V117.927Z" fill="#3D8787"/>
<path d="M1370.96 112.935H1365.96V117.927H1370.96V112.935Z" fill="#3D8787"/>
<path d="M1365.96 187.823H1360.97V192.815H1365.96V187.823Z" fill="#E0FFFF"/>
<path d="M1365.96 182.83H1360.97V187.823H1365.96V182.83Z" fill="#E0FFFF"/>
<path d="M1365.96 162.862H1360.97V167.855H1365.96V162.862Z" fill="#53DBEE"/>
<path d="M1365.96 157.866H1360.97V162.859H1365.96V157.866Z" fill="#E0FFFF"/>
<path d="M1365.96 142.888H1360.97V147.88H1365.96V142.888Z" fill="#70ACAC"/>
<path d="M1365.96 127.913H1360.97V132.902H1365.96V127.913Z" fill="#53DBEE"/>
<path d="M1365.96 122.92H1360.97V127.913H1365.96V122.92Z" fill="#E0FFFF"/>
<path d="M1365.96 112.935H1360.97V117.927H1365.96V112.935Z" fill="#53DBEE"/>
<path d="M1365.96 107.939H1360.97V112.931H1365.96V107.939Z" fill="#53DBEE"/>
<path d="M1360.97 182.83H1355.97V187.823H1360.97V182.83Z" fill="#53DBEE"/>
<path d="M1360.97 142.888H1355.97V147.88H1360.97V142.888Z" fill="#53DBEE"/>
<path d="M1360.97 112.935H1355.97V117.927H1360.97V112.935Z" fill="#53DBEE"/>
<path d="M1360.97 107.939H1355.97V112.931H1360.97V107.939Z" fill="#E0FFFF"/>
<path d="M1355.97 142.888H1350.98V147.88H1355.97V142.888Z" fill="#53DBEE"/>
<path d="M1350.98 147.881H1346V152.873H1350.98V147.881Z" fill="#E0FFFF"/>
<path d="M1350.98 142.888H1346V147.88H1350.98V142.888Z" fill="#E0FFFF"/>
<path d="M1345.99 142.888H1341V147.88H1345.99V142.888Z" fill="#53DBEE"/>
<path d="M94.2835 504.817H89.3203V509.78H94.2835V504.817Z" fill="#FFE8A8"/>
<path d="M94.2835 499.854H89.3203V504.817H94.2835V499.854Z" fill="#F7AA50"/>
<path d="M133.982 494.891H129.019V499.854H133.982V494.891Z" fill="#FFE8A8"/>
<path d="M89.3195 489.927H84.3564V494.891H89.3195V489.927Z" fill="#FFE8A8"/>
<path d="M39.6945 484.971H34.7314V489.928H39.6945V484.971Z" fill="#FFE8A8"/>
<path d="M129.018 484.971H124.055V489.928H129.018V484.971Z" fill="#FFE8A8"/>
<path d="M49.6223 480.011H44.6592V484.974H49.6223V480.011Z" fill="#FFE8A8"/>
<path d="M59.5523 480.011H54.5859V484.974H59.5523V480.011Z" fill="#FFE8A8"/>
<path d="M84.3567 480.011H79.3936V484.974H84.3567V480.011Z" fill="#FFE8A8"/>
<path d="M94.2835 480.011H89.3203V484.974H94.2835V480.011Z" fill="#FFE8A8"/>
<path d="M138.946 480.011H133.982V484.974H138.946V480.011Z" fill="#F7AA50"/>
<path d="M59.5523 475.045H54.5859V480.011H59.5523V475.045Z" fill="#F7AA50"/>
<path d="M79.397 475.045H74.4307V480.011H79.397V475.045Z" fill="#F7AA50"/>
<path d="M129.018 475.045H124.055V480.011H129.018V475.045Z" fill="#FFE8A8"/>
<path d="M34.7326 470.085H29.7695V475.048H34.7326V470.085Z" fill="#FFE8A8"/>
<path d="M49.6223 470.085H44.6592V475.048H49.6223V470.085Z" fill="#FFE8A8"/>
<path d="M89.3195 470.085H84.3564V475.048H89.3195V470.085Z" fill="#FFE8A8"/>
<path d="M124.056 470.085H119.093V475.048H124.056V470.085Z" fill="#FFE8A8"/>
<path d="M148.872 470.085H143.905V475.048H148.872V470.085Z" fill="#FFE8A8"/>
<path d="M49.6223 465.122H44.6592V470.085H49.6223V465.122Z" fill="#FFBD70"/>
<path d="M89.3195 465.122H84.3564V470.085H89.3195V465.122Z" fill="#F7AA50"/>
<path d="M124.056 465.122H119.093V470.085H124.056V465.122Z" fill="#FFE8A8"/>
<path d="M143.905 465.122H138.941V470.085H143.905V465.122Z" fill="#F7AA50"/>
<path d="M158.793 465.122H153.83V470.085H158.793V465.122Z" fill="#FFE8A8"/>
<path d="M54.5852 460.155H49.6221V465.121H54.5852V460.155Z" fill="#F7AA50"/>
<path d="M89.3195 460.155H84.3564V465.121H89.3195V460.155Z" fill="#A78B22"/>
<path d="M119.091 460.155H114.135V465.121H119.091V460.155Z" fill="#FFBD70"/>
<path d="M148.872 460.155H143.905V465.121H148.872V460.155Z" fill="#FFE8A8"/>
<path d="M29.7688 455.192H24.8057V460.155H29.7688V455.192Z" fill="#FFE8A8"/>
<path d="M59.5523 455.192H54.5859V460.155H59.5523V455.192Z" fill="#A78B22"/>
<path d="M84.3567 455.192H79.3936V460.155H84.3567V455.192Z" fill="#6C5A17"/>
<path d="M114.132 455.192H109.169V460.155H114.132V455.192Z" fill="#F7AA50"/>
<path d="M143.905 455.192H138.941V460.155H143.905V455.192Z" fill="#FFE8A8"/>
<path d="M153.834 455.192H148.871V460.155H153.834V455.192Z" fill="#FFE8A8"/>
<path d="M34.7326 450.232H29.7695V455.195H34.7326V450.232Z" fill="#F7AA50"/>
<path d="M64.51 450.232H59.5469V455.195H64.51V450.232Z" fill="#3B320C"/>
<path d="M84.3567 450.232H79.3936V455.195H84.3567V450.232Z" fill="#3B320C"/>
<path d="M109.173 450.232H104.21V455.195H109.173V450.232Z" fill="#A78B22"/>
<path d="M143.905 450.232H138.941V455.195H143.905V450.232Z" fill="#FFBD70"/>
<path d="M14.885 445.269H9.92188V450.232H14.885V445.269Z" fill="#FFE8A8"/>
<path d="M44.6585 445.269H39.6953V450.232H44.6585V445.269Z" fill="#FFE8A8"/>
<path d="M59.5523 445.269H54.5859V450.232H59.5523V445.269Z" fill="#FFE8A8"/>
<path d="M64.51 445.269H59.5469V450.232H64.51V445.269Z" fill="#FFBD70"/>
<path d="M84.3567 445.269H79.3936V450.232H84.3567V445.269Z" fill="#3B320C"/>
<path d="M104.205 445.269H99.2422V450.232H104.205V445.269Z" fill="#6C5A17"/>
<path d="M138.946 445.269H133.982V450.232H138.946V445.269Z" fill="#F7AA50"/>
<path d="M19.8425 440.306H14.8857V445.269H19.8425V440.306Z" fill="#F7AA50"/>
<path d="M39.6945 440.306H34.7314V445.269H39.6945V440.306Z" fill="#FFE8A8"/>
<path d="M59.5523 440.306H54.5859V445.269H59.5523V440.306Z" fill="#FFE8A8"/>
<path d="M64.51 440.306H59.5469V445.269H64.51V440.306Z" fill="#A78B22"/>
<path d="M99.2463 440.306H94.2832V445.269H99.2463V440.306Z" fill="#FFE8A8"/>
<path d="M133.982 440.306H129.019V445.269H133.982V440.306Z" fill="#6C5A17"/>
<path d="M39.6945 435.349H34.7314V440.306H39.6945V435.349Z" fill="#FFBD70"/>
<path d="M44.6585 435.349H39.6953V440.306H44.6585V435.349Z" fill="#F7AA50"/>
<path d="M69.4675 435.349H64.5107V440.306H69.4675V435.349Z" fill="#3B320C"/>
<path d="M94.2835 435.349H89.3203V440.306H94.2835V435.349Z" fill="#F7AA50"/>
<path d="M99.2463 435.349H94.2832V440.306H99.2463V435.349Z" fill="#FFBD70"/>
<path d="M119.091 435.349H114.135V440.306H119.091V435.349Z" fill="#FFBD70"/>
<path d="M153.834 435.349H148.871V440.306H153.834V435.349Z" fill="#FFE8A8"/>
<path d="M4.9631 430.386H0V435.349H4.9631V430.386Z" fill="#FFE8A8"/>
<path d="M24.8088 430.386H19.8457V435.349H24.8088V430.386Z" fill="#FFE8A8"/>
<path d="M49.6223 430.386H44.6592V435.349H49.6223V430.386Z" fill="#A78B22"/>
<path d="M54.5852 430.386H49.6221V435.349H54.5852V430.386Z" fill="#3B320C"/>
<path d="M74.4299 430.386H69.4668V435.349H74.4299V430.386Z" fill="#3B320C"/>
<path d="M94.2835 430.386H89.3203V435.349H94.2835V430.386Z" fill="#3B320C"/>
<path d="M114.132 430.386H109.169V435.349H114.132V430.386Z" fill="#6C5A17"/>
<path d="M119.091 430.386H114.135V435.349H119.091V430.386Z" fill="#FFBD70"/>
<path d="M4.9631 425.423H0V430.386H4.9631V425.423Z" fill="#F7AA50"/>
<path d="M89.3195 425.423H84.3564V430.386H89.3195V425.423Z" fill="#A78B22"/>
<path d="M119.091 425.423H114.135V430.386H119.091V425.423Z" fill="#FFE8A8"/>
<path d="M153.834 425.423H148.871V430.386H153.834V425.423Z" fill="#FFE8A8"/>
<path d="M14.885 420.46H9.92188V425.423H14.885V420.46Z" fill="#FFE8A8"/>
<path d="M89.3195 420.46H84.3564V425.423H89.3195V420.46Z" fill="#3B320C"/>
<path d="M94.2835 420.46H89.3203V425.423H94.2835V420.46Z" fill="#3B320C"/>
<path d="M148.872 420.46H143.905V425.423H148.872V420.46Z" fill="#FFE8A8"/>
<path d="M158.793 420.46H153.83V425.423H158.793V420.46Z" fill="#FFE8A8"/>
<path d="M19.8425 415.497H14.8857V420.46H19.8425V415.497Z" fill="#FFE8A8"/>
<path d="M24.8088 415.497H19.8457V420.46H24.8088V415.497Z" fill="#FFBD70"/>
<path d="M29.7688 415.497H24.8057V420.46H29.7688V415.497Z" fill="#A78B22"/>
<path d="M34.7326 415.497H29.7695V420.46H34.7326V415.497Z" fill="#3B320C"/>
<path d="M49.6223 415.497H44.6592V420.46H49.6223V415.497Z" fill="#FFBD70"/>
<path d="M54.5852 415.497H49.6221V420.46H54.5852V415.497Z" fill="#F7AA50"/>
<path d="M59.5523 415.497H54.5859V420.46H59.5523V415.497Z" fill="#3B320C"/>
<path d="M69.4675 415.497H64.5107V420.46H69.4675V415.497Z" fill="#FFE8A8"/>
<path d="M74.4299 415.497H69.4668V420.46H74.4299V415.497Z" fill="#FFBD70"/>
<path d="M79.397 415.497H74.4307V420.46H79.397V415.497Z" fill="#F7AA50"/>
<path d="M84.3567 415.497H79.3936V420.46H84.3567V415.497Z" fill="#A78B22"/>
<path d="M89.3195 415.497H84.3564V420.46H89.3195V415.497Z" fill="#3B320C"/>
<path d="M99.2463 415.497H94.2832V420.46H99.2463V415.497Z" fill="#3B320C"/>
<path d="M138.946 415.497H133.982V420.46H138.946V415.497Z" fill="#F7AA50"/>
<path d="M143.905 415.497H138.941V420.46H143.905V415.497Z" fill="#FFBD70"/>
<path d="M44.6585 410.534H39.6953V415.497H44.6585V410.534Z" fill="#FFE8A8"/>
<path d="M49.6223 410.534H44.6592V415.497H49.6223V410.534Z" fill="#FFBD70"/>
<path d="M69.4675 410.534H64.5107V415.497H69.4675V410.534Z" fill="#FFE8A8"/>
<path d="M89.3195 410.534H84.3564V415.497H89.3195V410.534Z" fill="#6C5A17"/>
<path d="M104.205 410.534H99.2422V415.497H104.205V410.534Z" fill="#A78B22"/>
<path d="M109.173 410.534H104.21V415.497H109.173V410.534Z" fill="#FFBD70"/>
<path d="M114.132 410.534H109.169V415.497H114.132V410.534Z" fill="#FFBD70"/>
<path d="M129.018 410.534H124.055V415.497H129.018V410.534Z" fill="#6C5A17"/>
<path d="M133.982 410.534H129.019V415.497H133.982V410.534Z" fill="#A78B22"/>
<path d="M64.51 405.571H59.5469V410.534H64.51V405.571Z" fill="#3B320C"/>
<path d="M89.3195 405.571H84.3564V410.534H89.3195V405.571Z" fill="#A78B22"/>
<path d="M109.173 405.571H104.21V410.534H109.173V405.571Z" fill="#F7AA50"/>
<path d="M114.132 405.571H109.169V410.534H114.132V405.571Z" fill="#FFE8A8"/>
<path d="M29.7688 400.607H24.8057V405.57H29.7688V400.607Z" fill="#FFE8A8"/>
<path d="M59.5523 400.607H54.5859V405.57H59.5523V400.607Z" fill="#6C5A17"/>
<path d="M79.397 400.607H74.4307V405.57H79.397V400.607Z" fill="#3B320C"/>
<path d="M89.3195 400.607H84.3564V405.57H89.3195V400.607Z" fill="#F7AA50"/>
<path d="M94.2835 400.607H89.3203V405.57H94.2835V400.607Z" fill="#F7AA50"/>
<path d="M114.132 400.607H109.169V405.57H114.132V400.607Z" fill="#6C5A17"/>
<path d="M119.091 400.607H114.135V405.57H119.091V400.607Z" fill="#3B320C"/>
<path d="M19.8425 395.644H14.8857V400.607H19.8425V395.644Z" fill="#FFE8A8"/>
<path d="M49.6223 395.644H44.6592V400.607H49.6223V395.644Z" fill="#F7AA50"/>
<path d="M54.5852 395.644H49.6221V400.607H54.5852V395.644Z" fill="#A78B22"/>
<path d="M74.4299 395.644H69.4668V400.607H74.4299V395.644Z" fill="#6C5A17"/>
<path d="M79.397 395.644H74.4307V400.607H79.397V395.644Z" fill="#3B320C"/>
<path d="M94.2835 395.644H89.3203V400.607H94.2835V395.644Z" fill="#FFBD70"/>
<path d="M119.091 395.644H114.135V400.607H119.091V395.644Z" fill="#A78B22"/>
<path d="M124.056 395.644H119.093V400.607H124.056V395.644Z" fill="#F7AA50"/>
<path d="M129.018 395.644H124.055V400.607H129.018V395.644Z" fill="#FFBD70"/>
<path d="M24.8088 390.681H19.8457V395.644H24.8088V390.681Z" fill="#F7AA50"/>
<path d="M34.7326 390.681H29.7695V395.644H34.7326V390.681Z" fill="#FFE8A8"/>
<path d="M39.6945 390.681H34.7314V395.644H39.6945V390.681Z" fill="#FFBD70"/>
<path d="M44.6585 390.681H39.6953V395.644H44.6585V390.681Z" fill="#FFBD70"/>
<path d="M49.6223 390.681H44.6592V395.644H49.6223V390.681Z" fill="#F7AA50"/>
<path d="M69.4675 390.681H64.5107V395.644H69.4675V390.681Z" fill="#F7AA50"/>
<path d="M74.4299 390.681H69.4668V395.644H74.4299V390.681Z" fill="#A78B22"/>
<path d="M94.2835 390.681H89.3203V395.644H94.2835V390.681Z" fill="#FFE8A8"/>
<path d="M99.2463 390.681H94.2832V395.644H99.2463V390.681Z" fill="#FFE8A8"/>
<path d="M124.056 390.681H119.093V395.644H124.056V390.681Z" fill="#FFBD70"/>
<path d="M129.018 390.681H124.055V395.644H129.018V390.681Z" fill="#FFE8A8"/>
<path d="M133.982 390.681H129.019V395.644H133.982V390.681Z" fill="#A78B22"/>
<path d="M153.834 390.681H148.871V395.644H153.834V390.681Z" fill="#F7AA50"/>
<path d="M44.6585 385.724H39.6953V390.681H44.6585V385.724Z" fill="#FFBD70"/>
<path d="M64.51 385.724H59.5469V390.681H64.51V385.724Z" fill="#FFBD70"/>
<path d="M69.4675 385.724H64.5107V390.681H69.4675V385.724Z" fill="#FFE8A8"/>
<path d="M74.4299 385.724H69.4668V390.681H74.4299V385.724Z" fill="#F7AA50"/>
<path d="M94.2835 385.724H89.3203V390.681H94.2835V385.724Z" fill="#6C5A17"/>
<path d="M99.2463 385.724H94.2832V390.681H99.2463V385.724Z" fill="#3B320C"/>
<path d="M138.946 385.724H133.982V390.681H138.946V385.724Z" fill="#F7AA50"/>
<path d="M158.793 385.724H153.83V390.681H158.793V385.724Z" fill="#FFE8A8"/>
<path d="M168.714 385.724H163.758V390.681H168.714V385.724Z" fill="#FFE8A8"/>
<path d="M69.4675 380.761H64.5107V385.724H69.4675V380.761Z" fill="#FFBD70"/>
<path d="M99.2463 380.761H94.2832V385.724H99.2463V380.761Z" fill="#A78B22"/>
<path d="M104.205 380.761H99.2422V385.724H104.205V380.761Z" fill="#F7AA50"/>
<path d="M143.905 380.761H138.941V385.724H143.905V380.761Z" fill="#FFBD70"/>
<path d="M148.872 380.761H143.905V385.724H148.872V380.761Z" fill="#FFE8A8"/>
<path d="M64.51 375.798H59.5469V380.761H64.51V375.798Z" fill="#6C5A17"/>
<path d="M84.3567 375.798H79.3936V380.761H84.3567V375.798Z" fill="#3B320C"/>
<path d="M99.2463 375.798H94.2832V380.761H99.2463V375.798Z" fill="#F7AA50"/>
<path d="M104.205 375.798H99.2422V380.761H104.205V375.798Z" fill="#FFBD70"/>
<path d="M109.173 375.798H104.21V380.761H109.173V375.798Z" fill="#FFBD70"/>
<path d="M114.132 375.798H109.169V380.761H114.132V375.798Z" fill="#6C5A17"/>
<path d="M158.793 375.798H153.83V380.761H158.793V375.798Z" fill="#FFE8A8"/>
<path d="M29.7688 370.835H24.8057V375.798H29.7688V370.835Z" fill="#FFE8A8"/>
<path d="M39.6945 370.835H34.7314V375.798H39.6945V370.835Z" fill="#FFE8A8"/>
<path d="M59.5523 370.835H54.5859V375.798H59.5523V370.835Z" fill="#A78B22"/>
<path d="M84.3567 370.835H79.3936V375.798H84.3567V370.835Z" fill="#6C5A17"/>
<path d="M109.173 370.835H104.21V375.798H109.173V370.835Z" fill="#FFBD70"/>
<path d="M119.091 370.835H114.135V375.798H119.091V370.835Z" fill="#A78B22"/>
<path d="M34.7326 365.872H29.7695V370.835H34.7326V365.872Z" fill="#F7AA50"/>
<path d="M54.5852 365.872H49.6221V370.835H54.5852V365.872Z" fill="#F7AA50"/>
<path d="M84.3567 365.872H79.3936V370.835H84.3567V365.872Z" fill="#A78B22"/>
<path d="M124.056 365.872H119.093V370.835H124.056V365.872Z" fill="#F7AA50"/>
<path d="M138.946 365.872H133.982V370.835H138.946V365.872Z" fill="#F7AA50"/>
<path d="M44.6585 360.909H39.6953V365.872H44.6585V360.909Z" fill="#FFE8A8"/>
<path d="M49.6223 360.909H44.6592V365.872H49.6223V360.909Z" fill="#FFBD70"/>
<path d="M84.3567 360.909H79.3936V365.872H84.3567V360.909Z" fill="#F7AA50"/>
<path d="M129.018 360.909H124.055V365.872H129.018V360.909Z" fill="#FFBD70"/>
<path d="M133.982 360.909H129.019V365.872H133.982V360.909Z" fill="#FFE8A8"/>
<path d="M143.905 360.909H138.941V365.872H143.905V360.909Z" fill="#FFE8A8"/>
<path d="M34.7326 355.946H29.7695V360.909H34.7326V355.946Z" fill="#FFE8A8"/>
<path d="M84.3567 355.946H79.3936V360.909H84.3567V355.946Z" fill="#FFBD70"/>
<path d="M84.3567 350.983H79.3936V355.946H84.3567V350.983Z" fill="#FFE8A8"/>
<path d="M133.982 350.983H129.019V355.946H133.982V350.983Z" fill="#FFE8A8"/>
<path d="M148.872 350.983H143.905V355.946H148.872V350.983Z" fill="#FFE8A8"/>
<path d="M94.2835 346.02H89.3203V350.983H94.2835V346.02Z" fill="#FFE8A8"/>
<path d="M74.4299 341.056H69.4668V346.019H74.4299V341.056Z" fill="#FFE8A8"/>
<path d="M89.3195 336.1H84.3564V341.056H89.3195V336.1Z" fill="#FFE8A8"/>
<path d="M79.397 331.14H74.4307V336.103H79.397V331.14Z" fill="#F7AA50"/>
<path d="M79.397 326.173H74.4307V331.137H79.397V326.173Z" fill="#FFE8A8"/>
<path d="M226.861 36.4589H223.547V39.7734H226.861V36.4589Z" fill="#E9FFD6"/>
<path d="M223.548 62.9745H220.231V66.2889H223.548V62.9745Z" fill="#8DD9B9"/>
<path d="M223.548 36.459H220.231V39.7734H223.548V36.459Z" fill="#31C587"/>
<path d="M223.548 13.2601H220.231V16.5746H223.548V13.2601Z" fill="#E9FFD6"/>
<path d="M220.232 59.66H216.918V62.9745H220.232V59.66Z" fill="#31C587"/>
<path d="M220.232 36.459H216.918V39.7734H220.232V36.459Z" fill="#5CA441"/>
<path d="M220.232 16.5746H216.918V19.8845H220.232V16.5746Z" fill="#8DD9B9"/>
<path d="M216.917 56.3456H213.601V59.66H216.917V56.3456Z" fill="#5CA441"/>
<path d="M216.917 39.7758H213.601V43.0902H216.917V39.7758Z" fill="#3B6A2A"/>
<path d="M216.917 19.8844H213.601V23.1988H216.917V19.8844Z" fill="#31C587"/>
<path d="M213.602 53.0311H210.287V56.3456H213.602V53.0311Z" fill="#213A17"/>
<path d="M213.602 39.7758H210.287V43.0902H213.602V39.7758Z" fill="#213A17"/>
<path d="M213.602 23.2012H210.287V26.5156H213.602V23.2012Z" fill="#5CA441"/>
<path d="M213.602 0H210.287V3.31445H213.602V0Z" fill="#8DD9B9"/>
<path d="M210.287 53.0312H206.973V56.3456H210.287V53.0312Z" fill="#8DD9B9"/>
<path d="M210.287 39.7758H206.973V43.0902H210.287V39.7758Z" fill="#213A17"/>
<path d="M210.287 26.5156H206.973V29.83H210.287V26.5156Z" fill="#3B6A2A"/>
<path d="M210.287 3.31445H206.973V6.6289H210.287V3.31445Z" fill="#31C587"/>
<path d="M206.972 69.6034H203.657V72.9179H206.972V69.6034Z" fill="#E9FFD6"/>
<path d="M206.972 56.3456H203.657V59.6601H206.972V56.3456Z" fill="#8DD9B9"/>
<path d="M206.972 53.0312H203.657V56.3456H206.972V53.0312Z" fill="#5CA441"/>
<path d="M206.972 33.1445H203.657V36.4589H206.972V33.1445Z" fill="#8DD9B9"/>
<path d="M206.972 29.83H203.657V33.1445H206.972V29.83Z" fill="#E9FFD6"/>
<path d="M206.972 6.63116H203.657V9.94561H206.972V6.63116Z" fill="#3B6A2A"/>
<path d="M203.66 69.6034H200.348V72.9179H203.66V69.6034Z" fill="#8DD9B9"/>
<path d="M203.66 66.2891H200.348V69.6035H203.66V66.2891Z" fill="#31C587"/>
<path d="M203.66 49.719H200.348V53.0289H203.66V49.719Z" fill="#213A17"/>
<path d="M203.66 33.1445H200.348V36.4589H203.66V33.1445Z" fill="#31C587"/>
<path d="M203.66 29.83H200.348V33.1445H203.66V29.83Z" fill="#8DD9B9"/>
<path d="M203.66 16.5745H200.348V19.8844H203.66V16.5745Z" fill="#8DD9B9"/>
<path d="M200.346 62.9745H197.031V66.2889H200.346V62.9745Z" fill="#5CA441"/>
<path d="M200.346 59.6601H197.031V62.9745H200.346V59.6601Z" fill="#213A17"/>
<path d="M200.346 46.4045H197.031V49.719H200.346V46.4045Z" fill="#213A17"/>
<path d="M200.346 33.1445H197.031V36.4589H200.346V33.1445Z" fill="#31C587"/>
<path d="M200.346 19.8844H197.031V23.1988H200.346V19.8844Z" fill="#3B6A2A"/>
<path d="M200.346 16.5745H197.031V19.8844H200.346V16.5745Z" fill="#8DD9B9"/>
<path d="M197.034 36.4589H193.717V39.7734H197.034V36.4589Z" fill="#5CA441"/>
<path d="M193.717 49.719H190.402V53.0289H193.717V49.719Z" fill="#8DD9B9"/>
<path d="M193.717 46.4045H190.402V49.719H193.717V46.4045Z" fill="#8DD9B9"/>
<path d="M193.717 43.0901H190.402V46.4045H193.717V43.0901Z" fill="#31C587"/>
<path d="M193.717 36.459H190.402V39.7734H193.717V36.459Z" fill="#213A17"/>
<path d="M193.717 33.1445H190.402V36.459H193.717V33.1445Z" fill="#3B6A2A"/>
<path d="M190.406 82.8636H187.089V86.1735H190.406V82.8636Z" fill="#E9FFD6"/>
<path d="M190.406 79.5491H187.089V82.8635H190.406V79.5491Z" fill="#8DD9B9"/>
<path d="M190.406 76.2346H187.089V79.5491H190.406V76.2346Z" fill="#5CA441"/>
<path d="M190.406 72.9202H187.089V76.2346H190.406V72.9202Z" fill="#213A17"/>
<path d="M190.406 62.9745H187.089V66.2889H190.406V62.9745Z" fill="#8DD9B9"/>
<path d="M190.406 59.66H187.089V62.9745H190.406V59.66Z" fill="#31C587"/>
<path d="M190.406 56.3456H187.089V59.66H190.406V56.3456Z" fill="#213A17"/>
<path d="M190.406 49.719H187.089V53.0289H190.406V49.719Z" fill="#E9FFD6"/>
<path d="M190.406 46.4045H187.089V49.719H190.406V46.4045Z" fill="#8DD9B9"/>
<path d="M190.406 43.0901H187.089V46.4045H190.406V43.0901Z" fill="#31C587"/>
<path d="M190.406 39.7758H187.089V43.0902H190.406V39.7758Z" fill="#5CA441"/>
<path d="M190.406 36.459H187.089V39.7734H190.406V36.459Z" fill="#213A17"/>
<path d="M190.406 29.8301H187.089V33.1445H190.406V29.8301Z" fill="#5CA441"/>
<path d="M190.406 3.31445H187.089V6.6289H190.406V3.31445Z" fill="#31C587"/>
<path d="M190.406 0H187.089V3.31445H190.406V0Z" fill="#8DD9B9"/>
<path d="M187.088 62.9745H183.773V66.2889H187.088V62.9745Z" fill="#8DD9B9"/>
<path d="M187.088 36.4589H183.773V39.7734H187.088V36.4589Z" fill="#3B6A2A"/>
<path d="M187.088 26.5156H183.773V29.83H187.088V26.5156Z" fill="#5CA441"/>
<path d="M187.088 23.2011H183.773V26.5156H187.088V23.2011Z" fill="#8DD9B9"/>
<path d="M187.088 19.8844H183.773V23.1988H187.088V19.8844Z" fill="#8DD9B9"/>
<path d="M187.088 9.94562H183.773V13.2601H187.088V9.94562Z" fill="#3B6A2A"/>
<path d="M187.088 6.63116H183.773V9.94561H187.088V6.63116Z" fill="#5CA441"/>
<path d="M183.773 53.0312H180.459V56.3456H183.773V53.0312Z" fill="#213A17"/>
<path d="M183.773 36.4589H180.459V39.7734H183.773V36.4589Z" fill="#5CA441"/>
<path d="M183.773 23.2011H180.459V26.5156H183.773V23.2011Z" fill="#31C587"/>
<path d="M183.773 19.8844H180.459V23.1988H183.773V19.8844Z" fill="#E9FFD6"/>
<path d="M180.459 56.3456H177.145V59.66H180.459V56.3456Z" fill="#3B6A2A"/>
<path d="M180.459 43.0901H177.145V46.4045H180.459V43.0901Z" fill="#213A17"/>
<path d="M180.459 36.459H177.145V39.7734H180.459V36.459Z" fill="#31C587"/>
<path d="M180.459 33.1445H177.145V36.459H180.459V33.1445Z" fill="#31C587"/>
<path d="M180.459 19.8844H177.145V23.1988H180.459V19.8844Z" fill="#3B6A2A"/>
<path d="M180.459 16.5746H177.145V19.8845H180.459V16.5746Z" fill="#213A17"/>
<path d="M177.145 62.9745H173.831V66.2889H177.145V62.9745Z" fill="#31C587"/>
<path d="M177.145 59.66H173.831V62.9745H177.145V59.66Z" fill="#5CA441"/>
<path d="M177.145 46.4045H173.831V49.719H177.145V46.4045Z" fill="#3B6A2A"/>
<path d="M177.145 43.0901H173.831V46.4045H177.145V43.0901Z" fill="#213A17"/>
<path d="M177.145 36.459H173.831V39.7734H177.145V36.459Z" fill="#8DD9B9"/>
<path d="M177.145 33.1445H173.831V36.459H177.145V33.1445Z" fill="#8DD9B9"/>
<path d="M177.145 16.5746H173.831V19.8845H177.145V16.5746Z" fill="#5CA441"/>
<path d="M177.145 13.2601H173.831V16.5746H177.145V13.2601Z" fill="#31C587"/>
<path d="M177.145 9.94568H173.831V13.2601H177.145V9.94568Z" fill="#8DD9B9"/>
<path d="M173.83 69.6034H170.514V72.9179H173.83V69.6034Z" fill="#8DD9B9"/>
<path d="M173.83 66.2891H170.514V69.6035H173.83V66.2891Z" fill="#8DD9B9"/>
<path d="M173.83 62.9745H170.514V66.2889H173.83V62.9745Z" fill="#31C587"/>
<path d="M173.83 49.719H170.514V53.0289H173.83V49.719Z" fill="#31C587"/>
<path d="M173.83 46.4045H170.514V49.719H173.83V46.4045Z" fill="#5CA441"/>
<path d="M173.83 36.459H170.514V39.7734H173.83V36.459Z" fill="#E9FFD6"/>
<path d="M173.83 33.1445H170.514V36.459H173.83V33.1445Z" fill="#E9FFD6"/>
<path d="M173.83 13.2601H170.514V16.5746H173.83V13.2601Z" fill="#8DD9B9"/>
<path d="M173.83 9.94568H170.514V13.2601H173.83V9.94568Z" fill="#E9FFD6"/>
<path d="M173.83 6.63123H170.514V9.94568H173.83V6.63123Z" fill="#5CA441"/>
<path d="M170.513 66.2891H167.201V69.6035H170.513V66.2891Z" fill="#8DD9B9"/>
<path d="M170.513 53.0312H167.201V56.3456H170.513V53.0312Z" fill="#8DD9B9"/>
<path d="M170.513 49.719H167.201V53.0289H170.513V49.719Z" fill="#E9FFD6"/>
<path d="M170.513 46.4045H167.201V49.719H170.513V46.4045Z" fill="#31C587"/>
<path d="M170.513 33.1445H167.201V36.4589H170.513V33.1445Z" fill="#3B6A2A"/>
<path d="M170.513 29.83H167.201V33.1445H170.513V29.83Z" fill="#213A17"/>
<path d="M170.513 3.31445H167.201V6.6289H170.513V3.31445Z" fill="#31C587"/>
<path d="M167.201 49.719H163.887V53.0289H167.201V49.719Z" fill="#8DD9B9"/>
<path d="M167.201 29.8301H163.887V33.1445H167.201V29.8301Z" fill="#5CA441"/>
<path d="M167.201 26.5156H163.887V29.8301H167.201V26.5156Z" fill="#31C587"/>
<path d="M167.201 0H163.887V3.31445H167.201V0Z" fill="#8DD9B9"/>
<path d="M163.887 53.0312H160.572V56.3456H163.887V53.0312Z" fill="#3B6A2A"/>
<path d="M163.887 39.7758H160.572V43.0902H163.887V39.7758Z" fill="#213A17"/>
<path d="M163.887 29.83H160.572V33.1445H163.887V29.83Z" fill="#31C587"/>
<path d="M163.887 26.5156H160.572V29.83H163.887V26.5156Z" fill="#8DD9B9"/>
<path d="M163.887 23.2011H160.572V26.5156H163.887V23.2011Z" fill="#8DD9B9"/>
<path d="M163.887 19.8844H160.572V23.1988H163.887V19.8844Z" fill="#3B6A2A"/>
<path d="M160.572 56.3456H157.258V59.6601H160.572V56.3456Z" fill="#5CA441"/>
<path d="M160.572 39.7758H157.258V43.0902H160.572V39.7758Z" fill="#3B6A2A"/>
<path d="M160.572 26.5156H157.258V29.83H160.572V26.5156Z" fill="#8DD9B9"/>
<path d="M160.572 23.2011H157.258V26.5156H160.572V23.2011Z" fill="#8DD9B9"/>
<path d="M160.572 16.5745H157.258V19.8844H160.572V16.5745Z" fill="#5CA441"/>
<path d="M157.258 59.6601H153.943V62.9745H157.258V59.6601Z" fill="#31C587"/>
<path d="M157.258 39.7758H153.943V43.0902H157.258V39.7758Z" fill="#5CA441"/>
<path d="M157.258 13.2601H153.943V16.5745H157.258V13.2601Z" fill="#31C587"/>
<path d="M153.944 62.9745H150.627V66.2889H153.944V62.9745Z" fill="#8DD9B9"/>
<path d="M153.944 39.7758H150.627V43.0902H153.944V39.7758Z" fill="#31C587"/>
<path d="M153.944 9.94562H150.627V13.2601H153.944V9.94562Z" fill="#8DD9B9"/>
<path d="M150.629 39.7758H147.314V43.0902H150.629V39.7758Z" fill="#8DD9B9"/>
<path d="M147.314 39.7758H144V43.0902H147.314V39.7758Z" fill="#E9FFD6"/>
<path d="M1156 486H1153V489H1156V486Z" fill="#FFD2E3"/>
<path d="M1153 534.002H1150V536.998H1153V534.002Z" fill="#6A022E"/>
<path d="M1153 519H1150V522.002H1153V519Z" fill="#FFD2E3"/>
<path d="M1153 504.002H1150V507H1153V504.002Z" fill="#6A022E"/>
<path d="M1150 536.998H1147V539.998H1150V536.998Z" fill="#FFD2E3"/>
<path d="M1147 516H1144V519H1147V516Z" fill="#6A022E"/>
<path d="M1147 501.002H1144V504.002H1147V501.002Z" fill="#FFD2E3"/>
<path d="M1198 471H1195V474H1198V471Z" fill="#FFD2E3"/>
<path d="M1198 474H1195V477H1198V474Z" fill="#6A022E"/>
<path d="M1180 474H1177V477H1180V474Z" fill="#FFD2E3"/>
<path d="M1219 477H1216V480H1219V477Z" fill="#FFD2E3"/>
<path d="M1180 477H1177V480H1180V477Z" fill="#6A022E"/>
<path d="M1162 477H1159V480H1162V477Z" fill="#FFD2E3"/>
<path d="M1216 480H1213V483.002H1216V480Z" fill="#6A022E"/>
<path d="M1198 480H1195V483.002H1198V480Z" fill="#F85B6E"/>
<path d="M1183 480H1180V483.002H1183V480Z" fill="#FE8DB9"/>
<path d="M1165 480H1162V483.002H1165V480Z" fill="#6A022E"/>
<path d="M1213 483.002H1210V486.002H1213V483.002Z" fill="#F85B6E"/>
<path d="M1198 483.002H1195V486.002H1198V483.002Z" fill="#980440"/>
<path d="M1186 483.002H1183V486.002H1186V483.002Z" fill="#F85B6E"/>
<path d="M1183 483.002H1180V486.002H1183V483.002Z" fill="#F85B6E"/>
<path d="M1171 483.002H1168V486.002H1171V483.002Z" fill="#F85B6E"/>
<path d="M1228 486.002H1225V489.002H1228V486.002Z" fill="#FFD2E3"/>
<path d="M1195 486.002H1192V489.002H1195V486.002Z" fill="#6A022E"/>
<path d="M1186 486.002H1183V489.002H1186V486.002Z" fill="#CC2C3F"/>
<path d="M1183 486.002H1180V489.002H1183V486.002Z" fill="#980440"/>
<path d="M1174 486.002H1171V489.002H1174V486.002Z" fill="#CC2C3F"/>
<path d="M1225 489.002H1222V492.002H1225V489.002Z" fill="#6A022E"/>
<path d="M1186 489.002H1183V492.002H1186V489.002Z" fill="#6A022E"/>
<path d="M1177 489.002H1174V492.002H1177V489.002Z" fill="#980440"/>
<path d="M1159 489.002H1156V492.002H1159V489.002Z" fill="#6A022E"/>
<path d="M1234 492.002H1231V495.002H1234V492.002Z" fill="#FFD2E3"/>
<path d="M1222 492.002H1219V495.002H1222V492.002Z" fill="#F85B6E"/>
<path d="M1207 492.002H1204V495.002H1207V492.002Z" fill="#FE8DB9"/>
<path d="M1204 492.002H1201V495.002H1204V492.002Z" fill="#F85B6E"/>
<path d="M1189 492.002H1186V495.002H1189V492.002Z" fill="#6A022E"/>
<path d="M1180 492.002H1177V495.002H1180V492.002Z" fill="#6A022E"/>
<path d="M1162 492.002H1159V495.002H1162V492.002Z" fill="#F85B6E"/>
<path d="M1231 495.004H1228V498H1231V495.004Z" fill="#F85B6E"/>
<path d="M1222 495.004H1219V498H1222V495.004Z" fill="#F85B6E"/>
<path d="M1219 495.004H1216V498H1219V495.004Z" fill="#CC2C3F"/>
<path d="M1204 495.004H1201V498H1204V495.004Z" fill="#CC2C3F"/>
<path d="M1201 495.004H1198V498H1201V495.004Z" fill="#980440"/>
<path d="M1183 495.004H1180V498H1183V495.004Z" fill="#6A022E"/>
<path d="M1171 495.004H1168V498H1171V495.004Z" fill="#F85B6E"/>
<path d="M1165 495.004H1162V498H1165V495.004Z" fill="#CC2C3F"/>
<path d="M1216 498H1213V501H1216V498Z" fill="#980440"/>
<path d="M1198 498H1195V501H1198V498Z" fill="#6A022E"/>
<path d="M1171 498H1168V501H1171V498Z" fill="#CC2C3F"/>
<path d="M1168 498H1165V501H1168V498Z" fill="#F85B6E"/>
<path d="M1216 501H1213V504H1216V501Z" fill="#FE8DB9"/>
<path d="M1213 501H1210V504H1213V501Z" fill="#FFD2E3"/>
<path d="M1189 501H1186V504H1189V501Z" fill="#F85B6E"/>
<path d="M1186 501H1183V504H1186V501Z" fill="#FE8DB9"/>
<path d="M1183 501H1180V504H1183V501Z" fill="#F85B6E"/>
<path d="M1174 501H1171V504H1174V501Z" fill="#980440"/>
<path d="M1216 504H1213V507.002H1216V504Z" fill="#F85B6E"/>
<path d="M1213 504H1210V507.002H1213V504Z" fill="#F85B6E"/>
<path d="M1201 504H1198V507.002H1201V504Z" fill="#FE8DB9"/>
<path d="M1198 504H1195V507.002H1198V504Z" fill="#F85B6E"/>
<path d="M1189 504H1186V507.002H1189V504Z" fill="#FFD2E3"/>
<path d="M1186 504H1183V507.002H1186V504Z" fill="#CC2C3F"/>
<path d="M1177 504H1174V507.002H1177V504Z" fill="#6A022E"/>
<path d="M1240 507.002H1237V510.002H1240V507.002Z" fill="#FFD2E3"/>
<path d="M1228 507.002H1225V510.002H1228V507.002Z" fill="#FE8DB9"/>
<path d="M1225 507.002H1222V510.002H1225V507.002Z" fill="#F85B6E"/>
<path d="M1213 507.002H1210V510.002H1213V507.002Z" fill="#CC2C3F"/>
<path d="M1210 507.002H1207V510.002H1210V507.002Z" fill="#980440"/>
<path d="M1201 507.002H1198V510.002H1201V507.002Z" fill="#FFD2E3"/>
<path d="M1198 507.002H1195V510.002H1198V507.002Z" fill="#F85B6E"/>
<path d="M1189 507.002H1186V510.002H1189V507.002Z" fill="#980440"/>
<path d="M1183 507.002H1180V510.002H1183V507.002Z" fill="#6A022E"/>
<path d="M1159 507.002H1156V510.002H1159V507.002Z" fill="#F85B6E"/>
<path d="M1237 510.002H1234V513.002H1237V510.002Z" fill="#6A022E"/>
<path d="M1228 510.002H1225V513.002H1228V510.002Z" fill="#FFD2E3"/>
<path d="M1225 510.002H1222V513.002H1225V510.002Z" fill="#F85B6E"/>
<path d="M1222 510.002H1219V513.002H1222V510.002Z" fill="#CC2C3F"/>
<path d="M1207 510.002H1204V513.002H1207V510.002Z" fill="#6A022E"/>
<path d="M1198 510.002H1195V513.002H1198V510.002Z" fill="#CC2C3F"/>
<path d="M1195 510.002H1192V513.002H1195V510.002Z" fill="#980440"/>
<path d="M1192 510.002H1189V513.002H1192V510.002Z" fill="#6A022E"/>
<path d="M1189 510.002H1186V513.002H1189V510.002Z" fill="#3C0119"/>
<path d="M1162 510.002H1159V513.002H1162V510.002Z" fill="#CC2C3F"/>
<path d="M1219 513.002H1216V516.004H1219V513.002Z" fill="#980440"/>
<path d="M1216 513.002H1213V516.004H1216V513.002Z" fill="#6A022E"/>
<path d="M1192 513.002H1189V516.004H1192V513.002Z" fill="#6A022E"/>
<path d="M1186 513.002H1183V516.004H1186V513.002Z" fill="#F85B6E"/>
<path d="M1165 513.002H1162V516.004H1165V513.002Z" fill="#3C0119"/>
<path d="M1186 516.002H1183V519.002H1186V516.002Z" fill="#CC2C3F"/>
<path d="M1183 516.002H1180V519.002H1183V516.002Z" fill="#FFD2E3"/>
<path d="M1174 516.002H1171V519.002H1174V516.002Z" fill="#980440"/>
<path d="M1168 516.002H1165V519.002H1168V516.002Z" fill="#F85B6E"/>
<path d="M1165 516.002H1162V519.002H1165V516.002Z" fill="#FFD2E3"/>
<path d="M1246 519.002H1243V522.002H1246V519.002Z" fill="#FFD2E3"/>
<path d="M1243 519.002H1240V522.002H1243V519.002Z" fill="#6A022E"/>
<path d="M1234 519.002H1231V522.002H1234V519.002Z" fill="#F85B6E"/>
<path d="M1210 519.002H1207V522.002H1210V519.002Z" fill="#F85B6E"/>
<path d="M1207 519.002H1204V522.002H1207V519.002Z" fill="#980440"/>
<path d="M1204 519.002H1201V522.002H1204V519.002Z" fill="#6A022E"/>
<path d="M1192 519.002H1189V522.002H1192V519.002Z" fill="#3C0119"/>
<path d="M1189 519.002H1186V522.002H1189V519.002Z" fill="#980440"/>
<path d="M1177 519.002H1174V522.002H1177V519.002Z" fill="#980440"/>
<path d="M1174 519.002H1171V522.002H1174V519.002Z" fill="#980440"/>
<path d="M1171 519.002H1168V522.002H1171V519.002Z" fill="#CC2C3F"/>
<path d="M1168 519.002H1165V522.002H1168V519.002Z" fill="#FE8DB9"/>
<path d="M1159 519.002H1156V522.002H1159V519.002Z" fill="#6A022E"/>
<path d="M1234 522.002H1231V525.002H1234V522.002Z" fill="#F85B6E"/>
<path d="M1213 522.002H1210V525.002H1213V522.002Z" fill="#FE8DB9"/>
<path d="M1210 522.002H1207V525.002H1210V522.002Z" fill="#F85B6E"/>
<path d="M1207 522.002H1204V525.002H1207V522.002Z" fill="#CC2C3F"/>
<path d="M1198 522.002H1195V525.002H1198V522.002Z" fill="#CC2C3F"/>
<path d="M1183 522.002H1180V525.002H1183V522.002Z" fill="#3C0119"/>
<path d="M1180 522.002H1177V525.002H1180V522.002Z" fill="#6A022E"/>
<path d="M1219 525.002H1216V528H1219V525.002Z" fill="#980440"/>
<path d="M1216 525.002H1213V528H1216V525.002Z" fill="#6A022E"/>
<path d="M1210 525.002H1207V528H1210V525.002Z" fill="#FFD2E3"/>
<path d="M1201 525.002H1198V528H1201V525.002Z" fill="#F85B6E"/>
<path d="M1198 525.002H1195V528H1198V525.002Z" fill="#F85B6E"/>
<path d="M1195 525.002H1192V528H1195V525.002Z" fill="#980440"/>
<path d="M1225 528H1222V531H1225V528Z" fill="#F85B6E"/>
<path d="M1222 528H1219V531H1222V528Z" fill="#F85B6E"/>
<path d="M1219 528H1216V531H1219V528Z" fill="#CC2C3F"/>
<path d="M1201 528H1198V531H1201V528Z" fill="#FE8DB9"/>
<path d="M1198 528H1195V531H1198V528Z" fill="#FFD2E3"/>
<path d="M1195 528H1192V531H1195V528Z" fill="#6A022E"/>
<path d="M1192 528H1189V531H1192V528Z" fill="#3C0119"/>
<path d="M1183 528H1180V531H1183V528Z" fill="#4A011F"/>
<path d="M1180 528H1177V531H1180V528Z" fill="#6A022E"/>
<path d="M1225 531H1222V534H1225V531Z" fill="#FE8DB9"/>
<path d="M1222 531H1219V534H1222V531Z" fill="#F85B6E"/>
<path d="M1192 531H1189V534H1192V531Z" fill="#980440"/>
<path d="M1189 531H1186V534H1189V531Z" fill="#6A022E"/>
<path d="M1177 531H1174V534H1177V531Z" fill="#980440"/>
<path d="M1168 531H1165V534H1168V531Z" fill="#3C0119"/>
<path d="M1165 531H1162V534H1165V531Z" fill="#980440"/>
<path d="M1162 531H1159V534H1162V531Z" fill="#CC2C3F"/>
<path d="M1240 534H1237V537H1240V534Z" fill="#6A022E"/>
<path d="M1234 534H1231V537H1234V534Z" fill="#F85B6E"/>
<path d="M1207 534H1204V537H1207V534Z" fill="#980440"/>
<path d="M1204 534H1201V537H1204V534Z" fill="#6A022E"/>
<path d="M1195 534H1192V537H1195V534Z" fill="#6A022E"/>
<path d="M1189 534H1186V537H1189V534Z" fill="#CC2C3F"/>
<path d="M1186 534H1183V537H1186V534Z" fill="#F85B6E"/>
<path d="M1174 534H1171V537H1174V534Z" fill="#CC2C3F"/>
<path d="M1159 534H1156V537H1159V534Z" fill="#F85B6E"/>
<path d="M1243 537H1240V540.002H1243V537Z" fill="#FFD2E3"/>
<path d="M1216 537H1213V540.002H1216V537Z" fill="#6A022E"/>
<path d="M1207 537H1204V540.002H1207V537Z" fill="#CC2C3F"/>
<path d="M1195 537H1192V540.002H1195V537Z" fill="#980440"/>
<path d="M1189 537H1186V540.002H1189V537Z" fill="#F85B6E"/>
<path d="M1186 537H1183V540.002H1186V537Z" fill="#FE8DB9"/>
<path d="M1171 537H1168V540.002H1171V537Z" fill="#F85B6E"/>
<path d="M1219 540.002H1216V543.002H1219V540.002Z" fill="#980440"/>
<path d="M1213 540.002H1210V543.002H1213V540.002Z" fill="#FE8DB9"/>
<path d="M1210 540.002H1207V543.002H1210V540.002Z" fill="#F85B6E"/>
<path d="M1198 540.002H1195V543.002H1198V540.002Z" fill="#980440"/>
<path d="M1195 540.002H1192V543.002H1195V540.002Z" fill="#CC2C3F"/>
<path d="M1186 540.002H1183V543.002H1186V540.002Z" fill="#6A022E"/>
<path d="M1183 540.002H1180V543.002H1183V540.002Z" fill="#FFD2E3"/>
<path d="M1168 540.002H1165V543.002H1168V540.002Z" fill="#F85B6E"/>
<path d="M1225 543.002H1222V546.002H1225V543.002Z" fill="#F85B6E"/>
<path d="M1222 543.002H1219V546.002H1222V543.002Z" fill="#CC2C3F"/>
<path d="M1213 543.002H1210V546.002H1213V543.002Z" fill="#FFD2E3"/>
<path d="M1210 543.002H1207V546.002H1210V543.002Z" fill="#F85B6E"/>
<path d="M1198 543.002H1195V546.002H1198V543.002Z" fill="#F85B6E"/>
<path d="M1195 543.002H1192V546.002H1195V543.002Z" fill="#F85B6E"/>
<path d="M1183 543.002H1180V546.002H1183V543.002Z" fill="#6A022E"/>
<path d="M1162 543.002H1159V546.002H1162V543.002Z" fill="#6A022E"/>
<path d="M1231 546.002H1228V549.002H1231V546.002Z" fill="#6A022E"/>
<path d="M1225 546.002H1222V549.002H1225V546.002Z" fill="#FE8DB9"/>
<path d="M1222 546.002H1219V549.002H1222V546.002Z" fill="#F85B6E"/>
<path d="M1198 546.002H1195V549.002H1198V546.002Z" fill="#FFD2E3"/>
<path d="M1195 546.002H1192V549.002H1195V546.002Z" fill="#FE8DB9"/>
<path d="M1183 546.002H1180V549.002H1183V546.002Z" fill="#980440"/>
<path d="M1180 546.002H1177V549.002H1180V546.002Z" fill="#980440"/>
<path d="M1174 546.002H1171V549.002H1174V546.002Z" fill="#6A022E"/>
<path d="M1159 546.002H1156V549.002H1159V546.002Z" fill="#FFD2E3"/>
<path d="M1234 549.002H1231V552.002H1234V549.002Z" fill="#FFD2E3"/>
<path d="M1210 549.002H1207V552.002H1210V549.002Z" fill="#980440"/>
<path d="M1198 549.002H1195V552.002H1198V549.002Z" fill="#FFD2E3"/>
<path d="M1192 549.002H1189V552.002H1192V549.002Z" fill="#3C0119"/>
<path d="M1180 549.002H1177V552.002H1180V549.002Z" fill="#CC2C3F"/>
<path d="M1177 549.002H1174V552.002H1177V549.002Z" fill="#F85B6E"/>
<path d="M1171 549.002H1168V552.002H1171V549.002Z" fill="#980440"/>
<path d="M1222 552.002H1219V555.002H1222V552.002Z" fill="#6A022E"/>
<path d="M1216 552.002H1213V555.002H1216V552.002Z" fill="#F85B6E"/>
<path d="M1213 552.002H1210V555.002H1213V552.002Z" fill="#CC2C3F"/>
<path d="M1198 552.002H1195V555.002H1198V552.002Z" fill="#980440"/>
<path d="M1195 552.002H1192V555.002H1195V552.002Z" fill="#6A022E"/>
<path d="M1180 552.002H1177V555.002H1180V552.002Z" fill="#F85B6E"/>
<path d="M1177 552.002H1174V555.002H1177V552.002Z" fill="#FE8DB9"/>
<path d="M1168 552.002H1165V555.002H1168V552.002Z" fill="#CC2C3F"/>
<path d="M1225 555.002H1222V558H1225V555.002Z" fill="#F85B6E"/>
<path d="M1216 555.002H1213V558H1216V555.002Z" fill="#FFD2E3"/>
<path d="M1213 555.002H1210V558H1213V555.002Z" fill="#F85B6E"/>
<path d="M1201 555.002H1198V558H1201V555.002Z" fill="#CC2C3F"/>
<path d="M1198 555.002H1195V558H1198V555.002Z" fill="#CC2C3F"/>
<path d="M1186 555.002H1183V558H1186V555.002Z" fill="#6A022E"/>
<path d="M1174 555.002H1171V558H1174V555.002Z" fill="#FFD2E3"/>
<path d="M1165 555.002H1162V558H1165V555.002Z" fill="#F85B6E"/>
<path d="M1231 558H1228V561H1231V558Z" fill="#6A022E"/>
<path d="M1216 558H1213V561H1216V558Z" fill="#6A022E"/>
<path d="M1201 558H1198V561H1201V558Z" fill="#FE8DB9"/>
<path d="M1198 558H1195V561H1198V558Z" fill="#F85B6E"/>
<path d="M1186 558H1183V561H1186V558Z" fill="#980440"/>
<path d="M1177 558H1174V561H1177V558Z" fill="#6A022E"/>
<path d="M1162 558H1159V561H1162V558Z" fill="#6A022E"/>
<path d="M1234 561H1231V564H1234V561Z" fill="#FFD2E3"/>
<path d="M1219 561H1216V564H1219V561Z" fill="#FFD2E3"/>
<path d="M1204 561H1201V564H1204V561Z" fill="#CC2C3F"/>
<path d="M1198 561H1195V564H1198V561Z" fill="#6A022E"/>
<path d="M1186 561H1183V564H1186V561Z" fill="#CC2C3F"/>
<path d="M1174 561H1171V564H1174V561Z" fill="#FFD2E3"/>
<path d="M1159 561H1156V564H1159V561Z" fill="#FFD2E3"/>
<path d="M1207 564H1204V567.002H1207V564Z" fill="#F85B6E"/>
<path d="M1198 564H1195V567.002H1198V564Z" fill="#FFD2E3"/>
<path d="M1186 564H1183V567.002H1186V564Z" fill="#F85B6E"/>
<path d="M1207 567.002H1204V570.002H1207V567.002Z" fill="#6A022E"/>
<path d="M1210 570.002H1207V573.002H1210V570.002Z" fill="#FFD2E3"/>
<path d="M1186 570.002H1183V573.002H1186V570.002Z" fill="#FFD2E3"/>
<path d="M881.672 139.018H878.338V142.354H881.672V139.018Z" fill="#D6ECFF"/>
<path d="M908.342 139.018H905.008V142.354H908.342V139.018Z" fill="#D6ECFF"/>
<path d="M931.68 139.018H928.346V142.354H931.68V139.018Z" fill="#D6ECFF"/>
<path d="M881.672 135.682H878.338V139.016H881.672V135.682Z" fill="#8CAFFF"/>
<path d="M908.342 135.682H905.008V139.016H908.342V135.682Z" fill="#20A4F3"/>
<path d="M931.68 135.682H928.346V139.016H931.68V135.682Z" fill="#D6ECFF"/>
<path d="M885.006 132.348H881.672V135.682H885.006V132.348Z" fill="#20A4F3"/>
<path d="M908.342 132.348H905.008V135.682H908.342V132.348Z" fill="#4160A4"/>
<path d="M928.343 132.348H925.014V135.682H928.343V132.348Z" fill="#8CAFFF"/>
<path d="M888.34 129.014H885.006V132.348H888.34V129.014Z" fill="#4160A4"/>
<path d="M905.008 129.014H901.674V132.348H905.008V129.014Z" fill="#2A3D6A"/>
<path d="M925.014 129.014H921.68V132.348H925.014V129.014Z" fill="#20A4F3"/>
<path d="M945.015 129.014H941.681V132.348H945.015V129.014Z" fill="#D6ECFF"/>
<path d="M891.674 125.68H888.34V129.014H891.674V125.68Z" fill="#17223A"/>
<path d="M905.008 125.68H901.674V129.014H905.008V125.68Z" fill="#17223A"/>
<path d="M921.68 125.68H918.346V129.014H921.68V125.68Z" fill="#4160A4"/>
<path d="M945.015 125.68H941.681V129.014H945.015V125.68Z" fill="#8CAFFF"/>
<path d="M888.34 122.346H885.006V125.68H888.34V122.346Z" fill="#D6ECFF"/>
<path d="M891.674 122.346H888.34V125.68H891.674V122.346Z" fill="#8CAFFF"/>
<path d="M905.008 122.346H901.674V125.68H905.008V122.346Z" fill="#17223A"/>
<path d="M918.346 122.346H915.012V125.68H918.346V122.346Z" fill="#2A3D6A"/>
<path d="M941.682 122.346H938.348V125.68H941.682V122.346Z" fill="#20A4F3"/>
<path d="M875.002 119.012H871.668V122.346H875.002V119.012Z" fill="#D6ECFF"/>
<path d="M888.34 119.012H885.006V122.346H888.34V119.012Z" fill="#D6ECFF"/>
<path d="M891.674 119.012H888.34V122.346H891.674V119.012Z" fill="#4160A4"/>
<path d="M915.012 119.012H911.678V122.346H915.012V119.012Z" fill="#D6ECFF"/>
<path d="M938.347 119.012H935.013V122.346H938.347V119.012Z" fill="#2A3D6A"/>
<path d="M875.002 115.68H871.668V119.009H875.002V115.68Z" fill="#8CAFFF"/>
<path d="M878.335 115.68H875.001V119.009H878.335V115.68Z" fill="#20A4F3"/>
<path d="M895.003 115.68H891.674V119.009H895.003V115.68Z" fill="#17223A"/>
<path d="M911.675 115.68H908.341V119.009H911.675V115.68Z" fill="#20A4F3"/>
<path d="M915.012 115.68H911.678V119.009H915.012V115.68Z" fill="#8CAFFF"/>
<path d="M928.343 115.68H925.014V119.009H928.343V115.68Z" fill="#8CAFFF"/>
<path d="M881.672 112.346H878.338V115.68H881.672V112.346Z" fill="#4160A4"/>
<path d="M885.006 112.346H881.672V115.68H885.006V112.346Z" fill="#17223A"/>
<path d="M898.34 112.346H895.006V115.68H898.34V112.346Z" fill="#17223A"/>
<path d="M911.675 112.346H908.341V115.68H911.675V112.346Z" fill="#17223A"/>
<path d="M925.014 112.346H921.68V115.68H925.014V112.346Z" fill="#2A3D6A"/>
<path d="M928.343 112.346H925.014V115.68H928.343V112.346Z" fill="#8CAFFF"/>
<path d="M908.342 109.012H905.008V112.346H908.342V109.012Z" fill="#4160A4"/>
<path d="M928.343 109.012H925.014V112.346H928.343V109.012Z" fill="#D6ECFF"/>
<path d="M858.334 105.678H855V109.012H858.334V105.678Z" fill="#D6ECFF"/>
<path d="M908.342 105.678H905.008V109.012H908.342V105.678Z" fill="#17223A"/>
<path d="M911.675 105.678H908.341V109.012H911.675V105.678Z" fill="#17223A"/>
<path d="M948.352 105.678H945.018V109.012H948.352V105.678Z" fill="#D6ECFF"/>
<path d="M861.663 102.344H858.334V105.678H861.663V102.344Z" fill="#D6ECFF"/>
<path d="M865 102.344H861.666V105.678H865V102.344Z" fill="#8CAFFF"/>
<path d="M868.334 102.344H865V105.678H868.334V102.344Z" fill="#4160A4"/>
<path d="M871.668 102.344H868.334V105.678H871.668V102.344Z" fill="#17223A"/>
<path d="M881.672 102.344H878.338V105.678H881.672V102.344Z" fill="#8CAFFF"/>
<path d="M885.006 102.344H881.672V105.678H885.006V102.344Z" fill="#20A4F3"/>
<path d="M888.34 102.344H885.006V105.678H888.34V102.344Z" fill="#17223A"/>
<path d="M895.003 102.344H891.674V105.678H895.003V102.344Z" fill="#D6ECFF"/>
<path d="M898.34 102.344H895.006V105.678H898.34V102.344Z" fill="#8CAFFF"/>
<path d="M901.673 102.344H898.339V105.678H901.673V102.344Z" fill="#20A4F3"/>
<path d="M905.008 102.344H901.674V105.678H905.008V102.344Z" fill="#4160A4"/>
<path d="M908.342 102.344H905.008V105.678H908.342V102.344Z" fill="#17223A"/>
<path d="M915.012 102.344H911.678V105.678H915.012V102.344Z" fill="#17223A"/>
<path d="M941.682 102.344H938.348V105.678H941.682V102.344Z" fill="#20A4F3"/>
<path d="M945.015 102.344H941.681V105.678H945.015V102.344Z" fill="#8CAFFF"/>
<path d="M878.335 99.0101H875.001V102.344H878.335V99.0101Z" fill="#D6ECFF"/>
<path d="M881.672 99.0101H878.338V102.344H881.672V99.0101Z" fill="#8CAFFF"/>
<path d="M895.003 99.0101H891.674V102.344H895.003V99.0101Z" fill="#D6ECFF"/>
<path d="M908.342 99.0101H905.008V102.344H908.342V99.0101Z" fill="#2A3D6A"/>
<path d="M918.346 99.0101H915.012V102.344H918.346V99.0101Z" fill="#4160A4"/>
<path d="M921.68 99.0101H918.346V102.344H921.68V99.0101Z" fill="#8CAFFF"/>
<path d="M925.014 99.0101H921.68V102.344H925.014V99.0101Z" fill="#8CAFFF"/>
<path d="M935.014 99.0101H931.68V102.344H935.014V99.0101Z" fill="#2A3D6A"/>
<path d="M938.347 99.0101H935.013V102.344H938.347V99.0101Z" fill="#4160A4"/>
<path d="M891.674 95.676H888.34V99.01H891.674V95.676Z" fill="#17223A"/>
<path d="M908.342 95.676H905.008V99.01H908.342V95.676Z" fill="#4160A4"/>
<path d="M921.68 95.676H918.346V99.01H921.68V95.676Z" fill="#20A4F3"/>
<path d="M925.014 95.676H921.68V99.01H925.014V95.676Z" fill="#D6ECFF"/>
<path d="M888.34 92.3398H885.006V95.6738H888.34V92.3398Z" fill="#2A3D6A"/>
<path d="M901.673 92.3398H898.339V95.6738H901.673V92.3398Z" fill="#17223A"/>
<path d="M908.342 92.3398H905.008V95.6738H908.342V92.3398Z" fill="#20A4F3"/>
<path d="M911.675 92.3398H908.341V95.6738H911.675V92.3398Z" fill="#20A4F3"/>
<path d="M925.014 92.3398H921.68V95.6738H925.014V92.3398Z" fill="#2A3D6A"/>
<path d="M928.343 92.3398H925.014V95.6738H928.343V92.3398Z" fill="#17223A"/>
<path d="M881.672 89.0059H878.338V92.3398H881.672V89.0059Z" fill="#20A4F3"/>
<path d="M885.006 89.0059H881.672V92.3398H885.006V89.0059Z" fill="#4160A4"/>
<path d="M898.34 89.0059H895.006V92.3398H898.34V89.0059Z" fill="#2A3D6A"/>
<path d="M901.673 89.0059H898.339V92.3398H901.673V89.0059Z" fill="#17223A"/>
<path d="M911.675 89.0059H908.341V92.3398H911.675V89.0059Z" fill="#8CAFFF"/>
<path d="M928.343 89.0059H925.014V92.3398H928.343V89.0059Z" fill="#4160A4"/>
<path d="M931.68 89.0059H928.346V92.3398H931.68V89.0059Z" fill="#20A4F3"/>
<path d="M935.014 89.0059H931.68V92.3398H935.014V89.0059Z" fill="#8CAFFF"/>
<path d="M871.668 85.6719H868.334V89.0059H871.668V85.6719Z" fill="#D6ECFF"/>
<path d="M875.002 85.6719H871.668V89.0059H875.002V85.6719Z" fill="#8CAFFF"/>
<path d="M878.335 85.6719H875.001V89.0059H878.335V85.6719Z" fill="#8CAFFF"/>
<path d="M881.672 85.6719H878.338V89.0059H881.672V85.6719Z" fill="#20A4F3"/>
<path d="M895.003 85.6719H891.674V89.0059H895.003V85.6719Z" fill="#20A4F3"/>
<path d="M898.34 85.6719H895.006V89.0059H898.34V85.6719Z" fill="#4160A4"/>
<path d="M911.675 85.6719H908.341V89.0059H911.675V85.6719Z" fill="#D6ECFF"/>
<path d="M915.012 85.6719H911.678V89.0059H915.012V85.6719Z" fill="#D6ECFF"/>
<path d="M931.68 85.6719H928.346V89.0059H931.68V85.6719Z" fill="#8CAFFF"/>
<path d="M935.014 85.6719H931.68V89.0059H935.014V85.6719Z" fill="#D6ECFF"/>
<path d="M938.347 85.6719H935.013V89.0059H938.347V85.6719Z" fill="#4160A4"/>
<path d="M878.335 82.3401H875.001V85.6695H878.335V82.3401Z" fill="#8CAFFF"/>
<path d="M891.674 82.3401H888.34V85.6695H891.674V82.3401Z" fill="#8CAFFF"/>
<path d="M895.003 82.3401H891.674V85.6695H895.003V82.3401Z" fill="#D6ECFF"/>
<path d="M898.34 82.3401H895.006V85.6695H898.34V82.3401Z" fill="#20A4F3"/>
<path d="M911.675 82.3401H908.341V85.6695H911.675V82.3401Z" fill="#2A3D6A"/>
<path d="M915.012 82.3401H911.678V85.6695H915.012V82.3401Z" fill="#17223A"/>
<path d="M941.682 82.3401H938.348V85.6695H941.682V82.3401Z" fill="#20A4F3"/>
<path d="M895.003 79.0062H891.674V82.3402H895.003V79.0062Z" fill="#8CAFFF"/>
<path d="M915.012 79.0062H911.678V82.3402H915.012V79.0062Z" fill="#4160A4"/>
<path d="M918.346 79.0062H915.012V82.3402H918.346V79.0062Z" fill="#20A4F3"/>
<path d="M945.015 79.0062H941.681V82.3402H945.015V79.0062Z" fill="#8CAFFF"/>
<path d="M948.352 79.0062H945.018V82.3402H948.352V79.0062Z" fill="#D6ECFF"/>
<path d="M891.674 75.6722H888.34V79.0062H891.674V75.6722Z" fill="#2A3D6A"/>
<path d="M905.008 75.6722H901.674V79.0062H905.008V75.6722Z" fill="#17223A"/>
<path d="M915.012 75.6722H911.678V79.0062H915.012V75.6722Z" fill="#20A4F3"/>
<path d="M918.346 75.6722H915.012V79.0062H918.346V75.6722Z" fill="#8CAFFF"/>
<path d="M921.68 75.6722H918.346V79.0062H921.68V75.6722Z" fill="#8CAFFF"/>
<path d="M925.014 75.6722H921.68V79.0062H925.014V75.6722Z" fill="#2A3D6A"/>
<path d="M888.34 72.3382H885.006V75.6722H888.34V72.3382Z" fill="#4160A4"/>
<path d="M905.008 72.3382H901.674V75.6722H905.008V72.3382Z" fill="#2A3D6A"/>
<path d="M921.68 72.3382H918.346V75.6722H921.68V72.3382Z" fill="#8CAFFF"/>
<path d="M928.343 72.3382H925.014V75.6722H928.343V72.3382Z" fill="#4160A4"/>
<path d="M885.006 69.0042H881.672V72.3382H885.006V69.0042Z" fill="#20A4F3"/>
<path d="M905.008 69.0042H901.674V72.3382H905.008V69.0042Z" fill="#4160A4"/>
<path d="M931.68 69.0042H928.346V72.3382H931.68V69.0042Z" fill="#20A4F3"/>
<path d="M878.335 65.6703H875.001V69.0043H878.335V65.6703Z" fill="#D6ECFF"/>
<path d="M881.672 65.6703H878.338V69.0043H881.672V65.6703Z" fill="#8CAFFF"/>
<path d="M905.008 65.6703H901.674V69.0043H905.008V65.6703Z" fill="#20A4F3"/>
<path d="M935.014 65.6703H931.68V69.0043H935.014V65.6703Z" fill="#8CAFFF"/>
<path d="M938.347 65.6703H935.013V69.0043H938.347V65.6703Z" fill="#D6ECFF"/>
<path d="M905.008 62.334H901.674V65.668H905.008V62.334Z" fill="#8CAFFF"/>
<path d="M905.008 59H901.674V62.334H905.008V59Z" fill="#D6ECFF"/>
</svg>
